<svg width="337" height="481" viewBox="0 0 337 481" fill="none" xmlns="http://www.w3.org/2000/svg">
<path d="M5 47.562C5 23.2615 24.6995 3.56201 49 3.56201H289C313.301 3.56201 333 23.2615 333 47.562V432.562C333 456.863 313.301 476.562 289 476.562H49C24.6995 476.562 5 456.863 5 432.562V47.562Z" fill="#9D342E"/>
<path d="M9.75109 108.338C10.1383 120.411 9.98014 143.69 9.89331 156.495C9.89188 156.73 9.89046 156.965 9.88903 157.199C9.86846 160.239 9.86312 163.113 9.85729 166.481C9.8434 174.513 9.82454 185.364 9.57775 208.011C9.58684 214.601 9.59179 221.191 9.59179 227.78C9.59178 296.041 9.29558 364.301 8.93118 432.562C8.91545 435.21 9.15752 437.855 9.65906 440.451C9.82133 441.255 10.0109 442.066 10.2286 442.878C13.7372 459.394 32.7209 472.386 45.5355 472.576C46.7141 472.69 47.863 472.75 49 472.763C64.6336 472.927 75.617 473.08 84.7574 473.214C141.279 473.524 197.802 473.801 254.324 473.915C265.882 473.939 277.441 473.955 289 473.964C294.802 473.974 300.592 472.755 305.88 470.386C320.005 464.216 329.947 449.579 330.343 434.169C330.358 433.634 330.363 433.098 330.358 432.562C330.277 423.685 330.184 415.232 330.096 407.358C329.966 395.589 329.85 385.111 329.813 376.456C329.722 355.603 329.865 331.948 329.972 314.382C329.989 311.512 330.006 308.801 330.02 306.294C329.967 292.343 329.911 278.389 329.853 264.438C329.885 263.507 329.919 262.568 329.953 261.614C330.382 249.708 330.377 235.07 330.369 212.031C330.365 201.998 330.361 190.369 330.393 176.679C330.413 167.858 330.583 163.326 330.721 159.624C330.762 158.534 330.801 157.513 330.831 156.479C330.937 152.935 330.823 149.2 330.688 144.787C330.513 139.061 330.303 132.193 330.493 123.119C331.098 94.2067 330.687 81.4669 330.377 71.8299C330.286 69.003 330.203 66.4407 330.158 63.8174C330.076 59.1295 330.084 53.3443 330.141 47.562C330.199 43.1432 329.521 38.7452 328.429 35.0402C326.951 28.3448 318.815 16.3889 309.366 11.788C305.958 9.92659 301.05 7.78399 294.902 6.90491C293.03 6.63636 291.06 6.48557 289 6.48822C283.739 6.49462 278.018 6.51325 272.022 6.57357C250.539 6.78967 239.123 6.89441 229.945 6.97824C227.328 7.00214 224.891 7.0239 222.456 7.0466C214.763 7.11832 205.215 7.17741 195.548 7.23703C183.98 7.30838 172.239 7.38082 163.306 7.47752C140.152 7.37519 116.995 7.24859 93.8431 7.12229C81.9509 7.05671 70.5401 6.6874 62.1309 6.07856C53.7232 5.46924 49.0007 4.67474 49 3.85135C49 3.02795 53.7236 2.23348 62.1309 1.62414C70.5401 1.0153 81.9509 0.645378 93.8431 0.579804C117.801 0.449105 141.763 0.318329 165.723 0.214197C194.909 0.0873539 224.097 -4.06293e-05 253.283 -4.06293e-05C265.189 -3.95866e-05 277.094 0.00663752 289 0.0192022C298.192 0.00509877 307.39 2.75408 315.053 7.83019C316.948 9.07951 318.752 10.4639 320.449 11.9697C331.434 21.2428 337.016 35.7605 336.885 47.562C336.912 50.8079 336.933 53.8477 336.948 56.6201C337.003 66.5793 336.894 73.8398 336.802 80.0578C336.738 84.3368 336.682 88.1233 336.691 91.9543C336.696 94.0115 336.708 96.8222 336.723 100.211C336.785 114.05 336.889 137.553 336.691 158.995C336.603 168.509 336.43 179.561 336.265 190.113C336.029 205.201 335.808 219.27 335.876 226.373C335.995 238.846 335.894 253.15 335.805 265.789C335.72 277.845 335.646 288.389 335.783 294.386C335.947 301.551 335.88 307.662 335.781 316.746C335.713 323.047 335.629 330.781 335.595 341.29C335.556 353.424 335.441 362.008 335.344 369.305C335.206 379.574 335.103 387.3 335.293 398.816C335.485 410.443 335.614 422.547 335.585 432.562C335.582 433.632 335.543 434.658 335.469 435.677C335.119 440.728 333.852 446.497 331.321 451.99C328.025 459.288 322.439 465.938 316.142 470.325C310.96 473.961 305.992 475.855 301.556 476.97C300.163 477.318 298.817 477.584 297.508 477.791C294.704 478.317 291.852 478.58 289 478.581C286.964 478.583 284.928 478.585 282.892 478.587C282.12 478.612 281.31 478.641 280.463 478.67C276.217 478.818 270.995 478.999 264.532 479.089C254.301 479.232 245.323 479.142 235.853 479.047C228.48 478.974 220.808 478.896 212.014 478.924C206.017 478.943 199.188 479.008 192.419 479.073C182.366 479.169 172.438 479.264 165.54 479.204C162.956 479.181 160.734 479.081 158.535 478.981C158.525 478.98 158.516 478.98 158.506 478.979C158.357 478.972 158.207 478.966 158.058 478.959C141.259 479.035 124.458 479.12 107.659 479.209C106.204 479.234 104.732 479.26 103.275 479.285C96.1512 479.407 89.2296 479.526 84.7166 479.695C79.8259 479.878 67.5291 479.984 54.5708 480.097C52.721 480.113 50.8575 480.129 49 480.145C41.7871 480.237 34.6899 478.523 29.1416 476.037C24.9808 474.194 21.3602 471.736 18.0673 468.788C14.9981 466.027 12.1954 462.83 9.5943 459.018C8.294 457.107 7.00196 454.961 5.83554 452.556C4.80843 450.438 3.88005 448.12 3.14138 445.615C2.51372 443.474 1.35135 438.749 1.41913 432.562C1.42428 432.101 1.42955 431.632 1.4349 431.155C1.47919 427.207 1.52922 422.721 1.5704 418.013C1.50594 405.568 1.44414 393.121 1.38668 380.676C1.29599 378.079 1.17828 375.826 1.02717 374.043C0.918757 372.764 0.789165 371.674 0.656683 370.555C0.476399 369.032 0.290093 367.457 0.141537 365.285C0.0254532 363.588 -0.0208014 361.586 0.0273988 360.243C0.0498797 359.617 0.0922415 359.136 0.13055 358.699C0.174432 358.2 0.213459 357.753 0.212339 357.209C0.211456 356.816 0.180376 356.407 0.142757 355.904C0.0826843 355.102 0.00513184 354.057 0.00237388 352.469C-0.00788129 346.556 0.0169374 339.836 0.0414371 333.253C0.0686793 325.932 0.0951115 318.777 0.0719553 313.076C0.0459993 306.69 0.161386 297.589 0.276427 288.474C0.356681 282.115 0.436533 275.746 0.469302 270.283C0.501407 264.929 0.437583 259.354 0.375306 253.955C0.300552 247.474 0.228339 241.241 0.329528 235.944C0.350078 234.873 0.475165 233.543 0.631658 231.874C0.74257 230.691 0.869383 229.33 0.986279 227.78C0.986279 221.038 0.991416 214.294 1.00093 207.551C0.983955 207.314 0.966686 207.069 0.949047 206.823C0.94864 206.819 0.948233 206.816 0.947826 206.812C0.549791 201.274 0.00533807 193.695 0.330139 183.048C0.412709 180.341 0.565211 178.638 0.70246 177.103C0.837252 175.595 0.957868 174.248 0.983227 172.275C1.01195 170.035 0.929184 167.391 0.839182 164.507C0.712808 160.459 0.571601 155.937 0.703071 151.4C0.712045 151.09 0.721894 150.757 0.731758 150.41C0.825283 147.121 0.963615 142.252 1.24202 137.407C1.31634 123.032 1.40337 108.656 1.49837 94.2817C1.6013 78.7094 1.7136 63.1351 1.82916 47.562C1.87002 38.5717 4.567 29.612 9.49131 22.128C16.2868 11.5552 27.3659 5.33969 35.7547 3.59482C44.2425 1.78356 49.0344 3.15068 49 3.85135C49.0119 4.74583 44.3292 5.04172 37.0203 7.80135C29.7543 10.5087 20.6936 16.5057 14.9893 25.6742C10.8492 32.1856 8.67051 39.8687 8.74896 47.562C8.82781 58.1837 8.90515 68.806 8.97898 79.4271C8.99576 80.4235 9.01199 81.4241 9.0272 82.4202C9.14041 89.8306 9.36778 96.7063 9.59545 103.587C9.64774 105.167 9.70016 106.751 9.75109 108.338Z" fill="#F5F0E8"/>
<path d="M34.1198 382.562V365.282H45.2558V366.674H35.7518V372.914H44.3918V374.306H35.7518V382.562H34.1198ZM52.3517 382.898C51.5517 382.882 50.7997 382.738 50.0957 382.466C49.4077 382.194 48.7997 381.786 48.2717 381.242C47.7597 380.698 47.3517 380.018 47.0477 379.202C46.7437 378.386 46.5917 377.434 46.5917 376.346C46.5917 375.434 46.7117 374.586 46.9517 373.802C47.1917 373.002 47.5517 372.306 48.0317 371.714C48.5117 371.122 49.1117 370.658 49.8317 370.322C50.5517 369.97 51.3917 369.794 52.3517 369.794C53.3277 369.794 54.1757 369.97 54.8957 370.322C55.6157 370.658 56.2157 371.122 56.6957 371.714C57.1757 372.29 57.5277 372.978 57.7517 373.778C57.9917 374.578 58.1117 375.434 58.1117 376.346C58.1117 377.338 57.9757 378.234 57.7037 379.034C57.4317 379.834 57.0397 380.522 56.5277 381.098C56.0317 381.674 55.4237 382.122 54.7037 382.442C53.9997 382.746 53.2157 382.898 52.3517 382.898ZM56.5757 376.346C56.5757 375.61 56.4957 374.922 56.3357 374.282C56.1757 373.642 55.9277 373.09 55.5917 372.626C55.2557 372.146 54.8237 371.77 54.2957 371.498C53.7677 371.226 53.1197 371.09 52.3517 371.09C51.5997 371.09 50.9517 371.242 50.4077 371.546C49.8797 371.834 49.4477 372.226 49.1117 372.722C48.7757 373.202 48.5277 373.762 48.3677 374.402C48.2077 375.026 48.1277 375.674 48.1277 376.346C48.1277 377.114 48.2157 377.826 48.3917 378.482C48.5837 379.122 48.8557 379.674 49.2077 380.138C49.5597 380.602 49.9997 380.962 50.5277 381.218C51.0557 381.474 51.6637 381.602 52.3517 381.602C53.1037 381.602 53.7437 381.458 54.2717 381.17C54.8157 380.866 55.2557 380.466 55.5917 379.97C55.9277 379.474 56.1757 378.914 56.3357 378.29C56.4957 377.666 56.5757 377.018 56.5757 376.346ZM70.3436 376.298C70.3436 375.594 70.2476 374.93 70.0556 374.306C69.8636 373.666 69.5836 373.114 69.2156 372.65C68.8636 372.17 68.4236 371.794 67.8956 371.522C67.3836 371.234 66.7996 371.09 66.1436 371.09C65.3916 371.09 64.7436 371.242 64.1996 371.546C63.6556 371.834 63.2076 372.234 62.8556 372.746C62.5036 373.258 62.2476 373.858 62.0876 374.546C61.9276 375.218 61.8636 375.946 61.8956 376.73C61.8956 377.514 61.9996 378.21 62.2076 378.818C62.4316 379.41 62.7356 379.914 63.1196 380.33C63.5036 380.746 63.9516 381.066 64.4636 381.29C64.9756 381.498 65.5356 381.602 66.1436 381.602C66.8156 381.602 67.4156 381.466 67.9436 381.194C68.4716 380.922 68.9116 380.554 69.2636 380.09C69.6156 379.61 69.8796 379.05 70.0556 378.41C70.2476 377.754 70.3436 377.05 70.3436 376.298ZM70.3436 365.282H71.7836V382.562H70.3436V380.378H70.2956C70.0876 380.794 69.8156 381.162 69.4796 381.482C69.1596 381.786 68.7996 382.042 68.3996 382.25C68.0156 382.458 67.6156 382.618 67.1996 382.73C66.7836 382.842 66.3756 382.898 65.9756 382.898C64.9676 382.898 64.1116 382.73 63.4076 382.394C62.7036 382.058 62.1196 381.602 61.6556 381.026C61.2076 380.434 60.8796 379.738 60.6716 378.938C60.4636 378.138 60.3596 377.282 60.3596 376.37C60.3596 375.506 60.4716 374.674 60.6956 373.874C60.9196 373.074 61.2556 372.378 61.7036 371.786C62.1676 371.178 62.7436 370.698 63.4316 370.346C64.1356 369.978 64.9596 369.794 65.9036 369.794C66.7836 369.794 67.6236 369.994 68.4236 370.394C69.2396 370.778 69.8796 371.354 70.3436 372.122V365.282ZM84.4155 375.482C84.4155 374.874 84.3275 374.306 84.1515 373.778C83.9915 373.234 83.7435 372.77 83.4075 372.386C83.0875 371.986 82.6795 371.674 82.1835 371.45C81.6875 371.21 81.1195 371.09 80.4795 371.09C79.8395 371.09 79.2715 371.21 78.7755 371.45C78.2955 371.69 77.8795 372.01 77.5275 372.41C77.1915 372.81 76.9195 373.274 76.7115 373.802C76.5035 374.33 76.3675 374.89 76.3035 375.482H84.4155ZM76.3035 376.682C76.3035 377.354 76.3915 377.994 76.5675 378.602C76.7435 379.194 76.9995 379.714 77.3355 380.162C77.6875 380.594 78.1275 380.946 78.6555 381.218C79.1835 381.474 79.7915 381.602 80.4795 381.602C81.4235 381.602 82.2315 381.354 82.9035 380.858C83.5755 380.362 84.0235 379.658 84.2475 378.746H85.8555C85.6795 379.338 85.4475 379.89 85.1595 380.402C84.8715 380.898 84.5115 381.338 84.0795 381.722C83.6475 382.09 83.1355 382.378 82.5435 382.586C81.9515 382.794 81.2635 382.898 80.4795 382.898C79.4875 382.898 78.6315 382.73 77.9115 382.394C77.1915 382.058 76.5995 381.602 76.1355 381.026C75.6715 380.434 75.3275 379.746 75.1035 378.962C74.8795 378.162 74.7675 377.306 74.7675 376.394C74.7675 375.482 74.8955 374.626 75.1515 373.826C75.4235 373.026 75.7995 372.33 76.2795 371.738C76.7755 371.13 77.3755 370.658 78.0795 370.322C78.7835 369.97 79.5835 369.794 80.4795 369.794C82.1915 369.794 83.5355 370.386 84.5115 371.57C85.4875 372.738 85.9675 374.442 85.9515 376.682H76.3035ZM90.2634 382.562H88.8234V370.13H90.2634V372.458H90.3114C90.7114 371.466 91.2234 370.778 91.8474 370.394C92.4874 369.994 93.3274 369.794 94.3674 369.794V371.354C93.5514 371.338 92.8794 371.466 92.3514 371.738C91.8234 372.01 91.3994 372.378 91.0794 372.842C90.7754 373.306 90.5594 373.858 90.4314 374.498C90.3194 375.122 90.2634 375.778 90.2634 376.466V382.562ZM97.0125 383.282C97.0125 383.986 96.8445 384.546 96.5085 384.962C96.1885 385.394 95.7725 385.69 95.2605 385.85V384.962C95.4525 384.834 95.6365 384.658 95.8125 384.434C95.9885 384.21 96.0765 383.858 96.0765 383.378V382.562H95.2605V380.45H97.0125V383.282ZM117.5 376.298C117.5 375.594 117.404 374.93 117.212 374.306C117.02 373.666 116.74 373.114 116.372 372.65C116.02 372.17 115.58 371.794 115.052 371.522C114.54 371.234 113.956 371.09 113.3 371.09C112.548 371.09 111.9 371.242 111.356 371.546C110.812 371.834 110.364 372.234 110.012 372.746C109.66 373.258 109.404 373.858 109.244 374.546C109.084 375.218 109.02 375.946 109.052 376.73C109.052 377.514 109.156 378.21 109.364 378.818C109.588 379.41 109.892 379.914 110.276 380.33C110.66 380.746 111.108 381.066 111.62 381.29C112.132 381.498 112.692 381.602 113.3 381.602C113.972 381.602 114.572 381.466 115.1 381.194C115.628 380.922 116.068 380.554 116.42 380.09C116.772 379.61 117.036 379.05 117.212 378.41C117.404 377.754 117.5 377.05 117.5 376.298ZM117.5 365.282H118.94V382.562H117.5V380.378H117.452C117.244 380.794 116.972 381.162 116.636 381.482C116.316 381.786 115.956 382.042 115.556 382.25C115.172 382.458 114.772 382.618 114.356 382.73C113.94 382.842 113.532 382.898 113.132 382.898C112.124 382.898 111.268 382.73 110.564 382.394C109.86 382.058 109.276 381.602 108.812 381.026C108.364 380.434 108.036 379.738 107.828 378.938C107.62 378.138 107.516 377.282 107.516 376.37C107.516 375.506 107.628 374.674 107.852 373.874C108.076 373.074 108.412 372.378 108.86 371.786C109.324 371.178 109.9 370.698 110.588 370.346C111.292 369.978 112.116 369.794 113.06 369.794C113.94 369.794 114.78 369.994 115.58 370.394C116.396 370.778 117.036 371.354 117.5 372.122V365.282ZM122.476 385.946C122.668 385.978 122.86 386.01 123.052 386.042C123.26 386.074 123.468 386.09 123.676 386.09C124.076 386.09 124.404 385.962 124.66 385.706C124.916 385.45 125.124 385.138 125.284 384.77C125.46 384.418 125.604 384.042 125.716 383.642C125.828 383.258 125.956 382.93 126.1 382.658L121.276 370.13H122.884L126.868 380.81L130.852 370.13H132.412L127.78 382.394C127.492 383.178 127.212 383.882 126.94 384.506C126.684 385.13 126.404 385.658 126.1 386.09C125.812 386.538 125.484 386.874 125.116 387.098C124.764 387.338 124.34 387.458 123.844 387.458C123.588 387.458 123.34 387.442 123.1 387.41C122.876 387.378 122.668 387.338 122.476 387.29V385.946ZM136.084 382.562H134.644V370.13H136.084V372.458H136.132C136.532 371.466 137.044 370.778 137.668 370.394C138.308 369.994 139.148 369.794 140.188 369.794V371.354C139.372 371.338 138.7 371.466 138.172 371.738C137.644 372.01 137.22 372.378 136.9 372.842C136.596 373.306 136.38 373.858 136.252 374.498C136.14 375.122 136.084 375.778 136.084 376.466V382.562ZM142.78 382.562V365.282H144.22V382.562H142.78ZM155.588 375.986C155.204 376.194 154.764 376.346 154.268 376.442C153.788 376.522 153.292 376.594 152.78 376.658C152.268 376.722 151.764 376.794 151.268 376.874C150.772 376.938 150.324 377.058 149.924 377.234C149.54 377.394 149.228 377.634 148.988 377.954C148.748 378.258 148.628 378.666 148.628 379.178C148.628 379.994 148.86 380.602 149.324 381.002C149.788 381.402 150.42 381.602 151.22 381.602C152.676 381.602 153.764 381.242 154.484 380.522C155.22 379.786 155.588 378.834 155.588 377.666V375.986ZM164.948 375.482C164.948 374.89 164.868 374.33 164.708 373.802C164.548 373.258 164.308 372.786 163.988 372.386C163.684 371.986 163.292 371.674 162.812 371.45C162.332 371.21 161.78 371.09 161.156 371.09C160.404 371.09 159.764 371.242 159.236 371.546C158.724 371.834 158.308 372.202 157.988 372.65C157.684 373.082 157.46 373.554 157.316 374.066C157.188 374.578 157.124 375.05 157.124 375.482H164.948ZM152.78 375.338C153.404 375.274 153.9 375.202 154.268 375.122C154.636 375.042 154.916 374.946 155.108 374.834C155.3 374.722 155.428 374.586 155.492 374.426C155.556 374.25 155.588 374.042 155.588 373.802C155.588 372.746 155.356 372.034 154.892 371.666C154.444 371.282 153.668 371.09 152.564 371.09C151.604 371.09 150.82 371.298 150.212 371.714C149.604 372.114 149.236 372.818 149.108 373.826H147.62C147.668 373.122 147.82 372.522 148.076 372.026C148.348 371.514 148.7 371.098 149.132 370.778C149.58 370.442 150.092 370.194 150.668 370.034C151.244 369.874 151.86 369.794 152.516 369.794C152.916 369.794 153.332 369.826 153.764 369.89C154.212 369.938 154.636 370.042 155.036 370.202C155.436 370.346 155.796 370.554 156.116 370.826C156.436 371.082 156.684 371.418 156.86 371.834C157.404 371.034 158.028 370.498 158.732 370.226C159.436 369.938 160.26 369.794 161.204 369.794C162.244 369.794 163.1 369.978 163.772 370.346C164.46 370.698 165.004 371.186 165.404 371.81C165.804 372.434 166.084 373.162 166.244 373.994C166.404 374.826 166.484 375.722 166.484 376.682H157.124C157.124 377.354 157.196 377.994 157.34 378.602C157.5 379.194 157.748 379.714 158.084 380.162C158.42 380.594 158.844 380.946 159.356 381.218C159.884 381.474 160.516 381.602 161.252 381.602C162.212 381.602 162.996 381.346 163.604 380.834C164.212 380.322 164.636 379.618 164.876 378.722H166.388C166.068 380.066 165.46 381.098 164.564 381.818C163.684 382.538 162.54 382.898 161.132 382.898C160.044 382.898 159.108 382.682 158.324 382.25C157.556 381.802 156.892 381.106 156.332 380.162C156.108 380.482 155.852 380.802 155.564 381.122C155.276 381.442 154.932 381.738 154.532 382.01C154.132 382.266 153.652 382.474 153.092 382.634C152.532 382.81 151.868 382.898 151.1 382.898C150.54 382.898 150.012 382.826 149.516 382.682C149.036 382.554 148.612 382.346 148.244 382.058C147.892 381.77 147.612 381.41 147.404 380.978C147.196 380.53 147.092 380.002 147.092 379.394C147.092 378.306 147.444 377.426 148.148 376.754C148.868 376.066 149.956 375.642 151.412 375.482L152.78 375.338ZM178.812 376.394C178.812 375.642 178.716 374.946 178.524 374.306C178.348 373.65 178.084 373.09 177.732 372.626C177.38 372.146 176.94 371.77 176.412 371.498C175.884 371.226 175.284 371.09 174.612 371.09C174.004 371.09 173.444 371.202 172.932 371.426C172.42 371.634 171.972 371.946 171.588 372.362C171.204 372.778 170.9 373.29 170.676 373.898C170.468 374.49 170.364 375.178 170.364 375.962C170.332 376.746 170.396 377.482 170.556 378.17C170.716 378.842 170.972 379.434 171.324 379.946C171.676 380.458 172.124 380.866 172.668 381.17C173.212 381.458 173.86 381.602 174.612 381.602C175.268 381.602 175.852 381.466 176.364 381.194C176.892 380.906 177.332 380.53 177.684 380.066C178.052 379.586 178.332 379.034 178.524 378.41C178.716 377.77 178.812 377.098 178.812 376.394ZM178.812 370.13H180.252V381.362C180.252 382.194 180.164 382.986 179.988 383.738C179.828 384.506 179.532 385.178 179.1 385.754C178.668 386.33 178.076 386.786 177.324 387.122C176.572 387.474 175.604 387.65 174.42 387.65C173.508 387.65 172.724 387.53 172.068 387.29C171.412 387.066 170.876 386.778 170.46 386.426C170.044 386.074 169.724 385.682 169.5 385.25C169.292 384.834 169.18 384.442 169.164 384.074H170.7C170.812 384.538 170.988 384.914 171.228 385.202C171.468 385.506 171.748 385.738 172.068 385.898C172.404 386.074 172.772 386.194 173.172 386.258C173.572 386.322 173.988 386.354 174.42 386.354C175.396 386.354 176.18 386.186 176.772 385.85C177.364 385.514 177.812 385.074 178.116 384.53C178.42 383.986 178.612 383.37 178.692 382.682C178.788 381.994 178.828 381.29 178.812 380.57C178.348 381.338 177.708 381.922 176.892 382.322C176.092 382.706 175.252 382.898 174.372 382.898C173.428 382.898 172.604 382.722 171.9 382.37C171.212 382.002 170.636 381.522 170.172 380.93C169.724 380.322 169.388 379.618 169.164 378.818C168.94 378.018 168.828 377.186 168.828 376.322C168.828 375.41 168.932 374.554 169.14 373.754C169.348 372.954 169.676 372.266 170.124 371.69C170.588 371.098 171.172 370.634 171.876 370.298C172.58 369.962 173.436 369.794 174.444 369.794C174.844 369.794 175.252 369.85 175.668 369.962C176.084 370.074 176.484 370.234 176.868 370.442C177.268 370.65 177.628 370.914 177.948 371.234C178.284 371.554 178.556 371.914 178.764 372.314H178.812V370.13ZM192.884 375.482C192.884 374.874 192.796 374.306 192.62 373.778C192.46 373.234 192.212 372.77 191.876 372.386C191.556 371.986 191.148 371.674 190.652 371.45C190.156 371.21 189.588 371.09 188.948 371.09C188.308 371.09 187.74 371.21 187.244 371.45C186.764 371.69 186.348 372.01 185.996 372.41C185.66 372.81 185.388 373.274 185.18 373.802C184.972 374.33 184.836 374.89 184.772 375.482H192.884ZM184.772 376.682C184.772 377.354 184.86 377.994 185.036 378.602C185.212 379.194 185.468 379.714 185.804 380.162C186.156 380.594 186.596 380.946 187.124 381.218C187.652 381.474 188.26 381.602 188.948 381.602C189.892 381.602 190.7 381.354 191.372 380.858C192.044 380.362 192.492 379.658 192.716 378.746H194.324C194.148 379.338 193.916 379.89 193.628 380.402C193.34 380.898 192.98 381.338 192.548 381.722C192.116 382.09 191.604 382.378 191.012 382.586C190.42 382.794 189.732 382.898 188.948 382.898C187.956 382.898 187.1 382.73 186.38 382.394C185.66 382.058 185.068 381.602 184.604 381.026C184.14 380.434 183.796 379.746 183.572 378.962C183.348 378.162 183.236 377.306 183.236 376.394C183.236 375.482 183.364 374.626 183.62 373.826C183.892 373.026 184.268 372.33 184.748 371.738C185.244 371.13 185.844 370.658 186.548 370.322C187.252 369.97 188.052 369.794 188.948 369.794C190.66 369.794 192.004 370.386 192.98 371.57C193.956 372.738 194.436 374.442 194.42 376.682H184.772ZM199.692 383.282C199.692 383.986 199.524 384.546 199.188 384.962C198.868 385.394 198.452 385.69 197.94 385.85V384.962C198.132 384.834 198.316 384.658 198.492 384.434C198.668 384.21 198.756 383.858 198.756 383.378V382.562H197.94V380.45H199.692V383.282ZM209.332 371.33V370.13H211.18V368.162C211.18 367.17 211.38 366.386 211.78 365.81C212.18 365.234 212.86 364.946 213.82 364.946C214.044 364.946 214.252 364.954 214.444 364.97C214.636 364.986 214.828 365.01 215.02 365.042V366.362C214.7 366.282 214.412 366.242 214.156 366.242C213.788 366.242 213.5 366.314 213.292 366.458C213.084 366.586 212.932 366.762 212.836 366.986C212.74 367.21 212.676 367.466 212.644 367.754C212.628 368.026 212.62 368.306 212.62 368.594V370.13H215.02V371.33H212.62V382.562H211.18V371.33H209.332ZM222.203 382.898C221.403 382.882 220.651 382.738 219.947 382.466C219.259 382.194 218.651 381.786 218.123 381.242C217.611 380.698 217.203 380.018 216.899 379.202C216.595 378.386 216.443 377.434 216.443 376.346C216.443 375.434 216.563 374.586 216.803 373.802C217.043 373.002 217.403 372.306 217.883 371.714C218.363 371.122 218.963 370.658 219.683 370.322C220.403 369.97 221.243 369.794 222.203 369.794C223.179 369.794 224.027 369.97 224.747 370.322C225.467 370.658 226.067 371.122 226.547 371.714C227.027 372.29 227.379 372.978 227.603 373.778C227.843 374.578 227.963 375.434 227.963 376.346C227.963 377.338 227.827 378.234 227.555 379.034C227.283 379.834 226.891 380.522 226.379 381.098C225.883 381.674 225.275 382.122 224.555 382.442C223.851 382.746 223.067 382.898 222.203 382.898ZM226.427 376.346C226.427 375.61 226.347 374.922 226.187 374.282C226.027 373.642 225.779 373.09 225.443 372.626C225.107 372.146 224.675 371.77 224.147 371.498C223.619 371.226 222.971 371.09 222.203 371.09C221.451 371.09 220.803 371.242 220.259 371.546C219.731 371.834 219.299 372.226 218.963 372.722C218.627 373.202 218.379 373.762 218.219 374.402C218.059 375.026 217.979 375.674 217.979 376.346C217.979 377.114 218.067 377.826 218.243 378.482C218.435 379.122 218.707 379.674 219.059 380.138C219.411 380.602 219.851 380.962 220.379 381.218C220.907 381.474 221.515 381.602 222.203 381.602C222.955 381.602 223.595 381.458 224.123 381.17C224.667 380.866 225.107 380.466 225.443 379.97C225.779 379.474 226.027 378.914 226.187 378.29C226.347 377.666 226.427 377.018 226.427 376.346ZM232.107 382.562H230.667V370.13H232.107V372.458H232.155C232.555 371.466 233.067 370.778 233.691 370.394C234.331 369.994 235.171 369.794 236.211 369.794V371.354C235.395 371.338 234.723 371.466 234.195 371.738C233.667 372.01 233.243 372.378 232.923 372.842C232.619 373.306 232.403 373.858 232.275 374.498C232.163 375.122 232.107 375.778 232.107 376.466V382.562ZM239.427 378.674C239.651 379.746 240.051 380.506 240.627 380.954C241.219 381.386 242.059 381.602 243.147 381.602C243.675 381.602 244.131 381.538 244.515 381.41C244.899 381.282 245.211 381.114 245.451 380.906C245.707 380.682 245.899 380.434 246.027 380.162C246.155 379.89 246.219 379.602 246.219 379.298C246.219 378.69 246.019 378.242 245.619 377.954C245.235 377.65 244.747 377.418 244.155 377.258C243.563 377.082 242.923 376.938 242.235 376.826C241.547 376.698 240.907 376.514 240.315 376.274C239.723 376.034 239.227 375.69 238.827 375.242C238.443 374.794 238.251 374.162 238.251 373.346C238.251 372.306 238.627 371.458 239.379 370.802C240.147 370.13 241.227 369.794 242.619 369.794C243.963 369.794 245.051 370.098 245.883 370.706C246.731 371.298 247.243 372.298 247.419 373.706H245.955C245.827 372.746 245.459 372.074 244.851 371.69C244.259 371.29 243.507 371.09 242.595 371.09C241.683 371.09 240.987 371.29 240.507 371.69C240.027 372.074 239.787 372.586 239.787 373.226C239.787 373.786 239.979 374.218 240.363 374.522C240.763 374.81 241.259 375.05 241.851 375.242C242.443 375.418 243.083 375.578 243.771 375.722C244.459 375.866 245.099 376.074 245.691 376.346C246.283 376.602 246.771 376.954 247.155 377.402C247.555 377.85 247.755 378.474 247.755 379.274C247.755 379.866 247.627 380.394 247.371 380.858C247.115 381.306 246.763 381.682 246.315 381.986C245.867 382.29 245.331 382.514 244.707 382.658C244.099 382.818 243.427 382.898 242.691 382.898C241.955 382.898 241.299 382.786 240.723 382.562C240.163 382.354 239.683 382.058 239.283 381.674C238.883 381.29 238.571 380.842 238.347 380.33C238.123 379.818 237.995 379.266 237.963 378.674H239.427ZM250.382 382.562V370.13H251.822V382.562H250.382ZM250.31 367.418V365.282H251.894V367.418H250.31ZM255.39 382.562V365.282H256.83V376.034L262.926 370.13H264.894L260.238 374.618L265.446 382.562H263.838L259.182 375.626L256.83 377.858V382.562H255.39ZM268.998 382.562H267.558V370.13H268.998V372.458H269.046C269.446 371.466 269.958 370.778 270.582 370.394C271.222 369.994 272.062 369.794 273.102 369.794V371.354C272.286 371.338 271.614 371.466 271.086 371.738C270.558 372.01 270.134 372.378 269.814 372.842C269.51 373.306 269.294 373.858 269.166 374.498C269.054 375.122 268.998 375.778 268.998 376.466V382.562ZM275.272 382.562V370.13H276.712V382.562H275.272ZM275.2 367.418V365.282H276.784V367.418H275.2ZM281.816 382.562H280.376V370.13H281.816V371.858C282.392 371.25 282.984 370.754 283.592 370.37C284.216 369.986 284.96 369.794 285.824 369.794C286.592 369.794 287.304 369.93 287.96 370.202C288.616 370.458 289.168 370.914 289.616 371.57C289.92 372.018 290.096 372.482 290.144 372.962C290.208 373.426 290.24 373.914 290.24 374.426V382.562H288.8V374.45C288.8 373.33 288.552 372.49 288.056 371.93C287.56 371.37 286.736 371.09 285.584 371.09C285.136 371.09 284.728 371.162 284.36 371.306C283.992 371.434 283.656 371.61 283.352 371.834C283.064 372.058 282.816 372.314 282.608 372.602C282.4 372.89 282.24 373.194 282.128 373.514C281.984 373.914 281.896 374.298 281.864 374.666C281.832 375.034 281.816 375.434 281.816 375.866V382.562ZM303.312 376.394C303.312 375.642 303.216 374.946 303.024 374.306C302.848 373.65 302.584 373.09 302.232 372.626C301.88 372.146 301.44 371.77 300.912 371.498C300.384 371.226 299.784 371.09 299.112 371.09C298.504 371.09 297.944 371.202 297.432 371.426C296.92 371.634 296.472 371.946 296.088 372.362C295.704 372.778 295.4 373.29 295.176 373.898C294.968 374.49 294.864 375.178 294.864 375.962C294.832 376.746 294.896 377.482 295.056 378.17C295.216 378.842 295.472 379.434 295.824 379.946C296.176 380.458 296.624 380.866 297.168 381.17C297.712 381.458 298.36 381.602 299.112 381.602C299.768 381.602 300.352 381.466 300.864 381.194C301.392 380.906 301.832 380.53 302.184 380.066C302.552 379.586 302.832 379.034 303.024 378.41C303.216 377.77 303.312 377.098 303.312 376.394ZM303.312 370.13H304.752V381.362C304.752 382.194 304.664 382.986 304.488 383.738C304.328 384.506 304.032 385.178 303.6 385.754C303.168 386.33 302.576 386.786 301.824 387.122C301.072 387.474 300.104 387.65 298.92 387.65C298.008 387.65 297.224 387.53 296.568 387.29C295.912 387.066 295.376 386.778 294.96 386.426C294.544 386.074 294.224 385.682 294 385.25C293.792 384.834 293.68 384.442 293.664 384.074H295.2C295.312 384.538 295.488 384.914 295.728 385.202C295.968 385.506 296.248 385.738 296.568 385.898C296.904 386.074 297.272 386.194 297.672 386.258C298.072 386.322 298.488 386.354 298.92 386.354C299.896 386.354 300.68 386.186 301.272 385.85C301.864 385.514 302.312 385.074 302.616 384.53C302.92 383.986 303.112 383.37 303.192 382.682C303.288 381.994 303.328 381.29 303.312 380.57C302.848 381.338 302.208 381.922 301.392 382.322C300.592 382.706 299.752 382.898 298.872 382.898C297.928 382.898 297.104 382.722 296.4 382.37C295.712 382.002 295.136 381.522 294.672 380.93C294.224 380.322 293.888 379.618 293.664 378.818C293.44 378.018 293.328 377.186 293.328 376.322C293.328 375.41 293.432 374.554 293.64 373.754C293.848 372.954 294.176 372.266 294.624 371.69C295.088 371.098 295.672 370.634 296.376 370.298C297.08 369.962 297.936 369.794 298.944 369.794C299.344 369.794 299.752 369.85 300.168 369.962C300.584 370.074 300.984 370.234 301.368 370.442C301.768 370.65 302.128 370.914 302.448 371.234C302.784 371.554 303.056 371.914 303.264 372.314H303.312V370.13ZM35.4181 410.898C34.6181 410.882 33.8661 410.738 33.1621 410.466C32.4741 410.194 31.8661 409.786 31.3381 409.242C30.8261 408.698 30.4181 408.018 30.1141 407.202C29.8101 406.386 29.6581 405.434 29.6581 404.346C29.6581 403.434 29.7781 402.586 30.0181 401.802C30.2581 401.002 30.6181 400.306 31.0981 399.714C31.5781 399.122 32.1781 398.658 32.8981 398.322C33.6181 397.97 34.4581 397.794 35.4181 397.794C36.3941 397.794 37.2421 397.97 37.9621 398.322C38.6821 398.658 39.2821 399.122 39.7621 399.714C40.2421 400.29 40.5941 400.978 40.8181 401.778C41.0581 402.578 41.1781 403.434 41.1781 404.346C41.1781 405.338 41.0421 406.234 40.7701 407.034C40.4981 407.834 40.1061 408.522 39.5941 409.098C39.0981 409.674 38.4901 410.122 37.7701 410.442C37.0661 410.746 36.2821 410.898 35.4181 410.898ZM39.6421 404.346C39.6421 403.61 39.5621 402.922 39.4021 402.282C39.2421 401.642 38.9941 401.09 38.6581 400.626C38.3221 400.146 37.8901 399.77 37.3621 399.498C36.8341 399.226 36.1861 399.09 35.4181 399.09C34.6661 399.09 34.0181 399.242 33.4741 399.546C32.9461 399.834 32.5141 400.226 32.1781 400.722C31.8421 401.202 31.5941 401.762 31.4341 402.402C31.2741 403.026 31.1941 403.674 31.1941 404.346C31.1941 405.114 31.2821 405.826 31.4581 406.482C31.6501 407.122 31.9221 407.674 32.2741 408.138C32.6261 408.602 33.0661 408.962 33.5941 409.218C34.1221 409.474 34.7301 409.602 35.4181 409.602C36.1701 409.602 36.8101 409.458 37.3381 409.17C37.8821 408.866 38.3221 408.466 38.6581 407.97C38.9941 407.474 39.2421 406.914 39.4021 406.29C39.5621 405.666 39.6421 405.018 39.6421 404.346ZM53.41 404.394C53.41 403.642 53.314 402.946 53.122 402.306C52.946 401.65 52.682 401.09 52.33 400.626C51.978 400.146 51.538 399.77 51.01 399.498C50.482 399.226 49.882 399.09 49.21 399.09C48.602 399.09 48.042 399.202 47.53 399.426C47.018 399.634 46.57 399.946 46.186 400.362C45.802 400.778 45.498 401.29 45.274 401.898C45.066 402.49 44.962 403.178 44.962 403.962C44.93 404.746 44.994 405.482 45.154 406.17C45.314 406.842 45.57 407.434 45.922 407.946C46.274 408.458 46.722 408.866 47.266 409.17C47.81 409.458 48.458 409.602 49.21 409.602C49.866 409.602 50.45 409.466 50.962 409.194C51.49 408.906 51.93 408.53 52.282 408.066C52.65 407.586 52.93 407.034 53.122 406.41C53.314 405.77 53.41 405.098 53.41 404.394ZM53.41 398.13H54.85V409.362C54.85 410.194 54.762 410.986 54.586 411.738C54.426 412.506 54.13 413.178 53.698 413.754C53.266 414.33 52.674 414.786 51.922 415.122C51.17 415.474 50.202 415.65 49.018 415.65C48.106 415.65 47.322 415.53 46.666 415.29C46.01 415.066 45.474 414.778 45.058 414.426C44.642 414.074 44.322 413.682 44.098 413.25C43.89 412.834 43.778 412.442 43.762 412.074H45.298C45.41 412.538 45.586 412.914 45.826 413.202C46.066 413.506 46.346 413.738 46.666 413.898C47.002 414.074 47.37 414.194 47.77 414.258C48.17 414.322 48.586 414.354 49.018 414.354C49.994 414.354 50.778 414.186 51.37 413.85C51.962 413.514 52.41 413.074 52.714 412.53C53.018 411.986 53.21 411.37 53.29 410.682C53.386 409.994 53.426 409.29 53.41 408.57C52.946 409.338 52.306 409.922 51.49 410.322C50.69 410.706 49.85 410.898 48.97 410.898C48.026 410.898 47.202 410.722 46.498 410.37C45.81 410.002 45.234 409.522 44.77 408.93C44.322 408.322 43.986 407.618 43.762 406.818C43.538 406.018 43.426 405.186 43.426 404.322C43.426 403.41 43.53 402.554 43.738 401.754C43.946 400.954 44.274 400.266 44.722 399.69C45.186 399.098 45.77 398.634 46.474 398.298C47.178 397.962 48.034 397.794 49.042 397.794C49.442 397.794 49.85 397.85 50.266 397.962C50.682 398.074 51.082 398.234 51.466 398.442C51.866 398.65 52.226 398.914 52.546 399.234C52.882 399.554 53.154 399.914 53.362 400.314H53.41V398.13ZM73.5856 398.13H75.0256V410.562H73.5856V408.834C73.3936 409.058 73.1776 409.29 72.9376 409.53C72.6976 409.77 72.4176 409.994 72.0976 410.202C71.7936 410.394 71.4336 410.554 71.0176 410.682C70.6016 410.826 70.1216 410.898 69.5776 410.898C68.7456 410.898 68.0496 410.786 67.4896 410.562C66.9296 410.322 66.4736 409.994 66.1216 409.578C65.7856 409.162 65.5376 408.682 65.3776 408.138C65.2336 407.578 65.1616 406.97 65.1616 406.314V398.13H66.6016V406.29C66.6016 407.362 66.8496 408.186 67.3456 408.762C67.8416 409.322 68.6576 409.602 69.7936 409.602C70.3856 409.602 70.9136 409.49 71.3776 409.266C71.8576 409.026 72.2576 408.698 72.5776 408.282C72.8976 407.866 73.1456 407.37 73.3216 406.794C73.4976 406.218 73.5856 405.586 73.5856 404.898V398.13ZM88.0975 404.298C88.0975 403.594 88.0015 402.93 87.8095 402.306C87.6175 401.666 87.3375 401.114 86.9695 400.65C86.6175 400.17 86.1775 399.794 85.6495 399.522C85.1375 399.234 84.5535 399.09 83.8975 399.09C83.1455 399.09 82.4975 399.242 81.9535 399.546C81.4095 399.834 80.9615 400.234 80.6095 400.746C80.2575 401.258 80.0015 401.858 79.8415 402.546C79.6815 403.218 79.6175 403.946 79.6495 404.73C79.6495 405.514 79.7535 406.21 79.9615 406.818C80.1855 407.41 80.4895 407.914 80.8735 408.33C81.2575 408.746 81.7055 409.066 82.2175 409.29C82.7295 409.498 83.2895 409.602 83.8975 409.602C84.5695 409.602 85.1695 409.466 85.6975 409.194C86.2255 408.922 86.6655 408.554 87.0175 408.09C87.3695 407.61 87.6335 407.05 87.8095 406.41C88.0015 405.754 88.0975 405.05 88.0975 404.298ZM88.0975 393.282H89.5375V410.562H88.0975V408.378H88.0495C87.8415 408.794 87.5695 409.162 87.2335 409.482C86.9135 409.786 86.5535 410.042 86.1535 410.25C85.7695 410.458 85.3695 410.618 84.9535 410.73C84.5375 410.842 84.1295 410.898 83.7295 410.898C82.7215 410.898 81.8655 410.73 81.1615 410.394C80.4575 410.058 79.8735 409.602 79.4095 409.026C78.9615 408.434 78.6335 407.738 78.4255 406.938C78.2175 406.138 78.1135 405.282 78.1135 404.37C78.1135 403.506 78.2255 402.674 78.4495 401.874C78.6735 401.074 79.0095 400.378 79.4575 399.786C79.9215 399.178 80.4975 398.698 81.1855 398.346C81.8895 397.978 82.7135 397.794 83.6575 397.794C84.5375 397.794 85.3775 397.994 86.1775 398.394C86.9935 398.778 87.6335 399.354 88.0975 400.122V393.282ZM94.0094 406.674C94.2334 407.746 94.6334 408.506 95.2094 408.954C95.8014 409.386 96.6414 409.602 97.7294 409.602C98.2574 409.602 98.7134 409.538 99.0974 409.41C99.4814 409.282 99.7934 409.114 100.033 408.906C100.289 408.682 100.481 408.434 100.609 408.162C100.737 407.89 100.801 407.602 100.801 407.298C100.801 406.69 100.601 406.242 100.201 405.954C99.8174 405.65 99.3294 405.418 98.7374 405.258C98.1454 405.082 97.5054 404.938 96.8174 404.826C96.1294 404.698 95.4894 404.514 94.8974 404.274C94.3054 404.034 93.8094 403.69 93.4094 403.242C93.0254 402.794 92.8334 402.162 92.8334 401.346C92.8334 400.306 93.2094 399.458 93.9614 398.802C94.7294 398.13 95.8094 397.794 97.2014 397.794C98.5454 397.794 99.6334 398.098 100.465 398.706C101.313 399.298 101.825 400.298 102.001 401.706H100.537C100.409 400.746 100.041 400.074 99.4334 399.69C98.8414 399.29 98.0894 399.09 97.1774 399.09C96.2654 399.09 95.5694 399.29 95.0894 399.69C94.6094 400.074 94.3694 400.586 94.3694 401.226C94.3694 401.786 94.5614 402.218 94.9454 402.522C95.3454 402.81 95.8414 403.05 96.4334 403.242C97.0254 403.418 97.6654 403.578 98.3534 403.722C99.0414 403.866 99.6814 404.074 100.273 404.346C100.865 404.602 101.353 404.954 101.737 405.402C102.137 405.85 102.337 406.474 102.337 407.274C102.337 407.866 102.209 408.394 101.953 408.858C101.697 409.306 101.345 409.682 100.897 409.986C100.449 410.29 99.9134 410.514 99.2894 410.658C98.6814 410.818 98.0094 410.898 97.2734 410.898C96.5374 410.898 95.8814 410.786 95.3054 410.562C94.7454 410.354 94.2654 410.058 93.8654 409.674C93.4654 409.29 93.1534 408.842 92.9294 408.33C92.7054 407.818 92.5774 407.266 92.5454 406.674H94.0094ZM109.537 410.61C109.361 410.642 109.129 410.698 108.841 410.778C108.553 410.858 108.233 410.898 107.881 410.898C107.161 410.898 106.609 410.722 106.225 410.37C105.857 410.002 105.673 409.354 105.673 408.426V399.33H103.921V398.13H105.673V394.674H107.113V398.13H109.441V399.33H107.113V407.85C107.113 408.154 107.121 408.418 107.137 408.642C107.153 408.866 107.201 409.05 107.281 409.194C107.361 409.338 107.481 409.442 107.641 409.506C107.817 409.57 108.057 409.602 108.361 409.602C108.553 409.602 108.745 409.586 108.937 409.554C109.145 409.522 109.345 409.482 109.537 409.434V410.61ZM111.753 413.946C111.945 413.978 112.137 414.01 112.329 414.042C112.537 414.074 112.745 414.09 112.953 414.09C113.353 414.09 113.681 413.962 113.937 413.706C114.193 413.45 114.401 413.138 114.561 412.77C114.737 412.418 114.881 412.042 114.993 411.642C115.105 411.258 115.233 410.93 115.377 410.658L110.553 398.13H112.161L116.145 408.81L120.129 398.13H121.689L117.057 410.394C116.769 411.178 116.489 411.882 116.217 412.506C115.961 413.13 115.681 413.658 115.377 414.09C115.089 414.538 114.761 414.874 114.393 415.098C114.041 415.338 113.617 415.458 113.121 415.458C112.865 415.458 112.617 415.442 112.377 415.41C112.153 415.378 111.945 415.338 111.753 415.29V413.946ZM125.361 410.562H123.921V398.13H125.361V400.458H125.409C125.809 399.466 126.321 398.778 126.945 398.394C127.585 397.994 128.425 397.794 129.465 397.794V399.354C128.649 399.338 127.977 399.466 127.449 399.738C126.921 400.01 126.497 400.378 126.177 400.842C125.873 401.306 125.657 401.858 125.529 402.498C125.417 403.122 125.361 403.778 125.361 404.466V410.562ZM147.521 403.482C147.521 402.874 147.433 402.306 147.257 401.778C147.097 401.234 146.849 400.77 146.513 400.386C146.193 399.986 145.785 399.674 145.289 399.45C144.793 399.21 144.225 399.09 143.585 399.09C142.945 399.09 142.377 399.21 141.881 399.45C141.401 399.69 140.985 400.01 140.633 400.41C140.297 400.81 140.025 401.274 139.817 401.802C139.609 402.33 139.473 402.89 139.409 403.482H147.521ZM139.409 404.682C139.409 405.354 139.497 405.994 139.673 406.602C139.849 407.194 140.105 407.714 140.441 408.162C140.793 408.594 141.233 408.946 141.761 409.218C142.289 409.474 142.897 409.602 143.585 409.602C144.529 409.602 145.337 409.354 146.009 408.858C146.681 408.362 147.129 407.658 147.353 406.746H148.961C148.785 407.338 148.553 407.89 148.265 408.402C147.977 408.898 147.617 409.338 147.185 409.722C146.753 410.09 146.241 410.378 145.649 410.586C145.057 410.794 144.369 410.898 143.585 410.898C142.593 410.898 141.737 410.73 141.017 410.394C140.297 410.058 139.705 409.602 139.241 409.026C138.777 408.434 138.433 407.746 138.209 406.962C137.985 406.162 137.873 405.306 137.873 404.394C137.873 403.482 138.001 402.626 138.257 401.826C138.529 401.026 138.905 400.33 139.385 399.738C139.881 399.13 140.481 398.658 141.185 398.322C141.889 397.97 142.689 397.794 143.585 397.794C145.297 397.794 146.641 398.386 147.617 399.57C148.593 400.738 149.073 402.442 149.057 404.682H139.409ZM153.369 410.562H151.929V398.13H153.369V400.458H153.417C153.817 399.466 154.329 398.778 154.953 398.394C155.593 397.994 156.433 397.794 157.473 397.794V399.354C156.657 399.338 155.985 399.466 155.457 399.738C154.929 400.01 154.505 400.378 154.185 400.842C153.881 401.306 153.665 401.858 153.537 402.498C153.425 403.122 153.369 403.778 153.369 404.466V410.562ZM165.281 399.33V398.13H167.129V396.162C167.129 395.17 167.329 394.386 167.729 393.81C168.129 393.234 168.809 392.946 169.769 392.946C169.993 392.946 170.201 392.954 170.393 392.97C170.585 392.986 170.777 393.01 170.969 393.042V394.362C170.649 394.282 170.361 394.242 170.105 394.242C169.737 394.242 169.449 394.314 169.241 394.458C169.033 394.586 168.881 394.762 168.785 394.986C168.689 395.21 168.625 395.466 168.593 395.754C168.577 396.026 168.569 396.306 168.569 396.594V398.13H170.969V399.33H168.569V410.562H167.129V399.33H165.281ZM181.344 404.034C180.736 404.29 180.12 404.458 179.496 404.538C178.872 404.618 178.248 404.682 177.624 404.73C176.52 404.81 175.656 405.058 175.032 405.474C174.424 405.89 174.12 406.522 174.12 407.37C174.12 407.754 174.192 408.09 174.336 408.378C174.496 408.65 174.696 408.882 174.936 409.074C175.192 409.25 175.48 409.386 175.8 409.482C176.136 409.562 176.472 409.602 176.808 409.602C177.384 409.602 177.944 409.53 178.488 409.386C179.032 409.242 179.512 409.026 179.928 408.738C180.36 408.434 180.704 408.058 180.96 407.61C181.216 407.146 181.344 406.602 181.344 405.978V404.034ZM178.92 403.314C179.192 403.282 179.512 403.234 179.88 403.17C180.264 403.106 180.576 403.018 180.816 402.906C181.056 402.794 181.2 402.61 181.248 402.354C181.312 402.082 181.344 401.834 181.344 401.61C181.344 400.874 181.104 400.274 180.624 399.81C180.16 399.33 179.368 399.09 178.248 399.09C177.752 399.09 177.296 399.138 176.88 399.234C176.464 399.314 176.096 399.466 175.776 399.69C175.472 399.898 175.216 400.186 175.008 400.554C174.816 400.906 174.688 401.354 174.624 401.898H173.16C173.208 401.162 173.376 400.538 173.664 400.026C173.952 399.498 174.32 399.074 174.768 398.754C175.232 398.418 175.76 398.178 176.352 398.034C176.96 397.874 177.6 397.794 178.272 397.794C178.896 397.794 179.48 397.866 180.024 398.01C180.584 398.138 181.064 398.354 181.464 398.658C181.88 398.946 182.2 399.338 182.424 399.834C182.664 400.33 182.784 400.938 182.784 401.658V408.426C182.784 408.986 182.88 409.346 183.072 409.506C183.28 409.65 183.688 409.61 184.296 409.386V410.514C184.184 410.546 184.016 410.594 183.792 410.658C183.584 410.722 183.376 410.754 183.168 410.754C182.944 410.754 182.728 410.73 182.52 410.682C182.28 410.65 182.088 410.578 181.944 410.466C181.8 410.338 181.68 410.194 181.584 410.034C181.504 409.858 181.448 409.674 181.416 409.482C181.384 409.274 181.368 409.058 181.368 408.834C180.76 409.506 180.064 410.018 179.28 410.37C178.496 410.722 177.648 410.898 176.736 410.898C176.192 410.898 175.664 410.826 175.152 410.682C174.656 410.538 174.216 410.314 173.832 410.01C173.448 409.706 173.144 409.338 172.92 408.906C172.696 408.458 172.584 407.93 172.584 407.322C172.584 405.21 174.032 403.962 176.928 403.578L178.92 403.314ZM187.384 406.674C187.608 407.746 188.008 408.506 188.584 408.954C189.176 409.386 190.016 409.602 191.104 409.602C191.632 409.602 192.088 409.538 192.472 409.41C192.856 409.282 193.168 409.114 193.408 408.906C193.664 408.682 193.856 408.434 193.984 408.162C194.112 407.89 194.176 407.602 194.176 407.298C194.176 406.69 193.976 406.242 193.576 405.954C193.192 405.65 192.704 405.418 192.112 405.258C191.52 405.082 190.88 404.938 190.192 404.826C189.504 404.698 188.864 404.514 188.272 404.274C187.68 404.034 187.184 403.69 186.784 403.242C186.4 402.794 186.208 402.162 186.208 401.346C186.208 400.306 186.584 399.458 187.336 398.802C188.104 398.13 189.184 397.794 190.576 397.794C191.92 397.794 193.008 398.098 193.84 398.706C194.688 399.298 195.2 400.298 195.376 401.706H193.912C193.784 400.746 193.416 400.074 192.808 399.69C192.216 399.29 191.464 399.09 190.552 399.09C189.64 399.09 188.944 399.29 188.464 399.69C187.984 400.074 187.744 400.586 187.744 401.226C187.744 401.786 187.936 402.218 188.32 402.522C188.72 402.81 189.216 403.05 189.808 403.242C190.4 403.418 191.04 403.578 191.728 403.722C192.416 403.866 193.056 404.074 193.648 404.346C194.24 404.602 194.728 404.954 195.112 405.402C195.512 405.85 195.712 406.474 195.712 407.274C195.712 407.866 195.584 408.394 195.328 408.858C195.072 409.306 194.72 409.682 194.272 409.986C193.824 410.29 193.288 410.514 192.664 410.658C192.056 410.818 191.384 410.898 190.648 410.898C189.912 410.898 189.256 410.786 188.68 410.562C188.12 410.354 187.64 410.058 187.24 409.674C186.84 409.29 186.528 408.842 186.304 408.33C186.08 407.818 185.952 407.266 185.92 406.674H187.384ZM202.912 410.61C202.736 410.642 202.504 410.698 202.216 410.778C201.928 410.858 201.608 410.898 201.256 410.898C200.536 410.898 199.984 410.722 199.6 410.37C199.232 410.002 199.048 409.354 199.048 408.426V399.33H197.296V398.13H199.048V394.674H200.488V398.13H202.816V399.33H200.488V407.85C200.488 408.154 200.496 408.418 200.512 408.642C200.528 408.866 200.576 409.05 200.656 409.194C200.736 409.338 200.856 409.442 201.016 409.506C201.192 409.57 201.432 409.602 201.736 409.602C201.928 409.602 202.12 409.586 202.312 409.554C202.52 409.522 202.72 409.482 202.912 409.434V410.61ZM214.224 403.482C214.224 402.874 214.136 402.306 213.96 401.778C213.8 401.234 213.552 400.77 213.216 400.386C212.896 399.986 212.488 399.674 211.992 399.45C211.496 399.21 210.928 399.09 210.288 399.09C209.648 399.09 209.08 399.21 208.584 399.45C208.104 399.69 207.688 400.01 207.336 400.41C207 400.81 206.728 401.274 206.52 401.802C206.312 402.33 206.176 402.89 206.112 403.482H214.224ZM206.112 404.682C206.112 405.354 206.2 405.994 206.376 406.602C206.552 407.194 206.808 407.714 207.144 408.162C207.496 408.594 207.936 408.946 208.464 409.218C208.992 409.474 209.6 409.602 210.288 409.602C211.232 409.602 212.04 409.354 212.712 408.858C213.384 408.362 213.832 407.658 214.056 406.746H215.664C215.488 407.338 215.256 407.89 214.968 408.402C214.68 408.898 214.32 409.338 213.888 409.722C213.456 410.09 212.944 410.378 212.352 410.586C211.76 410.794 211.072 410.898 210.288 410.898C209.296 410.898 208.44 410.73 207.72 410.394C207 410.058 206.408 409.602 205.944 409.026C205.48 408.434 205.136 407.746 204.912 406.962C204.688 406.162 204.576 405.306 204.576 404.394C204.576 403.482 204.704 402.626 204.96 401.826C205.232 401.026 205.608 400.33 206.088 399.738C206.584 399.13 207.184 398.658 207.888 398.322C208.592 397.97 209.392 397.794 210.288 397.794C212 397.794 213.344 398.386 214.32 399.57C215.296 400.738 215.776 402.442 215.76 404.682H206.112ZM233.664 398.13H235.104V410.562H233.664V408.834C233.472 409.058 233.256 409.29 233.016 409.53C232.776 409.77 232.496 409.994 232.176 410.202C231.872 410.394 231.512 410.554 231.096 410.682C230.68 410.826 230.2 410.898 229.656 410.898C228.824 410.898 228.128 410.786 227.568 410.562C227.008 410.322 226.552 409.994 226.2 409.578C225.864 409.162 225.616 408.682 225.456 408.138C225.312 407.578 225.24 406.97 225.24 406.314V398.13H226.68V406.29C226.68 407.362 226.928 408.186 227.424 408.762C227.92 409.322 228.736 409.602 229.872 409.602C230.464 409.602 230.992 409.49 231.456 409.266C231.936 409.026 232.336 408.698 232.656 408.282C232.976 407.866 233.224 407.37 233.4 406.794C233.576 406.218 233.664 405.586 233.664 404.898V398.13ZM248.176 404.298C248.176 403.594 248.08 402.93 247.888 402.306C247.696 401.666 247.416 401.114 247.048 400.65C246.696 400.17 246.256 399.794 245.728 399.522C245.216 399.234 244.632 399.09 243.976 399.09C243.224 399.09 242.576 399.242 242.032 399.546C241.488 399.834 241.04 400.234 240.688 400.746C240.336 401.258 240.08 401.858 239.92 402.546C239.76 403.218 239.696 403.946 239.728 404.73C239.728 405.514 239.832 406.21 240.04 406.818C240.264 407.41 240.568 407.914 240.952 408.33C241.336 408.746 241.784 409.066 242.296 409.29C242.808 409.498 243.368 409.602 243.976 409.602C244.648 409.602 245.248 409.466 245.776 409.194C246.304 408.922 246.744 408.554 247.096 408.09C247.448 407.61 247.712 407.05 247.888 406.41C248.08 405.754 248.176 405.05 248.176 404.298ZM248.176 393.282H249.616V410.562H248.176V408.378H248.128C247.92 408.794 247.648 409.162 247.312 409.482C246.992 409.786 246.632 410.042 246.232 410.25C245.848 410.458 245.448 410.618 245.032 410.73C244.616 410.842 244.208 410.898 243.808 410.898C242.8 410.898 241.944 410.73 241.24 410.394C240.536 410.058 239.952 409.602 239.488 409.026C239.04 408.434 238.712 407.738 238.504 406.938C238.296 406.138 238.192 405.282 238.192 404.37C238.192 403.506 238.304 402.674 238.528 401.874C238.752 401.074 239.088 400.378 239.536 399.786C240 399.178 240.576 398.698 241.264 398.346C241.968 397.978 242.792 397.794 243.736 397.794C244.616 397.794 245.456 397.994 246.256 398.394C247.072 398.778 247.712 399.354 248.176 400.122V393.282ZM262.848 404.394C262.848 403.642 262.752 402.946 262.56 402.306C262.384 401.65 262.12 401.09 261.768 400.626C261.416 400.146 260.976 399.77 260.448 399.498C259.92 399.226 259.32 399.09 258.648 399.09C258.04 399.09 257.48 399.202 256.968 399.426C256.456 399.634 256.008 399.946 255.624 400.362C255.24 400.778 254.936 401.29 254.712 401.898C254.504 402.49 254.4 403.178 254.4 403.962C254.368 404.746 254.432 405.482 254.592 406.17C254.752 406.842 255.008 407.434 255.36 407.946C255.712 408.458 256.16 408.866 256.704 409.17C257.248 409.458 257.896 409.602 258.648 409.602C259.304 409.602 259.888 409.466 260.4 409.194C260.928 408.906 261.368 408.53 261.72 408.066C262.088 407.586 262.368 407.034 262.56 406.41C262.752 405.77 262.848 405.098 262.848 404.394ZM262.848 398.13H264.288V409.362C264.288 410.194 264.2 410.986 264.024 411.738C263.864 412.506 263.568 413.178 263.136 413.754C262.704 414.33 262.112 414.786 261.36 415.122C260.608 415.474 259.64 415.65 258.456 415.65C257.544 415.65 256.76 415.53 256.104 415.29C255.448 415.066 254.912 414.778 254.496 414.426C254.08 414.074 253.76 413.682 253.536 413.25C253.328 412.834 253.216 412.442 253.2 412.074H254.736C254.848 412.538 255.024 412.914 255.264 413.202C255.504 413.506 255.784 413.738 256.104 413.898C256.44 414.074 256.808 414.194 257.208 414.258C257.608 414.322 258.024 414.354 258.456 414.354C259.432 414.354 260.216 414.186 260.808 413.85C261.4 413.514 261.848 413.074 262.152 412.53C262.456 411.986 262.648 411.37 262.728 410.682C262.824 409.994 262.864 409.29 262.848 408.57C262.384 409.338 261.744 409.922 260.928 410.322C260.128 410.706 259.288 410.898 258.408 410.898C257.464 410.898 256.64 410.722 255.936 410.37C255.248 410.002 254.672 409.522 254.208 408.93C253.76 408.322 253.424 407.618 253.2 406.818C252.976 406.018 252.864 405.186 252.864 404.322C252.864 403.41 252.968 402.554 253.176 401.754C253.384 400.954 253.712 400.266 254.16 399.69C254.624 399.098 255.208 398.634 255.912 398.298C256.616 397.962 257.472 397.794 258.48 397.794C258.88 397.794 259.288 397.85 259.704 397.962C260.12 398.074 260.52 398.234 260.904 398.442C261.304 398.65 261.664 398.914 261.984 399.234C262.32 399.554 262.592 399.914 262.8 400.314H262.848V398.13ZM267.714 410.562V398.13H269.154V410.562H267.714ZM267.642 395.418V393.282H269.226V395.418H267.642ZM271.57 399.33V398.13H273.418V396.162C273.418 395.17 273.618 394.386 274.018 393.81C274.418 393.234 275.098 392.946 276.058 392.946C276.282 392.946 276.49 392.954 276.682 392.97C276.874 392.986 277.066 393.01 277.258 393.042V394.362C276.938 394.282 276.65 394.242 276.394 394.242C276.026 394.242 275.738 394.314 275.53 394.458C275.322 394.586 275.17 394.762 275.074 394.986C274.978 395.21 274.914 395.466 274.882 395.754C274.866 396.026 274.858 396.306 274.858 396.594V398.13H277.258V399.33H274.858V410.562H273.418V399.33H271.57ZM283.866 410.61C283.69 410.642 283.458 410.698 283.17 410.778C282.882 410.858 282.562 410.898 282.21 410.898C281.49 410.898 280.938 410.722 280.554 410.37C280.186 410.002 280.002 409.354 280.002 408.426V399.33H278.25V398.13H280.002V394.674H281.442V398.13H283.77V399.33H281.442V407.85C281.442 408.154 281.45 408.418 281.466 408.642C281.482 408.866 281.53 409.05 281.61 409.194C281.69 409.338 281.81 409.442 281.97 409.506C282.146 409.57 282.386 409.602 282.69 409.602C282.882 409.602 283.074 409.586 283.266 409.554C283.474 409.522 283.674 409.482 283.866 409.434V410.61ZM295.177 403.482C295.177 402.874 295.089 402.306 294.913 401.778C294.753 401.234 294.505 400.77 294.169 400.386C293.849 399.986 293.441 399.674 292.945 399.45C292.449 399.21 291.881 399.09 291.241 399.09C290.601 399.09 290.033 399.21 289.537 399.45C289.057 399.69 288.641 400.01 288.289 400.41C287.953 400.81 287.681 401.274 287.473 401.802C287.265 402.33 287.129 402.89 287.065 403.482H295.177ZM287.065 404.682C287.065 405.354 287.153 405.994 287.329 406.602C287.505 407.194 287.761 407.714 288.097 408.162C288.449 408.594 288.889 408.946 289.417 409.218C289.945 409.474 290.553 409.602 291.241 409.602C292.185 409.602 292.993 409.354 293.665 408.858C294.337 408.362 294.785 407.658 295.009 406.746H296.617C296.441 407.338 296.209 407.89 295.921 408.402C295.633 408.898 295.273 409.338 294.841 409.722C294.409 410.09 293.897 410.378 293.305 410.586C292.713 410.794 292.025 410.898 291.241 410.898C290.249 410.898 289.393 410.73 288.673 410.394C287.953 410.058 287.361 409.602 286.897 409.026C286.433 408.434 286.089 407.746 285.865 406.962C285.641 406.162 285.529 405.306 285.529 404.394C285.529 403.482 285.657 402.626 285.913 401.826C286.185 401.026 286.561 400.33 287.041 399.738C287.537 399.13 288.137 398.658 288.841 398.322C289.545 397.97 290.345 397.794 291.241 397.794C292.953 397.794 294.297 398.386 295.273 399.57C296.249 400.738 296.729 402.442 296.713 404.682H287.065ZM301.025 410.562H299.585V398.13H301.025V400.458H301.073C301.473 399.466 301.985 398.778 302.609 398.394C303.249 397.994 304.089 397.794 305.129 397.794V399.354C304.313 399.338 303.641 399.466 303.113 399.738C302.585 400.01 302.161 400.378 301.841 400.842C301.537 401.306 301.321 401.858 301.193 402.498C301.081 403.122 301.025 403.778 301.025 404.466V410.562ZM307.774 411.282C307.774 411.986 307.606 412.546 307.27 412.962C306.95 413.394 306.534 413.69 306.022 413.85V412.962C306.214 412.834 306.398 412.658 306.574 412.434C306.75 412.21 306.838 411.858 306.838 411.378V410.562H306.022V408.45H307.774V411.282ZM35.9022 432.298C35.9022 431.594 35.8062 430.93 35.6142 430.306C35.4222 429.666 35.1422 429.114 34.7742 428.65C34.4222 428.17 33.9822 427.794 33.4542 427.522C32.9422 427.234 32.3582 427.09 31.7022 427.09C30.9502 427.09 30.3022 427.242 29.7582 427.546C29.2142 427.834 28.7662 428.234 28.4142 428.746C28.0622 429.258 27.8062 429.858 27.6462 430.546C27.4862 431.218 27.4222 431.946 27.4542 432.73C27.4542 433.514 27.5582 434.21 27.7662 434.818C27.9902 435.41 28.2942 435.914 28.6782 436.33C29.0622 436.746 29.5102 437.066 30.0222 437.29C30.5342 437.498 31.0942 437.602 31.7022 437.602C32.3742 437.602 32.9742 437.466 33.5022 437.194C34.0302 436.922 34.4702 436.554 34.8222 436.09C35.1742 435.61 35.4382 435.05 35.6142 434.41C35.8062 433.754 35.9022 433.05 35.9022 432.298ZM35.9022 421.282H37.3422V438.562H35.9022V436.378H35.8542C35.6462 436.794 35.3742 437.162 35.0382 437.482C34.7182 437.786 34.3582 438.042 33.9582 438.25C33.5742 438.458 33.1742 438.618 32.7582 438.73C32.3422 438.842 31.9342 438.898 31.5342 438.898C30.5262 438.898 29.6702 438.73 28.9662 438.394C28.2622 438.058 27.6782 437.602 27.2142 437.026C26.7662 436.434 26.4382 435.738 26.2302 434.938C26.0222 434.138 25.9182 433.282 25.9182 432.37C25.9182 431.506 26.0302 430.674 26.2542 429.874C26.4782 429.074 26.8142 428.378 27.2622 427.786C27.7262 427.178 28.3022 426.698 28.9902 426.346C29.6942 425.978 30.5182 425.794 31.4622 425.794C32.3422 425.794 33.1822 425.994 33.9822 426.394C34.7982 426.778 35.4382 427.354 35.9022 428.122V421.282ZM49.9741 431.482C49.9741 430.874 49.8861 430.306 49.7101 429.778C49.5501 429.234 49.3021 428.77 48.9661 428.386C48.6461 427.986 48.2381 427.674 47.7421 427.45C47.2461 427.21 46.6781 427.09 46.0381 427.09C45.3981 427.09 44.8301 427.21 44.3341 427.45C43.8541 427.69 43.4381 428.01 43.0861 428.41C42.7501 428.81 42.4781 429.274 42.2701 429.802C42.0621 430.33 41.9261 430.89 41.8621 431.482H49.9741ZM41.8621 432.682C41.8621 433.354 41.9501 433.994 42.1261 434.602C42.3021 435.194 42.5581 435.714 42.8941 436.162C43.2461 436.594 43.6861 436.946 44.2141 437.218C44.7421 437.474 45.3501 437.602 46.0381 437.602C46.9821 437.602 47.7901 437.354 48.4621 436.858C49.1341 436.362 49.5821 435.658 49.8061 434.746H51.4141C51.2381 435.338 51.0061 435.89 50.7181 436.402C50.4301 436.898 50.0701 437.338 49.6381 437.722C49.2061 438.09 48.6941 438.378 48.1021 438.586C47.5101 438.794 46.8221 438.898 46.0381 438.898C45.0461 438.898 44.1901 438.73 43.4701 438.394C42.7501 438.058 42.1581 437.602 41.6941 437.026C41.2301 436.434 40.8861 435.746 40.6621 434.962C40.4381 434.162 40.3261 433.306 40.3261 432.394C40.3261 431.482 40.4541 430.626 40.7101 429.826C40.9821 429.026 41.3581 428.33 41.8381 427.738C42.3341 427.13 42.9341 426.658 43.6381 426.322C44.3421 425.97 45.1421 425.794 46.0381 425.794C47.7501 425.794 49.0941 426.386 50.0701 427.57C51.0461 428.738 51.5261 430.442 51.5101 432.682H41.8621ZM55.822 438.562H54.382V426.13H55.822V428.458H55.87C56.27 427.466 56.782 426.778 57.406 426.394C58.046 425.994 58.886 425.794 59.926 425.794V427.354C59.11 427.338 58.438 427.466 57.91 427.738C57.382 428.01 56.958 428.378 56.638 428.842C56.334 429.306 56.118 429.858 55.99 430.498C55.878 431.122 55.822 431.778 55.822 432.466V438.562ZM67.7339 427.33V426.13H69.5819V424.162C69.5819 423.17 69.7819 422.386 70.1819 421.81C70.5819 421.234 71.2619 420.946 72.2219 420.946C72.4459 420.946 72.6539 420.954 72.8459 420.97C73.0379 420.986 73.2299 421.01 73.4219 421.042V422.362C73.1019 422.282 72.8139 422.242 72.5579 422.242C72.1899 422.242 71.9019 422.314 71.6939 422.458C71.4859 422.586 71.3339 422.762 71.2379 422.986C71.1419 423.21 71.0779 423.466 71.0459 423.754C71.0299 424.026 71.0219 424.306 71.0219 424.594V426.13H73.4219V427.33H71.0219V438.562H69.5819V427.33H67.7339ZM83.4136 428.17C83.1896 427.914 82.8536 427.674 82.4056 427.45C81.9576 427.21 81.3736 427.09 80.6536 427.09C79.9016 427.09 79.2536 427.242 78.7096 427.546C78.1816 427.834 77.7496 428.226 77.4136 428.722C77.0776 429.218 76.8296 429.786 76.6696 430.426C76.5096 431.05 76.4296 431.698 76.4296 432.37C76.4296 433.122 76.5016 433.77 76.6456 434.314C76.7896 434.842 76.9656 435.266 77.1736 435.586L83.4136 428.17ZM77.8216 436.522C78.1896 436.89 78.6216 437.162 79.1176 437.338C79.6296 437.514 80.1416 437.602 80.6536 437.602C81.4056 437.602 82.0456 437.458 82.5736 437.17C83.1176 436.866 83.5576 436.474 83.8936 435.994C84.2296 435.498 84.4776 434.938 84.6376 434.314C84.7976 433.69 84.8776 433.042 84.8776 432.37C84.8776 431.762 84.8216 431.17 84.7096 430.594C84.6136 430.018 84.4216 429.498 84.1336 429.034L77.8216 436.522ZM75.6376 439.114L74.7736 438.418L76.1656 436.786C75.7176 436.194 75.3896 435.522 75.1816 434.77C74.9896 434.018 74.8936 433.218 74.8936 432.37C74.8936 431.458 75.0136 430.61 75.2536 429.826C75.4936 429.026 75.8536 428.33 76.3336 427.738C76.8136 427.13 77.4136 426.658 78.1336 426.322C78.8536 425.97 79.6936 425.794 80.6536 425.794C81.4216 425.794 82.1096 425.906 82.7176 426.13C83.3416 426.338 83.8856 426.65 84.3496 427.066L85.5976 425.578L86.4376 426.322L85.1176 427.882C85.5496 428.458 85.8696 429.13 86.0776 429.898C86.3016 430.666 86.4136 431.49 86.4136 432.37C86.4136 433.33 86.2856 434.21 86.0296 435.01C85.7736 435.81 85.3976 436.498 84.9016 437.074C84.4216 437.65 83.8216 438.098 83.1016 438.418C82.3816 438.738 81.5656 438.898 80.6536 438.898C79.7576 438.898 78.9976 438.762 78.3736 438.49C77.7656 438.202 77.2856 437.898 76.9336 437.578L75.6376 439.114ZM89.2135 438.562V421.282H90.6535V438.562H89.2135ZM103.918 432.394C103.918 431.642 103.822 430.946 103.63 430.306C103.454 429.65 103.19 429.09 102.838 428.626C102.486 428.146 102.046 427.77 101.518 427.498C100.99 427.226 100.39 427.09 99.7178 427.09C99.1098 427.09 98.5498 427.202 98.0378 427.426C97.5258 427.634 97.0778 427.946 96.6938 428.362C96.3098 428.778 96.0058 429.29 95.7818 429.898C95.5738 430.49 95.4698 431.178 95.4698 431.962C95.4378 432.746 95.5018 433.482 95.6618 434.17C95.8218 434.842 96.0778 435.434 96.4298 435.946C96.7818 436.458 97.2298 436.866 97.7738 437.17C98.3178 437.458 98.9658 437.602 99.7178 437.602C100.374 437.602 100.958 437.466 101.47 437.194C101.998 436.906 102.438 436.53 102.79 436.066C103.158 435.586 103.438 435.034 103.63 434.41C103.822 433.77 103.918 433.098 103.918 432.394ZM103.918 426.13H105.358V437.362C105.358 438.194 105.27 438.986 105.094 439.738C104.934 440.506 104.638 441.178 104.206 441.754C103.774 442.33 103.182 442.786 102.43 443.122C101.678 443.474 100.71 443.65 99.5258 443.65C98.6138 443.65 97.8298 443.53 97.1738 443.29C96.5178 443.066 95.9818 442.778 95.5658 442.426C95.1498 442.074 94.8298 441.682 94.6058 441.25C94.3978 440.834 94.2858 440.442 94.2698 440.074H95.8058C95.9178 440.538 96.0938 440.914 96.3338 441.202C96.5738 441.506 96.8538 441.738 97.1738 441.898C97.5098 442.074 97.8778 442.194 98.2778 442.258C98.6778 442.322 99.0938 442.354 99.5258 442.354C100.502 442.354 101.286 442.186 101.878 441.85C102.47 441.514 102.918 441.074 103.222 440.53C103.526 439.986 103.718 439.37 103.798 438.682C103.894 437.994 103.934 437.29 103.918 436.57C103.454 437.338 102.814 437.922 101.998 438.322C101.198 438.706 100.358 438.898 99.4778 438.898C98.5338 438.898 97.7098 438.722 97.0058 438.37C96.3178 438.002 95.7418 437.522 95.2778 436.93C94.8298 436.322 94.4938 435.618 94.2698 434.818C94.0458 434.018 93.9338 433.186 93.9338 432.322C93.9338 431.41 94.0378 430.554 94.2458 429.754C94.4538 428.954 94.7818 428.266 95.2298 427.69C95.6938 427.098 96.2778 426.634 96.9818 426.298C97.6858 425.962 98.5418 425.794 99.5498 425.794C99.9498 425.794 100.358 425.85 100.774 425.962C101.19 426.074 101.59 426.234 101.974 426.442C102.374 426.65 102.734 426.914 103.054 427.234C103.39 427.554 103.662 427.914 103.87 428.314H103.918V426.13ZM117.99 431.482C117.99 430.874 117.902 430.306 117.726 429.778C117.566 429.234 117.318 428.77 116.982 428.386C116.662 427.986 116.254 427.674 115.758 427.45C115.262 427.21 114.694 427.09 114.054 427.09C113.414 427.09 112.846 427.21 112.35 427.45C111.87 427.69 111.454 428.01 111.102 428.41C110.766 428.81 110.494 429.274 110.286 429.802C110.078 430.33 109.942 430.89 109.878 431.482H117.99ZM109.878 432.682C109.878 433.354 109.966 433.994 110.142 434.602C110.318 435.194 110.574 435.714 110.91 436.162C111.262 436.594 111.702 436.946 112.23 437.218C112.758 437.474 113.366 437.602 114.054 437.602C114.998 437.602 115.806 437.354 116.478 436.858C117.15 436.362 117.598 435.658 117.822 434.746H119.43C119.254 435.338 119.022 435.89 118.734 436.402C118.446 436.898 118.086 437.338 117.654 437.722C117.222 438.09 116.71 438.378 116.118 438.586C115.526 438.794 114.838 438.898 114.054 438.898C113.062 438.898 112.206 438.73 111.486 438.394C110.766 438.058 110.174 437.602 109.71 437.026C109.246 436.434 108.902 435.746 108.678 434.962C108.454 434.162 108.342 433.306 108.342 432.394C108.342 431.482 108.47 430.626 108.726 429.826C108.998 429.026 109.374 428.33 109.854 427.738C110.35 427.13 110.95 426.658 111.654 426.322C112.358 425.97 113.158 425.794 114.054 425.794C115.766 425.794 117.11 426.386 118.086 427.57C119.062 428.738 119.542 430.442 119.526 432.682H109.878ZM123.838 438.562H122.398V426.13H123.838V428.458H123.886C124.286 427.466 124.798 426.778 125.422 426.394C126.062 425.994 126.902 425.794 127.942 425.794V427.354C127.126 427.338 126.454 427.466 125.926 427.738C125.398 428.01 124.974 428.378 124.654 428.842C124.35 429.306 124.134 429.858 124.006 430.498C123.894 431.122 123.838 431.778 123.838 432.466V438.562ZM136.998 438.562V421.282H138.438V427.858C139.014 427.25 139.606 426.754 140.214 426.37C140.838 425.986 141.582 425.794 142.446 425.794C143.214 425.794 143.926 425.93 144.582 426.202C145.238 426.458 145.79 426.914 146.238 427.57C146.542 428.018 146.718 428.482 146.766 428.962C146.83 429.426 146.862 429.914 146.862 430.426V438.562H145.422V430.45C145.422 429.33 145.174 428.49 144.678 427.93C144.182 427.37 143.358 427.09 142.206 427.09C141.758 427.09 141.35 427.162 140.982 427.306C140.614 427.434 140.278 427.61 139.974 427.834C139.686 428.058 139.438 428.314 139.23 428.602C139.022 428.89 138.862 429.194 138.75 429.514C138.606 429.914 138.518 430.298 138.486 430.666C138.454 431.034 138.438 431.434 138.438 431.866V438.562H136.998ZM159.333 431.482C159.333 430.874 159.245 430.306 159.069 429.778C158.909 429.234 158.661 428.77 158.325 428.386C158.005 427.986 157.597 427.674 157.101 427.45C156.605 427.21 156.037 427.09 155.397 427.09C154.757 427.09 154.189 427.21 153.693 427.45C153.213 427.69 152.797 428.01 152.445 428.41C152.109 428.81 151.837 429.274 151.629 429.802C151.421 430.33 151.285 430.89 151.221 431.482H159.333ZM151.221 432.682C151.221 433.354 151.309 433.994 151.485 434.602C151.661 435.194 151.917 435.714 152.253 436.162C152.605 436.594 153.045 436.946 153.573 437.218C154.101 437.474 154.709 437.602 155.397 437.602C156.341 437.602 157.149 437.354 157.821 436.858C158.493 436.362 158.941 435.658 159.165 434.746H160.773C160.597 435.338 160.365 435.89 160.077 436.402C159.789 436.898 159.429 437.338 158.997 437.722C158.565 438.09 158.053 438.378 157.461 438.586C156.869 438.794 156.181 438.898 155.397 438.898C154.405 438.898 153.549 438.73 152.829 438.394C152.109 438.058 151.517 437.602 151.053 437.026C150.589 436.434 150.245 435.746 150.021 434.962C149.797 434.162 149.685 433.306 149.685 432.394C149.685 431.482 149.813 430.626 150.069 429.826C150.341 429.026 150.717 428.33 151.197 427.738C151.693 427.13 152.293 426.658 152.997 426.322C153.701 425.97 154.501 425.794 155.397 425.794C157.109 425.794 158.453 426.386 159.429 427.57C160.405 428.738 160.885 430.442 160.869 432.682H151.221ZM163.885 438.562V421.282H165.325V438.562H163.885ZM177.99 431.482C177.99 430.874 177.902 430.306 177.726 429.778C177.566 429.234 177.318 428.77 176.982 428.386C176.662 427.986 176.254 427.674 175.758 427.45C175.262 427.21 174.694 427.09 174.054 427.09C173.414 427.09 172.846 427.21 172.35 427.45C171.87 427.69 171.454 428.01 171.102 428.41C170.766 428.81 170.494 429.274 170.286 429.802C170.078 430.33 169.942 430.89 169.878 431.482H177.99ZM169.878 432.682C169.878 433.354 169.966 433.994 170.142 434.602C170.318 435.194 170.574 435.714 170.91 436.162C171.262 436.594 171.702 436.946 172.23 437.218C172.758 437.474 173.366 437.602 174.054 437.602C174.998 437.602 175.806 437.354 176.478 436.858C177.15 436.362 177.598 435.658 177.822 434.746H179.43C179.254 435.338 179.022 435.89 178.734 436.402C178.446 436.898 178.086 437.338 177.654 437.722C177.222 438.09 176.71 438.378 176.118 438.586C175.526 438.794 174.838 438.898 174.054 438.898C173.062 438.898 172.206 438.73 171.486 438.394C170.766 438.058 170.174 437.602 169.71 437.026C169.246 436.434 168.902 435.746 168.678 434.962C168.454 434.162 168.342 433.306 168.342 432.394C168.342 431.482 168.47 430.626 168.726 429.826C168.998 429.026 169.374 428.33 169.854 427.738C170.35 427.13 170.95 426.658 171.654 426.322C172.358 425.97 173.158 425.794 174.054 425.794C175.766 425.794 177.11 426.386 178.086 427.57C179.062 428.738 179.542 430.442 179.526 432.682H169.878ZM189.005 438.562V421.282H190.445V427.858C191.021 427.25 191.613 426.754 192.221 426.37C192.845 425.986 193.589 425.794 194.453 425.794C195.221 425.794 195.933 425.93 196.589 426.202C197.245 426.458 197.797 426.914 198.245 427.57C198.549 428.018 198.725 428.482 198.773 428.962C198.837 429.426 198.869 429.914 198.869 430.426V438.562H197.429V430.45C197.429 429.33 197.181 428.49 196.685 427.93C196.189 427.37 195.365 427.09 194.213 427.09C193.765 427.09 193.357 427.162 192.989 427.306C192.621 427.434 192.285 427.61 191.981 427.834C191.693 428.058 191.445 428.314 191.237 428.602C191.029 428.89 190.869 429.194 190.757 429.514C190.613 429.914 190.525 430.298 190.493 430.666C190.461 431.034 190.445 431.434 190.445 431.866V438.562H189.005ZM210.765 426.13H212.205V438.562H210.765V436.834C210.573 437.058 210.357 437.29 210.117 437.53C209.877 437.77 209.597 437.994 209.277 438.202C208.973 438.394 208.613 438.554 208.197 438.682C207.781 438.826 207.301 438.898 206.757 438.898C205.925 438.898 205.229 438.786 204.669 438.562C204.109 438.322 203.653 437.994 203.301 437.578C202.965 437.162 202.717 436.682 202.557 436.138C202.413 435.578 202.341 434.97 202.341 434.314V426.13H203.781V434.29C203.781 435.362 204.029 436.186 204.525 436.762C205.021 437.322 205.837 437.602 206.973 437.602C207.565 437.602 208.093 437.49 208.557 437.266C209.037 437.026 209.437 436.698 209.757 436.282C210.077 435.866 210.325 435.37 210.501 434.794C210.677 434.218 210.765 433.586 210.765 432.898V426.13ZM217.117 438.562H215.677V426.13H217.117V427.858C217.693 427.25 218.285 426.754 218.893 426.37C219.517 425.986 220.261 425.794 221.125 425.794C221.893 425.794 222.605 425.93 223.261 426.202C223.917 426.458 224.469 426.914 224.917 427.57C225.221 428.018 225.397 428.482 225.445 428.962C225.509 429.426 225.541 429.914 225.541 430.426V438.562H224.101V430.45C224.101 429.33 223.853 428.49 223.357 427.93C222.861 427.37 222.037 427.09 220.885 427.09C220.437 427.09 220.029 427.162 219.661 427.306C219.293 427.434 218.957 427.61 218.653 427.834C218.365 428.058 218.117 428.314 217.909 428.602C217.701 428.89 217.541 429.194 217.429 429.514C217.285 429.914 217.197 430.298 217.165 430.666C217.133 431.034 217.117 431.434 217.117 431.866V438.562ZM238.613 432.298C238.613 431.594 238.517 430.93 238.325 430.306C238.133 429.666 237.853 429.114 237.485 428.65C237.133 428.17 236.693 427.794 236.165 427.522C235.653 427.234 235.069 427.09 234.413 427.09C233.661 427.09 233.013 427.242 232.469 427.546C231.925 427.834 231.477 428.234 231.125 428.746C230.773 429.258 230.517 429.858 230.357 430.546C230.197 431.218 230.133 431.946 230.165 432.73C230.165 433.514 230.269 434.21 230.477 434.818C230.701 435.41 231.005 435.914 231.389 436.33C231.773 436.746 232.221 437.066 232.733 437.29C233.245 437.498 233.805 437.602 234.413 437.602C235.085 437.602 235.685 437.466 236.213 437.194C236.741 436.922 237.181 436.554 237.533 436.09C237.885 435.61 238.149 435.05 238.325 434.41C238.517 433.754 238.613 433.05 238.613 432.298ZM238.613 421.282H240.053V438.562H238.613V436.378H238.565C238.357 436.794 238.085 437.162 237.749 437.482C237.429 437.786 237.069 438.042 236.669 438.25C236.285 438.458 235.885 438.618 235.469 438.73C235.053 438.842 234.645 438.898 234.245 438.898C233.237 438.898 232.381 438.73 231.677 438.394C230.973 438.058 230.389 437.602 229.925 437.026C229.477 436.434 229.149 435.738 228.941 434.938C228.733 434.138 228.629 433.282 228.629 432.37C228.629 431.506 228.741 430.674 228.965 429.874C229.189 429.074 229.525 428.378 229.973 427.786C230.437 427.178 231.013 426.698 231.701 426.346C232.405 425.978 233.229 425.794 234.173 425.794C235.053 425.794 235.893 425.994 236.693 426.394C237.509 426.778 238.149 427.354 238.613 428.122V421.282ZM252.685 431.482C252.685 430.874 252.597 430.306 252.421 429.778C252.261 429.234 252.013 428.77 251.677 428.386C251.357 427.986 250.949 427.674 250.453 427.45C249.957 427.21 249.389 427.09 248.749 427.09C248.109 427.09 247.541 427.21 247.045 427.45C246.565 427.69 246.149 428.01 245.797 428.41C245.461 428.81 245.189 429.274 244.981 429.802C244.773 430.33 244.637 430.89 244.573 431.482H252.685ZM244.573 432.682C244.573 433.354 244.661 433.994 244.837 434.602C245.013 435.194 245.269 435.714 245.605 436.162C245.957 436.594 246.397 436.946 246.925 437.218C247.453 437.474 248.061 437.602 248.749 437.602C249.693 437.602 250.501 437.354 251.173 436.858C251.845 436.362 252.293 435.658 252.517 434.746H254.125C253.949 435.338 253.717 435.89 253.429 436.402C253.141 436.898 252.781 437.338 252.349 437.722C251.917 438.09 251.405 438.378 250.813 438.586C250.221 438.794 249.533 438.898 248.749 438.898C247.757 438.898 246.901 438.73 246.181 438.394C245.461 438.058 244.869 437.602 244.405 437.026C243.941 436.434 243.597 435.746 243.373 434.962C243.149 434.162 243.037 433.306 243.037 432.394C243.037 431.482 243.165 430.626 243.421 429.826C243.693 429.026 244.069 428.33 244.549 427.738C245.045 427.13 245.645 426.658 246.349 426.322C247.053 425.97 247.853 425.794 248.749 425.794C250.461 425.794 251.805 426.386 252.781 427.57C253.757 428.738 254.237 430.442 254.221 432.682H244.573ZM258.461 438.562H257.021V426.13H258.461V427.858C259.037 427.25 259.629 426.754 260.237 426.37C260.861 425.986 261.605 425.794 262.469 425.794C263.237 425.794 263.949 425.93 264.605 426.202C265.261 426.458 265.813 426.914 266.261 427.57C266.565 428.018 266.741 428.482 266.789 428.962C266.853 429.426 266.885 429.914 266.885 430.426V438.562H265.445V430.45C265.445 429.33 265.197 428.49 264.701 427.93C264.205 427.37 263.381 427.09 262.229 427.09C261.781 427.09 261.373 427.162 261.005 427.306C260.637 427.434 260.301 427.61 259.997 427.834C259.709 428.058 259.461 428.314 259.253 428.602C259.045 428.89 258.885 429.194 258.773 429.514C258.629 429.914 258.541 430.298 258.509 430.666C258.477 431.034 258.461 431.434 258.461 431.866V438.562ZM271.197 434.674C271.421 435.746 271.821 436.506 272.397 436.954C272.989 437.386 273.829 437.602 274.917 437.602C275.445 437.602 275.901 437.538 276.285 437.41C276.669 437.282 276.981 437.114 277.221 436.906C277.477 436.682 277.669 436.434 277.797 436.162C277.925 435.89 277.989 435.602 277.989 435.298C277.989 434.69 277.789 434.242 277.389 433.954C277.005 433.65 276.517 433.418 275.925 433.258C275.333 433.082 274.693 432.938 274.005 432.826C273.317 432.698 272.677 432.514 272.085 432.274C271.493 432.034 270.997 431.69 270.597 431.242C270.213 430.794 270.021 430.162 270.021 429.346C270.021 428.306 270.397 427.458 271.149 426.802C271.917 426.13 272.997 425.794 274.389 425.794C275.733 425.794 276.821 426.098 277.653 426.706C278.501 427.298 279.013 428.298 279.189 429.706H277.725C277.597 428.746 277.229 428.074 276.621 427.69C276.029 427.29 275.277 427.09 274.365 427.09C273.453 427.09 272.757 427.29 272.277 427.69C271.797 428.074 271.557 428.586 271.557 429.226C271.557 429.786 271.749 430.218 272.133 430.522C272.533 430.81 273.029 431.05 273.621 431.242C274.213 431.418 274.853 431.578 275.541 431.722C276.229 431.866 276.869 432.074 277.461 432.346C278.053 432.602 278.541 432.954 278.925 433.402C279.325 433.85 279.525 434.474 279.525 435.274C279.525 435.866 279.397 436.394 279.141 436.858C278.885 437.306 278.533 437.682 278.085 437.986C277.637 438.29 277.101 438.514 276.477 438.658C275.869 438.818 275.197 438.898 274.461 438.898C273.725 438.898 273.069 438.786 272.493 438.562C271.933 438.354 271.453 438.058 271.053 437.674C270.653 437.29 270.341 436.842 270.117 436.33C269.893 435.818 269.765 435.266 269.733 434.674H271.197ZM289.253 438.562V421.282H290.693V438.562H289.253ZM294.151 438.562V426.13H295.591V438.562H294.151ZM294.079 423.418V421.282H295.663V423.418H294.079ZM297.935 426.13H299.495L303.527 436.786L307.559 426.13H309.119L304.295 438.562H302.687L297.935 426.13ZM310.194 438.562V436.45H311.946V438.562H310.194Z" fill="#F5F0E8"/>
<path d="M108.496 38.378C109.84 36.842 111.333 35.882 112.976 35.498C114.107 35.2207 115.173 35.2633 116.176 35.626C116.965 34.794 117.989 34.4953 119.248 34.73C120.4 34.9433 121.381 35.594 122.192 36.682C122.235 36.8313 122.32 37.0553 122.448 37.354C122.597 37.6527 122.736 37.9833 122.864 38.346C123.803 40.522 123.877 43.3807 123.088 46.922C122.107 51.3167 120.368 55.0393 117.872 58.09C117.104 59.0287 116.24 59.8073 115.28 60.426C113.744 61.5993 111.909 62.122 109.776 61.994C108.453 61.93 107.344 61.5993 106.448 61.002C102.885 59.2313 101.723 55.5407 102.96 49.93C103.984 45.322 105.829 41.4713 108.496 38.378ZM108.88 55.37L108.848 55.562L108.912 55.914C109.04 56.5753 109.253 57.0873 109.552 57.45C109.851 57.7913 110.096 58.0047 110.288 58.09C110.501 57.9193 110.715 57.7593 110.928 57.61C111.141 57.4607 111.333 57.2793 111.504 57.066C112.955 55.274 114.085 52.9273 114.896 50.026C115.707 47.1247 116.005 44.4367 115.792 41.962C114.96 43.0287 114.085 44.2553 113.168 45.642C112.251 47.0287 111.525 48.2127 110.992 49.194C109.776 51.4767 109.072 53.5353 108.88 55.37ZM114.704 38.922C115.451 37.5993 116.016 36.5433 116.4 35.754C116.805 34.9433 117.136 34.3353 117.392 33.93C117.648 33.5033 117.819 33.2473 117.904 33.162C117.989 33.0553 118.053 32.9487 118.096 32.842C118.053 32.3513 118.288 31.882 118.8 31.434C119.333 30.9647 120.208 30.6127 121.424 30.378H121.648C122.8 30.4207 123.6 30.5487 124.048 30.762C124.88 31.146 125.456 31.8073 125.776 32.746C125.84 33.1513 125.744 33.5353 125.488 33.898C125.253 34.2607 125.008 34.5913 124.752 34.89C125.008 35.5727 124.827 36.2767 124.208 37.002C123.312 37.8553 122.512 38.7727 121.808 39.754C121.104 40.714 120.272 41.8553 119.312 43.178C118.373 44.4793 117.339 46.026 116.208 47.818C115.099 49.61 113.979 51.4127 112.848 53.226C109.989 57.7913 107.643 61.2047 105.808 63.466C105.445 63.914 104.923 63.9887 104.24 63.69C103.536 63.3913 103.056 62.8687 102.8 62.122C102.459 61.2473 102.587 60.3407 103.184 59.402C104.635 56.0953 106.533 52.5007 108.88 48.618C109.925 46.9113 110.971 45.2047 112.016 43.498C113.083 41.77 113.979 40.2447 114.704 38.922ZM128.198 36.842C128.603 35.8607 129.179 35.5087 129.926 35.786C130.139 35.3167 130.32 35.018 130.47 34.89C130.64 34.762 130.811 34.666 130.982 34.602C131.152 34.5167 131.334 34.4313 131.526 34.346C131.718 34.2607 132.016 34.186 132.422 34.122C132.827 34.058 133.275 34.026 133.766 34.026C134.256 34.0047 134.747 34.026 135.238 34.09C135.75 34.154 136.176 34.2927 136.518 34.506C137.35 34.9967 137.531 35.786 137.062 36.874C137.104 36.8527 137.094 36.874 137.03 36.938L136.742 37.482L136.518 37.77C136.411 37.8767 136.08 38.5273 135.526 39.722C135.078 40.5753 134.619 41.418 134.15 42.25C133.382 43.6793 132.912 44.5967 132.742 45.002C133.488 44.5967 134.352 44.01 135.334 43.242C137.19 41.8127 138.374 40.9593 138.885 40.682C139.398 40.4047 139.75 40.234 139.942 40.17C140.155 40.106 140.358 40.0953 140.55 40.138C140.742 40.1593 140.944 40.2127 141.158 40.298L141.958 40.618C142.47 40.7887 142.747 41.4073 142.79 42.474C142.811 43.5193 142.598 44.3087 142.15 44.842C140.208 47.3593 138.022 49.0447 135.59 49.898C134.843 50.1753 134.075 50.41 133.286 50.602C134.416 50.73 135.494 51.4767 136.518 52.842C137.35 53.9513 137.947 55.0927 138.31 56.266C138.694 57.4393 138.992 58.314 139.206 58.89C139.419 59.4447 139.504 59.8713 139.462 60.17C139.44 60.49 139.259 60.7247 138.918 60.874C138.598 61.0447 138.043 61.2047 137.254 61.354C136.891 61.418 136.144 60.9913 135.014 60.074C134.523 59.6687 134 59.2313 133.446 58.762C132.891 58.2713 132.336 57.8127 131.782 57.386C130.502 56.3833 129.606 55.8607 129.094 55.818C129.051 55.818 128.966 55.7967 128.838 55.754L128.262 57.194C127.963 57.898 127.654 58.6447 127.334 59.434C127.035 60.202 126.672 60.8953 126.246 61.514C125.584 61.962 124.816 62.1433 123.942 62.058C122.939 61.9513 122.277 61.546 121.957 60.842C121.744 60.1807 122.096 58.2393 123.014 55.018C123.632 52.7567 124.166 50.7727 124.614 49.066C125.062 47.3593 125.446 45.9513 125.766 44.842C126.086 43.7113 126.32 42.8367 126.47 42.218C126.619 41.578 126.768 40.9593 126.918 40.362C127.28 38.9753 127.707 37.802 128.198 36.842ZM147.465 38.378C148.809 36.842 150.302 35.882 151.945 35.498C153.075 35.2207 154.142 35.2633 155.145 35.626C155.934 34.794 156.958 34.4953 158.217 34.73C159.369 34.9433 160.35 35.594 161.161 36.682C161.203 36.8313 161.289 37.0553 161.417 37.354C161.566 37.6527 161.705 37.9833 161.833 38.346C162.771 40.522 162.846 43.3807 162.057 46.922C161.075 51.3167 159.337 55.0393 156.841 58.09C156.073 59.0287 155.209 59.8073 154.249 60.426C152.713 61.5993 150.878 62.122 148.745 61.994C147.422 61.93 146.313 61.5993 145.417 61.002C141.854 59.2313 140.691 55.5407 141.929 49.93C142.953 45.322 144.798 41.4713 147.465 38.378ZM147.849 55.37L147.817 55.562L147.881 55.914C148.009 56.5753 148.222 57.0873 148.521 57.45C148.819 57.7913 149.065 58.0047 149.257 58.09C149.47 57.9193 149.683 57.7593 149.897 57.61C150.11 57.4607 150.302 57.2793 150.473 57.066C151.923 55.274 153.054 52.9273 153.865 50.026C154.675 47.1247 154.974 44.4367 154.761 41.962C153.929 43.0287 153.054 44.2553 152.137 45.642C151.219 47.0287 150.494 48.2127 149.961 49.194C148.745 51.4767 148.041 53.5353 147.849 55.37ZM163.582 47.146C164.009 45.7167 164.35 44.618 164.606 43.85C164.884 43.0607 165.15 42.3567 165.406 41.738C165.662 41.1193 165.95 40.522 166.27 39.946C166.612 39.37 166.974 38.8473 167.358 38.378C167.764 37.8873 168.19 37.5033 168.638 37.226C169.086 36.9487 169.556 36.81 170.046 36.81C170.537 36.81 171.049 37.002 171.582 37.386C172.436 39.5193 172.958 40.9487 173.15 41.674C173.406 42.7407 173.641 44.2447 173.854 46.186C174.046 45.6953 174.26 45.1833 174.494 44.65C174.75 44.0953 174.996 43.5407 175.23 42.986C175.892 41.578 176.308 40.5113 176.478 39.786C176.948 38.2927 177.918 37.1727 179.39 36.426C180.67 35.786 181.865 35.5833 182.974 35.818C183.422 35.9033 183.732 36.0847 183.902 36.362C184.094 36.6393 184.094 36.9273 183.902 37.226C183.732 37.5247 183.668 37.8127 183.71 38.09C183.774 38.346 183.828 38.6553 183.87 39.018C183.934 39.9993 183.764 40.874 183.358 41.642C182.953 42.3887 182.537 43.3273 182.11 44.458C181.684 45.5673 181.246 46.7513 180.798 48.01C180.372 49.2687 179.934 50.5487 179.486 51.85C179.038 53.1513 178.601 54.3353 178.174 55.402C177.236 57.8553 176.468 59.21 175.87 59.466C175.06 59.9567 174.462 60.2447 174.078 60.33C173.588 60.4153 172.894 60.4153 171.998 60.33C171.444 60.2873 170.964 59.5727 170.558 58.186C170.324 57.4393 170.11 56.4047 169.918 55.082C169.577 52.778 169.342 51.5087 169.214 51.274C168.361 54.0473 167.753 55.7967 167.39 56.522C167.049 57.2473 166.782 57.7273 166.59 57.962C166.42 58.1967 166.206 58.506 165.95 58.89C165.673 59.658 165.012 60.2233 163.966 60.586C163.07 60.9273 162.26 60.9807 161.534 60.746C160.745 60.49 160.51 59.9993 160.83 59.274C161.065 56.714 161.982 52.6713 163.582 47.146ZM188.059 38.378C189.403 36.842 190.896 35.882 192.539 35.498C193.669 35.2207 194.736 35.2633 195.739 35.626C196.528 34.794 197.552 34.4953 198.811 34.73C199.963 34.9433 200.944 35.594 201.755 36.682C201.797 36.8313 201.883 37.0553 202.011 37.354C202.16 37.6527 202.299 37.9833 202.427 38.346C203.365 40.522 203.44 43.3807 202.651 46.922C201.669 51.3167 199.931 55.0393 197.435 58.09C196.667 59.0287 195.803 59.8073 194.843 60.426C193.307 61.5993 191.472 62.122 189.339 61.994C188.016 61.93 186.907 61.5993 186.011 61.002C182.448 59.2313 181.285 55.5407 182.523 49.93C183.547 45.322 185.392 41.4713 188.059 38.378ZM188.443 55.37L188.411 55.562L188.475 55.914C188.603 56.5753 188.816 57.0873 189.115 57.45C189.413 57.7913 189.659 58.0047 189.851 58.09C190.064 57.9193 190.277 57.7593 190.491 57.61C190.704 57.4607 190.896 57.2793 191.067 57.066C192.517 55.274 193.648 52.9273 194.459 50.026C195.269 47.1247 195.568 44.4367 195.355 41.962C194.523 43.0287 193.648 44.2553 192.731 45.642C191.813 47.0287 191.088 48.2127 190.555 49.194C189.339 51.4767 188.635 53.5353 188.443 55.37ZM214.576 36.202C214.789 36.778 214.907 37.162 214.928 37.354C214.971 37.7593 214.821 38.1007 214.48 38.378C214.48 38.3993 214.459 38.4313 214.416 38.474C214.608 39.4767 214.651 40.4153 214.544 41.29C214.437 42.1647 214.299 43.0073 214.128 43.818C215.28 41.8553 216.197 40.4153 216.88 39.498C218.288 37.5993 219.6 36.2447 220.816 35.434C221.221 35.1993 221.712 35.0287 222.288 34.922C222.885 34.794 223.451 34.7727 223.984 34.858C224.517 34.9433 224.955 35.1567 225.296 35.498C225.659 35.8393 225.819 36.3513 225.776 37.034C225.179 41.194 224.539 45.0767 223.856 48.682C223.173 52.266 222.288 55.69 221.2 58.954V59.018H221.168C220.912 59.786 220.272 60.33 219.248 60.65C218.245 60.9487 217.349 60.97 216.56 60.714C215.6 60.4367 215.163 59.9247 215.248 59.178L215.28 58.442V58.378C215.365 57.866 215.408 57.5247 215.408 57.354C215.429 57.162 215.451 57.0233 215.472 56.938C215.515 56.3833 215.6 55.8713 215.728 55.402C215.877 54.9113 215.984 54.5167 216.048 54.218C216.112 53.9193 216.176 53.642 216.24 53.386C216.304 53.1087 216.347 52.8953 216.368 52.746C215.557 53.8553 214.981 54.5273 214.64 54.762C213.787 55.3593 212.795 55.6367 211.664 55.594C210.96 55.5513 210.555 55.3913 210.448 55.114C210.235 54.5167 210.085 54.1647 210 54.058C209.872 53.8873 209.765 53.5993 209.68 53.194C209.125 55.6473 208.581 57.386 208.048 58.41C207.835 58.8153 207.621 59.178 207.408 59.498C207.109 60.202 206.427 60.6927 205.36 60.97C204.357 61.2473 203.397 61.226 202.48 60.906C201.541 60.6073 201.093 60.074 201.136 59.306C201.179 58.538 201.339 57.578 201.616 56.426C201.872 55.2527 202.181 54.0153 202.544 52.714C203.632 48.5967 204.4 45.9193 204.848 44.682C205.317 43.4447 205.712 42.474 206.032 41.77C206.8 40.1273 207.483 38.9327 208.08 38.186C208.741 36.842 209.84 36.0313 211.376 35.754C212.592 35.5193 213.659 35.6687 214.576 36.202ZM237.661 37.93C236.914 40.2553 236.221 42.3567 235.581 44.234C234.962 46.1113 234.386 47.8393 233.853 49.418C233.341 50.9967 232.861 52.458 232.413 53.802C231.965 55.1247 231.549 56.394 231.165 57.61C230.952 59.018 230.258 60.01 229.085 60.586C228.402 60.906 227.592 61.066 226.653 61.066C225.714 61.066 225.01 60.9593 224.541 60.746C224.072 60.554 223.773 60.266 223.645 59.882C223.496 59.498 223.496 59.0393 223.645 58.506C223.773 57.9513 224.008 57.2047 224.349 56.266C224.69 55.306 225.117 54.0153 225.629 52.394C226.162 50.7727 226.717 49.13 227.293 47.466C228.722 43.306 229.853 40.426 230.685 38.826C231.005 38.2287 231.325 37.834 231.645 37.642C231.965 37.4287 232.274 37.2793 232.573 37.194C232.872 37.0873 233.149 36.97 233.405 36.842C233.661 36.714 233.885 36.394 234.077 35.882C234.29 35.37 234.664 35.018 235.197 34.826C235.752 34.634 236.264 34.6233 236.733 34.794C237.224 34.9433 237.586 35.2847 237.821 35.818C238.077 36.33 238.024 37.034 237.661 37.93Z" fill="#F5F0E8"/>
<path d="M202.054 240.625C199.595 240.161 195.976 239.822 192.581 238.762C182.172 235.508 171.573 233.048 160.932 230.721C156.75 229.802 152.668 228.502 148.908 226.399C145.389 224.436 143.766 221.563 144.743 217.447C149.977 195.321 155.119 173.17 160.477 151.077C161.396 147.301 161.686 144.668 157.09 143.235C153.107 141.993 151.699 139.021 153.082 134.731C154.349 130.806 154.862 126.641 156.171 122.732C157.934 117.474 160.882 115.752 166.314 116.903C190.039 121.929 213.738 127.096 237.429 132.247C239.168 132.628 240.882 133.241 242.539 133.903C247.689 135.94 248.774 138.035 247.532 143.484C246.489 148.055 245.28 152.584 244.327 157.172C243.466 161.337 241.205 163.606 236.841 163.018C233.471 162.563 232.295 164.277 231.434 167.192C224.934 189.127 218.284 211.013 211.726 232.932C209.888 239.06 208.29 240.559 202.046 240.642L202.054 240.625ZM201.301 238C205.118 238.224 208 237.909 209.267 233.62C215.833 211.427 222.516 189.26 229.439 167.167C230.747 163.002 229.455 162.058 225.729 161.321C206.385 157.536 187.381 152.278 168.327 147.301C164.725 146.366 163.499 147.028 162.687 150.572C157.553 173.005 152.27 195.396 146.946 217.787C146.267 220.66 147.111 222.59 149.496 224.089C152.701 226.101 156.237 227.194 159.889 228.005C170.107 230.291 180.367 232.353 190.304 235.781C193.931 237.031 197.682 238.083 201.301 237.984V238ZM186.834 149.231C188.664 149.728 189.492 148.8 189.906 147.028C191.322 141.008 192.796 134.996 194.287 128.993C194.709 127.287 195.123 125.639 192.78 125.067C190.627 124.538 189.84 125.829 189.376 127.651C187.803 133.92 186.205 140.18 184.557 146.423C184.027 148.427 184.706 149.322 186.834 149.222V149.231ZM221.149 132.62C221.274 130.996 220.181 130.789 219.046 130.574C217.655 130.317 216.562 130.541 216.214 132.139C214.732 139.012 212.67 145.72 210.558 152.41C210.111 153.818 210.252 155.251 212.049 155.69C213.804 156.112 214.492 154.994 214.931 153.512C216.156 149.421 217.465 145.364 218.69 141.273C219.56 138.375 220.346 135.443 221.149 132.611V132.62ZM187.704 125.763C187.911 124.132 186.71 123.925 185.65 123.627C184.491 123.295 183.431 123.312 183.033 124.745C181.12 131.609 179.199 138.466 177.328 145.339C177.038 146.399 177.419 147.318 178.669 147.409C179.771 147.492 181.294 148.56 181.824 146.73C183.845 139.757 185.758 132.752 187.704 125.763ZM245.793 141.356C245.702 139.377 245.487 137.381 243.267 137.083C241.032 136.785 241.454 139.103 241.106 140.362C239.616 145.653 238.175 150.961 236.999 156.319C236.709 157.636 235.045 159.755 237.446 160.592C239.649 161.362 241.164 159.78 241.719 157.735C243.176 152.303 244.46 146.821 245.81 141.356H245.793ZM233.819 136.023C234.175 134.267 233.446 133.746 232.42 133.472C230.391 132.926 229.728 134.259 229.273 135.824C227.352 142.407 225.431 148.999 223.526 155.582C223.178 156.774 222.69 157.983 224.586 158.464C226.457 158.936 227.435 158.257 227.915 156.468C229.016 152.361 230.118 148.254 231.293 144.163C232.13 141.265 233.074 138.399 233.819 136.023ZM170.885 143.144C170.72 144.403 170.91 145.405 172.285 145.778C173.684 146.159 174.703 145.761 175.133 144.246C175.854 141.737 176.624 139.236 177.336 136.727C178.429 132.893 179.506 129.059 180.574 125.217C181.013 123.651 180.574 122.567 178.909 122.02C176.939 121.374 176.549 122.633 176.152 124.066C174.405 130.425 172.641 136.785 170.877 143.136L170.885 143.144ZM214.243 132.181C214.268 130.798 214.31 129.589 212.62 129.224C211.32 128.943 210.467 129.473 210.103 130.715C208.107 137.571 206.128 144.428 204.141 151.293C203.785 152.526 204.116 153.504 205.391 153.926C206.873 154.414 207.751 153.702 208.174 152.295C210.194 145.587 212.215 138.888 214.235 132.181H214.243ZM218.74 157.371C220.015 157.453 220.694 156.774 220.984 155.797C223.12 148.692 225.207 141.579 227.31 134.466C227.7 133.158 227.211 132.412 225.861 132.056C224.578 131.717 223.642 131.99 223.261 133.29C221.199 140.412 219.154 147.541 217.15 154.679C216.761 156.062 217.266 157.114 218.732 157.371H218.74ZM191.985 148.527C191.687 149.496 191.455 150.522 192.813 150.821C194.444 151.168 195.405 150.398 195.844 148.8C197.574 142.424 199.33 136.056 201.085 129.68C201.441 128.388 201.566 127.146 199.909 126.699C198.071 126.202 197.011 127.055 196.597 128.827C195.057 135.394 193.525 141.96 191.993 148.527H191.985ZM199.81 152.427C201.036 152.485 201.458 151.649 201.756 150.672C203.743 144.088 205.722 137.513 207.735 130.939C208.157 129.572 208.116 128.512 206.476 128.049C205.085 127.651 204.008 127.8 203.578 129.382C201.731 136.288 199.868 143.186 198.096 150.1C197.773 151.351 198.493 152.195 199.81 152.419V152.427ZM239.384 137.869C239.483 136.636 239.4 135.543 238.001 135.203C236.51 134.847 236.121 136.031 235.815 137.091C233.885 143.674 231.997 150.274 230.076 156.865C229.687 158.19 229.612 159.358 231.26 159.805C232.709 160.194 233.637 159.656 234.034 158.166C235.815 151.4 237.603 144.635 239.392 137.869H239.384ZM165.014 141.207C164.857 142.49 164.874 143.741 166.505 144.072C168.194 144.42 168.608 143.095 168.948 141.902C170.612 135.965 172.235 130.019 173.85 124.066C174.173 122.881 174.678 121.498 173.03 120.935C171.324 120.347 170.447 121.498 170.041 122.931C168.335 129.001 166.695 135.087 165.014 141.198V141.207ZM168.045 121.283C168.227 120.43 167.581 119.867 166.521 119.561C165.362 119.23 164.576 119.751 164.286 120.786C163.698 122.898 163.226 125.043 162.762 127.187C161.851 131.336 160.965 135.501 160.079 139.658C159.855 140.685 159.996 141.629 161.114 142.026C161.917 142.316 162.381 141.844 162.588 141.074C164.368 134.59 166.157 128.107 168.045 121.283Z" fill="#F6D3C9"/>
<path d="M188.035 286.434C180.16 286.343 173.411 279.47 173.634 271.761C173.858 264.126 179.936 258.511 187.803 258.66C195.272 258.801 201.979 265.774 201.822 273.235C201.665 280.431 195.313 286.517 188.035 286.442V286.434ZM185.459 264.01C186.014 261.559 184.995 260.905 182.859 261.998C179.207 263.869 176.756 266.635 176.334 270.916C175.895 275.296 177.568 278.741 180.921 281.416C182.635 282.782 183.894 282.774 184.093 280.074C184.49 274.717 184.995 269.367 185.459 264.01ZM191.819 274.394C191.868 274.394 191.926 274.402 191.976 274.41C191.976 276.605 191.96 278.808 191.976 281.002C191.993 282.84 192.771 283.08 194.32 282.236C200.389 278.923 201.11 268.457 195.595 264.06C193.574 262.453 192.738 262.991 192.556 265.376C192.324 268.382 192.067 271.388 191.827 274.394H191.819ZM189.84 272.879C190.063 269.177 190.254 266.155 190.411 263.14C190.461 262.238 190.146 261.468 189.128 261.368C188.225 261.277 187.96 262.014 187.894 262.701C187.314 268.854 186.751 274.998 186.238 281.159C186.138 282.335 186.519 283.436 187.968 283.478C189.417 283.519 189.815 282.451 189.831 281.267C189.873 278.244 189.848 275.222 189.848 272.879H189.84Z" fill="#F6D3C9"/>
<path d="M135.51 169.651C135.353 173.915 135.154 178.172 133.001 182.039C131.312 185.061 128.869 186.759 125.275 186.411C121.681 186.063 119.95 183.596 119.271 180.49C117.706 173.303 117.864 166.032 119.04 158.811C119.619 155.276 121.665 152.601 125.432 152.212C129.382 151.798 131.842 154.224 133.398 157.578C135.17 161.395 135.518 165.502 135.502 169.659L135.51 169.651ZM126.592 168.757C128.753 167.589 133.241 170.893 133.15 165.312C133.059 159.673 129.556 154.655 125.979 154.804C122.509 154.944 120.663 158.836 120.464 165.395C120.29 170.934 124.281 167.953 126.592 168.757ZM127.585 170.562C125.449 172.019 120.522 168.98 120.588 174.686C120.654 180.639 122.981 184.291 126.335 184.15C129.862 184.01 133.258 178.785 133.092 173.659C132.968 169.941 129.978 171.083 127.585 170.562Z" fill="#F6D3C9"/>
<path d="M172.309 175.398C174.827 175.307 177.808 178.428 180.449 176.532C182.726 174.901 182.337 171.241 183.314 168.533C183.886 166.943 184.863 166.338 186.478 166.744C187.678 167.042 188.879 167.365 190.08 167.672C198.824 169.941 198.907 169.957 196.936 178.834C196.398 181.244 197.267 181.931 199.354 182.56C208.438 185.268 208.422 185.326 206.078 194.46C205.062 198.418 202.573 199.884 198.609 198.857C198.344 198.791 198.071 198.724 197.806 198.658C191.256 197.043 192.349 196.513 190.535 202.989C190.204 204.181 189.84 205.374 189.541 206.575C189.036 208.579 187.86 209.258 185.848 208.686C182.801 207.817 179.745 206.964 176.665 206.235C174.156 205.639 173.808 204.115 174.297 201.888C174.909 199.089 177.203 196.017 175.911 193.615C174.603 191.181 170.761 191.603 168.061 190.692C166.182 190.063 165.271 189.119 165.867 187.04C166.786 183.869 167.598 180.656 168.492 177.476C168.964 175.803 169.966 174.851 172.309 175.398ZM184.954 206.069C187.082 206.31 187.314 206.127 188.25 203.395C190.105 197.996 193.919 195.84 199.694 196.928C201.052 197.184 202.277 197.582 203.246 195.942C206.832 189.881 205.656 186.751 198.965 184.92C198.832 184.887 198.708 184.813 198.567 184.796C194.543 184.333 193.723 182.287 194.849 178.495C197.259 170.404 197.019 172.11 189.823 169.974C189.691 169.932 189.55 169.907 189.426 169.85C186.552 168.558 185.368 169.692 184.54 172.59C182.379 180.192 182.246 180.151 174.446 178.412C173.005 178.089 171.581 177.402 170.421 179.157C166.836 184.581 168.078 188.44 174.073 190.195C174.338 190.27 174.586 190.419 174.86 190.452C178.785 190.924 179.24 192.903 178.238 196.505C175.887 204.976 175.299 203.502 183.745 205.755C184.142 205.862 184.54 205.97 184.937 206.086L184.954 206.069Z" fill="#F6D3C9"/>
<path d="M159.988 279.503C159.135 286.219 157.545 293.083 152.113 298.524C149.132 301.505 145.844 302.813 141.671 302.101C130.144 300.147 121.805 294.334 117.996 282.89C114.03 270.982 109.392 259.323 104.78 247.655C100.631 237.172 98.6192 226.622 102.064 215.369C103.687 210.053 102.933 204.488 100.482 199.23C97.1038 191.984 94.0151 184.606 90.8187 177.286C90.3799 176.275 89.9244 175.257 89.6098 174.205C88.6823 171.1 88.3594 168.011 92.0277 166.463C95.6381 164.939 98.3376 166.645 99.8447 169.841C102.196 174.818 104.25 179.952 106.304 185.061C107.745 188.639 109.003 192.299 110.312 195.926C112.258 201.333 115.611 205.68 120.687 208.347C129.266 212.851 135.046 219.849 139.129 228.378C145.563 241.801 151.003 255.679 157.793 268.953C159.35 272.009 159.88 275.512 159.996 279.511L159.988 279.503ZM102.859 226.515C102.842 229.463 103.058 231.914 103.563 234.365C106.105 246.761 111.852 258.023 116.05 269.831C117.946 275.156 119.917 280.447 121.863 285.747C122.849 288.438 124.695 289.067 127.453 288.446C136.884 286.31 145.372 282.327 153.131 276.522C156.17 274.245 156.7 272.026 155.028 268.821C148.461 256.209 143.343 242.927 137.216 230.117C133.233 221.786 127.825 214.698 119.18 210.309C113.939 207.651 110.312 203.064 108.25 197.309C105.691 190.171 102.826 183.148 100.085 176.068C99.381 174.255 98.967 172.243 96.0936 173.642C93.7501 174.785 92.5825 175.845 93.924 178.66C97.0624 185.252 99.8779 192.009 102.95 198.633C105.484 204.115 106.072 209.713 104.656 215.576C103.753 219.319 102.519 223.02 102.875 226.506L102.859 226.515ZM156.559 276.671C148.328 283.942 138.797 288.314 128.397 290.914C125.937 291.527 126.765 292.512 128.148 293.572C131.916 296.47 136.04 298.648 140.768 299.418C143.385 299.841 146.026 299.683 148.37 298.201C154.158 294.541 158.282 284.024 156.559 276.671Z" fill="#F6D3C9"/>
<path d="M142.764 269.508C142.582 272.821 141.654 275.644 138.574 276.737C135.402 277.864 132.943 276.158 131.187 273.582C124.306 263.455 119.677 252.318 116.829 240.443C116.141 237.594 116.829 234.779 119.561 233.239C122.41 231.624 124.646 233.495 126.443 235.417C131.809 241.155 134.715 248.359 137.853 255.381C139.915 260.002 142.4 264.523 142.764 269.508ZM128.794 264.929C130.376 268.101 131.602 270.85 133.73 273.061C134.823 274.195 136.081 275.073 137.746 274.435C139.286 273.847 140.122 272.556 140.396 270.999C141.008 267.521 139.675 264.416 137.812 261.7C136.744 260.143 134.558 260.466 133.821 262.221C132.877 264.441 131.254 264.797 128.794 264.921V264.929ZM119.288 239.665C119.686 242.828 120.017 247.051 122.675 248.922C124.927 250.512 124.936 245.61 127.146 244.708C129.043 243.929 128.786 242.381 127.768 240.981C126.732 239.549 125.639 238.141 124.447 236.849C123.528 235.855 122.402 234.746 120.903 235.392C119.247 236.104 119.371 237.801 119.296 239.665H119.288Z" fill="#F6D3C9"/>
</svg>
