<svg width="445" height="437" viewBox="0 0 445 437" fill="none" xmlns="http://www.w3.org/2000/svg">
<path fill-rule="evenodd" clip-rule="evenodd" d="M208.544 0.858671C189.175 1.89467 171.582 5.58368 150.044 13.1247C137.673 17.4557 112.882 29.2667 103.441 35.3267C101.023 36.8787 97.4686 38.9987 95.5436 40.0367C93.6186 41.0757 91.1436 42.7047 90.0436 43.6587C88.9436 44.6117 86.3586 46.3987 84.2996 47.6307C82.2406 48.8627 80.2156 50.3987 79.7996 51.0447C79.3836 51.6907 75.8936 54.7657 72.0436 57.8777C63.5496 64.7427 46.8496 82.0927 38.9616 92.2467C31.4446 101.922 16.7596 128.094 13.7296 137.215C12.6326 140.515 11.0486 144.813 10.2096 146.765C9.37059 148.718 7.95059 154.793 7.05359 160.265C6.15759 165.738 4.77859 173.365 3.99059 177.215C-0.381413 198.582 -1.30841 233.453 1.94359 254.215C4.01459 267.43 8.35959 283.185 12.0116 290.715C31.9986 331.928 43.3056 349.233 67.2506 375.253C80.1466 389.267 83.7126 392.558 90.0036 396.245C92.5006 397.708 94.5436 399.312 94.5436 399.81C94.5436 400.308 95.3436 400.715 96.3206 400.715C97.2986 400.715 99.1066 401.421 100.339 402.284C102.462 403.771 115.054 410.444 127.912 416.896C136.907 421.41 155.305 428.288 163.599 430.239C167.694 431.201 173.501 432.603 176.504 433.352C179.507 434.102 183.378 434.715 185.105 434.715C186.832 434.715 189.571 435.177 191.191 435.742C194.422 436.868 236.911 435.417 248.544 433.784C261.78 431.925 279.235 428.644 285.544 426.829C308.895 420.111 336.886 407.56 350.944 397.505C353.089 395.97 355.274 394.715 355.8 394.715C357.619 394.715 365.095 388.307 377.301 376.286C392.691 361.128 401.707 349.88 410.621 334.715C412.4 331.69 414.415 328.54 415.101 327.715C415.787 326.89 418.923 321.49 422.07 315.715C427.272 306.168 431.578 295.718 436.492 280.715C439.472 271.617 444.544 232.186 444.544 218.116C444.544 198.688 441.101 171.712 436.452 154.715C435.324 150.59 434.013 145.415 433.539 143.215C432.567 138.702 425.906 123.319 422.03 116.634C412.475 100.158 395.976 78.3847 383.602 65.9217C379.51 61.7997 371.86 55.2737 366.602 51.4197C361.345 47.5657 355.694 43.1867 354.044 41.6867C350.916 38.8457 340.927 31.7147 340.074 31.7147C339.804 31.7147 337.212 30.2237 334.313 28.4007C321.608 20.4107 306.594 14.6887 281.544 8.28868C247.175 -0.490321 242.554 -0.961329 208.544 0.858671ZM253.314 7.70167C261.626 9.34467 271.94 11.6637 276.235 12.8567C280.53 14.0487 287.644 15.8067 292.044 16.7637C304.82 19.5417 312.82 22.9807 337.544 36.3247C341.119 38.2537 345.728 41.5487 347.786 43.6467C349.843 45.7437 355.468 50.1037 360.286 53.3347C370.549 60.2177 382.975 71.7067 389.455 80.3037C391.979 83.6517 397.485 90.6267 401.692 95.8037C413.56 110.409 428.746 141.935 431.552 157.794C432.08 160.775 433.449 167.49 434.595 172.715C437.459 185.77 438.721 211.28 437.44 230.215C436.882 238.465 436.038 246.79 435.564 248.715C435.09 250.64 434.391 255.14 434.011 258.715C433.375 264.684 431.674 273.956 429.606 282.715C428.638 286.817 423.727 299.765 422.589 301.215C422.158 301.765 421.225 304.015 420.515 306.215C419.806 308.415 418.463 311.565 417.529 313.215C412.311 322.44 405.569 332.944 401.482 338.215C398.923 341.515 394.661 347.341 392.01 351.161C385.744 360.191 384.648 361.47 374.463 371.644C366.175 379.922 352.789 390.637 342.893 396.913C326.89 407.062 294.977 420.088 275.788 424.304C249.83 430.006 208.24 432.372 187.044 429.352C175.93 427.768 159.561 423.751 154.044 421.253C152.394 420.506 148.344 419.01 145.044 417.929C141.744 416.849 136.569 414.82 133.544 413.422C130.519 412.023 124.584 409.267 120.356 407.297C116.127 405.327 112.393 403.715 112.057 403.715C111.207 403.715 95.7226 394.325 91.9136 391.5C85.2836 386.583 63.0546 364.467 56.6386 356.405C34.9056 329.095 12.9596 287.697 8.82759 266.215C4.72659 244.901 4.36859 240.505 4.83459 217.215C5.21359 198.247 5.75759 191.585 7.93659 179.215C9.38959 170.965 11.2156 162.64 11.9926 160.715C13.1946 157.741 16.0236 148.464 19.4646 136.215C20.3886 132.926 21.9686 129.313 23.8366 126.212C24.5006 125.11 28.0996 119.035 31.8346 112.712C43.5776 92.8287 47.0676 88.3657 64.0106 71.5537C76.8016 58.8627 98.0426 42.2617 104.42 39.9717C105.313 39.6517 107.251 38.5537 108.726 37.5317C112.217 35.1157 131.225 25.6407 139.544 22.1707C157.444 14.7047 171.794 10.6597 190.544 7.79567C207.326 5.23267 209.017 5.08967 225.123 4.88267C236.063 4.74167 240.673 5.20367 253.314 7.70167ZM210.044 33.3057C208.944 33.5597 203.094 34.4057 197.044 35.1857C177.567 37.6957 172.061 38.8537 163.544 42.2317C147.821 48.4677 132.548 55.4007 125.971 59.2897C105.432 71.4327 82.7096 92.2177 73.2136 107.549C70.3696 112.14 66.8866 117.768 65.4716 120.055C62.3266 125.143 55.2876 139.119 53.8076 143.215C53.2106 144.865 50.8276 150.49 48.5116 155.715C39.7236 175.54 35.6316 201.875 36.9436 230.161C37.5666 243.581 39.0496 252.719 41.9826 261.215C42.7416 263.415 44.1356 267.915 45.0806 271.215C48.0296 281.514 51.6176 289.674 59.9906 305.115C70.0646 323.695 74.7886 330.495 84.7276 340.715C98.9136 355.304 114.575 367.757 128.968 375.896C133.96 378.718 138.719 381.561 139.544 382.212C143.983 385.718 174.164 395.491 185.544 397.107C187.469 397.38 191.294 398.081 194.044 398.664C200.719 400.078 244.388 401.091 247.01 399.892C248.129 399.38 251.744 398.459 255.044 397.844C268.878 395.269 298.65 385.223 312.044 378.611C322.906 373.249 338.544 362.476 338.544 360.356C338.544 359.883 343.182 354.483 348.85 348.356C359.664 336.667 378.062 312.8 382.071 305.26C388.198 293.737 392.545 284.979 392.554 284.139C392.559 283.631 394.359 278.748 396.554 273.288C398.748 267.828 400.544 262.775 400.544 262.059C400.544 261.343 401.405 257.935 402.456 254.486C405.089 245.851 407.596 226.946 407.464 216.715C407.254 200.362 400.906 168.05 396.07 158.715C395.358 157.34 394.466 154.772 394.089 153.008C393.712 151.244 392.47 147.869 391.329 145.508C390.188 143.147 387.805 137.829 386.034 133.691C383.136 126.921 379.602 121.457 369.33 107.868C354.256 87.9267 327.071 65.2237 306.773 55.6247C291.738 48.5147 271.518 41.1777 259.044 38.3057C252.444 36.7867 245.919 35.0897 244.544 34.5357C241.965 33.4967 213.601 32.4857 210.044 33.3057ZM241.544 39.7907C266.192 42.3547 291.422 51.9447 317.044 68.4897C325.173 73.7387 330.436 77.9437 343.544 89.6627C355.375 100.24 357.401 102.388 364.337 111.715C367.405 115.84 370.169 119.44 370.48 119.715C371.982 121.046 377.417 129.752 378.052 131.844C378.448 133.148 379.565 135.565 380.533 137.215C383.242 141.828 393.198 167.479 394.895 174.215C395.726 177.515 396.704 182.465 397.067 185.215C397.431 187.965 398.631 194.715 399.735 200.215C401.379 208.407 401.629 212.384 401.118 222.215C400.47 234.681 400.004 237.562 395.944 254.215C392.361 268.91 384.45 288.507 376.852 301.51C371.064 311.414 354.132 333.831 346.321 341.931C345.069 343.23 341.569 347.099 338.544 350.528C329.632 360.633 322.879 365.331 304.044 374.531C290.121 381.333 290.121 381.333 273.052 386.499C273.049 386.5 273.046 386.501 273.044 386.502C251.992 392.875 251.471 392.953 226.878 393.474C208.238 393.868 201.692 393.638 193.378 392.295C173.32 389.056 172.725 388.877 151.544 379.712C147.419 377.927 143.144 375.996 142.044 375.421C140.944 374.846 137.556 373.138 134.515 371.627C131.475 370.116 126.186 366.817 122.763 364.297C119.339 361.777 116.265 359.715 115.93 359.715C113.822 359.715 92.7556 340.396 87.7176 333.842C75.6176 318.102 72.1086 313.053 68.3376 305.955C66.0756 301.698 63.6186 297.501 62.8786 296.629C56.8326 289.512 48.1296 262.301 44.5246 239.243C42.4096 225.72 44.0976 188.269 47.1546 180.843C47.9186 178.988 48.5436 176.603 48.5436 175.541C48.5436 174.48 50.3906 169.023 52.6476 163.413C54.9036 157.804 58.0066 150.047 59.5416 146.176C63.5946 135.953 69.8296 124.43 75.4126 116.843C78.0966 113.198 80.9946 108.865 81.8546 107.215C85.0606 101.062 103.06 82.6947 110.544 77.9387C111.919 77.0657 113.944 75.5227 115.044 74.5117C126.818 63.6827 164.193 45.8487 181.94 42.5907C206.469 38.0877 219.353 37.4827 241.544 39.7907ZM224.865 54.9037C221.726 56.4207 219.966 61.1507 221.383 64.2597C223.306 68.4817 228.544 66.8397 228.544 62.0147C228.544 60.4317 229.129 59.7147 230.422 59.7147C233.521 59.7147 234.864 62.2887 234.209 66.9727C232.403 79.8787 229.709 86.5847 223.948 92.5167C220.191 96.3847 219.802 97.8547 222.043 99.7137C223.239 100.707 224.155 100.704 226.573 99.7027C229.283 98.5807 231.904 98.3267 245.794 97.8447C248.854 97.7387 249.544 97.3407 249.544 95.6837C249.544 92.8727 246.808 91.9277 238.274 91.7917L233.503 91.7147L235.397 87.9647C238.585 81.6507 240.544 73.2527 240.544 65.8997C240.544 59.3027 240.364 58.7407 237.467 56.3037C234.164 53.5247 228.923 52.9417 224.865 54.9037ZM206.312 56.8247C205.425 57.3207 204.38 59.1867 203.989 60.9707C202.82 66.3037 198.568 74.4097 194.898 78.3007C191.04 82.3917 190.997 84.0707 194.739 84.5187C196.705 84.7537 198.214 83.7597 201.412 80.1277C203.684 77.5457 205.601 75.8337 205.671 76.3237C205.741 76.8137 206.079 82.1177 206.421 88.1107C206.924 96.9117 207.377 99.2157 208.775 100.094C210.089 100.919 210.839 100.823 211.882 99.6977C212.998 98.4947 213.109 95.3867 212.468 83.2147C211.103 57.2657 210.459 54.5037 206.312 56.8247ZM130.98 75.8177C129.865 77.6217 131.694 80.5657 137.112 85.6897C141.64 89.9727 142.878 90.6827 144.081 89.6837C146.342 87.8077 145.926 86.8447 140.404 81.1627C135.292 75.9037 132.06 74.0707 130.98 75.8177ZM305.854 80.7187C301.094 84.2187 298.162 88.2777 298.937 90.2957C299.875 92.7397 301.856 91.8187 307.885 86.1367C311.563 82.6707 313.519 80.0917 313.166 79.1737C312.325 76.9817 310.375 77.3937 305.854 80.7187ZM77.8566 133.343C77.4736 134.339 78.0106 135.601 79.2376 136.593C80.3406 137.485 83.6146 140.138 86.5126 142.488C90.6616 145.853 92.0756 146.518 93.1626 145.616C93.9226 144.986 94.5436 144.126 94.5436 143.705C94.5436 142.64 80.8966 131.715 79.5656 131.715C78.9686 131.715 78.1996 132.448 77.8566 133.343ZM352.544 143.019C346.2 146.138 343.843 149.125 346.823 150.269C347.608 150.57 351.354 149.316 355.147 147.483C360.186 145.048 362.044 143.624 362.044 142.196C362.044 139.278 359.748 139.477 352.544 143.019ZM67.7206 192.578C65.8926 193.544 63.9866 194.983 63.4856 195.775C62.0136 198.102 62.4036 206.572 64.1026 209.165C65.9936 212.051 72.2776 214.715 77.1916 214.715H80.7996L80.1676 218.664C78.9706 226.148 75.7066 229.983 68.2206 232.697C66.3416 233.379 65.5096 234.301 65.7326 235.456C66.2466 238.125 68.9016 238.077 74.7826 235.295C80.9146 232.394 83.6466 228.45 85.4336 219.916C87.8036 208.6 86.4346 197.84 82.1076 193.775C78.8966 190.758 72.2146 190.202 67.7206 192.578ZM355.294 193.287C353.782 194.108 352.544 195.504 352.544 196.391C352.544 197.781 353.504 197.913 359.538 197.352C365.714 196.778 366.766 196.937 368.538 198.709C369.641 199.812 370.544 201.84 370.544 203.215C370.544 205.656 367.466 209.715 365.615 209.715C365.105 209.715 363.964 210.438 363.081 211.321C360.86 213.542 362.803 215.715 367.011 215.715C375.498 215.715 376.779 228.304 368.635 231.677C365.203 233.099 362.798 233.2 356.794 232.177C352.915 231.515 352.544 231.635 352.544 233.548C352.544 238.099 362.71 240.062 369.871 236.895C375.935 234.212 379.253 230.782 380.088 226.333C380.969 221.635 380.137 218.573 376.949 214.785C374.648 212.05 374.478 211.344 375.449 208.558C377.505 202.659 376.847 198.818 373.144 195.115C370.038 192.009 369.238 191.718 363.894 191.755C360.676 191.777 356.806 192.466 355.294 193.287ZM78.1436 201.668C79.6406 206.762 78.7476 208.715 74.9216 208.715C71.6576 208.715 68.5436 205.321 68.5436 201.765C68.5436 198.43 70.7926 196.601 74.4396 196.972C76.3376 197.164 77.1076 198.14 78.1436 201.668ZM335.1 293.625C334.061 295.306 335.54 297.202 340.182 300.139C342.72 301.745 345.844 304.106 347.125 305.387C349.861 308.123 351.787 308.332 353.642 306.097C354.803 304.698 354.582 304.146 352.015 302.028C342.772 294.403 336.534 291.304 335.1 293.625ZM96.0256 303.024C91.8006 306.864 90.3626 308.801 90.8316 310.024C91.8656 312.717 93.6736 312.022 99.4916 306.7C102.488 303.958 105.526 301.715 106.242 301.715C106.958 301.715 107.544 300.815 107.544 299.715C107.544 298.185 106.877 297.715 104.706 297.715C102.678 297.715 100.199 299.231 96.0256 303.024ZM220.897 335.207C215.013 341.348 212.685 346.349 211.93 354.469C211.401 360.164 211.643 362.149 213.329 365.961C215.901 371.777 221.704 375.832 228.37 376.472C232.88 376.906 233.332 376.721 236.457 373.161C239.433 369.772 239.715 368.928 239.252 364.815C238.251 355.94 228.956 351.55 219.141 355.316C215.751 356.617 220.139 343.685 224.888 338.378C226.606 336.457 228.738 335.364 231.485 334.996C233.718 334.697 235.544 334.151 235.544 333.783C235.544 332.048 232.776 330.715 229.173 330.715C225.772 330.715 224.582 331.361 220.897 335.207ZM291.211 343.382C289.763 344.83 290.755 347.108 295.749 353.802C300.653 360.377 304.068 362.745 306.487 361.25C308.742 359.857 307.229 356.941 300.631 349.965C293.981 342.935 292.614 341.979 291.211 343.382ZM154.123 348.402C151.653 350.979 149.111 354.346 148.474 355.884C147.178 359.014 147.798 361.715 149.813 361.715C151.474 361.715 162.544 348.392 162.544 346.394C162.544 345.186 160.597 343.715 158.997 343.715C158.786 343.715 156.593 345.824 154.123 348.402ZM230.079 361.33C232.5 362.916 233.198 365.847 231.937 369.133C231.072 371.388 225.928 371.124 222.448 368.647C218.992 366.186 218.772 364.119 221.697 361.582C224.341 359.289 226.849 359.214 230.079 361.33Z" fill="#FFFEFE"/>
<path fill-rule="evenodd" clip-rule="evenodd" d="M241.544 39.7907C266.192 42.3547 291.422 51.9447 317.044 68.4897C325.173 73.7387 330.436 77.9437 343.544 89.6627C355.375 100.24 357.401 102.388 364.337 111.715C367.405 115.84 370.169 119.44 370.48 119.715C371.982 121.046 377.417 129.752 378.052 131.844C378.448 133.148 379.565 135.565 380.533 137.215C383.242 141.828 393.198 167.479 394.895 174.215C395.726 177.515 396.704 182.465 397.067 185.215C397.431 187.965 398.631 194.715 399.735 200.215C401.379 208.407 401.629 212.384 401.118 222.215C400.47 234.681 400.004 237.562 395.944 254.215C392.361 268.91 384.45 288.507 376.852 301.51C371.064 311.414 354.132 333.831 346.321 341.931C345.069 343.23 341.569 347.099 338.544 350.528C329.632 360.633 322.879 365.331 304.044 374.531C290.121 381.333 290.121 381.333 273.052 386.499L273.044 386.502C251.992 392.875 251.471 392.953 226.878 393.474C208.238 393.868 201.692 393.638 193.378 392.295C173.32 389.056 172.725 388.877 151.544 379.712C147.419 377.927 143.144 375.996 142.044 375.421C140.944 374.846 137.556 373.138 134.515 371.627C131.475 370.116 126.186 366.817 122.763 364.297C119.339 361.777 116.265 359.715 115.93 359.715C113.822 359.715 92.7556 340.396 87.7176 333.842C75.6176 318.102 72.1086 313.053 68.3376 305.955C66.0756 301.698 63.6186 297.501 62.8786 296.629C56.8326 289.512 48.1296 262.301 44.5246 239.243C42.4096 225.72 44.0976 188.269 47.1546 180.843C47.9186 178.988 48.5436 176.603 48.5436 175.541C48.5436 174.48 50.3906 169.023 52.6476 163.413C54.9036 157.804 58.0066 150.047 59.5416 146.176C63.5946 135.953 69.8296 124.43 75.4126 116.843C78.0966 113.198 80.9946 108.865 81.8546 107.215C85.0606 101.062 103.06 82.6947 110.544 77.9387C111.919 77.0657 113.944 75.5227 115.044 74.5117C126.818 63.6827 164.193 45.8487 181.94 42.5907C206.469 38.0877 219.353 37.4827 241.544 39.7907ZM221.383 64.2597C219.966 61.1507 221.726 56.4207 224.865 54.9037C228.923 52.9417 234.164 53.5247 237.467 56.3037C240.364 58.7407 240.544 59.3027 240.544 65.8997C240.544 73.2527 238.585 81.6507 235.397 87.9647L233.503 91.7147L238.274 91.7917C246.808 91.9277 249.544 92.8727 249.544 95.6837C249.544 97.3407 248.854 97.7387 245.794 97.8447C231.904 98.3267 229.283 98.5807 226.573 99.7027C224.155 100.704 223.239 100.707 222.043 99.7137C219.802 97.8547 220.191 96.3847 223.948 92.5167C229.709 86.5847 232.403 79.8787 234.209 66.9727C234.864 62.2887 233.521 59.7147 230.422 59.7147C229.129 59.7147 228.544 60.4317 228.544 62.0147C228.544 66.8397 223.306 68.4817 221.383 64.2597ZM203.989 60.9707C204.38 59.1867 205.425 57.3207 206.312 56.8247C210.459 54.5037 211.103 57.2657 212.468 83.2147C213.109 95.3867 212.998 98.4947 211.882 99.6977C210.839 100.823 210.089 100.919 208.775 100.094C207.377 99.2157 206.924 96.9117 206.421 88.1107C206.079 82.1177 205.741 76.8137 205.671 76.3237C205.601 75.8337 203.684 77.5457 201.412 80.1277C198.214 83.7597 196.705 84.7537 194.739 84.5187C190.997 84.0707 191.04 82.3917 194.898 78.3007C198.568 74.4097 202.82 66.3037 203.989 60.9707ZM137.112 85.6897C131.694 80.5657 129.865 77.6217 130.98 75.8177C132.06 74.0707 135.292 75.9037 140.404 81.1627C145.926 86.8447 146.342 87.8077 144.081 89.6837C142.878 90.6827 141.64 89.9727 137.112 85.6897ZM298.937 90.2957C298.162 88.2777 301.094 84.2187 305.854 80.7187C310.375 77.3937 312.325 76.9817 313.166 79.1737C313.519 80.0917 311.563 82.6707 307.885 86.1367C301.856 91.8187 299.875 92.7397 298.937 90.2957ZM79.2376 136.593C78.0106 135.601 77.4736 134.339 77.8566 133.343C78.1996 132.448 78.9686 131.715 79.5656 131.715C80.8966 131.715 94.5436 142.64 94.5436 143.705C94.5436 144.126 93.9226 144.986 93.1626 145.616C92.0756 146.518 90.6616 145.853 86.5126 142.488C83.6146 140.138 80.3406 137.485 79.2376 136.593ZM346.823 150.269C343.843 149.125 346.2 146.138 352.544 143.019C359.748 139.477 362.044 139.278 362.044 142.196C362.044 143.624 360.186 145.048 355.147 147.483C351.354 149.316 347.608 150.57 346.823 150.269ZM63.4856 195.775C63.9866 194.983 65.8926 193.544 67.7206 192.578C72.2146 190.202 78.8966 190.758 82.1076 193.775C86.4346 197.84 87.8036 208.6 85.4336 219.916C83.6466 228.45 80.9146 232.394 74.7826 235.295C68.9016 238.077 66.2466 238.125 65.7326 235.456C65.5096 234.301 66.3416 233.379 68.2206 232.697C75.7066 229.983 78.9706 226.148 80.1676 218.664L80.7996 214.715H77.1916C72.2776 214.715 65.9936 212.051 64.1026 209.165C62.4036 206.572 62.0136 198.102 63.4856 195.775ZM352.544 196.391C352.544 195.504 353.782 194.108 355.294 193.287C356.806 192.466 360.676 191.777 363.894 191.755C369.238 191.718 370.038 192.009 373.144 195.115C376.847 198.818 377.505 202.659 375.449 208.558C374.478 211.344 374.648 212.05 376.949 214.785C380.137 218.573 380.969 221.635 380.088 226.333C379.253 230.782 375.935 234.212 369.871 236.895C362.71 240.062 352.544 238.099 352.544 233.548C352.544 231.635 352.915 231.515 356.794 232.177C362.798 233.2 365.203 233.099 368.635 231.677C376.779 228.304 375.498 215.715 367.011 215.715C362.803 215.715 360.86 213.542 363.081 211.321C363.964 210.438 365.105 209.715 365.615 209.715C367.466 209.715 370.544 205.656 370.544 203.215C370.544 201.84 369.641 199.812 368.538 198.709C366.766 196.937 365.714 196.778 359.538 197.352C353.504 197.913 352.544 197.781 352.544 196.391ZM340.182 300.139C335.54 297.202 334.061 295.306 335.1 293.625C336.534 291.304 342.772 294.403 352.015 302.028C354.582 304.146 354.803 304.698 353.642 306.097C351.787 308.332 349.861 308.123 347.125 305.387C345.844 304.106 342.72 301.745 340.182 300.139ZM90.8316 310.024C90.3626 308.801 91.8006 306.864 96.0256 303.024C100.199 299.231 102.678 297.715 104.706 297.715C106.877 297.715 107.544 298.185 107.544 299.715C107.544 300.815 106.958 301.715 106.242 301.715C105.526 301.715 102.488 303.958 99.4916 306.7C93.6736 312.022 91.8656 312.717 90.8316 310.024ZM211.93 354.469C212.685 346.349 215.013 341.348 220.897 335.207C224.582 331.361 225.772 330.715 229.173 330.715C232.776 330.715 235.544 332.048 235.544 333.783C235.544 334.151 233.718 334.697 231.485 334.996C228.738 335.364 226.606 336.457 224.888 338.378C220.139 343.685 215.751 356.617 219.141 355.316C228.956 351.55 238.251 355.94 239.252 364.815C239.715 368.928 239.433 369.772 236.457 373.161C233.332 376.721 232.88 376.906 228.37 376.472C221.704 375.832 215.901 371.777 213.329 365.961C211.643 362.149 211.401 360.164 211.93 354.469ZM295.749 353.802C290.755 347.108 289.763 344.83 291.211 343.382C292.614 341.979 293.981 342.935 300.631 349.965C307.229 356.941 308.742 359.857 306.487 361.25C304.068 362.745 300.653 360.377 295.749 353.802ZM148.474 355.884C149.111 354.346 151.653 350.979 154.123 348.402C156.593 345.824 158.786 343.715 158.997 343.715C160.597 343.715 162.544 345.186 162.544 346.394C162.544 348.392 151.474 361.715 149.813 361.715C147.798 361.715 147.178 359.014 148.474 355.884Z" fill="#9D342E"/>
<path d="M230.079 361.33C232.5 362.916 233.198 365.847 231.937 369.133C231.072 371.388 225.928 371.124 222.448 368.647C218.992 366.186 218.772 364.119 221.697 361.582C224.341 359.289 226.849 359.214 230.079 361.33Z" fill="#9D342E"/>
<path d="M78.1436 201.668C79.6406 206.762 78.7476 208.715 74.9216 208.715C71.6576 208.715 68.5436 205.321 68.5436 201.765C68.5436 198.43 70.7926 196.601 74.4396 196.972C76.3376 197.164 77.1076 198.14 78.1436 201.668Z" fill="#9D342E"/>
<circle cx="222" cy="218" r="8" fill="white"/>
</svg>
