<svg width="353" height="611" viewBox="0 0 353 611" fill="none" xmlns="http://www.w3.org/2000/svg">
<g clip-path="url(#clip0_353_989)">
<path d="M349.03 507.11C349.95 512.09 350.24 516.65 347.94 521C346.81 523.13 345.38 525.04 343.79 526.87C341.53 529.46 338.78 529.89 335.6 529.55C331.56 529.13 327.71 528.08 323.91 526.74C322.18 526.13 320.35 525.88 318.6 525.31C317.3 524.88 317 525.22 317.27 526.54C317.39 527.13 316.96 527.1 316.68 527.18C314.19 527.86 311.69 528.44 309.09 528.61C302.57 529.05 296.05 528.82 289.53 528.82C283.88 528.82 278.26 529.34 272.63 529.68C270.75 529.79 269 530.64 267.11 530.83C266.22 530.92 265.37 530.88 264.51 530.69C263.85 530.55 263.37 530.22 263.19 529.56C262.99 528.82 263.62 528.59 264.08 528.29C266.81 526.5 269.88 525.95 273.07 525.79C273.81 525.75 274.55 525.62 275.27 525.46C277.1 525.06 277.27 524.45 276.2 522.96C275.14 521.47 273.86 520.15 272.95 518.54C271.64 516.23 270.73 513.78 270.13 511.22C269.38 507.99 268.48 504.81 268.48 501.42C268.48 494.12 273.07 491.72 279.41 492.22C281.72 492.4 283.89 493.43 286.22 493.56C287.05 493.61 287.88 493.67 288.71 493.66C289.43 493.66 290.14 493.46 290.46 492.72C290.8 491.92 290.37 491.3 289.86 490.71C289.02 489.74 287.93 489.13 286.71 488.95C282.64 488.35 278.57 487.75 274.45 488.59C270 489.49 266.16 493.54 265.61 498.04C265.46 499.25 265.34 500.46 265.09 501.72C264.24 500.15 263.15 498.68 263.07 496.79C262.99 494.91 263.17 493.04 263.43 491.17C263.93 487.53 264.37 483.87 263.81 480.2C263.56 478.57 263.18 476.92 262.11 475.57C261.71 475.07 261.22 474.44 260.48 474.71C259.74 474.98 259.82 475.73 259.78 476.4C259.69 477.99 259.94 479.53 260.22 481.08C260.71 483.83 260.32 486.58 259.96 489.31C258.88 497.42 257.81 505.52 256.61 513.61C256.08 517.15 255.3 520.67 254.28 524.11C253.6 526.38 252.7 526.91 250.38 527.04C247.1 527.22 243.92 526.79 240.83 525.72C240.54 525.62 240.23 525.56 239.97 525.41C239.34 525.05 238.35 524.78 238.38 524.03C238.4 523.45 239.43 523.45 240 523.17C242.6 521.93 245.36 520.89 246.63 517.94C246.79 517.56 247.2 517.29 247.51 516.97C247.73 516.74 247.99 516.44 247.78 516.17C247.04 515.23 247.62 514.33 247.8 513.42C248.36 510.69 248.23 507.92 248.18 505.18C248.12 501.91 248.28 498.62 247.84 495.35C246.98 488.98 246.16 482.61 245.19 476.26C244.09 469.02 243.8 461.75 244.56 454.42C245.19 448.42 247.13 442.92 250 437.7C252.81 432.6 252.12 426.67 247.87 421.62C244.76 417.92 241.06 414.82 237.36 411.76C230.44 406.04 226.54 398.72 225.54 389.84C225.26 387.37 226.11 385.09 227.24 382.93C227.74 381.98 228.6 381.44 229.64 381.26C231.81 380.88 233.44 379.74 234.46 377.79C235.02 376.73 235.89 376.94 236.74 377.19C239.43 377.97 242.05 378.97 244.59 380.15C247.05 381.29 249.64 381.84 252.35 381.78C252.74 381.78 253.24 381.78 253.48 381.56C255.4 379.8 257.71 380.35 259.86 380.56C269.61 381.55 276.23 387.19 281.2 395.19C281.72 396.02 281.93 396.91 281.94 397.93C281.96 401.96 282.63 405.94 283.16 409.93C283.62 413.37 284.25 416.88 283.65 420.26C282.26 428.1 278.61 434.75 269.86 436.5C268.52 436.77 267.15 436.71 265.8 436.6C264.75 436.52 264.38 435.83 264.69 434.55C265.11 432.84 265.88 431.27 266.75 429.74C267.8 427.88 268.93 426.06 269.87 424.12C270.67 422.47 271.14 420.76 271.27 418.96C271.46 416.12 271.98 413.32 271.98 410.47C271.98 408.08 271.27 405.9 270.14 403.84C269.42 402.53 268.82 401.18 268.6 399.68C268.55 399.34 268.51 398.88 268.07 398.89C267.59 398.9 267.69 399.4 267.64 399.72C267.42 400.98 267.26 402.29 267.72 403.49C269.16 407.22 268.99 410.98 268.48 414.86C268.01 418.4 267.63 421.89 265.58 424.96C264.63 426.38 263.73 427.84 263.04 429.4C262.05 431.62 261.22 433.86 262.19 436.35C262.81 437.94 263.76 439.04 265.51 439.34C268.59 439.87 271.5 439.66 274.18 437.82C276.05 436.53 278.12 435.55 279.9 434.1C282.22 432.2 283.21 429.42 284.61 426.9C285.92 429.54 288.21 430.97 290.93 431.32C293.93 431.71 296.5 430.37 298.46 428.08C299.31 427.08 299.71 425.81 299.81 424.45C300.12 420.26 299.16 416.44 296.95 412.82C295 409.61 293.38 406.2 291.61 402.88C290.38 400.57 288.47 398.92 286.33 397.53C285.35 396.89 284.67 396.2 284.56 394.96C284.41 393.17 283.34 391.82 282.27 390.47C279.35 386.79 276.27 383.28 272.11 380.91C270.65 380.08 269.09 379.47 267.46 379.19C264.75 378.72 262.01 378.39 259.28 378.1C257.71 377.94 256.12 378.1 254.65 378.74C251.43 380.14 248.5 378.89 245.71 377.55C241.04 375.3 236.13 373.73 231.31 371.9C228.49 370.83 225.48 372.96 225.46 375.99C225.45 378.18 225.04 380.15 223.96 382.13C222.21 385.32 222.28 388.91 222.68 392.4C223.72 401.54 228.2 408.84 235.13 414.73C238.59 417.68 242.09 420.58 245.58 423.51C246.4 424.2 247.06 424.99 247.23 426.1C247.3 426.53 247.42 426.99 247.66 427.33C249.75 430.32 248.62 433.16 247.35 436.02C245.19 440.89 242.79 445.66 241.76 450.96C241.1 454.33 240.96 457.73 240.91 461.14C240.79 469.56 241.32 477.93 242.51 486.26C243.81 495.41 244.25 504.62 244.15 513.86C244.14 515.03 243.73 515.56 242.61 515.64C238.71 515.92 237.09 518.94 235.31 521.75C235.07 522.13 235.17 522.59 235.31 523.02C237.59 529.89 243.79 531.38 248.8 530.8C251.4 530.5 253.71 529.78 255.73 528.05C258.02 526.09 258.79 523.37 259.36 520.65C260.09 517.14 260.45 513.56 261.04 510.02C261.4 507.83 261.89 505.67 262.35 503.38C263.16 504.19 263.44 505.17 263.95 506.01C266.06 509.47 267.78 513.07 268.67 517.06C268.89 518.07 269.33 519.06 269.96 519.92C270.4 520.51 270.22 520.69 269.51 520.77C267.81 520.95 266.13 521.21 264.44 521.47C263.66 521.59 262.91 521.8 262.2 522.19C261.26 522.71 260.93 523.47 261.51 524.36C262.01 525.13 261.69 525.53 261.14 526.01C259.75 527.24 259.1 528.8 259.05 530.66C259.02 531.62 259.44 532.2 260.28 532.61C262.71 533.8 265.28 533.83 267.86 533.45C272.8 532.73 277.75 532 282.75 532.35C287.03 532.65 291.29 533 295.58 533.09C299.89 533.18 304.13 532.64 308.39 532.14C310.08 531.94 311.78 531.86 313.47 531.57C315.57 531.21 317.55 530.59 319.38 529.52C319.9 529.21 320.32 529.21 320.83 529.52C324.04 531.41 327.57 532.09 331.25 532.26C332.65 532.32 334.05 532.38 335.44 532.5C338.8 532.77 341.71 531.74 344.33 529.66C348.11 526.66 350.94 523.01 352.13 518.29C353.14 514.29 352.54 510.29 351.71 506.33C351.5 505.3 351.27 504.28 351.04 503.25C350.68 501.63 349.86 500.35 348.33 499.58C347.3 499.06 346.73 499.26 346.3 500.35C346.04 501.01 345.97 501.72 346.03 502.42C346.26 505.26 345.79 508.04 344.87 510.69C343.7 514.05 341.22 516.42 338.26 518.24C334.68 520.44 330.69 520.4 326.68 520.11C326.1 520.07 325.8 519.8 326.18 519.27C328.3 516.31 328.08 512.99 327.66 509.66C326.98 504.27 325.95 498.95 324.1 493.82C322.49 489.35 320.03 485.3 317.72 481.19C312.96 472.73 306.95 465.17 301.01 457.53C296.69 451.97 292.34 446.43 288.07 440.83C286.98 439.4 286.04 437.87 285.68 436.06C285.59 435.61 285.5 435.14 284.92 435.17C284.41 435.2 284.17 435.6 284.09 436.05C283.87 437.29 284.09 438.48 284.58 439.64C286.04 443.12 288.48 445.93 290.75 448.88C294.99 454.39 298.91 460.14 303.18 465.63C307.66 471.4 311.2 477.71 314.72 484.07C316.31 486.95 317.73 489.9 319.25 492.8C321.72 497.53 322.79 502.66 323.7 507.84C323.86 508.74 324.03 509.65 324.21 510.54C324.76 513.22 324.35 515.81 323.66 518.43C323.01 520.86 323.25 521.28 325.57 522.26C331.01 524.56 338.1 523.49 342.72 519.19C345.86 516.27 347.81 512.67 348.54 508.43C348.58 508.17 348.65 507.92 348.72 507.66C348.74 507.58 348.8 507.51 349.05 507.07L349.03 507.11ZM297.63 421.11C297.75 422.26 297.55 423.16 297.36 424.06C296.62 427.55 292.1 429.66 288.99 427.97C288.07 427.47 287.17 426.91 286.24 426.44C285.51 426.07 285.23 425.68 285.52 424.8C287.11 419.9 286.7 414.87 286.49 409.84C286.4 407.63 285.73 405.54 285.13 403.44C284.91 402.69 285.27 402.33 285.81 401.93C286.45 401.46 286.79 401.94 287.15 402.28C287.73 402.82 288.16 403.47 288.52 404.18C290.43 407.97 292.44 411.69 295.04 415.08C296.43 416.9 297.99 418.73 297.63 421.1V421.11Z" fill="white"/>
<path d="M255.19 391.36C255.37 390.04 254.49 389.27 253.26 388.78C252.12 388.32 251.33 388.9 250.66 389.74C250.58 389.84 250.48 389.93 250.39 390.03C249.1 391.44 248.79 392.61 249.43 393.66C250.01 394.6 251.93 395.16 253.23 394.77C254.46 394.4 255.19 393.19 255.19 391.36Z" fill="white"/>
<path d="M266.7 61.52C266.74 59.03 265.56 57.41 263.27 56.59C261.24 55.85 259.17 55.2 257.14 54.46C225.1 42.68 192.12 34.72 158.32 30.04C146.23 28.37 134.08 27.08 122.07 24.75C110.65 22.54 99.27 20.13 87.73 18.54C76.46 16.98 65.03 16.11 54.05 13.06C37.71 8.50999 21.31 4.22999 4.82001 0.289987C1.21001 -0.570013 -0.189986 0.459987 0.0200138 3.91999C0.770014 16.2 1.72001 28.48 2.17001 40.77C2.66001 54.14 3.26001 67.53 2.87001 80.91C2.66001 88.18 4.11001 95.32 4.34001 102.55C4.58001 109.86 5.00001 117.17 5.43001 124.48C6.16001 136.93 7.08001 149.37 7.70001 161.82C8.28001 173.45 8.53001 185.09 9.18001 196.72C10.14 214.07 11.03 231.43 11.67 248.8C12.18 262.51 12.67 276.22 13.68 289.91C14.8 305.17 15.85 320.43 16.65 335.71C17.51 351.99 18.04 368.28 18.7 384.57C19.21 397.12 19.78 409.67 20.16 422.22C20.7 439.76 21.44 457.3 22.16 474.83C22.65 486.71 23.11 498.6 23.65 510.48C24.44 527.84 24.96 545.22 25.74 562.59C26.22 573.22 26.94 583.84 27.66 594.46C28 599.47 27.66 600.23 23 602.09C22.15 602.43 21.3 602.77 20.45 603.11C17.51 604.26 14.57 605.44 11.62 606.56C10.01 607.17 10.07 608.51 10.43 609.67C10.93 611.26 12.11 610.21 12.89 609.89C16.82 608.31 20.73 606.64 24.63 604.98C27.51 603.75 27.52 603.74 28.19 606.77C28.67 608.93 29.49 609.36 31.27 608.06C33.46 606.47 35.87 605.43 38.34 604.4C44.51 601.83 50.17 598.33 55.73 594.65C56.98 593.82 57.96 592.81 57.82 591.21C57.61 588.82 58.87 587.64 60.85 586.63C71.32 581.32 81.48 575.48 91.33 569.08C116.29 552.84 141.06 536.28 167.31 522.12C168.54 521.46 169.93 520.47 169.02 519.07C168.15 517.74 166.93 519.2 166.02 519.7C144.48 531.67 123.59 544.72 102.87 558.03C88.94 566.97 75.34 576.45 60.16 583.28C57.68 584.4 57.05 584.2 56.95 581.74C56.44 569.11 56.09 556.47 55.43 543.85C54.95 534.63 55.12 525.39 54.57 516.17C53.63 500.4 53.54 484.59 52.54 468.81C51.84 457.78 51.81 446.71 51.11 435.66C50.16 420.72 49.87 405.75 49.08 390.8C48.41 378.26 48.38 365.69 47.94 353.13C47.34 335.84 46.64 318.56 45.97 301.27C45.6 291.79 45.39 282.31 44.78 272.85C44.03 261.15 43.29 249.44 43.06 237.72C42.79 223.75 42.81 209.77 42.04 195.8C41.13 179.28 40.01 162.75 39.61 146.22C39.14 126.67 38.46 107.14 37.43 87.62C37.1 81.39 36.81 75.16 36.57 68.93C36.33 62.86 36.17 56.79 35.99 50.72C35.94 49.08 36.46 47.88 38.43 48.15C48.31 49.48 58.23 50.54 68.05 52.22C79.11 54.11 90.11 56.28 101.29 57.37C114.44 58.65 127.54 60.38 140.62 62.18C150.91 63.6 161.14 65.42 171.42 66.82C187.16 68.96 202.82 71.47 218.34 74.88C223.95 76.11 224.78 77.08 224.45 82.9C223.88 93.05 224.18 103.21 223.85 113.35C223.41 126.98 222.55 140.59 221.97 154.22C221.66 161.53 221.58 168.86 221.37 176.18C220.99 189.15 220.34 202.1 219.62 215.05C218.95 226.91 219.22 238.83 218.53 250.72C217.89 261.59 217.21 272.48 217.15 283.37C217.05 303.6 215.87 323.78 215.08 343.97C214.87 349.29 215.11 354.63 214.83 359.95C213.96 376.56 213.09 393.17 211.92 409.75C211.2 419.88 210.99 430.02 210.61 440.15C209.97 457.11 209.89 474.08 209.08 491.04C208.95 493.7 208.18 495.35 205.92 496.67C194.78 503.16 183.68 509.74 172.59 516.31C171.52 516.95 169.58 517.62 170.5 519.1C171.33 520.44 172.71 518.88 173.7 518.35C184.87 512.4 195.76 505.97 206.55 499.38C207.22 498.97 208.08 498.11 208.77 498.91C210.38 500.79 212.01 499.93 213.44 498.99C220.64 494.22 228.64 491.13 236.51 487.75C237.6 487.28 238.8 486.79 239.09 485.57C239.59 483.47 240.61 481.95 242.69 481.17C243.32 480.93 243.74 480.3 243.5 479.53C243.26 478.74 242.64 478.9 242.07 479.07C240.55 479.53 240.06 478.74 240.12 477.41C240.27 474.25 240.12 471.1 240.46 467.94C241.35 459.76 242.33 451.59 242.74 443.36C243.14 435.51 243.46 427.64 244.23 419.81C243.26 419.33 242.34 418.77 241.44 418.16C240.89 426.01 240.46 433.86 239.88 441.71C239.18 451.24 238.33 460.77 237.59 470.3C237.3 474.03 237.14 477.77 236.89 481.5C236.83 482.43 237.13 483.52 235.95 484.23C236.22 476.59 236.5 469.06 236.75 461.53C236.78 460.78 237.3 459.63 236.03 459.53C234.89 459.44 234.57 460.55 234.51 461.47C234.26 465.29 234.08 469.11 233.9 472.93C233.73 476.58 233.57 480.24 233.46 483.9C233.41 485.43 232.69 486.33 231.32 486.94C227.45 488.66 223.59 490.43 219.75 492.23C218.02 493.04 217.21 492.54 217.25 490.66C217.5 480.68 217.69 470.71 218.03 460.73C218.32 452.34 218.86 443.95 219.18 435.56C219.71 421.68 220.47 407.82 221.59 393.98C222.65 380.79 222.85 367.57 223.28 354.36C223.75 340.07 224.74 325.8 225.24 311.5C225.82 295.13 226.87 278.78 227.49 262.41C227.82 253.76 227.47 245.09 227.78 236.44C228.18 224.98 229.01 213.53 229.5 202.07C229.92 192.1 230.02 182.11 230.31 172.13C230.78 156.34 231.19 140.53 231.84 124.75C232.53 108.13 233.75 91.54 233.7 74.89C233.7 72.78 234.48 71.52 236.41 70.63C241.93 68.09 247.49 65.66 253.35 63.99C256.13 63.2 256.58 63.46 256.38 66.25C255.27 81.93 256.55 97.7 254.51 113.35C253.91 117.95 253.9 122.63 253.82 127.3C253.69 135.53 253.2 143.75 252.96 151.98C252.92 153.5 252.29 155.98 254.67 155.92C256.86 155.87 256.03 153.46 256.1 152.04C256.98 134.68 257.81 117.33 258.62 99.97C259.17 88.09 259.65 76.21 260.17 64.33C260.2 63.75 260.24 63.15 260.43 62.62C260.8 61.63 261.42 60.8 262.64 61.04C263.76 61.26 263.97 62.19 263.95 63.16C263.91 65.49 263.87 67.82 263.78 70.15C263.27 82.61 261.51 94.97 261.23 107.47C260.89 122.68 259.26 137.82 258.03 152.99C257.29 162.1 256.86 171.24 256.31 180.37C255.5 193.98 254.58 207.59 253.94 221.2C253.06 239.89 252.44 258.57 250.56 277.21C249.39 288.78 249.1 300.44 248.35 312.06C247.63 323.26 246.79 334.45 246.06 345.65C245.62 352.45 245.3 359.27 244.91 366.07C244.69 369.99 244.46 373.91 244.24 377.83C245.17 378.12 246.07 378.52 246.92 379.02C247.16 374.25 247.41 369.48 247.7 364.71C248.23 356.16 248.57 347.6 249.31 339.07C250.52 325.07 251.28 311.04 252.18 297.02C252.7 288.97 253.14 280.92 253.81 272.88C254.77 261.45 255.95 250.03 256.18 238.55C256.3 232.81 256.29 227.05 256.78 221.34C257.97 207.41 258.47 193.45 259.19 179.5C259.6 171.45 260.17 163.4 260.79 155.36C261.78 142.51 263.3 129.71 263.7 116.81C263.9 110.5 264.34 104.19 264.8 97.88C265.5 88.26 266.67 78.68 266.67 69.01C266.67 66.51 266.64 64.01 266.67 61.52H266.7ZM31.5 603.26C31.25 603.26 31 603.26 30.75 603.26C30.51 599.83 30.23 596.39 30.05 592.96C29.21 577.27 28.35 561.57 27.6 545.88C27.27 539.07 27.24 532.24 26.97 525.42C26.33 509.13 25.67 492.85 24.63 476.58C24.16 469.19 24.13 461.78 23.91 454.38C23.41 437.75 22.95 421.12 22.39 404.49C21.98 392.44 21.54 380.39 20.93 368.34C20.07 351.23 19.01 334.14 18.1 317.03C17.5 305.74 17.07 294.43 16.48 283.14C15.73 268.69 14.87 254.25 14.11 239.8C13.7 231.99 13.43 224.18 13.03 216.37C12.25 201.09 11.29 185.82 10.67 170.53C10.34 162.39 9.97001 154.24 9.55001 146.1C8.70001 129.49 7.90001 112.88 7.10001 96.27C6.69001 87.71 6.40001 79.15 5.90001 70.6C5.26001 59.72 5.83001 48.8 5.01001 37.92C4.37001 29.38 3.97001 20.82 3.47001 12.27C3.43001 11.64 3.47001 11 3.47001 9.86999C5.11001 12.72 4.84001 15.46 5.08001 18.03C5.78001 25.48 6.34001 32.95 6.72001 40.42C7.62001 57.86 8.38001 75.31 9.19001 92.75C9.72001 104.13 10.25 115.51 10.79 126.89C11.63 144.5 12.08 162.14 13.44 179.71C14.62 194.98 15.09 210.26 15.89 225.53C16.82 243.22 17.57 260.92 18.39 278.61C18.96 290.82 19.91 303.01 20.36 315.23C20.9 329.69 21.67 344.14 22.32 358.6C23 373.72 23.7 388.84 24.32 403.96C24.87 417.26 25.34 430.56 25.83 443.85C26.34 457.56 26.82 471.28 27.33 484.99C27.81 498.04 28.25 511.09 28.83 524.13C29.59 541.16 30.47 558.19 30.85 575.24C31.03 583.39 31.49 591.53 31.79 599.67C31.83 600.87 31.99 602.11 31.48 603.24L31.5 603.26ZM51 513.92C51 510.68 51 507.44 51 504.2C51.03 504.16 51.06 504.13 51.09 504.09L54.71 591.7C54.42 591.72 54.14 591.74 53.85 591.76C52.62 589.28 52.85 586.49 52.62 583.86C51.9 575.58 51.43 567.29 50.98 558.99C50.33 546.79 49.39 534.6 49.42 522.37C49.42 520.44 49.47 518.55 50.53 516.83C51.08 515.93 50.99 514.91 50.99 513.91L51 513.92ZM42.17 281.05C43.11 301.07 43.8 321.09 44.42 341.12C44.98 359.4 46.03 377.66 46.42 395.95C46.81 414.56 47.98 433.15 48.83 451.75C49.33 462.88 49.86 474 50.38 485.13C47.58 475.68 47.69 465.95 47.32 456.23C46.73 440.37 45.7 424.52 45.09 408.66C44.65 397.28 44.6 385.88 44.36 374.48C44.03 358.85 43.77 343.22 43.33 327.59C42.95 314.29 42.37 301.01 41.87 287.71C41.51 277.91 41.15 268.12 41.04 258.31C41.42 265.89 41.81 273.47 42.17 281.05ZM48.23 514.61C46.9 511.83 46 491.76 47.06 488.12C48.87 496.68 48.02 505.35 48.23 514.61ZM41.91 379.72C42.08 392.28 42.21 404.87 43.01 417.38C44.13 434.81 44.23 452.28 45.6 469.7C45.9 473.51 45.72 477.36 45.72 481.19C45.72 481.76 45.73 482.5 45.41 482.87C43.11 485.5 43.62 488.65 43.77 491.68C44.19 500.32 44.71 508.95 45.2 517.58C45.22 517.99 45.17 518.55 45.41 518.79C47.9 521.33 47.12 524.52 47.25 527.55C48.01 545.58 48.37 563.62 50.14 581.6C50.47 584.99 50.75 588.38 51.11 591.77C51.26 593.15 50.64 594.04 49.54 594.62C45.35 596.84 41.16 599.06 36.93 601.2C34.7 602.33 34.57 600.67 34.53 599.16C34.33 591.76 34.22 584.35 33.96 576.95C33.3 557.83 32.65 538.71 31.85 519.6C31.48 510.79 31.13 501.98 30.88 493.17C30.46 478.29 29.92 463.41 29.39 448.53C28.93 435.81 28.41 423.1 27.92 410.39C27.42 397.43 26.96 384.46 26.41 371.5C25.79 356.79 25.11 342.09 24.43 327.39C23.79 313.43 23.14 299.48 22.44 285.53C21.64 269.75 20.73 253.98 19.95 238.2C19.4 227.15 19.09 216.1 18.47 205.05C17.83 193.68 16.91 182.32 16.19 170.96C15.89 166.15 15.7 161.32 15.6 156.5C15.28 139.78 14.11 123.11 13.16 106.42C12.59 96.46 12.42 86.47 12.02 76.5C11.34 59.47 10.89 42.42 9.14001 25.45C8.84001 22.56 8.73001 19.64 8.55001 16.74C8.52001 16.18 8.39001 15.46 9.07001 15.22C9.74001 14.99 10.1 15.61 10.44 16.07C15.64 23.1 20.84 30.12 26.01 37.16C26.76 38.18 27.15 39.37 27.22 40.65C27.55 47.46 27.9 54.27 28.21 61.08C28.76 73.38 29.28 85.67 29.78 97.17C29.78 99.64 29.8 101.3 29.77 102.97C29.76 103.63 29.87 104.57 29.5 104.9C26.01 108 27.91 111.93 27.98 115.43C28.12 122.24 28.83 129.03 29.21 135.84C29.33 138.06 29.49 140.16 31.43 141.66C32.06 142.15 32.18 142.9 32.22 143.68C32.55 149.99 32.91 156.3 33.22 162.61C34.04 179.39 34.94 196.16 35.62 212.94C36.02 222.75 36.49 232.55 37.25 242.33C38.52 258.68 38.74 275.06 39.36 291.43C39.81 303.31 40.2 315.2 40.79 327.08C41.65 344.62 41.68 362.18 41.92 379.73L41.91 379.72ZM32.19 86.43C31.19 72.77 30.52 59.08 30.45 45.37C30.45 44.8 30.45 44.23 30.45 43.35C32.34 44.38 32.66 45.95 32.76 47.55C32.96 50.95 33.16 54.35 33.17 57.75C33.23 74.04 34.34 90.28 35.15 106.53C35.21 107.69 35.15 108.86 35.15 109.56C30.79 102.6 32.76 94.3 32.18 86.43H32.19ZM32.53 137.1C32.35 135.22 32.08 133.62 32.06 132.01C31.98 125.46 31.76 118.92 30.64 112.44C30.54 111.85 30.2 110.86 31.09 110.78C32 110.69 32.15 111.68 32.18 112.43C32.33 116.65 32.28 120.88 32.67 125.1C32.96 128.23 33.07 131.38 33.18 134.53C33.21 135.28 33.49 136.16 32.52 137.11L32.53 137.1ZM36.59 138.46C37.62 173.05 40.28 207.63 40.17 242.92C39.1 226.05 37.99 209.81 37.08 193.56C36.54 183.94 36.33 174.3 35.95 164.67C35.68 157.95 35.5 151.22 34.99 144.51C34.81 142.14 36.79 140.62 36.58 138.47L36.59 138.46ZM222.12 72.25C217.49 71.32 212.61 70.31 207.72 69.36C185.95 65.09 163.98 62.14 142.03 58.95C122.63 56.13 103 55.08 83.72 51.52C68.36 48.68 52.84 46.86 37.56 43.62C35.98 43.28 34.5 42.82 33.41 41.56C32.99 41.07 32.36 40.56 32.79 39.83C33.16 39.21 33.81 39.5 34.38 39.59C45.02 41.43 55.63 43.43 66.3 45.05C75 46.37 83.75 47.36 92.5 48.28C103.08 49.38 113.54 51.27 124.04 52.94C137.24 55.04 150.53 56.54 163.77 58.4C184.34 61.29 204.84 64.58 225.14 69.02C226.13 69.24 227.85 69.22 227.88 70.26C227.91 71.53 226.17 71.52 225.12 71.85C224.27 72.12 223.32 72.11 222.13 72.26L222.12 72.25ZM230.35 88.57C230.95 90.79 230.24 93.19 229.99 95.51C229.18 103.04 229.19 110.62 228.96 118.18C228.55 131.4 228.26 144.63 227.9 157.85C227.58 169.74 227.34 181.64 226.87 193.52C226.17 211.47 225.26 229.41 224.55 247.36C224.07 259.58 223.93 271.81 223.37 284.03C222.66 299.82 222.47 315.64 221.72 331.41C220.96 347.36 220.87 363.34 219.84 379.27C218.67 397.27 217.16 415.26 216.52 433.29C215.89 451.08 214.79 468.85 214.91 486.67C214.92 488.91 214.62 491.15 214.45 493.39C214.42 493.8 214.4 494.25 214.22 494.6C213.81 495.41 213.34 496.47 212.29 496.22C211.35 496 212.03 494.89 211.8 494.47C212.81 480.69 212.46 467.11 212.83 453.56C213.26 438.1 213.96 422.64 214.81 407.2C215.74 390.27 217.16 373.36 218.02 356.42C218.58 345.29 218.18 334.11 218.81 322.98C219.74 306.52 220.13 290.07 220.35 273.6C220.59 255.06 222.69 236.61 222.94 218.03C223.18 199.99 224.4 181.96 224.33 163.9C224.31 159.36 225.2 154.81 225.44 150.24C225.55 148.14 225.28 146.1 225.26 144.03C225.17 135.87 226.1 127.76 226.48 119.62C226.55 118.12 226.64 116.63 226.66 115.13C226.85 103.31 227.02 91.5 227.23 79.68C227.26 78.28 227.47 76.86 227.75 75.48C227.97 74.38 228.76 73.68 229.94 73.99C231.05 74.28 230.64 75.23 230.68 76.05C230.88 80.22 229.18 84.3 230.33 88.57H230.35ZM254.5 57.72C239.58 52.49 224.41 48.07 209.02 44.45C191.94 40.44 174.78 36.65 157.39 34.45C140.72 32.34 124.33 28.64 107.64 26.76C104.92 26.45 102.2 26.06 99.47 25.79C98.33 25.67 96.92 25.47 96.73 27.12C96.54 28.72 97.9 28.98 99.06 29.14C107.29 30.26 115.55 31.23 123.77 32.44C157.81 37.44 191.85 42.41 225.09 51.72C233.49 54.08 241.96 56.19 250.25 58.96C251.17 59.27 252.21 59.37 253.34 60.52C246.62 62.48 240.58 65.26 234.39 67.65C233.32 68.06 232.22 67.82 231.2 67.48C218.59 63.25 205.41 61.78 192.38 59.66C176.39 57.06 160.4 54.35 144.32 52.4C128.21 50.44 112.38 46.89 96.32 44.82C85.69 43.45 74.94 42.88 64.4 41.02C53.36 39.06 42.28 37.35 31.22 35.5C28.61 35.06 26.77 33.28 25.24 31.26C20.62 25.17 16.41 18.78 11.53 12.89C12.12 12.16 12.67 12.59 13.16 12.76C27.58 17.63 42.55 19.75 57.53 21.97C68.38 23.57 79.13 25.76 89.93 27.68C90.99 27.87 92.06 28.04 93.13 28.17C94.08 28.28 95.08 28.24 95.28 27.05C95.47 25.93 94.71 25.36 93.73 25.15C90.81 24.52 87.89 23.84 84.94 23.33C71.92 21.07 59.05 17.95 45.9 16.47C33.76 15.1 22.12 11.71 10.51 8.14999C7.21001 7.13999 6.21001 6.46999 4.92001 4.28999C5.89001 3.85999 6.69001 4.45999 7.48001 4.69999C30.54 11.9 54.11 16.9 77.9 20.93C108.38 26.09 139.09 29.72 169.56 34.98C199.18 40.09 228.42 46.73 256.65 57.32C257.38 57.59 258.27 57.61 258.85 58.53C257.18 59 255.84 58.24 254.48 57.77L254.5 57.72Z" fill="white"/>
<path d="M213.26 264.02C211.81 274.55 212.42 286.65 211.35 298.66C211.03 302.22 211.36 305.82 210.75 309.37C210.12 313.06 207.91 315.62 204.55 316.93C200.09 318.67 196.29 315.83 196.53 310.81C196.94 302.49 196.98 294.18 197.03 285.85C197.06 281.52 196.94 281.41 192.73 282.07C188.46 282.74 184.19 283.38 179.92 284.02C178.27 284.27 176.62 284.22 175.85 282.46C175.05 280.61 175.43 278.82 176.98 277.46C178.32 276.28 179.94 275.61 181.72 275.4C186.01 274.9 190.29 274.3 194.6 273.99C196.99 273.82 198.03 272.94 198.05 270.5C198.09 266.09 198.34 261.69 198.49 257.28C198.61 253.56 200.2 250.73 203.54 248.99C207.22 247.07 210.57 248.29 211.98 252.19C213.19 255.52 213.22 259.04 213.25 264L213.26 264.02ZM208.88 280.87C205.75 282.53 205.74 282.56 202.72 280.9C201.23 280.08 200.57 280.38 200.54 282.12C200.46 286.28 200.35 290.43 200.21 294.59C200.04 299.58 199.57 304.56 199.76 309.55C199.82 311.21 200.25 312.79 202.06 313.3C203.95 313.83 205.5 313.08 206.62 311.5C207.61 310.1 207.95 308.5 208 306.79C208.17 301.3 208.3 295.81 208.64 290.33C208.83 287.19 209.08 284.08 208.89 280.87H208.88ZM200.86 272.73C202.33 271.64 203.26 270.06 205.09 269.63C207.03 269.18 208.27 270.53 209.85 271.54C209.07 268.1 209.96 264.84 209.96 261.55C209.96 259.54 209.76 257.57 209.42 255.61C209.09 253.72 208.35 251.97 206.11 251.83C203.88 251.69 202.63 253.16 201.9 255.07C201.58 255.91 201.37 256.85 201.35 257.75C201.26 262.71 201.1 267.67 200.85 272.74L200.86 272.73ZM201.47 276.12C194.5 277.15 187.53 278.17 180.56 279.2C179.92 279.29 179.01 279.25 179.1 280.16C179.2 281.07 180.05 280.84 180.71 280.75C187.72 279.83 194.63 278.47 201.47 276.13V276.12Z" fill="white"/>
<path d="M237.44 415.07C237.22 418.14 237.01 421.21 236.81 424.28C236.17 434.32 235.58 444.36 235.01 454.41C234.96 455.26 234.72 456.51 235.96 456.65C237.24 456.79 237.25 455.54 237.32 454.67C237.64 450.2 237.88 445.71 238.17 441.24C238.69 433.16 239.02 425.05 239.8 416.99C238.99 416.37 238.21 415.73 237.44 415.07Z" fill="white"/>
<path d="M240.47 377.4C241.19 377.33 241.89 377.36 242.58 377.45C242.8 373.66 243.02 369.87 243.27 366.09C243.63 360.43 243.34 354.76 243.82 349.13C245.41 330.81 246 312.43 246.55 294.07C246.91 282.15 248.68 270.39 249.4 258.52C249.98 248.9 250.94 239.3 251.65 229.69C252.25 221.56 252.49 213.41 253.31 205.3C254.7 191.55 255.02 177.75 255.61 163.97C255.61 162.47 255.62 160.97 255.61 159.47C255.6 158.51 255.44 157.48 254.31 157.35C252.95 157.2 252.82 158.4 252.61 159.37C252.52 159.77 252.5 160.2 252.48 160.61C252.12 169.75 251.81 178.9 251.38 188.04C251.11 193.77 250.94 199.53 250.26 205.21C248.62 218.85 248.5 232.59 247.4 246.26C246.76 254.13 246.26 262.01 245.56 269.88C244.58 280.81 243.07 291.7 243.37 302.72C243.42 304.72 243.44 306.72 243.34 308.71C242.71 321.42 242.16 334.13 241.35 346.82C240.98 352.56 241.14 358.3 240.81 364.03C240.55 368.5 240.27 372.96 239.98 377.43C240.14 377.4 240.3 377.38 240.47 377.38V377.4Z" fill="white"/>
</g>
<defs>
<clipPath id="clip0_353_989">
<rect width="352.64" height="610.52" fill="white"/>
</clipPath>
</defs>
</svg>
