<svg width="223" height="162" viewBox="0 0 223 162" fill="none" xmlns="http://www.w3.org/2000/svg">
<path d="M50.4097 129.785C43.3187 133.635 39.7408 141.582 41.3742 149.191C41.9446 151.875 43.7206 152.432 45.8725 153.067C48.3485 153.793 50.2153 155.427 49.6319 158.266C49.0486 161.066 46.4948 160.755 44.3688 160.833C42.6446 160.897 40.8945 160.716 39.1834 160.91C33.7387 161.558 31.2886 159.16 30.8738 153.742C29.9145 141.245 28.6052 128.891 34.7369 117.003C38.1463 110.379 38.4185 102.912 37.4981 95.4448C36.3962 86.5778 36.4222 77.7238 39.9093 69.2976C41.102 66.4197 40.3242 64.6696 37.7185 63.6196C35.3332 62.6603 32.8702 61.6102 30.3553 61.3121C18.4029 59.8861 10.4693 51.4598 1.42081 44.9911C0.357805 44.2262 -0.316309 42.9558 0.150375 41.5687C0.720767 39.8835 2.22456 39.5075 3.79314 39.4168C4.42835 39.3779 5.16727 39.3649 5.69877 39.6372C19.6734 46.78 35.7869 47.0263 49.9949 53.3525C51.6413 54.0784 53.1321 54.8822 54.8951 54.1822C71.7476 47.5319 89.3649 49.2301 106.788 49.8394C118.662 50.2542 129.655 47.6486 139.624 41.6724C148.063 36.6167 154.053 29.5257 152.458 18.5067C152.264 17.1326 152.769 15.4862 153.391 14.164C160.392 -0.899577 187.174 -5.16455 197.947 7.33222C201.33 11.2602 204.934 13.5547 209.938 13.9436C210.158 13.9566 210.379 13.9825 210.573 14.0603C215.175 15.8362 221.631 15.4733 222.111 22.4087C222.539 28.7349 216.238 36.15 209.653 37.1871C205.66 37.8223 201.382 37.9519 197.415 37.2648C191.893 36.3056 189.197 38.4964 186.876 43.228C182.144 52.834 180.913 63.5807 176.778 73.2514C169.025 91.4262 164.566 110.405 160.91 129.668C160.016 134.4 159.782 139.119 160.275 143.837C160.729 148.245 161.675 152.406 167.431 153.042C169.946 153.314 171.877 155.168 171.488 158.007C171.087 160.846 168.598 160.807 166.42 160.82C158.214 160.858 150.008 160.755 141.815 160.91C138.471 160.975 136.915 159.42 135.567 156.516C129.616 143.63 129.266 129.681 127.892 116.005C127.348 110.521 125.805 108.551 120.205 108.538C112.245 108.512 104.208 108.162 96.5078 105.582C90.5965 103.599 85.0611 106.827 79.2664 106.892C76.8941 106.918 76.8293 109.64 76.3496 111.429C74.9236 116.666 72.9013 121.644 70.3735 126.44C65.1362 136.422 70.529 149.101 81.4831 152.562C83.1165 153.08 85.0092 153.003 86.2018 154.416C88.4834 157.138 88.7038 160.223 84.6333 160.534C78.4756 161.014 72.3698 162.297 66.9641 156.075C57.5656 145.225 53.8451 140.687 50.3708 129.785H50.4097Z" fill="#FCF7EF"/>
</svg>
