<svg width="372" height="275" viewBox="0 0 372 275" fill="none" xmlns="http://www.w3.org/2000/svg">
<path d="M56.4478 133.786C55.5663 133.553 55.2422 133.384 55.1644 133.462C42.3695 145.984 25.4781 147.177 9.20895 150.094C5.82549 150.703 2.63648 150.937 0.704926 147.41C-1.08403 144.118 0.860478 141.629 2.88278 139.295C5.59214 136.145 8.72926 133.527 12.6442 131.997C29.1078 125.593 43.7825 116.181 57.5367 105.227C61.1276 102.375 65.1722 100.444 69.3983 98.6938C100.861 85.7173 133.71 82.9043 167.195 85.8081C190.84 87.8563 212.619 82.6839 233.088 71.0297C245.481 63.9776 250.42 51.6883 255.385 39.4378C255.735 38.5822 255.489 37.221 255.035 36.3655C250.433 27.7059 255.463 21.8593 261.128 16.5703C265.523 12.4608 270.488 8.94774 275.31 5.305C280.716 1.23448 286.964 -0.230393 293.627 0.0288766C303.894 0.41778 313.695 2.7512 322.951 7.31434C326.127 8.88292 329.056 10.8015 330.755 13.8998C334.734 21.1464 341.307 24.0502 348.968 24.3743C355.281 24.6465 360.609 27.4596 366.145 29.7152C370.332 31.4264 372.73 34.8747 370.799 39.6452C367.558 47.6307 364.278 55.5773 357.019 61.1127C352.676 64.4313 347.905 64.7165 342.901 64.4184C336.018 64.0035 329.186 62.9146 322.225 63.6406C316.936 64.198 313.734 66.6351 311.633 71.639C306.37 84.1488 304.893 97.4622 302.429 110.607C297.231 138.388 287.91 165.248 283.451 193.223C281.545 205.15 278.784 216.933 276.697 228.834C275.18 237.481 276.036 246.011 278.59 254.45C280.003 259.091 282.194 262.176 287.599 261.826C290.049 261.67 292.266 262.669 293.912 264.587C295.585 266.532 296.155 268.787 295.274 271.224C294.444 273.493 292.292 273.791 290.399 273.545C282.543 272.495 274.13 276.475 266.806 270.965C266.158 270.486 265.795 270.576 265.224 270.991C257.433 276.721 248.592 272.43 240.309 273.467C237.483 273.817 236.575 271.328 235.59 268.995C225.841 245.907 224.234 221.263 221.836 196.814C221.33 191.59 219.943 189.723 214.654 189.723C197.957 189.723 181.519 187.221 165.263 183.514C158.237 181.919 151.703 181.803 146.103 187.688C142.655 191.305 137.91 189.762 133.801 188.725C129.497 187.649 126.736 188.401 123.987 192.29C115.289 204.579 104.063 214.354 91.8251 223.039C83.0099 229.288 77.5653 248.72 81.571 258.715C82.7247 261.593 84.9544 261.631 87.3527 261.761C90.5417 261.917 93.2899 262.98 94.9752 265.871C97.2697 269.811 95.5975 273.35 91.0473 273.558C85.0063 273.83 78.9524 273.532 72.9114 273.687C68.5298 273.804 66.8704 271.561 66.2352 267.53C64.3166 255.344 63.0851 243.133 63.837 230.765C63.9537 228.73 65.1981 226.034 63.1239 224.737C61.2702 223.584 59.8183 226.15 58.0941 226.863C44.9881 232.347 41.7602 244.26 38.8952 256.407C38.0785 259.855 38.999 261.787 42.9269 261.826C45.8826 261.852 48.3975 263.148 49.9661 265.767C52.2995 269.695 50.6402 273.337 46.1418 273.532C39.8934 273.804 33.6191 273.558 27.3578 273.61C23.1965 273.649 21.3687 271.393 21.5761 267.543C22.6391 246.607 25.4522 226.513 40.7101 209.946C51.5995 198.123 54.1921 182.567 54.3866 166.998C54.5292 155.837 53.894 144.675 56.4478 133.773V133.786ZM251.872 199.601C249.15 211.761 246.025 223.83 245.377 236.327C245.014 243.301 246.298 250.081 248.709 256.641C249.668 259.272 251.159 261.398 254.076 261.567C257.265 261.748 260.324 262.409 264.304 263.861C256.059 242.536 255.943 220.771 251.872 199.601Z" fill="#FCF7EF"/>
</svg>
