<svg width="275" height="209" viewBox="0 0 275 209" fill="none" xmlns="http://www.w3.org/2000/svg">
<path d="M53.9798 175.477C46.2925 179.755 43.4924 186.276 41.9108 193.587C41.2886 196.426 42.3516 197.943 45.3332 198.604C48.4963 199.317 51.1278 201.339 50.6482 204.904C50.0648 209.221 46.2147 208.21 43.3757 208.262C32.4 208.486 27.5041 203.081 28.6881 192.044C29.5437 184.266 31.8512 176.812 34.4957 169.501C38.67 157.95 39.5515 146.465 35.6365 134.629C34.3013 130.597 34.029 126.203 33.2642 121.977C29.3622 122.897 25.5121 124.155 21.5582 124.66C14.6098 125.568 8.30953 123.558 2.7482 119.28C1.17962 118.075 -0.427816 116.662 0.103686 114.471C0.687042 112.073 2.80008 111.256 5.04276 110.945C6.32614 110.776 7.66137 110.621 8.91882 110.815C18.9655 112.345 25.3046 107.211 30.0752 99.1741C30.6326 98.2407 31.2938 97.3721 31.7345 96.3869C41.0423 75.1398 59.3337 68.0618 80.4642 65.5339C96.4092 63.6283 112.38 64.6913 128.338 65.4172C143.609 66.1172 157.182 60.7244 170.119 53.5297C178.74 48.7332 182.577 40.0607 186 31.3363C186.376 30.3899 186.583 29.0806 186.22 28.2121C182.85 20.0062 188.126 15.5986 193.194 10.5429C206.145 -2.38168 220.573 -2.21316 236.116 4.55377C239.344 5.96679 242.443 7.60018 244.257 10.6855C247.187 15.6505 251.763 17.582 257.104 18.3469C257.96 18.4765 258.815 18.5802 259.671 18.7099C269.381 20.2266 274.631 23.5712 274.903 28.4065C275.253 34.6938 267.669 45.1813 261.149 47.3461C255.237 49.3036 249.171 49.0832 243.207 47.8776C236.207 46.4646 232.189 48.811 229.116 55.5002C221.481 72.1193 217.086 89.7367 212.743 107.276C207.726 127.577 204.395 148.306 200.441 168.866C198.963 176.566 198.691 184.279 200.7 191.979C201.673 195.687 203.397 198.111 207.61 198.448C211.447 198.759 214.506 200.834 213.975 205.06C213.417 209.441 209.412 208.158 206.625 208.197C197.563 208.339 188.476 208.028 179.414 208.313C174.734 208.469 172.595 206.512 170.819 202.35C163.184 184.474 162.678 165.365 160.889 146.517C160.41 141.435 159.308 139.361 153.837 139.387C138.878 139.477 124.177 136.976 109.58 133.864C99.1186 131.635 91.3924 135.446 87.3996 145.324C83.9773 153.789 79.5308 161.684 74.2158 169.047C68.797 176.553 68.0322 184.94 68.473 193.717C68.6156 196.491 69.7304 198.046 72.6731 198.396C76.4455 198.85 79.6604 200.613 79.1419 204.917C78.6234 209.286 74.6695 208.184 71.8564 208.171C54.6539 208.093 57.4151 210.245 54.8483 193.224C53.9928 187.585 54.2261 181.79 53.9409 175.438L53.9798 175.477Z" fill="#FCF7EF"/>
</svg>
