<svg width="119" height="83" viewBox="0 0 119 83" fill="none" xmlns="http://www.w3.org/2000/svg">
<path d="M80.8831 82.0499C66.1566 82.1018 64.6399 81.1165 64.0954 66.3771C63.8361 59.4157 61.5935 57.173 54.6969 57.0953C44.4169 56.9786 40.3852 58.8842 35.6536 68.5031C34.085 71.6921 35.3165 73.3125 38.4278 74.2329C40.8649 74.9589 42.965 76.4497 42.5242 79.2498C42.0186 82.4518 39.1148 81.9851 36.8073 82.0758C34.2146 82.1666 31.6219 82.1018 29.0422 82.1018C17.5307 82.0888 11.8138 76.0997 14.6528 64.9511C16.7788 56.6415 16.1436 48.7597 15.3139 40.6316C15.1454 39.0242 16.001 36.8723 13.9009 36.0815C12.1897 35.4333 10.5823 36.5611 9.10442 37.4556C8.74144 37.676 8.48217 38.0649 8.11919 38.2853C5.88948 39.6594 4.68388 44.8578 1.18374 41.4354C-1.55155 38.7649 1.06707 35.3166 2.88196 32.698C5.57836 28.8349 9.41554 26.2293 14.0176 25.4514C27.7459 23.144 41.2668 19.1382 55.5006 20.9013C63.2269 21.8476 68.9956 18.5419 73.3124 11.6972C82.9054 -3.52189 95.5448 -3.85894 106.175 10.5046C108.43 13.551 111.931 14.1603 114.873 15.8585C119.009 18.2567 120.175 20.8624 117.259 25.2829C113.395 31.1294 108.249 34.1888 101.443 33.048C96.6467 32.2443 95.0262 34.1888 93.6262 38.2464C90.9298 46.0115 88.6223 53.9062 87.0667 61.9306C86.0814 67.0253 84.824 72.9496 92.5243 74.92C94.404 75.3997 95.7911 77.2405 95.2725 79.4831C94.7151 81.8814 92.5891 82.011 90.6057 82.0369C87.3648 82.0888 84.124 82.0499 80.8961 82.0499H80.8831Z" fill="#FCF7EF"/>
</svg>
