<svg width="169" height="121" viewBox="0 0 169 121" fill="none" xmlns="http://www.w3.org/2000/svg">
<path d="M116.542 120.165C115.025 120.165 113.522 120.165 112.005 120.165C99.4302 120.204 98.4839 119.75 95.1912 107.344C93.48 100.914 92.6892 94.2118 91.8466 87.5745C91.4448 84.3985 90.2002 82.9595 87.0112 82.8558C82.0462 82.7003 77.0553 82.6095 72.2847 80.9372C70.068 80.1594 68.642 81.2354 67.242 82.804C62.1732 88.5208 56.1064 93.0581 49.5339 96.8304C44.5559 99.6824 44.1929 104.271 44.0892 109.094C44.0114 112.412 46.7078 112.516 48.9505 113.216C51.1284 113.89 53.1377 115.096 52.5284 117.766C51.984 120.165 49.6765 119.983 47.7449 120.139C35.65 121.124 33.7703 119.231 33.2907 106.022C33.1999 103.636 34.7037 99.9417 31.748 99.1898C28.9609 98.4768 27.0034 101.64 25.4996 104.051C23.1662 107.785 20.5476 111.531 26.9256 114.137C28.1183 114.616 28.5979 116.107 28.3516 117.507C28.0275 119.309 26.6404 119.854 25.0329 120.022C24.3848 120.087 23.7366 120.074 23.0884 120.113C9.8268 120.891 8.15452 118.829 11.6417 105.97C13.3529 99.6435 15.9715 94.0562 21.0272 89.3505C29.8554 81.1446 28.5849 70.0998 27.496 59.5475C27.1201 55.9177 24.1385 58.1475 22.4014 58.8345C14.9992 61.7643 8.41378 60.3901 2.52837 55.2566C1.14128 54.051 -0.893975 52.7547 0.428298 50.4601C1.42648 48.723 3.48768 48.5675 5.06922 49.2545C11.6806 52.1065 17.3845 49.7731 22.7643 46.247C39.4872 35.3188 57.7138 30.9501 77.5738 33.1539C87.2705 34.2299 96.5653 32.5317 105.134 27.787C110.333 24.9091 114.623 21.7072 114.066 14.318C113.573 7.77145 125.902 -0.693679 134.004 0.0452381C140.498 0.641557 146.889 1.84715 151.219 7.65478C153.527 10.753 157.325 10.5067 160.618 11.3623C168.746 13.4624 170.185 16.6125 166.361 23.911C162.381 31.4816 155.484 33.5428 147.745 32.8039C143.143 32.3631 140.848 33.9058 139.669 38.0541C133.861 58.4067 127.781 78.6816 122.337 99.1249C120.185 107.188 122.492 110.338 130.141 113.074C132.293 113.838 134.419 114.863 134.03 117.481C133.602 120.333 130.996 120.087 128.87 120.152C126.718 120.216 124.553 120.165 122.389 120.165C120.444 120.165 118.499 120.165 116.555 120.165H116.542Z" fill="#FCF7EF"/>
</svg>
