<svg width="13" height="113" viewBox="0 0 13 113" fill="none" xmlns="http://www.w3.org/2000/svg">
<path d="M2.20183 5.65247C2.20017 5.68368 2.19898 5.71499 2.19824 5.74639C2.12664 10.8395 3.05795 14.8566 3.04721 21.0825C3.03792 27.3561 2.61922 28.3049 2.84824 35.4844C3.06832 42.6637 2.91597 49.8553 3.13147 53.0495C3.33933 56.2436 2.87546 56.5915 3.0598 61.13C3.23858 65.6683 3.21885 68.4218 3.1571 72.3958C3.08832 76.3702 3.24509 88.572 3.44829 93.0057C3.64109 97.4396 3.52936 102.504 3.55973 105.548C3.56664 106.496 3.56612 107.242 3.56217 107.814C3.56047 108.057 3.54883 108.169 3.53494 108.169C3.53494 108.169 3.53494 108.169 3.53494 108.169C3.53493 108.169 3.53492 108.169 3.53491 108.169C3.53491 108.169 3.53491 108.169 3.53491 108.169C3.51763 108.17 3.49663 107.996 3.48717 107.685C3.44109 106.174 3.36085 103.916 3.21746 101.25C2.94024 96.2783 3.09196 95.7311 2.83224 89.0154C2.56881 82.2998 2.22703 78.2691 2.14952 70.3622C2.0987 62.4549 1.35504 60.6548 1.44502 49.4893C1.57907 38.323 0.751125 37.1663 0.327076 26.051C0.0875807 19.6166 0.0323144 12.2003 0.00143654 5.7948C-0.0738282 2.38914 2.99979 -0.0793318 5.65509 0.00193641C7.8663 -0.0327773 9.62835 1.23572 10.486 2.55385C11.0534 3.39577 11.4105 4.44463 11.4385 5.54279C11.4385 5.54279 11.4385 5.54279 11.4385 5.54279C11.6257 11.8998 11.8608 19.8653 11.9207 28.2209C11.9962 37.7261 12.4835 49.4511 12.4611 59.9456C12.4446 70.4398 12.4856 85.275 12.4971 92.1288C12.5048 98.9825 12.5278 100.653 12.7098 107.246C12.7162 107.481 12.7225 107.721 12.7286 107.967C12.8956 110.175 10.8165 112.764 8.13883 112.719C6.13418 112.774 4.27943 111.335 3.74469 109.591C3.4197 108.51 3.55774 108.059 3.56096 108.19C3.60044 108.309 3.58235 109.024 4.0748 110.011C4.95178 111.738 6.75396 112.501 8.13228 112.422C9.08982 112.389 9.86964 112.038 10.3852 111.646C11.7583 110.545 12.1126 109.266 12.0749 107.981C12.0168 106.77 11.9875 105.422 11.9913 103.492C12.0084 99.2438 11.6285 97.2504 11.5868 94.7748C11.5479 92.2991 11.7682 92.335 11.2399 79.7544C10.6973 67.1738 10.4381 60.2764 10.2554 55.5117C10.0654 50.7472 10.0577 40.7901 9.77211 33.0247C9.51176 26.1369 9.26029 12.9329 9.00221 5.59647C9.00221 5.59647 9.00221 5.59647 9.00221 5.59647C8.97533 4.91997 8.73767 4.35085 8.44492 3.93664C7.56145 2.74463 6.47459 2.53356 5.71028 2.50666C4.88383 2.502 4.25916 2.69284 3.62735 3.10703C3.02709 3.52953 2.30588 4.25147 2.20183 5.65247Z" fill="white"/>
</svg>
