<svg width="150" height="249" viewBox="0 0 150 249" fill="none" xmlns="http://www.w3.org/2000/svg">
<path fill-rule="evenodd" clip-rule="evenodd" d="M49.8214 24.3553C18.0154 57.6513 5.43135 84.7664 1.35019 128.792C-1.50932 159.67 -0.201092 170.432 8.91258 191.101C22.8155 222.635 54.1836 244.621 90.2166 248.091C114.595 250.444 117.039 249.441 133.931 230.139C150.018 211.764 151.542 207.188 149.039 184.887C143.628 136.768 93.3842 112.966 40.3292 133.385C22.0046 140.439 45.724 70.3224 71.3947 41.5483C80.6814 31.1328 92.206 25.2065 107.055 23.2113C119.125 21.5901 128.996 18.6297 128.996 16.6344C128.996 7.22738 114.033 0 94.5573 0C76.1732 0 69.7406 3.50258 49.8214 24.3553ZM109.46 208.299C116.277 190.483 112.541 174.591 99.4547 165.992C81.9949 154.519 68.438 154.926 54.1459 167.358C38.3348 181.114 39.5239 192.321 58.2053 205.664C77.0164 219.094 104.784 220.526 109.46 208.299Z" fill="#FFFEFE"/>
</svg>
