<svg width="12" height="87" viewBox="0 0 12 87" fill="none" xmlns="http://www.w3.org/2000/svg">
<path d="M3.27786 3.31149C2.61622 3.95567 2.32758 4.86222 2.40131 5.70374C2.57225 8.33847 2.97159 10.9193 2.86708 14.3692C2.71958 19.2191 2.28009 19.9454 2.35088 25.4998C2.41275 31.0538 2.10201 36.611 2.24709 39.0841C2.38454 41.557 1.91311 41.818 1.99743 45.3299C2.07619 48.8415 1.9958 50.9699 1.84653 54.0411C1.6902 57.1125 1.57813 66.5483 1.68362 69.9794C1.77868 73.4106 1.55541 77.324 1.51873 79.6775C1.50475 80.4105 1.48778 80.9875 1.47124 81.4298C1.4642 81.6171 1.45008 81.7037 1.43619 81.7037C1.43619 81.7037 1.43619 81.7037 1.43619 81.7037C1.43618 81.7037 1.43617 81.7037 1.43616 81.7037C1.43616 81.7037 1.43616 81.7037 1.43616 81.7037C1.41887 81.7037 1.4017 81.5695 1.39909 81.3287C1.38631 80.1598 1.35583 78.4128 1.27122 76.349C1.10359 72.5008 1.26732 72.0803 1.15562 66.884C1.04019 61.6878 0.787286 58.5658 0.883981 52.4518C1.00737 46.3378 0.303553 44.9335 0.639481 36.303C1.01949 27.6727 0.217227 26.7644 0.0381482 18.164C-0.0384938 14.2297 0.0113551 9.82329 0.0916948 5.70374C0.0857831 2.31017 3.23544 -0.153263 5.93872 0.00737545C8.52963 0.0407612 10.374 1.79897 11.0567 3.32587C11.3941 4.03617 11.5934 4.85507 11.5987 5.70374C11.5987 5.70374 11.5987 5.70374 11.5987 5.70374C11.6457 10.6215 11.7053 16.7836 11.5811 23.2443C11.4472 30.5939 11.6762 39.6668 11.4226 47.7797C11.1748 55.8924 10.8891 67.3621 10.7496 72.661C10.6346 76.908 10.6029 78.5807 10.6139 81.7037C10.6163 82.5031 10.4216 83.4215 9.8409 84.3071C9.11506 85.4504 7.61183 86.4156 5.93872 86.3775C3.84098 86.4076 1.88432 84.7134 1.52307 82.8141C1.35258 81.9598 1.45168 81.6201 1.46171 81.7206C1.494 81.8158 1.48178 82.3558 1.77271 83.1554C2.59315 85.3459 4.72538 86.1277 5.93872 86.0052C6.05402 85.9982 6.16193 85.986 6.2652 85.9694C7.45774 85.7574 8.1785 85.2263 8.78287 84.5921C9.36125 83.9404 9.91699 83.0986 9.98562 81.7037C9.98809 81.6166 9.99074 81.5279 9.99356 81.4375C10.1042 78.1532 9.7683 76.6056 9.78121 74.6911C9.79679 72.7764 10.0163 72.8079 9.76527 63.0729C9.49995 53.3377 9.3927 48.0009 9.31503 44.3143C9.23008 40.6276 9.44168 32.9297 9.32726 26.9214C9.21872 21.5921 9.25818 11.3799 9.16179 5.70374C9.16179 5.70374 9.16179 5.70374 9.16179 5.70374C9.1494 5.18031 9.00952 4.73155 8.82966 4.38333C7.83101 2.72468 6.76559 2.60178 5.93872 2.43282C5.23614 2.36757 4.34936 2.33531 3.27786 3.31149Z" fill="white"/>
</svg>
