<svg width="1025" height="651" viewBox="0 0 1025 651" fill="none" xmlns="http://www.w3.org/2000/svg">
<path d="M257.581 594.803C236.108 606.99 214.001 617.053 188.556 616.675C136.789 616.816 91.4073 580.323 78.9067 528.998C76.556 519.351 81.91 515.994 89.0519 513.412C100.592 509.245 101.893 507.344 96.0093 496.647C83.6789 474.227 70.9655 452.01 57.9257 429.996C52.6095 421.02 46.1487 421.375 40.9223 430.483C28.1994 452.667 15.6704 474.96 3.21705 497.3C-2.58631 507.713 -0.874151 511.463 11.1109 512.82C18.6454 513.676 22.7555 516.769 24.1271 524.241C25.0778 529.4 26.5582 534.522 28.3697 539.45C41.4237 574.984 57.0601 607.931 92.4053 628.28C135.578 653.14 179.522 657.288 225.656 639.79C242.853 633.269 256.98 621.881 268.526 607.604C272.248 602.998 273.795 596.799 269.32 592.018C264.907 587.303 261.166 592.769 257.581 594.803Z" fill="#FD5141"/>
<path d="M839.549 147.815C827.805 135.704 812.362 135.775 797.383 135.581C669.028 133.926 540.636 138.494 412.304 133.036C370.933 131.277 329.676 135.136 288.343 135.557C263.881 135.808 239.4 136.205 214.957 136.579C183.656 137.051 167.494 163.96 167.698 188.631C168.459 280.109 168.573 371.602 167.679 463.076C167.385 493.091 185.723 514.702 217.634 514.906C266.53 515.223 315.402 515.847 364.26 517.578C410.573 519.219 456.74 514.371 503.039 515.015C544.088 515.587 585.156 515.133 626.215 515.104C681.591 515.104 736.961 515.171 792.337 515.033C800.216 515.015 808.186 514.589 815.957 513.369C840.149 509.571 855.535 491.838 855.568 467.393C855.701 373.276 855.54 279.154 855.696 185.037C855.72 170.06 849.628 158.214 839.539 147.815H839.549ZM828.235 449.811C828.235 455.452 828.358 461.151 827.668 466.726C826.041 479.892 820.152 485.222 806.857 485.553C794.806 485.855 782.745 485.699 770.689 485.699C591.348 485.709 412.006 485.709 232.665 485.704C227.013 485.704 221.347 485.846 215.714 485.505C204.079 484.796 196.818 478.043 195.816 466.471C195.168 458.99 195.423 451.423 195.423 443.895C195.4 362.182 195.4 280.469 195.423 198.761C195.423 193.492 195.225 188.163 195.929 182.97C197.367 172.368 203.265 165.837 214.418 165.17C219.304 164.877 224.208 164.915 229.103 164.915C323.674 164.901 418.24 164.905 512.811 164.901C607.755 164.896 702.699 164.882 797.648 164.929C803.286 164.929 808.981 165.024 814.538 165.823C818.029 166.324 822.545 167.147 820.289 172.997C819.835 174.174 819.935 176.615 820.644 177.04C832.01 183.907 828.079 195.096 828.108 204.681C828.363 286.394 828.268 368.102 828.24 449.815L828.235 449.811Z" fill="#FD5141"/>
<path d="M1014.19 137.742C1007.33 137.156 1001.49 136.101 999.758 128.076C998.727 123.304 997.37 118.585 995.904 113.927C985.503 80.8848 970.647 51.1108 941.209 30.0288C913.947 10.5026 884.552 -0.733594 854.277 0.0372385C822.385 -0.341084 797.152 9.01294 773.669 24.7795C765.548 30.2321 757.365 34.6727 754.007 44.6556C752.517 49.0867 750.498 53.428 754.329 57.2443C758.188 61.0843 761.958 57.8828 765.609 56.0857C774.723 51.6073 783.648 46.6561 793.023 42.8019C840.769 23.1764 882.821 38.158 914.368 67.582C929.219 81.4334 938.84 99.8765 944.09 120.027C947.206 131.982 945.57 135.032 932.965 137.704C925.298 139.331 921.865 143.573 925.71 150.487C938.986 174.368 952.598 198.075 966.608 221.531C970.264 227.65 976.531 229.547 980.991 222.094C995.033 198.623 1008.97 175.073 1022.17 151.12C1027.53 141.397 1025.49 138.707 1014.19 137.742H1014.19Z" fill="#FD5141"/>
</svg>
