<svg width="130" height="129" viewBox="0 0 130 129" fill="none" xmlns="http://www.w3.org/2000/svg">
<circle cx="64.5" cy="64.5" r="64.5" fill="#FD5141"/>
<path d="M17.96 70.82C17.7867 71.4467 17.3467 71.8667 16.64 72.08C16 72.2667 15.4267 72.2 14.92 71.88C14.3733 71.5467 14.2 71.0533 14.4 70.4C14.5733 69.6533 14.9067 68.46 15.4 66.82C15.8933 65.18 16.24 64.0267 16.44 63.36C16.9067 61.7067 17.2 60.6133 17.32 60.08C17.7333 58.7467 18.0267 57.92 18.2 57.6C18.3867 57.28 18.5467 57.06 18.68 56.94C18.8133 56.8067 19.0267 56.6533 19.32 56.48C19.6267 56.3067 19.9533 56.1733 20.3 56.08C20.6467 55.9867 20.9933 55.9267 21.34 55.9C21.6867 55.86 22.04 55.8333 22.4 55.82C22.76 55.7933 23.16 55.7267 23.6 55.62C23.7733 55.62 23.9267 55.6067 24.06 55.58C24.2067 55.5533 24.3467 55.5333 24.48 55.52C24.7867 55.4933 25.0867 55.5267 25.38 55.62C25.6867 55.7133 25.9133 55.88 26.06 56.12C26.22 56.36 26.3 56.6333 26.3 56.94C26.3 57.2467 26.2333 57.5733 26.1 57.92C25.98 58.2667 25.8067 58.6 25.58 58.92C25.0867 59.6133 24.4667 60.1067 23.72 60.4C23.2 60.56 22.8267 60.64 22.6 60.64C22.3733 60.64 22.2133 60.6133 22.12 60.56C22.04 60.5067 21.9933 60.4667 21.98 60.44C21.9667 60.4133 21.92 60.46 21.84 60.58C21.72 60.7533 21.6333 60.9467 21.58 61.16C21.5267 61.3733 21.4667 61.5333 21.4 61.64C21.3333 61.7333 21.24 61.9267 21.12 62.22C21.0133 62.5133 20.8733 62.76 20.7 62.96C20.5267 63.1467 20.4267 63.26 20.4 63.3L22.16 63.12C22.44 63.0933 22.68 63.1533 22.88 63.3C23.0933 63.4333 23.24 63.6 23.32 63.8C23.4133 64 23.44 64.2 23.4 64.4C23.36 64.5867 23.24 64.7333 23.04 64.84C22.84 64.9333 22.7067 65.0333 22.64 65.14C22.5867 65.2333 22.54 65.3267 22.5 65.42C22.46 65.5133 22.4067 65.6067 22.34 65.7C22.2867 65.7933 22.16 65.88 21.96 65.96C21.5333 66.16 20.7133 66.32 19.5 66.44C19.4333 66.64 19.34 66.88 19.22 67.16C19.1133 67.4267 19 67.7067 18.88 68C18.5333 68.8933 18.3333 69.4333 18.28 69.62C18.24 69.8067 18.2067 69.96 18.18 70.08C18.1 70.44 18.0267 70.6867 17.96 70.82ZM27.5366 57.76C28.3766 56.8 29.3099 56.2 30.3366 55.96C31.0432 55.7867 31.7099 55.8133 32.3366 56.04C32.8299 55.52 33.4699 55.3333 34.2566 55.48C34.9766 55.6133 35.5899 56.02 36.0966 56.7C36.1232 56.7933 36.1766 56.9333 36.2566 57.12C36.3499 57.3067 36.4366 57.5133 36.5166 57.74C37.1032 59.1 37.1499 60.8867 36.6566 63.1C36.0432 65.8467 34.9566 68.1733 33.3966 70.08C32.9166 70.6667 32.3766 71.1533 31.7766 71.54C30.8166 72.2733 29.6699 72.6 28.3366 72.52C27.5099 72.48 26.8166 72.2733 26.2566 71.9C24.0299 70.7933 23.3032 68.4867 24.0766 64.98C24.7166 62.1 25.8699 59.6933 27.5366 57.76ZM27.7766 68.38L27.7566 68.5L27.7966 68.72C27.8766 69.1333 28.0099 69.4533 28.1966 69.68C28.3832 69.8933 28.5366 70.0267 28.6566 70.08C28.7899 69.9733 28.9232 69.8733 29.0566 69.78C29.1899 69.6867 29.3099 69.5733 29.4166 69.44C30.3232 68.32 31.0299 66.8533 31.5366 65.04C32.0432 63.2267 32.2299 61.5467 32.0966 60C31.5766 60.6667 31.0299 61.4333 30.4566 62.3C29.8832 63.1667 29.4299 63.9067 29.0966 64.52C28.3366 65.9467 27.8966 67.2333 27.7766 68.38ZM39.75 71.06C39.63 71.5933 39.2167 71.92 38.51 72.04C37.8567 72.16 37.2367 72.0867 36.65 71.82C35.9967 71.54 35.71 71.1467 35.79 70.64C35.71 69.8667 36.1167 68.1867 37.01 65.6C38.3433 61.72 39.6767 58.9467 41.01 57.28C41.3567 56.8533 41.65 56.58 41.89 56.46C42.1433 56.3267 42.43 56.2067 42.75 56.1C43.07 55.9933 43.4033 55.8933 43.75 55.8C44.4433 55.6133 45.0967 55.4867 45.71 55.42C46.3367 55.34 46.8967 55.4133 47.39 55.64C47.8833 55.8533 48.2633 56.1733 48.53 56.6C48.81 57.0267 48.9833 57.5333 49.05 58.12C49.1167 58.6933 49.0967 59.3 48.99 59.94C48.8833 60.5667 48.69 61.2067 48.41 61.86C48.13 62.5 47.7767 63.1 47.35 63.66C46.4167 64.8867 45.3233 65.68 44.07 66.04L44.27 66.38C44.4433 66.6467 44.65 66.94 44.89 67.26C45.1433 67.58 45.39 67.9067 45.63 68.24C45.8833 68.5733 46.11 68.9067 46.31 69.24C46.51 69.5733 46.6567 69.8867 46.75 70.18C46.9633 70.8333 46.7967 71.3067 46.25 71.6C45.81 71.8667 45.4633 71.9333 45.21 71.8C45.1033 71.7333 44.9967 71.6467 44.89 71.54C44.7833 71.4467 44.6367 71.3667 44.45 71.3C43.6633 71.5267 43.0633 71.3267 42.65 70.7C42.3967 70.3 42.2033 69.9333 42.07 69.6C41.9367 69.2667 41.8233 68.9867 41.73 68.76C41.49 68.2667 41.2167 67.84 40.91 67.48C40.7633 67.84 40.5967 68.3 40.41 68.86C40.1833 69.5667 39.93 70.3 39.65 71.06H39.75ZM43.79 59.42C43.5367 59.9933 43.3633 60.3933 43.27 60.62C43.0833 61.0733 42.8767 61.5733 42.65 62.12C42.61 62.4133 42.5767 62.62 42.55 62.74L42.83 62.46L43.17 62.3C43.41 62.1667 43.63 62.0467 43.83 61.94C44.03 61.8333 44.21 61.7 44.37 61.54C44.6767 61.2333 44.9433 60.7333 45.17 60.04C45.17 59.9067 45.19 59.7733 45.23 59.64C45.2833 59.5067 45.3167 59.3733 45.33 59.24C45.3833 58.9467 45.2633 58.74 44.97 58.62C44.7033 58.5933 44.37 58.8133 43.97 59.28C43.89 59.3733 43.83 59.42 43.79 59.42ZM51.2106 72.16C50.5306 72.1867 49.904 72.1 49.3306 71.9C48.7706 71.7133 48.3106 71.4533 47.9506 71.12C47.604 70.7867 47.384 70.4 47.2906 69.96C47.1973 69.5067 47.2773 69.0467 47.5306 68.58C47.8773 68.02 48.5706 67.8533 49.6106 68.08C50.3973 68.24 50.9373 68.3267 51.2306 68.34C51.5373 68.3533 51.7973 68.3133 52.0106 68.22C52.984 67.9 53.5306 67.5533 53.6506 67.18C53.7306 66.9 53.5573 66.5733 53.1306 66.2C52.9573 66.04 52.764 65.88 52.5506 65.72C52.3373 65.56 52.1573 65.4 52.0106 65.24C51.344 64.7467 50.8173 64.18 50.4306 63.54C50.0573 62.8867 49.904 62.18 49.9706 61.42C50.0373 60.66 50.164 60.0333 50.3506 59.54C50.5373 59.0333 50.7706 58.5867 51.0506 58.2C51.544 57.52 52.184 56.9667 52.9706 56.54C53.8773 56.0733 54.604 55.7733 55.1506 55.64C56.2306 55.4 57.324 55.38 58.4306 55.58C58.804 55.6467 59.124 55.7733 59.3906 55.96C59.6573 56.1467 59.924 56.34 60.1906 56.54C60.6573 57.0067 60.7706 57.48 60.5306 57.96C60.4373 58.1733 60.2906 58.3467 60.0906 58.48C59.8906 58.6133 59.6773 58.6867 59.4506 58.7C59.4773 59.06 59.4106 59.3267 59.2506 59.5C58.944 59.8067 58.4106 60.0067 57.6506 60.1C56.5573 60.02 55.8173 60.08 55.4306 60.28C54.9773 60.52 54.8106 61.04 54.9306 61.84C54.9573 62.0133 55.064 62.1933 55.2506 62.38C55.4506 62.5667 55.6773 62.7667 55.9306 62.98C56.1973 63.1933 56.4706 63.4333 56.7506 63.7C57.044 63.9667 57.2973 64.2733 57.5106 64.62C58.2573 65.8467 58.1973 67.28 57.3306 68.92C56.6906 70.1467 55.5973 71.0667 54.0506 71.68C53.2506 72 52.304 72.16 51.2106 72.16ZM65.8858 65.88C65.5258 66.92 65.1591 67.92 64.7858 68.88C64.4124 69.84 64.0991 70.5667 63.8458 71.06C63.6058 71.5667 63.3924 71.9133 63.2058 72.1C63.0191 72.2867 62.8258 72.4133 62.6258 72.48C62.4391 72.5467 62.2458 72.5733 62.0458 72.56C61.8591 72.5467 61.6658 72.5333 61.4658 72.52C60.3458 72.3467 59.9991 71.54 60.4258 70.1C60.7058 68.9533 60.9324 68.02 61.1058 67.3C61.2791 66.5667 61.4191 65.9667 61.5258 65.5C61.6458 65.02 61.7458 64.6267 61.8258 64.32C61.9058 64 61.9924 63.6867 62.0858 63.38C62.1791 63.0733 62.2924 62.7267 62.4258 62.34C62.5724 61.9533 62.7591 61.44 62.9858 60.8C62.4791 60.8667 62.0258 60.8133 61.6258 60.64C61.0391 60.3867 60.7991 59.84 60.9058 59C60.9591 58.6133 61.1658 58.2533 61.5258 57.92C61.7124 57.7467 61.9324 57.56 62.1858 57.36C62.7058 56.9467 63.7391 56.5067 65.2858 56.04C66.8858 55.56 68.2591 55.3333 69.4058 55.36C69.7124 55.3067 70.0258 55.3467 70.3458 55.48C70.6791 55.6 70.9458 55.7667 71.1458 55.98C71.3458 56.1933 71.4458 56.4267 71.4458 56.68C71.4591 56.9333 71.2991 57.16 70.9658 57.36C70.8058 57.4667 70.6924 57.6467 70.6258 57.9C70.5591 58.14 70.4858 58.4 70.4058 58.68C70.3258 58.9467 70.2058 59.1933 70.0458 59.42C69.8991 59.6467 69.6591 59.78 69.3258 59.82C69.1524 59.9133 68.9058 59.98 68.5858 60.02C68.2791 60.06 68.0724 60.0933 67.9658 60.12C67.8724 60.1333 67.8191 60.1667 67.8058 60.22C67.5658 60.9267 67.2791 61.7867 66.9458 62.8C66.6124 63.8 66.2591 64.8267 65.8858 65.88ZM63.1858 60.58C63.1591 60.58 63.1458 60.5867 63.1458 60.6C63.1458 60.6 63.1591 60.6 63.1858 60.6V60.58ZM80.0248 57.44C80.4782 57.68 80.7648 58.0333 80.8848 58.5C80.6182 59.9933 80.3782 61.48 80.1648 62.96C79.9515 64.4267 79.7448 65.66 79.5448 66.66C79.3448 67.6467 79.2048 68.3867 79.1248 68.88C79.0582 69.3733 78.9782 69.8667 78.8848 70.36L78.7648 70.78C78.7382 70.9267 78.7115 71.06 78.6848 71.18C78.6582 71.3133 78.6315 71.4533 78.6048 71.6C78.2315 72.0267 77.7248 72.24 77.0848 72.24C76.4048 72.24 75.8648 72.0667 75.4648 71.72C75.2248 71.5333 75.1848 71.14 75.3448 70.54C75.4115 70.3 75.4515 69.9933 75.4648 69.62C75.4915 69.2333 75.5182 68.9133 75.5448 68.66V68.62C75.1448 68.7667 74.7848 68.96 74.4648 69.2C74.1448 69.4267 73.9448 69.5733 73.8648 69.64C73.7848 69.6933 73.6782 69.74 73.5448 69.78C73.4115 69.8067 73.2915 69.8267 73.1848 69.84C72.9315 69.8533 72.7582 69.8933 72.6648 69.96C71.8915 71.3467 71.1982 72.12 70.5848 72.28C70.1982 72.4 69.8115 72.4267 69.4248 72.36C69.0382 72.3067 68.7315 72.08 68.5048 71.68C68.0782 71.28 68.1848 70.1867 68.8248 68.4C69.1715 67.4533 69.6648 66.32 70.3048 65C70.9582 63.6667 71.5848 62.5067 72.1848 61.52C73.4782 59.4 74.8982 57.6133 76.4448 56.16C76.6982 56.0533 76.9715 55.9333 77.2648 55.8C77.5582 55.6533 77.8448 55.5733 78.1248 55.56C78.4182 55.5467 78.7182 55.58 79.0248 55.66C79.3315 55.74 79.5915 55.86 79.8048 56.02C80.2982 56.3933 80.3715 56.8667 80.0248 57.44ZM75.7448 62.7C75.4648 63.5 75.1848 64.24 74.9048 64.92C74.6248 65.5867 74.3848 66.1733 74.1848 66.68L75.7648 66.62C75.8715 65.7667 75.9915 64.92 76.1248 64.08C76.2582 63.24 76.3848 62.4 76.5048 61.56L75.7448 62.7ZM75.2048 66.7C75.3915 66.7 75.5782 66.6867 75.7648 66.66V66.64C75.5915 66.6533 75.4315 66.6667 75.2848 66.68C75.1382 66.6933 75.1115 66.7 75.2048 66.7ZM77.5048 51.12C77.9315 50.9467 78.3515 50.8267 78.7648 50.76C79.1515 50.7867 79.5582 50.8 79.9848 50.8C80.4115 50.8 80.8648 50.9133 81.3448 51.14C81.8248 51.3667 82.2315 51.6933 82.5648 52.12C82.8982 52.5333 83.0982 52.98 83.1648 53.46C83.2848 54.5 82.8448 55.4533 81.8448 56.32C81.4048 56.68 80.7515 56.9533 79.8848 57.14C79.2048 57.2867 78.5382 57.34 77.8848 57.3C77.2315 57.26 76.7582 57.22 76.4648 57.18C76.1715 57.1267 75.9648 57.0667 75.8448 57C75.7382 56.9333 75.6248 56.8667 75.5048 56.8C75.3848 56.72 75.2715 56.6533 75.1648 56.6C74.3648 56.1067 73.9982 55.3667 74.0648 54.38C74.1182 53.54 74.4248 52.8133 74.9848 52.2C75.1848 51.9733 75.3648 51.8333 75.5248 51.78C75.6982 51.7267 75.9715 51.62 76.3448 51.46C76.7315 51.2867 77.1182 51.1733 77.5048 51.12ZM79.5048 54.16C79.2782 54.2133 78.9515 54.26 78.5248 54.3C78.4315 54.2733 78.3115 54.26 78.1648 54.26C78.0182 54.26 77.8782 54.2533 77.7448 54.24C77.4382 54.6 77.3448 54.9333 77.4648 55.24C77.5048 55.3467 77.5982 55.44 77.7448 55.52C77.8915 55.6 78.0782 55.6267 78.3048 55.6C78.5448 55.56 78.7648 55.48 78.9648 55.36C79.4182 55.08 79.6048 54.7133 79.5248 54.26C79.5115 54.2467 79.5048 54.2133 79.5048 54.16ZM84.7739 68.48C85.5472 68.56 86.1206 68.6 86.4939 68.6C86.8806 68.6 87.4606 68.5467 88.2339 68.44C88.4739 68.52 88.6139 68.62 88.6539 68.74C88.6939 68.86 88.7072 68.9867 88.6939 69.12C88.6806 69.24 88.6872 69.36 88.7139 69.48C88.7406 69.6 88.8672 69.7 89.0939 69.78C89.2139 69.82 89.2472 69.94 89.1939 70.14C89.1539 70.3267 89.0472 70.5333 88.8739 70.76C88.4339 71.3333 87.9139 71.7333 87.3139 71.96C86.3539 72.2 85.6006 72.34 85.0539 72.38C84.1472 72.4467 83.1606 72.4133 82.0939 72.28C80.9206 72.0667 80.3539 71.58 80.3939 70.82C80.3939 68.02 81.0072 65.2067 82.2339 62.38C82.6339 61.46 83.0872 60.4933 83.5939 59.48C83.7006 59.2667 83.7606 59.0267 83.7739 58.76C83.8006 58.4933 83.8206 58.2333 83.8339 57.98C83.8472 57.7267 83.8872 57.5 83.9539 57.3C84.0206 57.1 84.1606 56.96 84.3739 56.88C87.1472 55.7733 89.3406 55.3467 90.9539 55.6C91.5139 55.6133 91.8806 55.8067 92.0539 56.18C92.2406 56.54 92.2606 56.9467 92.1139 57.4C91.9806 57.8533 91.7072 58.28 91.2939 58.68C90.8939 59.08 90.3872 59.3267 89.7739 59.42C88.9872 59.6467 88.5072 59.8 88.3339 59.88C88.0006 60.04 87.7606 60.2533 87.6139 60.52C87.4272 60.8133 87.2539 61.0933 87.0939 61.36C86.9339 61.6267 86.8206 61.9133 86.7539 62.22L86.6739 62.66C86.9272 62.78 87.2339 62.82 87.5939 62.78C87.9672 62.7267 88.3072 62.68 88.6139 62.64C88.9339 62.5867 89.1872 62.58 89.3739 62.62C89.5739 62.66 89.6139 62.86 89.4939 63.22C89.3872 63.5667 89.1806 63.96 88.8739 64.4C88.5806 64.84 88.1606 65.16 87.6139 65.36C87.2672 65.4267 87.0272 65.48 86.8939 65.52C86.7739 65.5467 86.6806 65.5667 86.6139 65.58C86.5206 65.5933 86.2539 65.6133 85.8139 65.64C85.1872 66.7067 84.8072 67.5333 84.6739 68.12C84.6206 68.36 84.6539 68.48 84.7739 68.48ZM97.7022 65.88C97.3422 66.92 96.9755 67.92 96.6022 68.88C96.2289 69.84 95.9155 70.5667 95.6622 71.06C95.4222 71.5667 95.2089 71.9133 95.0222 72.1C94.8355 72.2867 94.6422 72.4133 94.4422 72.48C94.2555 72.5467 94.0622 72.5733 93.8622 72.56C93.6755 72.5467 93.4822 72.5333 93.2822 72.52C92.1622 72.3467 91.8155 71.54 92.2422 70.1C92.5222 68.9533 92.7489 68.02 92.9222 67.3C93.0955 66.5667 93.2355 65.9667 93.3422 65.5C93.4622 65.02 93.5622 64.6267 93.6422 64.32C93.7222 64 93.8089 63.6867 93.9022 63.38C93.9955 63.0733 94.1089 62.7267 94.2422 62.34C94.3889 61.9533 94.5755 61.44 94.8022 60.8C94.2955 60.8667 93.8422 60.8133 93.4422 60.64C92.8555 60.3867 92.6155 59.84 92.7222 59C92.7755 58.6133 92.9822 58.2533 93.3422 57.92C93.5289 57.7467 93.7489 57.56 94.0022 57.36C94.5222 56.9467 95.5555 56.5067 97.1022 56.04C98.7022 55.56 100.076 55.3333 101.222 55.36C101.529 55.3067 101.842 55.3467 102.162 55.48C102.496 55.6 102.762 55.7667 102.962 55.98C103.162 56.1933 103.262 56.4267 103.262 56.68C103.276 56.9333 103.116 57.16 102.782 57.36C102.622 57.4667 102.509 57.6467 102.442 57.9C102.376 58.14 102.302 58.4 102.222 58.68C102.142 58.9467 102.022 59.1933 101.862 59.42C101.716 59.6467 101.476 59.78 101.142 59.82C100.969 59.9133 100.722 59.98 100.402 60.02C100.096 60.06 99.8889 60.0933 99.7822 60.12C99.6889 60.1333 99.6355 60.1667 99.6222 60.22C99.3822 60.9267 99.0955 61.7867 98.7622 62.8C98.4289 63.8 98.0755 64.8267 97.7022 65.88ZM95.0022 60.58C94.9755 60.58 94.9622 60.5867 94.9622 60.6C94.9622 60.6 94.9755 60.6 95.0022 60.6V60.58ZM113.321 60.18C113.481 61.54 112.488 62.9867 110.341 64.52C109.781 64.92 109.255 65.2867 108.761 65.62C108.268 65.9533 107.841 66.26 107.481 66.54C107.135 66.8067 106.941 67.04 106.901 67.24C106.875 67.56 106.721 67.8267 106.441 68.04C106.161 68.2533 105.848 68.4067 105.501 68.5C105.155 68.58 104.808 68.6067 104.461 68.58C104.115 68.5533 103.861 68.46 103.701 68.3C103.328 67.5 103.541 66.54 104.341 65.42C104.701 64.9267 105.121 64.4333 105.601 63.94C106.081 63.4333 106.548 62.9467 107.001 62.48C107.468 62 107.881 61.5467 108.241 61.12C108.655 60.6133 108.908 60.1467 109.001 59.72H108.941C108.848 59.8 108.755 59.9 108.661 60.02C108.581 60.1267 108.401 60.2533 108.121 60.4C107.841 60.5467 107.588 60.6667 107.361 60.76C107.148 60.8533 106.941 60.9467 106.741 61.04C106.555 61.12 106.435 61.1733 106.381 61.2C106.341 61.2267 106.295 61.2533 106.241 61.28C106.201 61.3067 106.141 61.3333 106.061 61.36L105.741 61.48C104.581 61.76 103.755 61.6 103.261 61C103.088 60.7867 102.928 60.4933 102.781 60.12C102.635 59.5867 102.781 58.96 103.221 58.24C103.595 57.6133 104.061 57.14 104.621 56.82C105.181 56.4867 105.881 56.2133 106.721 56C107.575 55.7733 108.415 55.66 109.241 55.66C110.068 55.66 110.828 55.7867 111.521 56.04C112.215 56.2933 112.735 56.7 113.081 57.26C113.215 57.5133 113.255 57.7867 113.201 58.08C113.148 58.3733 113.095 58.6067 113.041 58.78C113.001 58.94 112.981 59.0867 112.981 59.22C112.995 59.3533 113.048 59.5067 113.141 59.68C113.235 59.84 113.295 60.0067 113.321 60.18ZM105.681 71.32C105.401 71.88 105.035 72.2867 104.581 72.54C104.128 72.8067 103.688 72.94 103.261 72.94C102.848 72.9533 102.501 72.84 102.221 72.6C101.941 72.36 101.828 72.0067 101.881 71.54C101.908 70.8867 102.235 70.44 102.861 70.2C103.661 69.88 104.415 69.88 105.121 70.2C105.775 70.4933 105.961 70.8667 105.681 71.32Z" fill="#FCF7EF"/>
</svg>
