<svg width="159" height="159" viewBox="0 0 159 159" fill="none" xmlns="http://www.w3.org/2000/svg">
<circle cx="79.5" cy="79.5" r="79.5" fill="#780E08"/>
<path d="M108.595 88.9836C108.305 87.1036 109.035 84.6136 110.465 82.2636C112.225 79.3736 112.315 76.4636 110.885 73.3036C108.555 68.1136 108.455 62.3336 107.055 56.8736C105.945 52.5536 102.845 49.9236 99.7047 47.4736C96.9447 45.3136 91.9747 46.4036 89.6947 49.1236C88.3847 50.6936 86.5547 51.2836 84.8047 51.9336C82.5047 52.7836 82.8847 53.9236 84.1247 55.3136C84.5547 55.7936 85.1347 56.1536 85.6447 56.5636C86.1847 56.9936 87.2047 57.2436 86.6847 58.2136C86.1947 59.1336 85.2247 58.8736 84.4547 58.6136C82.9847 58.1136 80.1147 53.9836 80.0847 52.4836C80.0647 51.5436 80.6747 51.1436 81.3747 50.8736C84.7747 49.5636 87.8147 47.8336 90.5147 45.2236C92.7947 43.0236 99.4547 44.0236 102.125 46.3736C105.995 49.7736 109.075 53.5336 109.945 58.9336C110.855 64.6336 112.015 70.3136 114.025 75.7836C114.915 78.2036 114.225 80.5736 112.865 82.6636C111.395 84.9136 110.715 87.3136 110.925 89.9636C111.455 96.6636 111.745 103.414 114.815 109.604C115.285 110.564 115.955 111.424 116.535 112.324C116.985 113.014 117.175 113.734 116.475 114.334C115.705 114.984 115.255 114.194 114.845 113.764C112.595 111.404 111.515 108.434 110.705 105.374C109.365 100.294 108.825 95.1036 108.585 88.9836H108.595Z" fill="#F5F0E8"/>
<path d="M87.4847 66.3236C83.3147 66.2436 79.3047 65.0836 75.2047 64.5936C69.9447 63.9636 64.7947 64.2436 59.8047 66.1936C55.4247 67.9036 51.2147 67.4836 47.1947 65.0736C44.3747 63.3836 43.4247 60.7436 43.7447 57.6336C44.4347 50.9436 48.9747 46.0036 55.6247 44.6236C56.4547 44.4536 57.6347 43.9836 57.9547 45.2236C58.2747 46.4736 57.0847 46.5936 56.2047 46.8236C52.9047 47.7036 49.9547 49.1936 48.0947 52.1736C46.3047 55.0536 45.0047 58.1736 46.9247 61.5036C48.4047 64.0736 52.8747 65.5436 56.4747 64.7336C59.8447 63.9736 63.0247 62.5936 66.5647 62.2836C71.3247 61.8736 75.9447 62.2336 80.6147 63.1436C84.1747 63.8336 87.7847 64.4336 91.4547 63.6136C94.8547 62.8536 95.4047 62.2836 95.2947 58.7536C95.2647 57.6836 95.1547 56.5936 94.9147 55.5436C94.7247 54.6836 94.7647 54.0236 95.6647 53.7436C96.7147 53.4236 96.9747 54.2736 97.1147 54.9936C98.3947 61.8536 97.6247 65.5736 90.9347 65.9936C89.7847 66.0636 88.6347 66.2136 87.4847 66.3236Z" fill="#F5F0E8"/>
<path d="M61.2547 102.254C60.6447 97.8336 64.5147 95.4236 66.8047 92.2536C69.0247 89.1736 71.5547 86.4836 72.1047 82.3736C72.5947 78.6836 74.8047 78.0436 78.0147 80.1336C84.1747 84.1236 90.6847 86.9136 98.2247 86.5036C100.295 86.3936 101.765 87.4036 102.435 89.3236C103.565 92.5236 104.555 95.7836 105.625 99.0036C105.875 99.7436 105.865 100.364 105.055 100.624C104.265 100.884 103.785 100.344 103.545 99.6736C102.615 97.0136 101.595 94.3736 100.855 91.6636C100.285 89.5436 99.1247 88.6236 96.9747 88.7136C89.9147 89.0136 83.6947 86.5736 77.9047 82.7536C74.8447 80.7336 74.4747 80.8836 74.0047 84.4136C73.5347 87.9336 71.0947 90.2636 69.1747 92.9136C68.2047 94.2536 67.0947 95.4936 66.0047 96.7436C61.8347 101.504 63.3547 106.404 65.6147 111.334C66.0647 112.324 67.4047 113.554 65.9947 114.324C64.6047 115.094 64.1947 113.254 63.6947 112.374C61.9747 109.364 61.1247 106.094 61.2447 102.254H61.2547Z" fill="#F5F0E8"/>
<path d="M56.4047 97.5536C58.3547 92.6536 56.0647 88.3936 53.7947 84.1136C52.8647 82.3536 52.0447 80.5436 51.6147 78.5836C51.2947 77.0936 51.2147 75.6136 51.8447 74.1936C52.2847 73.1836 52.5347 71.5536 54.0847 72.2236C55.4047 72.7936 54.2847 73.9336 54.0147 74.7936C53.0147 78.0836 54.5947 80.7836 56.0347 83.4736C57.4947 86.1936 58.7247 88.9436 59.3447 91.9936C59.8047 94.2436 59.2447 96.2636 58.5447 98.3036C58.3147 98.9836 57.9347 99.8236 56.9847 99.4836C56.2247 99.2136 56.3347 98.4236 56.4147 97.5636L56.4047 97.5536Z" fill="#F5F0E8"/>
<path d="M50.2347 91.6237C51.5347 92.1237 51.3247 93.2137 50.9247 94.0837C50.1047 95.8837 49.4647 97.8437 48.0347 99.2737C44.2947 103.024 45.3147 107.054 47.2247 111.154C47.3647 111.454 47.5747 111.714 47.7347 112.014C48.1747 112.844 48.6547 113.854 47.6047 114.424C46.6547 114.934 46.2147 113.924 45.7847 113.224C43.9947 110.324 43.3347 107.084 43.0147 103.764C42.8947 102.504 43.5247 101.304 44.3047 100.334C46.0647 98.1337 47.7347 95.8937 48.7647 93.2337C49.0347 92.5437 49.3547 91.8537 50.2347 91.6237Z" fill="#F5F0E8"/>
<path d="M90.7447 105.924C90.7347 102.094 91.8247 98.8936 93.1047 95.7436C93.4747 94.8336 94.0247 93.6636 95.2247 94.2136C96.6147 94.8536 95.6247 95.9236 95.2247 96.7436C92.9147 101.664 92.3247 106.704 94.0747 111.924C94.3947 112.884 94.9347 114.094 93.7047 114.504C92.3447 114.954 92.2847 113.474 91.9947 112.594C91.2347 110.314 90.6147 107.994 90.7347 105.914L90.7447 105.924Z" fill="#F5F0E8"/>
</svg>
