<svg width="159" height="159" viewBox="0 0 159 159" fill="none" xmlns="http://www.w3.org/2000/svg">
<circle cx="79.5" cy="79.5" r="79.5" fill="#780E08"/>
<path d="M79.7184 45.3479C79.3484 47.3479 80.2084 48.9079 80.8484 50.4879C82.5584 54.6979 85.0084 58.4379 88.2884 61.5779C89.4384 62.6879 89.5484 63.7479 88.8684 65.0779C88.5384 65.7379 88.3084 66.4579 88.0384 67.1479C86.7384 70.4879 85.3284 71.6379 81.7884 70.9679C75.6584 69.8179 70.7984 72.3179 66.1284 75.6679C56.3284 82.7079 53.1784 99.4979 56.2884 107.848C57.9984 112.438 59.8684 113.808 64.7084 113.808C68.2784 113.808 71.8484 113.808 75.4184 113.808C78.1084 113.808 78.3284 113.558 77.3684 110.948C76.0784 107.448 74.1684 104.188 73.3184 100.518C73.0084 99.1979 71.4084 97.1779 73.2284 96.5979C75.2984 95.9379 75.2084 98.5579 75.5884 99.8879C76.8584 104.378 79.3984 108.368 80.4184 112.948C81.1484 116.218 81.0384 116.448 77.7884 116.458C72.9784 116.458 68.1484 116.288 63.3484 116.518C60.1284 116.668 57.9584 115.268 56.1684 112.908C54.3784 110.548 53.2984 107.858 53.0084 104.898C52.8484 103.258 52.0284 102.538 50.4384 102.498C48.7984 102.468 47.3184 102.518 46.6884 104.528C45.5984 107.978 47.8684 110.168 49.4984 112.618C49.8184 113.098 50.2984 113.458 50.6884 113.898C51.1784 114.438 51.4484 115.028 50.8184 115.648C50.2484 116.198 49.4984 116.218 49.0284 115.688C46.4584 112.758 43.6884 109.928 44.0284 105.518C44.3084 101.798 46.4884 99.4279 50.1484 99.9179C52.9884 100.298 52.8284 98.8379 52.9984 96.9879C53.7484 88.8279 56.1784 81.2979 62.3584 75.6179C67.9584 70.4779 74.2984 66.8979 82.3984 68.6579C83.7884 68.9579 84.9184 68.3679 85.3784 67.0179C85.9584 65.3279 87.3684 63.7179 85.3784 61.8279C81.1184 57.7679 78.6484 52.6379 77.1684 46.9879C76.8584 45.8079 76.7684 44.6579 77.4484 43.6179C78.4184 42.1579 79.4984 41.2179 81.1884 42.8879C88.5684 50.2079 97.3084 55.5179 106.458 60.2679C110.658 62.4479 112.928 66.3679 114.308 70.7579C114.868 72.5579 114.498 74.3279 113.098 75.8379C111.308 77.7679 109.298 79.3579 106.748 80.0179C104.828 80.5179 104.338 81.5979 104.488 83.4579C104.658 85.5179 104.648 87.6179 104.528 89.6879C104.248 94.4079 102.048 97.8279 97.5484 99.6479C95.5584 100.458 93.6484 101.468 91.6584 102.288C87.6584 103.938 87.3784 104.448 88.6984 108.618C89.2984 110.518 89.9884 112.378 90.6384 114.258C90.9084 115.038 90.9184 115.818 90.0684 116.178C89.1484 116.578 88.7284 115.828 88.4284 115.138C87.0284 111.928 85.9784 108.598 85.4684 105.138C85.1984 103.338 86.2384 102.118 87.7784 101.388C90.3984 100.138 92.9984 98.8479 95.6984 97.7979C100.118 96.0879 102.138 92.8379 102.268 88.2379C102.328 86.0779 102.298 83.9179 101.858 81.7779C101.468 79.8679 102.028 78.6379 104.188 78.2279C106.488 77.7879 108.538 76.6379 110.388 75.1979C111.938 73.9879 112.508 72.4879 111.798 70.5879C110.478 67.0579 108.468 63.9179 105.078 62.2379C96.1084 57.7979 87.7084 52.5879 80.4984 45.5779C80.3884 45.4779 80.1984 45.4579 79.7184 45.2779V45.3479Z" fill="#F5F0E8"/>
<path d="M92.1684 42.3579C92.4284 42.5479 92.8684 42.7779 93.2084 43.1179C95.8984 45.8179 98.5684 48.5479 101.538 50.9579C102.178 51.4779 102.938 52.1079 102.248 53.0279C101.528 53.9879 100.768 53.3379 100.108 52.8479C96.8284 50.4279 93.8984 47.6179 91.3384 44.4379C90.9584 43.9679 90.6984 43.4579 90.9384 42.8279C91.1284 42.3379 91.5484 42.3479 92.1684 42.3479V42.3579Z" fill="#F5F0E8"/>
<path d="M94.2984 107.068C94.2484 106.368 94.2884 105.638 95.1184 105.498C95.7484 105.388 96.2884 105.878 96.4184 106.438C97.1784 109.718 99.0984 112.078 101.908 113.798C102.548 114.188 102.758 114.878 102.398 115.548C102.058 116.178 101.438 116.008 100.858 115.828C97.9184 114.918 94.2584 110.038 94.2884 107.068H94.2984Z" fill="#F5F0E8"/>
</svg>
