<svg width="159" height="159" viewBox="0 0 159 159" fill="none" xmlns="http://www.w3.org/2000/svg">
<circle cx="79.5" cy="79.5" r="79.5" fill="#780E08"/>
<path d="M116.873 57.8782C116.873 59.6282 116.933 61.3782 116.863 63.1282C116.633 68.4482 110.183 73.8982 104.863 73.2882C104.293 73.2182 103.743 72.9982 103.193 72.8482C102.453 72.6482 101.973 72.1982 102.223 71.4082C102.423 70.7782 103.023 70.5682 103.653 70.7282C107.683 71.7282 110.373 69.1682 113.193 67.0582C114.163 66.3382 114.543 65.1882 114.543 63.9682C114.543 60.7182 114.543 57.4782 114.533 54.2282C114.533 53.6682 114.643 52.9782 114.053 52.6482C113.323 52.2282 112.683 52.7482 112.333 53.2482C109.823 56.8182 106.193 56.1482 102.653 55.9582C100.993 55.8682 100.353 54.4982 99.3635 53.5482C98.7735 52.9782 98.0535 52.2682 97.2335 52.5782C96.5735 52.8282 96.8535 53.7582 96.8035 54.3982C96.6735 56.2982 96.5435 58.2082 96.4735 60.1182C96.3435 63.7182 94.0935 64.9882 91.0135 63.1782C87.6535 61.2082 84.2135 59.4082 80.4135 58.4482C76.6335 57.4982 72.8435 57.5182 69.1435 58.8282C66.5935 59.7282 64.5535 59.2382 62.5935 57.3282C60.9435 55.7182 59.2935 54.0682 57.3135 52.8082C53.4235 50.3282 50.4535 50.8182 48.0635 54.7282C45.2935 59.2782 44.2235 63.9582 47.2635 68.9982C49.0035 71.8782 50.6135 74.9682 49.6235 78.6482C49.3735 79.5982 48.9535 80.3182 48.2735 80.9482C47.7335 81.4482 47.2635 82.1082 46.4035 81.3682C45.5735 80.6482 45.9535 80.1082 46.5235 79.5082C47.9335 78.0282 47.5935 76.2582 47.1635 74.5782C46.6435 72.5582 45.7535 70.6582 44.5235 68.9682C40.7635 63.7682 44.5235 52.3382 49.7135 49.8082C53.4735 47.9782 56.8335 49.5282 59.8835 51.7482C61.4835 52.9082 62.8935 54.3582 64.3435 55.7082C65.3835 56.6782 66.4535 57.1782 67.9335 56.7082C76.4235 54.0182 84.0735 56.3682 91.4135 60.6782C92.1435 61.1082 92.8735 62.0882 93.8435 61.3782C94.6735 60.7682 94.3735 59.7382 94.3835 58.8182C94.4035 56.3482 94.3835 53.8582 95.0135 51.4282C95.5235 49.4582 96.4735 48.7082 98.3035 50.0882C98.9635 50.5782 99.6535 51.0382 100.283 51.5682C103.943 54.6682 107.273 54.6182 110.943 51.3982C111.133 51.2382 111.303 51.0382 111.513 50.9182C112.863 50.1482 114.203 48.6882 115.763 49.3382C117.483 50.0382 116.593 51.9882 116.733 53.3982C116.883 54.8782 116.763 56.3882 116.763 57.8882C116.793 57.8882 116.823 57.8882 116.853 57.8882L116.873 57.8782Z" fill="#F5F0E8"/>
<path d="M63.2135 98.6682C62.6235 96.4182 63.7635 94.5782 65.6235 92.7182C68.2935 90.0382 70.9635 87.2482 72.3935 83.6082C72.9535 82.1682 73.9335 81.7782 75.3535 82.2782C78.7835 83.4982 82.1535 84.5182 85.9635 83.7682C88.2535 83.3182 89.7435 85.0882 90.2835 87.3682C91.0735 90.7482 91.7835 94.1582 92.9335 97.4482C94.2435 101.218 95.8135 104.858 97.6135 108.418C97.9435 109.068 98.8135 109.918 97.7335 110.578C96.6235 111.248 96.1035 110.278 95.6435 109.478C92.0835 103.228 89.7235 96.5282 88.1935 89.5182C87.4435 86.0682 87.4435 86.0182 84.0035 86.3282C81.2035 86.5782 78.5835 85.8882 75.9935 85.0182C75.0035 84.6882 74.2935 84.6182 73.7835 85.7582C72.1935 89.3182 69.2935 91.8882 66.7935 94.7382C65.7835 95.8882 65.3435 97.0182 65.3835 98.5282C65.4735 102.118 65.6135 105.668 67.2735 108.958C67.5635 109.528 68.0435 110.238 67.2135 110.688C66.4235 111.118 65.8035 110.688 65.3935 109.928C63.7035 106.848 63.3635 103.478 63.2235 100.058C63.2135 99.7282 63.2235 99.3882 63.2235 98.6582L63.2135 98.6682Z" fill="#F5F0E8"/>
<path d="M104.553 95.6082C104.953 92.0182 104.753 88.5182 107.873 85.7582C109.893 83.9682 109.833 80.9582 110.033 78.3082C110.103 77.4582 109.763 76.2082 111.143 76.2582C112.163 76.2982 112.253 77.3382 112.243 78.1882C112.163 81.9082 111.603 85.4782 108.773 88.2182C106.673 90.2382 107.233 92.8782 107.193 95.2682C107.113 99.7482 107.463 104.218 109.533 108.348C109.913 109.118 110.143 110.098 109.203 110.538C108.163 111.018 107.813 109.978 107.443 109.278C105.143 104.978 105.033 100.218 104.573 95.6082H104.553Z" fill="#F5F0E8"/>
<path d="M62.9735 84.7582C63.0235 87.8282 62.0635 90.2382 60.3535 92.3882C59.8235 93.0482 59.1335 93.7482 58.2635 93.1082C57.3135 92.3982 57.9935 91.6782 58.5135 90.9982C60.8335 87.9082 61.4135 84.6682 59.7235 81.0082C57.0935 75.2982 58.7235 69.8382 61.0835 64.5082C61.3535 63.8982 61.8635 63.0382 62.7935 63.5382C63.9635 64.1682 63.3535 65.0782 62.9735 65.8982C60.6135 70.9882 59.7135 76.1182 62.3735 81.4082C62.9335 82.5282 63.0335 83.7982 62.9635 84.7682L62.9735 84.7582Z" fill="#F5F0E8"/>
<path d="M76.7935 100.778C77.5635 98.1582 78.4535 95.0682 79.3935 91.9882C79.5735 91.4082 80.0235 90.9482 80.7135 91.1282C81.6135 91.3582 81.5035 92.1582 81.3535 92.7582C80.8635 94.7682 80.4535 96.8182 79.6935 98.7182C78.3435 102.108 79.4535 104.838 81.5435 107.428C81.9035 107.878 82.3035 108.298 82.6435 108.768C83.0035 109.268 83.7135 109.798 82.9535 110.458C82.2935 111.038 81.6735 110.858 81.0135 110.248C78.3735 107.818 77.0735 104.788 76.8135 100.768L76.7935 100.778Z" fill="#F5F0E8"/>
<path d="M97.5035 91.6282C97.0735 88.6082 100.003 86.5282 101.123 83.6682C101.263 83.3082 101.753 83.1082 102.193 83.3182C102.693 83.5682 102.783 84.0482 102.813 84.5682C102.903 85.9382 102.103 86.9582 101.313 87.8582C99.8835 89.4982 99.6735 91.3482 99.7635 93.3982C99.8035 94.2282 100.433 95.7182 98.8335 95.6982C97.5535 95.6782 97.6635 94.3382 97.5935 93.3682C97.5635 92.9582 97.5535 92.5382 97.5035 91.6182V91.6282Z" fill="#F5F0E8"/>
</svg>
