<svg width="159" height="159" viewBox="0 0 159 159" fill="none" xmlns="http://www.w3.org/2000/svg">
<circle cx="79.5" cy="79.5" r="79.5" fill="#780E08"/>
<path d="M115.97 92.47C116.04 98.01 114.45 102.48 111.82 106.62C111.33 107.39 110.73 108.43 109.71 107.85C108.47 107.15 109.58 106.19 109.98 105.56C111.53 103.08 112.64 100.43 113.38 97.61C114.68 92.66 113.9 88.06 111.05 83.83C109.1 80.93 106.73 78.36 104.53 75.66C99.65 69.68 92.91 68.16 85.83 67.22C85.05 67.12 84.58 67.42 84.11 67.95C81.79 70.55 78.58 70.66 75.46 71C74.87 71.06 74.16 71 74 70.34C73.79 69.47 74.54 69.22 75.2 69.08C77.06 68.69 78.95 68.47 80.74 67.78C82.18 67.22 83 66.51 81.56 65.13C80.34 63.97 80.04 62.71 80.55 61.07C80.96 59.78 80.94 58.37 79.72 57.4C78.44 56.38 77.13 56.74 75.77 57.39C73.21 58.61 71.32 60.54 69.68 62.77C69.25 63.36 68.94 64.28 68.02 63.73C67.3 63.3 67.18 62.56 67.81 61.82C68.67 60.82 67.95 60.33 67.12 59.98C65.57 59.34 63.9 58.73 62.32 59.47C57.45 61.73 52.26 63.31 47.81 66.47C45.33 68.23 45.34 68.87 47.97 70.37C49.01 70.96 50.05 71.39 51.27 71.08C52.04 70.88 52.66 71.16 52.76 71.95C52.84 72.62 52.31 73 51.65 73.03C48.42 73.19 49.12 75.2 49.72 77.14C49.97 77.96 50.41 78.94 49.33 79.24C48.43 79.49 47.96 78.5 47.63 77.73C47.5 77.43 47.38 77.09 47.4 76.78C47.53 74.02 46.9 71.76 44.46 69.95C42.62 68.58 43.46 66.98 45.09 65.66C49.24 62.31 54.33 60.89 59.02 58.63C62.43 56.98 65.64 56.68 68.98 58.45C70.05 59.02 70.67 58.47 71.36 57.82C72.64 56.61 74.13 55.71 75.79 55.12C80.17 53.56 83.71 56.33 82.82 60.89C82.31 63.52 83.55 64.42 85.55 64.96C87.46 65.48 89.41 65.96 91.37 66.14C97.55 66.71 102.24 69.94 106.24 74.35C108.52 76.86 110.62 79.56 112.66 82.29C115.01 85.45 116.17 89.04 115.98 92.46L115.97 92.47Z" fill="#F5F0E8"/>
<path d="M62.04 102.34C62.02 105.55 59.9 108.18 57.38 108.07C56.81 108.05 56.11 108.1 55.95 107.38C55.79 106.67 56.39 106.46 56.95 106.19C60.25 104.55 60.93 101.72 58.62 98.75C57.02 96.69 55.67 94.48 54.81 92.07C53.97 89.71 52.36 88.46 50.24 87.51C46.39 85.79 43.25 83.36 42.27 78.94C42.1 78.16 41.55 77.22 42.78 76.9C43.77 76.65 44.01 77.5 44.18 78.26C45.08 82.27 48.04 84.28 51.5 85.76C53.95 86.82 55.84 88.25 56.67 91.03C57.43 93.58 59.07 95.76 60.61 97.93C61.56 99.26 62.05 100.72 62.04 102.35V102.34Z" fill="#F5F0E8"/>
<path d="M76.88 103.11C76.92 105.25 75.37 107.64 73.73 107.96C73.06 108.09 72.33 108.16 72 107.41C71.69 106.7 72.36 106.42 72.82 106.09C73.15 105.85 73.49 105.61 73.81 105.35C74.67 104.64 74.91 103.7 74.61 102.66C74.29 101.57 73.36 101.43 72.41 101.46C69.62 101.57 67.43 100.49 65.85 98.19C65.38 97.5 64.81 96.61 65.66 95.98C66.41 95.42 67.04 96.19 67.48 96.79C68.81 98.61 70.54 99.35 72.81 99.33C75.29 99.31 76.85 100.92 76.89 103.1L76.88 103.11Z" fill="#F5F0E8"/>
<path d="M99.5 104.22C99.54 106.54 96.02 108.87 93.89 107.91C93.63 107.79 93.36 107.51 93.28 107.24C93.15 106.82 93.31 106.4 93.77 106.23C94.23 106.05 94.7 105.87 95.19 105.8C96.14 105.67 97.17 105.4 97.34 104.42C97.55 103.25 96.26 103.14 95.54 102.71C93.08 101.26 91.51 99.32 91.68 96.29C91.72 95.59 91.8 94.9 92.69 94.86C93.46 94.83 93.68 95.57 93.69 96.07C93.71 98.92 95.52 100.3 97.79 101.42C98.88 101.96 99.59 102.88 99.51 104.22H99.5Z" fill="#F5F0E8"/>
<path d="M57.55 50C58.73 50.14 59.81 50.24 60.75 50.84C61.28 51.17 61.69 51.6 61.4 52.26C61.11 52.91 60.63 52.83 59.97 52.7C55.99 51.9 55.82 52.03 54.05 55.85C53.78 56.43 53.36 56.96 52.94 57.45C52.69 57.74 52.33 58.04 51.86 57.74C51.47 57.5 51.33 57.14 51.32 56.69C51.29 53.91 55 50 57.55 50Z" fill="#F5F0E8"/>
</svg>
