<svg width="129" height="129" viewBox="0 0 129 129" fill="none" xmlns="http://www.w3.org/2000/svg">
<circle cx="64.5" cy="64.5" r="64.5" fill="#FD5141"/>
<path d="M23.98 77.74C22.96 77.78 22.02 77.65 21.16 77.35C20.32 77.07 19.63 76.68 19.09 76.18C18.57 75.68 18.24 75.1 18.1 74.44C17.96 73.76 18.08 73.07 18.46 72.37C18.98 71.53 20.02 71.28 21.58 71.62C22.76 71.86 23.57 71.99 24.01 72.01C24.47 72.03 24.86 71.97 25.18 71.83C26.64 71.35 27.46 70.83 27.64 70.27C27.76 69.85 27.5 69.36 26.86 68.8C26.6 68.56 26.31 68.32 25.99 68.08C25.67 67.84 25.4 67.6 25.18 67.36C24.18 66.62 23.39 65.77 22.81 64.81C22.25 63.83 22.02 62.77 22.12 61.63C22.22 60.49 22.41 59.55 22.69 58.81C22.97 58.05 23.32 57.38 23.74 56.8C24.48 55.78 25.44 54.95 26.62 54.31C27.98 53.61 29.07 53.16 29.89 52.96C31.51 52.6 33.15 52.57 34.81 52.87C35.37 52.97 35.85 53.16 36.25 53.44C36.65 53.72 37.05 54.01 37.45 54.31C38.15 55.01 38.32 55.72 37.96 56.44C37.82 56.76 37.6 57.02 37.3 57.22C37 57.42 36.68 57.53 36.34 57.55C36.38 58.09 36.28 58.49 36.04 58.75C35.58 59.21 34.78 59.51 33.64 59.65C32 59.53 30.89 59.62 30.31 59.92C29.63 60.28 29.38 61.06 29.56 62.26C29.6 62.52 29.76 62.79 30.04 63.07C30.34 63.35 30.68 63.65 31.06 63.97C31.46 64.29 31.87 64.65 32.29 65.05C32.73 65.45 33.11 65.91 33.43 66.43C34.55 68.27 34.46 70.42 33.16 72.88C32.2 74.72 30.56 76.1 28.24 77.02C27.04 77.5 25.62 77.74 23.98 77.74ZM45.9927 68.32C45.4527 69.88 44.9027 71.38 44.3427 72.82C43.7827 74.26 43.3127 75.35 42.9327 76.09C42.5727 76.85 42.2527 77.37 41.9727 77.65C41.6927 77.93 41.4027 78.12 41.1027 78.22C40.8227 78.32 40.5327 78.36 40.2327 78.34C39.9527 78.32 39.6627 78.3 39.3627 78.28C37.6827 78.02 37.1627 76.81 37.8027 74.65C38.2227 72.93 38.5627 71.53 38.8227 70.45C39.0827 69.35 39.2927 68.45 39.4527 67.75C39.6327 67.03 39.7827 66.44 39.9027 65.98C40.0227 65.5 40.1527 65.03 40.2927 64.57C40.4327 64.11 40.6027 63.59 40.8027 63.01C41.0227 62.43 41.3027 61.66 41.6427 60.7C40.8827 60.8 40.2027 60.72 39.6027 60.46C38.7227 60.08 38.3627 59.26 38.5227 58C38.6027 57.42 38.9127 56.88 39.4527 56.38C39.7327 56.12 40.0627 55.84 40.4427 55.54C41.2227 54.92 42.7727 54.26 45.0927 53.56C47.4927 52.84 49.5527 52.5 51.2727 52.54C51.7327 52.46 52.2027 52.52 52.6827 52.72C53.1827 52.9 53.5827 53.15 53.8827 53.47C54.1827 53.79 54.3327 54.14 54.3327 54.52C54.3527 54.9 54.1127 55.24 53.6127 55.54C53.3727 55.7 53.2027 55.97 53.1027 56.35C53.0027 56.71 52.8927 57.1 52.7727 57.52C52.6527 57.92 52.4727 58.29 52.2327 58.63C52.0127 58.97 51.6527 59.17 51.1527 59.23C50.8927 59.37 50.5227 59.47 50.0427 59.53C49.5827 59.59 49.2727 59.64 49.1127 59.68C48.9727 59.7 48.8927 59.75 48.8727 59.83C48.5127 60.89 48.0827 62.18 47.5827 63.7C47.0827 65.2 46.5527 66.74 45.9927 68.32ZM41.9427 60.37C41.9027 60.37 41.8827 60.38 41.8827 60.4C41.8827 60.4 41.9027 60.4 41.9427 60.4V60.37ZM67.2013 55.66C67.8813 56.02 68.3113 56.55 68.4913 57.25C68.0913 59.49 67.7313 61.72 67.4113 63.94C67.0913 66.14 66.7813 67.99 66.4813 69.49C66.1813 70.97 65.9713 72.08 65.8513 72.82C65.7513 73.56 65.6313 74.3 65.4913 75.04L65.3113 75.67C65.2713 75.89 65.2313 76.09 65.1913 76.27C65.1513 76.47 65.1113 76.68 65.0713 76.9C64.5113 77.54 63.7513 77.86 62.7913 77.86C61.7713 77.86 60.9613 77.6 60.3613 77.08C60.0013 76.8 59.9413 76.21 60.1813 75.31C60.2813 74.95 60.3413 74.49 60.3613 73.93C60.4013 73.35 60.4413 72.87 60.4813 72.49V72.43C59.8813 72.65 59.3413 72.94 58.8613 73.3C58.3813 73.64 58.0813 73.86 57.9613 73.96C57.8413 74.04 57.6813 74.11 57.4813 74.17C57.2813 74.21 57.1013 74.24 56.9413 74.26C56.5613 74.28 56.3013 74.34 56.1613 74.44C55.0013 76.52 53.9613 77.68 53.0413 77.92C52.4613 78.1 51.8813 78.14 51.3013 78.04C50.7213 77.96 50.2613 77.62 49.9213 77.02C49.2813 76.42 49.4413 74.78 50.4013 72.1C50.9213 70.68 51.6613 68.98 52.6213 67C53.6013 65 54.5413 63.26 55.4413 61.78C57.3813 58.6 59.5113 55.92 61.8313 53.74C62.2113 53.58 62.6213 53.4 63.0613 53.2C63.5013 52.98 63.9313 52.86 64.3513 52.84C64.7913 52.82 65.2413 52.87 65.7013 52.99C66.1613 53.11 66.5513 53.29 66.8713 53.53C67.6113 54.09 67.7213 54.8 67.2013 55.66ZM60.7813 63.55C60.3613 64.75 59.9413 65.86 59.5213 66.88C59.1013 67.88 58.7413 68.76 58.4413 69.52L60.8113 69.43C60.9713 68.15 61.1513 66.88 61.3513 65.62C61.5513 64.36 61.7413 63.1 61.9213 61.84L60.7813 63.55ZM59.9713 69.55C60.2513 69.55 60.5313 69.53 60.8113 69.49V69.46C60.5513 69.48 60.3113 69.5 60.0913 69.52C59.8713 69.54 59.8313 69.55 59.9713 69.55ZM72.7949 76.09C72.6149 76.89 71.9949 77.38 70.9349 77.56C69.9549 77.74 69.0249 77.63 68.1449 77.23C67.1649 76.81 66.7349 76.22 66.8549 75.46C66.7349 74.3 67.3449 71.78 68.6849 67.9C70.6849 62.08 72.6849 57.92 74.6849 55.42C75.2049 54.78 75.6449 54.37 76.0049 54.19C76.3849 53.99 76.8149 53.81 77.2949 53.65C77.7749 53.49 78.2749 53.34 78.7949 53.2C79.8349 52.92 80.8149 52.73 81.7349 52.63C82.6749 52.51 83.5149 52.62 84.2549 52.96C84.9949 53.28 85.5649 53.76 85.9649 54.4C86.3849 55.04 86.6449 55.8 86.7449 56.68C86.8449 57.54 86.8149 58.45 86.6549 59.41C86.4949 60.35 86.2049 61.31 85.7849 62.29C85.3649 63.25 84.8349 64.15 84.1949 64.99C82.7949 66.83 81.1549 68.02 79.2749 68.56L79.5749 69.07C79.8349 69.47 80.1449 69.91 80.5049 70.39C80.8849 70.87 81.2549 71.36 81.6149 71.86C81.9949 72.36 82.3349 72.86 82.6349 73.36C82.9349 73.86 83.1549 74.33 83.2949 74.77C83.6149 75.75 83.3649 76.46 82.5449 76.9C81.8849 77.3 81.3649 77.4 80.9849 77.2C80.8249 77.1 80.6649 76.97 80.5049 76.81C80.3449 76.67 80.1249 76.55 79.8449 76.45C78.6649 76.79 77.7649 76.49 77.1449 75.55C76.7649 74.95 76.4749 74.4 76.2749 73.9C76.0749 73.4 75.9049 72.98 75.7649 72.64C75.4049 71.9 74.9949 71.26 74.5349 70.72C74.3149 71.26 74.0649 71.95 73.7849 72.79C73.4449 73.85 73.0649 74.95 72.6449 76.09H72.7949ZM78.8549 58.63C78.4749 59.49 78.2149 60.09 78.0749 60.43C77.7949 61.11 77.4849 61.86 77.1449 62.68C77.0849 63.12 77.0349 63.43 76.9949 63.61L77.4149 63.19L77.9249 62.95C78.2849 62.75 78.6149 62.57 78.9149 62.41C79.2149 62.25 79.4849 62.05 79.7249 61.81C80.1849 61.35 80.5849 60.6 80.9249 59.56C80.9249 59.36 80.9549 59.16 81.0149 58.96C81.0949 58.76 81.1449 58.56 81.1649 58.36C81.2449 57.92 81.0649 57.61 80.6249 57.43C80.2249 57.39 79.7249 57.72 79.1249 58.42C79.0049 58.56 78.9149 58.63 78.8549 58.63ZM95.4459 68.32C94.9059 69.88 94.3559 71.38 93.7959 72.82C93.2359 74.26 92.7659 75.35 92.3859 76.09C92.0259 76.85 91.7059 77.37 91.4259 77.65C91.1459 77.93 90.8559 78.12 90.5559 78.22C90.2759 78.32 89.9859 78.36 89.6859 78.34C89.4059 78.32 89.1159 78.3 88.8159 78.28C87.1359 78.02 86.6159 76.81 87.2559 74.65C87.6759 72.93 88.0159 71.53 88.2759 70.45C88.5359 69.35 88.7459 68.45 88.9059 67.75C89.0859 67.03 89.2359 66.44 89.3559 65.98C89.4759 65.5 89.6059 65.03 89.7459 64.57C89.8859 64.11 90.0559 63.59 90.2559 63.01C90.4759 62.43 90.7559 61.66 91.0959 60.7C90.3359 60.8 89.6559 60.72 89.0559 60.46C88.1759 60.08 87.8159 59.26 87.9759 58C88.0559 57.42 88.3659 56.88 88.9059 56.38C89.1859 56.12 89.5159 55.84 89.8959 55.54C90.6759 54.92 92.2259 54.26 94.5459 53.56C96.9459 52.84 99.0059 52.5 100.726 52.54C101.186 52.46 101.656 52.52 102.136 52.72C102.636 52.9 103.036 53.15 103.336 53.47C103.636 53.79 103.786 54.14 103.786 54.52C103.806 54.9 103.566 55.24 103.066 55.54C102.826 55.7 102.656 55.97 102.556 56.35C102.456 56.71 102.346 57.1 102.226 57.52C102.106 57.92 101.926 58.29 101.686 58.63C101.466 58.97 101.106 59.17 100.606 59.23C100.346 59.37 99.9759 59.47 99.4959 59.53C99.0359 59.59 98.7259 59.64 98.5659 59.68C98.4259 59.7 98.3459 59.75 98.3259 59.83C97.9659 60.89 97.5359 62.18 97.0359 63.7C96.5359 65.2 96.0059 66.74 95.4459 68.32ZM91.3959 60.37C91.3559 60.37 91.3359 60.38 91.3359 60.4C91.3359 60.4 91.3559 60.4 91.3959 60.4V60.37Z" fill="#FCF7EF"/>
</svg>
