<svg width="843" height="303" viewBox="0 0 843 303" fill="none" xmlns="http://www.w3.org/2000/svg">
<path d="M109.44 88.96C113.52 91.12 116.1 94.3 117.18 98.5C114.78 111.94 112.62 125.32 110.7 138.64C108.78 151.84 106.92 162.94 105.12 171.94C103.32 180.82 102.06 187.48 101.34 191.92C100.74 196.36 100.02 200.8 99.18 205.24L98.1 209.02C97.86 210.34 97.62 211.54 97.38 212.62C97.14 213.82 96.9 215.08 96.66 216.4C93.3 220.24 88.74 222.16 82.98 222.16C76.86 222.16 72 220.6 68.4 217.48C66.24 215.8 65.88 212.26 67.32 206.86C67.92 204.7 68.28 201.94 68.4 198.58C68.64 195.1 68.88 192.22 69.12 189.94V189.58C65.52 190.9 62.28 192.64 59.4 194.8C56.52 196.84 54.72 198.16 54 198.76C53.28 199.24 52.32 199.66 51.12 200.02C49.92 200.26 48.84 200.44 47.88 200.56C45.6 200.68 44.04 201.04 43.2 201.64C36.24 214.12 30 221.08 24.48 222.52C21 223.6 17.52 223.84 14.04 223.24C10.56 222.76 7.79999 220.72 5.75999 217.12C1.91999 213.52 2.87999 203.68 8.63999 187.6C11.76 179.08 16.2 168.88 21.96 157C27.84 145 33.48 134.56 38.88 125.68C50.52 106.6 63.3 90.52 77.22 77.44C79.5 76.48 81.96 75.4 84.6 74.2C87.24 72.88 89.82 72.16 92.34 72.04C94.98 71.92 97.68 72.22 100.44 72.94C103.2 73.66 105.54 74.74 107.46 76.18C111.9 79.54 112.56 83.8 109.44 88.96ZM70.92 136.3C68.4 143.5 65.88 150.16 63.36 156.28C60.84 162.28 58.68 167.56 56.88 172.12L71.1 171.58C72.06 163.9 73.14 156.28 74.34 148.72C75.54 141.16 76.68 133.6 77.76 126.04L70.92 136.3ZM66.06 172.3C67.74 172.3 69.42 172.18 71.1 171.94V171.76C69.54 171.88 68.1 172 66.78 172.12C65.46 172.24 65.22 172.3 66.06 172.3ZM223.462 137.92C222.982 143.08 222.022 148.36 220.582 153.76C219.262 159.16 217.282 164.44 214.642 169.6C212.122 174.76 209.062 179.74 205.462 184.54C201.982 189.34 198.082 193.78 193.762 197.86C189.442 201.94 184.822 205.36 179.902 208.12C169.342 214.36 159.142 216.58 149.302 214.78C147.142 219.46 143.902 222.4 139.582 223.6C135.382 224.92 131.182 224.92 126.982 223.6C122.902 222.4 119.302 220.06 116.182 216.58C113.062 213.1 111.502 208.36 111.502 202.36C111.502 196.24 111.922 190 112.762 183.64C113.602 177.28 114.742 171.16 116.182 165.28C118.462 155.56 121.282 146.44 124.642 137.92C132.562 118.6 137.062 105.04 138.142 97.24C139.702 86.8 142.582 80.32 146.782 77.8C153.742 73.72 160.342 71.98 166.582 72.58C172.822 73.18 178.462 74.68 183.502 77.08C191.782 81.04 200.722 87.7 210.322 97.06C220.882 107.26 225.262 120.88 223.462 137.92ZM152.722 191.92C158.842 188.8 163.762 185.62 167.482 182.38C171.322 179.02 174.922 175.96 178.282 173.2C183.442 168.04 187.222 161.92 189.622 154.84C194.902 139.24 191.542 127.42 179.542 119.38C177.742 118.06 175.042 116.26 171.442 113.98C169.762 117.82 168.502 121.84 167.662 126.04C166.942 130.24 165.922 134.32 164.602 138.28L159.742 154.12L155.782 171.22C155.542 173.62 155.182 175.96 154.702 178.24C154.222 180.4 153.802 182.68 153.442 185.08L152.722 191.92ZM254.917 91.84C262.477 83.2 270.877 77.8 280.117 75.64C286.477 74.08 292.477 74.32 298.117 76.36C302.557 71.68 308.317 70 315.397 71.32C321.877 72.52 327.397 76.18 331.957 82.3C332.197 83.14 332.677 84.4 333.397 86.08C334.237 87.76 335.017 89.62 335.737 91.66C341.017 103.9 341.437 119.98 336.997 139.9C331.477 164.62 321.697 185.56 307.657 202.72C303.337 208 298.477 212.38 293.077 215.86C284.437 222.46 274.117 225.4 262.117 224.68C254.677 224.32 248.437 222.46 243.397 219.1C223.357 209.14 216.817 188.38 223.777 156.82C229.537 130.9 239.917 109.24 254.917 91.84ZM257.077 187.42L256.897 188.5L257.257 190.48C257.977 194.2 259.177 197.08 260.857 199.12C262.537 201.04 263.917 202.24 264.997 202.72C266.197 201.76 267.397 200.86 268.597 200.02C269.797 199.18 270.877 198.16 271.837 196.96C279.997 186.88 286.357 173.68 290.917 157.36C295.477 141.04 297.157 125.92 295.957 112C291.277 118 286.357 124.9 281.197 132.7C276.037 140.5 271.957 147.16 268.957 152.68C262.117 165.52 258.157 177.1 257.077 187.42ZM425.677 172.48C420.877 176.08 415.837 178.72 410.557 180.4C405.397 181.96 400.237 182.38 395.077 181.66C389.917 180.94 385.477 178.72 381.757 175C378.397 185.68 376.117 196.24 374.917 206.68C374.437 208.6 373.597 210.34 372.397 211.9C370.237 218.26 365.497 222.52 358.177 224.68C350.977 226.72 344.257 226.36 338.017 223.6C335.137 222.28 332.737 220.36 330.817 217.84C328.897 215.32 327.937 212.26 327.937 208.66C336.217 179.98 344.197 156.46 351.877 138.1C353.557 134.26 354.877 131.14 355.837 128.74C356.917 126.34 357.877 124.3 358.717 122.62C359.557 120.94 360.277 119.5 360.877 118.3C361.597 116.98 362.437 115.54 363.397 113.98C365.557 110.38 368.017 106.18 370.777 101.38C373.657 96.46 376.057 92.8 377.977 90.4C380.017 88 382.117 85.96 384.277 84.28C386.557 82.48 389.017 80.8 391.657 79.24C394.417 77.68 397.837 75.64 401.917 73.12C405.997 70.6 410.317 69.1 414.877 68.62C419.557 68.02 423.997 68.38 428.197 69.7C437.077 72.46 443.617 78.64 447.818 88.24C451.417 97.12 452.017 109.06 449.617 124.06C445.897 146.98 437.917 163.12 425.677 172.48ZM388.057 156.46C397.897 154.3 404.737 147.88 408.577 137.2C411.817 128.2 412.477 118 410.557 106.6C407.797 111.28 405.277 116.14 402.997 121.18C400.837 126.22 398.857 130.72 397.057 134.68C393.097 143.56 390.097 150.82 388.057 156.46ZM505.138 164.92C501.898 174.28 498.598 183.28 495.238 191.92C491.878 200.56 489.058 207.1 486.778 211.54C484.618 216.1 482.698 219.22 481.018 220.9C479.338 222.58 477.598 223.72 475.798 224.32C474.118 224.92 472.378 225.16 470.578 225.04C468.898 224.92 467.158 224.8 465.358 224.68C455.278 223.12 452.158 215.86 455.998 202.9C458.518 192.58 460.558 184.18 462.118 177.7C463.678 171.1 464.938 165.7 465.898 161.5C466.978 157.18 467.878 153.64 468.598 150.88C469.318 148 470.098 145.18 470.938 142.42C471.778 139.66 472.798 136.54 473.998 133.06C475.318 129.58 476.998 124.96 479.038 119.2C474.478 119.8 470.398 119.32 466.798 117.76C461.518 115.48 459.358 110.56 460.318 103C460.798 99.52 462.658 96.28 465.898 93.28C467.578 91.72 469.558 90.04 471.838 88.24C476.518 84.52 485.818 80.56 499.738 76.36C514.138 72.04 526.498 70 536.818 70.24C539.578 69.76 542.398 70.12 545.278 71.32C548.278 72.4 550.678 73.9 552.478 75.82C554.278 77.74 555.178 79.84 555.178 82.12C555.298 84.4 553.858 86.44 550.858 88.24C549.418 89.2 548.398 90.82 547.798 93.1C547.198 95.26 546.538 97.6 545.818 100.12C545.098 102.52 544.018 104.74 542.578 106.78C541.258 108.82 539.098 110.02 536.098 110.38C534.538 111.22 532.318 111.82 529.438 112.18C526.678 112.54 524.818 112.84 523.858 113.08C523.018 113.2 522.538 113.5 522.418 113.98C520.258 120.34 517.678 128.08 514.678 137.2C511.678 146.2 508.498 155.44 505.138 164.92ZM480.838 117.22C480.598 117.22 480.478 117.28 480.478 117.4C480.478 117.4 480.598 117.4 480.838 117.4V117.22ZM608.989 89.32C604.789 102.4 600.889 114.22 597.289 124.78C593.809 135.34 590.569 145.06 587.569 153.94C584.689 162.82 581.989 171.04 579.469 178.6C576.949 186.04 574.609 193.18 572.449 200.02C571.249 207.94 567.349 213.52 560.749 216.76C556.909 218.56 552.349 219.46 547.069 219.46C541.789 219.46 537.829 218.86 535.189 217.66C532.549 216.58 530.869 214.96 530.149 212.8C529.309 210.64 529.309 208.06 530.149 205.06C530.869 201.94 532.189 197.74 534.109 192.46C536.029 187.06 538.429 179.8 541.309 170.68C544.309 161.56 547.429 152.32 550.669 142.96C558.709 119.56 565.069 103.36 569.749 94.36C571.549 91 573.349 88.78 575.149 87.7C576.949 86.5 578.689 85.66 580.369 85.18C582.049 84.58 583.609 83.92 585.049 83.2C586.489 82.48 587.749 80.68 588.829 77.8C590.029 74.92 592.129 72.94 595.129 71.86C598.249 70.78 601.129 70.72 603.769 71.68C606.529 72.52 608.569 74.44 609.889 77.44C611.329 80.32 611.029 84.28 608.989 89.32ZM635.483 91.84C643.043 83.2 651.443 77.8 660.683 75.64C667.043 74.08 673.043 74.32 678.683 76.36C683.123 71.68 688.883 70 695.963 71.32C702.443 72.52 707.963 76.18 712.523 82.3C712.763 83.14 713.243 84.4 713.963 86.08C714.803 87.76 715.583 89.62 716.303 91.66C721.583 103.9 722.003 119.98 717.563 139.9C712.043 164.62 702.263 185.56 688.223 202.72C683.903 208 679.043 212.38 673.643 215.86C665.003 222.46 654.683 225.4 642.683 224.68C635.243 224.32 629.003 222.46 623.963 219.1C603.923 209.14 597.383 188.38 604.343 156.82C610.103 130.9 620.483 109.24 635.483 91.84ZM637.643 187.42L637.463 188.5L637.823 190.48C638.543 194.2 639.743 197.08 641.423 199.12C643.103 201.04 644.483 202.24 645.563 202.72C646.763 201.76 647.963 200.86 649.163 200.02C650.363 199.18 651.443 198.16 652.403 196.96C660.563 186.88 666.923 173.68 671.483 157.36C676.043 141.04 677.723 125.92 676.523 112C671.843 118 666.923 124.9 661.763 132.7C656.603 140.5 652.523 147.16 649.523 152.68C642.683 165.52 638.723 177.1 637.643 187.42ZM726.144 141.16C728.544 133.12 730.464 126.94 731.904 122.62C733.464 118.18 734.964 114.22 736.404 110.74C737.844 107.26 739.464 103.9 741.264 100.66C743.184 97.42 745.224 94.48 747.384 91.84C749.664 89.08 752.064 86.92 754.584 85.36C757.104 83.8 759.744 83.02 762.504 83.02C765.264 83.02 768.144 84.1 771.144 86.26C775.944 98.26 778.884 106.3 779.964 110.38C781.404 116.38 782.724 124.84 783.924 135.76C785.004 133 786.204 130.12 787.524 127.12C788.964 124 790.344 120.88 791.664 117.76C795.384 109.84 797.724 103.84 798.684 99.76C801.324 91.36 806.784 85.06 815.064 80.86C822.264 77.26 828.984 76.12 835.224 77.44C837.744 77.92 839.484 78.94 840.444 80.5C841.524 82.06 841.524 83.68 840.444 85.36C839.484 87.04 839.124 88.66 839.364 90.22C839.724 91.66 840.024 93.4 840.264 95.44C840.624 100.96 839.664 105.88 837.384 110.2C835.104 114.4 832.764 119.68 830.364 126.04C827.964 132.28 825.504 138.94 822.984 146.02C820.584 153.1 818.124 160.3 815.604 167.62C813.084 174.94 810.624 181.6 808.224 187.6C802.944 201.4 798.624 209.02 795.264 210.46C790.704 213.22 787.344 214.84 785.184 215.32C782.424 215.8 778.524 215.8 773.484 215.32C770.364 215.08 767.664 211.06 765.384 203.26C764.064 199.06 762.864 193.24 761.784 185.8C759.864 172.84 758.544 165.7 757.824 164.38C753.024 179.98 749.604 189.82 747.564 193.9C745.644 197.98 744.144 200.68 743.064 202C742.104 203.32 740.904 205.06 739.464 207.22C737.904 211.54 734.184 214.72 728.304 216.76C723.264 218.68 718.704 218.98 714.624 217.66C710.184 216.22 708.864 213.46 710.664 209.38C711.984 194.98 717.144 172.24 726.144 141.16Z" fill="#780E08"/>
<path d="M238.1 294V265.2H240.82V277.56H257.86V265.2H260.58V294H257.86V279.88H240.82V294H238.1ZM264.447 273.28H267.047L273.767 291.04L280.487 273.28H283.087L275.047 294H272.367L264.447 273.28ZM300.207 283.12C299.194 283.547 298.167 283.827 297.127 283.96C296.087 284.093 295.047 284.2 294.007 284.28C292.167 284.413 290.727 284.827 289.687 285.52C288.674 286.213 288.167 287.267 288.167 288.68C288.167 289.32 288.287 289.88 288.527 290.36C288.794 290.813 289.127 291.2 289.527 291.52C289.954 291.813 290.434 292.04 290.967 292.2C291.527 292.333 292.087 292.4 292.647 292.4C293.607 292.4 294.541 292.28 295.447 292.04C296.354 291.8 297.154 291.44 297.847 290.96C298.567 290.453 299.141 289.827 299.567 289.08C299.994 288.307 300.207 287.4 300.207 286.36V283.12ZM296.167 281.92C296.621 281.867 297.154 281.787 297.767 281.68C298.407 281.573 298.927 281.427 299.327 281.24C299.727 281.053 299.967 280.747 300.047 280.32C300.154 279.867 300.207 279.453 300.207 279.08C300.207 277.853 299.807 276.853 299.007 276.08C298.234 275.28 296.914 274.88 295.047 274.88C294.221 274.88 293.461 274.96 292.767 275.12C292.074 275.253 291.461 275.507 290.927 275.88C290.421 276.227 289.994 276.707 289.647 277.32C289.327 277.907 289.114 278.653 289.007 279.56H286.567C286.647 278.333 286.927 277.293 287.407 276.44C287.887 275.56 288.501 274.853 289.247 274.32C290.021 273.76 290.901 273.36 291.887 273.12C292.901 272.853 293.967 272.72 295.087 272.72C296.127 272.72 297.101 272.84 298.007 273.08C298.941 273.293 299.741 273.653 300.407 274.16C301.101 274.64 301.634 275.293 302.007 276.12C302.407 276.947 302.607 277.96 302.607 279.16V290.44C302.607 291.373 302.767 291.973 303.087 292.24C303.434 292.48 304.114 292.413 305.127 292.04V293.92C304.941 293.973 304.661 294.053 304.287 294.16C303.941 294.267 303.594 294.32 303.247 294.32C302.874 294.32 302.514 294.28 302.167 294.2C301.767 294.147 301.447 294.027 301.207 293.84C300.967 293.627 300.767 293.387 300.607 293.12C300.474 292.827 300.381 292.52 300.327 292.2C300.274 291.853 300.247 291.493 300.247 291.12C299.234 292.24 298.074 293.093 296.767 293.68C295.461 294.267 294.047 294.56 292.527 294.56C291.621 294.56 290.741 294.44 289.887 294.2C289.061 293.96 288.327 293.587 287.687 293.08C287.047 292.573 286.541 291.96 286.167 291.24C285.794 290.493 285.607 289.613 285.607 288.6C285.607 285.08 288.021 283 292.847 282.36L296.167 281.92ZM324.874 283.56C324.874 282.387 324.714 281.28 324.394 280.24C324.074 279.173 323.607 278.253 322.994 277.48C322.407 276.68 321.674 276.053 320.794 275.6C319.94 275.12 318.967 274.88 317.874 274.88C316.62 274.88 315.54 275.133 314.634 275.64C313.727 276.12 312.98 276.787 312.394 277.64C311.807 278.493 311.38 279.493 311.114 280.64C310.847 281.76 310.74 282.973 310.794 284.28C310.794 285.587 310.967 286.747 311.314 287.76C311.687 288.747 312.194 289.587 312.834 290.28C313.474 290.973 314.22 291.507 315.074 291.88C315.927 292.227 316.86 292.4 317.874 292.4C318.994 292.4 319.994 292.173 320.874 291.72C321.754 291.267 322.487 290.653 323.074 289.88C323.66 289.08 324.1 288.147 324.394 287.08C324.714 285.987 324.874 284.813 324.874 283.56ZM324.874 265.2H327.274V294H324.874V290.36H324.794C324.447 291.053 323.994 291.667 323.434 292.2C322.9 292.707 322.3 293.133 321.634 293.48C320.994 293.827 320.327 294.093 319.634 294.28C318.94 294.467 318.26 294.56 317.594 294.56C315.914 294.56 314.487 294.28 313.314 293.72C312.14 293.16 311.167 292.4 310.394 291.44C309.647 290.453 309.1 289.293 308.754 287.96C308.407 286.627 308.234 285.2 308.234 283.68C308.234 282.24 308.42 280.853 308.794 279.52C309.167 278.187 309.727 277.027 310.474 276.04C311.247 275.027 312.207 274.227 313.354 273.64C314.527 273.027 315.9 272.72 317.474 272.72C318.94 272.72 320.34 273.053 321.674 273.72C323.034 274.36 324.1 275.32 324.874 276.6V265.2ZM344.82 294V265.2H347.22V294H344.82ZM368.327 282.2C368.327 281.187 368.18 280.24 367.887 279.36C367.62 278.453 367.207 277.68 366.647 277.04C366.114 276.373 365.434 275.853 364.607 275.48C363.78 275.08 362.834 274.88 361.767 274.88C360.7 274.88 359.754 275.08 358.927 275.48C358.127 275.88 357.434 276.413 356.847 277.08C356.287 277.747 355.834 278.52 355.487 279.4C355.14 280.28 354.914 281.213 354.807 282.2H368.327ZM354.807 284.2C354.807 285.32 354.954 286.387 355.247 287.4C355.54 288.387 355.967 289.253 356.527 290C357.114 290.72 357.847 291.307 358.727 291.76C359.607 292.187 360.62 292.4 361.767 292.4C363.34 292.4 364.687 291.987 365.807 291.16C366.927 290.333 367.674 289.16 368.047 287.64H370.727C370.434 288.627 370.047 289.547 369.567 290.4C369.087 291.227 368.487 291.96 367.767 292.6C367.047 293.213 366.194 293.693 365.207 294.04C364.22 294.387 363.074 294.56 361.767 294.56C360.114 294.56 358.687 294.28 357.487 293.72C356.287 293.16 355.3 292.4 354.527 291.44C353.754 290.453 353.18 289.307 352.807 288C352.434 286.667 352.247 285.24 352.247 283.72C352.247 282.2 352.46 280.773 352.887 279.44C353.34 278.107 353.967 276.947 354.767 275.96C355.594 274.947 356.594 274.16 357.767 273.6C358.94 273.013 360.274 272.72 361.767 272.72C364.62 272.72 366.86 273.707 368.487 275.68C370.114 277.627 370.914 280.467 370.887 284.2H354.807ZM391.553 283.56C391.553 282.387 391.393 281.28 391.073 280.24C390.753 279.173 390.287 278.253 389.673 277.48C389.087 276.68 388.353 276.053 387.473 275.6C386.62 275.12 385.647 274.88 384.553 274.88C383.3 274.88 382.22 275.133 381.313 275.64C380.407 276.12 379.66 276.787 379.073 277.64C378.487 278.493 378.06 279.493 377.793 280.64C377.527 281.76 377.42 282.973 377.473 284.28C377.473 285.587 377.647 286.747 377.993 287.76C378.367 288.747 378.873 289.587 379.513 290.28C380.153 290.973 380.9 291.507 381.753 291.88C382.607 292.227 383.54 292.4 384.553 292.4C385.673 292.4 386.673 292.173 387.553 291.72C388.433 291.267 389.167 290.653 389.753 289.88C390.34 289.08 390.78 288.147 391.073 287.08C391.393 285.987 391.553 284.813 391.553 283.56ZM391.553 265.2H393.953V294H391.553V290.36H391.473C391.127 291.053 390.673 291.667 390.113 292.2C389.58 292.707 388.98 293.133 388.313 293.48C387.673 293.827 387.007 294.093 386.313 294.28C385.62 294.467 384.94 294.56 384.273 294.56C382.593 294.56 381.167 294.28 379.993 293.72C378.82 293.16 377.847 292.4 377.073 291.44C376.327 290.453 375.78 289.293 375.433 287.96C375.087 286.627 374.913 285.2 374.913 283.68C374.913 282.24 375.1 280.853 375.473 279.52C375.847 278.187 376.407 277.027 377.153 276.04C377.927 275.027 378.887 274.227 380.033 273.64C381.207 273.027 382.58 272.72 384.153 272.72C385.62 272.72 387.02 273.053 388.353 273.72C389.713 274.36 390.78 275.32 391.553 276.6V265.2ZM415.007 282.2C415.007 281.187 414.86 280.24 414.567 279.36C414.3 278.453 413.887 277.68 413.327 277.04C412.793 276.373 412.113 275.853 411.287 275.48C410.46 275.08 409.513 274.88 408.447 274.88C407.38 274.88 406.433 275.08 405.607 275.48C404.807 275.88 404.113 276.413 403.527 277.08C402.967 277.747 402.513 278.52 402.167 279.4C401.82 280.28 401.593 281.213 401.487 282.2H415.007ZM401.487 284.2C401.487 285.32 401.633 286.387 401.927 287.4C402.22 288.387 402.647 289.253 403.207 290C403.793 290.72 404.527 291.307 405.407 291.76C406.287 292.187 407.3 292.4 408.447 292.4C410.02 292.4 411.367 291.987 412.487 291.16C413.607 290.333 414.353 289.16 414.727 287.64H417.407C417.113 288.627 416.727 289.547 416.247 290.4C415.767 291.227 415.167 291.96 414.447 292.6C413.727 293.213 412.873 293.693 411.887 294.04C410.9 294.387 409.753 294.56 408.447 294.56C406.793 294.56 405.367 294.28 404.167 293.72C402.967 293.16 401.98 292.4 401.207 291.44C400.433 290.453 399.86 289.307 399.487 288C399.113 286.667 398.927 285.24 398.927 283.72C398.927 282.2 399.14 280.773 399.567 279.44C400.02 278.107 400.647 276.947 401.447 275.96C402.273 274.947 403.273 274.16 404.447 273.6C405.62 273.013 406.953 272.72 408.447 272.72C411.3 272.72 413.54 273.707 415.167 275.68C416.793 277.627 417.593 280.467 417.567 284.2H401.487ZM424.753 294H422.353V273.28H424.753V277.16H424.833C425.5 275.507 426.353 274.36 427.393 273.72C428.46 273.053 429.86 272.72 431.593 272.72V275.32C430.233 275.293 429.113 275.507 428.233 275.96C427.353 276.413 426.646 277.027 426.113 277.8C425.606 278.573 425.246 279.493 425.033 280.56C424.846 281.6 424.753 282.693 424.753 283.84V294ZM462.686 283.56C462.686 282.387 462.526 281.28 462.206 280.24C461.886 279.173 461.42 278.253 460.806 277.48C460.22 276.68 459.486 276.053 458.606 275.6C457.753 275.12 456.78 274.88 455.686 274.88C454.433 274.88 453.353 275.133 452.446 275.64C451.54 276.12 450.793 276.787 450.206 277.64C449.62 278.493 449.193 279.493 448.926 280.64C448.66 281.76 448.553 282.973 448.606 284.28C448.606 285.587 448.78 286.747 449.126 287.76C449.5 288.747 450.006 289.587 450.646 290.28C451.286 290.973 452.033 291.507 452.886 291.88C453.74 292.227 454.673 292.4 455.686 292.4C456.806 292.4 457.806 292.173 458.686 291.72C459.566 291.267 460.3 290.653 460.886 289.88C461.473 289.08 461.913 288.147 462.206 287.08C462.526 285.987 462.686 284.813 462.686 283.56ZM462.686 265.2H465.086V294H462.686V290.36H462.606C462.26 291.053 461.806 291.667 461.246 292.2C460.713 292.707 460.113 293.133 459.446 293.48C458.806 293.827 458.14 294.093 457.446 294.28C456.753 294.467 456.073 294.56 455.406 294.56C453.726 294.56 452.3 294.28 451.126 293.72C449.953 293.16 448.98 292.4 448.206 291.44C447.46 290.453 446.913 289.293 446.566 287.96C446.22 286.627 446.046 285.2 446.046 283.68C446.046 282.24 446.233 280.853 446.606 279.52C446.98 278.187 447.54 277.027 448.286 276.04C449.06 275.027 450.02 274.227 451.166 273.64C452.34 273.027 453.713 272.72 455.286 272.72C456.753 272.72 458.153 273.053 459.486 273.72C460.846 274.36 461.913 275.32 462.686 276.6V265.2ZM485.179 273.28H487.579V294H485.179V291.12C484.859 291.493 484.499 291.88 484.099 292.28C483.699 292.68 483.233 293.053 482.699 293.4C482.193 293.72 481.593 293.987 480.899 294.2C480.206 294.44 479.406 294.56 478.499 294.56C477.113 294.56 475.953 294.373 475.019 294C474.086 293.6 473.326 293.053 472.739 292.36C472.179 291.667 471.766 290.867 471.499 289.96C471.259 289.027 471.139 288.013 471.139 286.92V273.28H473.539V286.88C473.539 288.667 473.953 290.04 474.779 291C475.606 291.933 476.966 292.4 478.859 292.4C479.846 292.4 480.726 292.213 481.499 291.84C482.299 291.44 482.966 290.893 483.499 290.2C484.033 289.507 484.446 288.68 484.739 287.72C485.033 286.76 485.179 285.707 485.179 284.56V273.28ZM519.499 282.2C519.499 281.187 519.352 280.24 519.059 279.36C518.792 278.453 518.379 277.68 517.819 277.04C517.285 276.373 516.605 275.853 515.779 275.48C514.952 275.08 514.005 274.88 512.939 274.88C511.872 274.88 510.925 275.08 510.099 275.48C509.299 275.88 508.605 276.413 508.019 277.08C507.459 277.747 507.005 278.52 506.659 279.4C506.312 280.28 506.085 281.213 505.979 282.2H519.499ZM505.979 284.2C505.979 285.32 506.125 286.387 506.419 287.4C506.712 288.387 507.139 289.253 507.699 290C508.285 290.72 509.019 291.307 509.899 291.76C510.779 292.187 511.792 292.4 512.939 292.4C514.512 292.4 515.859 291.987 516.979 291.16C518.099 290.333 518.845 289.16 519.219 287.64H521.899C521.605 288.627 521.219 289.547 520.739 290.4C520.259 291.227 519.659 291.96 518.939 292.6C518.219 293.213 517.365 293.693 516.379 294.04C515.392 294.387 514.245 294.56 512.939 294.56C511.285 294.56 509.859 294.28 508.659 293.72C507.459 293.16 506.472 292.4 505.699 291.44C504.925 290.453 504.352 289.307 503.979 288C503.605 286.667 503.419 285.24 503.419 283.72C503.419 282.2 503.632 280.773 504.059 279.44C504.512 278.107 505.139 276.947 505.939 275.96C506.765 274.947 507.765 274.16 508.939 273.6C510.112 273.013 511.445 272.72 512.939 272.72C515.792 272.72 518.032 273.707 519.659 275.68C521.285 277.627 522.085 280.467 522.059 284.2H505.979ZM524.645 275.28V273.28H527.725V270C527.725 268.347 528.059 267.04 528.725 266.08C529.392 265.12 530.525 264.64 532.125 264.64C532.499 264.64 532.845 264.653 533.165 264.68C533.485 264.707 533.805 264.747 534.125 264.8V267C533.592 266.867 533.112 266.8 532.685 266.8C532.072 266.8 531.592 266.92 531.245 267.16C530.899 267.373 530.645 267.667 530.485 268.04C530.325 268.413 530.219 268.84 530.165 269.32C530.139 269.773 530.125 270.24 530.125 270.72V273.28H534.125V275.28H530.125V294H527.725V275.28H524.645ZM545.138 294.08C544.845 294.133 544.458 294.227 543.978 294.36C543.498 294.493 542.965 294.56 542.378 294.56C541.178 294.56 540.258 294.267 539.618 293.68C539.005 293.067 538.698 291.987 538.698 290.44V275.28H535.778V273.28H538.698V267.52H541.098V273.28H544.978V275.28H541.098V289.48C541.098 289.987 541.111 290.427 541.138 290.8C541.165 291.173 541.245 291.48 541.378 291.72C541.511 291.96 541.711 292.133 541.978 292.24C542.271 292.347 542.671 292.4 543.178 292.4C543.498 292.4 543.818 292.373 544.138 292.32C544.485 292.267 544.818 292.2 545.138 292.12V294.08ZM563.991 282.2C563.991 281.187 563.844 280.24 563.551 279.36C563.284 278.453 562.871 277.68 562.311 277.04C561.778 276.373 561.098 275.853 560.271 275.48C559.444 275.08 558.498 274.88 557.431 274.88C556.364 274.88 555.418 275.08 554.591 275.48C553.791 275.88 553.098 276.413 552.511 277.08C551.951 277.747 551.498 278.52 551.151 279.4C550.804 280.28 550.578 281.213 550.471 282.2H563.991ZM550.471 284.2C550.471 285.32 550.618 286.387 550.911 287.4C551.204 288.387 551.631 289.253 552.191 290C552.778 290.72 553.511 291.307 554.391 291.76C555.271 292.187 556.284 292.4 557.431 292.4C559.004 292.4 560.351 291.987 561.471 291.16C562.591 290.333 563.338 289.16 563.711 287.64H566.391C566.098 288.627 565.711 289.547 565.231 290.4C564.751 291.227 564.151 291.96 563.431 292.6C562.711 293.213 561.858 293.693 560.871 294.04C559.884 294.387 558.738 294.56 557.431 294.56C555.778 294.56 554.351 294.28 553.151 293.72C551.951 293.16 550.964 292.4 550.191 291.44C549.418 290.453 548.844 289.307 548.471 288C548.098 286.667 547.911 285.24 547.911 283.72C547.911 282.2 548.124 280.773 548.551 279.44C549.004 278.107 549.631 276.947 550.431 275.96C551.258 274.947 552.258 274.16 553.431 273.6C554.604 273.013 555.938 272.72 557.431 272.72C560.284 272.72 562.524 273.707 564.151 275.68C565.778 277.627 566.578 280.467 566.551 284.2H550.471ZM573.737 294H571.337V273.28H573.737V277.16H573.817C574.484 275.507 575.337 274.36 576.377 273.72C577.444 273.053 578.844 272.72 580.577 272.72V275.32C579.217 275.293 578.097 275.507 577.217 275.96C576.337 276.413 575.631 277.027 575.097 277.8C574.591 278.573 574.231 279.493 574.017 280.56C573.831 281.6 573.737 282.693 573.737 283.84V294ZM590.298 286.72C590.271 285.253 590.364 283.92 590.578 282.72C590.818 281.52 591.458 280.373 592.498 279.28C593.084 278.667 593.698 278.067 594.338 277.48C594.978 276.893 595.564 276.307 596.098 275.72C596.631 275.107 597.071 274.48 597.418 273.84C597.791 273.2 597.978 272.507 597.978 271.76C597.978 271.04 597.831 270.373 597.538 269.76C597.271 269.12 596.871 268.573 596.338 268.12C595.804 267.64 595.151 267.267 594.378 267C593.604 266.733 592.724 266.6 591.738 266.6C590.751 266.6 589.871 266.773 589.098 267.12C588.324 267.467 587.671 267.947 587.138 268.56C586.631 269.173 586.244 269.893 585.978 270.72C585.711 271.52 585.591 272.4 585.618 273.36H583.178C583.071 272.027 583.218 270.813 583.618 269.72C584.018 268.627 584.604 267.693 585.378 266.92C586.178 266.12 587.124 265.507 588.218 265.08C589.311 264.653 590.511 264.44 591.818 264.44C593.178 264.44 594.391 264.627 595.458 265C596.551 265.347 597.471 265.853 598.218 266.52C598.964 267.16 599.538 267.947 599.938 268.88C600.338 269.813 600.538 270.84 600.538 271.96C600.538 273.133 600.271 274.147 599.738 275C599.231 275.827 598.604 276.6 597.858 277.32C597.111 278.04 596.338 278.773 595.538 279.52C594.738 280.24 594.044 281.053 593.458 281.96C593.004 282.653 592.751 283.427 592.698 284.28C592.644 285.107 592.618 285.92 592.618 286.72H590.298ZM590.058 294V290.48H592.978V294H590.058Z" fill="#780E08"/>
</svg>
