<svg width="1190" height="650" viewBox="0 0 1190 650" fill="none" xmlns="http://www.w3.org/2000/svg">
<path d="M69.95 138C73.75 128.8 79.15 125.5 86.15 128.1C88.15 123.7 89.85 120.9 91.25 119.7C92.85 118.5 94.45 117.6 96.05 117C97.65 116.2 99.35 115.4 101.15 114.6C102.95 113.8 105.75 113.1 109.55 112.5C113.35 111.9 117.55 111.6 122.15 111.6C126.75 111.4 131.35 111.6 135.95 112.2C140.75 112.8 144.75 114.1 147.95 116.1C155.75 120.7 157.45 128.1 153.05 138.3C153.45 138.1 153.35 138.3 152.75 138.9L150.05 144L147.95 146.7C146.95 147.7 143.85 153.8 138.65 165C134.45 173 130.15 180.9 125.75 188.7C118.55 202.1 114.15 210.7 112.55 214.5C119.55 210.7 127.65 205.2 136.85 198C154.25 184.6 165.35 176.6 170.15 174C174.95 171.4 178.25 169.8 180.05 169.2C182.05 168.6 183.95 168.5 185.75 168.9C187.55 169.1 189.45 169.6 191.45 170.4L198.95 173.4C203.75 175 206.35 180.8 206.75 190.8C206.95 200.6 204.95 208 200.75 213C182.55 236.6 162.05 252.4 139.25 260.4C132.25 263 125.05 265.2 117.65 267C128.25 268.2 138.35 275.2 147.95 288C155.75 298.4 161.35 309.1 164.75 320.1C168.35 331.1 171.15 339.3 173.15 344.7C175.15 349.9 175.95 353.9 175.55 356.7C175.35 359.7 173.65 361.9 170.45 363.3C167.45 364.9 162.25 366.4 154.85 367.8C151.45 368.4 144.45 364.4 133.85 355.8C129.25 352 124.35 347.9 119.15 343.5C113.95 338.9 108.75 334.6 103.55 330.6C91.55 321.2 83.15 316.3 78.35 315.9C77.95 315.9 77.15 315.7 75.95 315.3L70.55 328.8C67.75 335.4 64.85 342.4 61.85 349.8C59.05 357 55.65 363.5 51.65 369.3C45.45 373.5 38.25 375.2 30.05 374.4C20.65 373.4 14.45 369.6 11.45 363C9.45 356.8 12.75 338.6 21.35 308.4C27.15 287.2 32.15 268.6 36.35 252.6C40.55 236.6 44.15 223.4 47.15 213C50.15 202.4 52.35 194.2 53.75 188.4C55.15 182.4 56.55 176.6 57.95 171C61.35 158 65.35 147 69.95 138ZM293.78 365.4C289.58 366.6 285.58 367.2 281.78 367.2C277.98 367.4 274.08 367.6 270.08 367.8C266.28 368 260.98 368.1 254.18 368.1C247.38 368.1 237.18 367.9 223.58 367.5C220.38 367.7 217.18 367.8 213.98 367.8C210.78 367.8 207.78 367.2 204.98 366C198.78 363.4 194.58 357.4 192.38 348C191.38 343.6 190.28 340.5 189.08 338.7C187.68 336.9 186.58 335.2 185.78 333.6C183.78 330.4 183.98 325.1 186.38 317.7C188.58 310.3 191.48 301.2 195.08 290.4C198.68 279.4 202.78 267.8 207.38 255.6C218.18 226.6 227.88 203.6 236.48 186.6C239.88 179 242.78 172.4 245.18 166.8C247.78 161.2 250.08 156.4 252.08 152.4C254.08 148.2 255.08 146 255.08 145.8C257.08 138.2 264.78 131.8 278.18 126.6C291.18 121.2 302.98 119.8 313.58 122.4C325.38 125.4 330.58 133.2 329.18 145.8C326.38 158.2 322.18 170.6 316.58 183C311.18 195.4 304.98 208.4 297.98 222C290.98 235.6 283.38 250 275.18 265.2C266.98 280.4 258.88 296.9 250.88 314.7C250.68 315.5 251.08 316.2 252.08 316.8C254.68 316.6 258.28 315.8 262.88 314.4C267.68 313 272.58 311.8 277.58 310.8C282.78 309.6 287.88 309 292.88 309C297.88 309 302.08 310.3 305.48 312.9C305.28 316.5 306.18 319.4 308.18 321.6C310.18 323.6 312.18 325.6 314.18 327.6C319.18 332.8 319.58 339.7 315.38 348.3C311.38 356.7 304.18 362.4 293.78 365.4ZM495.62 147.6C502.42 151.2 506.72 156.5 508.52 163.5C504.52 185.9 500.92 208.2 497.72 230.4C494.52 252.4 491.42 270.9 488.42 285.9C485.42 300.7 483.32 311.8 482.12 319.2C481.12 326.6 479.92 334 478.52 341.4L476.72 347.7C476.32 349.9 475.92 351.9 475.52 353.7C475.12 355.7 474.72 357.8 474.32 360C468.72 366.4 461.12 369.6 451.52 369.6C441.32 369.6 433.22 367 427.22 361.8C423.62 359 423.02 353.1 425.42 344.1C426.42 340.5 427.02 335.9 427.22 330.3C427.62 324.5 428.02 319.7 428.42 315.9V315.3C422.42 317.5 417.02 320.4 412.22 324C407.42 327.4 404.42 329.6 403.22 330.6C402.02 331.4 400.42 332.1 398.42 332.7C396.42 333.1 394.62 333.4 393.02 333.6C389.22 333.8 386.62 334.4 385.22 335.4C373.62 356.2 363.22 367.8 354.02 370.2C348.22 372 342.42 372.4 336.62 371.4C330.82 370.6 326.22 367.2 322.82 361.2C316.42 355.2 318.02 338.8 327.62 312C332.82 297.8 340.22 280.8 349.82 261C359.62 241 369.02 223.6 378.02 208.8C397.42 177 418.72 150.2 441.92 128.4C445.72 126.8 449.82 125 454.22 123C458.62 120.8 462.92 119.6 467.12 119.4C471.52 119.2 476.02 119.7 480.62 120.9C485.22 122.1 489.12 123.9 492.32 126.3C499.72 131.9 500.82 139 495.62 147.6ZM431.42 226.5C427.22 238.5 423.02 249.6 418.82 259.8C414.62 269.8 411.02 278.6 408.02 286.2L431.72 285.3C433.32 272.5 435.12 259.8 437.12 247.2C439.12 234.6 441.02 222 442.82 209.4L431.42 226.5ZM423.32 286.5C426.12 286.5 428.92 286.3 431.72 285.9V285.6C429.12 285.8 426.72 286 424.52 286.2C422.32 286.4 421.92 286.5 423.32 286.5ZM551.555 351.9C549.755 359.9 543.555 364.8 532.955 366.6C523.155 368.4 513.855 367.3 505.055 363.3C495.255 359.1 490.955 353.2 492.155 345.6C490.955 334 497.055 308.8 510.455 270C530.455 211.8 550.455 170.2 570.455 145.2C575.655 138.8 580.055 134.7 583.655 132.9C587.455 130.9 591.755 129.1 596.555 127.5C601.355 125.9 606.355 124.4 611.555 123C621.955 120.2 631.755 118.3 640.955 117.3C650.355 116.1 658.755 117.2 666.155 120.6C673.555 123.8 679.255 128.6 683.255 135C687.455 141.4 690.055 149 691.055 157.8C692.055 166.4 691.755 175.5 690.155 185.1C688.555 194.5 685.655 204.1 681.455 213.9C677.255 223.5 671.955 232.5 665.555 240.9C651.555 259.3 635.155 271.2 616.355 276.6L619.355 281.7C621.955 285.7 625.055 290.1 628.655 294.9C632.455 299.7 636.155 304.6 639.755 309.6C643.555 314.6 646.955 319.6 649.955 324.6C652.955 329.6 655.155 334.3 656.555 338.7C659.755 348.5 657.255 355.6 649.055 360C642.455 364 637.255 365 633.455 363C631.855 362 630.255 360.7 628.655 359.1C627.055 357.7 624.855 356.5 622.055 355.5C610.255 358.9 601.255 355.9 595.055 346.5C591.255 340.5 588.355 335 586.355 330C584.355 325 582.655 320.8 581.255 317.4C577.655 310 573.555 303.6 568.955 298.2C566.755 303.6 564.255 310.5 561.455 318.9C558.055 329.5 554.255 340.5 550.055 351.9H551.555ZM612.155 177.3C608.355 185.9 605.755 191.9 604.355 195.3C601.555 202.1 598.455 209.6 595.055 217.8C594.455 222.2 593.955 225.3 593.555 227.1L597.755 222.9L602.855 220.5C606.455 218.5 609.755 216.7 612.755 215.1C615.755 213.5 618.455 211.5 620.855 209.1C625.455 204.5 629.455 197 632.855 186.6C632.855 184.6 633.155 182.6 633.755 180.6C634.555 178.6 635.055 176.6 635.255 174.6C636.055 170.2 634.255 167.1 629.855 165.3C625.855 164.9 620.855 168.2 614.855 175.2C613.655 176.6 612.755 177.3 612.155 177.3ZM871.522 274.2C866.122 289.8 860.622 304.8 855.022 319.2C849.422 333.6 844.722 344.5 840.922 351.9C837.322 359.5 834.122 364.7 831.322 367.5C828.522 370.3 825.622 372.2 822.622 373.2C819.822 374.2 816.922 374.6 813.922 374.4C811.122 374.2 808.222 374 805.222 373.8C788.422 371.2 783.222 359.1 789.622 337.5C793.822 320.3 797.222 306.3 799.822 295.5C802.422 284.5 804.522 275.5 806.122 268.5C807.922 261.3 809.422 255.4 810.622 250.8C811.822 246 813.122 241.3 814.522 236.7C815.922 232.1 817.622 226.9 819.622 221.1C821.822 215.3 824.622 207.6 828.022 198C820.422 199 813.622 198.2 807.622 195.6C798.822 191.8 795.222 183.6 796.822 171C797.622 165.2 800.722 159.8 806.122 154.8C808.922 152.2 812.222 149.4 816.022 146.4C823.822 140.2 839.322 133.6 862.522 126.6C886.522 119.4 907.122 116 924.322 116.4C928.922 115.6 933.622 116.2 938.422 118.2C943.422 120 947.422 122.5 950.422 125.7C953.422 128.9 954.922 132.4 954.922 136.2C955.122 140 952.722 143.4 947.722 146.4C945.322 148 943.622 150.7 942.622 154.5C941.622 158.1 940.522 162 939.322 166.2C938.122 170.2 936.322 173.9 933.922 177.3C931.722 180.7 928.122 182.7 923.122 183.3C920.522 184.7 916.822 185.7 912.022 186.3C907.422 186.9 904.322 187.4 902.722 187.8C901.322 188 900.522 188.5 900.322 189.3C896.722 199.9 892.422 212.8 887.422 228C882.422 243 877.122 258.4 871.522 274.2ZM831.022 194.7C830.622 194.7 830.422 194.8 830.422 195C830.422 195 830.622 195 831.022 195V194.7ZM1044.61 148.2C1037.61 170 1031.11 189.7 1025.11 207.3C1019.31 224.9 1013.91 241.1 1008.91 255.9C1004.11 270.7 999.608 284.4 995.408 297C991.208 309.4 987.308 321.3 983.708 332.7C981.708 345.9 975.208 355.2 964.208 360.6C957.808 363.6 950.208 365.1 941.408 365.1C932.608 365.1 926.008 364.1 921.608 362.1C917.208 360.3 914.408 357.6 913.208 354C911.808 350.4 911.808 346.1 913.208 341.1C914.408 335.9 916.608 328.9 919.808 320.1C923.008 311.1 927.008 299 931.808 283.8C936.808 268.6 942.008 253.2 947.408 237.6C960.808 198.6 971.408 171.6 979.208 156.6C982.208 151 985.208 147.3 988.208 145.5C991.208 143.5 994.108 142.1 996.908 141.3C999.708 140.3 1002.31 139.2 1004.71 138C1007.11 136.8 1009.21 133.8 1011.01 129C1013.01 124.2 1016.51 120.9 1021.51 119.1C1026.71 117.3 1031.51 117.2 1035.91 118.8C1040.51 120.2 1043.91 123.4 1046.11 128.4C1048.51 133.2 1048.01 139.8 1044.61 148.2ZM1131.96 365.4C1127.76 366.6 1123.76 367.2 1119.96 367.2C1116.16 367.4 1112.26 367.6 1108.26 367.8C1104.46 368 1099.16 368.1 1092.36 368.1C1085.56 368.1 1075.36 367.9 1061.76 367.5C1058.56 367.7 1055.36 367.8 1052.16 367.8C1048.96 367.8 1045.96 367.2 1043.16 366C1036.96 363.4 1032.76 357.4 1030.56 348C1029.56 343.6 1028.46 340.5 1027.26 338.7C1025.86 336.9 1024.76 335.2 1023.96 333.6C1021.96 330.4 1022.16 325.1 1024.56 317.7C1026.76 310.3 1029.66 301.2 1033.26 290.4C1036.86 279.4 1040.96 267.8 1045.56 255.6C1056.36 226.6 1066.06 203.6 1074.66 186.6C1078.06 179 1080.96 172.4 1083.36 166.8C1085.96 161.2 1088.26 156.4 1090.26 152.4C1092.26 148.2 1093.26 146 1093.26 145.8C1095.26 138.2 1102.96 131.8 1116.36 126.6C1129.36 121.2 1141.16 119.8 1151.76 122.4C1163.56 125.4 1168.76 133.2 1167.36 145.8C1164.56 158.2 1160.36 170.6 1154.76 183C1149.36 195.4 1143.16 208.4 1136.16 222C1129.16 235.6 1121.56 250 1113.36 265.2C1105.16 280.4 1097.06 296.9 1089.06 314.7C1088.86 315.5 1089.26 316.2 1090.26 316.8C1092.86 316.6 1096.46 315.8 1101.06 314.4C1105.86 313 1110.76 311.8 1115.76 310.8C1120.96 309.6 1126.06 309 1131.06 309C1136.06 309 1140.26 310.3 1143.66 312.9C1143.46 316.5 1144.36 319.4 1146.36 321.6C1148.36 323.6 1150.36 325.6 1152.36 327.6C1157.36 332.8 1157.76 339.7 1153.56 348.3C1149.56 356.7 1142.36 362.4 1131.96 365.4ZM176.32 424.38C182.893 427.86 187.05 432.983 188.79 439.75C184.923 461.403 181.443 482.96 178.35 504.42C175.257 525.687 172.26 543.57 169.36 558.07C166.46 572.377 164.43 583.107 163.27 590.26C162.303 597.413 161.143 604.567 159.79 611.72L158.05 617.81C157.663 619.937 157.277 621.87 156.89 623.61C156.503 625.543 156.117 627.573 155.73 629.7C150.317 635.887 142.97 638.98 133.69 638.98C123.83 638.98 116 636.467 110.2 631.44C106.72 628.733 106.14 623.03 108.46 614.33C109.427 610.85 110.007 606.403 110.2 600.99C110.587 595.383 110.973 590.743 111.36 587.07V586.49C105.56 588.617 100.34 591.42 95.7 594.9C91.06 598.187 88.16 600.313 87 601.28C85.84 602.053 84.2933 602.73 82.36 603.31C80.4267 603.697 78.6867 603.987 77.14 604.18C73.4667 604.373 70.9533 604.953 69.6 605.92C58.3867 626.027 48.3333 637.24 39.44 639.56C33.8333 641.3 28.2267 641.687 22.62 640.72C17.0133 639.947 12.5667 636.66 9.28 630.86C3.09333 625.06 4.64 609.207 13.92 583.3C18.9467 569.573 26.1 553.14 35.38 534C44.8533 514.667 53.94 497.847 62.64 483.54C81.3933 452.8 101.983 426.893 124.41 405.82C128.083 404.273 132.047 402.533 136.3 400.6C140.553 398.473 144.71 397.313 148.77 397.12C153.023 396.927 157.373 397.41 161.82 398.57C166.267 399.73 170.037 401.47 173.13 403.79C180.283 409.203 181.347 416.067 176.32 424.38ZM114.26 500.65C110.2 512.25 106.14 522.98 102.08 532.84C98.02 542.507 94.54 551.013 91.64 558.36L114.55 557.49C116.097 545.117 117.837 532.84 119.77 520.66C121.703 508.48 123.54 496.3 125.28 484.12L114.26 500.65ZM106.43 558.65C109.137 558.65 111.843 558.457 114.55 558.07V557.78C112.037 557.973 109.717 558.167 107.59 558.36C105.463 558.553 105.077 558.65 106.43 558.65ZM199.361 508.48C203.228 495.527 206.321 485.57 208.641 478.61C211.155 471.457 213.571 465.077 215.891 459.47C218.211 453.863 220.821 448.45 223.721 443.23C226.815 438.01 230.101 433.273 233.581 429.02C237.255 424.573 241.121 421.093 245.181 418.58C249.241 416.067 253.495 414.81 257.941 414.81C262.388 414.81 267.028 416.55 271.861 420.03C279.595 439.363 284.331 452.317 286.071 458.89C288.391 468.557 290.518 482.187 292.451 499.78C294.191 495.333 296.125 490.693 298.251 485.86C300.571 480.833 302.795 475.807 304.921 470.78C310.915 458.02 314.685 448.353 316.231 441.78C320.485 428.247 329.281 418.097 342.621 411.33C354.221 405.53 365.048 403.693 375.101 405.82C379.161 406.593 381.965 408.237 383.511 410.75C385.251 413.263 385.251 415.873 383.511 418.58C381.965 421.287 381.385 423.897 381.771 426.41C382.351 428.73 382.835 431.533 383.221 434.82C383.801 443.713 382.255 451.64 378.581 458.6C374.908 465.367 371.138 473.873 367.271 484.12C363.405 494.173 359.441 504.903 355.381 516.31C351.515 527.717 347.551 539.317 343.491 551.11C339.431 562.903 335.468 573.633 331.601 583.3C323.095 605.533 316.135 617.81 310.721 620.13C303.375 624.577 297.961 627.187 294.481 627.96C290.035 628.733 283.751 628.733 275.631 627.96C270.605 627.573 266.255 621.097 262.581 608.53C260.455 601.763 258.521 592.387 256.781 580.4C253.688 559.52 251.561 548.017 250.401 545.89C242.668 571.023 237.158 586.877 233.871 593.45C230.778 600.023 228.361 604.373 226.621 606.5C225.075 608.627 223.141 611.43 220.821 614.91C218.308 621.87 212.315 626.993 202.841 630.28C194.721 633.373 187.375 633.857 180.801 631.73C173.648 629.41 171.521 624.963 174.421 618.39C176.548 595.19 184.861 558.553 199.361 508.48ZM410.447 637.82C400.587 638.207 391.501 636.95 383.187 634.05C375.067 631.343 368.397 627.573 363.177 622.74C358.151 617.907 354.961 612.3 353.607 605.92C352.254 599.347 353.414 592.677 357.087 585.91C362.114 577.79 372.167 575.373 387.247 578.66C398.654 580.98 406.484 582.237 410.737 582.43C415.184 582.623 418.954 582.043 422.047 580.69C436.161 576.05 444.087 571.023 445.827 565.61C446.987 561.55 444.474 556.813 438.287 551.4C435.774 549.08 432.971 546.76 429.877 544.44C426.784 542.12 424.174 539.8 422.047 537.48C412.381 530.327 404.744 522.11 399.137 512.83C393.724 503.357 391.501 493.11 392.467 482.09C393.434 471.07 395.271 461.983 397.977 454.83C400.684 447.483 404.067 441.007 408.127 435.4C415.281 425.54 424.561 417.517 435.967 411.33C449.114 404.563 459.651 400.213 467.577 398.28C483.237 394.8 499.091 394.51 515.137 397.41C520.551 398.377 525.191 400.213 529.057 402.92C532.924 405.627 536.791 408.43 540.657 411.33C547.424 418.097 549.067 424.96 545.587 431.92C544.234 435.013 542.107 437.527 539.207 439.46C536.307 441.393 533.214 442.457 529.927 442.65C530.314 447.87 529.347 451.737 527.027 454.25C522.581 458.697 514.847 461.597 503.827 462.95C487.974 461.79 477.244 462.66 471.637 465.56C465.064 469.04 462.647 476.58 464.387 488.18C464.774 490.693 466.321 493.303 469.027 496.01C471.927 498.717 475.214 501.617 478.887 504.71C482.754 507.803 486.717 511.283 490.777 515.15C495.031 519.017 498.704 523.463 501.797 528.49C512.624 546.277 511.754 567.06 499.187 590.84C489.907 608.627 474.054 621.967 451.627 630.86C440.027 635.5 426.301 637.82 410.447 637.82ZM545.227 611.43L543.197 424.09C543.197 419.45 545.034 415.487 548.707 412.2C552.574 408.72 556.924 406.303 561.757 404.95C566.591 403.597 571.134 403.403 575.387 404.37C579.641 405.337 582.347 407.85 583.507 411.91C587.181 419.257 589.694 429.407 591.047 442.36C593.561 466.527 594.817 487.407 594.817 505C596.751 508.093 599.167 509.543 602.067 509.35C610.381 489.05 619.564 469.523 629.617 450.77C639.671 432.017 646.147 420.03 649.047 414.81C651.947 409.397 655.427 405.627 659.487 403.5C663.547 401.373 667.897 400.02 672.537 399.44C682.591 398.28 692.064 400.02 700.957 404.66C707.724 406.98 711.687 410.943 712.847 416.55C717.294 425.443 714.297 435.69 703.857 447.29C691.677 466.623 679.401 487.987 667.027 511.38C643.441 556.427 628.457 584.17 622.077 594.61C615.697 605.05 611.057 612.493 608.157 616.94C605.257 621.193 601.971 624.77 598.297 627.67C591.724 632.89 583.797 635.017 574.517 634.05C558.277 633.47 548.804 628.347 546.097 618.68C545.517 615.973 545.227 613.557 545.227 611.43ZM831.935 424.38C838.509 427.86 842.665 432.983 844.405 439.75C840.539 461.403 837.059 482.96 833.965 504.42C830.872 525.687 827.875 543.57 824.975 558.07C822.075 572.377 820.045 583.107 818.885 590.26C817.919 597.413 816.759 604.567 815.405 611.72L813.665 617.81C813.279 619.937 812.892 621.87 812.505 623.61C812.119 625.543 811.732 627.573 811.345 629.7C805.932 635.887 798.585 638.98 789.305 638.98C779.445 638.98 771.615 636.467 765.815 631.44C762.335 628.733 761.755 623.03 764.075 614.33C765.042 610.85 765.622 606.403 765.815 600.99C766.202 595.383 766.589 590.743 766.975 587.07V586.49C761.175 588.617 755.955 591.42 751.315 594.9C746.675 598.187 743.775 600.313 742.615 601.28C741.455 602.053 739.909 602.73 737.975 603.31C736.042 603.697 734.302 603.987 732.755 604.18C729.082 604.373 726.569 604.953 725.215 605.92C714.002 626.027 703.949 637.24 695.055 639.56C689.449 641.3 683.842 641.687 678.235 640.72C672.629 639.947 668.182 636.66 664.895 630.86C658.709 625.06 660.255 609.207 669.535 583.3C674.562 569.573 681.715 553.14 690.995 534C700.469 514.667 709.555 497.847 718.255 483.54C737.009 452.8 757.599 426.893 780.025 405.82C783.699 404.273 787.662 402.533 791.915 400.6C796.169 398.473 800.325 397.313 804.385 397.12C808.639 396.927 812.989 397.41 817.435 398.57C821.882 399.73 825.652 401.47 828.745 403.79C835.899 409.203 836.962 416.067 831.935 424.38ZM769.875 500.65C765.815 512.25 761.755 522.98 757.695 532.84C753.635 542.507 750.155 551.013 747.255 558.36L770.165 557.49C771.712 545.117 773.452 532.84 775.385 520.66C777.319 508.48 779.155 496.3 780.895 484.12L769.875 500.65ZM762.045 558.65C764.752 558.65 767.459 558.457 770.165 558.07V557.78C767.652 557.973 765.332 558.167 763.205 558.36C761.079 558.553 760.692 558.65 762.045 558.65ZM886.007 621.87C884.267 629.603 878.273 634.34 868.027 636.08C858.553 637.82 849.563 636.757 841.057 632.89C831.583 628.83 827.427 623.127 828.587 615.78C827.427 604.567 833.323 580.207 846.277 542.7C865.61 486.44 884.943 446.227 904.277 422.06C909.303 415.873 913.557 411.91 917.037 410.17C920.71 408.237 924.867 406.497 929.507 404.95C934.147 403.403 938.98 401.953 944.007 400.6C954.06 397.893 963.533 396.057 972.427 395.09C981.513 393.93 989.633 394.993 996.787 398.28C1003.94 401.373 1009.45 406.013 1013.32 412.2C1017.38 418.387 1019.89 425.733 1020.86 434.24C1021.82 442.553 1021.53 451.35 1019.99 460.63C1018.44 469.717 1015.64 478.997 1011.58 488.47C1007.52 497.75 1002.39 506.45 996.207 514.57C982.673 532.357 966.82 543.86 948.647 549.08L951.547 554.01C954.06 557.877 957.057 562.13 960.537 566.77C964.21 571.41 967.787 576.147 971.267 580.98C974.94 585.813 978.227 590.647 981.127 595.48C984.027 600.313 986.153 604.857 987.507 609.11C990.6 618.583 988.183 625.447 980.257 629.7C973.877 633.567 968.85 634.533 965.177 632.6C963.63 631.633 962.083 630.377 960.537 628.83C958.99 627.477 956.863 626.317 954.157 625.35C942.75 628.637 934.05 625.737 928.057 616.65C924.383 610.85 921.58 605.533 919.647 600.7C917.713 595.867 916.07 591.807 914.717 588.52C911.237 581.367 907.273 575.18 902.827 569.96C900.7 575.18 898.283 581.85 895.577 589.97C892.29 600.217 888.617 610.85 884.557 621.87H886.007ZM944.587 453.09C940.913 461.403 938.4 467.203 937.047 470.49C934.34 477.063 931.343 484.313 928.057 492.24C927.477 496.493 926.993 499.49 926.607 501.23L930.667 497.17L935.597 494.85C939.077 492.917 942.267 491.177 945.167 489.63C948.067 488.083 950.677 486.15 952.997 483.83C957.443 479.383 961.31 472.133 964.597 462.08C964.597 460.147 964.887 458.213 965.467 456.28C966.24 454.347 966.723 452.413 966.917 450.48C967.69 446.227 965.95 443.23 961.697 441.49C957.83 441.103 952.997 444.293 947.197 451.06C946.037 452.413 945.167 453.09 944.587 453.09ZM1185.88 464.11C1188.2 483.83 1173.79 504.807 1142.67 527.04C1134.55 532.84 1126.91 538.157 1119.76 542.99C1112.6 547.823 1106.42 552.27 1101.2 556.33C1096.17 560.197 1093.37 563.58 1092.79 566.48C1092.4 571.12 1090.18 574.987 1086.12 578.08C1082.06 581.173 1077.51 583.397 1072.49 584.75C1067.46 585.91 1062.43 586.297 1057.41 585.91C1052.38 585.523 1048.71 584.17 1046.39 581.85C1040.97 570.25 1044.07 556.33 1055.67 540.09C1060.89 532.937 1066.98 525.783 1073.94 518.63C1080.9 511.283 1087.66 504.227 1094.24 497.46C1101 490.5 1107 483.927 1112.22 477.74C1118.21 470.393 1121.88 463.627 1123.24 457.44H1122.37C1121.01 458.6 1119.66 460.05 1118.31 461.79C1117.15 463.337 1114.54 465.173 1110.48 467.3C1106.42 469.427 1102.74 471.167 1099.46 472.52C1096.36 473.873 1093.37 475.227 1090.47 476.58C1087.76 477.74 1086.02 478.513 1085.25 478.9C1084.67 479.287 1083.99 479.673 1083.22 480.06C1082.64 480.447 1081.77 480.833 1080.61 481.22L1075.97 482.96C1059.15 487.02 1047.16 484.7 1040.01 476C1037.49 472.907 1035.17 468.653 1033.05 463.24C1030.92 455.507 1033.05 446.42 1039.43 435.98C1044.84 426.893 1051.61 420.03 1059.73 415.39C1067.85 410.557 1078 406.593 1090.18 403.5C1102.55 400.213 1114.73 398.57 1126.72 398.57C1138.7 398.57 1149.72 400.407 1159.78 404.08C1169.83 407.753 1177.37 413.65 1182.4 421.77C1184.33 425.443 1184.91 429.407 1184.14 433.66C1183.36 437.913 1182.59 441.297 1181.82 443.81C1181.24 446.13 1180.95 448.257 1180.95 450.19C1181.14 452.123 1181.91 454.347 1183.27 456.86C1184.62 459.18 1185.49 461.597 1185.88 464.11ZM1075.1 625.64C1071.04 633.76 1065.72 639.657 1059.15 643.33C1052.57 647.197 1046.19 649.13 1040.01 649.13C1034.01 649.323 1028.99 647.68 1024.93 644.2C1020.87 640.72 1019.22 635.597 1020 628.83C1020.38 619.357 1025.12 612.88 1034.21 609.4C1045.81 604.76 1056.73 604.76 1066.98 609.4C1076.45 613.653 1079.16 619.067 1075.1 625.64Z" fill="#780E08"/>
</svg>
