<svg width="129" height="129" viewBox="0 0 129 129" fill="none" xmlns="http://www.w3.org/2000/svg">
<circle cx="64.5" cy="64.5" r="64.5" fill="#FD5141"/>
<path d="M27.741 55.6C27.291 56.9 26.8327 58.15 26.366 59.35C25.8993 60.55 25.5077 61.4583 25.191 62.075C24.891 62.7083 24.6243 63.1417 24.391 63.375C24.1577 63.6083 23.916 63.7667 23.666 63.85C23.4327 63.9333 23.191 63.9667 22.941 63.95C22.7077 63.9333 22.466 63.9167 22.216 63.9C20.816 63.6833 20.3827 62.675 20.916 60.875C21.266 59.4417 21.5493 58.275 21.766 57.375C21.9827 56.4583 22.1577 55.7083 22.291 55.125C22.441 54.525 22.566 54.0333 22.666 53.65C22.766 53.25 22.8743 52.8583 22.991 52.475C23.1077 52.0917 23.2493 51.6583 23.416 51.175C23.5993 50.6917 23.8327 50.05 24.116 49.25C23.4827 49.3333 22.916 49.2667 22.416 49.05C21.6827 48.7333 21.3827 48.05 21.516 47C21.5827 46.5167 21.841 46.0667 22.291 45.65C22.5243 45.4333 22.7993 45.2 23.116 44.95C23.766 44.4333 25.0577 43.8833 26.991 43.3C28.991 42.7 30.7077 42.4167 32.141 42.45C32.5244 42.3833 32.916 42.4333 33.316 42.6C33.7327 42.75 34.066 42.9583 34.316 43.225C34.566 43.4917 34.691 43.7833 34.691 44.1C34.7077 44.4167 34.5077 44.7 34.091 44.95C33.891 45.0833 33.7493 45.3083 33.666 45.625C33.5827 45.925 33.491 46.25 33.391 46.6C33.291 46.9333 33.141 47.2417 32.941 47.525C32.7577 47.8083 32.4577 47.975 32.041 48.025C31.8243 48.1417 31.516 48.225 31.116 48.275C30.7327 48.325 30.4743 48.3667 30.341 48.4C30.2243 48.4167 30.1577 48.4583 30.141 48.525C29.841 49.4083 29.4827 50.4833 29.066 51.75C28.6493 53 28.2077 54.2833 27.741 55.6ZM24.366 48.975C24.3327 48.975 24.316 48.9833 24.316 49C24.316 49 24.3327 49 24.366 49V48.975ZM35.9648 62.075C35.8148 62.7417 35.2982 63.15 34.4148 63.3C33.5982 63.45 32.8232 63.3583 32.0898 63.025C31.2732 62.675 30.9148 62.1833 31.0148 61.55C30.9148 60.5833 31.4232 58.4833 32.5398 55.25C34.2065 50.4 35.8732 46.9333 37.5398 44.85C37.9732 44.3167 38.3398 43.975 38.6398 43.825C38.9565 43.6583 39.3148 43.5083 39.7148 43.375C40.1148 43.2417 40.5315 43.1167 40.9648 43C41.8315 42.7667 42.6482 42.6083 43.4148 42.525C44.1982 42.425 44.8982 42.5167 45.5148 42.8C46.1315 43.0667 46.6065 43.4667 46.9398 44C47.2898 44.5333 47.5065 45.1667 47.5898 45.9C47.6732 46.6167 47.6482 47.375 47.5148 48.175C47.3815 48.9583 47.1398 49.7583 46.7898 50.575C46.4398 51.375 45.9982 52.125 45.4648 52.825C44.2982 54.3583 42.9315 55.35 41.3648 55.8L41.6148 56.225C41.8315 56.5583 42.0898 56.925 42.3898 57.325C42.7065 57.725 43.0148 58.1333 43.3148 58.55C43.6315 58.9667 43.9148 59.3833 44.1648 59.8C44.4148 60.2167 44.5982 60.6083 44.7148 60.975C44.9815 61.7917 44.7732 62.3833 44.0898 62.75C43.5398 63.0833 43.1065 63.1667 42.7898 63C42.6565 62.9167 42.5232 62.8083 42.3898 62.675C42.2565 62.5583 42.0732 62.4583 41.8398 62.375C40.8565 62.6583 40.1065 62.4083 39.5898 61.625C39.2732 61.125 39.0315 60.6667 38.8648 60.25C38.6982 59.8333 38.5565 59.4833 38.4398 59.2C38.1398 58.5833 37.7982 58.05 37.4148 57.6C37.2315 58.05 37.0232 58.625 36.7898 59.325C36.5065 60.2083 36.1898 61.125 35.8398 62.075H35.9648ZM41.0148 47.525C40.6982 48.2417 40.4815 48.7417 40.3648 49.025C40.1315 49.5917 39.8732 50.2167 39.5898 50.9C39.5398 51.2667 39.4982 51.525 39.4648 51.675L39.8148 51.325L40.2398 51.125C40.5398 50.9583 40.8148 50.8083 41.0648 50.675C41.3148 50.5417 41.5398 50.375 41.7398 50.175C42.1232 49.7917 42.4565 49.1667 42.7398 48.3C42.7398 48.1333 42.7648 47.9667 42.8148 47.8C42.8815 47.6333 42.9232 47.4667 42.9398 47.3C43.0065 46.9333 42.8565 46.675 42.4898 46.525C42.1565 46.4917 41.7398 46.7667 41.2398 47.35C41.1398 47.4667 41.0648 47.525 41.0148 47.525ZM49.1406 52.525C48.8573 50.1083 48.7406 48.1417 48.7906 46.625C48.7573 45.9083 49.049 45.225 49.6656 44.575C50.249 43.9583 50.8573 43.6167 51.4906 43.55C52.1906 43.5 52.6406 43.8917 52.8406 44.725C52.974 45.1917 53.1406 45.7333 53.3406 46.35C53.5406 46.9667 53.7323 47.6167 53.9156 48.3C54.099 48.05 54.3906 47.6083 54.7906 46.975C55.1906 46.3417 55.5656 45.775 55.9156 45.275C56.7656 44.0583 57.5156 43.2083 58.1656 42.725C58.799 42.475 59.3406 42.4083 59.7906 42.525C60.2573 42.625 60.5906 42.7917 60.7906 43.025C61.0073 43.2583 61.0906 43.6 61.0406 44.05C61.0073 45.1 60.2073 46.75 58.6406 49C58.274 49.5167 57.899 50.1167 57.5156 50.8C57.149 51.4833 56.7156 52.25 56.2156 53.1C55.7323 53.9333 55.2656 54.7667 54.8156 55.6C53.7823 57.4833 52.974 59.275 52.3906 60.975C52.4073 60.9417 52.474 60.9833 52.5906 61.1C52.7073 61.2 52.8156 61.35 52.9156 61.55C53.1823 62.05 53.1573 62.4667 52.8406 62.8C52.0406 63.6333 51.049 64.1 49.8656 64.2C48.7823 64.2833 47.849 64.0833 47.0656 63.6C46.2823 63.15 46.024 62.5917 46.2906 61.925H46.2156C46.5823 60.975 46.999 60.0833 47.4656 59.25C47.9323 58.4 48.4156 57.525 48.9156 56.625L50.0406 54.625C49.7573 54.6917 49.524 54.4917 49.3406 54.025C49.2073 53.6417 49.1406 53.1417 49.1406 52.525ZM62.9209 44.25C63.2376 43.4833 63.6876 43.2083 64.2709 43.425C64.4376 43.0583 64.5792 42.825 64.6959 42.725C64.8292 42.625 64.9626 42.55 65.0959 42.5C65.2292 42.4333 65.3709 42.3667 65.5209 42.3C65.6709 42.2333 65.9042 42.175 66.2209 42.125C66.5376 42.075 66.8876 42.05 67.2709 42.05C67.6542 42.0333 68.0376 42.05 68.4209 42.1C68.8209 42.15 69.1542 42.2583 69.4209 42.425C70.0709 42.8083 70.2126 43.425 69.8459 44.275C69.8792 44.2583 69.8709 44.275 69.8209 44.325L69.5959 44.75L69.4209 44.975C69.3376 45.0583 69.0792 45.5667 68.6459 46.5C68.2959 47.1667 67.9376 47.825 67.5709 48.475C66.9709 49.5917 66.6042 50.3083 66.4709 50.625C67.0542 50.3083 67.7292 49.85 68.4959 49.25C69.9459 48.1333 70.8709 47.4667 71.2709 47.25C71.6709 47.0333 71.9459 46.9 72.0959 46.85C72.2626 46.8 72.4209 46.7917 72.5709 46.825C72.7209 46.8417 72.8792 46.8833 73.0459 46.95L73.6709 47.2C74.0709 47.3333 74.2876 47.8167 74.3209 48.65C74.3376 49.4667 74.1709 50.0833 73.8209 50.5C72.3042 52.4667 70.5959 53.7833 68.6959 54.45C68.1126 54.6667 67.5126 54.85 66.8959 55C67.7792 55.1 68.6209 55.6833 69.4209 56.75C70.0709 57.6167 70.5376 58.5083 70.8209 59.425C71.1209 60.3417 71.3542 61.025 71.5209 61.475C71.6876 61.9083 71.7542 62.2417 71.7209 62.475C71.7042 62.725 71.5626 62.9083 71.2959 63.025C71.0459 63.1583 70.6126 63.2833 69.9959 63.4C69.7126 63.45 69.1292 63.1167 68.2459 62.4C67.8626 62.0833 67.4542 61.7417 67.0209 61.375C66.5876 60.9917 66.1542 60.6333 65.7209 60.3C64.7209 59.5167 64.0209 59.1083 63.6209 59.075C63.5876 59.075 63.5209 59.0583 63.4209 59.025L62.9709 60.15C62.7376 60.7 62.4959 61.2833 62.2459 61.9C62.0126 62.5 61.7292 63.0417 61.3959 63.525C60.8792 63.875 60.2792 64.0167 59.5959 63.95C58.8126 63.8667 58.2959 63.55 58.0459 63C57.8792 62.4833 58.1542 60.9667 58.8709 58.45C59.3542 56.6833 59.7709 55.1333 60.1209 53.8C60.4709 52.4667 60.7709 51.3667 61.0209 50.5C61.2709 49.6167 61.4542 48.9333 61.5709 48.45C61.6876 47.95 61.8042 47.4667 61.9209 47C62.2042 45.9167 62.5376 45 62.9209 44.25ZM93.5115 56.65C92.8449 57.15 92.1449 57.5167 91.4115 57.75C90.6949 57.9667 89.9782 58.025 89.2615 57.925C88.5449 57.825 87.9282 57.5167 87.4115 57C86.9449 58.4833 86.6282 59.95 86.4615 61.4C86.3949 61.6667 86.2782 61.9083 86.1115 62.125C85.8115 63.0083 85.1532 63.6 84.1365 63.9C83.1365 64.1833 82.2032 64.1333 81.3365 63.75C80.9365 63.5667 80.6032 63.3 80.3365 62.95C80.0699 62.6 79.9365 62.175 79.9365 61.675C81.0865 57.6917 82.1949 54.425 83.2615 51.875C83.4949 51.3417 83.6782 50.9083 83.8115 50.575C83.9615 50.2417 84.0949 49.9583 84.2115 49.725C84.3282 49.4917 84.4282 49.2917 84.5115 49.125C84.6115 48.9417 84.7282 48.7417 84.8615 48.525C85.1615 48.025 85.5032 47.4417 85.8865 46.775C86.2865 46.0917 86.6199 45.5833 86.8865 45.25C87.1699 44.9167 87.4615 44.6333 87.7615 44.4C88.0782 44.15 88.4199 43.9167 88.7865 43.7C89.1699 43.4833 89.6449 43.2 90.2115 42.85C90.7782 42.5 91.3782 42.2917 92.0115 42.225C92.6615 42.1417 93.2782 42.1917 93.8615 42.375C95.0949 42.7583 96.0032 43.6167 96.5865 44.95C97.0865 46.1833 97.1699 47.8417 96.8365 49.925C96.3199 53.1083 95.2115 55.35 93.5115 56.65ZM88.2865 54.425C89.6532 54.125 90.6032 53.2333 91.1365 51.75C91.5865 50.5 91.6782 49.0833 91.4115 47.5C91.0282 48.15 90.6782 48.825 90.3615 49.525C90.0615 50.225 89.7865 50.85 89.5365 51.4C88.9865 52.6333 88.5699 53.6417 88.2865 54.425ZM109.673 45.05C110.239 45.35 110.598 45.7917 110.748 46.375C110.414 48.2417 110.114 50.1 109.848 51.95C109.581 53.7833 109.323 55.325 109.073 56.575C108.823 57.8083 108.648 58.7333 108.548 59.35C108.464 59.9667 108.364 60.5833 108.248 61.2L108.098 61.725C108.064 61.9083 108.031 62.075 107.998 62.225C107.964 62.3917 107.931 62.5667 107.898 62.75C107.431 63.2833 106.798 63.55 105.998 63.55C105.148 63.55 104.473 63.3333 103.973 62.9C103.673 62.6667 103.623 62.175 103.823 61.425C103.906 61.125 103.956 60.7417 103.973 60.275C104.006 59.7917 104.039 59.3917 104.073 59.075V59.025C103.573 59.2083 103.123 59.45 102.723 59.75C102.323 60.0333 102.073 60.2167 101.973 60.3C101.873 60.3667 101.739 60.425 101.573 60.475C101.406 60.5083 101.256 60.5333 101.123 60.55C100.806 60.5667 100.589 60.6167 100.473 60.7C99.506 62.4333 98.6393 63.4 97.8727 63.6C97.3893 63.75 96.906 63.7833 96.4227 63.7C95.9393 63.6333 95.556 63.35 95.2727 62.85C94.7393 62.35 94.8727 60.9833 95.6727 58.75C96.106 57.5667 96.7227 56.15 97.5227 54.5C98.3393 52.8333 99.1227 51.3833 99.8727 50.15C101.489 47.5 103.264 45.2667 105.198 43.45C105.514 43.3167 105.856 43.1667 106.223 43C106.589 42.8167 106.948 42.7167 107.298 42.7C107.664 42.6833 108.039 42.725 108.423 42.825C108.806 42.925 109.131 43.075 109.398 43.275C110.014 43.7417 110.106 44.3333 109.673 45.05ZM104.323 51.625C103.973 52.625 103.623 53.55 103.273 54.4C102.923 55.2333 102.623 55.9667 102.373 56.6L104.348 56.525C104.481 55.4583 104.631 54.4 104.798 53.35C104.964 52.3 105.123 51.25 105.273 50.2L104.323 51.625ZM103.648 56.625C103.881 56.625 104.114 56.6083 104.348 56.575V56.55C104.131 56.5667 103.931 56.5833 103.748 56.6C103.564 56.6167 103.531 56.625 103.648 56.625ZM106.523 37.15C107.056 36.9333 107.581 36.7833 108.098 36.7C108.581 36.7333 109.089 36.75 109.623 36.75C110.156 36.75 110.723 36.8917 111.323 37.175C111.923 37.4583 112.431 37.8667 112.848 38.4C113.264 38.9167 113.514 39.475 113.598 40.075C113.748 41.375 113.198 42.5667 111.948 43.65C111.398 44.1 110.581 44.4417 109.498 44.675C108.648 44.8583 107.814 44.925 106.998 44.875C106.181 44.825 105.589 44.775 105.223 44.725C104.856 44.6583 104.598 44.5833 104.448 44.5C104.314 44.4167 104.173 44.3333 104.023 44.25C103.873 44.15 103.731 44.0667 103.598 44C102.598 43.3833 102.139 42.4583 102.223 41.225C102.289 40.175 102.673 39.2667 103.373 38.5C103.623 38.2167 103.848 38.0417 104.048 37.975C104.264 37.9083 104.606 37.775 105.073 37.575C105.556 37.3583 106.039 37.2167 106.523 37.15ZM109.023 40.95C108.739 41.0167 108.331 41.075 107.798 41.125C107.681 41.0917 107.531 41.075 107.348 41.075C107.164 41.075 106.989 41.0667 106.823 41.05C106.439 41.5 106.323 41.9167 106.473 42.3C106.523 42.4333 106.639 42.55 106.823 42.65C107.006 42.75 107.239 42.7833 107.523 42.75C107.823 42.7 108.098 42.6 108.348 42.45C108.914 42.1 109.148 41.6417 109.048 41.075C109.031 41.0583 109.023 41.0167 109.023 40.95ZM48.4827 82.75C48.6494 83.2 48.741 83.5 48.7577 83.65C48.791 83.9667 48.6744 84.2333 48.4077 84.45C48.4077 84.4667 48.391 84.4917 48.3577 84.525C48.5077 85.3083 48.541 86.0417 48.4577 86.725C48.3744 87.4083 48.266 88.0667 48.1327 88.7C49.0327 87.1667 49.7494 86.0417 50.2827 85.325C51.3827 83.8417 52.4077 82.7833 53.3577 82.15C53.6744 81.9667 54.0577 81.8333 54.5077 81.75C54.9744 81.65 55.416 81.6333 55.8327 81.7C56.2494 81.7667 56.591 81.9333 56.8577 82.2C57.141 82.4667 57.266 82.8667 57.2327 83.4C56.766 86.65 56.266 89.6833 55.7327 92.5C55.1994 95.3 54.5077 97.975 53.6577 100.525V100.575H53.6327C53.4327 101.175 52.9327 101.6 52.1327 101.85C51.3494 102.083 50.6494 102.1 50.0327 101.9C49.2827 101.683 48.941 101.283 49.0077 100.7L49.0327 100.125V100.075C49.0994 99.675 49.1327 99.4083 49.1327 99.275C49.1494 99.125 49.166 99.0167 49.1827 98.95C49.216 98.5167 49.2827 98.1167 49.3827 97.75C49.4994 97.3667 49.5827 97.0583 49.6327 96.825C49.6827 96.5917 49.7327 96.375 49.7827 96.175C49.8327 95.9583 49.866 95.7917 49.8827 95.675C49.2494 96.5417 48.7994 97.0667 48.5327 97.25C47.866 97.7167 47.091 97.9333 46.2077 97.9C45.6577 97.8667 45.341 97.7417 45.2577 97.525C45.091 97.0583 44.9744 96.7833 44.9077 96.7C44.8077 96.5667 44.7244 96.3417 44.6577 96.025C44.2244 97.9417 43.7994 99.3 43.3827 100.1C43.216 100.417 43.0494 100.7 42.8827 100.95C42.6494 101.5 42.116 101.883 41.2827 102.1C40.4994 102.317 39.7494 102.3 39.0327 102.05C38.2994 101.817 37.9494 101.4 37.9827 100.8C38.016 100.2 38.141 99.45 38.3577 98.55C38.5577 97.6333 38.7994 96.6667 39.0827 95.65C39.9327 92.4333 40.5327 90.3417 40.8827 89.375C41.2494 88.4083 41.5577 87.65 41.8077 87.1C42.4077 85.8167 42.941 84.8833 43.4077 84.3C43.9244 83.25 44.7827 82.6167 45.9827 82.4C46.9327 82.2167 47.766 82.3333 48.4827 82.75ZM66.5179 84.1C65.9345 85.9167 65.3929 87.5583 64.8929 89.025C64.4095 90.4917 63.9595 91.8417 63.5429 93.075C63.1429 94.3083 62.7679 95.45 62.4179 96.5C62.0679 97.5333 61.7429 98.525 61.4429 99.475C61.2762 100.575 60.7345 101.35 59.8179 101.8C59.2845 102.05 58.6512 102.175 57.9179 102.175C57.1845 102.175 56.6345 102.092 56.2679 101.925C55.9012 101.775 55.6679 101.55 55.5679 101.25C55.4512 100.95 55.4512 100.592 55.5679 100.175C55.6679 99.7417 55.8512 99.1583 56.1179 98.425C56.3845 97.675 56.7179 96.6667 57.1179 95.4C57.5345 94.1333 57.9679 92.85 58.4179 91.55C59.5345 88.3 60.4179 86.05 61.0679 84.8C61.3179 84.3333 61.5679 84.025 61.8179 83.875C62.0679 83.7083 62.3095 83.5917 62.5429 83.525C62.7762 83.4417 62.9929 83.35 63.1929 83.25C63.3929 83.15 63.5679 82.9 63.7179 82.5C63.8845 82.1 64.1762 81.825 64.5929 81.675C65.0262 81.525 65.4262 81.5167 65.7929 81.65C66.1762 81.7667 66.4595 82.0333 66.6429 82.45C66.8429 82.85 66.8012 83.4 66.5179 84.1ZM75.0476 82.125C77.4476 81.6417 79.3142 81.9417 80.6476 83.025C81.2809 83.5417 81.6976 84.2917 81.8976 85.275C82.1142 86.2583 82.0059 87.3583 81.5726 88.575C81.3892 89.1417 81.0726 89.5667 80.6226 89.85C80.1726 90.1333 79.7059 90.3 79.2226 90.35C78.7559 90.3833 78.3309 90.325 77.9476 90.175C77.5642 90.0083 77.3559 89.775 77.3226 89.475L77.0976 88.975C76.6976 88.375 76.0059 88.3 75.0226 88.75C74.1726 89.1333 73.3226 89.8 72.4726 90.75C71.5726 91.7667 70.9892 92.6833 70.7226 93.5C70.4226 94.4 70.2726 94.9917 70.2726 95.275C70.2392 95.9083 70.4642 96.475 70.9476 96.975C71.6476 97.425 72.3476 97.6333 73.0476 97.6C73.7476 97.55 74.3726 97.3917 74.9226 97.125C75.4726 96.8417 75.9226 96.525 76.2726 96.175C76.6226 95.825 76.7976 95.575 76.7976 95.425C76.8476 95.325 76.8976 95.225 76.9476 95.125C76.9976 95.025 77.0392 94.925 77.0726 94.825C77.0059 94.825 77.0226 94.825 77.1226 94.825C77.2226 94.8083 77.2476 94.8083 77.1976 94.825C77.1476 94.825 77.1726 94.8333 77.2726 94.85L77.4226 94.9C76.6059 95.6333 75.8142 95.7833 75.0476 95.35C74.7476 95.1667 74.4809 94.975 74.2476 94.775C74.0142 94.5583 73.7976 94.4583 73.5976 94.475C73.2309 94.275 73.1476 93.8833 73.3476 93.3C73.4309 93.0667 73.5809 92.85 73.7976 92.65C74.0309 92.4333 74.3226 92.2833 74.6726 92.2C76.3392 91.4833 77.8809 91.3167 79.2976 91.7C79.9309 91.8667 80.3642 92.2083 80.5976 92.725C80.8476 93.225 80.9559 93.7917 80.9226 94.425C80.8892 95.0583 80.7476 95.7 80.4976 96.35C80.2642 97 80.0059 97.525 79.7226 97.925C79.4392 98.3083 79.0392 98.7667 78.5226 99.3C78.0226 99.8333 77.3892 100.35 76.6226 100.85C74.7392 102.067 72.7226 102.65 70.5726 102.6C67.4559 102.55 65.6142 101.275 65.0476 98.775C64.8642 97.975 64.7809 97.075 64.7976 96.075C64.9642 93.175 65.8309 90.4667 67.3976 87.95C68.1476 86.75 69.1559 85.5667 70.4226 84.4C71.2226 83.6833 72.1226 83.1333 73.1226 82.75C73.6559 82.5333 74.2976 82.325 75.0476 82.125ZM92.8644 82.975C92.931 83.175 93.006 83.3167 93.0894 83.4C93.1727 83.4667 93.231 83.5167 93.2644 83.55C93.3477 83.6333 93.306 83.7833 93.1394 84C92.9894 84.3 92.781 84.65 92.5144 85.05C92.031 85.7667 91.7227 86.2917 91.5894 86.625C90.906 87.9917 90.3727 89.25 89.9894 90.4C89.606 91.5333 89.281 92.5583 89.0144 93.475C88.7477 94.3917 88.4894 95.2 88.2394 95.9C87.9394 96.7167 87.5894 97.325 87.1894 97.725C86.9894 98.0583 86.631 98.2833 86.1144 98.4C85.5977 98.5167 85.0727 98.5417 84.5394 98.475C84.006 98.3917 83.5477 98.2167 83.1644 97.95C82.7977 97.6833 82.6644 97.3333 82.7644 96.9C82.9477 95.3333 83.2227 94.0167 83.5894 92.95C83.9727 91.8833 84.2977 91 84.5644 90.3C84.8477 89.6 85.0894 88.975 85.2894 88.425C85.4894 87.8583 85.6727 87.375 85.8394 86.975C86.0227 86.5583 86.231 86.125 86.4644 85.675C86.6977 85.2083 86.9477 84.7417 87.2144 84.275C87.4977 83.7917 87.781 83.35 88.0644 82.95C88.7144 82.0333 89.2644 81.4917 89.7144 81.325C90.1644 81.1417 90.6144 81.0333 91.0644 81C91.531 80.9667 91.931 81.0167 92.2644 81.15C92.6144 81.2833 92.856 81.5 92.9894 81.8C93.1227 82.1 93.081 82.4917 92.8644 82.975ZM86.8894 101.825C86.706 102.508 86.3227 103.017 85.7394 103.35C85.1727 103.7 84.5644 103.883 83.9144 103.9C83.2644 103.933 82.656 103.808 82.0894 103.525C81.5394 103.258 81.1977 102.833 81.0644 102.25C80.9144 101.683 80.9977 101.2 81.3144 100.8C81.6477 100.383 82.0394 100.117 82.4894 100C82.9394 99.8667 83.4644 99.775 84.0644 99.725C84.681 99.675 85.2394 99.7083 85.7394 99.825C86.2394 99.9417 86.6227 100.158 86.8894 100.475C87.156 100.792 87.156 101.242 86.8894 101.825Z" fill="#F5F0E8"/>
</svg>
