<?xml version="1.0" encoding="UTF-8"?>
<svg id="Layer_2" xmlns="http://www.w3.org/2000/svg" viewBox="0 0 465.24 41.98">
  <defs>
    <style>
      .cls-1 {
        fill: none;
        stroke: #3c473c;
        stroke-miterlimit: 10;
      }
    </style>
  </defs>
  <g id="Layer_1-2" data-name="Layer_1">
    <path class="cls-1" d="M463.5.31c7.87,10.1-23.8,35.02-37.75,34.58-13.95-.44-27.6-6.95-36.72-17.52.2,11.25-12.66,18.72-23.91,18.39-17.31-.5-33.23-14.64-35.77-31.76-7.04,13.65-20.67,30.07-35.86,32.37-15.18,2.3-31.53-9.57-42.3-20.52-2.09,10.42-11.63,18.87-22.22,19.71s-21.34-6.02-25.04-15.98c-16.01,19.05-49.41,12.5-67.25-4.85-16.01,12.35-39.61,20.44-55.51,7.95-10.17,14.33-29.32,21.65-46.46,17.76C17.57,36.54,3.47,21.67.49,4.35"/>
  </g>
</svg>