<?xml version="1.0" encoding="UTF-8"?>
<svg id="Layer_2" xmlns="http://www.w3.org/2000/svg" viewBox="0 0 464.05 44.17">
  <defs>
    <style>
      .cls-1 {
        fill: none;
        stroke: #3c473c;
        stroke-miterlimit: 10;
      }
    </style>
  </defs>
  <g id="Layer_1-2" data-name="Layer_1">
    <path class="cls-1" d="M.36,15.16c9.6,10.13,23.54,16,37.5,15.79,13.96-.21,27.71-6.51,37-16.93-.38,11.25,12.36,18.92,23.61,18.77,17.31-.22,33.46-14.1,36.28-31.19,6.82,13.76,20.49,23.9,35.63,26.45,15.14,2.55,31.38-2.57,42.32-13.34,1.93,10.45,11.32,19.06,21.9,20.06s21.43-5.67,25.29-15.57c15.7,19.3,48.27,21.46,66.38,4.4,15.8,12.61,40.22,12.9,56.32.67,9.94,14.49,28.97,22.12,46.17,18.5s31.54-18.27,34.79-35.54"/>
  </g>
</svg>