<svg width="442" height="405" viewBox="0 0 442 405" fill="none" xmlns="http://www.w3.org/2000/svg">
<path d="M378.715 0.881836C382.513 -0.901644 388.273 0.0184883 394.796 3.66992C401.362 7.30016 408.081 13.3476 413.777 20.583C419.471 27.8219 423.785 35.7471 425.974 42.8584C428.183 49.941 428.075 55.5688 425.768 58.751C422.006 63.9136 418.274 69.1251 414.491 74.2666C414.364 74.6227 414.231 74.9764 414.096 75.3164C413.084 77.8531 413.027 81.2949 413.007 84.7168C413 85.5041 412.994 86.2946 412.976 87.0723C412.845 92.9717 405.93 96.5394 402.126 98.5371C402.058 98.575 401.989 98.6134 401.921 98.6514C401.017 99.1261 400.27 99.6952 399.396 100.368C397.314 101.976 394.504 104.135 387.085 106.944C385.534 108.457 383.963 109.929 382.349 111.37C364.977 126.892 345.294 140.063 325.993 152.944C325.805 153.163 325.608 153.39 325.414 153.616C324.774 154.36 324.122 155.124 323.465 155.884C320.077 159.772 316.193 163.928 312.531 165.739C306.94 168.496 302.761 170.044 299.272 171.259C289.616 178.028 280.008 184.967 270.67 192.234C272.402 192.739 273.953 193.276 275.258 193.906C281.632 196.992 287.304 202.799 291.534 207.111C292.226 207.816 292.877 208.482 293.484 209.086C297.732 211.215 301.989 213.29 306.275 215.362C306.333 215.842 306.384 216.336 306.434 216.841C307.052 223.138 311.214 225.839 317.759 230.088C320.604 231.935 323.919 234.09 327.588 236.957C329.958 238.809 330.166 241.278 330.332 243.29C330.383 243.883 330.431 244.439 330.529 244.927C330.867 246.598 332.646 246.219 334.744 245.77C337.478 245.194 340.744 244.492 342.121 248.015C346.482 259.224 352.69 257.766 357.407 256.674C358.788 256.352 360.043 256.065 361.08 256.137C362.281 256.22 363.373 256.748 364.339 257.558L365.217 258.173C366.918 259.695 368.16 262.104 368.909 264.474C369.846 267.405 374.91 268.858 379.293 269.21C380.953 269.345 382.515 270.457 384.346 271.767C386.25 273.129 388.424 274.691 391.329 275.603C398.651 277.892 402.444 279.171 405.493 280.199C406.362 280.492 407.167 280.767 407.978 281.034C410.538 281.876 413.511 283.187 416.513 284.501C420.104 286.073 423.744 287.647 426.787 288.446C431.029 292.53 435.181 296.706 439.383 300.923L439.083 300.719C440.578 302.146 441.628 303.269 441.869 303.817C442.403 304.851 436.947 307.184 436.083 314.281C434.86 321.152 435.754 330.36 434.996 339.703C434.241 349.017 432.109 358.144 425.89 364.027C419.986 370.151 408.37 370.222 402.493 367.16C399.738 365.845 397.742 364.868 396.106 364.177L395.854 364.004C389.947 361.305 384.086 358.547 378.328 355.593C369.213 350.919 360.421 345.797 352.35 339.923C346.7 335.811 341.238 331.542 335.899 327.153C335.352 326.703 334.79 326.237 334.253 325.79C328.703 324.376 323.252 322.825 319.521 321.211L320.712 322.044C320.384 321.915 320.068 321.785 319.767 321.654C316.664 320.303 315.337 317.923 314.194 315.883C313.405 314.477 312.714 313.239 311.587 312.605C310.983 312.266 310.115 311.856 309.075 311.365C304.821 309.355 297.579 305.947 292.787 300.047C290.669 297.434 288.644 293.716 286.699 290.159C283.938 285.086 281.335 280.338 278.901 279.643C274.618 278.416 271.195 274.754 268.184 271.52C265.305 268.43 262.778 265.719 260.217 265.883C257.141 266.07 255.836 264.276 253.888 261.604C252.525 259.744 250.887 257.489 248.119 255.153C244.936 252.466 243.242 249.733 241.801 247.407C239.781 244.139 238.247 241.669 233.791 241.248C230.12 240.888 226.632 240.066 224.04 238.595C223.864 238.951 223.69 239.304 223.517 239.654C221.608 243.524 219.87 246.98 217.988 249.339C213.439 255.039 206.283 259.417 200.964 262.608C200.094 263.131 199.267 263.629 198.516 264.09C195.338 267.781 192.153 271.499 188.949 275.211C188.464 275.151 187.966 275.08 187.458 275.006C182.956 274.349 179.763 275.855 176.13 278.68C175.291 279.516 174.425 280.413 173.513 281.363C171.235 283.737 168.46 286.627 165.043 289.617C162.885 291.499 160.349 291.322 158.36 291.096C157.771 291.034 157.219 290.977 156.726 290.979C155.034 290.99 155.101 292.788 155.197 294.896C155.309 297.644 155.359 301.033 151.732 301.67C140.038 303.844 140.449 310.197 140.837 314.914C140.967 316.281 141.022 317.584 140.793 318.58C140.04 321.82 136.093 323.549 132.319 324.202C129.397 324.643 127.361 329.448 126.553 333.69C126.221 335.322 125.065 336.597 123.538 338.28C122 339.977 120.274 341.882 119.104 344.609C116.167 351.488 114.708 354.931 113.41 357.835C113.056 358.646 112.771 359.344 112.422 360.133C111.395 362.539 109.965 365.207 108.511 367.96C106.802 371.215 105.18 374.465 104.418 377.166C99.8935 381.186 96.289 383.995 91.541 388.726L85.4033 395.706C82.5816 397.987 79.5875 399.962 76.6436 401.567C65.7921 407.33 56.8875 404.724 51.7549 398.935C46.4774 393.036 43.438 384.376 41.4189 375.219C39.4078 366.045 39.4459 356.802 39.9121 349.554C40.4724 342.36 39.7972 337.674 36.8926 338.459C36.1703 338.666 35.3086 339.04 34.4619 339.528L29.3057 345.393C32.2108 338.874 36.5848 330.918 40.5664 324.442C46.3547 315.035 52.4446 306.613 59.3525 298.94C64.1439 293.627 69.17 288.499 74.2393 283.651C74.7795 283.133 75.3139 282.627 75.8262 282.146C78.1584 276.265 80.7795 270.435 83.0166 266.994C84.9479 264.064 87.5618 263.114 89.7852 262.316C91.3241 261.758 92.7004 261.251 93.5615 260.206C94.0038 259.666 94.5479 258.894 95.2227 257.945C98.0012 254.045 102.838 247.334 109.467 243.764C112.513 242.071 116.466 240.846 120.359 239.562C125.953 237.701 130.971 236.181 132.189 233.846C132.338 233.557 132.498 233.273 132.67 232.996L134.59 231.197C136.899 227.962 140.83 225.925 144.335 224.081C147.94 222.184 151.08 220.504 151.505 218.019C152.006 215.053 153.994 214.283 156.968 213.101C159.025 212.285 161.553 211.269 164.36 209.201C167.6 206.814 170.566 205.837 173.092 204.999C174.125 204.655 175.083 204.332 175.955 203.947C175.236 203.712 174.521 203.475 173.827 203.227C171.42 202.391 169.181 201.358 168.093 199.942C167.533 199.222 167.588 197.849 167.644 196.485C167.645 196.478 167.646 196.47 167.647 196.463C167.651 196.37 167.654 196.279 167.657 196.187C162.517 193.551 157.276 190.944 152.074 188.421C151.499 188.367 150.917 188.303 150.348 188.243C147.584 187.962 144.861 187.659 142.488 188.313C139.927 189.031 135.814 187.54 131.495 185.978C128.662 184.95 125.743 183.894 123.088 183.39C121.541 183.099 121.143 181.349 120.733 179.545C120.347 177.859 119.965 176.139 118.619 175.512C117.945 175.198 117.02 175.128 116.032 175.053C115.162 174.986 114.242 174.918 113.405 174.677C112.628 174.451 111.639 172.932 110.364 170.988C109.578 169.788 108.684 168.427 107.668 167.103C103.816 165.195 99.9841 163.264 96.1816 161.29C94.8587 161.602 93.4493 162.233 91.9414 163.264C90.8592 164.003 89.6855 164.975 88.4854 165.968C86.8522 167.319 85.1645 168.715 83.5674 169.645C82.3195 170.37 81.4588 170.392 81.415 169.68C81.3951 169.347 81.5489 168.861 81.6875 168.422C81.8462 167.919 81.986 167.47 81.8301 167.37C81.7162 167.3 81.3959 167.504 81.0039 167.748C80.3783 168.138 79.5679 168.64 79.1123 168.346C77.4141 167.245 75.7532 165.676 74.1016 164.118C72.2719 162.391 70.5012 160.716 68.7725 159.774C66.8478 158.728 65.1254 155.832 63.4072 152.942C62.2246 150.938 60.9868 148.898 59.7246 147.507C58.494 146.148 56.5012 145.587 54.6143 145.08C52.3604 144.48 50.1215 143.854 49.3721 141.871C49.2189 141.466 49.707 140.056 50.3057 138.282C50.7275 137.023 51.2089 135.581 51.5723 134.194C49.7176 132.829 47.9241 131.437 46.1289 129.98C45.9493 130.088 45.7653 130.198 45.5791 130.311C45.5755 130.313 45.572 130.317 45.5684 130.319C41.3851 132.874 35.5866 136.311 34.8975 131.205C34.7046 129.894 35.268 128.15 35.7754 126.58C36.2739 125.039 36.7208 123.661 36.3584 123.034C35.9525 122.328 34.6599 122.547 33.2549 122.786C31.2731 123.115 29.1397 123.541 28.75 121.393C28.725 121.247 28.6989 121.089 28.6699 120.928C28.3815 119.39 28.0463 117.183 28.5674 113.624C25.8084 110.734 23.0201 107.702 20.3809 104.696C19.7366 103.977 19.1114 103.266 18.5049 102.565C13.0193 96.2702 7.69428 89.7772 2.35449 83.2559C-0.219149 80.0858 -0.754447 74.3017 1.10547 67.0479C2.03983 63.4177 3.48491 59.5472 5.41309 55.6738C6.3907 53.7476 7.444 51.785 8.65625 49.8809C9.27047 48.9372 9.87907 47.9628 10.6621 47.1318C10.8559 46.9232 11.0768 46.7349 11.3438 46.6201C11.468 46.5591 11.6863 46.583 11.873 46.8477C11.9589 46.9942 12.0508 47.1519 12.0088 47.4844C11.9406 47.8781 11.6779 48.2034 11.4941 48.3779C11.3044 48.5602 11.1635 48.661 11.0742 48.752C11.0129 48.8361 10.9667 48.9139 10.9297 48.9893C10.8561 49.1394 10.8172 49.2827 10.7939 49.4268C10.7493 49.7144 10.7615 50.0023 10.7598 50.29C10.7651 50.5774 10.7362 50.8655 10.8232 51.1514C10.8722 51.2932 10.9512 51.4381 11.1641 51.5635C11.2724 51.6252 11.4173 51.6831 11.6328 51.7158C11.9323 51.7256 12.4039 51.7164 13.1592 51.3936C13.8853 51.0938 15.0526 50.2353 15.6406 48.835C16.1162 47.6955 16.1485 46.9961 16.1367 46.2539C16.0842 44.882 15.6273 44.0184 15.6592 43.7891C15.6422 43.2453 15.6442 42.8164 15.6875 42.4443C16.0951 41.2253 16.753 40.3269 17.4238 39.4238C18.7783 37.641 20.2804 36.037 21.7881 34.5215C24.8232 31.5074 28.0294 28.973 31.167 26.9971C37.4413 23.0553 43.0553 21.8438 46.7881 23.3516C52.932 25.876 59.0161 28.3413 65.126 30.9824C65.5259 31.0402 65.8915 31.0797 66.2617 31.1377C68.8785 31.5605 72.0249 30.9406 75.2881 30.3193C75.4854 30.2758 75.6837 30.2327 75.8818 30.1895C76.6563 30.0202 77.4385 29.8539 78.2158 29.7061C84.1333 28.5891 89.3967 34.7115 92.3193 38.0957C92.3727 38.1552 92.427 38.2149 92.4805 38.2744C93.1599 39.0665 93.9063 39.6935 94.7959 40.4316C96.8873 42.1697 99.7173 44.5225 104.229 51.3379C106.103 52.5895 107.913 53.8518 109.72 55.1816C129.144 69.4763 146.391 86.6895 163.249 104.452C163.508 104.613 163.771 104.776 164.037 104.941C169.189 108.142 175.553 112.088 178.417 116.167C182.043 121.343 184.22 125.275 185.939 128.552C193.844 136.876 201.845 145.087 210.053 152.865C212.615 155.293 215.207 157.677 217.83 160.017C219.621 159.075 221.371 157.964 222.788 156.193C224.041 154.625 225.131 152.464 226.194 150.338C227.78 147.173 229.337 144.056 231.459 142.876C232.252 142.437 233.59 142.707 234.918 142.979C234.925 142.982 234.933 142.985 234.94 142.987C235.03 143.006 235.119 143.023 235.209 143.041C238.55 138.398 241.804 133.704 245.057 128.938C245.188 128.383 245.327 127.827 245.471 127.272C246.171 124.564 246.816 121.969 246.527 119.515C246.199 116.87 248.251 113.045 250.438 109C251.867 106.354 253.371 103.596 254.264 101.049C254.796 99.5494 256.606 99.3989 258.453 99.2646C260.167 99.1488 261.969 98.9877 262.802 97.7461C263.119 97.2735 263.319 96.6379 263.497 95.9385C263.557 95.7111 263.615 95.4761 263.675 95.2373C263.89 94.3722 264.125 93.4512 264.526 92.6318C264.916 91.8558 266.589 91.101 268.787 90.0869C270.149 89.4573 271.644 88.794 273.173 87.9609C275.767 84.4114 278.454 80.8522 281.118 77.4121C281.061 76.0397 280.721 74.5115 279.978 72.8428C279.449 71.6413 278.707 70.3083 277.952 68.9434C276.925 67.0857 275.867 65.1624 275.262 63.4053C274.787 62.0336 274.948 61.1569 275.661 61.2402C275.995 61.2774 276.449 61.514 276.858 61.7275C277.328 61.9722 277.747 62.1893 277.877 62.0498C277.969 61.9481 277.83 61.5923 277.665 61.1602C277.401 60.4688 277.063 59.5741 277.448 59.1689C278.899 57.6474 280.782 56.2735 282.676 54.8936C284.748 53.3893 286.811 51.8908 288.08 50.3613C289.517 48.6326 292.743 47.4549 295.977 46.2783C298.226 45.4625 300.474 44.6482 302.135 43.6465C303.752 42.6739 304.705 40.8309 305.623 39.0479C306.718 36.9134 307.794 34.8425 309.929 34.4795C310.362 34.4065 311.657 35.1603 313.277 36.1045C314.426 36.7737 315.741 37.5381 317.028 38.1748C318.772 36.6184 320.55 35.1161 322.372 33.6475C322.305 33.4485 322.239 33.2446 322.169 33.0381C322.167 33.0339 322.164 33.0295 322.162 33.0254C320.585 28.3613 318.463 21.953 323.69 22.292C325.019 22.3791 326.61 23.2966 328.041 24.123C329.446 24.9348 330.704 25.6625 331.408 25.4307C332.208 25.1664 332.278 23.8527 332.357 22.4229C332.468 20.4162 332.602 18.1669 334.774 18.2676C334.922 18.2745 335.084 18.2839 335.248 18.29C336.808 18.349 339.119 18.4362 342.463 19.7441C346.782 17.1409 351.225 14.6524 355.725 12.2666C363.237 8.28037 370.955 4.5405 378.715 0.881836Z" fill="#780E08"/>
</svg>
