<svg width="268" height="509" viewBox="0 0 268 509" fill="none" xmlns="http://www.w3.org/2000/svg">
<path d="M148.24 488.899C146.831 490.32 145.944 492.079 144.822 493.842C152.016 493.325 159.002 493.034 166.004 493.121C168.192 493.15 170.285 493.559 172.302 494.271C174.028 494.884 175.891 495.584 175.595 498.06C175.582 498.177 175.711 498.306 175.766 498.431C176.833 500.748 176.845 500.79 174.394 501.349C163.445 503.854 152.346 504.879 141.117 504.746C132.606 504.646 124.095 504.691 115.584 504.675C112.691 504.671 109.803 504.675 106.885 504.5C110.828 502.728 115.109 503.378 119.26 502.774C116.038 501.832 112.708 501.849 109.361 501.799C105.897 501.749 102.446 501.524 98.9744 501.686C95.5274 501.845 92.068 501.72 88.5794 501.403C90.1674 500.315 92.043 500.578 93.7519 500.094C93.5518 499.556 92.8099 500.094 92.614 499.411C96.1735 497.618 100.029 497.056 104.059 496.906C101.438 496.372 98.816 495.855 96.1985 495.293C95.4691 495.134 95.0231 495.597 94.4938 495.889C89.2587 498.785 83.8112 501.215 77.9009 502.261C74.5082 502.862 71.0154 503.203 67.5768 503.158C60.9247 503.07 54.3892 504.783 47.7329 504.27C45.4656 504.095 43.1565 504.02 40.9599 503.504C38.1591 502.845 35.4207 503.337 32.699 503.591C29.8105 503.858 26.8638 503.491 24.0254 504.35C23.2876 504.571 22.6124 504.796 22.1831 505.646C27.1055 506.025 31.9154 504.841 36.7919 505.783C34.883 505.992 32.9824 506.284 31.0651 506.396C25.6009 506.721 20.1324 506.971 14.664 507.259C13.4887 507.321 12.3133 507.396 11.2046 507.888C10.8962 508.026 10.471 508.213 10.2168 508.105C7.25749 506.842 4.20651 507.717 1.20138 507.68C0.7304 507.676 0.0260076 507.784 0.000999602 507.184C-0.0323444 506.388 0.776248 506.579 1.26807 506.546C3.5438 506.384 5.81953 506.267 8.09526 506.121C8.90385 506.071 9.63325 506.079 10.1751 505.146C14.7182 497.314 22.0122 493.83 30.5775 492.329C38.1049 491.012 45.724 490.979 53.3139 490.433C59.7201 489.97 66.1764 490.337 72.5326 489.378C76.3629 488.803 79.8932 487.152 83.7653 485.252C82.3399 484.793 81.4437 484.51 80.2725 484.66C75.4001 485.285 70.657 484.497 66.043 482.893C65.4345 482.68 64.6967 482.472 64.605 481.609C65.1135 481.338 65.5386 481.563 66.0055 481.717C69.3149 482.809 72.6951 483.151 76.2004 483.305C81.2562 483.53 85.0199 480.975 88.9962 478.637C90.1132 477.979 90.4591 477.07 90.2007 475.841C89.5047 472.552 89.4922 469.222 89.8673 465.916C90.3924 461.252 89.0545 456.693 89.3171 452.054C89.413 450.324 89.3713 448.586 89.9006 446.915C90.3508 445.489 90.1632 444.193 89.7464 442.738C89.1129 440.538 89.0628 438.087 89.6714 435.936C91.1677 430.639 91.5803 425.195 92.3514 419.798C93.0058 415.221 95.5733 411.449 97.3363 407.344C100.175 400.741 104.264 394.91 108.615 389.25C109.882 387.604 111.187 385.974 112.604 384.465C116.309 380.518 118.56 375.779 120.735 370.89C122.661 366.56 125.033 362.363 128.646 359.082C129.051 358.716 129.459 358.061 130.005 358.453C130.639 358.911 130.034 359.487 129.718 359.866C127.179 362.913 125.354 366.439 123.074 369.648C121.798 371.445 122.19 373.654 121.181 375.5C120.727 376.329 120.452 377.296 119.856 378.059C116.638 382.198 113.592 386.483 110.124 390.396C101.592 400.02 95.9567 411.091 92.8266 423.503C92.8141 423.557 92.8682 423.628 92.9516 423.866C95.5191 420.214 97.0071 415.888 100.771 413.195C94.2228 421.29 90.9635 430.547 90.6384 440.892C92.4723 436.044 94.1561 431.147 97.9324 427.354C91.5303 437.241 89.8131 448.165 90.4008 459.714C91.3261 459.26 90.8593 458.022 92.0638 457.58C90.6884 463.974 90.2507 470.272 90.8843 476.62C91.4219 476.878 91.6387 476.416 91.9471 476.186C92.4473 475.82 92.8682 474.778 93.5685 475.545C94.1687 476.203 93.26 476.824 92.8516 477.266C90.2757 480.067 87.1831 482.105 83.3318 483.201C84.9407 483.522 85.0157 483.472 87.2081 482.501C88.3751 481.98 90.4758 481.001 90.705 481.688C91.151 483.026 89.3213 483.743 88.2167 484.464C83.5361 487.54 78.4053 489.582 73.0035 490.995C71.5823 491.366 70.1443 491.47 68.6813 491.495C57.4819 491.675 46.2825 492.025 35.1372 493.129C28.3351 493.805 21.7538 495.472 16.2645 500.011C14.3764 501.574 12.8551 503.387 11.4213 505.696C15.5852 506.113 19.0488 504.279 22.9834 503.745C22.1247 502.545 20.841 502.787 20.2575 501.72C24.7464 503.033 29.2104 501.803 33.7118 502.007C33.5993 501.19 32.4406 501.228 32.6073 500.107C36.7128 501.961 40.8974 501.782 45.2196 500.344C44.3569 499.34 42.9106 499.469 41.5726 498.131C49 499.673 55.8856 501.344 63.0337 500.357C61.1081 499.336 58.6031 499.381 57.186 496.814C59.32 497.439 61.1247 497.985 62.9378 498.494C67.8519 499.873 72.7201 499.936 77.5675 498.123C80.1558 497.156 82.815 496.368 85.4367 495.484C85.891 495.33 86.3912 494.942 86.8038 495.284C87.3748 495.759 86.3745 496.201 86.6496 496.86C87.6999 496.339 88.4335 495.634 89.2587 494.801C90.184 493.867 91.5303 492.462 93.1558 492.808C96.2693 493.475 96.3777 493.509 97.7948 489.891C98.3533 488.474 98.8993 487.048 99.4703 485.635C99.6537 485.177 99.5704 484.31 100.321 484.518C100.971 484.697 101.071 485.385 100.812 486.09C100.033 488.232 99.4162 490.449 98.2241 492.417C97.6073 493.434 97.5822 494.105 98.9577 494.171C101.417 494.292 103.618 495.509 106.047 495.843C104.264 494.805 102.305 494.088 101.05 492.333C100.725 491.875 100.596 491.475 100.929 491.02C101.367 490.424 101.846 490.808 102.171 491.112C106.41 495.126 111.862 495.401 117.197 496.068C120.164 496.439 123.12 495.972 126.083 495.959C126.958 495.959 127.012 495.243 127.221 494.697C128.588 491.145 129.901 487.573 131.31 484.043C131.593 483.33 131.681 482.388 132.76 482.013C133.156 483.614 132.564 485.031 132.047 486.394C130.601 490.199 129.046 493.963 127.533 497.743C126.908 499.302 127.679 500.782 128.059 502.174C128.28 502.978 129.788 502.62 130.739 502.632C131.918 502.649 133.102 502.637 134.281 502.641C134.561 502.641 134.836 502.649 135.115 502.67C136.365 502.757 135.394 501.507 136.02 501.182C137.287 500.528 136.874 502.17 137.566 502.278C138.249 502.391 138.929 502.582 139.617 502.595C143.013 502.666 146.415 502.637 149.811 502.745C155.159 502.912 160.427 502.103 165.683 501.361C168.947 500.903 171.989 499.511 175.061 497.789C172.59 495.597 169.705 494.963 166.692 494.805C163.366 494.63 160.044 494.813 156.722 495.168C152.737 495.593 148.707 494.813 144.735 495.513C143.205 495.78 142.847 495.047 143.072 493.805C143.343 492.304 143.305 490.474 145.614 490.554C146.164 490.57 146.21 490.162 146.114 489.882C145.327 487.528 147.265 486.269 148.219 484.643C152.371 477.545 155.359 470.122 154.888 461.686C154.851 460.99 154.813 460.315 154.346 459.719C154.155 459.473 154 459.043 154.071 458.764C154.571 456.843 154.484 456.722 152.754 455.572C147.436 452.037 141.659 451.283 135.682 453.171C130.397 454.842 125.054 456.276 119.718 457.751C118.856 457.989 118.043 458.393 117.164 458.735C116.534 457.522 117.551 457.335 118.256 457.034C122.228 455.342 126.491 454.638 130.605 453.442C134.519 452.304 138.349 450.903 142.542 450.937C148.103 450.978 152.658 453.237 156.764 456.543C157.126 449.957 158.781 443.513 161.499 437.024C162.182 437.999 161.815 438.674 161.649 439.375C160.519 444.155 158.927 448.832 158.398 453.75C158.097 456.53 158.185 459.098 159.485 461.798C161.653 466.296 162.22 471.327 163.199 476.199C163.42 477.283 163.483 478.4 163.666 479.492C163.945 481.159 164.02 482.789 165.775 483.939C166.759 484.585 167.359 486.035 167.792 487.248C169.318 491.496 179.588 494.209 183.768 490.512C184.973 489.449 185.352 487.486 184.527 486.102C184.156 485.481 183.643 485.269 182.972 485.319C177.987 485.681 177.066 485.193 175.307 480.417C172.623 473.131 170.635 465.654 169.493 457.96C169.026 454.817 168.476 451.683 167.871 448.561C167.25 445.352 166.904 442.126 166.896 438.854C166.888 435.865 166.367 433.014 164.758 430.397C163.737 428.738 163.266 426.837 163.062 424.891C163.02 424.474 163.074 423.97 162.528 423.928C160.615 423.786 160.519 422.29 160.323 420.948C159.873 417.926 159.685 414.888 160.227 411.853C160.302 411.437 160.069 410.72 160.811 410.753C161.365 410.774 161.449 411.345 161.578 411.833C162.174 414.033 161.59 416.23 161.599 418.422C161.599 419.11 161.674 419.798 161.728 420.485C161.799 421.415 162.432 422.157 163.157 422.323C164.241 422.578 163.674 421.148 164.433 420.64C164.366 427.317 167.834 432.535 171.006 437.841C174.678 443.976 178.021 450.191 179.825 457.222C180.438 459.61 180.967 461.715 180.425 464.141C180.163 465.32 180.742 466.817 181.276 467.659C182.384 469.405 181.655 470.831 181.363 472.398C181.263 472.931 181.001 473.456 181.38 474.082C181.98 473.823 182.68 472.744 183.222 474.127C184.864 478.337 187.974 481.788 189.432 486.09C190.32 488.715 191.162 491.35 191.096 494.18C188.149 494.055 188.111 494.055 188.165 491.32C188.24 487.34 186.686 483.906 184.685 480.609C183.931 479.367 182.985 478.237 182.501 476.837C182.422 476.607 182.576 476.124 181.972 476.22C179.379 476.632 179.513 474.799 179.446 473.119C179.238 467.688 178.937 462.257 178.041 456.893C177.029 450.828 173.873 445.681 170.731 440.542C169.985 439.32 169.293 438.066 168.338 436.415C167.992 439.662 168.272 442.48 168.722 445.193C170.03 453.104 171.339 461.036 173.194 468.83C174.361 473.736 175.378 478.833 178.541 483.072C179.35 484.156 180.075 484.564 181.488 484.181C184.181 483.447 185.373 484.085 186.119 486.256C187.444 490.108 187.094 491.341 184.289 492.638C176.678 496.168 168.984 492.921 164.75 485.873C161.928 481.176 162.365 476.061 160.698 471.322C159.877 468.988 159.239 466.588 158.343 464.137C157.835 473.615 152.979 481.276 148.161 488.949L148.223 488.886L148.24 488.899ZM95.6691 499.865C96.5361 499.957 97.1988 500.115 97.8532 500.09C105.468 499.756 113.062 499.965 120.644 500.803C122.144 500.969 123.67 501.124 125.183 500.736C125.658 500.615 126.208 500.648 126.216 499.986C126.225 499.386 125.812 499.165 125.262 499.131C122.986 498.994 120.669 498.514 118.443 498.781C113.558 499.373 108.677 499.16 103.793 499.252C101.163 499.302 98.4325 498.098 95.6691 499.865ZM44.4152 502.72C46.2366 502.72 47.8288 502.753 49.4168 502.712C50.9757 502.67 52.5303 502.545 54.0892 502.457C50.8798 501.857 47.6287 499.565 44.4152 502.724V502.72ZM156.564 465.15C157.281 461.794 157.13 460.815 155.505 459.202C156.447 461.398 156.168 463.311 156.564 465.15Z" fill="black"/>
<path d="M183.676 7.96986C184.002 9.0452 183.339 9.23276 182.643 8.86181C177.458 6.10259 171.948 6.70279 166.433 7.14876C165.579 7.21962 164.8 7.31548 164.066 7.77813C163.716 7.99903 163.399 7.82398 163.182 7.50721C162.907 7.10291 163.212 6.89451 163.491 6.67778C164.383 5.97755 165.366 5.56492 166.513 5.42738C169.368 5.0856 172.235 5.0731 175.682 5.09811C172.41 2.92658 169.347 1.9471 165.487 1.81789C170.814 -0.591216 174.744 3.08496 179.117 3.66848C179.175 3.28086 179.254 3.10163 179.204 3.04745C178.437 2.25136 177.725 0.830073 178.441 0.359088C179.471 -0.31196 179.696 1.39692 180.338 2.00128C180.621 2.26803 180.834 2.61814 181.188 3.07663C181.276 1.90542 179.8 0.725873 181.126 0.12568C182.364 -0.437 182.96 1.0218 183.581 1.88874C184.052 2.54729 184.397 3.29753 184.823 4.0561C185.552 3.60596 184.877 2.34722 185.885 2.25136C186.798 2.16383 187.069 3.06412 187.578 3.60179C188.861 4.9689 189.349 6.71946 189.945 8.41167C190.504 9.99551 191.416 11.3334 192.442 12.7255C193.355 11.7502 192.613 10.9792 192.313 10.2581C191.8 9.03687 191.358 7.83231 191.312 6.47771C191.287 5.68996 191.546 5.28567 192.271 5.16063C192.988 5.03559 193.3 5.55659 193.421 6.10676C193.738 7.52805 194.092 8.95351 194.213 10.3998C194.338 11.8419 194.747 11.621 195.864 11.1834C198.11 10.2956 200.386 9.30779 202.908 9.462C203.387 9.49118 204.008 9.41199 204.237 9.86213C204.479 10.3373 203.995 10.7791 203.675 11.1C201.991 12.7631 200.148 13.9468 197.598 13.1549C196.28 12.7464 195.643 13.6925 195.401 14.7304C195.122 15.9182 194.472 16.9852 194.522 18.1398C192.171 17.377 191.767 14.6553 189.599 13.7175C188.811 13.3758 188.324 13.4675 187.732 13.9301C178.675 21.0365 169.951 28.5931 159.919 34.3825C158.46 35.2244 157.272 36.5332 156.197 37.9461C158.693 36.3206 161.194 34.7034 163.691 33.0737C170.822 28.4264 177.95 23.7707 185.085 19.1276C185.49 18.865 185.915 18.6191 186.352 18.4149C187.536 17.8647 188.095 18.0356 188.057 19.5652C187.999 21.8618 186.594 23.2581 184.994 24.4543C181.076 27.3886 178.012 31.1981 174.436 34.5033C177.349 32.0567 180.696 30.1811 183.435 27.301C182.272 29.8477 176.453 36.0622 171.468 38.3921C166.646 40.647 162.778 44.6649 157.197 45.3693C157.268 45.5527 157.343 45.7361 157.414 45.9195C158.031 45.7903 158.685 45.7528 159.252 45.511C163.07 43.873 167.363 43.6271 170.956 41.268C172.994 39.9301 173.969 37.7169 175.836 36.2456C178.721 33.9782 181.338 31.3774 184.168 29.0308C186.219 27.3302 188.424 25.8172 190.554 24.2126C191.908 23.1914 192.2 21.1032 194.126 20.6573C194.238 20.6322 194.367 20.6823 194.647 20.7156C192.175 24.8503 191.095 29.4392 189.528 33.8656C192.012 32.4735 192.554 29.8519 193.717 27.672C194.584 26.0423 195.276 24.2834 195.797 22.512C197.347 17.2061 199.402 16.6768 203.97 18.1148C206.229 18.8233 208.564 19.2943 210.347 21.0199C210.643 21.3075 211.023 21.52 211.289 21.8285C211.727 22.337 212.423 22.9246 211.715 23.5915C211.085 24.1834 210.523 23.7291 209.96 23.1831C208.768 22.0285 207.513 20.9282 206.196 19.9195C205.683 19.5277 204.737 18.9025 204.771 20.4447H204.767C203.266 19.8987 201.799 19.1943 200.248 18.8525C199.04 18.5899 198.927 19.8403 198.685 20.6614C197.01 26.3716 195.351 32.0859 193.734 37.8127C193.542 38.4921 193.534 39.1882 192.779 39.4383C190.466 37.0458 193.509 35.2661 193.559 32.5986C191.6 36.5373 187.657 38.4755 186.627 42.5518L186.698 42.4809C182.705 43.4687 179.037 45.1318 175.653 47.5033C174.073 48.612 172.69 49.8499 170.151 49.033C168.742 48.5787 166.438 48.3036 164.637 49.3873C163.262 50.2167 161.674 49.7124 160.186 49.8124C159.36 49.8666 158.585 49.9166 157.685 50.2417C158.368 51.2712 160.056 50.721 160.256 52.3257C160.394 53.4261 160.765 54.4264 159.885 55.5976C158.668 54.1388 157.952 52.5175 157.614 50.8086C157.41 49.7832 157.097 49.7999 156.276 49.9708C155.196 50.1959 154.079 50.2584 152.979 50.3751C152.475 50.4293 151.845 50.3501 151.712 49.8874C151.587 49.454 152.041 49.0455 152.483 48.7662C153.446 48.1536 154.763 48.1202 155.434 47.0115C155.142 46.5822 154.792 46.8531 154.492 46.8656C153.759 46.8948 152.904 46.7698 152.746 46.0737C152.562 45.2776 153.479 45.0692 154.067 44.7191C158.256 42.2225 163.003 40.9846 167.338 38.8256C168.184 38.4046 169.018 37.9586 169.784 37.3418C168.263 37.2626 166.888 37.9628 165.683 38.5255C162.382 40.0718 158.673 40.7428 155.751 43.0978C155.038 43.673 153.988 43.7188 153.438 43.3645C152.646 42.8519 151.995 43.1061 151.274 43.1353C150.491 43.1645 149.566 43.4896 149.228 42.4309C148.911 41.4389 149.461 40.822 150.257 40.1968C152.9 38.117 154.934 35.3453 157.856 33.553C155.167 33.4905 153.842 35.9913 151.579 36.7041C151.033 36.8749 150.445 37.721 149.999 36.9791C149.57 36.2622 150.478 35.8955 151.008 35.7079C152.287 35.2494 152.025 33.8698 152.754 33.0529C154.53 31.0648 156.672 29.5476 158.752 27.9429C159.544 27.3302 160.294 26.6633 160.798 25.6589C158.172 27.3677 155.551 29.0766 152.917 30.7772C151.987 31.3773 151.066 31.99 150.091 32.5069C149.811 32.6528 149.224 32.8153 149.049 32.2651C148.94 31.9192 149.232 31.6274 149.541 31.4274C153.333 28.9974 156.797 26.084 160.715 23.8374C161.419 23.4331 162.17 23.0789 162.616 22.3119C158.114 22.0035 154.726 24.0792 151.845 28.8891C150.858 27.9221 152.108 26.9801 151.925 26.0548C150.97 25.8131 150.487 27.8095 149.699 26.7134C148.882 25.5797 150.416 25.1837 151.049 24.5752C151.783 23.8708 152.587 23.2372 153.75 22.2411C151.537 22.4161 149.795 22.5329 148.061 22.6954C147.29 22.7663 146.314 22.9288 146.064 22.1119C145.76 21.1116 146.944 21.295 147.465 21.0532C151.458 19.2068 155.146 16.9352 158.202 13.7217C159.006 12.8756 159.885 12.2504 161.082 11.8461C162.386 11.4085 163.716 10.7833 164.675 9.54536C165.546 8.41583 166.992 8.06989 168.388 7.87399C170.164 7.62808 171.877 7.98653 173.619 8.61173C170.735 9.75793 167.35 9.24527 164.812 11.3376C162.453 13.2799 159.006 13.7759 157.522 16.856C159.752 17.5271 159.785 17.5563 161.273 16.0183C164.599 12.5838 168.551 10.8666 173.386 11.3668C176.945 11.7336 180.38 10.5957 183.897 10.4498C184.414 10.429 185.181 10.1831 185.281 10.9125C185.377 11.6085 184.627 11.6502 184.089 11.7502C179.204 12.6505 174.457 13.9051 170.451 17.1728C171.352 16.8269 172.277 16.5351 173.148 16.1266C177.187 14.226 181.351 12.8756 185.894 13.009C187.003 13.0423 187.611 12.1087 188.265 11.4085C189.07 10.5457 187.94 9.96633 187.786 9.23276C187.724 8.941 187.553 8.58255 187.286 8.73677C185.844 9.5662 184.864 8.21994 183.647 8.03655C182.655 5.91503 180.605 5.37319 178.708 4.59795C180.209 5.96922 181.626 7.4697 183.685 7.99487L183.676 7.96986ZM185.114 31.0606C182.926 34.0157 180.242 36.4581 177.224 38.5338C175.353 39.8217 173.452 41.068 171.281 42.5268C172.465 42.7143 173.098 42.4226 173.74 42.1891C178.02 40.6512 180.771 37.1584 183.851 34.1241C184.577 33.4113 185.481 32.386 185.119 31.0481C186.227 31.3398 186.69 31.8733 185.94 32.9862C185.269 33.9823 184.664 35.0243 183.797 36.4206C187.649 34.4908 188.182 31.1064 189.078 27.9096C187.803 29.0516 186.577 30.2061 185.114 31.0606ZM181.868 24.175C181.688 23.9583 181.509 23.7374 181.334 23.5207C173.994 30.2103 164.741 33.924 156.801 39.7134C159.81 37.9545 163.403 38.0878 166.45 36.5999C168.221 35.7329 170.597 35.6412 171.748 34.1241C173.773 31.444 176.207 29.2767 178.704 27.1177C179.792 26.1757 180.821 25.1629 181.876 24.1792L181.868 24.175ZM160.707 28.5098C168.859 24.7919 175.882 19.2151 183.597 14.772C175.007 17.7522 167.513 22.5579 160.707 28.5098ZM159.36 21.4783C165.091 19.7069 168.984 14.7345 174.794 13.2049C168.171 13.2799 163.52 16.9852 159.36 21.4783ZM188.049 36.8583C185.273 37.1667 183.726 39.159 182.284 41.3014C184.652 40.4594 186.436 38.8131 188.049 36.8583ZM152.904 20.9115C155.213 21.4075 157.764 20.0862 158.618 17.9439C156.701 18.8692 154.513 19.0526 152.904 20.9115Z" fill="black"/>
<path d="M182.939 333.886C182.143 334.337 182.447 334.958 182.626 335.629C183.635 339.405 185.877 342.422 188.361 345.34C190.233 347.537 192.529 349.421 193.722 352.155C193.972 352.722 194.301 353.276 194.159 353.934C194.092 354.255 194.092 354.701 193.642 354.693C193.434 354.693 193.117 354.455 193.046 354.255C191.738 350.517 188.141 348.629 186.011 345.54C184.877 343.898 183.572 342.356 182.514 340.651C182.176 340.109 181.897 339.326 181.163 339.78C178.8 341.243 176.178 340.422 173.698 340.793C173.632 340.801 173.557 340.772 173.49 340.784C163.82 342.989 154.109 341.351 144.464 340.755C139.325 340.438 136.37 342.502 134.036 346.503C132.043 349.921 130.618 353.605 128.997 357.198C128.855 357.515 128.751 357.848 128.597 358.157C128.376 358.598 128.109 359.078 127.513 358.903C126.721 358.669 127.25 358.119 127.317 357.711C127.7 355.331 129.076 353.368 130.068 351.242C130.447 350.429 130.872 349.629 131.147 348.779C131.218 348.558 132.552 347.157 130.551 347.799C130.08 347.953 130.322 346.949 130.576 346.486C131.948 343.998 133.873 341.931 136.382 340.73C138.871 339.538 139.921 337.938 139.417 335.262C139.129 333.74 139.713 333.04 141.321 333.224C144.556 333.595 147.765 332.74 151.004 332.986C155.493 333.328 160.007 333.461 164.475 333.982C167.471 334.328 170.164 332.999 173.077 332.969C176.045 332.94 179.004 332.511 181.972 332.336C182.931 332.277 183.364 331.973 183.306 330.981C183.235 329.739 183.827 328.535 183.531 327.268C183.427 326.822 183.514 326.376 184.056 326.338C184.623 326.296 184.698 326.863 184.723 327.218C184.869 329.414 185.248 331.606 184.99 333.82C184.894 334.645 184.677 335.762 183.831 335.812C182.489 335.891 183.76 334.382 182.939 333.882V333.886ZM141.209 338.525C142.218 338.705 143.222 338.95 144.239 339.055C149.128 339.567 154.042 339.892 158.952 339.842C162.161 339.809 165.308 341.084 168.547 340.205C169.41 339.972 170.314 339.859 171.206 339.759C174.082 339.438 176.97 339.196 179.842 338.821C180.496 338.734 181.493 338.775 181.568 337.7C181.755 335.087 180.296 333.74 177.691 334.099C177.145 334.174 176.608 334.349 176.058 334.395C170.568 334.857 165.154 336.062 159.552 335.383C154.201 334.732 148.799 334.453 143.38 334.949C141.859 335.087 141.496 335.533 142.047 336.796C142.468 337.758 142.426 338.317 141.213 338.53L141.209 338.525Z" fill="black"/>
<path d="M159.894 292.602C161.207 292.477 162.182 292.473 162.628 293.911C162.958 294.978 163.804 295.64 164.833 296.216C169.722 298.95 174.474 301.901 178.954 305.285C179.963 306.044 180.163 307.498 181.559 307.982C181.53 306.09 180.951 304.356 180.326 302.722C178.3 297.408 179.175 292.235 180.701 287.046C180.797 286.717 181.03 286.371 180.984 286.062C180.159 280.615 181.659 275.209 181.238 269.761C181.084 267.752 180.838 265.798 180.063 263.689C179.3 266.464 179.438 269.245 178.229 271.733C177.604 270.57 177.812 269.37 177.908 268.198C178.192 264.818 178.563 261.459 178.442 258.045C178.354 255.607 177.471 253.685 175.732 252.051C175.349 251.689 174.482 251.276 175.274 250.58C175.878 250.047 176.537 250.213 177.116 250.801C179.063 252.76 180.492 254.965 180.692 257.824C180.913 260.934 181.651 263.947 182.33 266.985C183.214 270.949 182.41 274.984 182.289 278.981C182.222 281.278 182.793 283.657 181.659 285.875C181.551 286.087 181.563 286.583 181.701 286.667C183.664 287.921 182.389 289.347 181.839 290.601C180.246 294.248 180.542 297.879 181.618 301.563C183.114 306.707 184.606 311.854 185.498 317.147C185.586 317.668 185.827 318.223 186.157 318.635C187.907 320.815 187.211 323.574 184.627 324.525C180.813 325.925 177.554 324.737 174.586 320.861C171.773 317.185 168.714 313.884 163.891 312.808C162.974 312.604 161.086 312.183 161.607 311.016C162.186 309.72 163.474 311.133 164.4 311.5C165.683 312.004 166.934 312.533 168.293 312.858C170.789 313.454 172.456 315.309 173.953 317.21C175.328 318.96 176.82 320.586 178.367 322.166C179.834 323.662 181.626 323.908 183.556 323.278C184.539 322.958 185.356 322.278 185.298 321.19C185.248 320.236 185.569 318.994 184.077 318.585C183.31 318.373 183.397 317.481 183.231 316.872C181.347 310.016 177.058 305.135 170.935 301.722C168.272 300.238 165.638 298.708 163.003 297.178C161.274 296.174 160.561 294.478 159.894 292.602Z" fill="black"/>
<path d="M264.052 471.772C264.261 472.635 264.548 473.49 264.661 474.365C264.961 476.757 264.102 477.899 261.293 479.137C263.181 479.108 265.073 478.808 267.287 479.125C265.203 480.971 262.818 480.654 260.672 480.967C258.459 481.292 256.195 481.271 253.807 481.409C254.324 482.034 254.858 481.817 255.295 481.947C255.72 482.072 256.079 482.297 256.112 482.768C256.15 483.28 255.741 483.476 255.337 483.593C254.541 483.822 253.753 484.131 252.936 484.222C247.113 484.852 241.32 485.794 235.46 485.973C232.951 486.052 230.429 485.669 227.916 485.26C229.516 484.485 231.192 484.689 232.846 484.714C234.697 484.739 237.248 485.452 238.211 484.326C239.482 482.839 240.695 483.385 241.912 483.247C243.308 483.089 244.754 483.326 246.538 483.41C245.38 482.263 244.7 481.496 243.054 481.505C234.68 481.555 226.311 480.9 217.929 481.038C217.679 481.038 217.429 480.98 216.983 480.921C217.462 479.996 218.212 480.021 218.796 480.029C227.432 480.154 236.064 479.708 244.7 480.092C247.655 480.221 250.627 479.875 253.59 479.854C255.825 479.838 257.187 477.924 259.205 477.466C259.926 477.303 260.58 476.891 261.276 476.62C262.618 476.095 263.648 475.094 263.252 473.415C263.048 472.556 262.973 471.889 264.127 471.843L264.06 471.772H264.052Z" fill="black"/>
<path d="M231.179 127.132C229.42 113.64 233.188 100.753 235.426 87.1611C236.643 89.0201 236.126 90.4539 235.876 91.796C234.409 99.6818 233.084 107.589 232.142 115.554C231.825 118.217 231.983 120.939 232 123.635C232.008 124.865 232.029 126.065 231.179 127.136V127.132Z" fill="black"/>
<path d="M115.992 148.123C119.022 147.781 122.498 146.898 125.925 145.806C128.492 144.989 131.055 144.159 133.627 143.359C134.115 143.205 134.732 142.763 135.069 143.517C135.419 144.309 134.686 144.409 134.198 144.589C128.875 146.518 123.59 148.565 117.951 149.465C116.726 149.661 115.621 149.336 114.458 149.273C113.879 149.244 113.225 149.09 113.379 148.357C113.516 147.698 114.171 148.098 114.6 148.061C114.875 148.036 115.154 148.081 115.996 148.127L115.992 148.123Z" fill="black"/>
<path d="M256.433 132.331C250.006 135.461 243.45 138.149 238.452 143.634C238.173 142.347 238.531 141.092 239.657 140.029C242.266 137.57 245.563 136.19 248.589 134.382C250.243 133.39 252.015 132.593 253.736 131.71C254.945 131.089 255.779 131.606 256.433 132.331Z" fill="black"/>
<path d="M239.532 359.691C236.706 369.278 230.517 376.718 225.057 385.22C225.052 383.232 225.686 382.119 226.445 381.032C228.499 378.076 230.604 375.159 232.551 372.133C234.797 368.644 236.402 364.81 238.257 361.109C238.515 360.592 238.482 359.887 239.536 359.691H239.532Z" fill="black"/>
<path d="M173.636 66.8017C173.636 65.2888 173.615 64.1801 173.644 63.0714C173.657 62.5671 173.503 61.8251 174.386 61.9335C174.97 62.0044 175.407 62.4087 175.362 63.0714C175.287 64.2384 175.211 65.4096 175.057 66.5683C174.803 68.5065 174.882 70.3279 175.657 72.216C176.258 73.6831 176.895 73.6498 177.958 73.0079C179.017 72.3702 180.088 71.7492 181.084 71.0239C181.63 70.6238 182.193 70.1945 182.693 70.778C183.139 71.299 183.289 72.1159 182.535 72.5994C180.805 73.7081 178.979 74.8126 176.854 74.5375C175.445 74.3542 173.432 70.7905 173.486 69.0691C173.515 68.1772 173.603 67.2852 173.636 66.7976V66.8017Z" fill="black"/>
<path d="M187.578 256.479C188.724 260.867 188.828 265.377 189.345 269.82C189.658 272.5 190.937 274.868 191.158 277.514C191.208 278.11 191.583 278.948 190.829 279.152C190.037 279.365 189.645 278.581 189.512 277.873C188.207 270.8 186.827 263.731 187.574 256.479H187.578Z" fill="black"/>
<path d="M190.241 356.068C191.125 357.06 192.313 357.99 192.934 359.211C193.517 360.353 194.105 361.345 195.126 362.116C195.468 362.375 196.051 363.096 195.447 363.229C192.888 363.787 194.438 365.392 194.522 366.547C194.601 367.639 194.988 368.702 195.159 369.794C195.23 370.26 195.118 370.844 194.538 370.944C193.963 371.04 193.992 370.435 193.863 370.09C193.154 368.201 192.846 366.213 192.621 364.233C192.383 362.124 191.679 360.274 190.337 358.632C189.953 358.165 189.72 357.556 189.507 356.977C189.332 356.506 189.591 356.193 190.241 356.073V356.068Z" fill="black"/>
<path d="M219.575 249.131C216.704 255.308 212.74 260.914 209.972 267.553C209.289 264.765 216.312 251.452 219.575 249.131Z" fill="black"/>
<path d="M186.615 42.5393C187.002 42.6227 187.719 42.6811 187.728 42.7978C187.794 43.5647 187.294 44.0773 186.661 44.4358C183.947 45.9654 181.234 47.5034 178.504 49.0039C176.778 49.95 175.011 50.7962 172.906 50.471C177.066 48.4912 180.738 45.6945 184.877 43.7106C185.523 43.4021 186.419 43.3771 186.686 42.4727L186.615 42.5435V42.5393Z" fill="black"/>
<path d="M222.48 397.632C226.54 392.61 231.692 389.025 237.398 386.166C232.463 390.042 227.382 393.723 222.48 397.632Z" fill="black"/>
<path d="M162.582 265.686C164.804 265.648 169.076 269.958 169.047 272.217C169.043 272.55 169.109 272.98 168.639 273.013C168.318 273.038 167.888 272.988 167.676 272.792C166.971 272.138 166.284 271.446 165.7 270.683C164.733 269.429 163.87 268.107 162.366 267.386C161.974 267.199 161.536 266.803 161.765 266.215C161.899 265.869 162.207 265.702 162.582 265.686Z" fill="black"/>
<path d="M165.321 433.981C163.316 440.258 162.111 446.706 160.215 452.971C160.661 446.29 161.961 439.837 165.321 433.981Z" fill="black"/>
<path d="M165.95 56.2231C168.526 55.8938 170.731 58.2196 173.453 59.0657C174.144 59.2824 174.049 59.8659 173.228 60.1285C172.394 60.3953 171.535 60.5328 170.86 59.966C168.955 58.378 166.746 57.8695 164.345 57.7611C163.87 57.7403 162.883 58.0904 162.937 57.0859C162.978 56.3606 163.699 56.2106 164.366 56.2231C164.708 56.2314 165.054 56.2231 165.95 56.2231Z" fill="black"/>
<path d="M188.47 57.0607C188.349 57.0482 188.562 57.044 188.758 57.0982C189.266 57.2441 190.037 57.0857 190.154 57.7484C190.283 58.4736 189.487 58.5111 189.02 58.6987C187.024 59.4989 184.881 59.6365 182.793 60.0158C181.993 60.1617 181.247 60.7327 180.392 60.4326C180.092 60.3284 179.721 60.1033 179.617 59.8366C179.471 59.4656 179.834 59.1613 180.176 59.1238C182.935 58.8154 185.344 57.1815 188.47 57.0607Z" fill="black"/>
<path d="M155.247 364.601C153.775 364.434 152.625 365.347 151.341 365.793C150.22 366.184 149.149 366.435 147.648 365.526C150.103 364.555 152.221 363.717 154.342 362.879C155.238 362.525 156.151 362.204 157.035 361.812C157.585 361.566 158.073 361.316 158.364 362.104C158.652 362.875 158.085 363.063 157.552 363.254C156.676 363.567 155.676 363.654 155.184 364.63L155.247 364.601Z" fill="black"/>
<path d="M174.99 76.4086C175.111 75.7667 175.49 75.6792 176.045 75.921C177.708 76.642 179.371 76.6087 181.055 75.946C181.43 75.8001 181.884 75.7209 182.272 75.7876C182.718 75.8626 183.351 76.021 183.501 76.3378C183.726 76.8171 183.134 77.163 182.768 77.4339C181.584 78.3176 176.912 78.3926 175.74 77.5798C175.336 77.3006 174.969 76.9838 174.99 76.4128V76.4086Z" fill="black"/>
<path d="M126.321 153.287C129.376 150.39 132.373 148.123 135.703 145.901C135.891 146.681 136.153 147.314 135.47 147.802C132.827 149.686 130.164 151.541 127.496 153.387C127.371 153.475 127.109 153.362 126.321 153.287Z" fill="black"/>
<path d="M175.365 300.13C172.339 299.088 169.201 298.254 166.696 296.074C166.333 295.762 165.842 295.445 166.221 294.911C166.438 294.603 166.871 294.786 167.163 294.974C169.872 296.712 173.144 297.529 175.365 300.13Z" fill="black"/>
<path d="M169.914 63.6127C168.026 63.6294 166.446 62.8916 165.025 61.7371C164.579 61.3745 164.12 60.916 164.416 60.3617C164.77 59.7031 165.371 60.0116 165.825 60.345C167.15 61.3203 168.805 61.3078 170.264 61.8621C170.756 62.0497 171.364 62.3498 171.21 63.025C171.06 63.6752 170.464 63.7294 169.914 63.6169V63.6127Z" fill="black"/>
<path d="M184.172 64.6509C183.801 64.5968 183.247 64.5676 182.722 64.4384C181.83 64.2175 180.767 63.8507 181.067 62.7545C181.384 61.5833 182.263 62.5044 182.913 62.6253C183.743 62.7837 184.56 62.6461 185.352 62.396C186.256 62.1126 187.186 62.2418 187.344 63.1963C187.486 64.0466 186.523 64.3592 185.785 64.5384C185.327 64.6509 184.831 64.6093 184.172 64.6468V64.6509Z" fill="black"/>
<path d="M189.153 351.076C190.762 352.735 192.083 354.144 193.467 355.486C193.947 355.953 194.188 356.512 194.372 357.091C194.609 357.849 194.23 358.15 193.488 357.912C191.746 357.353 189.237 353.606 189.153 351.072V351.076Z" fill="black"/>
<path d="M222.53 260.968L211.156 272.884C214.303 268.295 218.15 264.361 222.109 260.53C222.251 260.676 222.389 260.822 222.53 260.964V260.968Z" fill="black"/>
<path d="M192.138 369.656C193.155 371.878 194.172 374.099 195.185 376.321C195.372 376.729 195.397 377.175 195.018 377.455C194.43 377.884 194.143 377.342 193.884 376.963C192.413 374.787 192.138 372.265 192.138 369.656Z" fill="black"/>
<path d="M221.506 277.448C220.522 281.524 219.542 285.604 218.559 289.681C218.154 285.304 219.972 281.407 220.893 277.318C221.097 277.36 221.301 277.402 221.506 277.448Z" fill="black"/>
<path d="M155.184 364.626C156.989 364.863 158.514 363.938 160.14 363.43C160.59 363.288 161.102 362.884 161.419 363.455C161.719 363.997 161.207 364.38 160.773 364.572C159.073 365.314 157.405 366.21 155.442 365.96C155.042 365.91 154.471 366.026 154.354 365.564C154.2 364.959 154.938 364.934 155.242 364.601C155.246 364.601 155.188 364.626 155.188 364.626H155.184Z" fill="black"/>
<path d="M144.485 438.145C144.635 437.303 144.793 436.291 145.002 435.286C145.081 434.898 145.218 434.423 145.748 434.473C146.319 434.528 146.24 435.024 146.24 435.424C146.24 437.095 145.085 438.887 146.761 440.4C146.798 440.434 146.548 440.896 146.352 441.063C145.973 441.384 145.581 441.184 145.223 440.955C144.193 440.292 144.652 439.225 144.485 438.145Z" fill="black"/>
<path d="M159.76 300.697C160.49 303.09 160.711 305.495 161.711 308.05C160.54 308.041 160.077 307.387 159.881 306.653C159.356 304.678 158.71 302.673 159.76 300.697Z" fill="black"/>
<path d="M199.736 14.7554C201.566 13.7634 203.191 13.6634 204.887 14.2136C205.329 14.3553 205.609 14.6637 205.654 15.0889C205.713 15.6224 205.258 15.8141 204.858 15.8099C203.183 15.7891 201.47 15.9016 199.736 14.7596V14.7554Z" fill="black"/>
<path d="M222.197 303.056C222.481 298.305 224.544 294.107 226.303 289.814C225.232 294.32 223.348 298.571 222.197 303.056Z" fill="black"/>
<path d="M155.63 438.884C155.58 439.459 155.847 440.117 155.234 440.255C154.517 440.417 154.338 439.721 154.254 439.209C154.071 438.071 153.946 436.916 153.879 435.762C153.858 435.374 154.079 434.907 154.584 434.895C155.088 434.882 155.251 435.282 155.296 435.72C155.413 436.812 155.526 437.904 155.626 438.879L155.63 438.884Z" fill="black"/>
<path d="M151.196 433.64C151.196 434.89 151.179 436.14 151.204 437.387C151.216 437.887 150.854 438.508 151.592 438.829C152.117 439.058 152.121 439.462 151.783 439.8C151.567 440.017 151.191 440.138 150.875 440.171C150.345 440.225 150.229 439.821 150.137 439.379C149.716 437.399 150.233 435.536 150.595 433.648C150.795 433.648 150.996 433.64 151.196 433.64Z" fill="black"/>
<path d="M210.21 496.259C208.259 496.926 207.122 496.222 206.213 494.896C205.846 494.359 205.859 493.771 206.28 493.392C206.751 492.966 207.163 493.525 207.501 493.804C208.372 494.538 209.197 495.33 210.21 496.255V496.259Z" fill="black"/>
<path d="M151.812 360.229C150.687 361.846 149.262 362.575 147.536 362.683C147.007 362.717 146.465 362.579 146.39 362.05C146.319 361.571 146.882 361.462 147.282 361.362C148.791 360.979 150.304 360.608 151.812 360.229Z" fill="black"/>
<path d="M130.834 176.766C130.297 176.449 128.825 177.395 128.85 176.158C128.871 175.086 130.313 175.662 131.134 175.549C131.335 175.52 131.551 175.532 131.747 175.574C132.493 175.732 133.76 174.665 133.881 175.712C134.023 176.92 132.522 176.624 131.643 176.762C131.443 176.795 131.235 176.766 130.834 176.766Z" fill="black"/>
<path d="M188.278 14.5506C188.558 14.3881 188.628 14.3131 188.666 14.3256C189.754 14.7215 190.517 15.4342 190.733 16.6013C190.758 16.7263 190.321 17.1014 190.183 17.0639C188.937 16.7263 188.733 15.5926 188.278 14.5465V14.5506Z" fill="black"/>
<path d="M237.652 170.594C240.487 169.46 243.171 168.072 245.947 166.905C246.259 166.772 246.622 166.563 246.864 166.938C247.072 167.263 246.918 167.668 246.618 167.839C243.846 169.447 240.928 170.606 237.657 170.589L237.652 170.594Z" fill="black"/>
<path d="M261.055 139.587C262.481 140.52 261.226 141.175 260.53 141.833C259.926 142.396 259.259 143.205 258.55 143.288C255.891 143.605 256.258 145.314 256.366 147.16C256.779 154.237 255.866 161.231 254.845 168.213C253.686 176.153 252.298 184.034 250.018 191.758C247.205 201.298 245.484 211.139 242.437 220.621C242.132 221.571 241.999 222.542 242.128 223.497C243.408 232.996 243.42 242.566 243.821 252.123C244.296 263.385 244.571 274.655 245.1 285.913C245.729 299.296 245.721 312.667 244.908 326.026C244.592 331.206 243.975 336.366 244.146 341.572C244.229 344.136 244.325 346.703 244.963 349.2C245.95 353.055 244.291 356.735 244.308 360.528C244.321 364.059 243.383 367.464 243.983 371.148C244.629 375.104 243.862 379.28 243.808 383.356C243.708 390.417 243.758 397.482 243.608 404.538C243.504 409.381 243.099 414.216 242.949 419.06C242.745 425.824 243.833 432.464 245.071 439.083C245.463 441.192 245.813 443.305 246.125 445.422C246.188 445.876 246.038 446.377 245.921 446.839C245.842 447.148 245.796 447.606 245.354 447.598C245.096 447.598 244.946 447.481 244.854 447.314C244.762 447.152 244.721 446.935 244.687 446.727C244.412 445.06 244.125 443.396 243.8 441.467C243.791 441.408 243.716 441.379 243.67 441.417C242.433 442.321 241.42 443.142 240.324 443.834C237.539 445.597 234.33 446.022 231.179 446.289C226.298 446.706 221.43 447.819 216.491 446.91C215.391 446.706 215.278 447.244 215.278 448.202C215.278 449.861 215.682 451.499 215.424 453.175C215.286 454.062 215.862 454.175 216.616 454.033C222.339 452.966 228.245 453.329 233.909 452.108C237.243 451.387 240.936 451.036 243.462 448.144C243.708 447.86 243.916 447.752 244.096 447.752C244.475 447.752 244.746 448.227 245.083 448.54C245.654 449.077 245.729 449.428 245.071 449.999C242.974 451.812 243.608 454.158 245.838 455.667C249.947 458.443 254.27 460.869 258.338 463.703C260.272 465.049 262.385 466.237 263.731 468.192C264.377 469.13 266.132 470.351 264.185 471.735C264.152 471.756 264.102 471.751 264.073 471.722C263.889 471.51 263.698 471.301 263.544 471.068C261.334 467.767 261.322 467.75 258.404 470.643C257.642 471.397 256.925 472.093 255.72 471.901C255.333 471.839 254.941 471.897 254.645 472.327C252.923 474.852 250.239 475.348 247.476 475.611C239.844 476.336 232.613 474.715 225.652 471.722C222.839 470.518 220.426 468.584 217.821 466.996C217.329 466.691 216.958 466.158 216.312 466.12C216.27 466.12 216.228 466.154 216.224 466.2C216.032 468.438 217.666 470.572 220.73 471.981C224.627 473.769 228.657 475.198 232.784 476.357C233.305 476.503 234.28 476.315 234.017 477.249C233.813 477.97 232.909 477.782 232.354 477.645C226.648 476.249 220.992 477.341 215.332 477.966C211.418 478.395 207.513 478.891 203.603 479.32C202.991 479.387 202.341 479.354 201.745 479.212C201.474 479.15 201.19 478.983 200.919 478.9V478.891C201.611 479.095 202.449 478.941 203.495 478.391C206.092 477.024 208.738 477.591 211.327 477.107C213.502 476.699 215.699 476.357 217.9 476.14C219.946 475.94 222.009 475.919 224.368 475.815C224.448 475.815 224.477 475.711 224.41 475.665C219.817 472.543 215.015 471.635 209.926 472.102C207.542 472.322 205.204 471.972 202.841 471.868C202.745 471.864 202.741 471.726 202.837 471.714C206.096 471.305 209.255 470.309 212.54 470.28C213.882 470.268 214.211 470.172 213.886 468.563C212.973 464.095 212.202 459.543 213.919 455.054C214.107 454.558 214.032 454.121 213.89 453.641C211.764 446.389 211.614 438.912 211.152 431.443C210.531 421.423 209.885 411.403 210.081 401.366C210.347 387.566 208.947 373.824 208.843 360.049C208.805 354.776 207.713 349.791 206.621 344.736C205.55 339.772 205.662 334.682 205.171 329.652C204.833 326.251 203.295 323.141 202.624 319.824C200.698 310.329 197.226 301.251 195.18 291.79C194.705 289.601 193.238 287.826 192.308 285.454C192.279 285.383 192.183 285.388 192.162 285.458C191.124 288.476 189.441 290.931 189.607 294.153C190.003 301.935 189.091 309.645 187.769 317.306C187.686 317.773 187.74 318.431 187.082 318.361C186.39 318.286 186.615 317.59 186.665 317.169C187.157 312.901 187.815 308.649 187.969 304.352C188.107 300.405 188.224 296.462 188.315 292.515C188.353 290.806 188.845 289.264 189.632 287.767C190.649 285.842 192.087 283.987 191.02 281.599C190.758 281.011 191.095 280.286 191.733 280.228C192.337 280.169 192.337 280.828 192.567 281.249C195.455 286.513 196.551 292.386 198.356 298.025C201.282 307.178 202.999 316.648 205.95 325.8C206.859 328.626 206.567 331.844 206.8 334.883C207.2 340.088 207.513 345.303 209.551 350.229C210.118 351.6 210.964 352.755 211.785 353.947C212.11 354.422 212.865 354.976 212.198 355.522C211.589 356.014 211.106 355.285 210.672 354.856C210.506 354.685 210.318 354.539 209.864 354.151C209.814 354.105 209.73 354.147 209.73 354.218C209.864 357.077 209.96 359.574 210.093 362.07C210.468 368.993 211.027 375.908 211.21 382.835C211.485 393.051 211.385 403.275 211.656 413.491C211.935 424.136 212.577 434.765 213.703 445.355C213.707 445.41 213.786 445.455 213.915 445.597C215.136 445.014 214.157 443.692 214.928 442.738C214.515 445.376 215.782 445.593 217.904 445.618C223.689 445.681 229.362 444.651 235.093 444.205C238.377 443.951 240.849 441.888 243.212 439.854C244.212 438.995 243.362 437.628 243.154 436.607C242.987 435.807 241.949 436.348 241.353 436.628C237.064 438.641 232.484 439.754 227.915 440.883C227.294 441.033 226.248 441.854 225.99 440.754C225.823 440.045 227.036 439.891 227.724 439.666C231.8 438.312 235.939 437.157 240.003 435.752C242.174 435.002 242.758 434.052 242.391 431.739C241.453 425.853 241.295 419.872 241.807 413.933C242.224 409.098 242.166 404.23 242.216 399.37C242.299 391.013 241.787 382.64 242.72 374.299C242.791 373.682 242.887 372.995 242.691 372.44C240.657 366.676 242.754 361.091 243.412 355.452C243.629 353.58 243.704 351.78 243.412 349.883C242.312 342.656 242.403 335.424 243.208 328.135C244.329 317.99 244.071 307.774 244.071 297.579C244.071 285.379 243.066 273.217 242.745 261.026C242.703 259.379 241.803 257.862 242.078 256.141C242.208 255.311 241.286 254.986 240.753 254.715C234.255 251.427 228.803 246.763 223.685 241.699C222.61 240.64 221.947 240.406 220.842 241.369C215.065 246.396 208.009 249.28 201.382 252.869C199.46 253.911 197.293 254.644 195.009 254.444C194.088 254.365 193.896 254.707 194.063 255.49C195.368 261.559 193.93 267.644 194.13 273.717C194.171 275.084 194.1 277.352 193.05 277.297C191.883 277.239 192.654 275.134 192.625 273.934C192.504 269.016 193.233 264.11 192.879 259.183C192.846 258.7 192.883 258.204 192.788 257.733C191.921 253.436 192.271 254.14 188.253 253.494C185.664 253.077 178.508 249.472 175.903 249.13C175.782 249.113 175.653 249.105 175.528 249.088C175.628 248.893 175.682 248.638 175.678 248.322C175.678 248.171 175.665 248.026 175.645 247.884C175.765 247.884 175.89 247.896 176.015 247.909C178.841 248.201 186.256 251.368 189.024 252.164C190.007 252.444 190.854 252.473 191.704 251.66C192.429 250.964 193.317 250.401 194.401 251.364C194.905 251.81 195.58 251.281 196.164 251.102C200.211 249.855 203.491 247.229 207.017 245.05C211.781 242.099 216.599 239.219 220.763 235.401C221.226 234.98 221.776 234.65 222.43 234.617C222.985 234.588 223.568 234.7 222.964 235.384C222.101 236.364 222.956 236.259 223.522 236.472C224.193 236.722 224.744 236.864 224.906 235.93C224.952 235.655 224.994 235.376 224.981 235.101C224.91 233.379 224.981 231.7 225.99 230.195C228.203 226.89 227.87 222.972 228.482 219.304C229.499 213.235 230.191 207.117 231.133 201.04C232.784 190.395 231.462 179.708 231.667 169.042C231.763 164.045 231.679 159.043 231.508 154.045C231.321 148.606 231.154 143.129 228.845 137.857C228.849 137.79 228.845 137.724 228.824 137.661C228.807 137.519 228.757 137.394 228.674 137.278C228.441 136.923 228.278 136.532 228.07 136.165C228.065 136.156 228.061 136.144 228.061 136.131C228.061 135.285 227.874 134.473 227.745 133.651C227.607 132.726 227.628 132.03 228.57 131.913C229.537 131.793 229.408 132.73 229.612 133.372C229.979 134.506 229.799 135.76 230.354 136.861C230.383 136.919 230.475 136.915 230.504 136.857C233.759 129.704 236.185 122.244 239.027 114.92C239.052 114.858 239.14 114.854 239.173 114.908C239.686 115.729 239.536 116.45 239.294 117.192C237.577 122.435 235.901 127.691 233.746 132.78C233.275 133.889 232.875 135.035 232.521 136.19C231.321 140.133 231.321 140.199 232.775 144.718C232.796 144.788 232.896 144.797 232.93 144.73C234.092 142.117 235.101 139.728 236.222 137.398C237.364 135.031 238.615 132.709 239.857 130.392C240.057 130.013 240.303 129.333 240.89 129.663C241.445 129.971 241.049 130.517 240.882 130.959C239.152 135.577 236.672 139.845 234.655 144.33C234.272 145.18 233.455 146.222 234.147 146.972C234.818 147.698 236.039 147.185 236.914 146.852C243.375 144.413 249.81 141.908 256.25 139.42C256.45 139.341 256.637 139.224 256.816 139.099C257.808 138.39 259.188 137.936 259.821 136.986C260.584 135.84 259.084 134.939 258.717 133.872C257.462 130.246 257.033 126.478 256.391 122.731C255.52 117.621 253.503 112.828 251.965 107.902C250.323 102.621 248.73 97.3232 247.038 92.0548C246.167 89.3539 245.225 86.8198 244.246 84.0814C243.912 83.4812 243.379 82.5268 243.045 81.9224L242.695 81.4848C242.416 81.1388 242.095 80.8262 241.741 80.5595C241.699 80.5261 241.666 80.4928 241.636 80.4511C238.04 75.1452 232.025 75.4787 226.773 74.3241C220.488 72.9362 210.768 71.2607 207.817 69.4726C207.288 69.1516 205.2 69.0141 204.721 68.6265L205.141 67.4511C205.141 67.4511 205.183 67.4344 205.208 67.4428C205.8 67.672 207.955 68.0263 208.355 68.2639C213.461 71.2773 219.379 71.4691 225.127 72.4402C229.624 73.2029 234.142 73.8615 238.435 75.5495C240.582 76.3915 241.691 78.2296 243.116 79.78C243.133 79.7967 244.116 81.8307 244.517 82.6518C244.629 82.881 244.721 83.1145 244.8 83.3562C247.388 91.3212 255.366 113.708 257.808 121.197C258.4 123.019 258.388 124.899 258.609 126.728C258.975 129.734 259.98 132.497 260.984 135.289C261.343 136.298 262.11 137.294 260.672 138.161C260.23 138.428 260.284 139.149 260.763 139.412C260.872 139.474 260.968 139.528 261.055 139.587ZM254.636 144.384C254.57 144.13 254.461 143.892 254.249 143.701C251.611 141.346 237.398 150.398 234.722 149.311C234.572 149.252 233.692 148.848 233.38 149.169C233.184 149.369 233.296 149.769 233.317 149.852C235.526 158.718 232.8 168.129 233.209 177.257C233.734 188.957 233.997 194.809 233.859 195.813C233.167 200.852 231.266 209.126 230.295 216.315C230.004 218.479 229.841 219.696 229.758 221.492C229.558 225.852 230.174 226.223 229.541 228.078C228.532 231.028 226.594 231.17 226.519 233.688C226.486 234.909 226.907 236.026 226.157 236.91C225.59 237.572 224.731 237.672 224.685 238.218C224.644 238.731 225.365 239.177 225.548 239.298C229.053 241.536 239.469 253.623 242.224 251.631C243.216 250.914 241.887 249.334 241.303 243.182C240.511 234.871 242.095 228.907 240.332 225.593C240.149 225.256 239.469 224.068 239.469 222.463C239.469 221.184 239.903 220.229 240.007 219.983C245.6 207.096 247.497 192.9 251.444 179.416C251.444 179.416 256.312 162.79 254.728 144.972C254.711 144.776 254.687 144.576 254.636 144.384Z" fill="black"/>
<path d="M258.717 133.872C259.084 134.939 260.584 135.839 259.821 136.985C259.188 137.936 257.808 138.39 256.816 139.099C256.637 139.224 256.45 139.34 256.25 139.419C249.81 141.908 243.375 144.413 236.914 146.851C236.039 147.184 234.818 147.697 234.147 146.972C233.455 146.222 234.272 145.18 234.655 144.329C236.672 139.845 239.152 135.577 240.882 130.958C241.049 130.517 241.445 129.971 240.89 129.662C240.303 129.333 240.057 130.012 239.857 130.392C238.615 132.709 237.364 135.031 236.222 137.398C235.101 139.728 234.092 142.116 232.93 144.73C232.896 144.796 232.796 144.788 232.775 144.717C231.321 140.199 231.321 140.132 232.521 136.189C232.875 135.035 233.275 133.889 233.746 132.78C235.901 127.691 237.577 122.435 239.294 117.192C239.536 116.45 239.686 115.729 239.173 114.907C239.14 114.853 239.052 114.857 239.027 114.92C236.185 122.243 233.759 129.704 230.504 136.856C230.475 136.915 230.383 136.919 230.354 136.86C229.799 135.76 229.979 134.505 229.612 133.372C229.408 132.73 229.537 131.792 228.57 131.913C227.628 132.03 227.607 132.726 227.745 133.651C227.874 134.472 228.061 135.285 228.061 136.131C228.061 136.143 228.065 136.156 228.07 136.164C228.278 136.531 228.441 136.923 228.674 137.277C228.757 137.394 228.807 137.519 228.824 137.661C228.845 137.723 228.849 137.79 228.845 137.856C231.154 143.129 231.321 148.606 231.508 154.045C231.679 159.042 231.763 164.044 231.667 169.041C231.462 179.707 232.784 190.394 231.133 201.039C230.191 207.116 229.499 213.235 228.482 219.303C227.87 222.971 228.203 226.889 225.99 230.194C224.981 231.699 224.91 233.379 224.981 235.1C224.994 235.375 224.952 235.654 224.906 235.93C224.744 236.863 224.193 236.721 223.522 236.471C222.956 236.259 222.101 236.363 222.964 235.384C223.568 234.7 222.985 234.587 222.43 234.617C221.776 234.65 221.226 234.979 220.763 235.4C216.599 239.218 211.781 242.098 207.017 245.049C203.491 247.229 200.211 249.855 196.164 251.101C195.58 251.28 194.905 251.81 194.401 251.364C193.317 250.401 192.429 250.964 191.704 251.66C190.854 252.472 190.007 252.443 189.024 252.164C186.256 251.368 178.841 248.2 176.015 247.908C175.89 247.896 175.765 247.883 175.645 247.883C175.415 246.241 173.99 245.278 172.714 244.299C171.452 243.332 171.035 244.782 170.309 245.178C169.355 245.708 168.551 246.512 167.692 247.208C167.379 247.462 167.15 247.938 166.654 247.687C164.47 246.579 161.915 246.733 159.731 245.574C156.234 243.72 152.604 242.161 148.74 241.219C147.852 241.002 147.223 240.573 147.006 239.672C146.719 238.468 146.389 237.263 146.218 236.042C145.543 231.095 145.076 226.118 144.255 221.2C142.271 209.321 140.863 197.363 139.262 185.43C139.241 185.276 139.429 185.097 139.529 184.901C140.112 185.209 139.575 186.022 140.379 186.264C140.725 185.743 140.967 185.159 141.217 184.571C141.1 183.179 140.904 181.791 140.9 180.387C140.9 180.087 141.004 179.82 141.183 179.62C140.983 178.053 141.154 176.548 141.35 175.202C142.234 169.046 140.704 163.052 140.55 156.979C140.542 156.7 140.533 156.421 140.525 156.146C140.346 149.652 140.008 143.137 139.866 136.635C139.562 123.068 137.799 109.856 131.718 97.5102C131.335 96.735 131.009 96.0848 129.738 96.1765C130.493 98.4105 130.472 100.703 130.655 102.924L128.175 103.145C128.175 102.799 127.783 102.437 127.621 102.145C126.558 100.199 125.387 98.3146 124.328 96.364C123.715 95.2387 123.232 94.0508 121.444 94.0341C121.994 93.4006 122.261 92.9879 122.619 92.692C128.133 88.2198 134.381 84.9187 140.529 81.4634C144.897 79.0126 149.69 77.5788 154.271 75.6407C155.263 75.2239 155.396 75.895 155.626 76.3701C156.763 78.6875 158.272 80.7715 159.794 82.8305C162.274 86.1899 165.041 89.2868 168.763 91.3541C169.226 91.6125 169.809 92.1085 170.226 91.4833C170.643 90.8539 170.005 90.5413 169.534 90.2287C168.667 89.6577 167.746 89.1325 166.975 88.449C164.62 86.3567 161.636 84.7937 160.781 81.3926C161.548 81.7677 161.798 82.6013 162.34 83.1806C166.175 87.282 170.272 90.683 176.228 91.5083C179.829 92.0043 183.164 91.7292 186.665 91.0998C190.816 90.3579 194.534 89.0325 197.314 85.769C200.798 81.6802 202.845 76.8494 204.162 71.702C204.408 70.7308 204.35 69.668 204.308 68.6385L204.721 68.626C205.2 69.0136 207.288 69.1511 207.817 69.4721C210.768 71.2602 220.488 72.9357 226.773 74.3236C232.025 75.4782 238.04 75.1447 241.636 80.4506C241.666 80.4923 241.699 80.5256 241.741 80.559C242.095 80.8257 242.416 81.1383 242.695 81.4843L243.045 81.9219C243.379 82.5263 243.912 83.4807 244.246 84.0809C245.225 86.8193 246.167 89.3534 247.038 92.0543C248.73 97.3227 250.323 102.62 251.965 107.901C253.503 112.828 255.52 117.621 256.391 122.731C257.033 126.478 257.462 130.246 258.717 133.872Z" fill="#97A397"/>
<path d="M223.164 498.709C223.247 498.734 223.239 498.859 223.155 498.872C209.472 500.948 195.501 500.435 181.967 503.703C181.875 503.723 181.83 503.598 181.913 503.557C187.398 500.768 193.383 500.185 199.314 499.305C199.406 499.293 199.406 499.159 199.314 499.143C193.083 498.172 186.823 499.797 180.567 499.043C180.487 499.03 180.467 498.922 180.538 498.884C183.276 497.496 186.289 497.513 189.244 497.217C186.598 496.484 184.001 497.163 181.396 497.246C180.287 497.284 179.175 497.28 178.066 497.263C177.657 497.255 177.149 497.217 177.149 496.659C177.149 496.058 177.691 496.179 178.074 496.109C182.05 495.375 186.052 495.066 190.091 495.342C190.599 495.375 191.145 495.8 191.52 495.033C191.895 494.258 192.483 494.554 193.117 494.762C198.206 496.438 203.457 497.151 208.797 497.371C210.405 497.438 211.285 496.629 211.785 495.312C212.294 493.983 212.46 492.67 211.193 491.515C210.139 490.553 208.855 490.052 207.659 489.365C201.765 485.976 197.914 481.258 196.484 474.343C195.651 470.325 195.176 466.178 193.275 462.302C191.887 459.472 191.616 456.05 191.083 452.853C189.961 446.117 187.498 439.815 185.185 433.447C181.625 423.656 181.192 413.824 185.314 404.058C186.01 402.408 187.06 400.907 187.773 399.261C189.836 394.493 190.62 389.474 190.478 384.289C190.453 383.331 190.57 382.36 190.712 381.409C190.77 381.022 191.037 380.609 191.583 380.742C192.033 380.851 191.954 381.243 191.975 381.58C192.337 388.462 191.637 395.197 188.202 401.282C183.08 410.36 182.509 419.813 185.643 429.508C189.003 439.907 192.179 450.327 194.78 460.96C195.997 465.924 196.959 471.038 198.66 475.91C199.239 477.569 199.927 478.603 200.923 478.89V478.899C200.619 478.815 200.336 478.832 200.102 479.216C199.748 479.787 200.402 480.228 200.719 480.637C203.103 483.7 205.491 486.651 209.243 488.352C213.973 490.503 214.815 492.516 212.46 498.088C212.439 498.138 212.473 498.197 212.527 498.205C216.078 498.622 219.654 497.755 223.164 498.709Z" fill="black"/>
<path d="M136.586 156.421C136.945 156.559 137.299 156.721 137.657 156.754C129.851 158.088 121.707 155.296 114.246 157.2C113.546 155.917 112.358 155.041 110.732 154.946C109.069 154.85 109.515 154.045 109.519 153.291C109.528 149.84 110.932 146.68 111.682 143.384C112.524 139.67 113.366 135.952 114.025 132.201C114.363 130.258 114.538 128.22 114.333 126.274C114.175 124.765 115.371 123.856 115.292 122.373C115.079 118.367 115.104 114.345 115.229 110.331C115.417 104.121 117.343 98.3774 120.431 93.0299C121.481 91.2126 123.111 89.8414 124.891 88.7577C132.443 84.1604 139.837 79.2755 148.232 76.2037C150.337 75.4326 152.225 74.0321 154.179 72.8568C156.443 71.4897 159.06 70.6477 161.607 69.8391C162.911 69.4265 162.895 68.9472 162.436 67.9427C161.173 65.1668 160.031 62.3409 159.173 59.4108C158.985 58.7647 158.535 58.1562 158.781 57.4268C160.186 57.0559 160.336 58.1145 160.611 59.0107C162.403 64.8209 164.916 70.2684 168.797 74.9991C171.547 78.3585 174.94 80.9343 178.796 82.9058C179.375 83.2017 180.013 83.01 180.63 82.8766C184.902 81.9388 188.186 79.5964 190.708 76.0494C192.629 73.3486 194.288 70.5143 195.922 67.6217C198.648 62.7869 196.493 57.8853 196.972 53.0629C197.11 51.6958 195.434 51.1206 194.63 50.2078C192.362 47.6362 190.975 44.6894 189.903 41.5176C189.72 40.9716 189.487 40.3839 190.191 40.0963C190.858 39.8253 191.429 40.0879 191.696 40.7923C191.937 41.4259 192.096 42.1011 192.667 42.6262C193.079 41.9802 192.404 41.1049 193.396 40.388C194.192 42.4178 194.496 44.581 195.776 46.3816C195.138 43.8808 196.068 41.2591 195.017 38.7792C194.876 38.4416 194.992 37.9456 195.097 37.5496C196.389 32.7147 198.085 28.0466 200.869 23.8411C201.094 23.5035 201.44 23.2409 201.761 22.9825C202.153 22.6657 202.624 22.449 203.112 22.6657C203.766 22.9533 203.374 23.4743 203.316 23.9244C203.262 24.3204 203.253 24.7205 203.212 25.3332C205.317 23.9994 204.308 22.003 204.746 20.4316C204.75 20.4316 204.754 20.4358 204.754 20.4358C206.517 20.7484 208.301 23.3617 208.651 25.8209C209.305 30.3598 208.639 34.7862 207.709 39.2002C207.417 40.5964 205.758 41.1883 205.579 42.7513C205.525 43.2473 204.733 43.1931 204.458 42.6554C204.004 41.7676 203.72 42.2636 203.316 42.6804C202.724 43.289 203.099 43.6224 203.583 44.0017C207.055 46.7401 207.126 47.8696 205.208 51.8459C204.175 53.9799 203.858 56.4598 203.166 58.7647C202.795 59.9943 202.616 61.3114 201.274 62.0783C200.586 62.4701 200.569 63.3245 200.753 64.1498C200.978 65.1585 201.099 66.1963 201.182 67.23C201.211 67.6051 201.32 68.0969 201.094 68.372C200.978 68.5137 200.778 68.6012 200.436 68.5929C199.677 68.5721 199.352 67.9218 199.302 67.305C199.211 66.1713 199.273 65.0293 199.115 63.8497C198.219 66.3588 197.197 68.7763 195.984 71.1145C193.913 75.095 191.233 78.6003 187.794 81.472C185.219 83.6227 182.113 84.6022 178.808 84.8523C177.695 84.9356 176.687 84.473 175.795 83.6727C171.727 80.0257 167.421 76.6496 164.754 71.6647C163.816 69.91 162.003 71.1896 160.869 71.623C158.26 72.615 157.972 74.5198 159.531 76.9456C162.107 80.9468 165.191 84.5563 169.143 87.1363C173.373 89.9039 178.162 91.246 183.322 90.1915C185.081 89.8289 186.79 89.2287 188.549 88.8619C194.501 87.6198 197.864 83.4351 200.24 78.3377C201.69 75.2283 203.708 72.0232 203.512 68.4178L204.3 68.397C204.304 68.4762 204.304 68.5595 204.308 68.6387C204.35 69.6682 204.408 70.7311 204.162 71.7022C202.845 76.8497 200.799 81.6804 197.314 85.7692C194.534 89.0328 190.816 90.3582 186.665 91.1001C183.164 91.7295 179.829 92.0046 176.228 91.5086C170.272 90.6833 166.175 87.2822 162.34 83.1809C161.799 82.6015 161.548 81.7679 160.782 81.3928C161.636 84.7939 164.62 86.3569 166.975 88.4493C167.746 89.1328 168.667 89.658 169.534 90.229C170.005 90.5416 170.643 90.8542 170.226 91.4836C169.809 92.1088 169.226 91.6128 168.763 91.3543C165.041 89.287 162.274 86.1902 159.794 82.8308C158.272 80.7718 156.764 78.6878 155.626 76.3704C155.396 75.8952 155.263 75.2242 154.271 75.641C149.69 77.5791 144.897 79.0129 140.529 81.4637C134.381 84.919 128.134 88.22 122.619 92.6923C122.261 92.9882 121.994 93.4008 121.444 94.0344C123.232 94.051 123.715 95.2389 124.328 96.3643C125.387 98.3149 126.558 100.199 127.621 102.145C127.783 102.437 128.175 102.8 128.175 103.146C128.175 103.296 128.1 103.442 127.904 103.575C127.267 104.013 126.817 103.317 126.383 102.879C124.958 101.437 123.895 99.7279 122.803 98.044C122.244 97.177 121.623 96.3518 120.81 95.2014C118.91 99.5028 117.501 103.583 116.938 107.926C116.392 112.128 116.572 116.354 116.697 120.572C116.755 122.523 116.747 124.482 115.446 126.115C114.567 127.224 116.43 126.699 116.242 127.599C115.971 128.937 116.259 130.396 115.955 131.721C114.55 137.861 113.029 143.971 111.545 150.09C111.495 150.294 111.445 150.494 111.399 150.698C110.707 153.753 110.932 154.024 113.971 153.77C115.213 153.666 116.251 153.466 116.993 155.083C117.388 155.95 119.097 156.108 120.231 155.983C125.408 155.421 130.58 156.15 135.765 156.033V156.225C135.944 156.4 136.115 156.354 136.261 156.304C136.37 156.338 136.478 156.379 136.586 156.421ZM207.242 33.4566C207.351 31.1601 207.534 29.3428 207.017 27.5506C206.496 29.3887 206.425 31.1976 207.242 33.4566ZM204.75 48.0863C205.071 47.3027 204.971 46.2774 204.125 45.9023C203.345 45.5564 202.191 45.4355 201.595 46.1732C200.115 48.003 198.752 50.0495 199.023 52.5044C199.302 55.0386 199.711 57.5394 199.294 60.0902C199.281 60.5403 198.96 61.1072 199.627 61.3281C200.248 61.5323 200.448 60.9529 200.719 60.5862C201.003 60.1985 201.345 59.7984 201.465 59.3524C202.516 55.5846 203.249 51.7292 204.75 48.0863ZM199.777 31.7144C201.757 30.6016 201.845 29.2928 201.578 27.4255C200.557 28.801 200.253 30.0139 199.777 31.7144ZM160.669 81.2511C159.74 79.0963 158.239 77.1873 157.922 74.7657C157.851 74.2114 157.397 74.1989 156.964 74.3364C156.418 74.5115 156.143 74.8407 156.484 75.4201C157.706 77.4874 158.614 79.7881 160.669 81.2511Z" fill="black"/>
<path d="M175.678 248.322C175.682 248.638 175.628 248.893 175.528 249.088C175.157 249.047 174.819 248.947 174.865 248.451C174.911 247.98 175.257 247.88 175.644 247.884C175.665 248.026 175.678 248.172 175.678 248.322Z" fill="black"/>
<path d="M175.645 247.884C175.257 247.884 174.911 247.98 174.865 248.451C174.819 248.947 175.157 249.047 175.528 249.089C175.111 249.935 173.915 249.856 173.023 249.906C172.477 249.939 171.777 249.71 171.423 249.051C171.714 248.08 173.24 248.697 173.411 247.447C172.019 247.076 170.639 246.317 169.197 247.397C168.48 247.93 168.226 248.714 167.967 249.497C167.305 249.556 166.642 249.576 165.979 249.585C165.9 249.022 165.371 248.759 164.491 248.622C161.069 248.088 158.06 246.521 154.976 245.087C153.054 244.196 151.058 243.433 148.594 242.974C148.669 243.07 148.74 243.166 148.815 243.262C147.686 243.045 146.581 242.357 145.635 241.724C144.576 239.965 144.789 237.664 144.526 235.722C143.168 225.785 141.48 215.899 140.096 205.967C138.45 194.121 136.595 182.28 136.999 170.259C137.095 167.421 137.516 164.595 137.608 161.757C137.649 160.523 138.725 159.752 138.629 158.456C138.57 157.651 138.512 157.234 137.899 157.234L137.866 156.751C137.945 156.747 138.029 156.734 138.108 156.705H138.116C139 156.851 139.692 156.213 140.525 156.146C140.534 156.422 140.542 156.701 140.55 156.98C140.704 163.053 142.234 169.046 141.35 175.203C141.155 176.549 140.984 178.053 141.184 179.621C141.004 179.821 140.9 180.087 140.9 180.388C140.904 181.792 141.1 183.18 141.217 184.572C140.967 185.16 140.725 185.743 140.379 186.264C139.575 186.023 140.113 185.21 139.529 184.902C139.429 185.097 139.241 185.277 139.262 185.431C140.863 197.364 142.272 209.322 144.256 221.201C145.077 226.119 145.543 231.095 146.219 236.043C146.39 237.264 146.719 238.469 147.006 239.673C147.223 240.574 147.853 241.003 148.74 241.22C152.604 242.162 156.234 243.72 159.731 245.575C161.915 246.734 164.47 246.58 166.654 247.688C167.15 247.938 167.38 247.463 167.692 247.209C168.551 246.513 169.355 245.708 170.31 245.179C171.035 244.783 171.452 243.333 172.715 244.3C173.99 245.279 175.416 246.242 175.645 247.884ZM139.283 180.058C139.925 179.933 139.804 179.325 139.792 178.858C139.696 174.865 139.604 170.868 139.471 166.875C139.446 166.166 139.708 165.32 138.82 164.791C137.783 169.626 138.866 174.436 138.695 179.233C138.683 179.629 138.67 180.179 139.283 180.058Z" fill="black"/>
<path d="M167.967 249.497C167.83 249.914 167.692 250.335 167.48 250.714C165.512 254.286 164.083 258.137 161.461 261.359C160.307 262.776 159.14 264.172 157.535 265.006C156.172 265.715 155.984 266.544 156.514 267.832C157.21 269.528 157.51 271.3 157.189 273.121C157.068 273.826 157.085 274.909 156.022 274.743C155.559 274.672 155.48 274.459 155.53 274.201C155.593 273.884 155.847 273.5 155.818 273.217C155.455 269.495 154.83 265.811 153.108 262.489C151.562 259.504 151.287 256.262 150.583 253.106C149.903 250.055 149.066 247.067 147.911 244.162C147.836 243.97 147.873 243.628 147.761 243.574C146.744 243.095 146.081 242.457 145.635 241.724C146.581 242.357 147.686 243.045 148.815 243.262C150.808 245.892 151.333 248.763 151.971 251.606C152.825 255.432 153.304 259.342 154.992 262.985C155.713 264.535 156.084 264.273 157.076 263.41C160.998 260.009 163.249 255.503 165.583 251.006C165.904 250.389 166.025 249.93 165.979 249.584C166.642 249.576 167.305 249.555 167.967 249.497Z" fill="black"/>
<path d="M153.75 271.541C154.404 272.245 155.055 273.062 154.859 274.192C154.834 274.329 154.8 274.471 154.746 274.621C152.866 274.196 152.245 272.345 150.816 271.266C149.374 273.221 148.844 275.88 146.91 277.414C145.326 278.672 145.497 280.052 145.781 281.594C146.189 283.807 145.047 286.446 143.163 287.379C142.638 287.638 142.075 288.109 141.55 287.313C140.621 285.912 139.862 287.325 139.916 287.717C140.642 292.977 136.399 296.099 134.602 300.25C133.21 303.468 133.427 306.281 135.652 308.34C136.157 308.057 136.132 307.506 136.203 307.061C136.786 303.589 138.232 300.483 140.133 297.562C140.416 297.124 140.642 296.34 141.296 296.778C141.838 297.141 141.417 297.753 141.125 298.249C139.033 301.775 137.541 305.452 136.965 309.611C136.549 312.612 136.29 315.626 135.894 318.656C136.79 319.052 136.607 317.48 137.411 317.81V326.813C139.079 323.441 140.246 320.211 142.817 317.751C140.021 322.874 138.162 328.351 136.532 333.944C135.973 333.065 136.248 332.239 136.419 331.41C136.707 330.001 137.824 328.722 136.119 327.209C135.106 326.308 136.353 324.574 136.09 323.207C135.936 322.415 136.432 321.557 135.352 320.882C134.873 320.577 134.827 319.352 134.836 318.548C134.861 316.13 134.727 313.7 135.236 311.299C135.344 310.803 135.461 310.291 135.065 309.736C131.643 304.926 131.589 302.101 134.752 297.124C135.09 296.595 135.407 296.053 135.782 295.557C138.278 292.247 138.658 288.355 139.374 284.42C139.937 281.319 138.645 279.11 137.649 276.63C136.765 274.429 136.453 272.078 135.736 269.836C135.319 268.532 135.123 267.194 134.402 265.943C133.848 264.976 133.289 263.609 134.685 262.596C135.148 262.259 134.915 261.696 134.952 261.229C135.152 258.958 135.123 256.632 135.59 254.414C136.64 249.417 134.702 245.061 133.081 240.589C130.122 232.457 128.333 224.009 126.312 215.61C125.232 211.121 124.024 206.645 122.957 202.148C121.594 196.417 120.06 190.669 117.78 185.326C114.266 177.081 115.075 168.633 114.971 160.168C114.954 159.067 114.704 158.046 114.246 157.2C121.706 155.295 129.851 158.088 137.657 156.754C137.728 156.754 137.795 156.754 137.866 156.75L137.899 157.233C137.761 157.233 137.595 157.258 137.391 157.3C131.697 158.525 125.929 157.025 120.21 157.721C119.055 157.859 117.73 156.383 116.751 157.642C116.038 158.55 116.567 159.934 116.551 161.097C116.48 166.007 116.4 170.921 116.513 175.831C116.555 177.577 117.267 179.207 118.072 180.862C120.877 186.626 122.798 192.728 124.065 199.026C125.728 207.287 127.733 215.465 129.826 223.625C130.959 228.048 132.11 232.47 133.331 236.867C134.736 241.923 137.486 246.466 138.995 251.489C139.387 252.781 139.916 254.056 139.595 255.711C138.112 254.502 137.907 252.843 137.361 251.105C135.611 260.075 135.832 268.536 139.425 276.742C139.316 275.192 139.291 273.625 139.07 272.087C138.833 270.453 138.516 268.836 138.728 266.852C140.012 268.677 139.595 270.657 140.241 272.341C141.546 275.75 140.5 279.281 140.654 282.749C140.721 284.207 140.871 285.483 142.313 286.337C144.155 284.537 144.751 282.557 144.255 279.718C143.784 277.009 144.255 274.079 143.868 271.291C143.601 269.403 143.868 267.715 144.576 266.027C145.276 264.363 147.048 263.163 146.618 260.983C146.514 260.437 147.152 260.466 147.469 260.842C147.685 261.096 147.773 261.454 147.906 261.771C149.378 265.314 151.116 268.686 153.75 271.541ZM147.644 269.986C148.098 269.29 149.694 269.644 149.248 268.244C148.982 267.389 148.644 266.552 148.244 265.751C147.69 264.639 146.981 264.776 146.406 265.722C145.289 267.565 144.76 269.528 145.581 271.953C146.389 271.207 147.173 270.703 147.644 269.986Z" fill="black"/>
<path d="M138.253 156.646C138.174 156.658 138.103 156.671 138.024 156.688C137.903 156.708 137.778 156.734 137.657 156.754C137.299 156.721 136.945 156.558 136.586 156.421C136.544 156.188 136.419 156.25 136.261 156.304C136.094 156.258 135.932 156.225 135.769 156.225V156.033C135.903 156.033 136.036 156.029 136.173 156.025C138.778 155.946 138.412 155.171 138.341 153.403C138.166 149.256 138.216 145.092 137.149 141.049C136.407 138.253 134.352 136.069 133.418 133.322C132.818 131.571 131.73 129.992 130.897 128.316C130.58 127.691 129.988 127.112 130.863 126.332C131.409 125.844 130.743 125.173 130.534 124.619C128.98 120.484 127.279 116.396 126.579 112.003C126.483 111.419 125.87 110.448 126.866 110.235C127.567 110.081 127.637 111.031 127.796 111.623C129.751 118.984 132.935 125.936 135.036 133.251C135.457 134.718 136.461 136.019 137.499 137.306C137.028 133.818 136.503 130.338 136.086 126.845C135.261 119.947 133.673 113.249 131.359 106.688C130.934 105.471 130.759 104.208 130.655 102.925C130.472 100.703 130.492 98.4107 129.738 96.1766C131.009 96.0849 131.334 96.7351 131.718 97.5104C137.799 109.856 139.562 123.069 139.866 136.635C140.008 143.137 140.346 149.652 140.525 156.146C139.691 156.213 138.999 156.85 138.116 156.704C138.162 156.688 138.207 156.671 138.253 156.646ZM136.965 122.373C136.361 113.44 134.023 105.125 131.293 102.349C133.36 109.277 136.015 115.579 136.965 122.373Z" fill="black"/>
<path d="M138.341 153.403C138.412 155.17 138.779 155.946 136.174 156.025C136.036 156.025 135.903 156.033 135.765 156.033C130.58 156.15 125.408 155.42 120.231 155.983C119.097 156.108 117.388 155.95 116.993 155.083C116.251 153.466 115.213 153.666 113.971 153.77C110.932 154.024 110.707 153.753 111.399 150.698C111.445 150.494 111.495 150.294 111.545 150.09C113.029 143.971 114.55 137.861 115.955 131.721C116.259 130.396 115.971 128.937 116.242 127.599C116.43 126.699 114.567 127.224 115.446 126.115C116.747 124.481 116.755 122.522 116.697 120.572C116.572 116.354 116.392 112.127 116.938 107.926C117.501 103.583 118.91 99.5025 120.81 95.2012C121.623 96.3515 122.244 97.1768 122.803 98.0437C123.895 99.7276 124.958 101.437 126.383 102.879C126.816 103.316 127.267 104.012 127.904 103.575C128.1 103.441 128.175 103.295 128.175 103.145L130.655 102.924C130.759 104.208 130.934 105.471 131.36 106.688C133.673 113.249 135.261 119.947 136.086 126.845C136.503 130.337 137.028 133.818 137.499 137.306C136.461 136.018 135.457 134.718 135.036 133.251C132.935 125.936 129.751 118.984 127.796 111.623C127.638 111.031 127.567 110.081 126.867 110.235C125.87 110.448 126.483 111.419 126.579 112.002C127.279 116.395 128.98 120.484 130.534 124.619C130.743 125.173 131.41 125.844 130.864 126.332C129.988 127.111 130.58 127.691 130.897 128.316C131.731 129.991 132.818 131.571 133.419 133.322C134.352 136.068 136.407 138.252 137.149 141.049C138.216 145.092 138.166 149.256 138.341 153.403Z" fill="#97A397"/>
<path d="M138.254 156.646C138.208 156.671 138.162 156.688 138.116 156.705H138.108C138.083 156.701 138.054 156.692 138.024 156.688C138.104 156.671 138.174 156.659 138.254 156.646Z" fill="black"/>
<path d="M138.024 156.688C138.053 156.692 138.082 156.7 138.107 156.704C138.028 156.733 137.945 156.746 137.866 156.75C137.795 156.758 137.728 156.758 137.657 156.754C137.778 156.733 137.903 156.708 138.024 156.688Z" fill="black"/>
<path d="M136.261 156.304C136.42 156.25 136.545 156.188 136.586 156.421C136.478 156.379 136.37 156.338 136.261 156.304Z" fill="black"/>
<path d="M136.261 156.305C136.115 156.355 135.945 156.401 135.77 156.226C135.932 156.226 136.095 156.259 136.261 156.305Z" fill="black"/>
<path d="M131.293 102.35C134.023 105.125 136.361 113.441 136.966 122.373C136.015 115.579 133.36 109.277 131.293 102.35Z" fill="#97A397"/>
<path d="M157.897 129.249C160.156 129.274 160.569 129.77 160.252 132.116C160.173 132.708 160.573 133.133 160.752 133.629C161.128 134.667 160.702 135.376 159.844 135.717C159.027 136.047 158.102 136.122 157.214 136.255C156.639 136.338 156.439 136.005 156.43 135.438C156.409 133.863 156.484 132.295 156.201 130.72C155.938 129.253 156.068 129.228 157.897 129.249Z" fill="black"/>
<path d="M193.184 120.355C193.684 119.455 193.079 118.796 193.125 118.092C193.158 117.587 193.088 117.058 193.855 117.067C194.571 117.075 194.476 117.575 194.476 118.017C194.484 119.596 194.93 121.151 194.751 122.743C194.701 123.164 194.876 123.71 194.18 123.773C193.609 123.823 193.133 123.789 192.913 123.085C192.663 122.289 192.45 121.447 191.591 120.659C191.591 121.651 191.587 122.435 191.591 123.218C191.591 123.46 191.783 123.794 191.308 123.769C191.024 123.752 190.687 123.919 190.562 123.427C190.066 121.46 190.353 119.463 190.316 117.479C190.312 117.212 190.503 117.096 190.762 117.075C191.158 117.042 191.462 117.154 191.662 117.529C192.137 118.434 192.633 119.334 193.184 120.351V120.355Z" fill="black"/>
<path d="M182.989 124.256C181.355 124.668 181.392 123.076 180.659 122.459C180.446 122.284 180.471 121.742 180.046 121.917C179.688 122.067 179.829 122.434 179.979 122.726C180.196 123.155 180.134 123.622 180.067 124.06C180 124.485 179.65 124.593 179.246 124.589C178.787 124.585 178.754 124.281 178.758 123.951C178.787 122.147 178.32 120.371 178.458 118.554C178.508 117.879 178.675 117.583 179.396 117.591C180.459 117.599 181.451 117.683 182.293 118.466C183.034 119.154 183.151 120.042 182.501 120.604C181.692 121.305 181.926 121.855 182.259 122.563C182.509 123.093 182.726 123.639 182.989 124.256Z" fill="black"/>
<path d="M198.577 140.744C198.577 140.653 198.577 140.561 198.577 140.473C198.577 138.16 199.511 137.439 201.803 137.977C203.204 138.302 204.037 140.357 203.008 141.228C202.174 141.932 202.445 142.357 202.933 142.966C203.099 143.174 203.208 143.433 203.333 143.674C203.454 143.908 203.679 144.183 203.354 144.383C203.029 144.583 202.758 144.395 202.558 144.1C202.203 143.574 201.799 143.078 201.503 142.524C201.111 141.782 200.469 141.795 199.869 141.991C199.14 142.228 199.49 142.882 199.54 143.383C199.561 143.599 199.69 143.804 199.707 144.02C199.728 144.279 199.769 144.604 199.415 144.683C198.969 144.779 198.906 144.454 198.856 144.116C198.777 143.583 198.64 143.053 198.598 142.516C198.552 141.928 198.59 141.336 198.59 140.748C198.59 140.748 198.581 140.748 198.577 140.748V140.744Z" fill="black"/>
<path d="M171.131 121.955C171.089 124.372 169.993 125.356 167.638 125.152C167.171 125.11 166.838 125.043 166.867 124.481C166.959 122.809 166.767 121.155 166.584 119.5C166.484 118.608 167 118.287 167.747 118.166C169.718 117.849 170.998 118.871 171.127 120.871C171.152 121.234 171.127 121.596 171.127 121.959L171.131 121.955ZM167.938 120.696C168.034 121.48 168.151 122.238 168.209 123.001C168.251 123.535 168.397 123.872 169.014 123.818C169.614 123.764 170.064 123.355 169.935 122.868C169.731 122.097 169.851 121.342 169.781 120.584C169.714 119.867 169.343 119.517 168.634 119.525C167.755 119.537 167.992 120.217 167.938 120.696Z" fill="black"/>
<path d="M170.226 135.522C169.468 135.352 168.384 135.51 168.105 134.251C168.021 133.876 167.742 133.413 168.334 133.23C168.722 133.109 169.126 133.101 169.318 133.647C169.555 134.339 170.147 134.28 170.676 134.109C171.018 134.001 171.047 133.605 170.989 133.297C170.914 132.905 170.689 132.792 170.226 132.763C169.155 132.701 168.142 132.338 167.884 131.109C167.659 130.042 168.096 129.237 169.118 128.829C170.172 128.408 171.718 128.899 172.114 129.775C172.235 130.042 172.406 130.462 172.027 130.604C171.706 130.725 171.26 131.109 170.947 130.617C170.768 130.337 170.635 130.062 170.289 130.004C169.872 129.933 169.447 129.937 169.255 130.404C169.055 130.896 169.351 131.184 169.772 131.338C170.064 131.446 170.381 131.538 170.693 131.55C171.977 131.609 172.406 132.396 172.364 133.526C172.31 134.96 171.714 135.514 170.226 135.518V135.522Z" fill="black"/>
<path d="M216.162 133.271C213.874 133.271 214.174 133.359 214.178 131.312C214.178 129.999 213.761 128.732 213.882 127.403C213.94 126.773 214.115 126.444 214.757 126.557C215.545 126.694 216.241 126.252 217.012 126.269C217.546 126.277 217.904 126.419 217.887 127.019C217.871 127.607 217.446 127.607 217.02 127.603C216.704 127.603 216.387 127.603 216.07 127.607C215.507 127.619 215.274 127.92 215.261 128.47C215.245 129.103 215.674 129.062 216.087 129.07C216.404 129.078 216.72 129.082 217.037 129.078C217.458 129.07 217.716 129.203 217.741 129.687C217.771 130.258 217.466 130.329 216.995 130.383C216.512 130.437 215.812 130.033 215.587 130.766C215.437 131.25 215.345 131.917 216.237 131.908C216.599 131.908 216.962 131.908 217.325 131.921C217.733 131.937 218.196 131.908 218.162 132.529C218.133 133.096 217.8 133.309 217.254 133.275C216.891 133.255 216.529 133.271 216.166 133.275L216.162 133.271Z" fill="black"/>
<path d="M162.365 131.654C162.365 130.808 162.028 129.637 162.449 129.203C162.999 128.636 164.162 129.049 165.062 129.024C165.566 129.012 166.217 128.832 166.204 129.737C166.192 130.612 165.546 130.266 165.125 130.329C164.858 130.37 164.579 130.329 164.312 130.354C163.816 130.404 163.808 130.783 163.799 131.158C163.791 131.542 163.962 131.775 164.345 131.779C164.749 131.779 165.179 131.812 165.554 131.696C166.029 131.546 166.237 131.642 166.283 132.129C166.321 132.563 166.183 132.796 165.696 132.834C165.258 132.867 164.829 133.05 164.387 133.092C163.808 133.15 163.791 133.521 163.791 133.959C163.787 134.605 164.249 134.355 164.558 134.372C165.008 134.392 165.462 134.384 165.917 134.388C166.308 134.392 166.479 134.584 166.475 134.98C166.471 135.376 166.433 135.693 165.921 135.722C165.02 135.772 164.112 135.622 163.216 135.847C162.736 135.968 162.795 135.576 162.695 135.272C162.299 134.08 162.478 132.859 162.365 131.65V131.654Z" fill="black"/>
<path d="M204.212 116.462C204.858 116.691 205.821 116.499 206.13 117.524C206.23 117.854 206.484 118.279 206.084 118.5C205.754 118.683 205.238 118.754 205.013 118.304C204.842 117.966 204.637 117.833 204.3 117.804C203.816 117.762 203.341 117.804 203.266 118.396C203.204 118.921 203.629 119.142 204.046 119.117C204.742 119.075 205.308 119.342 205.767 119.771C206.35 120.317 206.972 120.888 206.596 121.876C206.242 122.805 205.55 123.197 204.637 123.293C203.5 123.41 202.578 123.03 202.066 121.963C201.932 121.684 201.745 121.171 202.274 121.076C202.595 121.017 203.062 120.559 203.345 121.334C203.67 122.226 204.45 122.259 205.088 121.688C205.675 121.163 205.067 120.35 203.833 120.246C202.787 120.159 202.308 119.729 202.149 118.712C201.932 117.333 202.683 116.432 204.212 116.462Z" fill="black"/>
<path d="M198.785 123.506C198.469 123.506 198.148 123.473 197.835 123.514C197.031 123.615 196.672 123.348 196.756 122.472C196.901 120.943 196.393 119.447 196.46 117.9C196.501 116.979 196.793 116.708 197.643 116.775C198.273 116.825 198.915 116.837 199.54 116.754C200.111 116.679 200.307 117.046 200.378 117.417C200.469 117.875 200.019 117.813 199.723 117.871C199.24 117.967 198.765 118.079 198.281 118.179C197.698 118.304 197.802 118.763 197.835 119.155C197.877 119.63 198.194 119.58 198.527 119.455C198.652 119.409 198.798 119.351 198.923 119.371C199.431 119.455 200.219 119.001 200.319 119.943C200.423 120.934 199.615 120.605 199.098 120.714C198.677 120.801 197.923 120.384 197.906 121.135C197.889 121.868 198.389 122.339 199.252 122.189C199.557 122.135 199.907 122.135 200.19 122.235C200.603 122.381 200.824 122.764 200.769 123.194C200.711 123.66 200.282 123.469 200.002 123.494C199.598 123.527 199.19 123.502 198.781 123.502L198.785 123.506Z" fill="black"/>
<path d="M186.511 117.333C186.602 117.333 186.698 117.313 186.782 117.333C187.315 117.483 188.232 116.912 188.315 117.909C188.411 119.076 187.407 118.605 186.832 118.671C186.269 118.738 185.706 118.671 185.773 119.509C185.84 120.393 186.502 120.118 186.998 120.151C187.169 120.163 187.353 120.097 187.524 120.043C187.899 119.926 188.261 119.838 188.303 120.409C188.336 120.843 188.303 121.222 187.711 121.255C187.361 121.276 187.023 121.443 186.673 121.493C186.244 121.556 186.04 121.743 186.056 122.202C186.077 122.748 186.452 122.714 186.815 122.723C187.269 122.731 187.719 122.735 188.174 122.731C188.561 122.731 188.766 122.902 188.749 123.302C188.736 123.631 188.711 123.961 188.299 124.023C187.236 124.177 186.156 123.89 185.081 124.227C184.664 124.356 184.768 123.781 184.76 123.51C184.718 121.981 184.748 120.455 184.514 118.926C184.272 117.35 184.393 117.329 186.519 117.329L186.511 117.333Z" fill="black"/>
<path d="M199.377 134.085C198.923 134.085 198.469 134.089 198.014 134.085C197.602 134.081 197.327 133.935 197.31 133.455C197.248 131.696 196.902 129.954 197.022 128.183C197.06 127.629 197.177 127.358 197.794 127.366C198.548 127.378 199.311 127.47 200.057 127.145C200.449 126.974 200.732 127.228 200.74 127.712C200.745 128.087 200.82 128.462 200.244 128.429C199.79 128.404 199.369 128.508 198.931 128.658C198.494 128.808 198.352 129.012 198.369 129.429C198.39 129.896 198.748 129.813 199.044 129.908C199.665 130.113 200.878 129.317 200.828 130.621C200.782 131.751 199.673 131.005 199.065 131.18C198.681 131.288 198.344 131.342 198.377 131.826C198.406 132.259 198.598 132.634 199.065 132.705C199.465 132.768 199.886 132.784 200.286 132.734C201.003 132.647 201.132 133.122 201.174 133.63C201.232 134.335 200.649 134.035 200.328 134.089C200.019 134.139 199.694 134.101 199.377 134.101V134.093V134.085Z" fill="black"/>
<path d="M175.707 132.801C175.365 133.393 175.528 133.943 175.511 134.464C175.491 134.981 175.278 135.16 174.769 135.193C174.14 135.239 174.161 134.872 174.144 134.439C174.078 132.776 174.332 131.104 173.903 129.454C173.811 129.095 173.673 128.52 174.432 128.462C175.149 128.408 175.274 128.766 175.236 129.358C175.211 129.762 175.232 130.171 175.232 130.708C176.474 130.096 176.558 128.162 178.296 128.358C178.158 129.208 177.545 129.771 177.079 130.404C176.662 130.971 176.503 131.438 177.054 132.059C177.529 132.592 177.887 133.247 178.208 133.893C178.396 134.264 179.108 134.726 178.462 135.106C177.945 135.414 177.383 135.101 177.016 134.48C176.67 133.897 176.391 133.205 175.703 132.801H175.707Z" fill="black"/>
<path d="M210.201 126.753C210.906 126.657 211.598 126.974 211.885 127.899C211.969 128.162 212.173 128.557 211.727 128.716C211.431 128.824 211.085 128.849 210.927 128.453C210.635 127.72 210.135 127.857 209.597 128.128C209.335 128.257 209.143 128.432 209.193 128.758C209.243 129.066 209.43 129.154 209.743 129.22C210.31 129.337 210.889 129.512 211.402 129.779C212.427 130.312 212.586 131.279 212.24 132.234C211.856 133.292 210.939 133.713 209.835 133.563C208.705 133.409 208.176 132.53 207.751 131.608C207.626 131.338 207.963 131.288 208.172 131.225C208.513 131.121 208.893 130.896 209.009 131.483C209.147 132.171 209.61 132.338 210.218 132.275C210.556 132.242 210.831 132.109 210.931 131.746C211.048 131.333 210.889 131.004 210.539 130.825C210.181 130.641 209.776 130.458 209.385 130.441C208.122 130.379 207.767 129.595 207.838 128.528C207.917 127.403 208.788 126.724 210.193 126.753H210.201Z" fill="black"/>
<path d="M197.477 144.237C197.543 144.437 197.489 144.625 197.306 144.687C196.96 144.8 196.668 144.679 196.535 144.329C196.164 143.337 195.401 143.237 194.463 143.245C193.521 143.253 192.746 143.324 192.496 144.42C192.421 144.75 192.242 145.062 191.837 144.891C191.471 144.733 191.525 144.391 191.637 144.07C192.237 142.415 192.842 140.761 193.434 139.102C193.6 138.639 193.867 138.277 194.371 138.247C194.947 138.214 194.93 138.793 195.055 139.123C195.568 140.473 196.21 141.749 196.931 142.991C197.156 143.378 197.293 143.82 197.468 144.237H197.477Z" fill="black"/>
<path d="M184.893 138.548C186.077 138.598 186.869 139.048 187.278 140.119C187.686 141.191 187.749 142.32 187.69 143.416C187.623 144.675 186.311 145.596 184.698 145.596C183.593 145.596 183.085 144.825 182.78 143.825C182.351 142.42 182.534 141.028 182.889 139.686C183.139 138.744 184.089 138.577 184.889 138.544L184.893 138.548ZM183.38 142.124C183.426 142.416 183.501 142.862 183.564 143.304C183.668 144.042 184.01 144.663 184.777 144.742C185.523 144.821 186.156 144.404 186.59 143.791C187.328 142.749 186.74 141.695 186.531 140.661C186.356 139.799 185.777 139.344 184.877 139.386C183.943 139.432 183.539 139.974 183.514 140.878C183.506 141.241 183.439 141.599 183.38 142.12V142.124Z" fill="black" stroke="black" stroke-miterlimit="10"/>
<path d="M182.226 130.595C183.235 129.87 182.263 127.686 184.372 127.978C183.981 130.183 182.755 132.142 182.918 134.422C182.935 134.672 182.851 134.868 182.559 134.893C182.205 134.922 181.901 134.83 181.847 134.434C181.572 132.404 180.705 130.574 179.929 128.711C179.838 128.49 179.871 128.261 180.184 128.207C180.625 128.132 180.976 128.236 181.23 128.645C181.609 129.253 181.626 130.045 182.222 130.587L182.226 130.595Z" fill="black"/>
<path d="M174.753 120.888C175.003 119.896 175.161 119.217 175.353 118.55C175.52 117.967 175.941 117.733 176.499 117.95C177.141 118.196 176.683 118.6 176.587 118.954C176.137 120.588 175.37 122.155 175.407 123.902C175.428 124.86 174.703 124.577 174.098 124.744C174.411 122.53 173.294 120.767 172.56 118.888C172.473 118.667 171.76 118.425 172.494 118.117C172.956 117.921 173.323 117.866 173.569 118.475C173.865 119.209 174.261 119.9 174.753 120.884V120.888Z" fill="black"/>
<path d="M179.254 139.019C179.725 139.177 180.813 138.727 180.792 139.382C180.767 140.236 179.704 139.69 179.108 139.815C178.629 139.915 178.037 139.753 177.654 139.974C177.179 140.249 177.358 140.911 177.466 141.357C177.637 142.033 178.129 141.52 178.458 141.47C179.654 141.286 180.855 141.812 181.092 142.845C181.326 143.875 181.28 144.875 180.1 145.509C178.975 146.109 178.037 146.055 177.174 145.125C176.928 144.863 176.658 144.479 176.983 144.167C177.354 143.812 177.599 144.175 177.825 144.483C178.429 145.292 179.242 145.367 179.967 144.792C180.555 144.325 180.534 143.566 180.142 142.929C179.621 142.074 178.821 142.02 177.995 142.404C176.845 142.937 176.666 142.845 176.599 141.557C176.482 139.215 176.683 139.015 179.25 139.011L179.254 139.019Z" fill="black" stroke="black" stroke-miterlimit="10"/>
<path d="M188.27 134.629C187.774 134.617 187.469 134.458 187.515 133.987C187.619 132.854 187.29 131.758 187.244 130.641C187.211 129.861 187.374 129.048 186.131 129.219C185.706 129.278 185.66 128.89 185.681 128.552C185.698 128.198 185.831 127.948 186.24 127.931C187.307 127.881 188.378 127.998 189.441 127.681C189.891 127.548 190.158 127.927 190.187 128.419C190.22 128.969 189.862 128.998 189.483 128.969C188.728 128.907 188.611 129.328 188.574 129.965C188.503 131.237 188.753 132.47 188.853 133.725C188.891 134.188 188.895 134.684 188.274 134.633L188.27 134.629Z" fill="black"/>
<path d="M194.593 127.395C195.164 127.349 195.501 127.42 195.543 127.907C195.585 128.387 195.435 128.745 194.885 128.687C193.847 128.574 193.855 129.279 194.055 129.887C194.468 131.137 194.163 132.396 194.268 133.647C194.301 134.08 194.109 134.334 193.655 134.347C193.146 134.364 192.917 134.113 192.921 133.609C192.926 132.475 192.905 131.346 192.921 130.212C192.934 129.495 192.821 128.958 191.925 128.953C191.304 128.953 191.042 128.47 191.096 127.953C191.15 127.432 191.671 127.686 191.984 127.653C192.909 127.553 193.876 127.874 194.593 127.395Z" fill="black"/>
<path d="M204.7 133.821C202.937 133.821 202.925 133.821 202.937 132.05C202.95 130.779 202.891 129.52 202.687 128.261C202.625 127.861 202.395 127.178 203.216 127.115C204.033 127.057 203.862 127.682 203.9 128.149C204 129.32 204.121 130.487 204.171 131.658C204.2 132.358 204.592 132.421 205.15 132.479C205.688 132.534 206.609 132.092 206.58 133.163C206.551 134.197 205.646 133.692 205.109 133.813C204.979 133.842 204.838 133.817 204.7 133.817V133.821Z" fill="black"/>
<path d="M174.057 140.733C173.327 140.846 173.082 141.271 172.711 141.512C172.486 141.658 172.273 142.133 171.96 141.717C171.756 141.446 171.923 141.133 172.185 140.887C172.477 140.616 172.711 140.279 172.998 140.004C173.348 139.666 173.686 139.199 174.253 139.349C174.978 139.537 174.532 140.174 174.653 140.6C175.078 142.054 174.895 143.546 174.924 145.026C174.928 145.343 174.953 145.735 174.519 145.739C174.111 145.743 174.061 145.38 174.061 145.047C174.061 143.655 174.061 142.263 174.061 140.741L174.057 140.733Z" fill="black" stroke="black" stroke-miterlimit="10"/>
</svg>
