<svg width="899" height="72" viewBox="0 0 899 72" fill="none" xmlns="http://www.w3.org/2000/svg">
<path d="M12.9919 68.48C10.8159 68.5653 8.81059 68.288 6.97592 67.648C5.18392 67.0507 3.71192 66.2187 2.55992 65.152C1.45059 64.0853 0.746586 62.848 0.44792 61.44C0.149253 59.9893 0.405253 58.5173 1.21592 57.024C2.32525 55.232 4.54392 54.6987 7.87192 55.424C10.3893 55.936 12.1173 56.2133 13.0559 56.256C14.0373 56.2987 14.8693 56.1707 15.5519 55.872C18.6666 54.848 20.4159 53.7387 20.7999 52.544C21.0559 51.648 20.5013 50.6027 19.1359 49.408C18.5813 48.896 17.9626 48.384 17.2799 47.872C16.5973 47.36 16.0213 46.848 15.5519 46.336C13.4186 44.7573 11.7333 42.944 10.4959 40.896C9.30125 38.8053 8.81059 36.544 9.02392 34.112C9.23725 31.68 9.64259 29.6747 10.2399 28.096C10.8373 26.4747 11.5839 25.0453 12.4799 23.808C14.0586 21.632 16.1066 19.8613 18.6239 18.496C21.5253 17.0027 23.8506 16.0427 25.5999 15.616C29.0559 14.848 32.5546 14.784 36.0959 15.424C37.2906 15.6373 38.3146 16.0427 39.1679 16.64C40.0213 17.2373 40.8746 17.856 41.7279 18.496C43.2213 19.9893 43.5839 21.504 42.8159 23.04C42.5173 23.7227 42.0479 24.2773 41.4079 24.704C40.7679 25.1307 40.0853 25.3653 39.3599 25.408C39.4453 26.56 39.2319 27.4133 38.7199 27.968C37.7386 28.9493 36.0319 29.5893 33.5999 29.888C30.1013 29.632 27.7333 29.824 26.4959 30.464C25.0453 31.232 24.5119 32.896 24.8959 35.456C24.9813 36.0107 25.3226 36.5867 25.9199 37.184C26.5599 37.7813 27.2853 38.4213 28.0959 39.104C28.9493 39.7867 29.8239 40.5547 30.7199 41.408C31.6586 42.2613 32.4693 43.2427 33.1519 44.352C35.5413 48.2773 35.3493 52.864 32.5759 58.112C30.5279 62.0373 27.0293 64.9813 22.0799 66.944C19.5199 67.968 16.4906 68.48 12.9919 68.48ZM59.9524 48.384C58.8004 51.712 57.6271 54.912 56.4324 57.984C55.2378 61.056 54.2351 63.3813 53.4244 64.96C52.6564 66.5813 51.9738 67.6907 51.3764 68.288C50.7791 68.8853 50.1604 69.2907 49.5204 69.504C48.9231 69.7173 48.3044 69.8027 47.6644 69.76C47.0671 69.7173 46.4484 69.6747 45.8084 69.632C42.2244 69.0773 41.1151 66.496 42.4804 61.888C43.3764 58.2187 44.1018 55.232 44.6564 52.928C45.2111 50.5813 45.6591 48.6613 46.0004 47.168C46.3844 45.632 46.7044 44.3733 46.9604 43.392C47.2164 42.368 47.4938 41.3653 47.7924 40.384C48.0911 39.4027 48.4538 38.2933 48.8804 37.056C49.3498 35.8187 49.9471 34.176 50.6724 32.128C49.0511 32.3413 47.6004 32.1707 46.3204 31.616C44.4431 30.8053 43.6751 29.056 44.0164 26.368C44.1871 25.1307 44.8484 23.9787 46.0004 22.912C46.5978 22.3573 47.3018 21.76 48.1124 21.12C49.7764 19.7973 53.0831 18.3893 58.0324 16.896C63.1524 15.36 67.5471 14.6347 71.2164 14.72C72.1978 14.5493 73.2004 14.6773 74.2244 15.104C75.2911 15.488 76.1444 16.0213 76.7844 16.704C77.4244 17.3867 77.7444 18.1333 77.7444 18.944C77.7871 19.7547 77.2751 20.48 76.2084 21.12C75.6964 21.4613 75.3338 22.0373 75.1204 22.848C74.9071 23.616 74.6724 24.448 74.4164 25.344C74.1604 26.1973 73.7764 26.9867 73.2644 27.712C72.7951 28.4373 72.0271 28.864 70.9604 28.992C70.4058 29.2907 69.6164 29.504 68.5924 29.632C67.6111 29.76 66.9498 29.8667 66.6084 29.952C66.3098 29.9947 66.1391 30.1013 66.0964 30.272C65.3284 32.5333 64.4111 35.2853 63.3444 38.528C62.2778 41.728 61.1471 45.0133 59.9524 48.384ZM51.3124 31.424C51.2271 31.424 51.1844 31.4453 51.1844 31.488C51.1844 31.488 51.2271 31.488 51.3124 31.488V31.424ZM105.197 21.376C106.648 22.144 107.565 23.2747 107.949 24.768C107.096 29.5467 106.328 34.304 105.645 39.04C104.963 43.7333 104.301 47.68 103.661 50.88C103.021 54.0373 102.573 56.4053 102.317 57.984C102.104 59.5627 101.848 61.1413 101.549 62.72L101.165 64.064C101.08 64.5333 100.995 64.96 100.909 65.344C100.824 65.7707 100.739 66.2187 100.653 66.688C99.4588 68.0533 97.8374 68.736 95.7894 68.736C93.6134 68.736 91.8854 68.1813 90.6054 67.072C89.8374 66.4747 89.7094 65.216 90.2214 63.296C90.4348 62.528 90.5628 61.5467 90.6054 60.352C90.6908 59.1147 90.7761 58.0907 90.8614 57.28V57.152C89.5814 57.6213 88.4294 58.24 87.4054 59.008C86.3814 59.7333 85.7414 60.2027 85.4854 60.416C85.2294 60.5867 84.8881 60.736 84.4614 60.864C84.0348 60.9493 83.6508 61.0133 83.3094 61.056C82.4988 61.0987 81.9441 61.2267 81.6454 61.44C79.1708 65.8773 76.9521 68.352 74.9894 68.864C73.7521 69.248 72.5148 69.3333 71.2774 69.12C70.0401 68.9493 69.0588 68.224 68.3334 66.944C66.9681 65.664 67.3094 62.1653 69.3574 56.448C70.4668 53.4187 72.0454 49.792 74.0934 45.568C76.1841 41.3013 78.1894 37.5893 80.1094 34.432C84.2481 27.648 88.7921 21.9307 93.7414 17.28C94.5521 16.9387 95.4268 16.5547 96.3654 16.128C97.3041 15.6587 98.2214 15.4027 99.1174 15.36C100.056 15.3173 101.016 15.424 101.997 15.68C102.979 15.936 103.811 16.32 104.493 16.832C106.072 18.0267 106.307 19.5413 105.197 21.376ZM91.5014 38.208C90.6054 40.768 89.7094 43.136 88.8134 45.312C87.9174 47.4453 87.1494 49.3227 86.5094 50.944L91.5654 50.752C91.9068 48.0213 92.2908 45.312 92.7174 42.624C93.1441 39.936 93.5494 37.248 93.9334 34.56L91.5014 38.208ZM89.7734 51.008C90.3708 51.008 90.9681 50.9653 91.5654 50.88V50.816C91.0108 50.8587 90.4988 50.9013 90.0294 50.944C89.5601 50.9867 89.4748 51.008 89.7734 51.008ZM97.1334 1.152C98.4988 0.597335 99.8428 0.213333 101.165 0C102.403 0.0853373 103.704 0.128006 105.069 0.128006C106.435 0.128006 107.885 0.490672 109.421 1.216C110.957 1.94134 112.259 2.98667 113.325 4.352C114.392 5.67467 115.032 7.104 115.245 8.64C115.629 11.968 114.221 15.0187 111.021 17.792C109.613 18.944 107.523 19.8187 104.749 20.416C102.573 20.8853 100.44 21.056 98.3494 20.928C96.2588 20.8 94.7441 20.672 93.8054 20.544C92.8668 20.3733 92.2054 20.1813 91.8214 19.968C91.4801 19.7547 91.1174 19.5413 90.7334 19.328C90.3494 19.072 89.9868 18.8587 89.6454 18.688C87.0854 17.1093 85.9121 14.7413 86.1254 11.584C86.2961 8.896 87.2774 6.57067 89.0694 4.608C89.7094 3.88267 90.2854 3.43467 90.7974 3.264C91.3521 3.09334 92.2268 2.752 93.4214 2.24C94.6588 1.68533 95.8961 1.32267 97.1334 1.152ZM103.533 10.88C102.808 11.0507 101.763 11.2 100.397 11.328C100.099 11.2427 99.7148 11.2 99.2454 11.2C98.7761 11.2 98.3281 11.1787 97.9014 11.136C96.9201 12.288 96.6214 13.3547 97.0054 14.336C97.1334 14.6773 97.4321 14.976 97.9014 15.232C98.3708 15.488 98.9681 15.5733 99.6934 15.488C100.461 15.36 101.165 15.104 101.805 14.72C103.256 13.824 103.853 12.6507 103.597 11.2C103.555 11.1573 103.533 11.0507 103.533 10.88ZM117.13 64.96C116.746 66.6667 115.424 67.712 113.162 68.096C111.072 68.48 109.088 68.2453 107.21 67.392C105.12 66.496 104.202 65.2373 104.458 63.616C104.202 61.1413 105.504 55.7653 108.362 47.488C112.629 35.072 116.896 26.1973 121.162 20.864C122.272 19.4987 123.21 18.624 123.978 18.24C124.789 17.8133 125.706 17.4293 126.73 17.088C127.754 16.7467 128.821 16.4267 129.93 16.128C132.149 15.5307 134.24 15.1253 136.202 14.912C138.208 14.656 140 14.8907 141.578 15.616C143.157 16.2987 144.373 17.3227 145.226 18.688C146.122 20.0533 146.677 21.6747 146.89 23.552C147.104 25.3867 147.04 27.328 146.698 29.376C146.357 31.3813 145.738 33.4293 144.842 35.52C143.946 37.568 142.816 39.488 141.45 41.28C138.464 45.2053 134.965 47.744 130.954 48.896L131.594 49.984C132.149 50.8373 132.81 51.776 133.578 52.8C134.389 53.824 135.178 54.8693 135.946 55.936C136.757 57.0027 137.482 58.0693 138.122 59.136C138.762 60.2027 139.232 61.2053 139.53 62.144C140.213 64.2347 139.68 65.7493 137.93 66.688C136.522 67.5413 135.413 67.7547 134.602 67.328C134.261 67.1147 133.92 66.8373 133.578 66.496C133.237 66.1973 132.768 65.9413 132.17 65.728C129.653 66.4533 127.733 65.8133 126.41 63.808C125.6 62.528 124.981 61.3547 124.554 60.288C124.128 59.2213 123.765 58.3253 123.466 57.6C122.698 56.0213 121.824 54.656 120.842 53.504C120.373 54.656 119.84 56.128 119.242 57.92C118.517 60.1813 117.706 62.528 116.81 64.96H117.13ZM130.058 27.712C129.248 29.5467 128.693 30.8267 128.394 31.552C127.797 33.0027 127.136 34.6027 126.41 36.352C126.282 37.2907 126.176 37.952 126.09 38.336L126.986 37.44L128.074 36.928C128.842 36.5013 129.546 36.1173 130.186 35.776C130.826 35.4347 131.402 35.008 131.914 34.496C132.896 33.5147 133.749 31.9147 134.474 29.696C134.474 29.2693 134.538 28.8427 134.666 28.416C134.837 27.9893 134.944 27.5627 134.986 27.136C135.157 26.1973 134.773 25.536 133.834 25.152C132.981 25.0667 131.914 25.7707 130.634 27.264C130.378 27.5627 130.186 27.712 130.058 27.712ZM202.926 38.784C202.755 40.6187 202.414 42.496 201.902 44.416C201.433 46.336 200.729 48.2133 199.79 50.048C198.894 51.8827 197.806 53.6533 196.526 55.36C195.289 57.0667 193.902 58.6453 192.366 60.096C190.83 61.5467 189.187 62.7627 187.438 63.744C183.683 65.9627 180.057 66.752 176.558 66.112C175.79 67.776 174.638 68.8213 173.102 69.248C171.609 69.7173 170.115 69.7173 168.622 69.248C167.171 68.8213 165.891 67.9893 164.782 66.752C163.673 65.5147 163.118 63.8293 163.118 61.696C163.118 59.52 163.267 57.3013 163.566 55.04C163.865 52.7787 164.27 50.6027 164.782 48.512C165.593 45.056 166.595 41.8133 167.79 38.784C170.606 31.9147 172.206 27.0933 172.59 24.32C173.145 20.608 174.169 18.304 175.662 17.408C178.137 15.9573 180.483 15.3387 182.702 15.552C184.921 15.7653 186.926 16.2987 188.718 17.152C191.662 18.56 194.841 20.928 198.254 24.256C202.009 27.8827 203.566 32.7253 202.926 38.784ZM177.774 57.984C179.95 56.8747 181.699 55.744 183.022 54.592C184.387 53.3973 185.667 52.3093 186.862 51.328C188.697 49.4933 190.041 47.3173 190.894 44.8C192.771 39.2533 191.577 35.0507 187.31 32.192C186.67 31.7227 185.71 31.0827 184.43 30.272C183.833 31.6373 183.385 33.0667 183.086 34.56C182.83 36.0533 182.467 37.504 181.998 38.912L180.27 44.544L178.862 50.624C178.777 51.4773 178.649 52.3093 178.478 53.12C178.307 53.888 178.158 54.6987 178.03 55.552L177.774 57.984ZM223.07 18.432V18.56C223.07 18.6027 223.07 18.624 223.07 18.624C223.113 18.624 223.134 18.6453 223.134 18.688V18.816H223.198L223.582 19.84C224.009 21.0773 222.899 24.9173 220.254 31.36C217.438 38.2293 216.137 43.584 216.35 47.424C216.819 50.1547 219.102 47.9573 223.198 40.832C226.441 35.2853 229.577 29.2053 232.606 22.592C232.99 21.696 233.395 20.7787 233.822 19.84C234.249 18.8587 234.782 18.048 235.422 17.408C236.83 15.872 238.537 15.4667 240.542 16.192C241.225 15.3813 242.014 14.8267 242.91 14.528C243.849 14.2293 244.723 14.1653 245.534 14.336C246.387 14.5067 247.113 14.912 247.71 15.552C248.307 16.1493 248.627 16.96 248.67 17.984C248.798 18.8373 248.35 20.864 247.326 24.064C246.345 27.264 245.427 30.1867 244.574 32.832C243.721 35.4773 242.846 38.3573 241.95 41.472C239.774 48.8533 238.046 55.808 236.766 62.336C236.723 63.7013 236.126 64.832 234.974 65.728C233.865 66.624 232.606 67.2 231.198 67.456C229.833 67.7547 228.531 67.712 227.294 67.328C225.801 66.9013 225.011 65.8347 224.926 64.128C224.926 63.6587 224.905 63.1893 224.862 62.72C224.947 64.1707 223.902 65.408 221.726 66.432C221.129 66.7307 220.574 67.008 220.062 67.264C217.075 68.16 213.939 67.968 210.654 66.688C209.118 66.048 207.731 65.1947 206.494 64.128C205.299 63.0187 204.467 61.7173 203.998 60.224C202.505 55.4453 202.782 49.1733 204.83 41.408C205.683 38.08 206.729 34.8373 207.966 31.68C209.203 28.5227 210.099 26.24 210.654 24.832C211.251 23.424 211.678 22.464 211.934 21.952C212.19 21.3973 212.467 20.864 212.766 20.352C213.491 18.9013 214.11 17.92 214.622 17.408L215.39 16.704C215.475 16.6187 215.561 16.576 215.646 16.576C215.731 16.5333 215.838 16.4693 215.966 16.384C216.307 16.1707 216.67 16.0213 217.054 15.936L217.95 15.744H218.334C219.571 15.5733 220.638 15.8293 221.534 16.512C221.534 16.5547 221.577 16.576 221.662 16.576L222.174 17.024L222.366 17.216L222.558 17.472C222.558 17.5147 222.558 17.536 222.558 17.536C222.601 17.536 222.622 17.5573 222.622 17.6L222.686 17.664V17.792C222.729 17.792 222.75 17.8133 222.75 17.856V17.92C222.793 17.9627 222.835 17.984 222.878 17.984V18.048C222.878 18.0907 222.878 18.112 222.878 18.112C222.921 18.112 222.942 18.1333 222.942 18.176C222.942 18.176 222.963 18.1973 223.006 18.24V18.304C223.006 18.3467 223.027 18.3893 223.07 18.432ZM224.798 61.056V60.864C224.755 60.9067 224.734 61.0773 224.734 61.376C224.734 61.248 224.755 61.1627 224.798 61.12V61.056ZM277.86 22.4C280.548 19.328 283.535 17.408 286.82 16.64C289.081 16.0853 291.215 16.1707 293.22 16.896C294.799 15.232 296.847 14.6347 299.364 15.104C301.668 15.5307 303.631 16.832 305.252 19.008C305.337 19.3067 305.508 19.7547 305.764 20.352C306.063 20.9493 306.34 21.6107 306.596 22.336C308.473 26.688 308.623 32.4053 307.044 39.488C305.081 48.2773 301.604 55.7227 296.612 61.824C295.076 63.7013 293.348 65.2587 291.428 66.496C288.356 68.8427 284.687 69.888 280.42 69.632C277.775 69.504 275.556 68.8427 273.764 67.648C266.639 64.1067 264.313 56.7253 266.788 45.504C268.836 36.288 272.527 28.5867 277.86 22.4ZM278.628 56.384L278.564 56.768L278.692 57.472C278.948 58.7947 279.375 59.8187 279.972 60.544C280.569 61.2267 281.06 61.6533 281.444 61.824C281.871 61.4827 282.297 61.1627 282.724 60.864C283.151 60.5653 283.535 60.2027 283.876 59.776C286.777 56.192 289.039 51.4987 290.66 45.696C292.281 39.8933 292.879 34.5173 292.452 29.568C290.788 31.7013 289.039 34.1547 287.204 36.928C285.369 39.7013 283.919 42.0693 282.852 44.032C280.42 48.5973 279.012 52.7147 278.628 56.384ZM331.151 16.448C337.295 15.2107 342.074 15.9787 345.487 18.752C347.108 20.0747 348.175 21.9947 348.687 24.512C349.242 27.0293 348.964 29.8453 347.855 32.96C347.386 34.4107 346.575 35.4987 345.423 36.224C344.271 36.9493 343.076 37.376 341.839 37.504C340.644 37.5893 339.556 37.44 338.575 37.056C337.594 36.6293 337.06 36.032 336.975 35.264L336.399 33.984C335.375 32.448 333.604 32.256 331.087 33.408C328.911 34.3893 326.735 36.096 324.559 38.528C322.255 41.1307 320.762 43.4773 320.079 45.568C319.311 47.872 318.927 49.3867 318.927 50.112C318.842 51.7333 319.418 53.184 320.655 54.464C322.447 55.616 324.239 56.1493 326.031 56.064C327.823 55.936 329.423 55.5307 330.831 54.848C332.239 54.1227 333.391 53.312 334.287 52.416C335.183 51.52 335.631 50.88 335.631 50.496C335.759 50.24 335.887 49.984 336.015 49.728C336.143 49.472 336.25 49.216 336.335 48.96C336.164 48.96 336.207 48.96 336.463 48.96C336.719 48.9173 336.783 48.9173 336.655 48.96C336.527 48.96 336.591 48.9813 336.847 49.024L337.231 49.152C335.14 51.0293 333.114 51.4133 331.151 50.304C330.383 49.8347 329.7 49.344 329.103 48.832C328.506 48.2773 327.951 48.0213 327.439 48.064C326.5 47.552 326.287 46.5493 326.799 45.056C327.012 44.4587 327.396 43.904 327.951 43.392C328.548 42.8373 329.295 42.4533 330.191 42.24C334.458 40.4053 338.404 39.9787 342.031 40.96C343.652 41.3867 344.762 42.2613 345.359 43.584C345.999 44.864 346.276 46.3147 346.191 47.936C346.106 49.5573 345.743 51.2 345.103 52.864C344.506 54.528 343.844 55.872 343.119 56.896C342.394 57.8773 341.37 59.0507 340.047 60.416C338.767 61.7813 337.146 63.104 335.183 64.384C330.362 67.4987 325.199 68.992 319.695 68.864C311.716 68.736 307.002 65.472 305.551 59.072C305.082 57.024 304.868 54.72 304.911 52.16C305.338 44.736 307.556 37.8027 311.567 31.36C313.487 28.288 316.068 25.2587 319.311 22.272C321.359 20.4373 323.663 19.0293 326.223 18.048C327.588 17.4933 329.231 16.96 331.151 16.448ZM377.179 68.48C375.003 68.5653 372.998 68.288 371.163 67.648C369.371 67.0507 367.899 66.2187 366.747 65.152C365.638 64.0853 364.934 62.848 364.635 61.44C364.337 59.9893 364.593 58.5173 365.403 57.024C366.513 55.232 368.731 54.6987 372.059 55.424C374.577 55.936 376.305 56.2133 377.243 56.256C378.225 56.2987 379.057 56.1707 379.739 55.872C382.854 54.848 384.603 53.7387 384.987 52.544C385.243 51.648 384.689 50.6027 383.323 49.408C382.769 48.896 382.15 48.384 381.467 47.872C380.785 47.36 380.209 46.848 379.739 46.336C377.606 44.7573 375.921 42.944 374.683 40.896C373.489 38.8053 372.998 36.544 373.211 34.112C373.425 31.68 373.83 29.6747 374.427 28.096C375.025 26.4747 375.771 25.0453 376.667 23.808C378.246 21.632 380.294 19.8613 382.811 18.496C385.713 17.0027 388.038 16.0427 389.787 15.616C393.243 14.848 396.742 14.784 400.283 15.424C401.478 15.6373 402.502 16.0427 403.355 16.64C404.209 17.2373 405.062 17.856 405.915 18.496C407.409 19.9893 407.771 21.504 407.003 23.04C406.705 23.7227 406.235 24.2773 405.595 24.704C404.955 25.1307 404.273 25.3653 403.547 25.408C403.633 26.56 403.419 27.4133 402.907 27.968C401.926 28.9493 400.219 29.5893 397.787 29.888C394.289 29.632 391.921 29.824 390.683 30.464C389.233 31.232 388.699 32.896 389.083 35.456C389.169 36.0107 389.51 36.5867 390.107 37.184C390.747 37.7813 391.473 38.4213 392.283 39.104C393.137 39.7867 394.011 40.5547 394.907 41.408C395.846 42.2613 396.657 43.2427 397.339 44.352C399.729 48.2773 399.537 52.864 396.763 58.112C394.715 62.0373 391.217 64.9813 386.267 66.944C383.707 67.968 380.678 68.48 377.179 68.48ZM413.388 19.328C414.199 17.3653 415.351 16.6613 416.844 17.216C417.271 16.2773 417.633 15.68 417.932 15.424C418.273 15.168 418.615 14.976 418.956 14.848C419.297 14.6773 419.66 14.5067 420.044 14.336C420.428 14.1653 421.025 14.016 421.836 13.888C422.647 13.76 423.543 13.696 424.524 13.696C425.505 13.6533 426.487 13.696 427.468 13.824C428.492 13.952 429.345 14.2293 430.028 14.656C431.692 15.6373 432.055 17.216 431.116 19.392C431.201 19.3493 431.18 19.392 431.052 19.52L430.476 20.608L430.028 21.184C429.815 21.3973 429.153 22.6987 428.044 25.088C427.148 26.7947 426.231 28.48 425.292 30.144C423.756 33.0027 422.817 34.8373 422.476 35.648C423.969 34.8373 425.697 33.664 427.66 32.128C431.372 29.2693 433.74 27.5627 434.764 27.008C435.788 26.4533 436.492 26.112 436.876 25.984C437.303 25.856 437.708 25.8347 438.092 25.92C438.476 25.9627 438.881 26.0693 439.308 26.24L440.908 26.88C441.932 27.2213 442.487 28.4587 442.572 30.592C442.615 32.6827 442.188 34.2613 441.292 35.328C437.409 40.3627 433.036 43.7333 428.172 45.44C426.679 45.9947 425.143 46.464 423.564 46.848C425.825 47.104 427.98 48.5973 430.028 51.328C431.692 53.5467 432.887 55.8293 433.612 58.176C434.38 60.5227 434.977 62.272 435.404 63.424C435.831 64.5333 436.001 65.3867 435.916 65.984C435.873 66.624 435.511 67.0933 434.828 67.392C434.188 67.7333 433.079 68.0533 431.5 68.352C430.775 68.48 429.281 67.6267 427.02 65.792C426.039 64.9813 424.993 64.1067 423.884 63.168C422.775 62.1867 421.665 61.2693 420.556 60.416C417.996 58.4107 416.204 57.3653 415.18 57.28C415.095 57.28 414.924 57.2373 414.668 57.152L413.516 60.032C412.919 61.44 412.3 62.9333 411.66 64.512C411.063 66.048 410.337 67.4347 409.484 68.672C408.161 69.568 406.625 69.9307 404.876 69.76C402.871 69.5467 401.548 68.736 400.908 67.328C400.481 66.0053 401.185 62.1227 403.02 55.68C404.257 51.1573 405.324 47.1893 406.22 43.776C407.116 40.3627 407.884 37.5467 408.524 35.328C409.164 33.0667 409.633 31.3173 409.932 30.08C410.231 28.8 410.529 27.5627 410.828 26.368C411.553 23.5947 412.407 21.248 413.388 19.328ZM474.322 21.376C475.773 22.144 476.69 23.2747 477.074 24.768C476.221 29.5467 475.453 34.304 474.77 39.04C474.088 43.7333 473.426 47.68 472.786 50.88C472.146 54.0373 471.698 56.4053 471.442 57.984C471.229 59.5627 470.973 61.1413 470.674 62.72L470.29 64.064C470.205 64.5333 470.12 64.96 470.034 65.344C469.949 65.7707 469.864 66.2187 469.778 66.688C468.584 68.0533 466.962 68.736 464.914 68.736C462.738 68.736 461.01 68.1813 459.73 67.072C458.962 66.4747 458.834 65.216 459.346 63.296C459.56 62.528 459.688 61.5467 459.73 60.352C459.816 59.1147 459.901 58.0907 459.986 57.28V57.152C458.706 57.6213 457.554 58.24 456.53 59.008C455.506 59.7333 454.866 60.2027 454.61 60.416C454.354 60.5867 454.013 60.736 453.586 60.864C453.16 60.9493 452.776 61.0133 452.434 61.056C451.624 61.0987 451.069 61.2267 450.77 61.44C448.296 65.8773 446.077 68.352 444.114 68.864C442.877 69.248 441.64 69.3333 440.402 69.12C439.165 68.9493 438.184 68.224 437.458 66.944C436.093 65.664 436.434 62.1653 438.482 56.448C439.592 53.4187 441.17 49.792 443.218 45.568C445.309 41.3013 447.314 37.5893 449.234 34.432C453.373 27.648 457.917 21.9307 462.866 17.28C463.677 16.9387 464.552 16.5547 465.49 16.128C466.429 15.6587 467.346 15.4027 468.242 15.36C469.181 15.3173 470.141 15.424 471.122 15.68C472.104 15.936 472.936 16.32 473.618 16.832C475.197 18.0267 475.432 19.5413 474.322 21.376ZM460.626 38.208C459.73 40.768 458.834 43.136 457.938 45.312C457.042 47.4453 456.274 49.3227 455.634 50.944L460.69 50.752C461.032 48.0213 461.416 45.312 461.842 42.624C462.269 39.936 462.674 37.248 463.058 34.56L460.626 38.208ZM458.898 51.008C459.496 51.008 460.093 50.9653 460.69 50.88V50.816C460.136 50.8587 459.624 50.9013 459.154 50.944C458.685 50.9867 458.6 51.008 458.898 51.008ZM497.263 67.84C496.367 68.096 495.514 68.224 494.703 68.224C493.893 68.2667 493.061 68.3093 492.207 68.352C491.397 68.3947 490.266 68.416 488.815 68.416C487.365 68.416 485.189 68.3733 482.287 68.288C481.605 68.3307 480.922 68.352 480.239 68.352C479.557 68.352 478.917 68.224 478.319 67.968C476.997 67.4133 476.101 66.1333 475.631 64.128C475.418 63.1893 475.183 62.528 474.927 62.144C474.629 61.76 474.394 61.3973 474.223 61.056C473.797 60.3733 473.839 59.2427 474.351 57.664C474.821 56.0853 475.439 54.144 476.207 51.84C476.975 49.4933 477.85 47.0187 478.831 44.416C481.135 38.2293 483.205 33.3227 485.039 29.696C485.765 28.0747 486.383 26.6667 486.895 25.472C487.45 24.2773 487.941 23.2533 488.367 22.4C488.794 21.504 489.007 21.0347 489.007 20.992C489.434 19.3707 491.077 18.0053 493.935 16.896C496.709 15.744 499.226 15.4453 501.487 16C504.005 16.64 505.114 18.304 504.815 20.992C504.218 23.6373 503.322 26.2827 502.127 28.928C500.975 31.5733 499.653 34.3467 498.159 37.248C496.666 40.1493 495.045 43.2213 493.295 46.464C491.546 49.7067 489.818 53.2267 488.111 57.024C488.069 57.1947 488.154 57.344 488.367 57.472C488.922 57.4293 489.69 57.2587 490.671 56.96C491.695 56.6613 492.741 56.4053 493.807 56.192C494.917 55.936 496.005 55.808 497.071 55.808C498.138 55.808 499.034 56.0853 499.759 56.64C499.717 57.408 499.909 58.0267 500.335 58.496C500.762 58.9227 501.189 59.3493 501.615 59.776C502.682 60.8853 502.767 62.3573 501.871 64.192C501.018 65.984 499.482 67.2 497.263 67.84ZM529.924 62.656L529.476 21.312C529.476 20.288 529.881 19.4133 530.692 18.688C531.545 17.92 532.505 17.3867 533.572 17.088C534.639 16.7893 535.641 16.7467 536.58 16.96C537.519 17.1733 538.116 17.728 538.372 18.624C539.183 20.2453 539.737 22.4853 540.036 25.344C540.591 30.6773 540.868 35.2853 540.868 39.168C541.295 39.8507 541.828 40.1707 542.468 40.128C544.303 35.648 546.329 31.3387 548.548 27.2C550.767 23.0613 552.196 20.416 552.836 19.264C553.476 18.0693 554.244 17.2373 555.14 16.768C556.036 16.2987 556.996 16 558.02 15.872C560.239 15.616 562.329 16 564.292 17.024C565.785 17.536 566.66 18.4107 566.916 19.648C567.897 21.6107 567.236 23.872 564.932 26.432C562.244 30.6987 559.535 35.4133 556.804 40.576C551.599 50.5173 548.292 56.64 546.884 58.944C545.476 61.248 544.452 62.8907 543.812 63.872C543.172 64.8107 542.447 65.6 541.636 66.24C540.185 67.392 538.436 67.8613 536.388 67.648C532.804 67.52 530.713 66.3893 530.116 64.256C529.988 63.6587 529.924 63.1253 529.924 62.656ZM593.197 21.376C594.648 22.144 595.565 23.2747 595.949 24.768C595.096 29.5467 594.328 34.304 593.645 39.04C592.963 43.7333 592.301 47.68 591.661 50.88C591.021 54.0373 590.573 56.4053 590.317 57.984C590.104 59.5627 589.848 61.1413 589.549 62.72L589.165 64.064C589.08 64.5333 588.995 64.96 588.909 65.344C588.824 65.7707 588.739 66.2187 588.653 66.688C587.459 68.0533 585.837 68.736 583.789 68.736C581.613 68.736 579.885 68.1813 578.605 67.072C577.837 66.4747 577.709 65.216 578.221 63.296C578.435 62.528 578.563 61.5467 578.605 60.352C578.691 59.1147 578.776 58.0907 578.861 57.28V57.152C577.581 57.6213 576.429 58.24 575.405 59.008C574.381 59.7333 573.741 60.2027 573.485 60.416C573.229 60.5867 572.888 60.736 572.461 60.864C572.035 60.9493 571.651 61.0133 571.309 61.056C570.499 61.0987 569.944 61.2267 569.645 61.44C567.171 65.8773 564.952 68.352 562.989 68.864C561.752 69.248 560.515 69.3333 559.277 69.12C558.04 68.9493 557.059 68.224 556.333 66.944C554.968 65.664 555.309 62.1653 557.357 56.448C558.467 53.4187 560.045 49.792 562.093 45.568C564.184 41.3013 566.189 37.5893 568.109 34.432C572.248 27.648 576.792 21.9307 581.741 17.28C582.552 16.9387 583.427 16.5547 584.365 16.128C585.304 15.6587 586.221 15.4027 587.117 15.36C588.056 15.3173 589.016 15.424 589.997 15.68C590.979 15.936 591.811 16.32 592.493 16.832C594.072 18.0267 594.307 19.5413 593.197 21.376ZM579.501 38.208C578.605 40.768 577.709 43.136 576.813 45.312C575.917 47.4453 575.149 49.3227 574.509 50.944L579.565 50.752C579.907 48.0213 580.291 45.312 580.717 42.624C581.144 39.936 581.549 37.248 581.933 34.56L579.501 38.208ZM577.773 51.008C578.371 51.008 578.968 50.9653 579.565 50.88V50.816C579.011 50.8587 578.499 50.9013 578.029 50.944C577.56 50.9867 577.475 51.008 577.773 51.008ZM593.645 55.744C596.12 56 597.955 56.128 599.149 56.128C600.387 56.128 602.243 55.9573 604.717 55.616C605.485 55.872 605.933 56.192 606.061 56.576C606.189 56.96 606.232 57.3653 606.189 57.792C606.147 58.176 606.168 58.56 606.253 58.944C606.339 59.328 606.744 59.648 607.469 59.904C607.853 60.032 607.96 60.416 607.789 61.056C607.661 61.6533 607.32 62.3147 606.765 63.04C605.357 64.8747 603.693 66.1547 601.773 66.88C598.701 67.648 596.291 68.096 594.541 68.224C591.64 68.4373 588.483 68.3307 585.069 67.904C581.315 67.2213 579.501 65.664 579.629 63.232C579.629 54.272 581.592 45.2693 585.517 36.224C586.797 33.28 588.248 30.1867 589.869 26.944C590.211 26.2613 590.403 25.4933 590.445 24.64C590.531 23.7867 590.595 22.9547 590.637 22.144C590.68 21.3333 590.808 20.608 591.021 19.968C591.235 19.328 591.683 18.88 592.365 18.624C601.24 15.0827 608.259 13.7173 613.421 14.528C615.213 14.5707 616.387 15.1893 616.941 16.384C617.539 17.536 617.603 18.8373 617.133 20.288C616.707 21.7387 615.832 23.104 614.509 24.384C613.229 25.664 611.608 26.4533 609.645 26.752C607.128 27.4773 605.592 27.968 605.037 28.224C603.971 28.736 603.203 29.4187 602.733 30.272C602.136 31.2107 601.581 32.1067 601.069 32.96C600.557 33.8133 600.195 34.7307 599.981 35.712L599.725 37.12C600.536 37.504 601.517 37.632 602.669 37.504C603.864 37.3333 604.952 37.184 605.933 37.056C606.957 36.8853 607.768 36.864 608.365 36.992C609.005 37.12 609.133 37.76 608.749 38.912C608.408 40.0213 607.747 41.28 606.765 42.688C605.827 44.096 604.483 45.12 602.733 45.76C601.624 45.9733 600.856 46.144 600.429 46.272C600.045 46.3573 599.747 46.4213 599.533 46.464C599.235 46.5067 598.381 46.5707 596.973 46.656C594.968 50.0693 593.752 52.7147 593.325 54.592C593.155 55.36 593.261 55.744 593.645 55.744ZM634.076 67.84C633.18 68.096 632.327 68.224 631.516 68.224C630.705 68.2667 629.873 68.3093 629.02 68.352C628.209 68.3947 627.079 68.416 625.628 68.416C624.177 68.416 622.001 68.3733 619.1 68.288C618.417 68.3307 617.735 68.352 617.052 68.352C616.369 68.352 615.729 68.224 615.132 67.968C613.809 67.4133 612.913 66.1333 612.444 64.128C612.231 63.1893 611.996 62.528 611.74 62.144C611.441 61.76 611.207 61.3973 611.036 61.056C610.609 60.3733 610.652 59.2427 611.164 57.664C611.633 56.0853 612.252 54.144 613.02 51.84C613.788 49.4933 614.663 47.0187 615.644 44.416C617.948 38.2293 620.017 33.3227 621.852 29.696C622.577 28.0747 623.196 26.6667 623.708 25.472C624.263 24.2773 624.753 23.2533 625.18 22.4C625.607 21.504 625.82 21.0347 625.82 20.992C626.247 19.3707 627.889 18.0053 630.748 16.896C633.521 15.744 636.039 15.4453 638.3 16C640.817 16.64 641.927 18.304 641.628 20.992C641.031 23.6373 640.135 26.2827 638.94 28.928C637.788 31.5733 636.465 34.3467 634.972 37.248C633.479 40.1493 631.857 43.2213 630.108 46.464C628.359 49.7067 626.631 53.2267 624.924 57.024C624.881 57.1947 624.967 57.344 625.18 57.472C625.735 57.4293 626.503 57.2587 627.484 56.96C628.508 56.6613 629.553 56.4053 630.62 56.192C631.729 55.936 632.817 55.808 633.884 55.808C634.951 55.808 635.847 56.0853 636.572 56.64C636.529 57.408 636.721 58.0267 637.148 58.496C637.575 58.9227 638.001 59.3493 638.428 59.776C639.495 60.8853 639.58 62.3573 638.684 64.192C637.831 65.984 636.295 67.2 634.076 67.84ZM667.151 16.448C673.295 15.2107 678.074 15.9787 681.487 18.752C683.108 20.0747 684.175 21.9947 684.687 24.512C685.242 27.0293 684.964 29.8453 683.855 32.96C683.386 34.4107 682.575 35.4987 681.423 36.224C680.271 36.9493 679.076 37.376 677.839 37.504C676.644 37.5893 675.556 37.44 674.575 37.056C673.594 36.6293 673.06 36.032 672.975 35.264L672.399 33.984C671.375 32.448 669.604 32.256 667.087 33.408C664.911 34.3893 662.735 36.096 660.559 38.528C658.255 41.1307 656.762 43.4773 656.079 45.568C655.311 47.872 654.927 49.3867 654.927 50.112C654.842 51.7333 655.418 53.184 656.655 54.464C658.447 55.616 660.239 56.1493 662.031 56.064C663.823 55.936 665.423 55.5307 666.831 54.848C668.239 54.1227 669.391 53.312 670.287 52.416C671.183 51.52 671.631 50.88 671.631 50.496C671.759 50.24 671.887 49.984 672.015 49.728C672.143 49.472 672.25 49.216 672.335 48.96C672.164 48.96 672.207 48.96 672.463 48.96C672.719 48.9173 672.783 48.9173 672.655 48.96C672.527 48.96 672.591 48.9813 672.847 49.024L673.231 49.152C671.14 51.0293 669.114 51.4133 667.151 50.304C666.383 49.8347 665.7 49.344 665.103 48.832C664.506 48.2773 663.951 48.0213 663.439 48.064C662.5 47.552 662.287 46.5493 662.799 45.056C663.012 44.4587 663.396 43.904 663.951 43.392C664.548 42.8373 665.295 42.4533 666.191 42.24C670.458 40.4053 674.404 39.9787 678.031 40.96C679.652 41.3867 680.762 42.2613 681.359 43.584C681.999 44.864 682.276 46.3147 682.191 47.936C682.106 49.5573 681.743 51.2 681.103 52.864C680.506 54.528 679.844 55.872 679.119 56.896C678.394 57.8773 677.37 59.0507 676.047 60.416C674.767 61.7813 673.146 63.104 671.183 64.384C666.362 67.4987 661.199 68.992 655.695 68.864C647.716 68.736 643.002 65.472 641.551 59.072C641.082 57.024 640.868 54.72 640.911 52.16C641.338 44.736 643.556 37.8027 647.567 31.36C649.487 28.288 652.068 25.2587 655.311 22.272C657.359 20.4373 659.663 19.0293 662.223 18.048C663.588 17.4933 665.231 16.96 667.151 16.448ZM697.082 56.704C699.557 56.96 701.391 57.088 702.586 57.088C703.823 57.088 705.679 56.9173 708.154 56.576C708.922 56.832 709.37 57.152 709.498 57.536C709.626 57.92 709.669 58.3253 709.626 58.752C709.583 59.136 709.605 59.52 709.69 59.904C709.775 60.288 710.181 60.608 710.906 60.864C711.29 60.992 711.397 61.376 711.226 62.016C711.098 62.6133 710.757 63.2747 710.202 64C708.794 65.8347 707.13 67.1147 705.21 67.84C702.138 68.608 699.727 69.056 697.978 69.184C695.077 69.3973 691.919 69.2907 688.506 68.864C684.751 68.1813 682.938 66.624 683.066 64.192C683.066 55.232 685.029 46.2293 688.954 37.184C690.234 34.24 691.685 31.1467 693.306 27.904C693.647 27.2213 693.839 26.4533 693.882 25.6C693.967 24.7467 694.031 23.9147 694.074 23.104C694.117 22.2933 694.245 21.568 694.458 20.928C694.671 20.288 695.119 19.84 695.802 19.584C704.677 16.0427 711.695 14.6773 716.858 15.488C718.65 15.5307 719.823 16.1493 720.378 17.344C720.975 18.496 721.039 19.7973 720.57 21.248C720.143 22.6987 719.269 24.064 717.946 25.344C716.666 26.624 715.045 27.4133 713.082 27.712C710.565 28.4373 709.029 28.928 708.474 29.184C707.407 29.696 706.639 30.3787 706.17 31.232C705.573 32.1707 705.018 33.0667 704.506 33.92C703.994 34.7733 703.631 35.6907 703.418 36.672L703.162 38.08C703.973 38.464 704.954 38.592 706.106 38.464C707.301 38.2933 708.389 38.144 709.37 38.016C710.394 37.8453 711.205 37.824 711.802 37.952C712.442 38.08 712.57 38.72 712.186 39.872C711.845 40.9813 711.183 42.24 710.202 43.648C709.263 45.056 707.919 46.08 706.17 46.72C705.061 46.9333 704.293 47.104 703.866 47.232C703.482 47.3173 703.183 47.3813 702.97 47.424C702.671 47.4667 701.818 47.5307 700.41 47.616C698.405 51.0293 697.189 53.6747 696.762 55.552C696.591 56.32 696.698 56.704 697.082 56.704ZM751.414 50.816L748.342 58.624C747.915 59.8187 747.531 61.056 747.19 62.336C746.849 63.616 746.486 64.7253 746.102 65.664C745.718 66.6453 745.121 67.4133 744.31 67.968C743.542 68.5227 742.667 68.928 741.686 69.184C740.705 69.4827 739.681 69.6107 738.614 69.568C737.59 69.5253 736.673 69.3333 735.862 68.992C734.027 68.1387 733.387 66.7307 733.942 64.768C735.905 56.1493 737.739 49.2373 739.446 44.032C741.195 38.8267 742.625 34.7307 743.734 31.744C744.886 28.7573 746.081 25.6 747.318 22.272C747.446 21.0347 747.958 19.9253 748.854 18.944C749.75 17.9627 750.795 17.152 751.99 16.512C753.227 15.872 754.507 15.424 755.83 15.168C757.153 14.8693 758.326 14.8267 759.35 15.04C760.374 15.2533 761.121 15.7227 761.59 16.448C762.102 17.1733 762.145 18.2187 761.718 19.584C760.182 23.5093 759.094 26.2827 758.454 27.904C757.814 29.5253 757.238 30.976 756.726 32.256L754.934 36.48C755.83 36.5227 756.961 36.3947 758.326 36.096C760.801 35.5413 762.593 35.3493 763.702 35.52C763.702 35.3067 763.809 34.944 764.022 34.432C765.217 29.2267 766.561 24.448 768.054 20.096C769.121 16.512 771.873 14.6347 776.31 14.464C778.059 14.464 779.382 14.8907 780.278 15.744C781.259 16.64 781.387 17.856 780.662 19.392C776.737 30.4 773.963 39.0827 772.342 45.44C770.507 52.7787 769.291 57.728 768.694 60.288C768.139 62.848 767.649 64.3627 767.222 64.832C766.795 65.3013 766.347 65.6213 765.878 65.792C765.451 66.0053 765.025 66.1973 764.598 66.368C764.171 66.5387 763.83 66.9653 763.574 67.648H763.382C763.041 68.416 762.294 69.0133 761.142 69.44C759.99 69.8667 758.817 70.016 757.622 69.888C756.47 69.8027 755.489 69.376 754.678 68.608C753.91 67.8827 753.718 66.752 754.102 65.216C754.529 62.784 755.233 60.1813 756.214 57.408C757.195 54.592 757.963 52.3947 758.518 50.816C759.115 49.2373 759.606 47.7653 759.99 46.4C759.649 46.5707 759.307 46.6987 758.966 46.784C758.667 46.8693 758.283 47.04 757.814 47.296C757.345 47.5093 756.854 47.7013 756.342 47.872C755.873 48.0427 755.403 48.2133 754.934 48.384C753.739 48.8533 752.758 49.3227 751.99 49.792L751.414 50.816ZM758.646 46.528C758.689 46.528 758.902 46.464 759.286 46.336C759.03 46.4213 758.817 46.4853 758.646 46.528ZM795.695 18.432V18.56C795.695 18.6027 795.695 18.624 795.695 18.624C795.738 18.624 795.759 18.6453 795.759 18.688V18.816H795.823L796.207 19.84C796.634 21.0773 795.524 24.9173 792.879 31.36C790.063 38.2293 788.762 43.584 788.975 47.424C789.444 50.1547 791.727 47.9573 795.823 40.832C799.066 35.2853 802.202 29.2053 805.231 22.592C805.615 21.696 806.02 20.7787 806.447 19.84C806.874 18.8587 807.407 18.048 808.047 17.408C809.455 15.872 811.162 15.4667 813.167 16.192C813.85 15.3813 814.639 14.8267 815.535 14.528C816.474 14.2293 817.348 14.1653 818.159 14.336C819.012 14.5067 819.738 14.912 820.335 15.552C820.932 16.1493 821.252 16.96 821.295 17.984C821.423 18.8373 820.975 20.864 819.951 24.064C818.97 27.264 818.052 30.1867 817.199 32.832C816.346 35.4773 815.471 38.3573 814.575 41.472C812.399 48.8533 810.671 55.808 809.391 62.336C809.348 63.7013 808.751 64.832 807.599 65.728C806.49 66.624 805.231 67.2 803.823 67.456C802.458 67.7547 801.156 67.712 799.919 67.328C798.426 66.9013 797.636 65.8347 797.551 64.128C797.551 63.6587 797.53 63.1893 797.487 62.72C797.572 64.1707 796.527 65.408 794.351 66.432C793.754 66.7307 793.199 67.008 792.687 67.264C789.7 68.16 786.564 67.968 783.279 66.688C781.743 66.048 780.356 65.1947 779.119 64.128C777.924 63.0187 777.092 61.7173 776.623 60.224C775.13 55.4453 775.407 49.1733 777.455 41.408C778.308 38.08 779.354 34.8373 780.591 31.68C781.828 28.5227 782.724 26.24 783.279 24.832C783.876 23.424 784.303 22.464 784.559 21.952C784.815 21.3973 785.092 20.864 785.391 20.352C786.116 18.9013 786.735 17.92 787.247 17.408L788.015 16.704C788.1 16.6187 788.186 16.576 788.271 16.576C788.356 16.5333 788.463 16.4693 788.591 16.384C788.932 16.1707 789.295 16.0213 789.679 15.936L790.575 15.744H790.959C792.196 15.5733 793.263 15.8293 794.159 16.512C794.159 16.5547 794.202 16.576 794.287 16.576L794.799 17.024L794.991 17.216L795.183 17.472C795.183 17.5147 795.183 17.536 795.183 17.536C795.226 17.536 795.247 17.5573 795.247 17.6L795.311 17.664V17.792C795.354 17.792 795.375 17.8133 795.375 17.856V17.92C795.418 17.9627 795.46 17.984 795.503 17.984V18.048C795.503 18.0907 795.503 18.112 795.503 18.112C795.546 18.112 795.567 18.1333 795.567 18.176C795.567 18.176 795.588 18.1973 795.631 18.24V18.304C795.631 18.3467 795.652 18.3893 795.695 18.432ZM797.423 61.056V60.864C797.38 60.9067 797.359 61.0773 797.359 61.376C797.359 61.248 797.38 61.1627 797.423 61.12V61.056ZM821.907 39.936C822.761 37.0773 823.443 34.88 823.955 33.344C824.51 31.7653 825.043 30.3573 825.555 29.12C826.067 27.8827 826.643 26.688 827.283 25.536C827.966 24.384 828.691 23.3387 829.459 22.4C830.27 21.4187 831.123 20.6507 832.019 20.096C832.915 19.5413 833.854 19.264 834.835 19.264C835.817 19.264 836.841 19.648 837.907 20.416C839.614 24.6827 840.659 27.5413 841.043 28.992C841.555 31.1253 842.025 34.1333 842.451 38.016C842.835 37.0347 843.262 36.0107 843.731 34.944C844.243 33.8347 844.734 32.7253 845.203 31.616C846.526 28.8 847.358 26.6667 847.699 25.216C848.638 22.2293 850.579 19.9893 853.523 18.496C856.083 17.216 858.473 16.8107 860.691 17.28C861.587 17.4507 862.206 17.8133 862.547 18.368C862.931 18.9227 862.931 19.4987 862.547 20.096C862.206 20.6933 862.078 21.2693 862.163 21.824C862.291 22.336 862.398 22.9547 862.483 23.68C862.611 25.6427 862.27 27.392 861.459 28.928C860.649 30.4213 859.817 32.2987 858.963 34.56C858.11 36.7787 857.235 39.1467 856.339 41.664C855.486 44.1813 854.611 46.7413 853.715 49.344C852.819 51.9467 851.945 54.3147 851.091 56.448C849.214 61.3547 847.678 64.064 846.483 64.576C844.862 65.5573 843.667 66.1333 842.899 66.304C841.918 66.4747 840.531 66.4747 838.739 66.304C837.63 66.2187 836.67 64.7893 835.859 62.016C835.39 60.5227 834.963 58.4533 834.579 55.808C833.897 51.2 833.427 48.6613 833.171 48.192C831.465 53.7387 830.249 57.2373 829.523 58.688C828.841 60.1387 828.307 61.0987 827.923 61.568C827.582 62.0373 827.155 62.656 826.643 63.424C826.089 64.96 824.766 66.0907 822.675 66.816C820.883 67.4987 819.262 67.6053 817.811 67.136C816.233 66.624 815.763 65.6427 816.403 64.192C816.873 59.072 818.707 50.9867 821.907 39.936ZM897.996 30.144C898.508 34.496 895.329 39.1253 888.46 44.032C886.668 45.312 884.983 46.4853 883.404 47.552C881.825 48.6187 880.46 49.6 879.308 50.496C878.199 51.3493 877.58 52.096 877.452 52.736C877.367 53.76 876.876 54.6133 875.98 55.296C875.084 55.9787 874.081 56.4693 872.972 56.768C871.863 57.024 870.753 57.1093 869.644 57.024C868.535 56.9387 867.724 56.64 867.212 56.128C866.017 53.568 866.7 50.496 869.26 46.912C870.412 45.3333 871.756 43.7547 873.292 42.176C874.828 40.5547 876.321 38.9973 877.772 37.504C879.265 35.968 880.588 34.5173 881.74 33.152C883.063 31.5307 883.873 30.0373 884.172 28.672H883.98C883.681 28.928 883.383 29.248 883.084 29.632C882.828 29.9733 882.252 30.3787 881.356 30.848C880.46 31.3173 879.649 31.7013 878.924 32C878.241 32.2987 877.58 32.5973 876.94 32.896C876.343 33.152 875.959 33.3227 875.788 33.408C875.66 33.4933 875.511 33.5787 875.34 33.664C875.212 33.7493 875.02 33.8347 874.764 33.92L873.74 34.304C870.028 35.2 867.383 34.688 865.804 32.768C865.249 32.0853 864.737 31.1467 864.268 29.952C863.799 28.2453 864.268 26.24 865.676 23.936C866.871 21.9307 868.364 20.416 870.156 19.392C871.948 18.3253 874.188 17.4507 876.876 16.768C879.607 16.0427 882.295 15.68 884.94 15.68C887.585 15.68 890.017 16.0853 892.236 16.896C894.455 17.7067 896.119 19.008 897.228 20.8C897.655 21.6107 897.783 22.4853 897.612 23.424C897.441 24.3627 897.271 25.1093 897.1 25.664C896.972 26.176 896.908 26.6453 896.908 27.072C896.951 27.4987 897.121 27.9893 897.42 28.544C897.719 29.056 897.911 29.5893 897.996 30.144ZM873.548 65.792C872.652 67.584 871.479 68.8853 870.028 69.696C868.577 70.5493 867.169 70.976 865.804 70.976C864.481 71.0187 863.372 70.656 862.476 69.888C861.58 69.12 861.217 67.9893 861.388 66.496C861.473 64.4053 862.519 62.976 864.524 62.208C867.084 61.184 869.495 61.184 871.756 62.208C873.847 63.1467 874.444 64.3413 873.548 65.792Z" fill="#2D372D"/>
</svg>
