<?xml version="1.0" encoding="UTF-8"?>
<svg id="Layer_2" xmlns="http://www.w3.org/2000/svg" viewBox="0 0 474.28 56.2">
  <g id="Layer_1-2" data-name="Layer_1">
    <path d="M1.04,26.5c10.95,11.18,26.09,17.87,41.89,16.89s29.48-8.35,40.02-19.79l-8.17-.89c.2,18.21,20.78,25.38,36.03,21.37,17.63-4.64,31.22-20.42,34.53-38.12l-9.91,7c7.46,14.45,21.63,24.94,37.7,27.65,16.73,2.81,34.21-3.41,46.37-14.98l-6.68-.75c2.66,12.28,13.71,22.51,26.6,22.54,13.92.04,25.29-9.75,30.56-22.08l-9.41,5.22c18.01,21.39,52.08,22.55,72.5,3.96l-5.22,1.27c18.15,13.97,43.48,12.62,61.54-.61l-6.12.44c11.56,16.23,32.96,24.36,52.31,18.9,19.69-5.55,34.48-23.2,38.56-42.94.59-2.85-.66-6-3.99-5.41s-5.9,5.03-6.53,8.08c-2.99,14.48-15.29,25.25-29.7,27.73-15.76,2.71-32.2-4.86-41.35-17.7-1.63-2.28-4.44-.79-6.12.44-15.04,11.02-36.73,9.11-51.1-1.94-1.53-1.18-4.09.24-5.22,1.27-16.84,15.34-45.8,12.32-60.25-4.84-3.42-4.07-8.19,2.38-9.41,5.22-3.15,7.38-12.67,10.26-20.01,8.85-8.69-1.66-15.39-8.9-17.23-17.37-.73-3.38-4.82-2.52-6.68-.75-22.32,21.24-58.09,13.07-71.83-13.55-2.83-5.49-9.45,4.54-9.91,7-2.14,11.43-11.64,19.84-22.82,22.29-9.65,2.12-26.27-1.85-26.4-14.22-.06-5.79-5.68-3.6-8.17-.89-17.8,19.34-49.24,17.58-67.08-.63C5.53,10.26-2.96,22.42,1.04,26.5h0Z" fill="#3c473c"/>
  </g>
</svg>