<?xml version="1.0" encoding="UTF-8"?>
<svg id="Layer_2" xmlns="http://www.w3.org/2000/svg" viewBox="0 0 477.42 46.77">
  <g id="Layer_1-2" data-name="Layer_1">
    <path d="M1.04,29.2c6.71,6.85,15.62,17.02,26.38,15.17,10.95-1.89,19.57-13.46,26.55-21.08l-7.97.58c3.65,18.73,22.15,23.87,38.74,19.15,18.03-5.13,34.04-19.76,35.67-39.12l-10.06,8.67c16.62,32.32,63.76,36.46,89.14,12.56l-6.68-.75c2.35,10.29,10.37,18.35,20.43,21.32,7.47,2.2,15.26.63,22.66-1.18,14.82-3.64,35.59-9.48,42.67-24.49l-9.41,5.22c11.9,13.04,35.51,2.48,48.88-2.5,7.11-2.65,14.88-6.65,22.53-7.36-.89.08,2.28.16,1.65.07.01,0,0,.1-.24-.59-.13-.38-.08-.55.02-.78.37-.85-.52,1.4-.63,1.74-.91,2.69-1.73,5.44-2.08,8.27-2.74,22.3,26.28,12.97,38.38,10.37,7.64-1.64,17.65-4.58,25.36-1.78,3.93,1.43,6.98,4.18,11.23,5.01,3.46.68,7,.03,10.14-1.53s5.84-4,8.34-6.48c1.17-1.17,2.32-2.37,3.52-3.5.72-.68,1.46-1.33,2.22-1.96,1.11-.91.33-.34,1.05-.79,8.86-5.57,20.43,1.06,28.63,6.5,5.02,3.33,12.71-9.54,7.5-12.99-8.46-5.6-19.11-11.44-29.63-8.78-6.99,1.77-11.88,6.83-16.85,11.68-.99.97-1.99,1.92-3.07,2.79-.16.13-1.56,1.03-1.73,1.09-2.55.92-4.98.53-7.8-.76-3.86-1.77-6.85-4-11.19-4.64s-8.83-.16-13.13.42c-9.72,1.3-19.15,4.14-28.83,5.66-3.37.53-7.34,1.17-10.69.17-2.23-.66-2.86-1.79-2.87-3.44,0-4.54,6.72-14.71-.17-18.64-4.97-2.83-13.1.87-17.84,2.55-10.02,3.56-19.84,7.76-30.15,10.43-6.77,1.76-17.74,4.47-23.26-1.58-3.61-3.96-8.03,2.3-9.41,5.22.16-.33,1.14-1.69.49-1.17-.87.7.77-.49-.27.21-.85.58-1.61,1.27-2.48,1.84-2.8,1.82-5.89,3.27-8.95,4.6-6.58,2.86-13.53,5.02-20.5,6.66-5.28,1.24-10.83,2.5-16.24,1.38-8.69-1.79-15.92-8.61-17.89-17.24-.77-3.37-4.79-2.53-6.68-.75-22.37,21.08-62.91,13.73-76.89-13.44-1.25-2.43-4.75-.69-6.12.44-2.47,2.03-3.67,5.13-3.93,8.22-.87,10.32-14.44,18-25.04,20.31-12.68,2.77-25.46-1.47-28.15-15.29-.93-4.77-6.32-1.22-7.97.58-3.5,3.82-6.96,7.72-10.88,11.13-2.14,1.86-4.65,3.99-7.6,4.26-7.54.68-15.02-8.32-19.62-13.01S-2.96,25.12,1.04,29.2h0Z" fill="#3c473c"/>
  </g>
</svg>