<?xml version="1.0" encoding="UTF-8"?>
<svg id="Layer_2" xmlns="http://www.w3.org/2000/svg" viewBox="0 0 475.04 55.12">
  <g id="Layer_1-2" data-name="Layer_1">
    <path d="M463.7,12.71c.87,1.24.7.79.17,1.8-.61,1.16-2.44,3.53-4.04,5.19-4.74,4.93-10.57,9.01-16.67,12.06-15.25,7.61-34.11-1.53-44.62-13.32-4.48-5.03-9.96,5.03-10.06,8.67-.12,4.46-5.69,6.66-9.37,7.68-5.77,1.59-12.09.83-17.6-1.41-11.54-4.71-20.01-14.8-22.11-27.11-.97-5.68-7.87-.11-9.1,2.22-6.04,11.46-15.8,24.94-29.35,27.64-15.11,3.01-30.35-9.27-40.25-19.2-4.21-4.22-9.08,3.43-9.91,7-1.7,7.26-9.43,11.65-16.55,11.57-8.63-.09-16.97-5.63-20.25-13.64-1.71-4.17-5.78-1.91-7.97.58-15.11,17.24-45.87,6.62-59.84-6.62-2.02-1.92-4.11-1.08-6.12.44-13.98,10.57-34.7,18.29-50.29,6.67-2.03-1.51-5.39,1.08-6.51,2.6-9.59,13.01-26.93,18.66-42.5,14.45S13.51,22.16,10.56,6.61c-.67-3.54-4.77-2.29-6.68-.75C1.12,8.09-.52,12.06.15,15.55c3.55,18.68,18.24,34.25,36.84,38.48,19.42,4.41,40.23-5.02,51.8-20.72l-6.51,2.6c18.88,14.07,44.19,3.3,60.74-9.22l-6.12.44c20.05,19.01,54.68,25.88,74.66,3.08l-7.97.58c5.06,12.37,17.55,20.31,31.03,17.98s23.67-14.58,26.69-27.52l-9.91,7c12.22,12.24,29.87,25.84,48.34,21.05,17.3-4.49,30.42-21.24,38.36-36.32l-9.1,2.22c2.9,17.02,17.12,31.12,34.22,33.77,17.27,2.68,35.59-9.67,36.07-27.87l-10.06,8.67c8.55,9.6,19.88,16.08,32.63,18.13,9.33,1.5,17.28-1.12,25.31-5.85s15.9-10.99,21.52-18.57c4.35-5.87,9.17-15.15,4.32-22.1-3.78-5.4-12.66,6.52-9.3,11.33h0Z" fill="#3c473c"/>
  </g>
</svg>