<svg width="438" height="438" viewBox="0 0 438 438" fill="none" xmlns="http://www.w3.org/2000/svg">
<circle cx="219" cy="219" r="219" fill="#F5F0E8"/>
<g clip-path="url(#clip0_964_1002)">
<path d="M281.116 263.168C270.417 283.928 282.762 304.696 305.044 304.323C324.262 303.999 339.442 295.781 349.455 278.958C357.393 265.26 361.131 250.864 356.842 235.217C354.488 226.63 348.696 222.053 340.71 222.983C313.999 226.097 293.464 239.21 281.114 263.167L281.116 263.168Z" fill="#780E08"/>
<path d="M188.672 201.226C176.699 207.4 163.985 211.685 151.453 216.504C136.418 222.284 120.368 224.891 105.816 232.137C85.509 242.248 75.9348 267.015 84.2873 288.091C91.245 305.653 106.15 313.182 122.553 317.86C140.615 323.012 155.938 332.749 171.152 343.052C177.277 347.198 181.747 353.419 188.878 356.813C194.064 360.845 200.933 361.783 207.095 364.416C224.812 371.985 248.177 363.032 255.878 345.248C260.556 334.443 262.579 322.796 259.807 311.089C253.153 282.97 247.759 254.607 242.204 226.259C237.437 201.928 210.753 189.84 188.677 201.223L188.672 201.226Z" fill="#780E08"/>
<path d="M272.33 221.516C285.528 226.329 298.34 222.737 309.388 215.262C335.163 197.825 344.226 160.735 330.218 133.244C322.76 118.605 311.124 115.608 297.766 125.013C283.271 135.223 272.477 148.882 262.458 163.198C259.224 167.917 257.371 173.217 255.58 178.526C249.374 196.919 256.327 215.677 272.337 221.514L272.33 221.516Z" fill="#780E08"/>
<path d="M215.747 178.377C230.576 173.808 239.846 163.239 247.175 150.843C254.624 138.239 258.678 124.093 260.321 109.569C262.953 86.3092 255.312 74.4224 229.859 80.6563C210.66 85.3567 194.776 96.2342 182.339 118.488C176.697 128.109 174.488 137.118 177.618 152.712C181.214 170.625 196.072 184.438 215.749 178.378L215.747 178.377Z" fill="#780E08"/>
<path d="M105.55 191.912C112.013 200.585 123.166 203.976 133.07 199.944C145.469 194.897 152.898 185.915 156.452 172.62C161.155 155.034 162.02 137.789 156.576 120.41C152.29 106.727 144.566 103.324 131.469 108.813C119.057 114.02 109.276 122.065 104.859 131.287C91.7432 154.014 91.6484 173.258 105.55 191.912Z" fill="#780E08"/>
</g>
<defs>
<clipPath id="clip0_964_1002">
<rect width="285.753" height="272.469" fill="white" transform="translate(163.235 30) rotate(30)"/>
</clipPath>
</defs>
</svg>
