<svg width="395" height="113" viewBox="0 0 395 113" fill="none" xmlns="http://www.w3.org/2000/svg">
<path d="M313.852 0C314.986 0.32299 316.146 0.577656 317.251 0.980358C322.685 2.95867 326.041 7.71036 326.034 13.3451C326.032 14.9725 325.651 15.3897 324.056 15.4093C322.352 15.43 320.646 15.3948 318.941 15.4197C317.719 15.4373 317.042 14.9197 317.081 13.6557C317.149 11.4009 316.167 9.76839 314.062 9.00957C311.759 8.17932 309.455 8.2611 307.493 9.92471C305.712 11.4351 305.771 13.9786 307.523 15.5232C308.508 16.3918 309.697 16.8535 310.962 17.1226C313.42 17.6454 315.857 18.2314 318.188 19.1951C324.362 21.747 327.445 26.4459 326.847 32.3912C326.201 38.8147 322.068 43.3904 315.645 44.6286C310.328 45.6534 305.33 44.964 301.102 41.2775C297.628 38.2505 296.417 34.2784 296.639 29.7824C296.688 28.7668 297.175 28.2068 298.24 28.212C300.135 28.2213 302.028 28.2182 303.923 28.212C305.043 28.2089 305.575 28.7731 305.574 29.8756C305.574 30.3963 305.589 30.918 305.577 31.4388C305.564 32.0661 305.694 32.6634 305.927 33.2401C306.793 35.3964 309.153 36.5818 312.209 36.4027C314.937 36.2422 316.98 34.7608 317.574 32.5123C318.069 30.6396 317.417 29.0049 315.758 28.0028C314.272 27.1053 312.589 26.7709 310.936 26.362C308.495 25.7585 306.123 24.9997 303.851 23.8795C294.554 19.2945 295.592 6.85733 303.355 2.23195C305.219 1.12011 307.25 0.551775 309.304 0C310.82 0 312.336 0 313.852 0Z" fill="#FD5141"/>
<path d="M241.16 25.421C241.497 24.805 241.372 24.2781 241.373 23.775C241.383 16.9073 241.377 10.0407 241.381 3.17298C241.382 0.912045 241.635 0.666697 243.922 0.662556C245.437 0.65945 246.952 0.669803 248.468 0.662556C249.61 0.656345 250.219 1.11598 250.217 2.35411C250.201 15.8048 250.203 29.2544 250.213 42.7051C250.213 43.8221 249.733 44.3718 248.595 44.3636C246.369 44.348 244.143 44.3232 241.919 44.3749C240.677 44.4039 240.035 43.8252 239.606 42.7134C237.073 36.1294 234.507 29.5588 231.932 22.9913C231.738 22.4955 231.713 21.8733 231.125 21.5431C230.677 22.0482 230.878 22.6404 230.877 23.1715C230.861 29.4708 230.87 35.7691 230.864 42.0685C230.862 44.113 230.609 44.3563 228.572 44.3615C227.104 44.3656 225.636 44.3677 224.169 44.3615C222.309 44.3532 222.037 44.0892 222.035 42.2103C222.03 30.6075 222.032 19.0036 222.032 7.40084C222.032 5.93289 222.029 4.46494 222.033 2.99595C222.04 0.948278 222.306 0.671873 224.3 0.664627C226.146 0.65738 227.997 0.735022 229.839 0.640816C231.357 0.56421 232.163 1.15739 232.673 2.59532C235.167 9.64728 237.735 16.6723 240.289 23.7025C240.494 24.2647 240.565 24.9044 241.16 25.421Z" fill="#FD5141"/>
<path d="M155.551 35.5258C155.551 37.8468 155.524 40.1688 155.56 42.4898C155.58 43.7983 155.057 44.4143 153.704 44.3729C152.048 44.3211 150.389 44.3698 148.731 44.3584C147.089 44.347 146.711 43.995 146.704 42.3583C146.686 38.1418 146.696 33.9254 146.696 29.7089C146.696 20.8494 146.694 11.99 146.697 3.13052C146.697 0.931703 146.963 0.66565 149.14 0.66358C153.309 0.659439 157.476 0.640805 161.645 0.66772C170.238 0.722587 176.407 8.36566 174.646 16.7427C173.939 20.1113 171.85 22.511 169.111 24.3609C167.823 25.2305 167.656 26.0276 168.279 27.4159C170.411 32.1686 172.427 36.9731 174.47 41.7662C175.324 43.7704 174.929 44.3511 172.766 44.3604C171.298 44.3667 169.829 44.3625 168.361 44.3615C165.795 44.3615 165.742 44.3325 164.78 42.0188C162.908 37.5145 161.048 33.0051 159.174 28.5008C158.906 27.8569 158.721 27.1498 157.859 26.9738C156.071 26.6074 155.553 27.008 155.549 28.8455C155.546 31.0723 155.549 33.2991 155.548 35.5258H155.551ZM155.557 13.8575C155.557 14.899 155.571 15.9404 155.552 16.9808C155.537 17.752 155.885 18.1216 156.654 18.1164C158.499 18.103 160.352 18.1993 162.186 18.0574C164.479 17.8804 166.113 15.9756 166.084 13.7602C166.055 11.55 164.357 9.68246 162.084 9.54374C160.293 9.43504 158.49 9.52407 156.692 9.50337C155.832 9.49302 155.522 9.91228 155.546 10.7343C155.578 11.7747 155.555 12.8161 155.557 13.8575Z" fill="#FD5141"/>
<path d="M71.1372 22.5368C71.1372 15.9984 71.1341 9.46092 71.1393 2.92243C71.1414 1.01762 71.4813 0.670818 73.3616 0.665642C77.1037 0.65529 80.8499 0.7702 84.5868 0.640797C93.348 0.33644 98.4962 6.94636 99.4829 13.7995C100.318 19.5978 100.309 25.4231 99.4891 31.2224C98.4993 38.2278 93.1145 44.7725 84.6127 44.3894C80.8778 44.2217 77.1295 44.3646 73.3874 44.3594C71.4575 44.3563 71.1403 44.0519 71.1383 42.1502C71.1321 35.6117 71.1362 29.0743 71.1352 22.5358L71.1372 22.5368ZM79.9934 22.5544C79.9934 26.39 80.0172 30.2265 79.9779 34.061C79.9666 35.1459 80.3282 35.6231 81.4574 35.5652C82.7323 35.4989 84.0134 35.5662 85.2915 35.5465C88.0479 35.5041 90.0584 34.0092 90.5079 31.2648C91.4563 25.48 91.447 19.6537 90.5275 13.8668C90.0801 11.0458 88.0655 9.53959 85.2326 9.50543C84.0021 9.49094 82.7675 9.55719 81.5401 9.4868C80.3664 9.41951 79.9562 9.87087 79.9717 11.0469C80.0234 14.8814 79.9914 18.7179 79.9924 22.5534L79.9934 22.5544Z" fill="#FD5141"/>
<path d="M185.495 22.5079C185.495 16.0191 185.49 9.53031 185.497 3.04151C185.499 0.933794 185.772 0.664635 187.871 0.6636C194.738 0.659459 201.604 0.658424 208.47 0.6636C210.492 0.664635 210.781 0.955533 210.791 2.95041C210.798 4.5136 210.764 6.07679 210.798 7.63895C210.827 8.97128 210.2 9.51374 208.897 9.5065C204.588 9.48372 200.278 9.53652 195.97 9.47751C194.735 9.46095 194.274 9.84708 194.332 11.0997C194.414 12.8958 194.407 14.7002 194.334 16.4974C194.284 17.7169 194.694 18.1672 195.956 18.1475C200.027 18.0844 204.1 18.1175 208.173 18.1289C209.983 18.1341 210.307 18.4695 210.321 20.3029C210.332 21.8184 210.335 23.334 210.321 24.8496C210.304 26.5629 209.929 26.9438 208.228 26.948C204.108 26.9583 199.988 26.9894 195.87 26.9293C194.665 26.9117 194.295 27.3486 194.337 28.4977C194.403 30.3425 194.407 32.1935 194.337 34.0382C194.291 35.2339 194.77 35.5828 195.918 35.5704C200.227 35.5217 204.537 35.5455 208.846 35.5548C210.728 35.559 210.988 35.8271 210.996 37.6833C211.004 39.3407 210.975 40.9991 211.004 42.6565C211.024 43.8522 210.491 44.3718 209.292 44.3687C201.952 44.3511 194.612 44.3677 187.272 44.3532C185.837 44.3501 185.504 43.9464 185.501 42.2579C185.491 35.6749 185.497 29.0909 185.496 22.5079H185.495Z" fill="#FD5141"/>
<path d="M262.403 22.512C262.403 16.0212 262.4 9.53135 262.404 3.04049C262.407 0.99178 262.736 0.665684 264.809 0.664649C271.677 0.659473 278.545 0.659473 285.414 0.664649C287.445 0.665684 287.725 0.949336 287.731 2.94939C287.736 4.51258 287.698 6.07681 287.742 7.63896C287.779 8.98683 287.136 9.51168 285.844 9.50547C281.581 9.48684 277.317 9.53964 273.055 9.47752C271.737 9.45889 271.152 9.8119 271.237 11.2312C271.341 12.9776 271.318 14.7375 271.243 16.4881C271.19 17.72 271.638 18.162 272.882 18.1455C276.859 18.0906 280.839 18.1227 284.818 18.1279C287.02 18.131 287.223 18.3411 287.23 20.5938C287.234 22.0151 287.244 23.4365 287.227 24.8579C287.206 26.6126 286.88 26.9449 285.143 26.949C281.069 26.9594 276.995 27.0018 272.923 26.9252C271.582 26.9004 271.177 27.3745 271.241 28.654C271.326 30.3549 271.33 32.0672 271.241 33.768C271.171 35.1118 271.616 35.6014 273.008 35.5776C277.27 35.5031 281.533 35.5455 285.796 35.5548C287.658 35.559 287.961 35.8592 287.973 37.6802C287.984 39.3386 287.969 40.996 287.974 42.6544C287.978 43.8211 287.45 44.3729 286.24 44.3698C278.899 44.3501 271.556 44.3677 264.215 44.3532C262.788 44.3501 262.411 43.9029 262.409 42.2683C262.398 35.6832 262.404 29.0981 262.403 22.512Z" fill="#FD5141"/>
<path d="M117.61 35.855C118.304 32.3104 116.916 28.301 115.219 24.2688C112.3 17.3307 109.604 10.2974 106.821 3.30238C105.996 1.22882 106.39 0.670836 108.66 0.66359C110.317 0.658413 111.978 0.722597 113.631 0.64392C114.888 0.583877 115.52 1.11391 115.914 2.27336C117.633 7.33976 119.409 12.3875 121.165 17.4415C121.274 17.7541 121.38 18.0699 121.508 18.3753C121.614 18.6258 121.673 18.9788 122.038 18.9384C122.363 18.9022 122.435 18.5751 122.53 18.3121C122.643 18.0005 122.744 17.6848 122.853 17.3721C124.615 12.3202 126.401 7.27557 128.119 2.20918C128.499 1.08803 129.107 0.604582 130.294 0.648061C132.044 0.712245 133.799 0.655308 135.551 0.666695C137.542 0.679118 137.964 1.26816 137.236 3.10879C134.71 9.49303 132.355 15.9549 129.563 22.2211C127.239 27.4356 125.875 32.6997 126.44 38.4203C126.575 39.7806 126.455 41.1657 126.458 42.5395C126.46 43.7414 125.952 44.3967 124.663 44.3708C122.865 44.3346 121.064 44.3418 119.264 44.3677C118.126 44.3843 117.609 43.8397 117.609 42.7331C117.611 40.7434 117.609 38.7537 117.609 35.8571L117.61 35.855Z" fill="#FD5141"/>
<path d="M395.001 111.205C394.392 111.268 393.783 111.386 393.174 111.387C386.17 111.401 379.166 111.399 372.162 111.394C370.236 111.391 369.902 111.069 369.901 109.184C369.896 96.0722 369.896 82.961 369.901 69.8489C369.901 68.002 370.214 67.6998 372.046 67.6987C379.05 67.6946 386.055 67.7029 393.058 67.6873C393.732 67.6863 394.367 67.796 395 67.9917V76.2362C394.129 76.4795 393.241 76.5157 392.341 76.5126C388.32 76.4992 384.299 76.5416 380.278 76.4867C379.09 76.4702 378.698 76.8957 378.742 78.0541C378.812 79.8968 378.817 81.7467 378.741 83.5884C378.691 84.7779 379.136 85.1402 380.298 85.1247C384.461 85.0719 388.624 85.1247 392.787 85.0936C394.101 85.0833 394.714 85.6205 394.689 86.9477C394.659 88.5554 394.689 90.1652 394.682 91.7739C394.671 93.6239 394.381 93.9241 392.543 93.9282C388.663 93.9375 384.785 93.9303 380.905 93.9324C379.478 93.9331 378.764 94.6235 378.762 96.0038C378.76 97.5184 378.76 99.0319 378.762 100.546C378.765 102.551 378.766 102.534 380.818 102.56C385.545 102.621 390.275 102.409 395.002 102.676V111.205H395.001Z" fill="#FD5141"/>
<path d="M0.00169193 89.4726C0.00169193 83.0335 -0.00140754 76.5934 0.00272508 70.1543C0.00375824 67.9451 0.254815 67.6977 2.43477 67.6967C6.97962 67.6946 11.5245 67.649 16.0683 67.7101C21.1307 67.7774 24.8749 70.1294 27.0673 74.6699C29.3082 79.3109 28.8092 83.7841 25.6002 87.8515C24.9648 88.6569 24.9792 89.0927 25.6663 89.8546C29.4094 94.0069 29.7276 98.8083 27.8153 103.784C25.9122 108.735 21.9676 111.146 16.7987 111.339C11.7879 111.526 6.76473 111.401 1.74669 111.38C0.387059 111.374 0.0068577 110.87 0.00479139 109.216C-0.00347385 102.634 0.00169193 96.0536 0.000658774 89.4716L0.00169193 89.4726ZM8.6337 97.858C8.6337 99.0423 8.64197 100.226 8.6306 101.41C8.62337 102.166 8.95295 102.555 9.73298 102.55C11.8633 102.535 13.9999 102.633 16.123 102.499C18.5406 102.346 20.1575 100.217 20.0346 97.6074C19.9209 95.1974 18.1346 93.3475 15.8048 93.2999C13.817 93.2595 11.8272 93.3113 9.83836 93.2812C8.99944 93.2688 8.61304 93.6021 8.62647 94.4469C8.64507 95.5836 8.6306 96.7202 8.63267 97.8569L8.6337 97.858ZM12.8479 84.4549C12.8479 84.4466 12.8479 84.4394 12.8479 84.4311C13.8863 84.4311 14.9308 84.4963 15.9629 84.4176C18.1129 84.252 19.8062 82.429 19.7835 80.3937C19.7608 78.3605 18.0168 76.6017 15.8307 76.5292C13.8491 76.464 11.8633 76.5261 9.88072 76.5033C9.08003 76.494 8.6244 76.7715 8.62957 77.6369C8.64197 79.5262 8.63784 81.4155 8.63267 83.3048C8.6306 84.1454 9.05006 84.4839 9.87142 84.4601C10.8622 84.4311 11.8551 84.4528 12.8469 84.4528L12.8479 84.4549Z" fill="#FD5141"/>
<path d="M334.026 95.2399C334.926 95.2399 335.826 95.2554 336.726 95.2347C337.782 95.2109 338.314 95.7099 338.339 96.7606C338.343 96.9501 338.356 97.1395 338.348 97.3289C338.247 99.682 338.872 101.701 341.181 102.739C343.677 103.861 346.159 103.739 348.499 102.238C350.997 100.634 351.648 96.1219 347.793 94.5918C346.062 93.9044 344.268 93.5038 342.481 93.0493C340.593 92.569 338.773 91.9158 337.023 91.0534C329.987 87.5875 327.828 79.5355 332.202 73.026C337.823 64.6603 352.033 65.092 357.121 73.7786C358.381 75.9288 358.843 78.2611 358.813 80.725C358.798 81.9165 358.222 82.4486 357.056 82.4403C355.256 82.4279 353.457 82.43 351.657 82.4393C350.483 82.4455 349.907 81.8917 349.926 80.7053C349.96 78.6172 349.149 76.9702 347.174 76.1544C344.903 75.2165 342.594 75.2393 340.545 76.7217C338.436 78.2487 338.54 81.2654 340.647 82.7861C341.948 83.7271 343.46 84.1122 345 84.4197C347.659 84.9497 350.21 85.7789 352.659 86.9643C362.233 91.5959 361.218 104.032 354.668 108.898C348.711 113.322 339.058 113.055 333.72 108.115C330.375 105.018 329.215 101.112 329.482 96.6747C329.542 95.6871 330.067 95.2305 331.042 95.2388C332.037 95.2471 333.031 95.2409 334.026 95.2399Z" fill="#FD5141"/>
<path d="M77.8375 95.2409C78.7849 95.2409 79.7323 95.2471 80.6797 95.2388C81.7221 95.2305 82.2687 95.7316 82.2924 96.7813C82.2976 97.0184 82.2976 97.2554 82.2986 97.4915C82.3234 100.516 83.2894 102.116 85.6182 102.992C88.2083 103.966 91.5278 103.347 93.1778 101.583C95.3732 99.2338 94.7482 96.0411 91.8285 94.6632C90.0979 93.8464 88.2269 93.5048 86.391 93.0493C84.4517 92.569 82.5817 91.8992 80.8016 90.9975C73.8764 87.4871 71.7295 79.4226 76.1452 73.0291C79.4606 68.2288 84.3371 66.6242 89.9337 67.1107C95.2027 67.5683 99.2723 70.029 101.619 74.9381C102.493 76.7673 102.785 78.7249 102.75 80.7446C102.73 81.8523 102.203 82.4248 101.103 82.432C99.2083 82.4445 97.3135 82.4465 95.4187 82.431C94.3814 82.4227 93.9299 81.8699 93.8472 80.8295C93.4815 76.2279 88.6835 73.9339 84.7772 76.466C82.3586 78.0344 82.311 81.225 84.6821 82.872C85.9601 83.7592 87.4303 84.1195 88.9212 84.4218C91.813 85.0077 94.5891 85.9052 97.206 87.3049C105.908 91.9603 104.92 103.704 99.1153 108.459C92.9339 113.523 82.6303 113.208 77.1101 107.6C74.1088 104.551 73.1449 100.806 73.4156 96.6478C73.4745 95.7419 73.9291 95.2512 74.8537 95.2461C75.8487 95.2409 76.8436 95.245 77.8375 95.245C77.8375 95.243 77.8375 95.2419 77.8375 95.2399V95.2409Z" fill="#FD5141"/>
<path d="M39.1579 89.4964C39.1579 83.0066 39.1558 76.5168 39.1589 70.027C39.16 67.9575 39.41 67.6977 41.4102 67.6967C48.3726 67.6936 55.334 67.6925 62.2965 67.6967C64.1427 67.6977 64.4578 68.0052 64.4754 69.8251C64.4898 71.3407 64.4909 72.8573 64.4754 74.3728C64.4568 76.1607 64.1138 76.4971 62.2758 76.5013C58.0605 76.5106 53.8452 76.5416 49.631 76.4826C48.3974 76.465 47.9356 76.8553 47.9924 78.11C48.0761 79.9537 48.0627 81.8058 47.9966 83.6505C47.9563 84.7706 48.3726 85.135 49.4802 85.1216C53.6004 85.074 57.7206 85.0967 61.8408 85.1061C63.6261 85.1102 63.9154 85.4021 63.9278 87.1651C63.9392 88.7759 63.9412 90.3867 63.9268 91.9965C63.9123 93.5711 63.5869 93.9148 61.9989 93.922C57.9262 93.9407 53.8525 93.9738 49.7798 93.9044C48.4305 93.8817 47.9098 94.2937 47.9873 95.6809C48.0875 97.4749 48.0606 99.2814 47.9945 101.079C47.9532 102.195 48.3675 102.579 49.475 102.568C53.8318 102.528 58.1897 102.546 62.5465 102.557C64.3648 102.561 64.7037 102.905 64.7192 104.714C64.7326 106.182 64.7295 107.651 64.7202 109.119C64.7078 111.052 64.3927 111.385 62.5134 111.387C55.5035 111.394 48.4945 111.394 41.4846 111.387C39.471 111.385 39.1579 111.075 39.1569 109.103C39.1527 102.565 39.1548 96.0287 39.1548 89.4913L39.1579 89.4964Z" fill="#FD5141"/>
<path d="M122.904 93.7026C122.493 94.2709 122.641 94.8071 122.64 95.3082C122.626 99.9036 122.638 104.5 122.629 109.095C122.624 111.075 122.298 111.385 120.297 111.395C118.876 111.402 117.454 111.403 116.034 111.395C114.133 111.383 113.839 111.086 113.837 109.133C113.832 101.932 113.835 94.7295 113.835 87.5285C113.835 81.6536 113.831 75.7787 113.837 69.9038C113.839 67.9441 114.092 67.7039 116.06 67.6987C117.575 67.6946 119.091 67.6894 120.608 67.7008C122.236 67.7122 122.617 68.0693 122.625 69.7112C122.645 73.7859 122.626 77.8605 122.644 81.9352C122.646 82.3782 122.411 83.0346 122.923 83.2116C123.471 83.401 123.636 82.7085 123.881 82.3513C126.91 77.9392 129.944 73.5291 132.916 69.0777C133.6 68.0528 134.385 67.6045 135.614 67.678C137.077 67.765 138.55 67.677 140.019 67.707C140.838 67.7236 141.793 67.4285 142.331 68.3675C142.929 69.412 142.187 70.176 141.669 70.9421C138.641 75.4143 135.595 79.873 132.555 84.3358C131.995 85.1578 131.485 86.0191 130.868 86.7955C130.091 87.7728 130.207 88.6165 130.868 89.6248C134.896 95.7627 138.878 101.932 142.875 108.09C143.363 108.842 143.995 109.565 143.432 110.55C142.88 111.516 141.932 111.394 141.036 111.396C139.378 111.399 137.718 111.343 136.064 111.413C134.834 111.466 134.049 111.012 133.397 109.956C130.31 104.959 127.164 99.9988 124.023 95.0349C123.73 94.5711 123.561 93.9852 122.906 93.7036L122.904 93.7026Z" fill="#FD5141"/>
<path d="M261.374 89.512C261.374 82.9745 261.37 76.4371 261.376 69.9006C261.378 67.9762 261.664 67.6998 263.618 67.6987C270.58 67.6946 277.543 67.6946 284.504 67.6987C286.37 67.6998 286.679 67.9979 286.693 69.8106C286.706 71.3738 286.71 72.937 286.691 74.5001C286.673 76.1234 286.307 76.495 284.658 76.5002C280.395 76.5157 276.132 76.5385 271.871 76.4867C270.669 76.4723 270.143 76.8077 270.203 78.0913C270.29 79.9351 270.27 81.7871 270.208 83.6319C270.172 84.7344 270.563 85.135 271.684 85.1226C275.756 85.075 279.83 85.1009 283.903 85.106C285.906 85.1091 286.166 85.3793 286.175 87.4312C286.181 88.9001 286.186 90.3681 286.173 91.8371C286.157 93.598 285.851 93.9199 284.104 93.9262C280.126 93.9396 276.148 93.9282 272.169 93.9324C270.23 93.9344 270.228 93.9396 270.224 95.9355C270.221 97.4511 270.222 98.9677 270.224 100.483C270.226 101.861 270.896 102.551 272.234 102.555C276.402 102.558 280.57 102.551 284.738 102.56C286.594 102.564 286.899 102.867 286.911 104.694C286.923 106.351 286.901 108.009 286.911 109.668C286.92 110.852 286.348 111.397 285.171 111.395C277.829 111.387 270.488 111.387 263.147 111.395C261.787 111.396 261.355 110.673 261.359 109.407C261.383 102.775 261.371 96.1426 261.371 89.5109L261.374 89.512Z" fill="#FD5141"/>
<path d="M161.801 102.904C162.486 99.3352 161.126 95.274 159.403 91.1942C156.474 84.2592 153.785 77.2218 151.001 70.2257C150.222 68.2691 150.596 67.707 152.665 67.6987C154.324 67.6925 155.988 67.7877 157.637 67.6697C159.081 67.5662 159.755 68.1397 160.203 69.4845C161.879 74.5157 163.658 79.5127 165.399 84.5232C165.461 84.7023 165.508 84.8886 165.59 85.0584C165.749 85.3824 165.737 85.9042 166.196 85.928C166.693 85.9539 166.683 85.428 166.802 85.0967C167.442 83.3141 168.065 81.5252 168.688 79.7363C169.919 76.2041 171.172 72.6781 172.361 69.1315C172.72 68.0641 173.318 67.6314 174.451 67.677C176.247 67.7494 178.05 67.6894 179.85 67.6987C181.739 67.708 182.166 68.3085 181.47 70.0683C179.029 76.2331 176.57 82.3886 174.115 88.5471C173.202 90.835 172.315 93.1332 171.355 95.4003C170.826 96.6498 170.624 97.9118 170.643 99.2648C170.694 102.627 170.668 105.992 170.655 109.355C170.648 110.98 170.258 111.372 168.643 111.389C166.938 111.408 165.233 111.382 163.528 111.395C162.347 111.403 161.788 110.841 161.797 109.66C161.812 107.717 161.802 105.774 161.802 102.905L161.801 102.904Z" fill="#FD5141"/>
<path d="M207.623 93.6922C207.623 98.8538 207.627 104.015 207.62 109.178C207.617 111.059 207.279 111.383 205.36 111.394C203.845 111.402 202.329 111.407 200.815 111.391C199.109 111.374 198.759 111.022 198.758 109.272C198.751 99.2327 198.755 89.1931 198.754 79.1535C198.754 76.1772 198.908 76.525 196.039 76.5085C194.335 76.4981 192.63 76.4795 190.926 76.5116C189.599 76.5375 189.039 75.9401 189.078 74.6151C189.129 72.9121 189.112 71.205 189.083 69.501C189.063 68.2712 189.552 67.6811 190.848 67.6842C199.086 67.708 207.325 67.7049 215.563 67.6873C216.775 67.6842 217.298 68.2588 217.3 69.411C217.303 71.2102 217.301 73.0104 217.3 74.8097C217.3 75.9929 216.693 76.5178 215.524 76.5074C213.393 76.4888 211.261 76.5602 209.133 76.4847C207.924 76.4422 207.595 76.9205 207.605 78.0634C207.648 83.2726 207.623 88.4819 207.623 93.6911V93.6922Z" fill="#FD5141"/>
<path d="M242.834 93.775C242.834 98.889 242.839 104.004 242.832 109.118C242.83 111.082 242.511 111.385 240.494 111.395C239.074 111.401 237.653 111.402 236.234 111.395C234.295 111.383 233.996 111.095 233.994 109.176C233.987 102.546 233.991 95.9169 233.991 89.2873C233.991 85.546 233.959 81.8047 234.008 78.0644C234.024 76.9102 233.653 76.4495 232.462 76.4899C230.381 76.5592 228.296 76.4857 226.213 76.5147C224.925 76.5323 224.28 76.0323 224.323 74.6658C224.379 72.9152 224.355 71.1615 224.331 69.4099C224.314 68.2225 224.835 67.6894 226.039 67.6915C234.278 67.708 242.516 67.707 250.755 67.6915C251.93 67.6894 252.528 68.176 252.523 69.3716C252.516 71.1709 252.506 72.9711 252.527 74.7703C252.542 75.9629 251.967 76.5095 250.799 76.5075C248.858 76.5033 246.916 76.5075 244.975 76.5095C243.55 76.5109 242.837 77.2469 242.835 78.7177C242.834 83.7375 242.835 88.7573 242.835 93.7771L242.834 93.775Z" fill="#FD5141"/>
<path d="M297.943 89.4623C297.943 82.9258 297.939 76.3884 297.945 69.852C297.947 67.9544 298.2 67.706 300.061 67.6977C301.576 67.6915 303.092 67.6904 304.608 67.6977C306.431 67.706 306.774 68.0258 306.777 69.8427C306.788 77.0903 306.782 84.3369 306.782 91.5845C306.782 94.7585 306.819 97.9325 306.765 101.105C306.745 102.23 307.161 102.587 308.254 102.573C311.995 102.529 315.736 102.552 319.478 102.56C321.454 102.564 321.719 102.829 321.725 104.744C321.73 106.355 321.691 107.966 321.736 109.576C321.772 110.845 321.2 111.399 319.957 111.397C313.232 111.388 306.508 111.402 299.783 111.385C298.289 111.382 297.95 110.985 297.948 109.355C297.94 102.724 297.945 96.0918 297.945 89.4612L297.943 89.4623Z" fill="#FD5141"/>
</svg>
