<svg width="1025" height="651" viewBox="0 0 1025 651" fill="none" xmlns="http://www.w3.org/2000/svg">
<path d="M257.581 55.6583C236.108 43.4716 214.001 33.4082 188.556 33.7865C136.789 33.6446 91.4073 70.1385 78.9067 121.463C76.556 131.11 81.9101 134.468 89.0519 137.05C100.592 141.216 101.893 143.117 96.0093 153.814C83.679 176.234 70.9655 198.451 57.9257 220.465C52.6095 229.441 46.1487 229.086 40.9224 219.978C28.1994 197.794 15.6704 175.501 3.21707 153.161C-2.58629 142.748 -0.874132 138.998 11.111 137.641C18.6454 136.785 22.7555 133.692 24.1271 126.22C25.0778 121.061 26.5582 115.939 28.3697 111.012C41.4237 75.4776 57.0601 42.5305 92.4053 22.1814C135.578 -2.67907 179.522 -6.82648 225.656 10.6709C242.853 17.1923 256.98 28.5798 268.526 42.8567C272.248 47.4628 273.795 53.6626 269.32 58.4436C264.907 63.1585 261.166 57.6918 257.581 55.6583Z" fill="#FD5141"/>
<path d="M839.549 502.646C827.805 514.757 812.362 514.687 797.383 514.88C669.028 516.536 540.636 511.967 412.304 517.425C370.933 519.184 329.676 515.325 288.343 514.904C263.881 514.653 239.4 514.256 214.957 513.883C183.656 513.41 167.494 486.502 167.698 461.83C168.459 370.352 168.573 278.859 167.679 187.386C167.385 157.37 185.723 135.759 217.634 135.555C266.53 135.239 315.402 134.614 364.26 132.883C410.573 131.242 456.74 136.09 503.039 135.447C544.088 134.874 585.156 135.328 626.215 135.357C681.591 135.357 736.961 135.29 792.337 135.428C800.216 135.447 808.186 135.872 815.957 137.092C840.149 140.89 855.535 158.624 855.568 183.068C855.701 277.185 855.54 371.307 855.696 465.424C855.72 480.401 849.628 492.247 839.539 502.646L839.549 502.646ZM828.235 200.65C828.235 195.009 828.358 189.31 827.668 183.735C826.041 170.569 820.152 165.239 806.857 164.908C794.806 164.606 782.745 164.762 770.689 164.762C591.348 164.752 412.006 164.752 232.665 164.757C227.013 164.757 221.347 164.615 215.714 164.956C204.079 165.665 196.818 172.418 195.816 183.99C195.168 191.471 195.423 199.038 195.423 206.566C195.4 288.279 195.4 369.992 195.423 451.701C195.423 456.969 195.225 462.298 195.929 467.491C197.367 478.093 203.265 484.624 214.418 485.291C219.304 485.584 224.208 485.546 229.104 485.546C323.674 485.56 418.24 485.556 512.811 485.56C607.755 485.565 702.699 485.579 797.648 485.532C803.286 485.532 808.981 485.437 814.538 484.638C818.029 484.137 822.545 483.314 820.289 477.464C819.835 476.287 819.935 473.847 820.644 473.421C832.01 466.554 828.079 455.366 828.108 445.78C828.363 364.067 828.268 282.359 828.24 200.646L828.235 200.65Z" fill="#FD5141"/>
<path d="M1014.19 512.719C1007.33 513.306 1001.49 514.36 999.758 522.385C998.727 527.157 997.37 531.876 995.904 536.535C985.503 569.576 970.647 599.35 941.209 620.432C913.947 639.959 884.552 651.195 854.277 650.424C822.385 650.802 797.152 641.448 773.669 625.682C765.548 620.229 757.365 615.788 754.007 605.806C752.517 601.374 750.498 597.033 754.329 593.217C758.188 589.377 761.958 592.578 765.609 594.375C774.723 598.854 783.648 603.805 793.023 607.659C840.769 627.285 882.821 612.303 914.368 582.879C929.219 569.028 938.84 550.585 944.09 530.434C947.206 518.479 945.57 515.429 932.965 512.757C925.299 511.13 921.865 506.888 925.71 499.974C938.986 476.093 952.598 452.386 966.608 428.93C970.264 422.811 976.531 420.915 980.991 428.367C995.033 451.838 1008.97 475.388 1022.17 499.341C1027.53 509.064 1025.49 511.754 1014.19 512.719L1014.19 512.719Z" fill="#FD5141"/>
</svg>
