<svg width="922" height="495" viewBox="0 0 922 495" fill="none" xmlns="http://www.w3.org/2000/svg">
<path d="M126.6 16.8C128.6 22.2 129.7 25.8 129.9 27.6C130.3 31.4 128.9 34.6 125.7 37.2C125.7 37.4 125.5 37.7 125.1 38.1C126.9 47.5 127.3 56.3 126.3 64.5C125.3 72.7 124 80.6 122.4 88.2C133.2 69.8 141.8 56.3 148.2 47.7C161.4 29.9 173.7 17.2 185.1 9.60005C188.9 7.40004 193.5 5.80004 198.9 4.80004C204.5 3.60004 209.8 3.40004 214.8 4.20004C219.8 5.00005 223.9 7.00004 227.1 10.2C230.5 13.4 232 18.2 231.6 24.6C226 63.6 220 100 213.6 133.8C207.2 167.4 198.9 199.5 188.7 230.1V230.7H188.4C186 237.9 180 243 170.4 246C161 248.8 152.6 249 145.2 246.6C136.2 244 132.1 239.2 132.9 232.2L133.2 225.3V224.7C134 219.9 134.4 216.7 134.4 215.1C134.6 213.3 134.8 212 135 211.2C135.4 206 136.2 201.2 137.4 196.8C138.8 192.2 139.8 188.5 140.4 185.7C141 182.9 141.6 180.3 142.2 177.9C142.8 175.3 143.2 173.3 143.4 171.9C135.8 182.3 130.4 188.6 127.2 190.8C119.2 196.4 109.9 199 99.3002 198.6C92.7002 198.2 88.9002 196.7 87.9002 194.1C85.9002 188.5 84.5002 185.2 83.7002 184.2C82.5002 182.6 81.5002 179.9 80.7002 176.1C75.5002 199.1 70.4002 215.4 65.4002 225C63.4002 228.8 61.4002 232.2 59.4002 235.2C56.6002 241.8 50.2002 246.4 40.2002 249C30.8002 251.6 21.8002 251.4 13.2002 248.4C4.4002 245.6 0.200195 240.6 0.600195 233.4C1.0002 226.2 2.5002 217.2 5.1002 206.4C7.5002 195.4 10.4002 183.8 13.8002 171.6C24.0002 133 31.2002 107.9 35.4002 96.3C39.8002 84.7 43.5002 75.6 46.5002 69C53.7002 53.6 60.1002 42.4 65.7002 35.4C71.9002 22.8 82.2002 15.2 96.6002 12.6C108 10.4 118 11.8 126.6 16.8ZM382.022 32.4C388.822 36 393.122 41.3 394.922 48.3C390.922 70.7 387.322 93 384.122 115.2C380.922 137.2 377.822 155.7 374.822 170.7C371.822 185.5 369.722 196.6 368.522 204C367.522 211.4 366.322 218.8 364.922 226.2L363.122 232.5C362.722 234.7 362.322 236.7 361.922 238.5C361.522 240.5 361.122 242.6 360.722 244.8C355.122 251.2 347.522 254.4 337.922 254.4C327.722 254.4 319.622 251.8 313.622 246.6C310.022 243.8 309.422 237.9 311.822 228.9C312.822 225.3 313.422 220.7 313.622 215.1C314.022 209.3 314.422 204.5 314.822 200.7V200.1C308.822 202.3 303.422 205.2 298.622 208.8C293.822 212.2 290.822 214.4 289.622 215.4C288.422 216.2 286.822 216.9 284.822 217.5C282.822 217.9 281.022 218.2 279.422 218.4C275.622 218.6 273.022 219.2 271.622 220.2C260.022 241 249.622 252.6 240.422 255C234.622 256.8 228.822 257.2 223.022 256.2C217.222 255.4 212.622 252 209.222 246C202.822 240 204.422 223.6 214.022 196.8C219.222 182.6 226.622 165.6 236.222 145.8C246.022 125.8 255.422 108.4 264.422 93.6C283.822 61.8 305.122 35 328.322 13.2C332.122 11.6 336.222 9.80003 340.622 7.80003C345.022 5.60004 349.322 4.40004 353.522 4.20004C357.922 4.00004 362.422 4.50003 367.022 5.70004C371.622 6.90004 375.522 8.70004 378.722 11.1C386.122 16.7 387.222 23.8 382.022 32.4ZM317.822 111.3C313.622 123.3 309.422 134.4 305.222 144.6C301.022 154.6 297.422 163.4 294.422 171L318.122 170.1C319.722 157.3 321.522 144.6 323.522 132C325.522 119.4 327.422 106.8 329.222 94.2L317.822 111.3ZM309.722 171.3C312.522 171.3 315.322 171.1 318.122 170.7V170.4C315.522 170.6 313.122 170.8 310.922 171C308.722 171.2 308.322 171.3 309.722 171.3ZM489.858 159C484.458 174.6 478.958 189.6 473.358 204C467.758 218.4 463.058 229.3 459.258 236.7C455.658 244.3 452.458 249.5 449.658 252.3C446.858 255.1 443.958 257 440.958 258C438.158 259 435.258 259.4 432.258 259.2C429.458 259 426.558 258.8 423.558 258.6C406.758 256 401.558 243.9 407.958 222.3C412.158 205.1 415.558 191.1 418.158 180.3C420.758 169.3 422.858 160.3 424.458 153.3C426.258 146.1 427.758 140.2 428.958 135.6C430.158 130.8 431.458 126.1 432.858 121.5C434.258 116.9 435.958 111.7 437.958 105.9C440.158 100.1 442.958 92.4 446.358 82.8C438.758 83.8 431.958 83 425.958 80.4C417.158 76.6 413.558 68.4 415.158 55.8C415.958 50 419.058 44.6 424.458 39.6C427.258 37 430.558 34.2 434.358 31.2C442.158 25 457.658 18.4 480.858 11.4C504.858 4.20004 525.458 0.800035 542.658 1.20003C547.258 0.40004 551.958 1.00004 556.758 3.00004C561.758 4.80004 565.758 7.30004 568.758 10.5C571.758 13.7 573.258 17.2 573.258 21C573.458 24.8 571.058 28.2 566.058 31.2C563.658 32.8 561.958 35.5 560.958 39.3C559.958 42.9 558.858 46.8 557.658 51C556.458 55 554.658 58.7 552.258 62.1C550.058 65.5 546.458 67.5 541.458 68.1C538.858 69.5 535.158 70.5 530.358 71.1C525.758 71.7 522.658 72.2 521.058 72.6C519.658 72.8 518.858 73.3 518.658 74.1C515.058 84.7 510.758 97.6 505.758 112.8C500.758 127.8 495.458 143.2 489.858 159ZM449.358 79.5C448.958 79.5 448.758 79.6 448.758 79.8C448.758 79.8 448.958 79.8 449.358 79.8V79.5ZM670.744 86.4C670.744 80.4 668.644 77.4 664.444 77.4C662.844 77.4 660.944 77.8 658.744 78.6C656.544 79.4 654.444 80.1 652.444 80.7C645.044 84.7 639.244 89.1 635.044 93.9C631.044 98.5 626.944 103.7 622.744 109.5C618.544 115.3 614.944 121.5 611.944 128.1C608.944 134.7 606.644 140.9 605.044 146.7C599.244 168.1 601.444 182.5 611.644 189.9C615.844 192.9 620.244 194.4 624.844 194.4C629.644 194.2 633.444 193.2 636.244 191.4C639.244 189.6 642.144 187.9 644.944 186.3C647.744 184.7 650.944 183.6 654.544 183C658.344 182.2 662.944 182.7 668.344 184.5C673.944 186.1 676.944 188.3 677.344 191.1C677.744 193.9 677.744 196.8 677.344 199.8C676.944 202.8 676.844 205.5 677.044 207.9C677.444 210.3 679.644 211.8 683.644 212.4C687.444 217.2 685.044 223 676.444 229.8C674.244 231.6 672.144 233.3 670.144 234.9C652.944 245.9 634.644 252 615.244 253.2C603.044 254 590.044 251.8 576.244 246.6C555.644 238.8 544.044 221.3 541.444 194.1C538.044 168.9 541.244 142.8 551.044 115.8C559.244 93 571.644 71.9 588.244 52.5C603.244 34.7 618.044 23.1 632.644 17.7C650.044 8.70004 668.844 5.20004 689.044 7.20004C710.444 10 724.444 19.1 731.044 34.5C737.644 49.9 736.544 68.4 727.744 90C724.744 97.6 719.044 103.6 710.644 108C703.444 112 695.644 114 687.244 114C678.844 114 673.444 111.4 671.044 106.2C668.644 100.8 668.544 94.2 670.744 86.4ZM779.717 170.4L765.317 207C763.317 212.6 761.517 218.4 759.917 224.4C758.317 230.4 756.617 235.6 754.817 240C753.017 244.6 750.217 248.2 746.417 250.8C742.817 253.4 738.717 255.3 734.117 256.5C729.517 257.9 724.717 258.5 719.717 258.3C714.917 258.1 710.617 257.2 706.817 255.6C698.217 251.6 695.217 245 697.817 235.8C707.017 195.4 715.617 163 723.617 138.6C731.817 114.2 738.517 95 743.717 81C749.117 67 754.717 52.2 760.517 36.6C761.117 30.8 763.517 25.6 767.717 21C771.917 16.4 776.817 12.6 782.417 9.60005C788.217 6.60004 794.217 4.50003 800.417 3.30004C806.617 1.90003 812.117 1.70003 816.917 2.70005C821.717 3.70004 825.217 5.90004 827.417 9.30003C829.817 12.7 830.017 17.6 828.017 24C820.817 42.4 815.717 55.4 812.717 63C809.717 70.6 807.017 77.4 804.617 83.4L796.217 103.2C800.417 103.4 805.717 102.8 812.117 101.4C823.717 98.8 832.117 97.9 837.317 98.7C837.317 97.7 837.817 96 838.817 93.6C844.417 69.2 850.717 46.8 857.717 26.4C862.717 9.60003 875.617 0.800035 896.417 4.48227e-05C904.617 4.48227e-05 910.817 2.00004 915.017 6.00004C919.617 10.2 920.217 15.9 916.817 23.1C898.417 74.7 885.417 115.4 877.817 145.2C869.217 179.6 863.517 202.8 860.717 214.8C858.117 226.8 855.817 233.9 853.817 236.1C851.817 238.3 849.717 239.8 847.517 240.6C845.517 241.6 843.517 242.5 841.517 243.3C839.517 244.1 837.917 246.1 836.717 249.3H835.817C834.217 252.9 830.717 255.7 825.317 257.7C819.917 259.7 814.417 260.4 808.817 259.8C803.417 259.4 798.817 257.4 795.017 253.8C791.417 250.4 790.517 245.1 792.317 237.9C794.317 226.5 797.617 214.3 802.217 201.3C806.817 188.1 810.417 177.8 813.017 170.4C815.817 163 818.117 156.1 819.917 149.7C818.317 150.5 816.717 151.1 815.117 151.5C813.717 151.9 811.917 152.7 809.717 153.9C807.517 154.9 805.217 155.8 802.817 156.6C800.617 157.4 798.417 158.2 796.217 159C790.617 161.2 786.017 163.4 782.417 165.6L779.717 170.4ZM813.617 150.3C813.817 150.3 814.817 150 816.617 149.4C815.417 149.8 814.417 150.1 813.617 150.3ZM146.56 436.28C148.024 441.811 147.699 446.447 145.584 450.188C143.47 453.767 140.46 456.532 136.556 458.484C136.556 459.297 137.044 461.249 138.02 464.34C139.159 467.593 140.054 470.277 140.704 472.392C142.168 476.784 142.575 480.769 141.924 484.348C140.135 490.529 135.58 493.864 128.26 494.352C125.17 494.677 122.079 494.271 118.988 493.132C115.898 491.993 113.458 490.204 111.668 487.764C111.343 488.415 110.448 487.032 108.984 483.616C107.52 480.363 105.894 476.621 104.104 472.392L98.7362 461.656C89.9522 464.421 82.7949 465.56 77.2642 465.072C68.6429 464.096 59.5335 461.737 49.9362 457.996C36.5975 452.791 27.4069 443.519 22.3642 430.18C17.3215 416.841 16.6709 400.493 20.4122 381.136C22.2015 358.363 27.6509 337.541 36.7602 318.672C47.4962 296.387 60.9162 281.991 77.0202 275.484C93.4495 267.188 107.114 263.691 118.012 264.992L122.404 263.528C124.844 259.299 128.586 256.289 133.628 254.5C138.834 252.711 144.364 251.979 150.22 252.304C156.076 252.629 161.77 253.849 167.3 255.964C172.994 258.079 177.548 260.925 180.964 264.504C193.164 276.379 198.126 295.655 195.848 322.332C193.246 355.028 181.371 385.609 160.224 414.076C155.182 420.908 149.732 427.252 143.876 433.108L146.56 436.28ZM76.5322 431.156C74.9055 425.137 74.0922 420.339 74.0922 416.76C73.7669 416.435 73.6042 416.028 73.6042 415.54V415.296C73.4415 415.133 73.3602 414.889 73.3602 414.564H73.6042C73.9295 406.431 78.0775 401.063 86.0482 398.46C90.9282 395.857 96.2962 394.8 102.152 395.288C108.008 395.613 113.295 397.403 118.012 400.656C119.639 397.891 121.022 395.369 122.16 393.092L125.088 387.236C139.24 357.305 142.819 331.848 135.824 310.864C130.944 314.117 125.576 316.313 119.72 317.452C114.027 318.428 108.74 318.509 103.86 317.696C100.282 320.787 96.8655 324.528 93.6122 328.92C90.5215 333.149 88.3255 336.077 87.0242 337.704C85.8855 339.331 83.7709 342.828 80.6802 348.196C77.7522 353.401 74.9055 359.176 72.1402 365.52C69.3749 371.864 67.0162 378.452 65.0642 385.284C63.1122 391.953 62.0549 398.297 61.8922 404.316C61.5669 417.98 66.4469 426.927 76.5322 431.156ZM268.959 279.144V279.632C268.959 279.795 268.959 279.876 268.959 279.876C269.121 279.876 269.203 279.957 269.203 280.12V280.608H269.447L270.911 284.512C272.537 289.229 268.308 303.869 258.223 328.432C247.487 354.621 242.525 375.036 243.339 389.676C245.128 400.087 253.831 391.709 269.447 364.544C281.809 343.397 293.765 320.217 305.315 295.004C306.779 291.588 308.324 288.091 309.951 284.512C311.577 280.771 313.611 277.68 316.051 275.24C321.419 269.384 327.925 267.839 335.571 270.604C338.173 267.513 341.183 265.399 344.599 264.26C348.177 263.121 351.512 262.877 354.603 263.528C357.856 264.179 360.621 265.724 362.899 268.164C365.176 270.441 366.396 273.532 366.559 277.436C367.047 280.689 365.339 288.416 361.435 300.616C357.693 312.816 354.196 323.959 350.943 334.044C347.689 344.129 344.355 355.109 340.939 366.984C332.643 395.125 326.055 421.64 321.175 446.528C321.012 451.733 318.735 456.044 314.343 459.46C310.113 462.876 305.315 465.072 299.947 466.048C294.741 467.187 289.78 467.024 285.063 465.56C279.369 463.933 276.36 459.867 276.035 453.36C276.035 451.571 275.953 449.781 275.791 447.992C276.116 453.523 272.131 458.24 263.835 462.144C261.557 463.283 259.443 464.34 257.491 465.316C246.104 468.732 234.148 468 221.623 463.12C215.767 460.68 210.48 457.427 205.763 453.36C201.208 449.131 198.036 444.169 196.247 438.476C190.553 420.257 191.611 396.345 199.419 366.74C202.672 354.052 206.657 341.689 211.375 329.652C216.092 317.615 219.508 308.912 221.623 303.544C223.9 298.176 225.527 294.516 226.503 292.564C227.479 290.449 228.536 288.416 229.675 286.464C232.44 280.933 234.799 277.192 236.751 275.24L239.679 272.556C240.004 272.231 240.329 272.068 240.655 272.068C240.98 271.905 241.387 271.661 241.875 271.336C243.176 270.523 244.559 269.953 246.023 269.628L249.439 268.896H250.903C255.62 268.245 259.687 269.221 263.103 271.824C263.103 271.987 263.265 272.068 263.591 272.068L265.543 273.776L266.275 274.508L267.007 275.484C267.007 275.647 267.007 275.728 267.007 275.728C267.169 275.728 267.251 275.809 267.251 275.972L267.495 276.216V276.704C267.657 276.704 267.739 276.785 267.739 276.948V277.192C267.901 277.355 268.064 277.436 268.227 277.436V277.68C268.227 277.843 268.227 277.924 268.227 277.924C268.389 277.924 268.471 278.005 268.471 278.168C268.471 278.168 268.552 278.249 268.715 278.412V278.656C268.715 278.819 268.796 278.981 268.959 279.144ZM275.547 441.648V440.916C275.384 441.079 275.303 441.729 275.303 442.868C275.303 442.38 275.384 442.055 275.547 441.892V441.648ZM455.514 290.856C449.82 308.587 444.534 324.609 439.654 338.924C434.936 353.239 430.544 366.415 426.478 378.452C422.574 390.489 418.914 401.632 415.498 411.88C412.082 421.965 408.91 431.644 405.982 440.916C404.355 451.652 399.068 459.216 390.122 463.608C384.916 466.048 378.735 467.268 371.578 467.268C364.42 467.268 359.052 466.455 355.474 464.828C351.895 463.364 349.618 461.168 348.642 458.24C347.503 455.312 347.503 451.815 348.642 447.748C349.618 443.519 351.407 437.825 354.01 430.668C356.612 423.348 359.866 413.507 363.77 401.144C367.836 388.781 372.066 376.256 376.458 363.568C387.356 331.848 395.978 309.888 402.322 297.688C404.762 293.133 407.202 290.124 409.642 288.66C412.082 287.033 414.44 285.895 416.718 285.244C418.995 284.431 421.11 283.536 423.062 282.56C425.014 281.584 426.722 279.144 428.186 275.24C429.812 271.336 432.659 268.652 436.726 267.188C440.955 265.724 444.859 265.643 448.438 266.944C452.179 268.083 454.944 270.685 456.734 274.752C458.686 278.656 458.279 284.024 455.514 290.856ZM552.672 425.056C559.666 424.893 564.384 426.52 566.824 429.936C569.264 433.352 569.996 437.256 569.02 441.648C568.206 446.04 565.929 450.432 562.188 454.824C558.609 459.053 554.136 461.981 548.768 463.608C538.845 468 525.994 470.928 510.216 472.392C496.064 473.856 482.074 473.693 468.248 471.904C459.952 470.765 454.177 468.732 450.924 465.804C444.417 460.111 441.57 452.14 442.384 441.892C442.709 437.012 443.685 433.027 445.312 429.936C447.914 425.707 451.981 419.525 457.512 411.392C463.205 403.259 468.817 395.857 474.348 389.188C480.041 382.519 485.653 376.093 491.184 369.912C512.818 345.675 525.588 330.465 529.492 324.284C530.305 322.983 531.525 320.461 533.152 316.72C518.349 320.136 503.465 319.892 488.5 315.988C482.806 314.524 478.902 310.864 476.788 305.008C474.51 298.664 476.137 292.727 481.668 287.196C489.638 278.575 501.432 272.149 517.048 267.92C531.688 264.016 546.328 262.552 560.968 263.528C563.57 264.341 565.604 265.155 567.068 265.968C568.532 266.619 570.158 268.001 571.948 270.116L572.192 274.752C573.005 275.077 574.306 275.403 576.096 275.728C578.048 276.053 579.512 276.46 580.488 276.948C581.464 277.273 582.521 277.843 583.66 278.656C584.798 279.469 585.856 280.608 586.832 282.072C588.784 285.325 589.678 290.775 589.516 298.42C589.516 305.903 587.726 314.117 584.148 323.064C580.732 331.848 576.502 340.469 571.46 348.928C566.417 357.387 560.968 365.439 555.112 373.084C549.418 380.567 544.538 386.911 540.472 392.116C536.405 397.321 533.152 401.551 530.712 404.804C528.434 407.895 526.726 410.579 525.588 412.856C523.473 416.923 523.636 420.095 526.076 422.372L552.672 425.056ZM555.6 425.544H553.404H555.6ZM633.813 425.056C643.248 426.032 650.242 426.52 654.797 426.52C659.514 426.52 666.59 425.869 676.025 424.568C678.953 425.544 680.661 426.764 681.149 428.228C681.637 429.692 681.8 431.237 681.637 432.864C681.474 434.328 681.556 435.792 681.881 437.256C682.206 438.72 683.752 439.94 686.517 440.916C687.981 441.404 688.388 442.868 687.737 445.308C687.249 447.585 685.948 450.107 683.833 452.872C678.465 459.867 672.121 464.747 664.801 467.512C653.089 470.44 643.898 472.148 637.229 472.636C626.168 473.449 614.13 473.043 601.117 471.416C586.802 468.813 579.889 462.876 580.377 453.604C580.377 419.444 587.86 385.121 602.825 350.636C607.705 339.412 613.236 327.619 619.417 315.256C620.718 312.653 621.45 309.725 621.613 306.472C621.938 303.219 622.182 300.047 622.345 296.956C622.508 293.865 622.996 291.1 623.809 288.66C624.622 286.22 626.33 284.512 628.933 283.536C662.768 270.035 689.526 264.829 709.209 267.92C716.041 268.083 720.514 270.441 722.629 274.996C724.906 279.388 725.15 284.349 723.361 289.88C721.734 295.411 718.4 300.616 713.357 305.496C708.477 310.376 702.296 313.385 694.813 314.524C685.216 317.289 679.36 319.16 677.245 320.136C673.178 322.088 670.25 324.691 668.461 327.944C666.184 331.523 664.069 334.939 662.117 338.192C660.165 341.445 658.782 344.943 657.969 348.684L656.993 354.052C660.084 355.516 663.825 356.004 668.217 355.516C672.772 354.865 676.92 354.296 680.661 353.808C684.565 353.157 687.656 353.076 689.933 353.564C692.373 354.052 692.861 356.492 691.397 360.884C690.096 365.113 687.574 369.912 683.833 375.28C680.254 380.648 675.13 384.552 668.461 386.992C664.232 387.805 661.304 388.456 659.677 388.944C658.213 389.269 657.074 389.513 656.261 389.676C655.122 389.839 651.869 390.083 646.501 390.408C638.856 403.421 634.22 413.507 632.593 420.664C631.942 423.592 632.349 425.056 633.813 425.056ZM723.218 361.128C726.471 350.229 729.074 341.852 731.026 335.996C733.141 329.977 735.174 324.609 737.126 319.892C739.078 315.175 741.274 310.62 743.714 306.228C746.317 301.836 749.082 297.851 752.01 294.272C755.101 290.531 758.354 287.603 761.77 285.488C765.186 283.373 768.765 282.316 772.506 282.316C776.247 282.316 780.151 283.78 784.218 286.708C790.725 302.975 794.71 313.873 796.174 319.404C798.126 327.537 799.915 339.005 801.542 353.808C803.006 350.067 804.633 346.163 806.422 342.096C808.374 337.867 810.245 333.637 812.034 329.408C817.077 318.672 820.249 310.539 821.55 305.008C825.129 293.621 832.53 285.081 843.754 279.388C853.514 274.508 862.623 272.963 871.082 274.752C874.498 275.403 876.857 276.785 878.158 278.9C879.622 281.015 879.622 283.211 878.158 285.488C876.857 287.765 876.369 289.961 876.694 292.076C877.182 294.028 877.589 296.387 877.914 299.152C878.402 306.635 877.101 313.304 874.01 319.16C870.919 324.853 867.747 332.011 864.494 340.632C861.241 349.091 857.906 358.119 854.49 367.716C851.237 377.313 847.902 387.073 844.486 396.996C841.07 406.919 837.735 415.947 834.482 424.08C827.325 442.787 821.469 453.116 816.914 455.068C810.733 458.809 806.178 461.005 803.25 461.656C799.509 462.307 794.222 462.307 787.39 461.656C783.161 461.331 779.501 455.881 776.41 445.308C774.621 439.615 772.994 431.725 771.53 421.64C768.927 404.072 767.138 394.393 766.162 392.604C759.655 413.751 755.019 427.089 752.254 432.62C749.651 438.151 747.618 441.811 746.154 443.6C744.853 445.389 743.226 447.748 741.274 450.676C739.159 456.532 734.117 460.843 726.146 463.608C719.314 466.211 713.133 466.617 707.602 464.828C701.583 462.876 699.794 459.135 702.234 453.604C704.023 434.084 711.018 403.259 723.218 361.128Z" fill="#780E08"/>
</svg>
