<svg width="651" height="1025" viewBox="0 0 651 1025" fill="none" xmlns="http://www.w3.org/2000/svg">
<path d="M55.6582 257.581C43.4715 236.108 33.4082 214.002 33.7865 188.556C33.6446 136.789 70.1385 91.4073 121.463 78.9067C131.11 76.556 134.468 81.9101 137.05 89.0519C141.216 100.592 143.117 101.893 153.814 96.0093C176.234 83.679 198.451 70.9655 220.465 57.9257C229.441 52.6095 229.086 46.1487 219.978 40.9224C197.794 28.1994 175.501 15.6704 153.161 3.21708C142.748 -2.58628 138.998 -0.874127 137.641 11.111C136.785 18.6454 133.692 22.7555 126.22 24.1271C121.061 25.0778 115.939 26.5582 111.011 28.3697C75.4775 41.4237 42.5304 57.0601 22.1814 92.4053C-2.67909 135.578 -6.8265 179.522 10.6709 225.656C17.1922 242.853 28.5798 256.98 42.8567 268.526C47.4628 272.248 53.6625 273.795 58.4436 269.32C63.1584 264.907 57.6917 261.166 55.6582 257.581Z" fill="#FD5141"/>
<path d="M502.646 839.549C514.757 827.805 514.686 812.362 514.88 797.383C516.536 669.028 511.967 540.636 517.425 412.304C519.184 370.933 515.325 329.676 514.904 288.343C514.653 263.881 514.256 239.4 513.883 214.957C513.41 183.656 486.501 167.494 461.83 167.698C370.352 168.459 278.859 168.573 187.385 167.679C157.37 167.386 135.759 185.723 135.555 217.634C135.238 266.53 134.614 315.402 132.883 364.26C131.242 410.573 136.09 456.74 135.447 503.039C134.874 544.088 135.328 585.156 135.357 626.215C135.357 681.591 135.29 736.961 135.428 792.337C135.446 800.217 135.872 808.186 137.092 815.957C140.89 840.15 158.623 855.535 183.068 855.568C277.185 855.701 371.307 855.54 465.424 855.696C480.401 855.72 492.247 849.628 502.646 839.539L502.646 839.549ZM200.65 828.235C195.009 828.235 189.31 828.358 183.735 827.668C170.569 826.041 165.239 820.152 164.908 806.857C164.606 794.806 164.762 782.745 164.762 770.689C164.752 591.348 164.752 412.006 164.757 232.665C164.757 227.013 164.615 221.347 164.956 215.714C165.665 204.079 172.418 196.819 183.99 195.816C191.471 195.168 199.038 195.423 206.566 195.423C288.279 195.4 369.992 195.4 451.701 195.423C456.969 195.423 462.298 195.225 467.491 195.929C478.093 197.367 484.624 203.265 485.291 214.418C485.584 219.304 485.546 224.208 485.546 229.104C485.56 323.674 485.556 418.24 485.56 512.811C485.565 607.755 485.579 702.699 485.532 797.648C485.532 803.286 485.437 808.981 484.638 814.538C484.137 818.029 483.314 822.546 477.464 820.289C476.287 819.835 473.847 819.935 473.421 820.644C466.554 832.01 455.366 828.079 445.78 828.108C364.067 828.363 282.359 828.269 200.646 828.24L200.65 828.235Z" fill="#FD5141"/>
<path d="M512.719 1014.19C513.306 1007.33 514.36 1001.49 522.385 999.758C527.157 998.727 531.876 997.37 536.535 995.904C569.576 985.503 599.35 970.647 620.432 941.209C639.958 913.947 651.195 884.552 650.424 854.277C650.802 822.385 641.448 797.151 625.682 773.668C620.229 765.548 615.788 757.365 605.805 754.007C601.374 752.517 597.033 750.498 593.217 754.329C589.377 758.188 592.578 761.958 594.375 765.609C598.854 774.723 603.805 783.648 607.659 793.022C627.285 840.769 612.303 882.821 582.879 914.368C569.028 929.219 550.585 938.839 530.434 944.089C518.479 947.206 515.429 945.57 512.757 932.965C511.13 925.298 506.888 921.865 499.974 925.71C476.093 938.986 452.386 952.598 428.93 966.608C422.811 970.264 420.914 976.531 428.367 980.991C451.838 995.033 475.388 1008.97 499.341 1022.17C509.064 1027.53 511.754 1025.49 512.719 1014.19L512.719 1014.19Z" fill="#FD5141"/>
</svg>
