<svg width="305" height="327" viewBox="0 0 305 327" fill="none" xmlns="http://www.w3.org/2000/svg">
<g clip-path="url(#clip0_449_1678)">
<path d="M56.446 109.973C55.5957 109.243 54.1287 108.93 54.5143 107.733C54.9036 106.522 56.2878 107.12 57.2432 107.056C58.4606 106.974 59.6878 107.036 61.3403 107.036C58.9722 104.778 57.0566 102.741 54.5526 101.34C52.6691 100.287 51.0784 98.8935 51.0191 96.5038C50.9635 94.2507 52.6592 92.8033 54.9135 93.1458C55.5426 93.2406 56.0456 93.2813 56.5091 92.7393C57.0183 92.1431 57.7722 92.2108 58.4717 92.2108C63.9752 92.2084 69.48 92.1997 74.9836 92.2207C77.1971 92.2293 77.6099 92.7836 76.6829 94.709C76.0106 96.1071 76.4778 97.5853 76.0885 98.9859C75.3148 101.765 74.8254 104.665 72.1681 106.766C74.0047 107.26 75.5595 106.925 77.0821 107.052C77.8447 107.115 78.9175 106.762 79.1906 107.743C79.4452 108.657 78.4985 109.075 77.8262 109.521C77.427 109.785 77.0562 110.095 76.6731 110.384C76.6805 110.545 76.6879 110.707 76.6953 110.867C78.4169 110.867 80.1398 110.858 81.8614 110.868C87.3057 110.899 92.7462 110.827 98.1879 110.634C99.4906 110.587 99.7007 110.319 99.0988 109.163C95.4701 102.202 91.8798 95.2214 88.287 88.2419C83.6634 79.2606 79.0485 70.2732 74.4323 61.2882C73.9886 60.4247 73.5919 59.5612 73.6574 58.5338C73.7353 57.3131 74.3001 56.4557 75.4619 56.1441C76.5655 55.8485 77.5258 56.069 78.3094 57.1C79.6961 58.9256 80.4896 61.0505 81.5265 63.0485C88.4378 76.3596 95.3589 89.6659 102.15 103.037C103.408 105.516 104.812 106.552 107.79 106.477C117.604 106.227 127.429 106.388 137.249 106.384C139.238 106.384 139.255 106.367 138.834 104.456C138.664 103.689 138.757 102.956 138.972 102.229C139.683 99.8174 141.038 97.7504 142.675 95.8952C143.725 94.7028 145.181 94.4601 146.689 95.0342C149.181 95.9839 151.843 96.0972 154.418 96.6343C155.573 96.8745 156.427 96.659 156.804 95.2153C157.589 92.2121 158.338 89.1731 159.974 86.4668C161.728 83.5658 163.984 81.0135 165.655 78.0411C167.082 75.506 168.169 72.7799 169.675 70.336C172.186 66.2586 173.102 62.0014 172.827 57.302C172.739 55.7881 173.462 54.2446 174.162 52.8637C175.879 49.4762 177.592 46.1416 180.52 43.4612C181.78 42.307 182.74 40.9556 184.482 40.4875C184.89 40.3779 184.995 39.9739 185.117 39.6117C185.549 38.3417 185.891 37.0286 186.452 35.8177C187.168 34.2754 186.708 33.0165 185.837 31.7613C184.822 30.3003 184.312 28.6768 184.408 26.8992C184.538 24.5046 183.984 22.0606 184.936 19.7189C185.104 19.305 184.869 18.917 184.569 18.5524C181.968 15.3964 182.327 11.4669 185.485 8.69772C186.413 7.88348 187.366 7.04337 188.55 6.62578C192.925 5.0823 196.787 2.4043 201.175 0.918711C207.569 -1.24684 216.893 0.424748 221.016 5.88422C223.619 9.32964 225.242 13.1803 225.883 17.4831C226.754 23.3318 226.584 29.1596 225.893 34.9985C225.842 35.4235 225.881 35.8583 225.867 36.2882C225.838 37.2725 226.225 37.6962 227.254 37.3883C227.818 37.2183 228.408 37.0433 228.99 37.0347C230.204 37.0162 230.876 37.695 231.016 38.8911C231.478 42.8637 233.389 45.6489 237.312 47.0396C242.23 48.7839 245.467 52.3574 247.441 57.0754C248.052 58.5363 248.317 60.1401 248.818 61.9546C249.62 60.793 250.411 59.8076 251.03 58.7248C253.166 54.9849 256.283 53.71 260.423 54.8507C260.475 54.8655 260.528 54.8728 260.581 54.8839C266.181 56.0332 266.988 57.6814 265.06 63.1335C262.899 69.2471 259.727 74.8654 256.845 80.6316C254.587 85.1512 252.526 89.7693 250.26 94.284C249.729 95.3434 250.303 96.0566 250.553 96.8598C251.476 99.8383 250.994 101.804 248.663 103.724C248.155 104.141 247.824 104.566 247.992 105.228C249.085 109.548 249.532 113.982 250.232 118.366C250.879 122.431 251.696 126.475 251.804 130.638C251.914 134.942 250.79 138.913 249.384 142.871C248.791 144.539 248.243 146.23 247.533 147.848C247.054 148.938 247.47 149.551 248.256 150.187C248.813 150.639 249.049 150.528 249.26 149.878C249.475 149.216 249.747 148.562 250.083 147.955C250.59 147.037 251.459 146.728 252.432 146.984C253.322 147.219 253.755 147.951 253.671 148.841C253.38 151.911 253.031 154.971 250.106 156.899C249.595 157.235 249.362 157.786 249.145 158.354C248.002 161.365 246.859 164.375 245.654 167.361C245.263 168.327 245.276 168.907 246.485 169.017C247.722 169.129 248.197 170.016 248.442 171.073C248.683 172.113 248.363 173.002 247.531 173.662C246.646 174.365 245.787 174.176 244.844 173.636C243.426 172.824 241.92 173.359 241.331 174.867C240.106 178.002 237.946 179.535 234.483 179.337C230.986 179.137 227.476 179.442 223.975 179.052C222.092 178.843 220.225 179.076 218.406 179.754C216.483 180.471 214.477 180.053 212.487 180.014C207.578 179.92 202.666 180.034 197.757 179.949C196.154 179.922 195.707 180.537 195.743 182.028C195.818 185.146 195.216 188.392 195.896 191.356C196.839 195.466 196.516 199.54 196.745 203.629C196.796 204.529 197.339 205.247 197.833 205.937C198.741 207.21 199.642 208.482 200.325 209.891C200.878 211.032 201.699 211.208 202.689 210.523C204.413 209.329 206.092 208.074 207.806 206.867C208.73 206.217 209.639 205.522 210.637 205.003C213.345 203.597 216.033 205.101 216.108 208.116C216.139 209.354 216.847 209.759 217.74 210.219C220.367 211.571 221.368 213.933 219.99 216.171C218.781 218.136 216.777 219.378 214.551 219.895C212.67 220.332 211.389 218.962 210.465 217.542C209.78 216.491 209.219 216.566 208.436 217.262C208.034 217.62 207.619 217.968 207.254 218.361C206.756 218.898 205.77 219.362 206.03 220.109C206.313 220.92 207.387 221.026 208.214 221.235C213.583 222.593 219.053 223.454 224.509 224.328C229.388 225.11 234.255 225.999 239.184 226.49C242.122 226.783 245.04 227.296 247.958 227.768C250.282 228.143 252.136 230.593 251.604 232.859C251.308 234.116 251.846 234.453 252.735 234.91C255.583 236.377 256.812 239.438 255.796 242.033C255.109 243.789 253.615 244.152 252.08 244.438C251.318 244.58 250.684 244.729 250.067 245.274C247.958 247.139 245.474 246.716 244.091 244.232C242.71 241.752 242.691 239.172 244.109 236.702C244.731 235.618 244.4 235.55 243.374 235.444C237.974 234.892 232.593 234.13 227.184 233.709C224.071 233.466 220.971 233.067 217.854 232.902C216.348 232.822 214.857 232.829 213.371 232.418C212.282 232.116 211.263 231.918 210.558 233.529C209.993 234.819 208.575 235.753 207.49 236.797C206.561 237.691 205.567 238.518 204.597 239.371C204.025 239.875 203.449 240.389 202.59 240.152C200.926 239.694 200.998 240.693 201.312 241.74C201.993 244.003 202.817 246.224 203.45 248.499C204.254 251.387 205.668 254.14 205.839 257.157C205.964 259.359 206.415 261.005 208.36 262.462C210.153 263.805 210.181 266.144 209.569 268.28C209.108 269.89 207.646 270.915 205.919 270.952C204.139 270.99 202.359 270.987 200.578 271.001C197.317 271.026 195.126 267.766 196.368 264.73C196.53 264.332 196.644 263.849 196.939 263.582C198.637 262.047 198.249 260.602 197.325 258.702C195.827 255.627 194.747 252.34 193.616 249.098C193.132 247.712 192.277 247.556 191.107 247.882C188.574 248.589 186.026 249.22 183.456 249.791C178.346 250.928 173.218 251.776 167.954 251.629C165.634 251.565 165.633 251.629 165.623 253.96C165.614 256.268 164.479 257.423 162.218 257.424C122.935 257.424 83.6523 257.424 44.3686 257.424C43.8285 257.424 43.2884 257.398 42.7496 257.424C41.3443 257.492 40.6362 256.897 40.6633 255.437C40.7004 253.447 40.698 251.457 40.6633 249.467C40.6411 248.245 41.1664 247.69 42.4035 247.715C44.0757 247.748 45.7504 247.673 47.4213 247.737C48.7265 247.786 49.3556 247.214 49.7164 245.989C52.6542 236.006 55.6365 226.036 58.6076 216.063C59.081 214.475 58.8882 214.215 57.174 214.169C55.0272 214.113 54.9061 213.996 54.8937 211.839C54.8851 210.225 54.9431 208.61 54.8801 206.999C54.8257 205.588 55.4573 205.039 56.8193 205.122C57.5719 205.167 58.3296 205.128 59.0847 205.126C61.8111 205.123 61.7938 205.118 62.5712 202.508C64.6859 195.415 66.829 188.33 68.9374 181.236C71.9926 170.953 75.0305 160.665 78.0672 150.375C80.4352 142.352 82.7921 134.326 85.1502 126.299C85.6038 124.757 86.0463 123.212 86.4875 121.666C86.9608 120.007 86.7087 119.642 84.9574 119.639C74.813 119.619 64.6686 119.615 54.5242 119.607C50.4778 119.603 46.4301 119.626 42.3837 119.588C40.3717 119.569 40.0281 119.181 40.0108 117.212C39.9972 115.653 39.9922 114.093 40.0133 112.534C40.038 110.64 40.3704 110.3 42.3195 110.29C46.4203 110.269 50.521 110.29 54.6218 110.272C55.1866 110.269 55.7972 110.451 56.446 109.975V109.973ZM131.49 119.322C121.779 119.322 112.069 119.322 102.358 119.322C100.848 119.322 99.3361 119.347 97.827 119.326C96.9446 119.315 96.4564 119.64 96.2426 120.554C95.852 122.223 95.3861 123.879 94.8732 125.516C91.9428 134.878 89.2782 144.318 86.4739 153.717C84.0676 161.78 81.6798 169.847 79.3229 177.924C76.8745 186.313 74.3631 194.684 71.8863 203.066C71.345 204.897 71.5193 205.133 73.4214 205.134C81.5142 205.14 89.6057 205.139 97.6985 205.134C99.7823 205.134 100.125 204.87 100.18 202.717C100.258 199.684 101.049 196.775 101.763 193.881C103.071 188.576 104.29 183.254 105.366 177.901C106.328 173.122 107.132 168.313 108.12 163.541C109.095 158.823 110.075 154.099 111.305 149.444C112.576 144.63 115.331 141.092 120.539 139.901C123.677 139.183 126.776 138.317 129.963 137.796C134.356 137.078 138.725 136.222 143.107 135.447C146.066 134.925 149.036 134.466 151.992 133.935C155.056 133.385 158.111 132.791 161.167 132.198C164.858 131.482 168.57 130.847 172.227 129.987C176.04 129.091 179.793 127.941 183.585 126.951C186.152 126.281 186.138 126.321 185.768 123.701C185.655 122.908 185.734 122.09 185.684 121.286C185.635 120.538 185.555 119.79 185.445 119.049C185.295 118.029 184.738 117.531 183.657 117.308C181.294 116.823 178.974 116.129 176.629 115.555C174.79 115.106 173.046 114.39 171.268 113.767C167.45 112.428 166.628 113.004 166.592 116.95C166.573 119.172 166.432 119.322 164.185 119.323C153.288 119.328 142.389 119.326 131.492 119.323L131.49 119.322ZM132.601 247.435C132.046 246.648 131.304 246.57 130.568 246.403C127.658 245.742 124.766 246.571 121.859 246.461C118.776 246.344 118.693 246.357 118.65 243.281C118.619 241.084 118.412 241.011 116.473 242.049C113.492 243.647 110.531 245.268 107.099 245.841C101.996 246.692 96.8914 246.539 91.7834 246.107C88.7888 245.853 85.762 245.675 82.9392 244.46C81.0494 243.647 80.6737 242.702 81.3609 240.808C82.0728 238.844 83.6152 238.131 85.5099 238.079C88.2586 238.005 91.0122 238.064 93.7633 238.062C94.5197 238.062 95.244 237.99 95.967 237.669C100.549 235.632 103.958 232.283 106.785 228.245C107.465 227.275 107.247 226.738 106.21 226.271C103.352 224.986 100.468 223.858 97.2585 223.837C95.2637 223.824 94.9016 223.22 95.6135 221.32C96.292 219.512 96.9137 217.68 97.6602 215.9C98.3078 214.355 97.6602 214.137 96.2673 214.145C87.69 214.188 79.1128 214.2 70.5355 214.135C68.9177 214.123 68.2045 214.766 67.8597 216.247C67.3987 218.231 66.8463 220.195 66.2493 222.142C63.8603 229.928 61.4787 237.717 59.3789 245.588C58.8116 247.716 58.8449 247.732 61.1153 247.732C84.3123 247.733 107.508 247.734 130.705 247.726C131.281 247.726 131.888 247.872 132.602 247.432L132.601 247.435ZM135.139 228.71C134.968 230.173 135.772 231.431 136 232.803C136.123 233.552 136.81 233.5 137.443 233.275C144.647 230.715 152.157 229.23 159.486 227.11C162.833 226.142 162.849 226.206 161.319 223.159C160.665 221.858 159.978 220.931 158.345 221.727C157.943 221.922 157.505 221.702 157.093 221.559C154.619 220.704 153.335 218.866 153.382 215.969C153.399 214.922 153.099 214.495 152.039 214.499C147.345 214.522 142.651 214.522 137.957 214.499C136.815 214.495 136.462 215.054 136.462 216.1C136.462 217.602 136.379 219.105 136.32 220.607C136.211 223.359 135.556 226.015 135.141 228.707L135.139 228.71ZM139.304 177.8C139.155 178.454 139.102 178.701 139.042 178.948C137.977 183.33 138.779 187.845 138.112 192.251C137.532 196.077 138.19 199.99 137.261 203.789C136.971 204.976 137.488 205.503 138.695 205.462C142.617 205.325 146.532 205.882 150.464 205.486C151.788 205.353 151.849 204.987 151.355 203.924C147.381 195.363 143.444 186.786 139.304 177.801V177.8ZM154.126 247.732V247.723C156.28 247.723 158.435 247.727 160.589 247.721C161.24 247.719 161.897 247.727 162.293 247.053C163.743 244.581 166.17 243.26 168.513 241.846C169.617 241.181 170.799 240.633 171.846 239.891C173.038 239.047 172.873 238.354 171.65 237.584C169.493 236.226 167.32 235.681 164.799 236.584C163.454 237.064 161.961 237.122 160.542 237.407C156.07 238.301 151.598 239.203 147.132 240.129C146.422 240.276 145.938 240.572 146.478 241.47C147.429 243.056 147.842 244.714 146.852 246.49C146.268 247.538 146.865 247.759 147.825 247.743C149.925 247.708 152.026 247.732 154.127 247.732H154.126ZM178.136 81.3387C180.556 80.1081 182.66 78.6274 184.118 76.3017C184.813 75.1919 185.785 74.1054 187.038 73.5708C189.493 72.5237 191.112 70.6181 192.61 68.5646C193.821 66.9041 195.065 65.2424 196.736 64.0549C197.904 63.2246 197.934 62.4609 197.343 61.356C197.03 60.7696 196.467 60.113 197.103 59.4368C198.486 57.9672 198.827 55.6353 200.971 54.7928C201.073 54.7521 201.104 54.5329 201.215 54.2963C200.199 54.018 199.401 54.8211 198.525 54.6979C195.426 54.2631 194.347 56.643 193.69 58.7112C192.889 61.2279 191.553 63.1483 189.549 64.6696C183.869 68.9847 181.544 75.5208 178.136 81.3399V81.3387ZM246.134 123.738C246.198 127.26 244.429 129.997 242.577 132.705C242.368 133.009 242.179 133.363 242.107 133.72C241.211 138.152 240.81 142.614 241.376 147.126C241.421 147.483 241.338 147.967 241.846 148.014C242.289 148.053 242.46 147.644 242.601 147.288C243.335 145.446 244.018 143.587 244.62 141.692C245.46 139.047 245.964 136.278 247.512 133.877C248.127 132.923 247.907 131.797 247.692 130.738C247.521 129.899 247.372 129.045 247.086 128.244C246.57 126.797 246.726 125.22 246.135 123.738H246.134ZM187.254 190.755C187.371 190.742 187.485 190.731 187.602 190.719C187.602 187.467 187.605 184.215 187.599 180.963C187.598 180.308 187.163 180.07 186.588 179.907C185.252 179.532 184.073 178.662 183.945 177.352C183.743 175.297 182.489 175.342 181.041 175.343C180.239 175.343 179.437 175.223 178.634 175.188C178.27 175.172 177.834 175.093 177.614 175.489C177.393 175.889 177.714 176.201 177.913 176.504C181.024 181.256 184.14 186.005 187.254 190.755ZM57.4792 99.433C57.1455 98.2123 56.1964 97.1086 55.5685 95.8497C55.2459 95.2042 54.4636 95.0095 53.7233 95.3003C52.8903 95.6267 52.941 96.3843 52.9929 97.0729C53.088 98.3478 55.5401 100.606 56.7896 100.629C57.5571 100.644 57.431 100.087 57.4792 99.4318V99.433Z" fill="#780E08"/>
</g>
<path d="M13.104 299.72V303.024H8.736V319.712H4.704V303.024H0.336V299.72H13.104ZM15.0491 319.712V299.72H19.0811V319.712H15.0491ZM26.2999 316.744H28.0919C28.8012 316.744 29.3705 316.623 29.7999 316.38C30.2292 316.137 30.5652 315.736 30.8079 315.176C31.0692 314.616 31.2372 313.879 31.3119 312.964C31.4052 312.049 31.4519 310.911 31.4519 309.548C31.4519 308.409 31.4145 307.411 31.3399 306.552C31.2652 305.693 31.1065 304.984 30.8639 304.424C30.6399 303.845 30.2945 303.416 29.8279 303.136C29.3799 302.837 28.7732 302.688 28.0079 302.688H26.2999V316.744ZM22.2679 299.72H28.8759C30.2759 299.72 31.4052 299.953 32.2639 300.42C33.1225 300.868 33.7852 301.521 34.2519 302.38C34.7372 303.22 35.0639 304.237 35.2319 305.432C35.3999 306.627 35.4839 307.961 35.4839 309.436C35.4839 311.191 35.3719 312.721 35.1479 314.028C34.9425 315.316 34.5785 316.38 34.0559 317.22C33.5332 318.06 32.8332 318.685 31.9559 319.096C31.0785 319.507 29.9679 319.712 28.6239 319.712H22.2679V299.72ZM55.4046 313.132C55.6099 312.703 55.7779 312.199 55.9086 311.62C56.0392 311.041 56.1046 310.537 56.1046 310.108H59.5766C59.5766 311.191 59.3806 312.236 58.9886 313.244C58.6152 314.233 58.1299 315.157 57.5326 316.016L60.1646 319.712H55.8806L54.7606 318.172C54.2566 318.769 53.5752 319.227 52.7166 319.544C51.8766 319.861 50.9526 320.02 49.9446 320.02C48.6939 320.02 47.6672 319.843 46.8646 319.488C46.0619 319.115 45.4366 318.639 44.9886 318.06C44.5406 317.481 44.2326 316.856 44.0646 316.184C43.8966 315.512 43.8126 314.896 43.8126 314.336C43.8126 313.16 44.1672 312.105 44.8766 311.172C45.6046 310.22 46.5939 309.352 47.8446 308.568L47.1446 307.532C46.8646 307.121 46.6312 306.757 46.4446 306.44C46.2766 306.123 46.1459 305.824 46.0526 305.544C45.9592 305.264 45.8939 304.993 45.8566 304.732C45.8192 304.471 45.8006 304.2 45.8006 303.92C45.8006 303.267 45.9219 302.688 46.1646 302.184C46.4259 301.661 46.7806 301.223 47.2286 300.868C47.6766 300.495 48.2086 300.215 48.8246 300.028C49.4592 299.823 50.1499 299.72 50.8966 299.72C51.7552 299.72 52.4926 299.832 53.1086 300.056C53.7432 300.261 54.2659 300.56 54.6766 300.952C55.0872 301.325 55.3859 301.764 55.5726 302.268C55.7779 302.772 55.8806 303.313 55.8806 303.892C55.8806 304.9 55.5912 305.805 55.0126 306.608C54.4526 307.411 53.5846 308.232 52.4086 309.072L55.4046 313.132ZM49.7206 310.948C48.9366 311.545 48.3952 312.105 48.0966 312.628C47.8166 313.151 47.6766 313.72 47.6766 314.336C47.6766 314.635 47.7326 314.943 47.8446 315.26C47.9752 315.577 48.1526 315.867 48.3766 316.128C48.6192 316.371 48.9179 316.576 49.2726 316.744C49.6272 316.893 50.0286 316.968 50.4766 316.968C51.5406 316.968 52.4086 316.548 53.0806 315.708L49.7206 310.948ZM49.1046 303.808C49.1046 304.368 49.4406 305.096 50.1126 305.992L50.5886 306.664L51.3166 306.048C51.7646 305.675 52.0819 305.311 52.2686 304.956C52.4739 304.583 52.5766 304.219 52.5766 303.864C52.5766 303.323 52.4086 302.912 52.0726 302.632C51.7552 302.333 51.3352 302.184 50.8126 302.184C50.3272 302.184 49.9166 302.324 49.5806 302.604C49.2632 302.884 49.1046 303.285 49.1046 303.808ZM68.2008 299.72H72.2328V307.364H76.9368V299.72H80.9688V319.712H76.9368V310.836H72.2328V319.712H68.2008V299.72ZM86.7554 299.72L89.5834 314.504H89.6674L92.6354 299.72H96.8074L92.2154 319.712H87.0354L82.4434 299.72H86.7554ZM109.451 299.72V303.024H102.311V307.728H109.031V311.032H102.311V316.408H109.731V319.712H98.2789V299.72H109.451ZM111.759 299.72H119.207C120.887 299.72 122.194 300.149 123.127 301.008C124.061 301.848 124.527 303.136 124.527 304.872C124.527 306.216 124.257 307.317 123.715 308.176C123.174 309.016 122.334 309.557 121.195 309.8V309.856C122.203 310.005 122.941 310.332 123.407 310.836C123.874 311.34 124.163 312.152 124.275 313.272C124.313 313.645 124.341 314.056 124.359 314.504C124.378 314.933 124.397 315.419 124.415 315.96C124.453 317.024 124.509 317.836 124.583 318.396C124.695 318.956 124.938 319.339 125.311 319.544V319.712H120.943C120.738 319.432 120.607 319.115 120.551 318.76C120.495 318.387 120.458 318.004 120.439 317.612L120.327 313.776C120.29 312.992 120.094 312.376 119.739 311.928C119.385 311.48 118.787 311.256 117.947 311.256H115.791V319.712H111.759V299.72ZM115.791 308.456H117.471C118.442 308.456 119.189 308.232 119.711 307.784C120.234 307.317 120.495 306.543 120.495 305.46C120.495 303.612 119.562 302.688 117.695 302.688H115.791V308.456ZM131.546 316.744H133.338C134.047 316.744 134.617 316.623 135.046 316.38C135.475 316.137 135.811 315.736 136.054 315.176C136.315 314.616 136.483 313.879 136.558 312.964C136.651 312.049 136.698 310.911 136.698 309.548C136.698 308.409 136.661 307.411 136.586 306.552C136.511 305.693 136.353 304.984 136.11 304.424C135.886 303.845 135.541 303.416 135.074 303.136C134.626 302.837 134.019 302.688 133.254 302.688H131.546V316.744ZM127.514 299.72H134.122C135.522 299.72 136.651 299.953 137.51 300.42C138.369 300.868 139.031 301.521 139.498 302.38C139.983 303.22 140.31 304.237 140.478 305.432C140.646 306.627 140.73 307.961 140.73 309.436C140.73 311.191 140.618 312.721 140.394 314.028C140.189 315.316 139.825 316.38 139.302 317.22C138.779 318.06 138.079 318.685 137.202 319.096C136.325 319.507 135.214 319.712 133.87 319.712H127.514V299.72ZM151.74 312.18L149.808 303.192H149.752L147.82 312.18H151.74ZM152.272 299.72L157.564 319.712H153.364L152.44 315.484H147.12L146.196 319.712H141.996L147.288 299.72H152.272ZM167.831 305.656C167.831 305.283 167.784 304.9 167.691 304.508C167.616 304.116 167.485 303.761 167.299 303.444C167.112 303.108 166.869 302.837 166.571 302.632C166.291 302.408 165.945 302.296 165.535 302.296C164.564 302.296 163.864 302.837 163.435 303.92C163.005 305.003 162.791 306.795 162.791 309.296C162.791 310.491 162.828 311.573 162.903 312.544C162.977 313.515 163.108 314.345 163.295 315.036C163.5 315.708 163.78 316.231 164.135 316.604C164.508 316.959 164.984 317.136 165.563 317.136C165.805 317.136 166.067 317.071 166.347 316.94C166.645 316.809 166.916 316.613 167.159 316.352C167.42 316.091 167.635 315.764 167.803 315.372C167.971 314.961 168.055 314.485 168.055 313.944V311.9H165.395V308.932H171.919V319.712H168.951V317.864H168.895C168.409 318.648 167.821 319.208 167.131 319.544C166.459 319.861 165.647 320.02 164.695 320.02C163.463 320.02 162.455 319.805 161.671 319.376C160.905 318.947 160.299 318.284 159.851 317.388C159.421 316.492 159.132 315.391 158.983 314.084C158.833 312.759 158.759 311.228 158.759 309.492C158.759 307.812 158.861 306.337 159.067 305.068C159.291 303.799 159.664 302.744 160.187 301.904C160.709 301.045 161.4 300.401 162.259 299.972C163.117 299.543 164.191 299.328 165.479 299.328C167.681 299.328 169.268 299.879 170.239 300.98C171.209 302.063 171.695 303.621 171.695 305.656H167.831ZM177.761 313.468V314.056C177.761 314.523 177.799 314.952 177.873 315.344C177.948 315.717 178.088 316.035 178.293 316.296C178.499 316.557 178.769 316.763 179.105 316.912C179.46 317.061 179.899 317.136 180.421 317.136C181.037 317.136 181.588 316.94 182.073 316.548C182.577 316.137 182.829 315.512 182.829 314.672C182.829 314.224 182.764 313.841 182.633 313.524C182.521 313.188 182.325 312.889 182.045 312.628C181.765 312.367 181.392 312.133 180.925 311.928C180.477 311.704 179.917 311.48 179.245 311.256C178.349 310.957 177.575 310.631 176.921 310.276C176.268 309.921 175.717 309.511 175.269 309.044C174.84 308.559 174.523 308.008 174.317 307.392C174.112 306.757 174.009 306.029 174.009 305.208C174.009 303.229 174.56 301.755 175.661 300.784C176.763 299.813 178.275 299.328 180.197 299.328C181.093 299.328 181.915 299.431 182.661 299.636C183.427 299.823 184.08 300.14 184.621 300.588C185.181 301.017 185.611 301.577 185.909 302.268C186.227 302.94 186.385 303.752 186.385 304.704V305.264H182.521C182.521 304.312 182.353 303.584 182.017 303.08C181.681 302.557 181.121 302.296 180.337 302.296C179.889 302.296 179.516 302.361 179.217 302.492C178.919 302.623 178.676 302.8 178.489 303.024C178.321 303.229 178.2 303.472 178.125 303.752C178.069 304.032 178.041 304.321 178.041 304.62C178.041 305.236 178.172 305.759 178.433 306.188C178.695 306.599 179.255 306.981 180.113 307.336L183.221 308.68C183.987 309.016 184.612 309.371 185.097 309.744C185.583 310.099 185.965 310.491 186.245 310.92C186.544 311.331 186.749 311.788 186.861 312.292C186.973 312.796 187.029 313.356 187.029 313.972C187.029 316.081 186.413 317.621 185.181 318.592C183.968 319.544 182.269 320.02 180.085 320.02C177.808 320.02 176.175 319.525 175.185 318.536C174.215 317.547 173.729 316.128 173.729 314.28V313.468H177.761ZM192.281 313.468V314.056C192.281 314.523 192.318 314.952 192.393 315.344C192.467 315.717 192.607 316.035 192.813 316.296C193.018 316.557 193.289 316.763 193.625 316.912C193.979 317.061 194.418 317.136 194.941 317.136C195.557 317.136 196.107 316.94 196.593 316.548C197.097 316.137 197.349 315.512 197.349 314.672C197.349 314.224 197.283 313.841 197.153 313.524C197.041 313.188 196.845 312.889 196.565 312.628C196.285 312.367 195.911 312.133 195.445 311.928C194.997 311.704 194.437 311.48 193.765 311.256C192.869 310.957 192.094 310.631 191.441 310.276C190.787 309.921 190.237 309.511 189.789 309.044C189.359 308.559 189.042 308.008 188.837 307.392C188.631 306.757 188.529 306.029 188.529 305.208C188.529 303.229 189.079 301.755 190.181 300.784C191.282 299.813 192.794 299.328 194.717 299.328C195.613 299.328 196.434 299.431 197.181 299.636C197.946 299.823 198.599 300.14 199.141 300.588C199.701 301.017 200.13 301.577 200.429 302.268C200.746 302.94 200.905 303.752 200.905 304.704V305.264H197.041C197.041 304.312 196.873 303.584 196.537 303.08C196.201 302.557 195.641 302.296 194.857 302.296C194.409 302.296 194.035 302.361 193.737 302.492C193.438 302.623 193.195 302.8 193.009 303.024C192.841 303.229 192.719 303.472 192.645 303.752C192.589 304.032 192.561 304.321 192.561 304.62C192.561 305.236 192.691 305.759 192.953 306.188C193.214 306.599 193.774 306.981 194.633 307.336L197.741 308.68C198.506 309.016 199.131 309.371 199.617 309.744C200.102 310.099 200.485 310.491 200.765 310.92C201.063 311.331 201.269 311.788 201.381 312.292C201.493 312.796 201.549 313.356 201.549 313.972C201.549 316.081 200.933 317.621 199.701 318.592C198.487 319.544 196.789 320.02 194.605 320.02C192.327 320.02 190.694 319.525 189.705 318.536C188.734 317.547 188.249 316.128 188.249 314.28V313.468H192.281ZM215.256 299.72V303.024H210.888V319.712H206.856V303.024H202.488V299.72H215.256ZM217.005 299.72H224.453C226.133 299.72 227.44 300.149 228.373 301.008C229.307 301.848 229.773 303.136 229.773 304.872C229.773 306.216 229.503 307.317 228.961 308.176C228.42 309.016 227.58 309.557 226.441 309.8V309.856C227.449 310.005 228.187 310.332 228.653 310.836C229.12 311.34 229.409 312.152 229.521 313.272C229.559 313.645 229.587 314.056 229.605 314.504C229.624 314.933 229.643 315.419 229.661 315.96C229.699 317.024 229.755 317.836 229.829 318.396C229.941 318.956 230.184 319.339 230.557 319.544V319.712H226.189C225.984 319.432 225.853 319.115 225.797 318.76C225.741 318.387 225.704 318.004 225.685 317.612L225.573 313.776C225.536 312.992 225.34 312.376 224.985 311.928C224.631 311.48 224.033 311.256 223.193 311.256H221.037V319.712H217.005V299.72ZM221.037 308.456H222.717C223.688 308.456 224.435 308.232 224.957 307.784C225.48 307.317 225.741 306.543 225.741 305.46C225.741 303.612 224.808 302.688 222.941 302.688H221.037V308.456ZM235.292 299.72L237.924 307.448H237.98L240.78 299.72H245.148L239.968 311.844V319.712H235.936V311.844L230.756 299.72H235.292ZM250.651 299.72V307.728H250.707L255.803 299.72H260.171L254.739 308.288L260.787 319.712H256.251L252.135 311.508L250.651 313.776V319.712H246.619V299.72H250.651ZM273.362 299.72V303.024H268.994V319.712H264.962V303.024H260.594V299.72H273.362ZM278.891 299.72V313.664C278.891 314.168 278.919 314.635 278.975 315.064C279.05 315.475 279.171 315.839 279.339 316.156C279.526 316.455 279.768 316.697 280.067 316.884C280.384 317.052 280.776 317.136 281.243 317.136C281.728 317.136 282.12 317.052 282.419 316.884C282.718 316.697 282.951 316.455 283.119 316.156C283.306 315.839 283.427 315.475 283.483 315.064C283.558 314.635 283.595 314.168 283.595 313.664V299.72H287.627V313.664C287.627 314.933 287.45 315.988 287.095 316.828C286.74 317.649 286.264 318.303 285.667 318.788C285.07 319.273 284.388 319.6 283.623 319.768C282.858 319.936 282.064 320.02 281.243 320.02C280.422 320.02 279.628 319.945 278.863 319.796C278.098 319.647 277.416 319.348 276.819 318.9C276.222 318.433 275.746 317.78 275.391 316.94C275.036 316.1 274.859 315.008 274.859 313.664V299.72H278.891ZM290.177 299.72H297.625C299.305 299.72 300.612 300.149 301.545 301.008C302.479 301.848 302.945 303.136 302.945 304.872C302.945 306.216 302.675 307.317 302.133 308.176C301.592 309.016 300.752 309.557 299.613 309.8V309.856C300.621 310.005 301.359 310.332 301.825 310.836C302.292 311.34 302.581 312.152 302.693 313.272C302.731 313.645 302.759 314.056 302.777 314.504C302.796 314.933 302.815 315.419 302.833 315.96C302.871 317.024 302.927 317.836 303.001 318.396C303.113 318.956 303.356 319.339 303.729 319.544V319.712H299.361C299.156 319.432 299.025 319.115 298.969 318.76C298.913 318.387 298.876 318.004 298.857 317.612L298.745 313.776C298.708 312.992 298.512 312.376 298.157 311.928C297.803 311.48 297.205 311.256 296.365 311.256H294.209V319.712H290.177V299.72ZM294.209 308.456H295.889C296.86 308.456 297.607 308.232 298.129 307.784C298.652 307.317 298.913 306.543 298.913 305.46C298.913 303.612 297.98 302.688 296.113 302.688H294.209V308.456Z" fill="#780E08"/>
<defs>
<clipPath id="clip0_449_1678">
<rect width="226" height="271" fill="white" transform="translate(40)"/>
</clipPath>
</defs>
</svg>
