<svg width="479" height="436" viewBox="0 0 479 436" fill="none" xmlns="http://www.w3.org/2000/svg">
<path d="M469.81 86.9215C469.92 109.838 470.016 132.754 470.155 155.668C470.179 159.753 469.999 163.81 469.681 167.86C469.586 169.057 469.684 170.186 469.88 171.348C470.072 172.484 470.299 173.688 470.217 174.822C469.519 184.469 470.699 194.077 470.498 203.727C470.298 213.408 470.22 223.133 470.646 232.794C472.456 273.746 471.66 314.756 472.574 355.716C472.834 367.351 472.925 379.01 473.335 390.645C473.683 400.51 472.252 410.257 472.473 420.125C472.527 422.569 472.969 423.15 474.559 422.907C475.398 422.778 476.264 422.914 477.114 423.008C477.594 423.061 478.02 423.368 478.039 424.161C478.059 424.994 477.619 425.312 477.139 425.264C475.953 425.145 475.206 425.807 474.613 427.227C474.102 428.45 473.101 428.492 472.152 428.497C468.997 428.514 465.841 428.47 462.689 428.61C445.282 429.384 427.868 429.367 410.455 429.384C406.599 429.388 402.693 428.708 398.899 429.595C390.673 431.518 382.4 430.436 374.154 430.73C361.215 431.193 348.267 431.2 335.327 431.625C293.405 433.001 251.471 432.09 209.546 432.833C204.617 432.921 199.685 433.055 194.759 432.907C192.619 432.842 190.7 434.367 188.558 434.025C187.329 433.829 186.061 434.164 184.887 433.308C184.619 433.112 184.217 433.035 183.933 433.154C179.927 434.83 175.93 434.301 171.914 433.198C171.153 432.988 170.341 433.123 169.552 433.128C148.257 433.209 126.96 433.629 105.668 433.303C73.4625 432.813 41.2644 433.498 9.06097 433.411C8.00962 433.409 6.9583 433.413 5.90685 433.39C3.00393 433.325 2.60379 432.815 2.57079 428.816C2.41919 410.338 2.48546 391.855 2.07641 373.387C1.79388 360.616 2.22447 347.854 1.91156 335.102C1.38838 313.821 1.34819 292.536 1.47412 271.26C1.6387 243.465 2.3624 215.657 1.59457 187.878C0.954071 164.703 0.782913 141.537 0.654377 118.363C0.544426 98.7261 0.304946 79.0858 0.432703 59.4517C0.544096 42.4271 0.439144 25.406 0.424086 8.38435C0.422397 4.55929 1.23947 3.37462 3.84637 3.35084C25.8596 3.15797 47.8674 2.16947 69.885 2.5665C74.877 2.65671 79.8873 2.4298 84.8525 2.97783C86.9335 3.20698 88.811 3.58849 90.9687 3.00473C93.3761 2.35441 96.0661 2.19998 98.5296 3.71379C98.8643 3.91965 99.3306 3.9274 99.6941 3.80349C105.719 1.74204 111.902 2.30598 117.91 2.99061C129.471 4.30799 141.001 3.10629 152.539 3.54626C156.603 3.70073 160.66 3.6285 164.735 3.96975C170.076 4.419 175.464 3.88125 180.774 2.59659C181.608 2.39433 182.477 2.4165 183.328 2.41147C196.145 2.33585 208.979 1.61352 221.773 2.33158C267.623 4.90151 313.467 2.37837 359.312 2.98331C371.272 3.14157 383.236 2.9786 395.196 2.74218C397.789 2.69119 400.256 3.53528 402.797 3.77641C406.129 4.09265 409.469 3.73705 412.805 3.94199C418.226 4.2711 423.765 3.91092 429.246 2.88976C432.955 2.19818 436.772 2.55565 440.596 3.19858C445.715 4.05641 450.936 4.54205 456.123 3.80816C459.402 3.34374 462.688 3.45662 465.969 3.49604C468.571 3.52687 468.989 4.26339 469.13 7.86928C469.864 26.6943 469.467 45.5364 469.694 64.3686C469.783 71.8859 469.775 79.4039 469.811 86.9215L469.81 86.9215ZM30.3194 199.016C29.4686 198.272 29.0918 197.235 28.6209 196.257C27.3788 193.674 27.0543 190.52 25.7636 187.958C24.0359 184.528 24.0815 184.49 22.4783 187.923C22.231 188.454 22.0177 189.08 21.6674 189.442C20.7366 190.404 19.5945 191.49 18.5002 190.795C15.7583 189.059 14.5996 185.125 12.775 182.125C12.4018 181.512 12.7635 180.37 12.9879 179.51C13.1196 179.006 13.3275 178.517 13.3692 177.999C13.4224 177.356 13.0811 177.03 12.6404 176.957C12.1921 176.884 12.0085 177.362 12.0563 177.796C12.3191 180.152 11.111 182.101 11.0175 184.187C10.7618 189.924 10.8794 195.673 10.2122 201.404C9.85382 204.492 10.2351 207.734 10.162 210.9C9.69819 230.983 11.0152 251.006 11.3588 271.061C11.5389 281.553 10.4036 291.951 10.6598 302.407C11.0523 318.391 10.1254 334.4 11.5585 350.374C12.2493 358.079 11.5418 365.857 11.0321 373.594C10.707 378.538 11.2507 383.548 10.8176 388.516C10.7266 389.56 10.9676 390.554 11.4162 391.326C12.8174 393.732 13.8874 396.331 15.7762 398.423C17.8289 400.695 19.5272 403.733 21.7126 406.036C23.0006 407.393 24.5586 408.503 25.5384 410.107C27.0297 412.546 28.9188 414.387 30.3341 416.881C32.0491 419.907 34.6519 421.556 36.4941 424.405C37.3844 425.781 38.6773 426.252 39.9268 425.971C41.6178 425.592 43.3119 425.859 45.0066 425.62C46.4699 425.414 47.9613 425.042 49.4984 425.306C53.599 426.01 57.7314 426.368 61.8433 425.628C63.5133 425.326 65.139 426.879 66.8273 425.632C67.1264 425.412 67.7697 426.109 68.2645 426.346C68.7532 426.58 69.2469 426.89 69.753 426.952C74.6058 427.56 79.4399 426.494 84.2994 426.585C86.1478 426.618 88.2321 427.248 90.1135 425.898C90.5371 425.593 91.2854 425.935 91.829 426.196C96.5604 428.467 101.334 427.263 106.03 426.276C108.502 425.756 110.961 425.391 113.419 425.477C119.463 425.691 125.506 425.666 131.543 425.393C133.485 425.306 135.406 424.541 137.397 424.76C143.268 425.406 149.154 425.424 155.032 426.289C161.759 427.281 168.463 425.727 175.151 424.468C179.107 423.723 183.148 423.642 187.125 424.488C189.145 424.917 191.064 424.859 192.884 423.641C194.157 422.788 195.554 422.509 196.7 423.268C200.594 425.848 204.682 424.915 208.723 425.085C209.943 425.136 210.854 423.615 212.129 424.137C216.266 425.829 220.454 424.948 224.639 424.634C230.535 424.19 236.426 424.251 242.263 425.798C242.907 425.968 243.824 426.299 244.138 425.568C245.183 423.135 246.854 423.959 248.341 423.65C250.847 423.129 253.331 422.369 255.844 423.606C256.074 423.718 256.379 423.666 256.625 423.57C261.722 421.587 266.939 422.833 272.096 422.536C272.614 422.505 273.24 422.451 273.641 422.795C274.854 423.834 275.919 422.899 277.038 422.58C277.363 422.486 277.718 422.387 277.758 421.833C277.801 421.236 277.595 420.687 277.183 420.551C275.764 420.077 275.285 418.146 274.253 417.086C273.92 416.743 273.613 416.365 273.761 415.749C273.93 415.043 274.401 414.861 274.875 414.863C276.056 414.869 277.257 414.746 278.417 414.989C282.995 415.944 287.378 418.175 292.021 418.912C293.524 419.151 295.828 419.503 296.213 422.897C296.283 423.516 297.004 423.823 297.385 423.535C298.89 422.397 300.718 423.761 302.201 422.144C302.968 421.308 304.091 421.715 305.082 421.846C309.173 422.384 313.271 423.284 317.362 423.253C322.178 423.216 326.984 423.516 331.844 422.362C336.251 421.315 340.885 422.052 345.421 422.019C355.459 421.945 365.499 421.743 375.536 421.869C381.417 421.941 387.288 421.35 393.203 422.606C396.772 423.364 400.546 422.628 404.231 422.766C412.044 423.06 419.866 422.275 427.676 423.182C428.327 423.258 429.025 423.34 429.638 423.105C431.716 422.308 433.819 422.633 435.911 422.482C438.285 422.309 440.691 422.5 443.117 421.604C446.304 420.427 449.688 421.708 452.968 421.972C454.341 422.082 455.433 420.837 456.735 421.371C459.052 422.321 461.368 420.976 463.689 421.355C464.925 421.557 465.438 420.776 465.561 419.064C465.936 413.817 465.622 408.565 465.668 403.318C465.696 400.202 464.868 399.617 462.919 401.346C462.177 402.003 461.564 402.525 460.819 401.661C460.099 400.825 460.209 399.655 460.515 398.648C460.979 397.121 461.139 395.533 461.349 393.926C461.948 389.341 462.27 384.597 464.696 380.9C465.015 380.413 465.129 379.819 465.16 379.157C465.472 372.225 465.987 365.296 465.474 358.346C465.325 356.338 466.31 354.779 466.29 352.835C466.241 347.763 466.287 342.691 466.282 337.618C466.28 335.391 466.527 333.105 465.075 331.334C464.583 330.734 464.677 329.655 464.714 328.737C465.149 317.528 465.304 306.308 465.121 295.086C464.876 279.972 464.234 264.87 464.31 249.746C464.328 245.961 464.543 242.193 464.296 238.391C464.152 236.168 463.804 234.759 462.108 233.911C460.259 232.983 458.242 232.227 457.151 229.428C456.025 226.534 456.684 224.183 459.04 223.65C460.071 223.418 461.146 223.575 462.184 223.382C463.724 223.094 464.424 221.813 463.877 219.734C462.92 216.086 462.747 212.115 462.394 208.452C461.64 200.626 461.319 192.625 461.592 184.627C461.763 179.625 461.776 174.589 461.368 169.517C460.898 163.675 460.568 157.624 462.534 151.984C462.784 151.269 463.135 150.261 462.782 149.642C461.145 146.769 462.099 143.283 461.457 140.194C461.329 139.582 461.189 138.804 461.629 138.432C462.821 137.421 462.042 136.777 461.494 135.985C461.043 135.33 460.639 134.606 460.253 133.876C458.643 130.833 458.663 130.337 461.07 128.251C462.511 127.002 462.931 125.181 462.275 123.401C460.836 119.502 462.255 115.253 461.211 111.363C461.115 111.004 461.214 110.361 461.401 110.071C463.334 107.061 461.923 103.631 461.712 100.624C461.061 91.344 460.43 82.0958 461.174 72.8038C461.842 64.4695 460.924 56.069 462.26 47.6825C462.794 44.3309 462.327 40.1391 462.095 36.4938C461.658 29.6524 463.55 22.2515 460.133 15.942C460.655 12.5967 458.634 12.8291 457.352 12.5217C455.356 12.0464 453.301 12.0544 451.272 11.8501C448.269 11.5487 445.224 11.5562 442.279 10.8178C440.564 10.3891 438.814 9.82844 437.244 10.4822C434.766 11.515 432.27 11.5549 429.841 11.1473C427.616 10.7741 425.567 9.94439 423.885 12.7927C423.671 13.155 423.176 13.3574 422.806 13.368C420.509 13.4277 418.137 13.9225 415.928 13.3141C411.365 12.0583 406.668 12.2393 402.157 10.578C401.597 10.3713 400.945 10.4256 400.468 11.0162C399.44 12.2882 398.193 12.2683 396.936 12.2358C389.315 12.0372 381.696 11.8387 374.075 11.6338C373.682 11.6235 373.283 11.6112 372.897 11.5106C367.293 10.051 361.559 9.26818 355.943 9.33071C325.879 9.66345 295.793 8.16567 265.75 10.6334C263.449 10.8212 261.199 10.0052 258.942 9.80229C247.69 8.7938 236.409 9.0787 225.14 7.85198C215.996 6.85624 206.762 7.30541 197.568 7.41424C179.436 7.6283 161.303 7.63872 143.17 7.97875C133.459 8.16201 123.724 7.98012 114.001 7.86744C110.849 7.83146 107.724 8.61197 104.557 8.31155C95.2716 7.43002 85.9294 8.90432 76.6684 6.99605C74.6415 6.57763 72.8337 8.01798 70.8823 8.10297C67.1759 8.2613 63.5223 7.98894 59.7959 7.45459C54.0415 6.6299 48.1472 6.14824 42.2984 6.90703C38.8661 7.35136 35.4099 8.18631 32.0515 8.47485C28.1997 8.80408 24.0464 9.4731 20.1709 7.41968C19.8302 7.23905 19.3228 7.23154 19.01 7.45592C17.1924 8.74727 15.1661 8.47581 13.2472 8.98468C12.1516 9.27456 11.637 10.004 11.1455 11.3883C10.3563 13.6141 11.6355 15.3616 11.5173 17.3987C10.8158 29.5939 11.9915 41.797 11.4775 54.0142C11.2041 60.5008 11.5906 67.0338 11.939 73.5462C12.5855 85.6662 11.5896 97.7813 11.7136 109.904C11.722 110.702 11.5278 111.499 11.4555 112.301C11.0186 117.124 8.40921 122.01 11.6866 126.74C11.7649 126.852 11.7629 127.081 11.7836 127.26C12.3699 132.259 14.3955 136.496 15.898 140.944C18.8009 149.537 21.7252 158.142 24.0414 167.025C26.5998 176.837 28.3783 187.034 30.4943 197.065C30.6206 197.667 30.7943 198.285 30.321 199.033L30.3194 199.016ZM293.746 423.092C287.719 420.506 285.121 420.055 283.099 421.228C286.764 422.964 290.229 423.367 293.746 423.092Z" fill="#780E08"/>
<path d="M123.263 143.493C125.077 144.453 126.223 145.866 126.703 147.733C125.637 153.706 124.677 159.653 123.823 165.573C122.97 171.44 122.143 176.373 121.343 180.373C120.543 184.32 119.983 187.28 119.663 189.253C119.397 191.226 119.077 193.2 118.703 195.173L118.223 196.853C118.117 197.44 118.01 197.973 117.903 198.453C117.797 198.986 117.69 199.546 117.583 200.133C116.09 201.84 114.063 202.693 111.503 202.693C108.783 202.693 106.623 202 105.023 200.613C104.063 199.866 103.903 198.293 104.543 195.893C104.81 194.933 104.97 193.706 105.023 192.213C105.13 190.666 105.237 189.386 105.343 188.373V188.213C103.743 188.8 102.303 189.573 101.023 190.533C99.7434 191.44 98.9434 192.026 98.6234 192.293C98.3034 192.506 97.8768 192.693 97.3434 192.853C96.8101 192.96 96.3301 193.04 95.9034 193.093C94.8901 193.146 94.1968 193.306 93.8234 193.573C90.7301 199.12 87.9568 202.213 85.5034 202.853C83.9568 203.333 82.4101 203.44 80.8634 203.173C79.3168 202.96 78.0901 202.053 77.1834 200.453C75.4768 198.853 75.9034 194.48 78.4634 187.333C79.8501 183.546 81.8234 179.013 84.3834 173.733C86.9968 168.4 89.5034 163.76 91.9034 159.813C97.0768 151.333 102.757 144.186 108.943 138.373C109.957 137.946 111.05 137.466 112.223 136.933C113.397 136.346 114.543 136.026 115.663 135.973C116.837 135.92 118.037 136.053 119.263 136.373C120.49 136.693 121.53 137.173 122.383 137.813C124.357 139.306 124.65 141.2 123.263 143.493ZM106.143 164.533C105.023 167.733 103.903 170.693 102.783 173.413C101.663 176.08 100.703 178.426 99.9034 180.453L106.223 180.213C106.65 176.8 107.13 173.413 107.663 170.053C108.197 166.693 108.703 163.333 109.183 159.973L106.143 164.533ZM103.983 180.533C104.73 180.533 105.477 180.48 106.223 180.373V180.293C105.53 180.346 104.89 180.4 104.303 180.453C103.717 180.506 103.61 180.533 103.983 180.533ZM138.18 197.973C137.7 200.106 136.046 201.413 133.22 201.893C130.606 202.373 128.126 202.08 125.78 201.013C123.166 199.893 122.02 198.32 122.34 196.293C122.02 193.2 123.646 186.48 127.22 176.133C132.553 160.613 137.886 149.52 143.22 142.853C144.606 141.146 145.78 140.053 146.74 139.573C147.753 139.04 148.9 138.56 150.18 138.133C151.46 137.706 152.793 137.306 154.18 136.933C156.953 136.186 159.566 135.68 162.02 135.413C164.526 135.093 166.766 135.386 168.74 136.293C170.713 137.146 172.233 138.426 173.3 140.133C174.42 141.84 175.113 143.866 175.38 146.213C175.646 148.506 175.566 150.933 175.14 153.493C174.713 156 173.94 158.56 172.82 161.173C171.7 163.733 170.286 166.133 168.58 168.373C164.846 173.28 160.473 176.453 155.46 177.893L156.26 179.253C156.953 180.32 157.78 181.493 158.74 182.773C159.753 184.053 160.74 185.36 161.7 186.693C162.713 188.026 163.62 189.36 164.42 190.693C165.22 192.026 165.806 193.28 166.18 194.453C167.033 197.066 166.366 198.96 164.18 200.133C162.42 201.2 161.033 201.466 160.02 200.933C159.593 200.666 159.166 200.32 158.74 199.893C158.313 199.52 157.726 199.2 156.98 198.933C153.833 199.84 151.433 199.04 149.78 196.533C148.766 194.933 147.993 193.466 147.46 192.133C146.926 190.8 146.473 189.68 146.1 188.773C145.14 186.8 144.046 185.093 142.82 183.653C142.233 185.093 141.566 186.933 140.82 189.173C139.913 192 138.9 194.933 137.78 197.973H138.18ZM154.34 151.413C153.326 153.706 152.633 155.306 152.26 156.213C151.513 158.026 150.686 160.026 149.78 162.213C149.62 163.386 149.486 164.213 149.38 164.693L150.5 163.573L151.86 162.933C152.82 162.4 153.7 161.92 154.5 161.493C155.3 161.066 156.02 160.533 156.66 159.893C157.886 158.666 158.953 156.666 159.86 153.893C159.86 153.36 159.94 152.826 160.1 152.293C160.313 151.76 160.446 151.226 160.5 150.693C160.713 149.52 160.233 148.693 159.06 148.213C157.993 148.106 156.66 148.986 155.06 150.853C154.74 151.226 154.5 151.413 154.34 151.413ZM212.982 137.413L213.302 137.493C214.636 138.293 215.782 139.2 216.742 140.213C217.756 141.173 218.662 142.213 219.462 143.333C220.316 144.4 220.982 145.573 221.462 146.853C223.489 151.76 221.729 157.253 216.182 163.333C213.836 165.893 211.196 168.08 208.262 169.893C209.009 170.426 209.702 170.826 210.342 171.093C211.036 171.306 211.996 171.76 213.222 172.453C214.449 173.093 215.249 174.346 215.622 176.213C215.996 178.026 215.889 180.08 215.302 182.373C214.769 184.666 213.756 187.04 212.262 189.493C210.822 191.893 208.929 194.053 206.582 195.973C201.249 200.4 195.062 202.266 188.022 201.573C187.009 201.573 186.369 201.493 186.102 201.333C185.836 201.173 185.622 201.04 185.462 200.933C185.302 200.826 184.956 200.746 184.422 200.693C183.089 201.76 181.569 202.426 179.862 202.693C178.156 202.96 176.529 202.826 174.982 202.293C173.489 201.76 172.209 200.853 171.142 199.573C170.129 198.293 169.622 196.613 169.622 194.533C169.782 193.146 170.049 192.053 170.422 191.253C170.262 190.773 170.182 190.186 170.182 189.493C171.996 179.84 173.702 172.453 175.302 167.333C178.556 157.146 182.076 149.466 185.862 144.293C188.956 139.92 193.249 137.093 198.742 135.813C204.022 134.586 208.769 135.12 212.982 137.413ZM188.102 193.253C188.742 193.093 189.276 193.066 189.702 193.173C190.182 193.226 190.742 193.2 191.382 193.093C192.929 192.933 195.009 191.973 197.622 190.213C199.276 188.56 200.156 186.933 200.262 185.333C200.369 183.733 200.129 182.72 199.542 182.293C198.956 181.813 198.156 181.573 197.142 181.573C196.182 181.573 195.089 181.733 193.862 182.053C192.689 182.32 191.542 182.48 190.422 182.533V182.693C190.156 183.76 189.889 184.693 189.622 185.493C189.356 186.293 189.116 187.066 188.902 187.813C188.422 189.573 188.049 191.386 187.782 193.253H188.102ZM202.982 151.653C201.382 151.44 199.649 152.693 197.782 155.413C196.609 157.12 195.702 159.706 195.062 163.173C196.182 162.693 197.276 162.293 198.342 161.973C199.462 161.6 200.502 161.2 201.462 160.773C203.809 159.76 205.489 158.533 206.502 157.093C207.676 155.706 208.049 154.533 207.622 153.573C206.982 152.72 205.942 151.946 204.502 151.253C204.076 151.626 203.569 151.76 202.982 151.653ZM201.782 151.333H202.022H201.782ZM235.619 187.653C238.712 187.973 241.006 188.133 242.499 188.133C244.046 188.133 246.366 187.92 249.459 187.493C250.419 187.813 250.979 188.213 251.139 188.693C251.299 189.173 251.352 189.68 251.299 190.213C251.246 190.693 251.272 191.173 251.379 191.653C251.486 192.133 251.992 192.533 252.899 192.853C253.379 193.013 253.512 193.493 253.299 194.293C253.139 195.04 252.712 195.866 252.019 196.773C250.259 199.066 248.179 200.666 245.779 201.573C241.939 202.533 238.926 203.093 236.739 203.253C233.112 203.52 229.166 203.386 224.899 202.853C220.206 202 217.939 200.053 218.099 197.013C218.099 185.813 220.552 174.56 225.459 163.253C227.059 159.573 228.872 155.706 230.899 151.653C231.326 150.8 231.566 149.84 231.619 148.773C231.726 147.706 231.806 146.666 231.859 145.653C231.912 144.64 232.072 143.733 232.339 142.933C232.606 142.133 233.166 141.573 234.019 141.253C245.112 136.826 253.886 135.12 260.339 136.133C262.579 136.186 264.046 136.96 264.739 138.453C265.486 139.893 265.566 141.52 264.979 143.333C264.446 145.146 263.352 146.853 261.699 148.453C260.099 150.053 258.072 151.04 255.619 151.413C252.472 152.32 250.552 152.933 249.859 153.253C248.526 153.893 247.566 154.746 246.979 155.813C246.232 156.986 245.539 158.106 244.899 159.173C244.259 160.24 243.806 161.386 243.539 162.613L243.219 164.373C244.232 164.853 245.459 165.013 246.899 164.853C248.392 164.64 249.752 164.453 250.979 164.293C252.259 164.08 253.272 164.053 254.019 164.213C254.819 164.373 254.979 165.173 254.499 166.613C254.072 168 253.246 169.573 252.019 171.333C250.846 173.093 249.166 174.373 246.979 175.173C245.592 175.44 244.632 175.653 244.099 175.813C243.619 175.92 243.246 176 242.979 176.053C242.606 176.106 241.539 176.186 239.779 176.293C237.272 180.56 235.752 183.866 235.219 186.213C235.006 187.173 235.139 187.653 235.619 187.653ZM271.252 189.653L271.172 191.573C271.172 191.893 271.226 192.533 271.332 193.493C271.812 194.08 272.319 194.213 272.852 193.893C273.279 193.626 274.239 192.88 275.732 191.653C278.186 187.973 280.212 184.346 281.812 180.773C285.492 172.4 288.106 165.253 289.652 159.333C290.132 157.573 290.586 155.84 291.012 154.133C291.492 152.426 291.946 150.693 292.372 148.933C292.852 147.12 293.386 145.253 293.972 143.333V143.013C294.879 139.866 297.199 137.413 300.932 135.653C304.506 133.893 307.572 133.626 310.132 134.853C311.359 135.44 312.239 136.453 312.772 137.893C313.306 139.28 313.252 141.173 312.612 143.573C311.386 147.253 310.159 151.12 308.932 155.173C307.706 159.226 306.399 163.306 305.012 167.413C303.626 171.466 302.079 175.44 300.372 179.333C298.666 183.226 296.692 186.8 294.452 190.053C289.492 197.306 283.626 202.106 276.852 204.453C276.106 204.773 275.466 204.96 274.932 205.013C274.452 205.066 273.732 205.146 272.772 205.253C271.812 205.413 270.586 205.44 269.092 205.333C267.652 205.28 266.239 205.04 264.852 204.613C261.652 203.706 259.679 202.106 258.932 199.813C258.079 196.613 257.759 194.293 257.972 192.853C258.132 191.36 258.426 190.16 258.852 189.253C259.279 188.346 259.812 187.386 260.452 186.373H260.532C261.012 185.466 261.759 184.693 262.772 184.053C263.839 183.413 264.932 183.013 266.052 182.853C267.226 182.64 268.292 182.72 269.252 183.093C270.266 183.466 270.932 184.186 271.252 185.253C271.306 185.84 271.332 186.586 271.332 187.493C271.332 188.4 271.306 189.12 271.252 189.653ZM354.096 165.253C353.883 167.546 353.456 169.893 352.816 172.293C352.229 174.693 351.349 177.04 350.176 179.333C349.056 181.626 347.696 183.84 346.096 185.973C344.549 188.106 342.816 190.08 340.896 191.893C338.976 193.706 336.923 195.226 334.736 196.453C330.043 199.226 325.509 200.213 321.136 199.413C320.176 201.493 318.736 202.8 316.816 203.333C314.949 203.92 313.083 203.92 311.216 203.333C309.403 202.8 307.803 201.76 306.416 200.213C305.029 198.666 304.336 196.56 304.336 193.893C304.336 191.173 304.523 188.4 304.896 185.573C305.269 182.746 305.776 180.026 306.416 177.413C307.429 173.093 308.683 169.04 310.176 165.253C313.696 156.666 315.696 150.64 316.176 147.173C316.869 142.533 318.149 139.653 320.016 138.533C323.109 136.72 326.043 135.946 328.816 136.213C331.589 136.48 334.096 137.146 336.336 138.213C340.016 139.973 343.989 142.933 348.256 147.093C352.949 151.626 354.896 157.68 354.096 165.253ZM322.656 189.253C325.376 187.866 327.563 186.453 329.216 185.013C330.923 183.52 332.523 182.16 334.016 180.933C336.309 178.64 337.989 175.92 339.056 172.773C341.403 165.84 339.909 160.586 334.576 157.013C333.776 156.426 332.576 155.626 330.976 154.613C330.229 156.32 329.669 158.106 329.296 159.973C328.976 161.84 328.523 163.653 327.936 165.413L325.776 172.453L324.016 180.053C323.909 181.12 323.749 182.16 323.536 183.173C323.323 184.133 323.136 185.146 322.976 186.213L322.656 189.253ZM365.116 202.373C362.396 202.48 359.889 202.133 357.596 201.333C355.356 200.586 353.516 199.546 352.076 198.213C350.689 196.88 349.809 195.333 349.436 193.573C349.063 191.76 349.383 189.92 350.396 188.053C351.783 185.813 354.556 185.146 358.716 186.053C361.863 186.693 364.023 187.04 365.196 187.093C366.423 187.146 367.463 186.986 368.316 186.613C372.209 185.333 374.396 183.946 374.876 182.453C375.196 181.333 374.503 180.026 372.796 178.533C372.103 177.893 371.329 177.253 370.476 176.613C369.623 175.973 368.903 175.333 368.316 174.693C365.649 172.72 363.543 170.453 361.996 167.893C360.503 165.28 359.889 162.453 360.156 159.413C360.423 156.373 360.929 153.866 361.676 151.893C362.423 149.866 363.356 148.08 364.476 146.533C366.449 143.813 369.009 141.6 372.156 139.893C375.783 138.026 378.689 136.826 380.876 136.293C385.196 135.333 389.569 135.253 393.996 136.053C395.489 136.32 396.769 136.826 397.836 137.573C398.903 138.32 399.969 139.093 401.036 139.893C402.903 141.76 403.356 143.653 402.396 145.573C402.023 146.426 401.436 147.12 400.636 147.653C399.836 148.186 398.983 148.48 398.076 148.533C398.183 149.973 397.916 151.04 397.276 151.733C396.049 152.96 393.916 153.76 390.876 154.133C386.503 153.813 383.543 154.053 381.996 154.853C380.183 155.813 379.516 157.893 379.996 161.093C380.103 161.786 380.529 162.506 381.276 163.253C382.076 164 382.983 164.8 383.996 165.653C385.063 166.506 386.156 167.466 387.276 168.533C388.449 169.6 389.463 170.826 390.316 172.213C393.303 177.12 393.063 182.853 389.596 189.413C387.036 194.32 382.663 198 376.476 200.453C373.276 201.733 369.489 202.373 365.116 202.373ZM135.8 260.293L131.96 270.053C131.426 271.546 130.946 273.093 130.52 274.693C130.093 276.293 129.64 277.68 129.16 278.853C128.68 280.08 127.933 281.04 126.92 281.733C125.96 282.426 124.866 282.933 123.64 283.253C122.413 283.626 121.133 283.786 119.8 283.733C118.52 283.68 117.373 283.44 116.36 283.013C114.066 281.946 113.266 280.186 113.96 277.733C116.413 266.96 118.706 258.32 120.84 251.813C123.026 245.306 124.813 240.186 126.2 236.453C127.64 232.72 129.133 228.773 130.68 224.613C130.84 223.066 131.48 221.68 132.6 220.453C133.72 219.226 135.026 218.213 136.52 217.413C138.066 216.613 139.666 216.053 141.32 215.733C142.973 215.36 144.44 215.306 145.72 215.573C147 215.84 147.933 216.426 148.52 217.333C149.16 218.24 149.213 219.546 148.68 221.253C146.76 226.16 145.4 229.626 144.6 231.653C143.8 233.68 143.08 235.493 142.44 237.093L140.2 242.373C141.32 242.426 142.733 242.266 144.44 241.893C147.533 241.2 149.773 240.96 151.16 241.173C151.16 240.906 151.293 240.453 151.56 239.813C153.053 233.306 154.733 227.333 156.6 221.893C157.933 217.413 161.373 215.066 166.92 214.853C169.106 214.853 170.76 215.386 171.88 216.453C173.106 217.573 173.266 219.093 172.36 221.013C167.453 234.773 163.986 245.626 161.96 253.573C159.666 262.746 158.146 268.933 157.4 272.133C156.706 275.333 156.093 277.226 155.56 277.813C155.026 278.4 154.466 278.8 153.88 279.013C153.346 279.28 152.813 279.52 152.28 279.733C151.746 279.946 151.32 280.48 151 281.333H150.76C150.333 282.293 149.4 283.04 147.96 283.573C146.52 284.106 145.053 284.293 143.56 284.133C142.12 284.026 140.893 283.493 139.88 282.533C138.92 281.626 138.68 280.213 139.16 278.293C139.693 275.253 140.573 272 141.8 268.533C143.026 265.013 143.986 262.266 144.68 260.293C145.426 258.32 146.04 256.48 146.52 254.773C146.093 254.986 145.666 255.146 145.24 255.253C144.866 255.36 144.386 255.573 143.8 255.893C143.213 256.16 142.6 256.4 141.96 256.613C141.373 256.826 140.786 257.04 140.2 257.253C138.706 257.84 137.48 258.426 136.52 259.013L135.8 260.293ZM144.84 254.933C144.893 254.933 145.16 254.853 145.64 254.693C145.32 254.8 145.053 254.88 144.84 254.933ZM191.151 219.813V219.973C191.151 220.026 191.151 220.053 191.151 220.053C191.204 220.053 191.231 220.08 191.231 220.133V220.293H191.311L191.791 221.573C192.324 223.12 190.938 227.92 187.631 235.973C184.111 244.56 182.484 251.253 182.751 256.053C183.338 259.466 186.191 256.72 191.311 247.813C195.364 240.88 199.284 233.28 203.071 225.013C203.551 223.893 204.058 222.746 204.591 221.573C205.124 220.346 205.791 219.333 206.591 218.533C208.351 216.613 210.484 216.106 212.991 217.013C213.844 216 214.831 215.306 215.951 214.933C217.124 214.56 218.218 214.48 219.231 214.693C220.298 214.906 221.204 215.413 221.951 216.213C222.698 216.96 223.098 217.973 223.151 219.253C223.311 220.32 222.751 222.853 221.471 226.853C220.244 230.853 219.098 234.506 218.031 237.813C216.964 241.12 215.871 244.72 214.751 248.613C212.031 257.84 209.871 266.533 208.271 274.693C208.218 276.4 207.471 277.813 206.031 278.933C204.644 280.053 203.071 280.773 201.311 281.093C199.604 281.466 197.978 281.413 196.431 280.933C194.564 280.4 193.578 279.066 193.471 276.933C193.471 276.346 193.444 275.76 193.391 275.173C193.498 276.986 192.191 278.533 189.471 279.813C188.724 280.186 188.031 280.533 187.391 280.853C183.658 281.973 179.738 281.733 175.631 280.133C173.711 279.333 171.978 278.266 170.431 276.933C168.938 275.546 167.898 273.92 167.311 272.053C165.444 266.08 165.791 258.24 168.351 248.533C169.418 244.373 170.724 240.32 172.271 236.373C173.818 232.426 174.938 229.573 175.631 227.813C176.378 226.053 176.911 224.853 177.231 224.213C177.551 223.52 177.898 222.853 178.271 222.213C179.178 220.4 179.951 219.173 180.591 218.533L181.551 217.653C181.658 217.546 181.764 217.493 181.871 217.493C181.978 217.44 182.111 217.36 182.271 217.253C182.698 216.986 183.151 216.8 183.631 216.693L184.751 216.453H185.231C186.778 216.24 188.111 216.56 189.231 217.413C189.231 217.466 189.284 217.493 189.391 217.493L190.031 218.053L190.271 218.293L190.511 218.613C190.511 218.666 190.511 218.693 190.511 218.693C190.564 218.693 190.591 218.72 190.591 218.773L190.671 218.853V219.013C190.724 219.013 190.751 219.04 190.751 219.093V219.173C190.804 219.226 190.858 219.253 190.911 219.253V219.333C190.911 219.386 190.911 219.413 190.911 219.413C190.964 219.413 190.991 219.44 190.991 219.493C190.991 219.493 191.018 219.52 191.071 219.573V219.653C191.071 219.706 191.098 219.76 191.151 219.813ZM193.311 273.093V272.853C193.258 272.906 193.231 273.12 193.231 273.493C193.231 273.333 193.258 273.226 193.311 273.173V273.093ZM223.917 246.693C224.983 243.12 225.837 240.373 226.477 238.453C227.17 236.48 227.837 234.72 228.477 233.173C229.117 231.626 229.837 230.133 230.637 228.693C231.49 227.253 232.397 225.946 233.357 224.773C234.37 223.546 235.437 222.586 236.557 221.893C237.677 221.2 238.85 220.853 240.077 220.853C241.303 220.853 242.583 221.333 243.917 222.293C246.05 227.626 247.357 231.2 247.837 233.013C248.477 235.68 249.063 239.44 249.597 244.293C250.077 243.066 250.61 241.786 251.197 240.453C251.837 239.066 252.45 237.68 253.037 236.293C254.69 232.773 255.73 230.106 256.157 228.293C257.33 224.56 259.757 221.76 263.437 219.893C266.637 218.293 269.623 217.786 272.397 218.373C273.517 218.586 274.29 219.04 274.717 219.733C275.197 220.426 275.197 221.146 274.717 221.893C274.29 222.64 274.13 223.36 274.237 224.053C274.397 224.693 274.53 225.466 274.637 226.373C274.797 228.826 274.37 231.013 273.357 232.933C272.343 234.8 271.303 237.146 270.237 239.973C269.17 242.746 268.077 245.706 266.957 248.853C265.89 252 264.797 255.2 263.677 258.453C262.557 261.706 261.463 264.666 260.397 267.333C258.05 273.466 256.13 276.853 254.637 277.493C252.61 278.72 251.117 279.44 250.157 279.653C248.93 279.866 247.197 279.866 244.957 279.653C243.57 279.546 242.37 277.76 241.357 274.293C240.77 272.426 240.237 269.84 239.757 266.533C238.903 260.773 238.317 257.6 237.997 257.013C235.863 263.946 234.343 268.32 233.437 270.133C232.583 271.946 231.917 273.146 231.437 273.733C231.01 274.32 230.477 275.093 229.837 276.053C229.143 277.973 227.49 279.386 224.877 280.293C222.637 281.146 220.61 281.28 218.797 280.693C216.823 280.053 216.237 278.826 217.037 277.013C217.623 270.613 219.917 260.506 223.917 246.693ZM318.627 245.253C318.414 247.546 317.987 249.893 317.347 252.293C316.761 254.693 315.881 257.04 314.707 259.333C313.587 261.626 312.227 263.84 310.627 265.973C309.081 268.106 307.347 270.08 305.427 271.893C303.507 273.706 301.454 275.226 299.267 276.453C294.574 279.226 290.041 280.213 285.667 279.413C284.707 281.493 283.267 282.8 281.347 283.333C279.481 283.92 277.614 283.92 275.747 283.333C273.934 282.8 272.334 281.76 270.947 280.213C269.561 278.666 268.867 276.56 268.867 273.893C268.867 271.173 269.054 268.4 269.427 265.573C269.801 262.746 270.307 260.026 270.947 257.413C271.961 253.093 273.214 249.04 274.707 245.253C278.227 236.666 280.227 230.64 280.707 227.173C281.401 222.533 282.681 219.653 284.547 218.533C287.641 216.72 290.574 215.946 293.347 216.213C296.121 216.48 298.627 217.146 300.867 218.213C304.547 219.973 308.521 222.933 312.787 227.093C317.481 231.626 319.427 237.68 318.627 245.253ZM287.187 269.253C289.907 267.866 292.094 266.453 293.747 265.013C295.454 263.52 297.054 262.16 298.547 260.933C300.841 258.64 302.521 255.92 303.587 252.773C305.934 245.84 304.441 240.586 299.107 237.013C298.307 236.426 297.107 235.626 295.507 234.613C294.761 236.32 294.201 238.106 293.827 239.973C293.507 241.84 293.054 243.653 292.467 245.413L290.307 252.453L288.547 260.053C288.441 261.12 288.281 262.16 288.067 263.173C287.854 264.133 287.667 265.146 287.507 266.213L287.187 269.253ZM334.447 267.653C337.541 267.973 339.834 268.133 341.327 268.133C342.874 268.133 345.194 267.92 348.287 267.493C349.247 267.813 349.807 268.213 349.967 268.693C350.127 269.173 350.181 269.68 350.127 270.213C350.074 270.693 350.101 271.173 350.207 271.653C350.314 272.133 350.821 272.533 351.727 272.853C352.207 273.013 352.341 273.493 352.127 274.293C351.967 275.04 351.541 275.866 350.847 276.773C349.087 279.066 347.007 280.666 344.607 281.573C340.767 282.533 337.754 283.093 335.567 283.253C331.941 283.52 327.994 283.386 323.727 282.853C319.034 282 316.767 280.053 316.927 277.013C316.927 265.813 319.381 254.56 324.287 243.253C325.887 239.573 327.701 235.706 329.727 231.653C330.154 230.8 330.394 229.84 330.447 228.773C330.554 227.706 330.634 226.666 330.687 225.653C330.741 224.64 330.901 223.733 331.167 222.933C331.434 222.133 331.994 221.573 332.847 221.253C343.941 216.826 352.714 215.12 359.167 216.133C361.407 216.186 362.874 216.96 363.567 218.453C364.314 219.893 364.394 221.52 363.807 223.333C363.274 225.146 362.181 226.853 360.527 228.453C358.927 230.053 356.901 231.04 354.447 231.413C351.301 232.32 349.381 232.933 348.687 233.253C347.354 233.893 346.394 234.746 345.807 235.813C345.061 236.986 344.367 238.106 343.727 239.173C343.087 240.24 342.634 241.386 342.367 242.613L342.047 244.373C343.061 244.853 344.287 245.013 345.727 244.853C347.221 244.64 348.581 244.453 349.807 244.293C351.087 244.08 352.101 244.053 352.847 244.213C353.647 244.373 353.807 245.173 353.327 246.613C352.901 248 352.074 249.573 350.847 251.333C349.674 253.093 347.994 254.373 345.807 255.173C344.421 255.44 343.461 255.653 342.927 255.813C342.447 255.92 342.074 256 341.807 256.053C341.434 256.106 340.367 256.186 338.607 256.293C336.101 260.56 334.581 263.866 334.047 266.213C333.834 267.173 333.967 267.653 334.447 267.653Z" fill="#780E08"/>
</svg>
