<svg width="476" height="433" viewBox="0 0 476 433" fill="none" xmlns="http://www.w3.org/2000/svg">
<path d="M6.60249 345.581C6.60249 322.664 6.61772 299.748 6.58877 276.833C6.58419 272.748 6.78379 268.692 7.12205 264.644C7.22261 263.448 7.12967 262.318 6.93921 261.155C6.75333 260.017 6.53238 258.812 6.61923 257.679C7.3643 248.036 6.23071 238.421 6.47754 228.773C6.72437 219.093 6.84931 209.369 6.46992 199.705C4.85789 158.743 5.85131 117.738 5.13519 76.7738C4.93102 65.1372 4.89599 53.4774 4.5425 41.8407C4.24234 31.9738 5.7203 22.2349 5.54661 12.3659C5.50395 9.92224 5.06512 9.33861 3.47442 9.57163C2.63488 9.69549 1.76944 9.55485 0.919239 9.45618C0.439287 9.3995 0.0157054 9.09089 0.000468786 8.29734C-0.0162915 7.4639 0.425561 7.149 0.905513 7.19939C2.09092 7.32535 2.84058 6.66824 3.4409 5.25119C3.95742 4.03146 4.95846 3.99578 5.9077 3.99578C9.06319 3.99788 12.2187 4.06086 15.3712 3.93909C32.782 3.2673 50.1959 3.38697 67.6082 3.47304C71.4646 3.49194 75.3667 4.19521 79.1652 3.33028C87.4006 1.45556 95.6679 2.58709 103.915 2.34147C116.856 1.95519 129.804 2.02448 142.746 1.67599C184.674 0.546542 226.604 1.70539 268.532 1.20994C273.461 1.15116 278.393 1.0462 283.319 1.22255C285.458 1.30023 287.384 -0.213434 289.525 0.141355C290.753 0.344992 292.022 0.017498 293.192 0.88033C293.459 1.07767 293.861 1.15745 294.146 1.03988C298.159 -0.612304 302.154 -0.0601491 306.164 1.0672C306.925 1.28133 307.737 1.15115 308.526 1.15115C329.821 1.19524 351.12 0.901323 372.41 1.35268C404.613 2.03287 436.814 1.53742 469.016 1.81453C470.067 1.82293 471.119 1.82506 472.17 1.85446C475.073 1.93633 475.47 2.44855 475.484 6.4478C475.546 24.9263 475.391 43.4089 475.711 61.879C475.932 74.6514 475.44 87.4112 475.691 100.165C476.112 121.448 476.049 142.733 475.821 164.008C475.522 191.801 474.664 219.605 475.298 247.388C475.827 270.567 475.886 293.733 475.903 316.908C475.918 336.545 476.063 356.186 475.841 375.82C475.647 392.843 475.67 409.865 475.603 426.886C475.586 430.711 474.763 431.891 472.156 431.899C450.142 431.962 428.13 432.821 406.115 432.294C401.123 432.174 396.112 432.372 391.149 431.794C389.07 431.553 387.194 431.16 385.034 431.731C382.623 432.368 379.932 432.506 377.476 430.978C377.142 430.77 376.676 430.759 376.312 430.881C370.277 432.907 364.097 432.307 358.092 431.587C346.538 430.201 335.003 431.335 323.467 430.827C319.403 430.648 315.346 430.696 311.273 430.331C305.934 429.85 300.544 430.356 295.228 431.61C294.393 431.807 293.524 431.78 292.672 431.78C279.855 431.78 267.019 432.426 254.227 431.633C208.391 428.792 162.535 431.045 116.694 430.17C104.735 429.941 92.7699 430.033 80.8092 430.199C78.216 430.235 75.7537 429.376 73.2138 429.12C69.8831 428.784 66.5417 429.12 63.2064 428.895C57.7867 428.534 52.2467 428.862 46.76 429.85C43.0484 430.52 39.2332 430.14 35.4118 429.475C30.2969 428.587 25.0784 428.07 19.8888 428.773C16.6068 429.219 13.3218 429.086 10.0414 429.028C7.43899 428.981 7.02454 428.242 6.90112 424.636C6.25814 405.807 6.74572 386.967 6.61012 368.134C6.55679 360.616 6.60097 353.098 6.60097 345.581H6.60249ZM446.627 236.081C447.475 236.83 447.846 237.869 448.313 238.85C449.542 241.44 449.851 244.596 451.13 247.165C452.841 250.606 452.795 250.644 454.415 247.22C454.665 246.691 454.881 246.065 455.233 245.706C456.169 244.749 457.316 243.67 458.407 244.371C461.14 246.124 462.28 250.064 464.09 253.075C464.46 253.69 464.093 254.83 463.865 255.689C463.73 256.192 463.52 256.68 463.476 257.198C463.42 257.84 463.759 258.168 464.2 258.244C464.648 258.319 464.834 257.843 464.788 257.408C464.536 255.05 465.754 253.109 465.857 251.024C466.141 245.288 466.051 239.538 466.746 233.811C467.119 230.725 466.753 227.482 466.842 224.316C467.402 204.236 466.182 184.206 465.935 164.149C465.806 153.656 466.991 143.264 466.785 132.808C466.47 116.821 467.474 100.818 466.118 84.8353C465.464 77.1265 466.209 69.3527 466.756 61.6187C467.105 56.6768 466.586 51.6635 467.043 46.6986C467.139 45.6552 466.903 44.6601 466.458 43.8855C465.068 41.4712 464.011 38.8659 462.132 36.7624C460.09 34.4783 458.407 31.43 456.233 29.1144C454.951 27.7499 453.399 26.6309 452.426 25.0207C450.947 22.5729 449.067 20.7213 447.663 18.2189C445.963 15.1832 443.368 13.5184 441.54 10.6591C440.656 9.27774 439.366 8.79907 438.115 9.07199C436.422 9.44147 434.729 9.16436 433.033 9.39319C431.569 9.59053 430.076 9.95372 428.54 9.6808C424.443 8.95233 420.312 8.57025 416.197 9.28612C414.525 9.57793 412.907 8.01601 411.213 9.25253C410.913 9.47086 410.273 8.76969 409.779 8.53036C409.292 8.29314 408.8 7.98032 408.294 7.91524C403.444 7.27914 398.605 8.31624 393.746 8.19658C391.898 8.15249 389.816 7.51009 387.928 8.84947C387.503 9.15178 386.757 8.80536 386.214 8.54085C381.494 6.24206 376.714 7.41771 372.014 8.37712C369.539 8.88306 367.079 9.23364 364.621 9.13288C358.578 8.88305 352.535 8.87256 346.497 9.10979C344.554 9.18536 342.63 9.93902 340.64 9.7081C334.773 9.02791 328.887 8.97542 323.013 8.0748C316.291 7.04402 309.579 8.55764 302.885 9.77736C298.925 10.4995 294.885 10.5562 290.911 9.68711C288.894 9.24624 286.974 9.29243 285.149 10.4996C283.872 11.3456 282.473 11.6164 281.33 10.8501C277.45 8.24694 273.357 9.15596 269.316 8.96282C268.097 8.90403 267.179 10.4198 265.906 9.89074C261.777 8.17347 257.586 9.03001 253.399 9.31972C247.5 9.72909 241.61 9.63252 235.781 8.05171C235.138 7.87746 234.222 7.54157 233.905 8.27005C232.847 10.6969 231.181 9.86346 229.692 10.1637C227.184 10.6696 224.696 11.4149 222.189 10.1637C221.959 10.0503 221.655 10.1007 221.408 10.1951C216.302 12.1475 211.091 10.8711 205.932 11.1378C205.414 11.1651 204.788 11.2154 204.389 10.869C203.18 9.82357 202.111 10.7515 200.991 11.0643C200.665 11.1566 200.31 11.2532 200.267 11.8074C200.221 12.4037 200.424 12.9537 200.835 13.0922C202.252 13.5751 202.722 15.5086 203.749 16.5751C204.081 16.9193 204.386 17.2993 204.235 17.9144C204.063 18.6198 203.59 18.7983 203.116 18.7941C201.935 18.7815 200.733 18.8969 199.575 18.6471C195.001 17.6646 190.63 15.4078 185.99 14.6437C184.488 14.3959 182.186 14.0307 181.817 10.6339C181.75 10.0146 181.031 9.70389 180.648 9.9894C179.139 11.1188 177.316 9.74377 175.826 11.3519C175.055 12.1832 173.934 11.7697 172.943 11.6332C168.855 11.0706 164.761 10.1469 160.67 10.1532C155.854 10.1616 151.05 9.83405 146.185 10.9593C141.772 11.9796 137.142 11.2154 132.606 11.2217C122.568 11.2364 112.527 11.3792 102.491 11.1944C96.6096 11.0874 90.7358 11.6437 84.8271 10.3526C81.2617 9.57373 77.4846 10.2875 73.8004 10.128C65.9886 9.78787 58.1631 10.5268 50.3574 9.57373C49.7068 9.49396 49.009 9.4079 48.3949 9.63883C46.3136 10.424 44.2125 10.086 42.1189 10.2245C39.7451 10.3841 37.3393 10.1783 34.909 11.0601C31.717 12.2189 28.339 10.9173 25.0601 10.6339C23.6873 10.5164 22.5902 11.755 21.2905 11.2133C18.9776 10.2497 16.6556 11.5807 14.3366 11.1881C13.1009 10.9782 12.5844 11.7571 12.4533 13.468C12.0526 18.7122 12.3421 23.9669 12.2705 29.2131C12.2278 32.3286 13.0521 32.9185 15.01 31.2012C15.7551 30.5483 16.3707 30.0298 17.1112 30.8989C17.8273 31.7386 17.7115 32.908 17.4006 33.9136C16.9298 35.4377 16.7622 37.0248 16.5444 38.6308C15.9227 43.2116 15.5783 47.954 13.1344 51.6363C12.8129 52.1212 12.6956 52.7153 12.6621 53.3766C12.3162 60.3066 11.7677 67.2323 12.2477 74.1853C12.3863 76.1944 11.3944 77.7479 11.4051 79.6919C11.4294 84.764 11.3594 89.836 11.3396 94.908C11.3304 97.1354 11.0729 99.4195 12.5158 101.2C13.0049 101.802 12.9058 102.881 12.8647 103.799C12.3756 115.005 12.1669 126.224 12.2949 137.447C12.467 152.562 13.0369 167.667 12.8876 182.791C12.851 186.576 12.6179 190.342 12.8464 194.146C12.9805 196.369 13.3218 197.78 15.0131 198.639C16.8582 199.577 18.871 200.346 19.9482 203.15C21.0605 206.052 20.3901 208.399 18.0315 208.917C16.9999 209.144 15.9257 208.98 14.8866 209.167C13.3447 209.446 12.6392 210.723 13.1755 212.805C14.1156 216.458 14.2695 220.43 14.6047 224.096C15.3209 231.926 15.6027 239.929 15.2919 247.925C15.0969 252.926 15.0588 257.962 15.4428 263.036C15.8846 268.881 16.1848 274.933 14.1918 280.562C13.9389 281.275 13.5824 282.281 13.9328 282.902C15.5555 285.785 14.5849 289.266 15.2127 292.358C15.3376 292.971 15.4732 293.75 15.0314 294.119C13.8353 295.123 14.6108 295.771 15.1548 296.567C15.6027 297.224 16.0035 297.951 16.3859 298.683C17.9812 301.736 17.9583 302.231 15.5418 304.303C14.0943 305.544 13.6662 307.362 14.3137 309.146C15.7338 313.053 14.2939 317.294 15.3193 321.19C15.4138 321.549 15.3117 322.192 15.1228 322.481C13.1755 325.479 14.5697 328.918 14.7663 331.926C15.3727 341.21 15.9593 350.462 15.17 359.749C14.4615 368.079 15.3392 376.485 13.9633 384.864C13.4133 388.212 13.8597 392.407 14.0745 396.053C14.4783 402.897 12.5509 410.287 15.9364 416.616C15.3986 419.958 17.4205 419.738 18.7018 420.053C20.6948 420.54 22.7502 420.544 24.7782 420.76C27.7798 421.079 30.8241 421.09 33.7663 421.846C35.4789 422.284 37.2265 422.855 38.7989 422.211C41.2825 421.193 43.7782 421.168 46.2054 421.59C48.4284 421.976 50.4732 422.818 52.169 419.979C52.3854 419.618 52.8806 419.419 53.2508 419.41C55.5485 419.364 57.9224 418.883 60.1286 419.505C64.6859 420.788 69.3833 420.634 73.8857 422.322C74.4449 422.532 75.097 422.482 75.577 421.894C76.6115 420.628 77.8579 420.655 79.1149 420.695C86.7347 420.939 94.353 421.182 101.973 421.432C102.366 421.445 102.765 421.459 103.151 421.562C108.747 423.055 114.477 423.872 120.094 423.842C150.159 423.687 180.237 425.362 210.291 423.072C212.593 422.897 214.839 423.727 217.096 423.943C228.342 425.018 239.625 424.799 250.888 426.093C260.026 427.142 269.263 426.748 278.457 426.693C296.59 426.586 314.723 426.683 332.857 426.45C342.569 426.324 352.302 426.563 362.025 426.733C365.177 426.788 368.305 426.025 371.471 426.345C380.752 427.281 390.101 425.862 399.353 427.825C401.378 428.255 403.192 426.825 405.144 426.752C408.851 426.615 412.504 426.909 416.227 427.466C421.978 428.324 427.87 428.841 433.722 428.116C437.156 427.692 440.617 426.878 443.976 426.609C447.83 426.303 451.986 425.658 455.852 427.734C456.191 427.917 456.699 427.927 457.013 427.705C458.836 426.424 460.861 426.708 462.783 426.21C463.88 425.927 464.398 425.2 464.896 423.819C465.696 421.598 464.425 419.843 464.553 417.807C465.314 405.616 464.197 393.406 464.77 381.192C465.074 374.707 464.719 368.172 464.402 361.657C463.814 349.534 464.869 337.425 464.803 325.301C464.799 324.503 464.997 323.707 465.073 322.906C465.533 318.085 468.166 313.215 464.911 308.466C464.834 308.353 464.837 308.124 464.817 307.946C464.255 302.943 462.249 298.694 460.768 294.237C457.907 285.627 455.024 277.005 452.751 268.108C450.24 258.281 448.511 248.074 446.443 238.031C446.32 237.428 446.149 236.809 446.626 236.064L446.627 236.081ZM184.285 10.4534C190.299 13.0755 192.896 13.5415 194.924 12.3806C191.267 10.6234 187.804 10.1994 184.285 10.4534Z" fill="#780E08"/>
<path d="M78.6462 146.413L78.9663 146.493C80.2996 147.293 81.4463 148.2 82.4063 149.213C83.4196 150.173 84.3263 151.213 85.1263 152.333C85.9796 153.4 86.6463 154.573 87.1263 155.853C89.1529 160.76 87.3929 166.253 81.8463 172.333C79.4996 174.893 76.8596 177.08 73.9263 178.893C74.6729 179.426 75.3663 179.826 76.0063 180.093C76.6996 180.306 77.6596 180.76 78.8863 181.453C80.1129 182.093 80.9129 183.346 81.2863 185.213C81.6596 187.026 81.5529 189.08 80.9663 191.373C80.4329 193.666 79.4196 196.04 77.9263 198.493C76.4863 200.893 74.5929 203.053 72.2463 204.973C66.9129 209.4 60.7263 211.266 53.6863 210.573C52.6729 210.573 52.0329 210.493 51.7663 210.333C51.4996 210.173 51.2863 210.04 51.1263 209.933C50.9663 209.826 50.6196 209.746 50.0863 209.693C48.7529 210.76 47.2329 211.426 45.5263 211.693C43.8196 211.96 42.1929 211.826 40.6463 211.293C39.1529 210.76 37.8729 209.853 36.8063 208.573C35.7929 207.293 35.2862 205.613 35.2862 203.533C35.4462 202.146 35.7129 201.053 36.0862 200.253C35.9262 199.773 35.8462 199.186 35.8462 198.493C37.6596 188.84 39.3663 181.453 40.9663 176.333C44.2196 166.146 47.7396 158.466 51.5263 153.293C54.6196 148.92 58.9129 146.093 64.4063 144.813C69.6863 143.586 74.4329 144.12 78.6462 146.413ZM53.7663 202.253C54.4063 202.093 54.9396 202.066 55.3663 202.173C55.8463 202.226 56.4063 202.2 57.0463 202.093C58.5929 201.933 60.6729 200.973 63.2863 199.213C64.9396 197.56 65.8196 195.933 65.9263 194.333C66.0329 192.733 65.7929 191.72 65.2063 191.293C64.6196 190.813 63.8196 190.573 62.8063 190.573C61.8463 190.573 60.7529 190.733 59.5263 191.053C58.3529 191.32 57.2063 191.48 56.0863 191.533V191.693C55.8196 192.76 55.5529 193.693 55.2863 194.493C55.0196 195.293 54.7796 196.066 54.5663 196.813C54.0863 198.573 53.7129 200.386 53.4463 202.253H53.7663ZM68.6463 160.653C67.0463 160.44 65.3129 161.693 63.4463 164.413C62.2729 166.12 61.3663 168.706 60.7263 172.173C61.8463 171.693 62.9396 171.293 64.0063 170.973C65.1263 170.6 66.1663 170.2 67.1263 169.773C69.4729 168.76 71.1529 167.533 72.1663 166.093C73.3396 164.706 73.7129 163.533 73.2863 162.573C72.6463 161.72 71.6063 160.946 70.1663 160.253C69.7396 160.626 69.2329 160.76 68.6463 160.653ZM67.4463 160.333H67.6863H67.4463ZM110.963 210.573C109.843 210.893 108.776 211.053 107.763 211.053C106.75 211.106 105.71 211.16 104.643 211.213C103.63 211.266 102.216 211.293 100.403 211.293C98.5898 211.293 95.8698 211.24 92.2431 211.133C91.3898 211.186 90.5365 211.213 89.6831 211.213C88.8298 211.213 88.0298 211.053 87.2831 210.733C85.6298 210.04 84.5098 208.44 83.9231 205.933C83.6565 204.76 83.3631 203.933 83.0431 203.453C82.6698 202.973 82.3765 202.52 82.1631 202.093C81.6298 201.24 81.6831 199.826 82.3231 197.853C82.9098 195.88 83.6831 193.453 84.6431 190.573C85.6031 187.64 86.6965 184.546 87.9231 181.293C90.8031 173.56 93.3898 167.426 95.6831 162.893C96.5898 160.866 97.3631 159.106 98.0031 157.613C98.6965 156.12 99.3098 154.84 99.8431 153.773C100.376 152.653 100.643 152.066 100.643 152.013C101.176 149.986 103.23 148.28 106.803 146.893C110.27 145.453 113.416 145.08 116.243 145.773C119.39 146.573 120.776 148.653 120.403 152.013C119.656 155.32 118.536 158.626 117.043 161.933C115.603 165.24 113.95 168.706 112.083 172.333C110.216 175.96 108.19 179.8 106.003 183.853C103.816 187.906 101.656 192.306 99.5231 197.053C99.4698 197.266 99.5765 197.453 99.8431 197.613C100.536 197.56 101.496 197.346 102.723 196.973C104.003 196.6 105.31 196.28 106.643 196.013C108.03 195.693 109.39 195.533 110.723 195.533C112.056 195.533 113.176 195.88 114.083 196.573C114.03 197.533 114.27 198.306 114.803 198.893C115.336 199.426 115.87 199.96 116.403 200.493C117.736 201.88 117.843 203.72 116.723 206.013C115.656 208.253 113.736 209.773 110.963 210.573ZM164.787 152.493C166.6 153.453 167.747 154.866 168.227 156.733C167.16 162.706 166.2 168.653 165.347 174.573C164.494 180.44 163.667 185.373 162.867 189.373C162.067 193.32 161.507 196.28 161.187 198.253C160.92 200.226 160.6 202.2 160.227 204.173L159.747 205.853C159.64 206.44 159.534 206.973 159.427 207.453C159.32 207.986 159.214 208.546 159.107 209.133C157.614 210.84 155.587 211.693 153.027 211.693C150.307 211.693 148.147 211 146.547 209.613C145.587 208.866 145.427 207.293 146.067 204.893C146.334 203.933 146.494 202.706 146.547 201.213C146.654 199.666 146.76 198.386 146.867 197.373V197.213C145.267 197.8 143.827 198.573 142.547 199.533C141.267 200.44 140.467 201.026 140.147 201.293C139.827 201.506 139.4 201.693 138.867 201.853C138.334 201.96 137.854 202.04 137.427 202.093C136.414 202.146 135.72 202.306 135.347 202.573C132.254 208.12 129.48 211.213 127.027 211.853C125.48 212.333 123.934 212.44 122.387 212.173C120.84 211.96 119.614 211.053 118.707 209.453C117 207.853 117.427 203.48 119.987 196.333C121.374 192.546 123.347 188.013 125.907 182.733C128.52 177.4 131.027 172.76 133.427 168.813C138.6 160.333 144.28 153.186 150.467 147.373C151.48 146.946 152.574 146.466 153.747 145.933C154.92 145.346 156.067 145.026 157.187 144.973C158.36 144.92 159.56 145.053 160.787 145.373C162.014 145.693 163.054 146.173 163.907 146.813C165.88 148.306 166.174 150.2 164.787 152.493ZM147.667 173.533C146.547 176.733 145.427 179.693 144.307 182.413C143.187 185.08 142.227 187.426 141.427 189.453L147.747 189.213C148.174 185.8 148.654 182.413 149.187 179.053C149.72 175.693 150.227 172.333 150.707 168.973L147.667 173.533ZM145.507 189.533C146.254 189.533 147 189.48 147.747 189.373V189.293C147.054 189.346 146.414 189.4 145.827 189.453C145.24 189.506 145.134 189.533 145.507 189.533ZM171.143 175.693C172.21 172.12 173.063 169.373 173.703 167.453C174.396 165.48 175.063 163.72 175.703 162.173C176.343 160.626 177.063 159.133 177.863 157.693C178.716 156.253 179.623 154.946 180.583 153.773C181.596 152.546 182.663 151.586 183.783 150.893C184.903 150.2 186.076 149.853 187.303 149.853C188.53 149.853 189.81 150.333 191.143 151.293C193.276 156.626 194.583 160.2 195.063 162.013C195.703 164.68 196.29 168.44 196.823 173.293C197.303 172.066 197.836 170.786 198.423 169.453C199.063 168.066 199.676 166.68 200.263 165.293C201.916 161.773 202.956 159.106 203.383 157.293C204.556 153.56 206.983 150.76 210.663 148.893C213.863 147.293 216.85 146.786 219.623 147.373C220.743 147.586 221.516 148.04 221.943 148.733C222.423 149.426 222.423 150.146 221.943 150.893C221.516 151.64 221.356 152.36 221.463 153.053C221.623 153.693 221.756 154.466 221.863 155.373C222.023 157.826 221.596 160.013 220.583 161.933C219.57 163.8 218.53 166.146 217.463 168.973C216.396 171.746 215.303 174.706 214.183 177.853C213.116 181 212.023 184.2 210.903 187.453C209.783 190.706 208.69 193.666 207.623 196.333C205.276 202.466 203.356 205.853 201.863 206.493C199.836 207.72 198.343 208.44 197.383 208.653C196.156 208.866 194.423 208.866 192.183 208.653C190.796 208.546 189.596 206.76 188.583 203.293C187.996 201.426 187.463 198.84 186.983 195.533C186.13 189.773 185.543 186.6 185.223 186.013C183.09 192.946 181.57 197.32 180.663 199.133C179.81 200.946 179.143 202.146 178.663 202.733C178.236 203.32 177.703 204.093 177.063 205.053C176.37 206.973 174.716 208.386 172.103 209.293C169.863 210.146 167.836 210.28 166.023 209.693C164.05 209.053 163.463 207.826 164.263 206.013C164.85 199.613 167.143 189.506 171.143 175.693ZM265.854 174.253C265.64 176.546 265.214 178.893 264.574 181.293C263.987 183.693 263.107 186.04 261.934 188.333C260.814 190.626 259.454 192.84 257.854 194.973C256.307 197.106 254.574 199.08 252.654 200.893C250.734 202.706 248.68 204.226 246.494 205.453C241.8 208.226 237.267 209.213 232.894 208.413C231.934 210.493 230.494 211.8 228.574 212.333C226.707 212.92 224.84 212.92 222.974 212.333C221.16 211.8 219.56 210.76 218.174 209.213C216.787 207.666 216.094 205.56 216.094 202.893C216.094 200.173 216.28 197.4 216.654 194.573C217.027 191.746 217.534 189.026 218.174 186.413C219.187 182.093 220.44 178.04 221.934 174.253C225.454 165.666 227.454 159.64 227.934 156.173C228.627 151.533 229.907 148.653 231.774 147.533C234.867 145.72 237.8 144.946 240.574 145.213C243.347 145.48 245.854 146.146 248.094 147.213C251.774 148.973 255.747 151.933 260.014 156.093C264.707 160.626 266.654 166.68 265.854 174.253ZM234.414 198.253C237.134 196.866 239.32 195.453 240.974 194.013C242.68 192.52 244.28 191.16 245.774 189.933C248.067 187.64 249.747 184.92 250.814 181.773C253.16 174.84 251.667 169.586 246.334 166.013C245.534 165.426 244.334 164.626 242.734 163.613C241.987 165.32 241.427 167.106 241.054 168.973C240.734 170.84 240.28 172.653 239.694 174.413L237.534 181.453L235.774 189.053C235.667 190.12 235.507 191.16 235.294 192.173C235.08 193.133 234.894 194.146 234.734 195.213L234.414 198.253ZM297.434 152.653C295.567 158.466 293.834 163.72 292.234 168.413C290.687 173.106 289.247 177.426 287.914 181.373C286.634 185.32 285.434 188.973 284.314 192.333C283.194 195.64 282.154 198.813 281.194 201.853C280.66 205.373 278.927 207.853 275.994 209.293C274.287 210.093 272.26 210.493 269.914 210.493C267.567 210.493 265.807 210.226 264.634 209.693C263.46 209.213 262.714 208.493 262.394 207.533C262.02 206.573 262.02 205.426 262.394 204.093C262.714 202.706 263.3 200.84 264.154 198.493C265.007 196.093 266.074 192.866 267.354 188.813C268.687 184.76 270.074 180.653 271.514 176.493C275.087 166.093 277.914 158.893 279.994 154.893C280.794 153.4 281.594 152.413 282.394 151.933C283.194 151.4 283.967 151.026 284.714 150.813C285.46 150.546 286.154 150.253 286.794 149.933C287.434 149.613 287.994 148.813 288.474 147.533C289.007 146.253 289.94 145.373 291.274 144.893C292.66 144.413 293.94 144.386 295.114 144.813C296.34 145.186 297.247 146.04 297.834 147.373C298.474 148.653 298.34 150.413 297.434 152.653ZM298.409 175.693C299.475 172.12 300.329 169.373 300.969 167.453C301.662 165.48 302.329 163.72 302.969 162.173C303.609 160.626 304.329 159.133 305.129 157.693C305.982 156.253 306.889 154.946 307.849 153.773C308.862 152.546 309.929 151.586 311.049 150.893C312.169 150.2 313.342 149.853 314.569 149.853C315.795 149.853 317.075 150.333 318.409 151.293C320.542 156.626 321.849 160.2 322.329 162.013C322.969 164.68 323.555 168.44 324.089 173.293C324.569 172.066 325.102 170.786 325.689 169.453C326.329 168.066 326.942 166.68 327.529 165.293C329.182 161.773 330.222 159.106 330.649 157.293C331.822 153.56 334.249 150.76 337.929 148.893C341.129 147.293 344.115 146.786 346.889 147.373C348.009 147.586 348.782 148.04 349.209 148.733C349.689 149.426 349.689 150.146 349.209 150.893C348.782 151.64 348.622 152.36 348.729 153.053C348.889 153.693 349.022 154.466 349.129 155.373C349.289 157.826 348.862 160.013 347.849 161.933C346.835 163.8 345.795 166.146 344.729 168.973C343.662 171.746 342.569 174.706 341.449 177.853C340.382 181 339.289 184.2 338.169 187.453C337.049 190.706 335.955 193.666 334.889 196.333C332.542 202.466 330.622 205.853 329.129 206.493C327.102 207.72 325.609 208.44 324.649 208.653C323.422 208.866 321.689 208.866 319.449 208.653C318.062 208.546 316.862 206.76 315.849 203.293C315.262 201.426 314.729 198.84 314.249 195.533C313.395 189.773 312.809 186.6 312.489 186.013C310.355 192.946 308.835 197.32 307.929 199.133C307.075 200.946 306.409 202.146 305.929 202.733C305.502 203.32 304.969 204.093 304.329 205.053C303.635 206.973 301.982 208.386 299.369 209.293C297.129 210.146 295.102 210.28 293.289 209.693C291.315 209.053 290.729 207.826 291.529 206.013C292.115 199.613 294.409 189.506 298.409 175.693ZM375.119 146.333C382.799 144.786 388.773 145.746 393.039 149.213C395.066 150.866 396.399 153.266 397.039 156.413C397.733 159.56 397.386 163.08 395.999 166.973C395.413 168.786 394.399 170.146 392.959 171.053C391.519 171.96 390.026 172.493 388.479 172.653C386.986 172.76 385.626 172.573 384.399 172.093C383.173 171.56 382.506 170.813 382.399 169.853L381.679 168.253C380.399 166.333 378.186 166.093 375.039 167.533C372.319 168.76 369.599 170.893 366.879 173.933C363.999 177.186 362.133 180.12 361.279 182.733C360.319 185.613 359.839 187.506 359.839 188.413C359.733 190.44 360.453 192.253 361.999 193.853C364.239 195.293 366.479 195.96 368.719 195.853C370.959 195.693 372.959 195.186 374.719 194.333C376.479 193.426 377.919 192.413 379.039 191.293C380.159 190.173 380.719 189.373 380.719 188.893C380.879 188.573 381.039 188.253 381.199 187.933C381.359 187.613 381.493 187.293 381.599 186.973C381.386 186.973 381.439 186.973 381.759 186.973C382.079 186.92 382.159 186.92 381.999 186.973C381.839 186.973 381.919 187 382.239 187.053L382.719 187.213C380.106 189.56 377.573 190.04 375.119 188.653C374.159 188.066 373.306 187.453 372.559 186.813C371.813 186.12 371.119 185.8 370.479 185.853C369.306 185.213 369.039 183.96 369.679 182.093C369.946 181.346 370.426 180.653 371.119 180.013C371.866 179.32 372.799 178.84 373.919 178.573C379.253 176.28 384.186 175.746 388.719 176.973C390.746 177.506 392.133 178.6 392.879 180.253C393.679 181.853 394.026 183.666 393.919 185.693C393.813 187.72 393.359 189.773 392.559 191.853C391.813 193.933 390.986 195.613 390.079 196.893C389.173 198.12 387.893 199.586 386.239 201.293C384.639 203 382.613 204.653 380.159 206.253C374.133 210.146 367.679 212.013 360.799 211.853C350.826 211.693 344.933 207.613 343.119 199.613C342.533 197.053 342.266 194.173 342.319 190.973C342.853 181.693 345.626 173.026 350.639 164.973C353.039 161.133 356.266 157.346 360.319 153.613C362.879 151.32 365.759 149.56 368.959 148.333C370.666 147.64 372.719 146.973 375.119 146.333ZM407.733 211.373C405.013 211.48 402.506 211.133 400.213 210.333C397.973 209.586 396.133 208.546 394.693 207.213C393.306 205.88 392.426 204.333 392.053 202.573C391.68 200.76 392 198.92 393.013 197.053C394.4 194.813 397.173 194.146 401.333 195.053C404.48 195.693 406.64 196.04 407.813 196.093C409.04 196.146 410.08 195.986 410.933 195.613C414.826 194.333 417.013 192.946 417.493 191.453C417.813 190.333 417.12 189.026 415.413 187.533C414.72 186.893 413.946 186.253 413.093 185.613C412.24 184.973 411.52 184.333 410.933 183.693C408.266 181.72 406.16 179.453 404.613 176.893C403.12 174.28 402.506 171.453 402.773 168.413C403.04 165.373 403.546 162.866 404.293 160.893C405.04 158.866 405.973 157.08 407.093 155.533C409.066 152.813 411.626 150.6 414.773 148.893C418.4 147.026 421.306 145.826 423.493 145.293C427.813 144.333 432.186 144.253 436.613 145.053C438.106 145.32 439.386 145.826 440.453 146.573C441.52 147.32 442.586 148.093 443.653 148.893C445.52 150.76 445.973 152.653 445.013 154.573C444.64 155.426 444.053 156.12 443.253 156.653C442.453 157.186 441.6 157.48 440.693 157.533C440.8 158.973 440.533 160.04 439.893 160.733C438.666 161.96 436.533 162.76 433.493 163.133C429.12 162.813 426.16 163.053 424.613 163.853C422.8 164.813 422.133 166.893 422.613 170.093C422.72 170.786 423.146 171.506 423.893 172.253C424.693 173 425.6 173.8 426.613 174.653C427.68 175.506 428.773 176.466 429.893 177.533C431.066 178.6 432.08 179.826 432.933 181.213C435.92 186.12 435.68 191.853 432.213 198.413C429.653 203.32 425.28 207 419.093 209.453C415.893 210.733 412.106 211.373 407.733 211.373ZM135.8 269.293L131.96 279.053C131.426 280.546 130.946 282.093 130.52 283.693C130.093 285.293 129.64 286.68 129.16 287.853C128.68 289.08 127.933 290.04 126.92 290.733C125.96 291.426 124.866 291.933 123.64 292.253C122.413 292.626 121.133 292.786 119.8 292.733C118.52 292.68 117.373 292.44 116.36 292.013C114.066 290.946 113.266 289.186 113.96 286.733C116.413 275.96 118.706 267.32 120.84 260.813C123.026 254.306 124.813 249.186 126.2 245.453C127.64 241.72 129.133 237.773 130.68 233.613C130.84 232.066 131.48 230.68 132.6 229.453C133.72 228.226 135.026 227.213 136.52 226.413C138.066 225.613 139.666 225.053 141.32 224.733C142.973 224.36 144.44 224.306 145.72 224.573C147 224.84 147.933 225.426 148.52 226.333C149.16 227.24 149.213 228.546 148.68 230.253C146.76 235.16 145.4 238.626 144.6 240.653C143.8 242.68 143.08 244.493 142.44 246.093L140.2 251.373C141.32 251.426 142.733 251.266 144.44 250.893C147.533 250.2 149.773 249.96 151.16 250.173C151.16 249.906 151.293 249.453 151.56 248.813C153.053 242.306 154.733 236.333 156.6 230.893C157.933 226.413 161.373 224.066 166.92 223.853C169.106 223.853 170.76 224.386 171.88 225.453C173.106 226.573 173.266 228.093 172.36 230.013C167.453 243.773 163.986 254.626 161.96 262.573C159.666 271.746 158.146 277.933 157.4 281.133C156.706 284.333 156.093 286.226 155.56 286.813C155.026 287.4 154.466 287.8 153.88 288.013C153.346 288.28 152.813 288.52 152.28 288.733C151.746 288.946 151.32 289.48 151 290.333H150.76C150.333 291.293 149.4 292.04 147.96 292.573C146.52 293.106 145.053 293.293 143.56 293.133C142.12 293.026 140.893 292.493 139.88 291.533C138.92 290.626 138.68 289.213 139.16 287.293C139.693 284.253 140.573 281 141.8 277.533C143.026 274.013 143.986 271.266 144.68 269.293C145.426 267.32 146.04 265.48 146.52 263.773C146.093 263.986 145.666 264.146 145.24 264.253C144.866 264.36 144.386 264.573 143.8 264.893C143.213 265.16 142.6 265.4 141.96 265.613C141.373 265.826 140.786 266.04 140.2 266.253C138.706 266.84 137.48 267.426 136.52 268.013L135.8 269.293ZM144.84 263.933C144.893 263.933 145.16 263.853 145.64 263.693C145.32 263.8 145.053 263.88 144.84 263.933ZM191.151 228.813V228.973C191.151 229.026 191.151 229.053 191.151 229.053C191.204 229.053 191.231 229.08 191.231 229.133V229.293H191.311L191.791 230.573C192.324 232.12 190.938 236.92 187.631 244.973C184.111 253.56 182.484 260.253 182.751 265.053C183.338 268.466 186.191 265.72 191.311 256.813C195.364 249.88 199.284 242.28 203.071 234.013C203.551 232.893 204.058 231.746 204.591 230.573C205.124 229.346 205.791 228.333 206.591 227.533C208.351 225.613 210.484 225.106 212.991 226.013C213.844 225 214.831 224.306 215.951 223.933C217.124 223.56 218.218 223.48 219.231 223.693C220.298 223.906 221.204 224.413 221.951 225.213C222.698 225.96 223.098 226.973 223.151 228.253C223.311 229.32 222.751 231.853 221.471 235.853C220.244 239.853 219.098 243.506 218.031 246.813C216.964 250.12 215.871 253.72 214.751 257.613C212.031 266.84 209.871 275.533 208.271 283.693C208.218 285.4 207.471 286.813 206.031 287.933C204.644 289.053 203.071 289.773 201.311 290.093C199.604 290.466 197.978 290.413 196.431 289.933C194.564 289.4 193.578 288.066 193.471 285.933C193.471 285.346 193.444 284.76 193.391 284.173C193.498 285.986 192.191 287.533 189.471 288.813C188.724 289.186 188.031 289.533 187.391 289.853C183.658 290.973 179.738 290.733 175.631 289.133C173.711 288.333 171.978 287.266 170.431 285.933C168.938 284.546 167.898 282.92 167.311 281.053C165.444 275.08 165.791 267.24 168.351 257.533C169.418 253.373 170.724 249.32 172.271 245.373C173.818 241.426 174.938 238.573 175.631 236.813C176.378 235.053 176.911 233.853 177.231 233.213C177.551 232.52 177.898 231.853 178.271 231.213C179.178 229.4 179.951 228.173 180.591 227.533L181.551 226.653C181.658 226.546 181.764 226.493 181.871 226.493C181.978 226.44 182.111 226.36 182.271 226.253C182.698 225.986 183.151 225.8 183.631 225.693L184.751 225.453H185.231C186.778 225.24 188.111 225.56 189.231 226.413C189.231 226.466 189.284 226.493 189.391 226.493L190.031 227.053L190.271 227.293L190.511 227.613C190.511 227.666 190.511 227.693 190.511 227.693C190.564 227.693 190.591 227.72 190.591 227.773L190.671 227.853V228.013C190.724 228.013 190.751 228.04 190.751 228.093V228.173C190.804 228.226 190.858 228.253 190.911 228.253V228.333C190.911 228.386 190.911 228.413 190.911 228.413C190.964 228.413 190.991 228.44 190.991 228.493C190.991 228.493 191.018 228.52 191.071 228.573V228.653C191.071 228.706 191.098 228.76 191.151 228.813ZM193.311 282.093V281.853C193.258 281.906 193.231 282.12 193.231 282.493C193.231 282.333 193.258 282.226 193.311 282.173V282.093ZM223.917 255.693C224.983 252.12 225.837 249.373 226.477 247.453C227.17 245.48 227.837 243.72 228.477 242.173C229.117 240.626 229.837 239.133 230.637 237.693C231.49 236.253 232.397 234.946 233.357 233.773C234.37 232.546 235.437 231.586 236.557 230.893C237.677 230.2 238.85 229.853 240.077 229.853C241.303 229.853 242.583 230.333 243.917 231.293C246.05 236.626 247.357 240.2 247.837 242.013C248.477 244.68 249.063 248.44 249.597 253.293C250.077 252.066 250.61 250.786 251.197 249.453C251.837 248.066 252.45 246.68 253.037 245.293C254.69 241.773 255.73 239.106 256.157 237.293C257.33 233.56 259.757 230.76 263.437 228.893C266.637 227.293 269.623 226.786 272.397 227.373C273.517 227.586 274.29 228.04 274.717 228.733C275.197 229.426 275.197 230.146 274.717 230.893C274.29 231.64 274.13 232.36 274.237 233.053C274.397 233.693 274.53 234.466 274.637 235.373C274.797 237.826 274.37 240.013 273.357 241.933C272.343 243.8 271.303 246.146 270.237 248.973C269.17 251.746 268.077 254.706 266.957 257.853C265.89 261 264.797 264.2 263.677 267.453C262.557 270.706 261.463 273.666 260.397 276.333C258.05 282.466 256.13 285.853 254.637 286.493C252.61 287.72 251.117 288.44 250.157 288.653C248.93 288.866 247.197 288.866 244.957 288.653C243.57 288.546 242.37 286.76 241.357 283.293C240.77 281.426 240.237 278.84 239.757 275.533C238.903 269.773 238.317 266.6 237.997 266.013C235.863 272.946 234.343 277.32 233.437 279.133C232.583 280.946 231.917 282.146 231.437 282.733C231.01 283.32 230.477 284.093 229.837 285.053C229.143 286.973 227.49 288.386 224.877 289.293C222.637 290.146 220.61 290.28 218.797 289.693C216.823 289.053 216.237 287.826 217.037 286.013C217.623 279.613 219.917 269.506 223.917 255.693ZM318.627 254.253C318.414 256.546 317.987 258.893 317.347 261.293C316.761 263.693 315.881 266.04 314.707 268.333C313.587 270.626 312.227 272.84 310.627 274.973C309.081 277.106 307.347 279.08 305.427 280.893C303.507 282.706 301.454 284.226 299.267 285.453C294.574 288.226 290.041 289.213 285.667 288.413C284.707 290.493 283.267 291.8 281.347 292.333C279.481 292.92 277.614 292.92 275.747 292.333C273.934 291.8 272.334 290.76 270.947 289.213C269.561 287.666 268.867 285.56 268.867 282.893C268.867 280.173 269.054 277.4 269.427 274.573C269.801 271.746 270.307 269.026 270.947 266.413C271.961 262.093 273.214 258.04 274.707 254.253C278.227 245.666 280.227 239.64 280.707 236.173C281.401 231.533 282.681 228.653 284.547 227.533C287.641 225.72 290.574 224.946 293.347 225.213C296.121 225.48 298.627 226.146 300.867 227.213C304.547 228.973 308.521 231.933 312.787 236.093C317.481 240.626 319.427 246.68 318.627 254.253ZM287.187 278.253C289.907 276.866 292.094 275.453 293.747 274.013C295.454 272.52 297.054 271.16 298.547 269.933C300.841 267.64 302.521 264.92 303.587 261.773C305.934 254.84 304.441 249.586 299.107 246.013C298.307 245.426 297.107 244.626 295.507 243.613C294.761 245.32 294.201 247.106 293.827 248.973C293.507 250.84 293.054 252.653 292.467 254.413L290.307 261.453L288.547 269.053C288.441 270.12 288.281 271.16 288.067 272.173C287.854 273.133 287.667 274.146 287.507 275.213L287.187 278.253ZM334.447 276.653C337.541 276.973 339.834 277.133 341.327 277.133C342.874 277.133 345.194 276.92 348.287 276.493C349.247 276.813 349.807 277.213 349.967 277.693C350.127 278.173 350.181 278.68 350.127 279.213C350.074 279.693 350.101 280.173 350.207 280.653C350.314 281.133 350.821 281.533 351.727 281.853C352.207 282.013 352.341 282.493 352.127 283.293C351.967 284.04 351.541 284.866 350.847 285.773C349.087 288.066 347.007 289.666 344.607 290.573C340.767 291.533 337.754 292.093 335.567 292.253C331.941 292.52 327.994 292.386 323.727 291.853C319.034 291 316.767 289.053 316.927 286.013C316.927 274.813 319.381 263.56 324.287 252.253C325.887 248.573 327.701 244.706 329.727 240.653C330.154 239.8 330.394 238.84 330.447 237.773C330.554 236.706 330.634 235.666 330.687 234.653C330.741 233.64 330.901 232.733 331.167 231.933C331.434 231.133 331.994 230.573 332.847 230.253C343.941 225.826 352.714 224.12 359.167 225.133C361.407 225.186 362.874 225.96 363.567 227.453C364.314 228.893 364.394 230.52 363.807 232.333C363.274 234.146 362.181 235.853 360.527 237.453C358.927 239.053 356.901 240.04 354.447 240.413C351.301 241.32 349.381 241.933 348.687 242.253C347.354 242.893 346.394 243.746 345.807 244.813C345.061 245.986 344.367 247.106 343.727 248.173C343.087 249.24 342.634 250.386 342.367 251.613L342.047 253.373C343.061 253.853 344.287 254.013 345.727 253.853C347.221 253.64 348.581 253.453 349.807 253.293C351.087 253.08 352.101 253.053 352.847 253.213C353.647 253.373 353.807 254.173 353.327 255.613C352.901 257 352.074 258.573 350.847 260.333C349.674 262.093 347.994 263.373 345.807 264.173C344.421 264.44 343.461 264.653 342.927 264.813C342.447 264.92 342.074 265 341.807 265.053C341.434 265.106 340.367 265.186 338.607 265.293C336.101 269.56 334.581 272.866 334.047 275.213C333.834 276.173 333.967 276.653 334.447 276.653Z" fill="#780E08"/>
</svg>
