<svg width="1234" height="545" viewBox="0 0 1234 545" fill="none" xmlns="http://www.w3.org/2000/svg">
<path d="M36.2072 122.52C34.7672 126.68 33.3005 130.68 31.8072 134.52C30.3139 138.36 29.0605 141.267 28.0472 143.24C27.0872 145.267 26.2339 146.653 25.4872 147.4C24.7405 148.147 23.9672 148.653 23.1672 148.92C22.4205 149.187 21.6472 149.293 20.8472 149.24C20.1005 149.187 19.3272 149.133 18.5272 149.08C14.0472 148.387 12.6605 145.16 14.3672 139.4C15.4872 134.813 16.3939 131.08 17.0872 128.2C17.7805 125.267 18.3405 122.867 18.7672 121C19.2472 119.08 19.6472 117.507 19.9672 116.28C20.2872 115 20.6339 113.747 21.0072 112.52C21.3805 111.293 21.8339 109.907 22.3672 108.36C22.9539 106.813 23.7005 104.76 24.6072 102.2C22.5805 102.467 20.7672 102.253 19.1672 101.56C16.8205 100.547 15.8605 98.36 16.2872 95C16.5005 93.4533 17.3272 92.0133 18.7672 90.68C19.5139 89.9867 20.3939 89.24 21.4072 88.44C23.4872 86.7867 27.6205 85.0267 33.8072 83.16C40.2072 81.24 45.7005 80.3333 50.2872 80.44C51.5139 80.2267 52.7672 80.3867 54.0472 80.92C55.3805 81.4 56.4472 82.0667 57.2472 82.92C58.0472 83.7733 58.4472 84.7067 58.4472 85.72C58.5005 86.7333 57.8605 87.64 56.5272 88.44C55.8872 88.8667 55.4339 89.5867 55.1672 90.6C54.9005 91.56 54.6072 92.6 54.2872 93.72C53.9672 94.7867 53.4872 95.7733 52.8472 96.68C52.2605 97.5867 51.3005 98.12 49.9672 98.28C49.2739 98.6533 48.2872 98.92 47.0072 99.08C45.7805 99.24 44.9539 99.3733 44.5272 99.48C44.1539 99.5333 43.9405 99.6667 43.8872 99.88C42.9272 102.707 41.7805 106.147 40.4472 110.2C39.1139 114.2 37.7005 118.307 36.2072 122.52ZM25.4072 101.32C25.3005 101.32 25.2472 101.347 25.2472 101.4C25.2472 101.4 25.3005 101.4 25.4072 101.4V101.32ZM92.7634 88.76C94.5768 89.72 95.7234 91.1333 96.2034 93C95.1368 98.9733 94.1768 104.92 93.3234 110.84C92.4701 116.707 91.6434 121.64 90.8434 125.64C90.0434 129.587 89.4834 132.547 89.1634 134.52C88.8968 136.493 88.5768 138.467 88.2034 140.44L87.7234 142.12C87.6168 142.707 87.5101 143.24 87.4034 143.72C87.2968 144.253 87.1901 144.813 87.0834 145.4C85.5901 147.107 83.5634 147.96 81.0034 147.96C78.2834 147.96 76.1234 147.267 74.5234 145.88C73.5634 145.133 73.4034 143.56 74.0434 141.16C74.3101 140.2 74.4701 138.973 74.5234 137.48C74.6301 135.933 74.7368 134.653 74.8434 133.64V133.48C73.2434 134.067 71.8034 134.84 70.5234 135.8C69.2434 136.707 68.4434 137.293 68.1234 137.56C67.8034 137.773 67.3768 137.96 66.8434 138.12C66.3101 138.227 65.8301 138.307 65.4034 138.36C64.3901 138.413 63.6968 138.573 63.3234 138.84C60.2301 144.387 57.4568 147.48 55.0034 148.12C53.4568 148.6 51.9101 148.707 50.3634 148.44C48.8168 148.227 47.5901 147.32 46.6834 145.72C44.9768 144.12 45.4034 139.747 47.9634 132.6C49.3501 128.813 51.3234 124.28 53.8834 119C56.4968 113.667 59.0034 109.027 61.4034 105.08C66.5768 96.6 72.2568 89.4533 78.4434 83.64C79.4568 83.2133 80.5501 82.7333 81.7234 82.2C82.8968 81.6133 84.0434 81.2933 85.1634 81.24C86.3368 81.1867 87.5368 81.32 88.7634 81.64C89.9901 81.96 91.0301 82.44 91.8834 83.08C93.8568 84.5733 94.1501 86.4667 92.7634 88.76ZM75.6434 109.8C74.5234 113 73.4034 115.96 72.2834 118.68C71.1634 121.347 70.2034 123.693 69.4034 125.72L75.7234 125.48C76.1501 122.067 76.6301 118.68 77.1634 115.32C77.6968 111.96 78.2034 108.6 78.6834 105.24L75.6434 109.8ZM73.4834 125.8C74.2301 125.8 74.9768 125.747 75.7234 125.64V125.56C75.0301 125.613 74.3901 125.667 73.8034 125.72C73.2168 125.773 73.1101 125.8 73.4834 125.8ZM93.3234 131.72C96.4168 132.04 98.7101 132.2 100.203 132.2C101.75 132.2 104.07 131.987 107.163 131.56C108.123 131.88 108.683 132.28 108.843 132.76C109.003 133.24 109.057 133.747 109.003 134.28C108.95 134.76 108.977 135.24 109.083 135.72C109.19 136.2 109.697 136.6 110.603 136.92C111.083 137.08 111.217 137.56 111.003 138.36C110.843 139.107 110.417 139.933 109.723 140.84C107.963 143.133 105.883 144.733 103.483 145.64C99.6434 146.6 96.6301 147.16 94.4434 147.32C90.8168 147.587 86.8701 147.453 82.6034 146.92C77.9101 146.067 75.6434 144.12 75.8034 141.08C75.8034 129.88 78.2568 118.627 83.1634 107.32C84.7634 103.64 86.5768 99.7733 88.6034 95.72C89.0301 94.8667 89.2701 93.9067 89.3234 92.84C89.4301 91.7733 89.5101 90.7333 89.5634 89.72C89.6168 88.7067 89.7768 87.8 90.0434 87C90.3101 86.2 90.8701 85.64 91.7234 85.32C102.817 80.8933 111.59 79.1867 118.043 80.2C120.283 80.2533 121.75 81.0267 122.443 82.52C123.19 83.96 123.27 85.5867 122.683 87.4C122.15 89.2133 121.057 90.92 119.403 92.52C117.803 94.12 115.777 95.1067 113.323 95.48C110.177 96.3867 108.257 97 107.563 97.32C106.23 97.96 105.27 98.8133 104.683 99.88C103.937 101.053 103.243 102.173 102.603 103.24C101.963 104.307 101.51 105.453 101.243 106.68L100.923 108.44C101.937 108.92 103.163 109.08 104.603 108.92C106.097 108.707 107.457 108.52 108.683 108.36C109.963 108.147 110.977 108.12 111.723 108.28C112.523 108.44 112.683 109.24 112.203 110.68C111.777 112.067 110.95 113.64 109.723 115.4C108.55 117.16 106.87 118.44 104.683 119.24C103.297 119.507 102.337 119.72 101.803 119.88C101.323 119.987 100.95 120.067 100.683 120.12C100.31 120.173 99.2434 120.253 97.4834 120.36C94.9768 124.627 93.4568 127.933 92.9234 130.28C92.7101 131.24 92.8434 131.72 93.3234 131.72ZM121.542 111.96C122.608 108.387 123.462 105.64 124.102 103.72C124.795 101.747 125.462 99.9867 126.102 98.44C126.742 96.8933 127.462 95.4 128.262 93.96C129.115 92.52 130.022 91.2133 130.982 90.04C131.995 88.8133 133.062 87.8533 134.182 87.16C135.302 86.4667 136.475 86.12 137.702 86.12C138.928 86.12 140.208 86.6 141.542 87.56C143.675 92.8933 144.982 96.4667 145.462 98.28C146.102 100.947 146.688 104.707 147.222 109.56C147.702 108.333 148.235 107.053 148.822 105.72C149.462 104.333 150.075 102.947 150.662 101.56C152.315 98.04 153.355 95.3733 153.782 93.56C154.955 89.8267 157.382 87.0267 161.062 85.16C164.262 83.56 167.248 83.0533 170.022 83.64C171.142 83.8533 171.915 84.3067 172.342 85C172.822 85.6933 172.822 86.4133 172.342 87.16C171.915 87.9067 171.755 88.6267 171.862 89.32C172.022 89.96 172.155 90.7333 172.262 91.64C172.422 94.0933 171.995 96.28 170.982 98.2C169.968 100.067 168.928 102.413 167.862 105.24C166.795 108.013 165.702 110.973 164.582 114.12C163.515 117.267 162.422 120.467 161.302 123.72C160.182 126.973 159.088 129.933 158.022 132.6C155.675 138.733 153.755 142.12 152.262 142.76C150.235 143.987 148.742 144.707 147.782 144.92C146.555 145.133 144.822 145.133 142.582 144.92C141.195 144.813 139.995 143.027 138.982 139.56C138.395 137.693 137.862 135.107 137.382 131.8C136.528 126.04 135.942 122.867 135.622 122.28C133.488 129.213 131.968 133.587 131.062 135.4C130.208 137.213 129.542 138.413 129.062 139C128.635 139.587 128.102 140.36 127.462 141.32C126.768 143.24 125.115 144.653 122.502 145.56C120.262 146.413 118.235 146.547 116.422 145.96C114.448 145.32 113.862 144.093 114.662 142.28C115.248 135.88 117.542 125.773 121.542 111.96ZM180.892 86.2C181.906 83.7467 183.346 82.8667 185.212 83.56C185.746 82.3867 186.199 81.64 186.572 81.32C186.999 81 187.426 80.76 187.852 80.6C188.279 80.3867 188.732 80.1733 189.212 79.96C189.692 79.7467 190.439 79.56 191.452 79.4C192.466 79.24 193.586 79.16 194.812 79.16C196.039 79.1067 197.266 79.16 198.492 79.32C199.772 79.48 200.839 79.8267 201.692 80.36C203.772 81.5867 204.226 83.56 203.052 86.28C203.159 86.2267 203.132 86.28 202.972 86.44L202.252 87.8L201.692 88.52C201.426 88.7867 200.599 90.4133 199.212 93.4C198.092 95.5333 196.946 97.64 195.772 99.72C193.852 103.293 192.679 105.587 192.252 106.6C194.119 105.587 196.279 104.12 198.732 102.2C203.372 98.6267 206.332 96.4933 207.612 95.8C208.892 95.1067 209.772 94.68 210.252 94.52C210.786 94.36 211.292 94.3333 211.772 94.44C212.252 94.4933 212.759 94.6267 213.292 94.84L215.292 95.64C216.572 96.0667 217.266 97.6133 217.372 100.28C217.426 102.893 216.892 104.867 215.772 106.2C210.919 112.493 205.452 116.707 199.372 118.84C197.506 119.533 195.586 120.12 193.612 120.6C196.439 120.92 199.132 122.787 201.692 126.2C203.772 128.973 205.266 131.827 206.172 134.76C207.132 137.693 207.879 139.88 208.412 141.32C208.946 142.707 209.159 143.773 209.052 144.52C208.999 145.32 208.546 145.907 207.692 146.28C206.892 146.707 205.506 147.107 203.532 147.48C202.626 147.64 200.759 146.573 197.932 144.28C196.706 143.267 195.399 142.173 194.012 141C192.626 139.773 191.239 138.627 189.852 137.56C186.652 135.053 184.412 133.747 183.132 133.64C183.026 133.64 182.812 133.587 182.492 133.48L181.052 137.08C180.306 138.84 179.532 140.707 178.732 142.68C177.986 144.6 177.079 146.333 176.012 147.88C174.359 149 172.439 149.453 170.252 149.24C167.746 148.973 166.092 147.96 165.292 146.2C164.759 144.547 165.639 139.693 167.932 131.64C169.479 125.987 170.812 121.027 171.932 116.76C173.052 112.493 174.012 108.973 174.812 106.2C175.612 103.373 176.199 101.187 176.572 99.64C176.946 98.04 177.319 96.4933 177.692 95C178.599 91.5333 179.666 88.6 180.892 86.2ZM253.982 90.04C257.342 86.2 261.076 83.8 265.182 82.84C268.009 82.1467 270.676 82.2533 273.182 83.16C275.156 81.08 277.716 80.3333 280.862 80.92C283.742 81.4533 286.196 83.08 288.222 85.8C288.329 86.1733 288.542 86.7333 288.862 87.48C289.236 88.2267 289.582 89.0533 289.902 89.96C292.249 95.4 292.436 102.547 290.462 111.4C288.009 122.387 283.662 131.693 277.422 139.32C275.502 141.667 273.342 143.613 270.942 145.16C267.102 148.093 262.516 149.4 257.182 149.08C253.876 148.92 251.102 148.093 248.862 146.6C239.956 142.173 237.049 132.947 240.142 118.92C242.702 107.4 247.316 97.7733 253.982 90.04ZM254.942 132.52L254.862 133L255.022 133.88C255.342 135.533 255.876 136.813 256.622 137.72C257.369 138.573 257.982 139.107 258.462 139.32C258.996 138.893 259.529 138.493 260.062 138.12C260.596 137.747 261.076 137.293 261.502 136.76C265.129 132.28 267.956 126.413 269.982 119.16C272.009 111.907 272.756 105.187 272.222 99C270.142 101.667 267.956 104.733 265.662 108.2C263.369 111.667 261.556 114.627 260.222 117.08C257.182 122.787 255.422 127.933 254.942 132.52ZM295.156 140.36L294.596 88.68C294.596 87.4 295.103 86.3067 296.116 85.4C297.183 84.44 298.383 83.7733 299.716 83.4C301.049 83.0267 302.303 82.9733 303.476 83.24C304.649 83.5067 305.396 84.2 305.716 85.32C306.729 87.3467 307.423 90.1467 307.796 93.72C308.489 100.387 308.836 106.147 308.836 111C309.369 111.853 310.036 112.253 310.836 112.2C313.129 106.6 315.663 101.213 318.436 96.04C321.209 90.8667 322.996 87.56 323.796 86.12C324.596 84.6267 325.556 83.5867 326.676 83C327.796 82.4133 328.996 82.04 330.276 81.88C333.049 81.56 335.663 82.04 338.116 83.32C339.983 83.96 341.076 85.0533 341.396 86.6C342.623 89.0533 341.796 91.88 338.916 95.08C335.556 100.413 332.169 106.307 328.756 112.76C322.249 125.187 318.116 132.84 316.356 135.72C314.596 138.6 313.316 140.653 312.516 141.88C311.716 143.053 310.809 144.04 309.796 144.84C307.983 146.28 305.796 146.867 303.236 146.6C298.756 146.44 296.143 145.027 295.396 142.36C295.236 141.613 295.156 140.947 295.156 140.36ZM348.088 132.92C351.181 133.24 353.474 133.4 354.968 133.4C356.514 133.4 358.834 133.187 361.928 132.76C362.888 133.08 363.448 133.48 363.608 133.96C363.768 134.44 363.821 134.947 363.768 135.48C363.714 135.96 363.741 136.44 363.848 136.92C363.954 137.4 364.461 137.8 365.368 138.12C365.848 138.28 365.981 138.76 365.768 139.56C365.608 140.307 365.181 141.133 364.488 142.04C362.728 144.333 360.648 145.933 358.248 146.84C354.408 147.8 351.394 148.36 349.208 148.52C345.581 148.787 341.634 148.653 337.368 148.12C332.674 147.267 330.408 145.32 330.568 142.28C330.568 131.08 333.021 119.827 337.928 108.52C339.528 104.84 341.341 100.973 343.368 96.92C343.794 96.0667 344.034 95.1067 344.088 94.04C344.194 92.9733 344.274 91.9333 344.328 90.92C344.381 89.9067 344.541 89 344.808 88.2C345.074 87.4 345.634 86.84 346.488 86.52C357.581 82.0933 366.354 80.3867 372.808 81.4C375.048 81.4533 376.514 82.2267 377.208 83.72C377.954 85.16 378.034 86.7867 377.448 88.6C376.914 90.4133 375.821 92.12 374.168 93.72C372.568 95.32 370.541 96.3067 368.088 96.68C364.941 97.5867 363.021 98.2 362.328 98.52C360.994 99.16 360.034 100.013 359.448 101.08C358.701 102.253 358.008 103.373 357.368 104.44C356.728 105.507 356.274 106.653 356.008 107.88L355.688 109.64C356.701 110.12 357.928 110.28 359.368 110.12C360.861 109.907 362.221 109.72 363.448 109.56C364.728 109.347 365.741 109.32 366.488 109.48C367.288 109.64 367.448 110.44 366.968 111.88C366.541 113.267 365.714 114.84 364.488 116.6C363.314 118.36 361.634 119.64 359.448 120.44C358.061 120.707 357.101 120.92 356.568 121.08C356.088 121.187 355.714 121.267 355.448 121.32C355.074 121.373 354.008 121.453 352.248 121.56C349.741 125.827 348.221 129.133 347.688 131.48C347.474 132.44 347.608 132.92 348.088 132.92ZM385.961 143.24C385.481 145.373 383.828 146.68 381.001 147.16C378.388 147.64 375.908 147.347 373.561 146.28C370.948 145.16 369.801 143.587 370.121 141.56C369.801 138.467 371.428 131.747 375.001 121.4C380.334 105.88 385.668 94.7867 391.001 88.12C392.388 86.4133 393.561 85.32 394.521 84.84C395.534 84.3067 396.681 83.8267 397.961 83.4C399.241 82.9733 400.574 82.5733 401.961 82.2C404.734 81.4533 407.348 80.9467 409.801 80.68C412.308 80.36 414.548 80.6533 416.521 81.56C418.494 82.4133 420.014 83.6933 421.081 85.4C422.201 87.1067 422.894 89.1333 423.161 91.48C423.428 93.7733 423.348 96.2 422.921 98.76C422.494 101.267 421.721 103.827 420.601 106.44C419.481 109 418.068 111.4 416.361 113.64C412.628 118.547 408.254 121.72 403.241 123.16L404.041 124.52C404.734 125.587 405.561 126.76 406.521 128.04C407.534 129.32 408.521 130.627 409.481 131.96C410.494 133.293 411.401 134.627 412.201 135.96C413.001 137.293 413.588 138.547 413.961 139.72C414.814 142.333 414.148 144.227 411.961 145.4C410.201 146.467 408.814 146.733 407.801 146.2C407.374 145.933 406.948 145.587 406.521 145.16C406.094 144.787 405.508 144.467 404.761 144.2C401.614 145.107 399.214 144.307 397.561 141.8C396.548 140.2 395.774 138.733 395.241 137.4C394.708 136.067 394.254 134.947 393.881 134.04C392.921 132.067 391.828 130.36 390.601 128.92C390.014 130.36 389.348 132.2 388.601 134.44C387.694 137.267 386.681 140.2 385.561 143.24H385.961ZM402.121 96.68C401.108 98.9733 400.414 100.573 400.041 101.48C399.294 103.293 398.468 105.293 397.561 107.48C397.401 108.653 397.268 109.48 397.161 109.96L398.281 108.84L399.641 108.2C400.601 107.667 401.481 107.187 402.281 106.76C403.081 106.333 403.801 105.8 404.441 105.16C405.668 103.933 406.734 101.933 407.641 99.16C407.641 98.6267 407.721 98.0933 407.881 97.56C408.094 97.0267 408.228 96.4933 408.281 95.96C408.494 94.7867 408.014 93.96 406.841 93.48C405.774 93.3733 404.441 94.2533 402.841 96.12C402.521 96.4933 402.281 96.68 402.121 96.68ZM462.565 125.56L458.725 135.32C458.192 136.813 457.712 138.36 457.285 139.96C456.859 141.56 456.405 142.947 455.925 144.12C455.445 145.347 454.699 146.307 453.685 147C452.725 147.693 451.632 148.2 450.405 148.52C449.179 148.893 447.899 149.053 446.565 149C445.285 148.947 444.139 148.707 443.125 148.28C440.832 147.213 440.032 145.453 440.725 143C443.179 132.227 445.472 123.587 447.605 117.08C449.792 110.573 451.579 105.453 452.965 101.72C454.405 97.9867 455.899 94.04 457.445 89.88C457.605 88.3333 458.245 86.9467 459.365 85.72C460.485 84.4933 461.792 83.48 463.285 82.68C464.832 81.88 466.432 81.32 468.085 81C469.739 80.6267 471.205 80.5733 472.485 80.84C473.765 81.1067 474.699 81.6933 475.285 82.6C475.925 83.5067 475.979 84.8133 475.445 86.52C473.525 91.4267 472.165 94.8933 471.365 96.92C470.565 98.9467 469.845 100.76 469.205 102.36L466.965 107.64C468.085 107.693 469.499 107.533 471.205 107.16C474.299 106.467 476.539 106.227 477.925 106.44C477.925 106.173 478.059 105.72 478.325 105.08C479.819 98.5733 481.499 92.6 483.365 87.16C484.699 82.68 488.139 80.3333 493.685 80.12C495.872 80.12 497.525 80.6533 498.645 81.72C499.872 82.84 500.032 84.36 499.125 86.28C494.219 100.04 490.752 110.893 488.725 118.84C486.432 128.013 484.912 134.2 484.165 137.4C483.472 140.6 482.859 142.493 482.325 143.08C481.792 143.667 481.232 144.067 480.645 144.28C480.112 144.547 479.579 144.787 479.045 145C478.512 145.213 478.085 145.747 477.765 146.6H477.525C477.099 147.56 476.165 148.307 474.725 148.84C473.285 149.373 471.819 149.56 470.325 149.4C468.885 149.293 467.659 148.76 466.645 147.8C465.685 146.893 465.445 145.48 465.925 143.56C466.459 140.52 467.339 137.267 468.565 133.8C469.792 130.28 470.752 127.533 471.445 125.56C472.192 123.587 472.805 121.747 473.285 120.04C472.859 120.253 472.432 120.413 472.005 120.52C471.632 120.627 471.152 120.84 470.565 121.16C469.979 121.427 469.365 121.667 468.725 121.88C468.139 122.093 467.552 122.307 466.965 122.52C465.472 123.107 464.245 123.693 463.285 124.28L462.565 125.56ZM471.605 120.2C471.659 120.2 471.925 120.12 472.405 119.96C472.085 120.067 471.819 120.147 471.605 120.2ZM496.797 140.36L496.237 88.68C496.237 87.4 496.743 86.3067 497.757 85.4C498.823 84.44 500.023 83.7733 501.357 83.4C502.69 83.0267 503.943 82.9733 505.117 83.24C506.29 83.5067 507.037 84.2 507.357 85.32C508.37 87.3467 509.063 90.1467 509.437 93.72C510.13 100.387 510.477 106.147 510.477 111C511.01 111.853 511.677 112.253 512.477 112.2C514.77 106.6 517.303 101.213 520.077 96.04C522.85 90.8667 524.637 87.56 525.437 86.12C526.237 84.6267 527.197 83.5867 528.317 83C529.437 82.4133 530.637 82.04 531.917 81.88C534.69 81.56 537.303 82.04 539.757 83.32C541.623 83.96 542.717 85.0533 543.037 86.6C544.263 89.0533 543.437 91.88 540.557 95.08C537.197 100.413 533.81 106.307 530.397 112.76C523.89 125.187 519.757 132.84 517.997 135.72C516.237 138.6 514.957 140.653 514.157 141.88C513.357 143.053 512.45 144.04 511.437 144.84C509.623 146.28 507.437 146.867 504.877 146.6C500.397 146.44 497.783 145.027 497.037 142.36C496.877 141.613 496.797 140.947 496.797 140.36ZM575.888 88.76C577.702 89.72 578.848 91.1333 579.328 93C578.262 98.9733 577.302 104.92 576.448 110.84C575.595 116.707 574.768 121.64 573.968 125.64C573.168 129.587 572.608 132.547 572.288 134.52C572.022 136.493 571.702 138.467 571.328 140.44L570.848 142.12C570.742 142.707 570.635 143.24 570.528 143.72C570.422 144.253 570.315 144.813 570.208 145.4C568.715 147.107 566.688 147.96 564.128 147.96C561.408 147.96 559.248 147.267 557.648 145.88C556.688 145.133 556.528 143.56 557.168 141.16C557.435 140.2 557.595 138.973 557.648 137.48C557.755 135.933 557.862 134.653 557.968 133.64V133.48C556.368 134.067 554.928 134.84 553.648 135.8C552.368 136.707 551.568 137.293 551.248 137.56C550.928 137.773 550.502 137.96 549.968 138.12C549.435 138.227 548.955 138.307 548.528 138.36C547.515 138.413 546.822 138.573 546.448 138.84C543.355 144.387 540.582 147.48 538.128 148.12C536.582 148.6 535.035 148.707 533.488 148.44C531.942 148.227 530.715 147.32 529.808 145.72C528.102 144.12 528.528 139.747 531.088 132.6C532.475 128.813 534.448 124.28 537.008 119C539.622 113.667 542.128 109.027 544.528 105.08C549.702 96.6 555.382 89.4533 561.568 83.64C562.582 83.2133 563.675 82.7333 564.848 82.2C566.022 81.6133 567.168 81.2933 568.288 81.24C569.462 81.1867 570.662 81.32 571.888 81.64C573.115 81.96 574.155 82.44 575.008 83.08C576.982 84.5733 577.275 86.4667 575.888 88.76ZM558.768 109.8C557.648 113 556.528 115.96 555.408 118.68C554.288 121.347 553.328 123.693 552.528 125.72L558.848 125.48C559.275 122.067 559.755 118.68 560.288 115.32C560.822 111.96 561.328 108.6 561.808 105.24L558.768 109.8ZM556.608 125.8C557.355 125.8 558.102 125.747 558.848 125.64V125.56C558.155 125.613 557.515 125.667 556.928 125.72C556.342 125.773 556.235 125.8 556.608 125.8ZM626.565 110.52C626.351 112.813 625.925 115.16 625.285 117.56C624.698 119.96 623.818 122.307 622.645 124.6C621.525 126.893 620.165 129.107 618.565 131.24C617.018 133.373 615.285 135.347 613.365 137.16C611.445 138.973 609.391 140.493 607.205 141.72C602.511 144.493 597.978 145.48 593.605 144.68C592.645 146.76 591.205 148.067 589.285 148.6C587.418 149.187 585.551 149.187 583.685 148.6C581.871 148.067 580.271 147.027 578.885 145.48C577.498 143.933 576.805 141.827 576.805 139.16C576.805 136.44 576.991 133.667 577.365 130.84C577.738 128.013 578.245 125.293 578.885 122.68C579.898 118.36 581.151 114.307 582.645 110.52C586.165 101.933 588.165 95.9067 588.645 92.44C589.338 87.8 590.618 84.92 592.485 83.8C595.578 81.9867 598.511 81.2133 601.285 81.48C604.058 81.7467 606.565 82.4133 608.805 83.48C612.485 85.24 616.458 88.2 620.725 92.36C625.418 96.8933 627.365 102.947 626.565 110.52ZM595.125 134.52C597.845 133.133 600.031 131.72 601.685 130.28C603.391 128.787 604.991 127.427 606.485 126.2C608.778 123.907 610.458 121.187 611.525 118.04C613.871 111.107 612.378 105.853 607.045 102.28C606.245 101.693 605.045 100.893 603.445 99.88C602.698 101.587 602.138 103.373 601.765 105.24C601.445 107.107 600.991 108.92 600.405 110.68L598.245 117.72L596.485 125.32C596.378 126.387 596.218 127.427 596.005 128.44C595.791 129.4 595.605 130.413 595.445 131.48L595.125 134.52ZM698.987 110.52C698.773 112.813 698.347 115.16 697.707 117.56C697.12 119.96 696.24 122.307 695.067 124.6C693.947 126.893 692.587 129.107 690.987 131.24C689.44 133.373 687.707 135.347 685.787 137.16C683.867 138.973 681.813 140.493 679.627 141.72C674.933 144.493 670.4 145.48 666.027 144.68C665.067 146.76 663.627 148.067 661.707 148.6C659.84 149.187 657.973 149.187 656.107 148.6C654.293 148.067 652.693 147.027 651.307 145.48C649.92 143.933 649.227 141.827 649.227 139.16C649.227 136.44 649.413 133.667 649.787 130.84C650.16 128.013 650.667 125.293 651.307 122.68C652.32 118.36 653.573 114.307 655.067 110.52C658.587 101.933 660.587 95.9067 661.067 92.44C661.76 87.8 663.04 84.92 664.907 83.8C668 81.9867 670.933 81.2133 673.707 81.48C676.48 81.7467 678.987 82.4133 681.227 83.48C684.907 85.24 688.88 88.2 693.147 92.36C697.84 96.8933 699.787 102.947 698.987 110.52ZM667.547 134.52C670.267 133.133 672.453 131.72 674.107 130.28C675.813 128.787 677.413 127.427 678.907 126.2C681.2 123.907 682.88 121.187 683.947 118.04C686.293 111.107 684.8 105.853 679.467 102.28C678.667 101.693 677.467 100.893 675.867 99.88C675.12 101.587 674.56 103.373 674.187 105.24C673.867 107.107 673.413 108.92 672.827 110.68L670.667 117.72L668.907 125.32C668.8 126.387 668.64 127.427 668.427 128.44C668.213 129.4 668.027 130.413 667.867 131.48L667.547 134.52ZM724.167 85.08V85.24C724.167 85.2933 724.167 85.32 724.167 85.32C724.22 85.32 724.247 85.3467 724.247 85.4V85.56H724.327L724.807 86.84C725.34 88.3867 723.953 93.1867 720.647 101.24C717.127 109.827 715.5 116.52 715.767 121.32C716.353 124.733 719.207 121.987 724.327 113.08C728.38 106.147 732.3 98.5467 736.087 90.28C736.567 89.16 737.073 88.0133 737.607 86.84C738.14 85.6133 738.807 84.6 739.607 83.8C741.367 81.88 743.5 81.3733 746.007 82.28C746.86 81.2667 747.847 80.5733 748.967 80.2C750.14 79.8267 751.233 79.7467 752.247 79.96C753.313 80.1733 754.22 80.68 754.967 81.48C755.713 82.2267 756.113 83.24 756.167 84.52C756.327 85.5867 755.767 88.12 754.487 92.12C753.26 96.12 752.113 99.7733 751.047 103.08C749.98 106.387 748.887 109.987 747.767 113.88C745.047 123.107 742.887 131.8 741.287 139.96C741.233 141.667 740.487 143.08 739.047 144.2C737.66 145.32 736.087 146.04 734.327 146.36C732.62 146.733 730.993 146.68 729.447 146.2C727.58 145.667 726.593 144.333 726.487 142.2C726.487 141.613 726.46 141.027 726.407 140.44C726.513 142.253 725.207 143.8 722.487 145.08C721.74 145.453 721.047 145.8 720.407 146.12C716.673 147.24 712.753 147 708.647 145.4C706.727 144.6 704.993 143.533 703.447 142.2C701.953 140.813 700.913 139.187 700.327 137.32C698.46 131.347 698.807 123.507 701.367 113.8C702.433 109.64 703.74 105.587 705.287 101.64C706.833 97.6933 707.953 94.84 708.647 93.08C709.393 91.32 709.927 90.12 710.247 89.48C710.567 88.7867 710.913 88.12 711.287 87.48C712.193 85.6667 712.967 84.44 713.607 83.8L714.567 82.92C714.673 82.8133 714.78 82.76 714.887 82.76C714.993 82.7067 715.127 82.6267 715.287 82.52C715.713 82.2533 716.167 82.0667 716.647 81.96L717.767 81.72H718.247C719.793 81.5067 721.127 81.8267 722.247 82.68C722.247 82.7333 722.3 82.76 722.407 82.76L723.047 83.32L723.287 83.56L723.527 83.88C723.527 83.9333 723.527 83.96 723.527 83.96C723.58 83.96 723.607 83.9867 723.607 84.04L723.687 84.12V84.28C723.74 84.28 723.767 84.3067 723.767 84.36V84.44C723.82 84.4933 723.873 84.52 723.927 84.52V84.6C723.927 84.6533 723.927 84.68 723.927 84.68C723.98 84.68 724.007 84.7067 724.007 84.76C724.007 84.76 724.033 84.7867 724.087 84.84V84.92C724.087 84.9733 724.113 85.0267 724.167 85.08ZM726.327 138.36V138.12C726.273 138.173 726.247 138.387 726.247 138.76C726.247 138.6 726.273 138.493 726.327 138.44V138.36ZM790.814 86.2C791.827 83.7467 793.267 82.8667 795.134 83.56C795.667 82.3867 796.121 81.64 796.494 81.32C796.921 81 797.347 80.76 797.774 80.6C798.201 80.3867 798.654 80.1733 799.134 79.96C799.614 79.7467 800.361 79.56 801.374 79.4C802.387 79.24 803.507 79.16 804.734 79.16C805.961 79.1067 807.187 79.16 808.414 79.32C809.694 79.48 810.761 79.8267 811.614 80.36C813.694 81.5867 814.147 83.56 812.974 86.28C813.081 86.2267 813.054 86.28 812.894 86.44L812.174 87.8L811.614 88.52C811.347 88.7867 810.521 90.4133 809.134 93.4C808.014 95.5333 806.867 97.64 805.694 99.72C803.774 103.293 802.601 105.587 802.174 106.6C804.041 105.587 806.201 104.12 808.654 102.2C813.294 98.6267 816.254 96.4933 817.534 95.8C818.814 95.1067 819.694 94.68 820.174 94.52C820.707 94.36 821.214 94.3333 821.694 94.44C822.174 94.4933 822.681 94.6267 823.214 94.84L825.214 95.64C826.494 96.0667 827.187 97.6133 827.294 100.28C827.347 102.893 826.814 104.867 825.694 106.2C820.841 112.493 815.374 116.707 809.294 118.84C807.427 119.533 805.507 120.12 803.534 120.6C806.361 120.92 809.054 122.787 811.614 126.2C813.694 128.973 815.187 131.827 816.094 134.76C817.054 137.693 817.801 139.88 818.334 141.32C818.867 142.707 819.081 143.773 818.974 144.52C818.921 145.32 818.467 145.907 817.614 146.28C816.814 146.707 815.427 147.107 813.454 147.48C812.547 147.64 810.681 146.573 807.854 144.28C806.627 143.267 805.321 142.173 803.934 141C802.547 139.773 801.161 138.627 799.774 137.56C796.574 135.053 794.334 133.747 793.054 133.64C792.947 133.64 792.734 133.587 792.414 133.48L790.974 137.08C790.227 138.84 789.454 140.707 788.654 142.68C787.907 144.6 787.001 146.333 785.934 147.88C784.281 149 782.361 149.453 780.174 149.24C777.667 148.973 776.014 147.96 775.214 146.2C774.681 144.547 775.561 139.693 777.854 131.64C779.401 125.987 780.734 121.027 781.854 116.76C782.974 112.493 783.934 108.973 784.734 106.2C785.534 103.373 786.121 101.187 786.494 99.64C786.867 98.04 787.241 96.4933 787.614 95C788.521 91.5333 789.587 88.6 790.814 86.2ZM866.982 88.76C868.796 89.72 869.942 91.1333 870.422 93C869.356 98.9733 868.396 104.92 867.542 110.84C866.689 116.707 865.862 121.64 865.062 125.64C864.262 129.587 863.702 132.547 863.382 134.52C863.116 136.493 862.796 138.467 862.422 140.44L861.942 142.12C861.836 142.707 861.729 143.24 861.622 143.72C861.516 144.253 861.409 144.813 861.302 145.4C859.809 147.107 857.782 147.96 855.222 147.96C852.502 147.96 850.342 147.267 848.742 145.88C847.782 145.133 847.622 143.56 848.262 141.16C848.529 140.2 848.689 138.973 848.742 137.48C848.849 135.933 848.956 134.653 849.062 133.64V133.48C847.462 134.067 846.022 134.84 844.742 135.8C843.462 136.707 842.662 137.293 842.342 137.56C842.022 137.773 841.596 137.96 841.062 138.12C840.529 138.227 840.049 138.307 839.622 138.36C838.609 138.413 837.916 138.573 837.542 138.84C834.449 144.387 831.676 147.48 829.222 148.12C827.676 148.6 826.129 148.707 824.582 148.44C823.036 148.227 821.809 147.32 820.902 145.72C819.196 144.12 819.622 139.747 822.182 132.6C823.569 128.813 825.542 124.28 828.102 119C830.716 113.667 833.222 109.027 835.622 105.08C840.796 96.6 846.476 89.4533 852.662 83.64C853.676 83.2133 854.769 82.7333 855.942 82.2C857.116 81.6133 858.262 81.2933 859.382 81.24C860.556 81.1867 861.756 81.32 862.982 81.64C864.209 81.96 865.249 82.44 866.102 83.08C868.076 84.5733 868.369 86.4667 866.982 88.76ZM849.862 109.8C848.742 113 847.622 115.96 846.502 118.68C845.382 121.347 844.422 123.693 843.622 125.72L849.942 125.48C850.369 122.067 850.849 118.68 851.382 115.32C851.916 111.96 852.422 108.6 852.902 105.24L849.862 109.8ZM847.702 125.8C848.449 125.8 849.196 125.747 849.942 125.64V125.56C849.249 125.613 848.609 125.667 848.022 125.72C847.436 125.773 847.329 125.8 847.702 125.8ZM873.338 111.96C874.405 108.387 875.258 105.64 875.898 103.72C876.592 101.747 877.258 99.9867 877.898 98.44C878.538 96.8933 879.258 95.4 880.058 93.96C880.912 92.52 881.818 91.2133 882.778 90.04C883.792 88.8133 884.858 87.8533 885.978 87.16C887.098 86.4667 888.272 86.12 889.498 86.12C890.725 86.12 892.005 86.6 893.338 87.56C895.472 92.8933 896.778 96.4667 897.258 98.28C897.898 100.947 898.485 104.707 899.018 109.56C899.498 108.333 900.032 107.053 900.618 105.72C901.258 104.333 901.872 102.947 902.458 101.56C904.112 98.04 905.152 95.3733 905.578 93.56C906.752 89.8267 909.178 87.0267 912.858 85.16C916.058 83.56 919.045 83.0533 921.818 83.64C922.938 83.8533 923.712 84.3067 924.138 85C924.618 85.6933 924.618 86.4133 924.138 87.16C923.712 87.9067 923.552 88.6267 923.658 89.32C923.818 89.96 923.952 90.7333 924.058 91.64C924.218 94.0933 923.792 96.28 922.778 98.2C921.765 100.067 920.725 102.413 919.658 105.24C918.592 108.013 917.498 110.973 916.378 114.12C915.312 117.267 914.218 120.467 913.098 123.72C911.978 126.973 910.885 129.933 909.818 132.6C907.472 138.733 905.552 142.12 904.058 142.76C902.032 143.987 900.538 144.707 899.578 144.92C898.352 145.133 896.618 145.133 894.378 144.92C892.992 144.813 891.792 143.027 890.778 139.56C890.192 137.693 889.658 135.107 889.178 131.8C888.325 126.04 887.738 122.867 887.418 122.28C885.285 129.213 883.765 133.587 882.858 135.4C882.005 137.213 881.338 138.413 880.858 139C880.432 139.587 879.898 140.36 879.258 141.32C878.565 143.24 876.912 144.653 874.298 145.56C872.058 146.413 870.032 146.547 868.218 145.96C866.245 145.32 865.658 144.093 866.458 142.28C867.045 135.88 869.338 125.773 873.338 111.96ZM971.051 122.52C969.611 126.68 968.144 130.68 966.651 134.52C965.158 138.36 963.904 141.267 962.891 143.24C961.931 145.267 961.078 146.653 960.331 147.4C959.584 148.147 958.811 148.653 958.011 148.92C957.264 149.187 956.491 149.293 955.691 149.24C954.944 149.187 954.171 149.133 953.371 149.08C948.891 148.387 947.504 145.16 949.211 139.4C950.331 134.813 951.238 131.08 951.931 128.2C952.624 125.267 953.184 122.867 953.611 121C954.091 119.08 954.491 117.507 954.811 116.28C955.131 115 955.478 113.747 955.851 112.52C956.224 111.293 956.678 109.907 957.211 108.36C957.798 106.813 958.544 104.76 959.451 102.2C957.424 102.467 955.611 102.253 954.011 101.56C951.664 100.547 950.704 98.36 951.131 95C951.344 93.4533 952.171 92.0133 953.611 90.68C954.358 89.9867 955.238 89.24 956.251 88.44C958.331 86.7867 962.464 85.0267 968.651 83.16C975.051 81.24 980.544 80.3333 985.131 80.44C986.358 80.2267 987.611 80.3867 988.891 80.92C990.224 81.4 991.291 82.0667 992.091 82.92C992.891 83.7733 993.291 84.7067 993.291 85.72C993.344 86.7333 992.704 87.64 991.371 88.44C990.731 88.8667 990.278 89.5867 990.011 90.6C989.744 91.56 989.451 92.6 989.131 93.72C988.811 94.7867 988.331 95.7733 987.691 96.68C987.104 97.5867 986.144 98.12 984.811 98.28C984.118 98.6533 983.131 98.92 981.851 99.08C980.624 99.24 979.798 99.3733 979.371 99.48C978.998 99.5333 978.784 99.6667 978.731 99.88C977.771 102.707 976.624 106.147 975.291 110.2C973.958 114.2 972.544 118.307 971.051 122.52ZM960.251 101.32C960.144 101.32 960.091 101.347 960.091 101.4C960.091 101.4 960.144 101.4 960.251 101.4V101.32ZM1017.21 88.92C1015.34 94.7333 1013.61 99.9867 1012.01 104.68C1010.46 109.373 1009.02 113.693 1007.69 117.64C1006.41 121.587 1005.21 125.24 1004.09 128.6C1002.97 131.907 1001.93 135.08 1000.97 138.12C1000.43 141.64 998.701 144.12 995.767 145.56C994.061 146.36 992.034 146.76 989.687 146.76C987.341 146.76 985.581 146.493 984.407 145.96C983.234 145.48 982.487 144.76 982.167 143.8C981.794 142.84 981.794 141.693 982.167 140.36C982.487 138.973 983.074 137.107 983.927 134.76C984.781 132.36 985.847 129.133 987.127 125.08C988.461 121.027 989.847 116.92 991.287 112.76C994.861 102.36 997.687 95.16 999.767 91.16C1000.57 89.6667 1001.37 88.68 1002.17 88.2C1002.97 87.6667 1003.74 87.2933 1004.49 87.08C1005.23 86.8133 1005.93 86.52 1006.57 86.2C1007.21 85.88 1007.77 85.08 1008.25 83.8C1008.78 82.52 1009.71 81.64 1011.05 81.16C1012.43 80.68 1013.71 80.6533 1014.89 81.08C1016.11 81.4533 1017.02 82.3067 1017.61 83.64C1018.25 84.92 1018.11 86.68 1017.21 88.92ZM1040.5 146.84C1039.38 147.16 1038.32 147.32 1037.3 147.32C1036.29 147.373 1035.25 147.427 1034.18 147.48C1033.17 147.533 1031.76 147.56 1029.94 147.56C1028.13 147.56 1025.41 147.507 1021.78 147.4C1020.93 147.453 1020.08 147.48 1019.22 147.48C1018.37 147.48 1017.57 147.32 1016.82 147C1015.17 146.307 1014.05 144.707 1013.46 142.2C1013.2 141.027 1012.9 140.2 1012.58 139.72C1012.21 139.24 1011.92 138.787 1011.7 138.36C1011.17 137.507 1011.22 136.093 1011.86 134.12C1012.45 132.147 1013.22 129.72 1014.18 126.84C1015.14 123.907 1016.24 120.813 1017.46 117.56C1020.34 109.827 1022.93 103.693 1025.22 99.16C1026.13 97.1333 1026.9 95.3733 1027.54 93.88C1028.24 92.3867 1028.85 91.1067 1029.38 90.04C1029.92 88.92 1030.18 88.3333 1030.18 88.28C1030.72 86.2533 1032.77 84.5467 1036.34 83.16C1039.81 81.72 1042.96 81.3467 1045.78 82.04C1048.93 82.84 1050.32 84.92 1049.94 88.28C1049.2 91.5867 1048.08 94.8933 1046.58 98.2C1045.14 101.507 1043.49 104.973 1041.62 108.6C1039.76 112.227 1037.73 116.067 1035.54 120.12C1033.36 124.173 1031.2 128.573 1029.06 133.32C1029.01 133.533 1029.12 133.72 1029.38 133.88C1030.08 133.827 1031.04 133.613 1032.26 133.24C1033.54 132.867 1034.85 132.547 1036.18 132.28C1037.57 131.96 1038.93 131.8 1040.26 131.8C1041.6 131.8 1042.72 132.147 1043.62 132.84C1043.57 133.8 1043.81 134.573 1044.34 135.16C1044.88 135.693 1045.41 136.227 1045.94 136.76C1047.28 138.147 1047.38 139.987 1046.26 142.28C1045.2 144.52 1043.28 146.04 1040.5 146.84ZM1092.33 82.68L1092.65 82.76C1093.98 83.56 1095.13 84.4667 1096.09 85.48C1097.1 86.44 1098.01 87.48 1098.81 88.6C1099.66 89.6667 1100.33 90.84 1100.81 92.12C1102.83 97.0267 1101.07 102.52 1095.53 108.6C1093.18 111.16 1090.54 113.347 1087.61 115.16C1088.35 115.693 1089.05 116.093 1089.69 116.36C1090.38 116.573 1091.34 117.027 1092.57 117.72C1093.79 118.36 1094.59 119.613 1094.97 121.48C1095.34 123.293 1095.23 125.347 1094.65 127.64C1094.11 129.933 1093.1 132.307 1091.61 134.76C1090.17 137.16 1088.27 139.32 1085.93 141.24C1080.59 145.667 1074.41 147.533 1067.37 146.84C1066.35 146.84 1065.71 146.76 1065.45 146.6C1065.18 146.44 1064.97 146.307 1064.81 146.2C1064.65 146.093 1064.3 146.013 1063.77 145.96C1062.43 147.027 1060.91 147.693 1059.21 147.96C1057.5 148.227 1055.87 148.093 1054.33 147.56C1052.83 147.027 1051.55 146.12 1050.49 144.84C1049.47 143.56 1048.97 141.88 1048.97 139.8C1049.13 138.413 1049.39 137.32 1049.77 136.52C1049.61 136.04 1049.53 135.453 1049.53 134.76C1051.34 125.107 1053.05 117.72 1054.65 112.6C1057.9 102.413 1061.42 94.7333 1065.21 89.56C1068.3 85.1867 1072.59 82.36 1078.09 81.08C1083.37 79.8533 1088.11 80.3867 1092.33 82.68ZM1067.45 138.52C1068.09 138.36 1068.62 138.333 1069.05 138.44C1069.53 138.493 1070.09 138.467 1070.73 138.36C1072.27 138.2 1074.35 137.24 1076.97 135.48C1078.62 133.827 1079.5 132.2 1079.61 130.6C1079.71 129 1079.47 127.987 1078.89 127.56C1078.3 127.08 1077.5 126.84 1076.49 126.84C1075.53 126.84 1074.43 127 1073.21 127.32C1072.03 127.587 1070.89 127.747 1069.77 127.8V127.96C1069.5 129.027 1069.23 129.96 1068.97 130.76C1068.7 131.56 1068.46 132.333 1068.25 133.08C1067.77 134.84 1067.39 136.653 1067.13 138.52H1067.45ZM1082.33 96.92C1080.73 96.7067 1078.99 97.96 1077.13 100.68C1075.95 102.387 1075.05 104.973 1074.41 108.44C1075.53 107.96 1076.62 107.56 1077.69 107.24C1078.81 106.867 1079.85 106.467 1080.81 106.04C1083.15 105.027 1084.83 103.8 1085.85 102.36C1087.02 100.973 1087.39 99.8 1086.97 98.84C1086.33 97.9867 1085.29 97.2133 1083.85 96.52C1083.42 96.8933 1082.91 97.0267 1082.33 96.92ZM1081.13 96.6H1081.37H1081.13ZM1106.48 112.68C1105.58 104.947 1105.2 98.6533 1105.36 93.8C1105.26 91.5067 1106.19 89.32 1108.16 87.24C1110.03 85.2667 1111.98 84.1733 1114 83.96C1116.24 83.8 1117.68 85.0533 1118.32 87.72C1118.75 89.2133 1119.28 90.9467 1119.92 92.92C1120.56 94.8933 1121.18 96.9733 1121.76 99.16C1122.35 98.36 1123.28 96.9467 1124.56 94.92C1125.84 92.8933 1127.04 91.08 1128.16 89.48C1130.88 85.5867 1133.28 82.8667 1135.36 81.32C1137.39 80.52 1139.12 80.3067 1140.56 80.68C1142.06 81 1143.12 81.5333 1143.76 82.28C1144.46 83.0267 1144.72 84.12 1144.56 85.56C1144.46 88.92 1141.9 94.2 1136.88 101.4C1135.71 103.053 1134.51 104.973 1133.28 107.16C1132.11 109.347 1130.72 111.8 1129.12 114.52C1127.58 117.187 1126.08 119.853 1124.64 122.52C1121.34 128.547 1118.75 134.28 1116.88 139.72C1116.94 139.613 1117.15 139.747 1117.52 140.12C1117.9 140.44 1118.24 140.92 1118.56 141.56C1119.42 143.16 1119.34 144.493 1118.32 145.56C1115.76 148.227 1112.59 149.72 1108.8 150.04C1105.34 150.307 1102.35 149.667 1099.84 148.12C1097.34 146.68 1096.51 144.893 1097.36 142.76H1097.12C1098.3 139.72 1099.63 136.867 1101.12 134.2C1102.62 131.48 1104.16 128.68 1105.76 125.8L1109.36 119.4C1108.46 119.613 1107.71 118.973 1107.12 117.48C1106.7 116.253 1106.48 114.653 1106.48 112.68ZM1185.94 110.52C1185.73 112.813 1185.3 115.16 1184.66 117.56C1184.07 119.96 1183.19 122.307 1182.02 124.6C1180.9 126.893 1179.54 129.107 1177.94 131.24C1176.39 133.373 1174.66 135.347 1172.74 137.16C1170.82 138.973 1168.77 140.493 1166.58 141.72C1161.89 144.493 1157.35 145.48 1152.98 144.68C1152.02 146.76 1150.58 148.067 1148.66 148.6C1146.79 149.187 1144.93 149.187 1143.06 148.6C1141.25 148.067 1139.65 147.027 1138.26 145.48C1136.87 143.933 1136.18 141.827 1136.18 139.16C1136.18 136.44 1136.37 133.667 1136.74 130.84C1137.11 128.013 1137.62 125.293 1138.26 122.68C1139.27 118.36 1140.53 114.307 1142.02 110.52C1145.54 101.933 1147.54 95.9067 1148.02 92.44C1148.71 87.8 1149.99 84.92 1151.86 83.8C1154.95 81.9867 1157.89 81.2133 1160.66 81.48C1163.43 81.7467 1165.94 82.4133 1168.18 83.48C1171.86 85.24 1175.83 88.2 1180.1 92.36C1184.79 96.8933 1186.74 102.947 1185.94 110.52ZM1154.5 134.52C1157.22 133.133 1159.41 131.72 1161.06 130.28C1162.77 128.787 1164.37 127.427 1165.86 126.2C1168.15 123.907 1169.83 121.187 1170.9 118.04C1173.25 111.107 1171.75 105.853 1166.42 102.28C1165.62 101.693 1164.42 100.893 1162.82 99.88C1162.07 101.587 1161.51 103.373 1161.14 105.24C1160.82 107.107 1160.37 108.92 1159.78 110.68L1157.62 117.72L1155.86 125.32C1155.75 126.387 1155.59 127.427 1155.38 128.44C1155.17 129.4 1154.98 130.413 1154.82 131.48L1154.5 134.52ZM1201.76 132.92C1204.85 133.24 1207.15 133.4 1208.64 133.4C1210.19 133.4 1212.51 133.187 1215.6 132.76C1216.56 133.08 1217.12 133.48 1217.28 133.96C1217.44 134.44 1217.49 134.947 1217.44 135.48C1217.39 135.96 1217.41 136.44 1217.52 136.92C1217.63 137.4 1218.13 137.8 1219.04 138.12C1219.52 138.28 1219.65 138.76 1219.44 139.56C1219.28 140.307 1218.85 141.133 1218.16 142.04C1216.4 144.333 1214.32 145.933 1211.92 146.84C1208.08 147.8 1205.07 148.36 1202.88 148.52C1199.25 148.787 1195.31 148.653 1191.04 148.12C1186.35 147.267 1184.08 145.32 1184.24 142.28C1184.24 131.08 1186.69 119.827 1191.6 108.52C1193.2 104.84 1195.01 100.973 1197.04 96.92C1197.47 96.0667 1197.71 95.1067 1197.76 94.04C1197.87 92.9733 1197.95 91.9333 1198 90.92C1198.05 89.9067 1198.21 89 1198.48 88.2C1198.75 87.4 1199.31 86.84 1200.16 86.52C1211.25 82.0933 1220.03 80.3867 1226.48 81.4C1228.72 81.4533 1230.19 82.2267 1230.88 83.72C1231.63 85.16 1231.71 86.7867 1231.12 88.6C1230.59 90.4133 1229.49 92.12 1227.84 93.72C1226.24 95.32 1224.21 96.3067 1221.76 96.68C1218.61 97.5867 1216.69 98.2 1216 98.52C1214.67 99.16 1213.71 100.013 1213.12 101.08C1212.37 102.253 1211.68 103.373 1211.04 104.44C1210.4 105.507 1209.95 106.653 1209.68 107.88L1209.36 109.64C1210.37 110.12 1211.6 110.28 1213.04 110.12C1214.53 109.907 1215.89 109.72 1217.12 109.56C1218.4 109.347 1219.41 109.32 1220.16 109.48C1220.96 109.64 1221.12 110.44 1220.64 111.88C1220.21 113.267 1219.39 114.84 1218.16 116.6C1216.99 118.36 1215.31 119.64 1213.12 120.44C1211.73 120.707 1210.77 120.92 1210.24 121.08C1209.76 121.187 1209.39 121.267 1209.12 121.32C1208.75 121.373 1207.68 121.453 1205.92 121.56C1203.41 125.827 1201.89 129.133 1201.36 131.48C1201.15 132.44 1201.28 132.92 1201.76 132.92ZM46.5481 220.11L41.5081 232.92C40.8081 234.88 40.1781 236.91 39.6181 239.01C39.0581 241.11 38.4631 242.93 37.8331 244.47C37.2031 246.08 36.2231 247.34 34.8931 248.25C33.6331 249.16 32.1981 249.825 30.5881 250.245C28.9781 250.735 27.2981 250.945 25.5481 250.875C23.8681 250.805 22.3631 250.49 21.0331 249.93C18.0231 248.53 16.9731 246.22 17.8831 243C21.1031 228.86 24.1131 217.52 26.9131 208.98C29.7831 200.44 32.1281 193.72 33.9481 188.82C35.8381 183.92 37.7981 178.74 39.8281 173.28C40.0381 171.25 40.8781 169.43 42.3481 167.82C43.8181 166.21 45.5331 164.88 47.4931 163.83C49.5231 162.78 51.6231 162.045 53.7931 161.625C55.9631 161.135 57.8881 161.065 59.5681 161.415C61.2481 161.765 62.4731 162.535 63.2431 163.725C64.0831 164.915 64.1531 166.63 63.4531 168.87C60.9331 175.31 59.1481 179.86 58.0981 182.52C57.0481 185.18 56.1031 187.56 55.2631 189.66L52.3231 196.59C53.7931 196.66 55.6481 196.45 57.8881 195.96C61.9481 195.05 64.8881 194.735 66.7081 195.015C66.7081 194.665 66.8831 194.07 67.2331 193.23C69.1931 184.69 71.3981 176.85 73.8481 169.71C75.5981 163.83 80.1131 160.75 87.3931 160.47C90.2631 160.47 92.4331 161.17 93.9031 162.57C95.5131 164.04 95.7231 166.035 94.5331 168.555C88.0931 186.615 83.5431 200.86 80.8831 211.29C77.8731 223.33 75.8781 231.45 74.8981 235.65C73.9881 239.85 73.1831 242.335 72.4831 243.105C71.7831 243.875 71.0481 244.4 70.2781 244.68C69.5781 245.03 68.8781 245.345 68.1781 245.625C67.4781 245.905 66.9181 246.605 66.4981 247.725H66.1831C65.6231 248.985 64.3981 249.965 62.5081 250.665C60.6181 251.365 58.6931 251.61 56.7331 251.4C54.8431 251.26 53.2331 250.56 51.9031 249.3C50.6431 248.11 50.3281 246.255 50.9581 243.735C51.6581 239.745 52.8131 235.475 54.4231 230.925C56.0331 226.305 57.2931 222.7 58.2031 220.11C59.1831 217.52 59.9881 215.105 60.6181 212.865C60.0581 213.145 59.4981 213.355 58.9381 213.495C58.4481 213.635 57.8181 213.915 57.0481 214.335C56.2781 214.685 55.4731 215 54.6331 215.28C53.8631 215.56 53.0931 215.84 52.3231 216.12C50.3631 216.89 48.7531 217.66 47.4931 218.43L46.5481 220.11ZM58.4131 213.075C58.4831 213.075 58.8331 212.97 59.4631 212.76C59.0431 212.9 58.6931 213.005 58.4131 213.075ZM119.197 166.98V167.19C119.197 167.26 119.197 167.295 119.197 167.295C119.267 167.295 119.302 167.33 119.302 167.4V167.61H119.407L120.037 169.29C120.737 171.32 118.917 177.62 114.577 188.19C109.957 199.46 107.822 208.245 108.172 214.545C108.942 219.025 112.687 215.42 119.407 203.73C124.727 194.63 129.872 184.655 134.842 173.805C135.472 172.335 136.137 170.83 136.837 169.29C137.537 167.68 138.412 166.35 139.462 165.3C141.772 162.78 144.572 162.115 147.862 163.305C148.982 161.975 150.277 161.065 151.747 160.575C153.287 160.085 154.722 159.98 156.052 160.26C157.452 160.54 158.642 161.205 159.622 162.255C160.602 163.235 161.127 164.565 161.197 166.245C161.407 167.645 160.672 170.97 158.992 176.22C157.382 181.47 155.877 186.265 154.477 190.605C153.077 194.945 151.642 199.67 150.172 204.78C146.602 216.89 143.767 228.3 141.667 239.01C141.597 241.25 140.617 243.105 138.727 244.575C136.907 246.045 134.842 246.99 132.532 247.41C130.292 247.9 128.157 247.83 126.127 247.2C123.677 246.5 122.382 244.75 122.242 241.95C122.242 241.18 122.207 240.41 122.137 239.64C122.277 242.02 120.562 244.05 116.992 245.73C116.012 246.22 115.102 246.675 114.262 247.095C109.362 248.565 104.217 248.25 98.8266 246.15C96.3066 245.1 94.0316 243.7 92.0016 241.95C90.0416 240.13 88.6766 237.995 87.9066 235.545C85.4566 227.705 85.9116 217.415 89.2716 204.675C90.6716 199.215 92.3866 193.895 94.4166 188.715C96.4466 183.535 97.9166 179.79 98.8266 177.48C99.8066 175.17 100.507 173.595 100.927 172.755C101.347 171.845 101.802 170.97 102.292 170.13C103.482 167.75 104.497 166.14 105.337 165.3L106.597 164.145C106.737 164.005 106.877 163.935 107.017 163.935C107.157 163.865 107.332 163.76 107.542 163.62C108.102 163.27 108.697 163.025 109.327 162.885L110.797 162.57H111.427C113.457 162.29 115.207 162.71 116.677 163.83C116.677 163.9 116.747 163.935 116.887 163.935L117.727 164.67L118.042 164.985L118.357 165.405C118.357 165.475 118.357 165.51 118.357 165.51C118.427 165.51 118.462 165.545 118.462 165.615L118.567 165.72V165.93C118.637 165.93 118.672 165.965 118.672 166.035V166.14C118.742 166.21 118.812 166.245 118.882 166.245V166.35C118.882 166.42 118.882 166.455 118.882 166.455C118.952 166.455 118.987 166.49 118.987 166.56C118.987 166.56 119.022 166.595 119.092 166.665V166.77C119.092 166.84 119.127 166.91 119.197 166.98ZM122.032 236.91V236.595C121.962 236.665 121.927 236.945 121.927 237.435C121.927 237.225 121.962 237.085 122.032 237.015V236.91ZM162.202 202.26C163.602 197.57 164.722 193.965 165.562 191.445C166.472 188.855 167.347 186.545 168.187 184.515C169.027 182.485 169.972 180.525 171.022 178.635C172.142 176.745 173.332 175.03 174.592 173.49C175.922 171.88 177.322 170.62 178.792 169.71C180.262 168.8 181.802 168.345 183.412 168.345C185.022 168.345 186.702 168.975 188.452 170.235C191.252 177.235 192.967 181.925 193.597 184.305C194.437 187.805 195.207 192.74 195.907 199.11C196.537 197.5 197.237 195.82 198.007 194.07C198.847 192.25 199.652 190.43 200.422 188.61C202.592 183.99 203.957 180.49 204.517 178.11C206.057 173.21 209.242 169.535 214.072 167.085C218.272 164.985 222.192 164.32 225.832 165.09C227.302 165.37 228.317 165.965 228.877 166.875C229.507 167.785 229.507 168.73 228.877 169.71C228.317 170.69 228.107 171.635 228.247 172.545C228.457 173.385 228.632 174.4 228.772 175.59C228.982 178.81 228.422 181.68 227.092 184.2C225.762 186.65 224.397 189.73 222.997 193.44C221.597 197.08 220.162 200.965 218.692 205.095C217.292 209.225 215.857 213.425 214.387 217.695C212.917 221.965 211.482 225.85 210.082 229.35C207.002 237.4 204.482 241.845 202.522 242.685C199.862 244.295 197.902 245.24 196.642 245.52C195.032 245.8 192.757 245.8 189.817 245.52C187.997 245.38 186.422 243.035 185.092 238.485C184.322 236.035 183.622 232.64 182.992 228.3C181.872 220.74 181.102 216.575 180.682 215.805C177.882 224.905 175.887 230.645 174.697 233.025C173.577 235.405 172.702 236.98 172.072 237.75C171.512 238.52 170.812 239.535 169.972 240.795C169.062 243.315 166.892 245.17 163.462 246.36C160.522 247.48 157.862 247.655 155.482 246.885C152.892 246.045 152.122 244.435 153.172 242.055C153.942 233.655 156.952 220.39 162.202 202.26ZM286.509 200.37C286.229 203.38 285.669 206.46 284.829 209.61C284.059 212.76 282.904 215.84 281.364 218.85C279.894 221.86 278.109 224.765 276.009 227.565C273.979 230.365 271.704 232.955 269.184 235.335C266.664 237.715 263.969 239.71 261.099 241.32C254.939 244.96 248.989 246.255 243.249 245.205C241.989 247.935 240.099 249.65 237.579 250.35C235.129 251.12 232.679 251.12 230.229 250.35C227.849 249.65 225.749 248.285 223.929 246.255C222.109 244.225 221.199 241.46 221.199 237.96C221.199 234.39 221.444 230.75 221.934 227.04C222.424 223.33 223.089 219.76 223.929 216.33C225.259 210.66 226.904 205.34 228.864 200.37C233.484 189.1 236.109 181.19 236.739 176.64C237.649 170.55 239.329 166.77 241.779 165.3C245.839 162.92 249.689 161.905 253.329 162.255C256.969 162.605 260.259 163.48 263.199 164.88C268.029 167.19 273.244 171.075 278.844 176.535C285.004 182.485 287.559 190.43 286.509 200.37ZM245.244 231.87C248.814 230.05 251.684 228.195 253.854 226.305C256.094 224.345 258.194 222.56 260.154 220.95C263.164 217.94 265.369 214.37 266.769 210.24C269.849 201.14 267.889 194.245 260.889 189.555C259.839 188.785 258.264 187.735 256.164 186.405C255.184 188.645 254.449 190.99 253.959 193.44C253.539 195.89 252.944 198.27 252.174 200.58L249.339 209.82L247.029 219.795C246.889 221.195 246.679 222.56 246.399 223.89C246.119 225.15 245.874 226.48 245.664 227.88L245.244 231.87ZM307.273 229.77C311.333 230.19 314.343 230.4 316.303 230.4C318.333 230.4 321.378 230.12 325.438 229.56C326.698 229.98 327.433 230.505 327.643 231.135C327.853 231.765 327.923 232.43 327.853 233.13C327.783 233.76 327.818 234.39 327.958 235.02C328.098 235.65 328.763 236.175 329.953 236.595C330.583 236.805 330.758 237.435 330.478 238.485C330.268 239.465 329.708 240.55 328.798 241.74C326.488 244.75 323.758 246.85 320.608 248.04C315.568 249.3 311.613 250.035 308.743 250.245C303.983 250.595 298.803 250.42 293.203 249.72C287.043 248.6 284.068 246.045 284.278 242.055C284.278 227.355 287.498 212.585 293.938 197.745C296.038 192.915 298.418 187.84 301.078 182.52C301.638 181.4 301.953 180.14 302.023 178.74C302.163 177.34 302.268 175.975 302.338 174.645C302.408 173.315 302.618 172.125 302.968 171.075C303.318 170.025 304.053 169.29 305.173 168.87C319.733 163.06 331.248 160.82 339.718 162.15C342.658 162.22 344.583 163.235 345.493 165.195C346.473 167.085 346.578 169.22 345.808 171.6C345.108 173.98 343.673 176.22 341.503 178.32C339.403 180.42 336.743 181.715 333.523 182.205C329.393 183.395 326.873 184.2 325.963 184.62C324.213 185.46 322.953 186.58 322.183 187.98C321.203 189.52 320.293 190.99 319.453 192.39C318.613 193.79 318.018 195.295 317.668 196.905L317.248 199.215C318.578 199.845 320.188 200.055 322.078 199.845C324.038 199.565 325.823 199.32 327.433 199.11C329.113 198.83 330.443 198.795 331.423 199.005C332.473 199.215 332.683 200.265 332.053 202.155C331.493 203.975 330.408 206.04 328.798 208.35C327.258 210.66 325.053 212.34 322.183 213.39C320.363 213.74 319.103 214.02 318.403 214.23C317.773 214.37 317.283 214.475 316.933 214.545C316.443 214.615 315.043 214.72 312.733 214.86C309.443 220.46 307.448 224.8 306.748 227.88C306.468 229.14 306.643 229.77 307.273 229.77ZM345.746 202.26C347.146 197.57 348.266 193.965 349.106 191.445C350.016 188.855 350.891 186.545 351.731 184.515C352.571 182.485 353.516 180.525 354.566 178.635C355.686 176.745 356.876 175.03 358.136 173.49C359.466 171.88 360.866 170.62 362.336 169.71C363.806 168.8 365.346 168.345 366.956 168.345C368.566 168.345 370.246 168.975 371.996 170.235C374.796 177.235 376.511 181.925 377.141 184.305C377.981 187.805 378.751 192.74 379.451 199.11C380.081 197.5 380.781 195.82 381.551 194.07C382.391 192.25 383.196 190.43 383.966 188.61C386.136 183.99 387.501 180.49 388.061 178.11C389.601 173.21 392.786 169.535 397.616 167.085C401.816 164.985 405.736 164.32 409.376 165.09C410.846 165.37 411.861 165.965 412.421 166.875C413.051 167.785 413.051 168.73 412.421 169.71C411.861 170.69 411.651 171.635 411.791 172.545C412.001 173.385 412.176 174.4 412.316 175.59C412.526 178.81 411.966 181.68 410.636 184.2C409.306 186.65 407.941 189.73 406.541 193.44C405.141 197.08 403.706 200.965 402.236 205.095C400.836 209.225 399.401 213.425 397.931 217.695C396.461 221.965 395.026 225.85 393.626 229.35C390.546 237.4 388.026 241.845 386.066 242.685C383.406 244.295 381.446 245.24 380.186 245.52C378.576 245.8 376.301 245.8 373.361 245.52C371.541 245.38 369.966 243.035 368.636 238.485C367.866 236.035 367.166 232.64 366.536 228.3C365.416 220.74 364.646 216.575 364.226 215.805C361.426 224.905 359.431 230.645 358.241 233.025C357.121 235.405 356.246 236.98 355.616 237.75C355.056 238.52 354.356 239.535 353.516 240.795C352.606 243.315 350.436 245.17 347.006 246.36C344.066 247.48 341.406 247.655 339.026 246.885C336.436 246.045 335.666 244.435 336.716 242.055C337.486 233.655 340.496 220.39 345.746 202.26ZM503.919 243.315C506.159 242.615 507.664 242.475 508.434 242.895C509.204 243.245 509.449 243.875 509.169 244.785C508.889 245.695 508.189 246.78 507.069 248.04C505.949 249.3 504.584 250.455 502.974 251.505C499.124 254.095 495.729 255.075 492.789 254.445C490.899 254.095 489.184 252.87 487.644 250.77C487.084 249.93 486.524 249.09 485.964 248.25C485.404 247.41 484.809 246.71 484.179 246.15C478.509 250.21 472.419 252.765 465.909 253.815C463.809 254.165 461.219 254.095 458.139 253.605C455.059 253.185 451.979 252.275 448.899 250.875C445.889 249.545 443.544 247.725 441.864 245.415C438.504 240.795 437.979 233.83 440.289 224.52C442.809 218.01 447.989 211.57 455.829 205.2C459.119 202.47 461.359 200.685 462.549 199.845C461.149 191.305 462.164 183.465 465.594 176.325C468.534 170.165 472.524 165.65 477.564 162.78C480.994 160.47 485.264 159.21 490.374 159C499.754 158.58 505.494 161.66 507.594 168.24C508.854 172.44 508.084 177.375 505.284 183.045C503.044 187.385 499.439 191.97 494.469 196.8C492.019 199.11 489.219 201.35 486.069 203.52C486.209 206.18 486.769 208.77 487.749 211.29C488.729 213.81 489.534 215.84 490.164 217.38C490.864 218.85 491.494 220.32 492.054 221.79C492.264 221.65 492.509 221.37 492.789 220.95C493.069 220.46 493.384 219.97 493.734 219.48C494.084 218.99 494.434 218.5 494.784 218.01C495.134 217.52 495.414 217.205 495.624 217.065C495.834 216.855 496.114 216.61 496.464 216.33C496.884 216.05 497.374 215.77 497.934 215.49C499.334 214.93 500.524 214.93 501.504 215.49C501.574 215.42 501.854 215.315 502.344 215.175C502.904 214.965 503.184 214.79 503.184 214.65C503.324 214.02 503.849 213.565 504.759 213.285C505.739 213.005 506.754 212.9 507.804 212.97C510.604 213.18 512.004 214.02 512.004 215.49C512.144 216.75 511.479 218.5 510.009 220.74C507.489 227.18 504.409 232.57 500.769 236.91C500.699 237.05 500.629 237.155 500.559 237.225C500.489 237.225 500.419 237.26 500.349 237.33C501.329 238.59 501.994 239.64 502.344 240.48C502.764 241.25 503.289 242.195 503.919 243.315ZM467.379 220.11C465.349 222.42 463.949 224.38 463.179 225.99C462.409 227.53 462.654 229.175 463.914 230.925C464.894 232.255 466.049 233.025 467.379 233.235C468.709 233.375 469.899 233.41 470.949 233.34C471.999 233.27 473.154 233.2 474.414 233.13C474.064 232.43 473.644 231.8 473.154 231.24C472.664 230.61 472.104 229.84 471.474 228.93C469.934 226.55 468.569 223.61 467.379 220.11ZM490.899 176.01C490.479 174.33 489.219 174.12 487.119 175.38C485.229 176.43 483.514 178.25 481.974 180.84C480.364 183.5 480.014 185.775 480.924 187.665C481.764 187.035 482.464 186.475 483.024 185.985C483.584 185.425 484.319 184.935 485.229 184.515C486.139 184.025 487.014 183.465 487.854 182.835C489.744 181.435 490.794 179.16 491.004 176.01H490.899ZM486.069 186.615L482.079 186.93L486.069 186.615ZM481.869 187.14L481.554 187.455L481.869 187.14ZM610.225 200.37C609.945 203.38 609.385 206.46 608.545 209.61C607.775 212.76 606.62 215.84 605.08 218.85C603.61 221.86 601.825 224.765 599.725 227.565C597.695 230.365 595.42 232.955 592.9 235.335C590.38 237.715 587.685 239.71 584.815 241.32C578.655 244.96 572.705 246.255 566.965 245.205C565.705 247.935 563.815 249.65 561.295 250.35C558.845 251.12 556.395 251.12 553.945 250.35C551.565 249.65 549.465 248.285 547.645 246.255C545.825 244.225 544.915 241.46 544.915 237.96C544.915 234.39 545.16 230.75 545.65 227.04C546.14 223.33 546.805 219.76 547.645 216.33C548.975 210.66 550.62 205.34 552.58 200.37C557.2 189.1 559.825 181.19 560.455 176.64C561.365 170.55 563.045 166.77 565.495 165.3C569.555 162.92 573.405 161.905 577.045 162.255C580.685 162.605 583.975 163.48 586.915 164.88C591.745 167.19 596.96 171.075 602.56 176.535C608.72 182.485 611.275 190.43 610.225 200.37ZM568.96 231.87C572.53 230.05 575.4 228.195 577.57 226.305C579.81 224.345 581.91 222.56 583.87 220.95C586.88 217.94 589.085 214.37 590.485 210.24C593.565 201.14 591.605 194.245 584.605 189.555C583.555 188.785 581.98 187.735 579.88 186.405C578.9 188.645 578.165 190.99 577.675 193.44C577.255 195.89 576.66 198.27 575.89 200.58L573.055 209.82L570.745 219.795C570.605 221.195 570.395 222.56 570.115 223.89C569.835 225.15 569.59 226.48 569.38 227.88L568.96 231.87ZM651.674 172.02C649.224 179.65 646.949 186.545 644.849 192.705C642.819 198.865 640.929 204.535 639.179 209.715C637.499 214.895 635.924 219.69 634.454 224.1C632.984 228.44 631.619 232.605 630.359 236.595C629.659 241.215 627.384 244.47 623.534 246.36C621.294 247.41 618.634 247.935 615.554 247.935C612.474 247.935 610.164 247.585 608.624 246.885C607.084 246.255 606.104 245.31 605.684 244.05C605.194 242.79 605.194 241.285 605.684 239.535C606.104 237.715 606.874 235.265 607.994 232.185C609.114 229.035 610.514 224.8 612.194 219.48C613.944 214.16 615.764 208.77 617.654 203.31C622.344 189.66 626.054 180.21 628.784 174.96C629.834 173 630.884 171.705 631.934 171.075C632.984 170.375 633.999 169.885 634.979 169.605C635.959 169.255 636.869 168.87 637.709 168.45C638.549 168.03 639.284 166.98 639.914 165.3C640.614 163.62 641.839 162.465 643.589 161.835C645.409 161.205 647.089 161.17 648.629 161.73C650.239 162.22 651.429 163.34 652.199 165.09C653.039 166.77 652.864 169.08 651.674 172.02ZM652.953 202.26C654.353 197.57 655.473 193.965 656.313 191.445C657.223 188.855 658.098 186.545 658.938 184.515C659.778 182.485 660.723 180.525 661.773 178.635C662.893 176.745 664.083 175.03 665.343 173.49C666.673 171.88 668.073 170.62 669.543 169.71C671.013 168.8 672.553 168.345 674.163 168.345C675.773 168.345 677.453 168.975 679.203 170.235C682.003 177.235 683.718 181.925 684.348 184.305C685.188 187.805 685.958 192.74 686.658 199.11C687.288 197.5 687.988 195.82 688.758 194.07C689.598 192.25 690.403 190.43 691.173 188.61C693.343 183.99 694.708 180.49 695.268 178.11C696.808 173.21 699.993 169.535 704.823 167.085C709.023 164.985 712.943 164.32 716.583 165.09C718.053 165.37 719.068 165.965 719.628 166.875C720.258 167.785 720.258 168.73 719.628 169.71C719.068 170.69 718.858 171.635 718.998 172.545C719.208 173.385 719.383 174.4 719.523 175.59C719.733 178.81 719.173 181.68 717.843 184.2C716.513 186.65 715.148 189.73 713.748 193.44C712.348 197.08 710.913 200.965 709.443 205.095C708.043 209.225 706.608 213.425 705.138 217.695C703.668 221.965 702.233 225.85 700.833 229.35C697.753 237.4 695.233 241.845 693.273 242.685C690.613 244.295 688.653 245.24 687.393 245.52C685.783 245.8 683.508 245.8 680.568 245.52C678.748 245.38 677.173 243.035 675.843 238.485C675.073 236.035 674.373 232.64 673.743 228.3C672.623 220.74 671.853 216.575 671.433 215.805C668.633 224.905 666.638 230.645 665.448 233.025C664.328 235.405 663.453 236.98 662.823 237.75C662.263 238.52 661.563 239.535 660.723 240.795C659.813 243.315 657.643 245.17 654.213 246.36C651.273 247.48 648.613 247.655 646.233 246.885C643.643 246.045 642.873 244.435 643.923 242.055C644.693 233.655 647.703 220.39 652.953 202.26ZM735.681 229.77C739.741 230.19 742.751 230.4 744.711 230.4C746.741 230.4 749.786 230.12 753.846 229.56C755.106 229.98 755.841 230.505 756.051 231.135C756.261 231.765 756.331 232.43 756.261 233.13C756.191 233.76 756.226 234.39 756.366 235.02C756.506 235.65 757.171 236.175 758.361 236.595C758.991 236.805 759.166 237.435 758.886 238.485C758.676 239.465 758.116 240.55 757.206 241.74C754.896 244.75 752.166 246.85 749.016 248.04C743.976 249.3 740.021 250.035 737.151 250.245C732.391 250.595 727.211 250.42 721.611 249.72C715.451 248.6 712.476 246.045 712.686 242.055C712.686 227.355 715.906 212.585 722.346 197.745C724.446 192.915 726.826 187.84 729.486 182.52C730.046 181.4 730.361 180.14 730.431 178.74C730.571 177.34 730.676 175.975 730.746 174.645C730.816 173.315 731.026 172.125 731.376 171.075C731.726 170.025 732.461 169.29 733.581 168.87C748.141 163.06 759.656 160.82 768.126 162.15C771.066 162.22 772.991 163.235 773.901 165.195C774.881 167.085 774.986 169.22 774.216 171.6C773.516 173.98 772.081 176.22 769.911 178.32C767.811 180.42 765.151 181.715 761.931 182.205C757.801 183.395 755.281 184.2 754.371 184.62C752.621 185.46 751.361 186.58 750.591 187.98C749.611 189.52 748.701 190.99 747.861 192.39C747.021 193.79 746.426 195.295 746.076 196.905L745.656 199.215C746.986 199.845 748.596 200.055 750.486 199.845C752.446 199.565 754.231 199.32 755.841 199.11C757.521 198.83 758.851 198.795 759.831 199.005C760.881 199.215 761.091 200.265 760.461 202.155C759.901 203.975 758.816 206.04 757.206 208.35C755.666 210.66 753.461 212.34 750.591 213.39C748.771 213.74 747.511 214.02 746.811 214.23C746.181 214.37 745.691 214.475 745.341 214.545C744.851 214.615 743.451 214.72 741.141 214.86C737.851 220.46 735.856 224.8 735.156 227.88C734.876 229.14 735.051 229.77 735.681 229.77ZM815.265 242.055C814.355 245.345 812.045 247.55 808.335 248.67C804.975 249.65 801.965 249.3 799.305 247.62C796.435 245.87 795.525 243.28 796.575 239.85C797.485 235.93 799.235 229.665 801.825 221.055C804.415 212.445 806.235 206.39 807.285 202.89C809.735 194.21 811.275 188.47 811.905 185.67C814.075 178.67 815.615 174.33 816.525 172.65C817.505 170.97 818.345 169.815 819.045 169.185C819.745 168.485 820.865 167.68 822.405 166.77C824.015 165.86 825.73 165.16 827.55 164.67C829.37 164.18 831.19 163.865 833.01 163.725C834.83 163.515 836.685 163.375 838.575 163.305C840.465 163.165 842.565 162.815 844.875 162.255C845.785 162.255 846.59 162.185 847.29 162.045C848.06 161.905 848.795 161.8 849.495 161.73C851.105 161.59 852.68 161.765 854.22 162.255C855.83 162.745 857.02 163.62 857.79 164.88C858.63 166.14 859.05 167.575 859.05 169.185C859.05 170.795 858.7 172.51 858 174.33C857.37 176.15 856.46 177.9 855.27 179.58C852.68 183.22 849.425 185.81 845.505 187.35C842.775 188.19 840.815 188.61 839.625 188.61C838.435 188.61 837.595 188.47 837.105 188.19C836.685 187.91 836.44 187.7 836.37 187.56C836.3 187.42 836.055 187.665 835.635 188.295C835.005 189.205 834.55 190.22 834.27 191.34C833.99 192.46 833.675 193.3 833.325 193.86C832.975 194.35 832.485 195.365 831.855 196.905C831.295 198.445 830.56 199.74 829.65 200.79C828.74 201.77 828.215 202.365 828.075 202.575L837.315 201.63C838.785 201.49 840.045 201.805 841.095 202.575C842.215 203.275 842.985 204.15 843.405 205.2C843.895 206.25 844.035 207.3 843.825 208.35C843.615 209.33 842.985 210.1 841.935 210.66C840.885 211.15 840.185 211.675 839.835 212.235C839.555 212.725 839.31 213.215 839.1 213.705C838.89 214.195 838.61 214.685 838.26 215.175C837.98 215.665 837.315 216.12 836.265 216.54C834.025 217.59 829.72 218.43 823.35 219.06C823 220.11 822.51 221.37 821.88 222.84C821.32 224.24 820.725 225.71 820.095 227.25C818.275 231.94 817.225 234.775 816.945 235.755C816.735 236.735 816.56 237.54 816.42 238.17C816 240.06 815.615 241.355 815.265 242.055ZM865.542 173.49C869.952 168.45 874.852 165.3 880.242 164.04C883.952 163.13 887.452 163.27 890.742 164.46C893.332 161.73 896.692 160.75 900.822 161.52C904.602 162.22 907.822 164.355 910.482 167.925C910.622 168.415 910.902 169.15 911.322 170.13C911.812 171.11 912.267 172.195 912.687 173.385C915.767 180.525 916.012 189.905 913.422 201.525C910.202 215.945 904.497 228.16 896.307 238.17C893.787 241.25 890.952 243.805 887.802 245.835C882.762 249.685 876.742 251.4 869.742 250.98C865.402 250.77 861.762 249.685 858.822 247.725C847.132 241.915 843.317 229.805 847.377 211.395C850.737 196.275 856.792 183.64 865.542 173.49ZM866.802 229.245L866.697 229.875L866.907 231.03C867.327 233.2 868.027 234.88 869.007 236.07C869.987 237.19 870.792 237.89 871.422 238.17C872.122 237.61 872.822 237.085 873.522 236.595C874.222 236.105 874.852 235.51 875.412 234.81C880.172 228.93 883.882 221.23 886.542 211.71C889.202 202.19 890.182 193.37 889.482 185.25C886.752 188.75 883.882 192.775 880.872 197.325C877.862 201.875 875.482 205.76 873.732 208.98C869.742 216.47 867.432 223.225 866.802 229.245ZM929.662 243.315C929.032 246.115 926.862 247.83 923.152 248.46C919.722 249.09 916.467 248.705 913.387 247.305C909.957 245.835 908.452 243.77 908.872 241.11C908.452 237.05 910.587 228.23 915.277 214.65C922.277 194.28 929.277 179.72 936.277 170.97C938.097 168.73 939.637 167.295 940.897 166.665C942.227 165.965 943.732 165.335 945.412 164.775C947.092 164.215 948.842 163.69 950.662 163.2C954.302 162.22 957.732 161.555 960.952 161.205C964.242 160.785 967.182 161.17 969.772 162.36C972.362 163.48 974.357 165.16 975.757 167.4C977.227 169.64 978.137 172.3 978.487 175.38C978.837 178.39 978.732 181.575 978.172 184.935C977.612 188.225 976.597 191.585 975.127 195.015C973.657 198.375 971.802 201.525 969.562 204.465C964.662 210.905 958.922 215.07 952.342 216.96L953.392 218.745C954.302 220.145 955.387 221.685 956.647 223.365C957.977 225.045 959.272 226.76 960.532 228.51C961.862 230.26 963.052 232.01 964.102 233.76C965.152 235.51 965.922 237.155 966.412 238.695C967.532 242.125 966.657 244.61 963.787 246.15C961.477 247.55 959.657 247.9 958.327 247.2C957.767 246.85 957.207 246.395 956.647 245.835C956.087 245.345 955.317 244.925 954.337 244.575C950.207 245.765 947.057 244.715 944.887 241.425C943.557 239.325 942.542 237.4 941.842 235.65C941.142 233.9 940.547 232.43 940.057 231.24C938.797 228.65 937.362 226.41 935.752 224.52C934.982 226.41 934.107 228.825 933.127 231.765C931.937 235.475 930.607 239.325 929.137 243.315H929.662ZM950.872 182.205C949.542 185.215 948.632 187.315 948.142 188.505C947.162 190.885 946.077 193.51 944.887 196.38C944.677 197.92 944.502 199.005 944.362 199.635L945.832 198.165L947.617 197.325C948.877 196.625 950.032 195.995 951.082 195.435C952.132 194.875 953.077 194.175 953.917 193.335C955.527 191.725 956.927 189.1 958.117 185.46C958.117 184.76 958.222 184.06 958.432 183.36C958.712 182.66 958.887 181.96 958.957 181.26C959.237 179.72 958.607 178.635 957.067 178.005C955.667 177.865 953.917 179.02 951.817 181.47C951.397 181.96 951.082 182.205 950.872 182.205ZM997.495 220.11L992.455 232.92C991.755 234.88 991.125 236.91 990.565 239.01C990.005 241.11 989.41 242.93 988.78 244.47C988.15 246.08 987.17 247.34 985.84 248.25C984.58 249.16 983.145 249.825 981.535 250.245C979.925 250.735 978.245 250.945 976.495 250.875C974.815 250.805 973.31 250.49 971.98 249.93C968.97 248.53 967.92 246.22 968.83 243C972.05 228.86 975.06 217.52 977.86 208.98C980.73 200.44 983.075 193.72 984.895 188.82C986.785 183.92 988.745 178.74 990.775 173.28C990.985 171.25 991.825 169.43 993.295 167.82C994.765 166.21 996.48 164.88 998.44 163.83C1000.47 162.78 1002.57 162.045 1004.74 161.625C1006.91 161.135 1008.84 161.065 1010.52 161.415C1012.2 161.765 1013.42 162.535 1014.19 163.725C1015.03 164.915 1015.1 166.63 1014.4 168.87C1011.88 175.31 1010.1 179.86 1009.05 182.52C1008 185.18 1007.05 187.56 1006.21 189.66L1003.27 196.59C1004.74 196.66 1006.6 196.45 1008.84 195.96C1012.9 195.05 1015.84 194.735 1017.66 195.015C1017.66 194.665 1017.83 194.07 1018.18 193.23C1020.14 184.69 1022.35 176.85 1024.8 169.71C1026.55 163.83 1031.06 160.75 1038.34 160.47C1041.21 160.47 1043.38 161.17 1044.85 162.57C1046.46 164.04 1046.67 166.035 1045.48 168.555C1039.04 186.615 1034.49 200.86 1031.83 211.29C1028.82 223.33 1026.83 231.45 1025.85 235.65C1024.94 239.85 1024.13 242.335 1023.43 243.105C1022.73 243.875 1022 244.4 1021.23 244.68C1020.53 245.03 1019.83 245.345 1019.13 245.625C1018.43 245.905 1017.87 246.605 1017.45 247.725H1017.13C1016.57 248.985 1015.35 249.965 1013.46 250.665C1011.57 251.365 1009.64 251.61 1007.68 251.4C1005.79 251.26 1004.18 250.56 1002.85 249.3C1001.59 248.11 1001.28 246.255 1001.91 243.735C1002.61 239.745 1003.76 235.475 1005.37 230.925C1006.98 226.305 1008.24 222.7 1009.15 220.11C1010.13 217.52 1010.94 215.105 1011.57 212.865C1011.01 213.145 1010.45 213.355 1009.89 213.495C1009.4 213.635 1008.77 213.915 1008 214.335C1007.23 214.685 1006.42 215 1005.58 215.28C1004.81 215.56 1004.04 215.84 1003.27 216.12C1001.31 216.89 999.7 217.66 998.44 218.43L997.495 220.11ZM1009.36 213.075C1009.43 213.075 1009.78 212.97 1010.41 212.76C1009.99 212.9 1009.64 213.005 1009.36 213.075ZM1055.44 173.49C1059.85 168.45 1064.75 165.3 1070.14 164.04C1073.85 163.13 1077.35 163.27 1080.64 164.46C1083.23 161.73 1086.59 160.75 1090.72 161.52C1094.5 162.22 1097.72 164.355 1100.38 167.925C1100.52 168.415 1100.8 169.15 1101.22 170.13C1101.71 171.11 1102.17 172.195 1102.59 173.385C1105.67 180.525 1105.91 189.905 1103.32 201.525C1100.1 215.945 1094.4 228.16 1086.21 238.17C1083.69 241.25 1080.85 243.805 1077.7 245.835C1072.66 249.685 1066.64 251.4 1059.64 250.98C1055.3 250.77 1051.66 249.685 1048.72 247.725C1037.03 241.915 1033.22 229.805 1037.28 211.395C1040.64 196.275 1046.69 183.64 1055.44 173.49ZM1056.7 229.245L1056.6 229.875L1056.81 231.03C1057.23 233.2 1057.93 234.88 1058.91 236.07C1059.89 237.19 1060.69 237.89 1061.32 238.17C1062.02 237.61 1062.72 237.085 1063.42 236.595C1064.12 236.105 1064.75 235.51 1065.31 234.81C1070.07 228.93 1073.78 221.23 1076.44 211.71C1079.1 202.19 1080.08 193.37 1079.38 185.25C1076.65 188.75 1073.78 192.775 1070.77 197.325C1067.76 201.875 1065.38 205.76 1063.63 208.98C1059.64 216.47 1057.33 223.225 1056.7 229.245ZM1137.62 248.04C1136.15 248.46 1134.75 248.67 1133.42 248.67C1132.09 248.74 1130.73 248.81 1129.33 248.88C1128 248.95 1126.14 248.985 1123.76 248.985C1121.38 248.985 1117.81 248.915 1113.05 248.775C1111.93 248.845 1110.81 248.88 1109.69 248.88C1108.57 248.88 1107.52 248.67 1106.54 248.25C1104.37 247.34 1102.9 245.24 1102.13 241.95C1101.78 240.41 1101.4 239.325 1100.98 238.695C1100.49 238.065 1100.1 237.47 1099.82 236.91C1099.12 235.79 1099.19 233.935 1100.03 231.345C1100.8 228.755 1101.82 225.57 1103.08 221.79C1104.34 217.94 1105.77 213.88 1107.38 209.61C1111.16 199.46 1114.56 191.41 1117.57 185.46C1118.76 182.8 1119.77 180.49 1120.61 178.53C1121.52 176.57 1122.33 174.89 1123.03 173.49C1123.73 172.02 1124.08 171.25 1124.08 171.18C1124.78 168.52 1127.47 166.28 1132.16 164.46C1136.71 162.57 1140.84 162.08 1144.55 162.99C1148.68 164.04 1150.5 166.77 1150.01 171.18C1149.03 175.52 1147.56 179.86 1145.6 184.2C1143.71 188.54 1141.54 193.09 1139.09 197.85C1136.64 202.61 1133.98 207.65 1131.11 212.97C1128.24 218.29 1125.41 224.065 1122.61 230.295C1122.54 230.575 1122.68 230.82 1123.03 231.03C1123.94 230.96 1125.2 230.68 1126.81 230.19C1128.49 229.7 1130.2 229.28 1131.95 228.93C1133.77 228.51 1135.56 228.3 1137.31 228.3C1139.06 228.3 1140.53 228.755 1141.72 229.665C1141.65 230.925 1141.96 231.94 1142.66 232.71C1143.36 233.41 1144.06 234.11 1144.76 234.81C1146.51 236.63 1146.65 239.045 1145.18 242.055C1143.78 244.995 1141.26 246.99 1137.62 248.04ZM1215.51 200.37C1215.23 203.38 1214.67 206.46 1213.83 209.61C1213.06 212.76 1211.91 215.84 1210.37 218.85C1208.9 221.86 1207.11 224.765 1205.01 227.565C1202.98 230.365 1200.71 232.955 1198.19 235.335C1195.67 237.715 1192.97 239.71 1190.1 241.32C1183.94 244.96 1177.99 246.255 1172.25 245.205C1170.99 247.935 1169.1 249.65 1166.58 250.35C1164.13 251.12 1161.68 251.12 1159.23 250.35C1156.85 249.65 1154.75 248.285 1152.93 246.255C1151.11 244.225 1150.2 241.46 1150.2 237.96C1150.2 234.39 1150.45 230.75 1150.94 227.04C1151.43 223.33 1152.09 219.76 1152.93 216.33C1154.26 210.66 1155.91 205.34 1157.87 200.37C1162.49 189.1 1165.11 181.19 1165.74 176.64C1166.65 170.55 1168.33 166.77 1170.78 165.3C1174.84 162.92 1178.69 161.905 1182.33 162.255C1185.97 162.605 1189.26 163.48 1192.2 164.88C1197.03 167.19 1202.25 171.075 1207.85 176.535C1214.01 182.485 1216.56 190.43 1215.51 200.37ZM1174.25 231.87C1177.82 230.05 1180.69 228.195 1182.86 226.305C1185.1 224.345 1187.2 222.56 1189.16 220.95C1192.17 217.94 1194.37 214.37 1195.77 210.24C1198.85 201.14 1196.89 194.245 1189.89 189.555C1188.84 188.785 1187.27 187.735 1185.17 186.405C1184.19 188.645 1183.45 190.99 1182.96 193.44C1182.54 195.89 1181.95 198.27 1181.18 200.58L1178.34 209.82L1176.03 219.795C1175.89 221.195 1175.68 222.56 1175.4 223.89C1175.12 225.15 1174.88 226.48 1174.67 227.88L1174.25 231.87Z" fill="#780E08"/>
<path d="M513.17 25.008C513.084 25.9253 512.914 26.864 512.658 27.824C512.423 28.784 512.071 29.7227 511.602 30.64C511.154 31.5573 510.61 32.4427 509.97 33.296C509.351 34.1493 508.658 34.9387 507.89 35.664C507.122 36.3893 506.3 36.9973 505.426 37.488C503.548 38.5973 501.735 38.992 499.986 38.672C499.602 39.504 499.026 40.0267 498.258 40.24C497.511 40.4747 496.764 40.4747 496.018 40.24C495.292 40.0267 494.652 39.6107 494.098 38.992C493.543 38.3733 493.266 37.5307 493.266 36.464C493.266 35.376 493.34 34.2667 493.49 33.136C493.639 32.0053 493.842 30.9173 494.098 29.872C494.503 28.144 495.004 26.5227 495.602 25.008C497.01 21.5733 497.81 19.1627 498.002 17.776C498.279 15.92 498.791 14.768 499.538 14.32C500.775 13.5947 501.948 13.2853 503.058 13.392C504.167 13.4987 505.17 13.7653 506.066 14.192C507.538 14.896 509.127 16.08 510.834 17.744C512.711 19.5573 513.49 21.9787 513.17 25.008ZM500.594 34.608C501.682 34.0533 502.556 33.488 503.218 32.912C503.9 32.3147 504.54 31.7707 505.138 31.28C506.055 30.3627 506.727 29.2747 507.154 28.016C508.092 25.2427 507.495 23.1413 505.362 21.712C505.042 21.4773 504.562 21.1573 503.922 20.752C503.623 21.4347 503.399 22.1493 503.25 22.896C503.122 23.6427 502.94 24.368 502.706 25.072L501.842 27.888L501.138 30.928C501.095 31.3547 501.031 31.7707 500.946 32.176C500.86 32.56 500.786 32.9653 500.722 33.392L500.594 34.608ZM519.498 33.968C520.735 34.096 521.652 34.16 522.25 34.16C522.868 34.16 523.796 34.0747 525.034 33.904C525.418 34.032 525.642 34.192 525.706 34.384C525.77 34.576 525.791 34.7787 525.77 34.992C525.748 35.184 525.759 35.376 525.802 35.568C525.844 35.76 526.047 35.92 526.41 36.048C526.602 36.112 526.655 36.304 526.57 36.624C526.506 36.9227 526.335 37.2533 526.058 37.616C525.354 38.5333 524.522 39.1733 523.562 39.536C522.026 39.92 520.82 40.144 519.946 40.208C518.495 40.3147 516.916 40.2613 515.21 40.048C513.332 39.7067 512.426 38.928 512.49 37.712C512.49 33.232 513.471 28.7307 515.434 24.208C516.074 22.736 516.799 21.1893 517.61 19.568C517.78 19.2267 517.876 18.8427 517.898 18.416C517.94 17.9893 517.972 17.5733 517.994 17.168C518.015 16.7627 518.079 16.4 518.186 16.08C518.292 15.76 518.516 15.536 518.858 15.408C523.295 13.6373 526.804 12.9547 529.386 13.36C530.282 13.3813 530.868 13.6907 531.146 14.288C531.444 14.864 531.476 15.5147 531.242 16.24C531.028 16.9653 530.591 17.648 529.93 18.288C529.29 18.928 528.479 19.3227 527.498 19.472C526.239 19.8347 525.471 20.08 525.194 20.208C524.66 20.464 524.276 20.8053 524.042 21.232C523.743 21.7013 523.466 22.1493 523.21 22.576C522.954 23.0027 522.772 23.4613 522.666 23.952L522.538 24.656C522.943 24.848 523.434 24.912 524.01 24.848C524.607 24.7627 525.151 24.688 525.642 24.624C526.154 24.5387 526.559 24.528 526.858 24.592C527.178 24.656 527.242 24.976 527.05 25.552C526.879 26.1067 526.548 26.736 526.058 27.44C525.588 28.144 524.916 28.656 524.042 28.976C523.487 29.0827 523.103 29.168 522.89 29.232C522.698 29.2747 522.548 29.3067 522.442 29.328C522.292 29.3493 521.866 29.3813 521.162 29.424C520.159 31.1307 519.551 32.4533 519.338 33.392C519.252 33.776 519.306 33.968 519.498 33.968ZM534.647 38.096C534.455 38.9493 533.794 39.472 532.663 39.664C531.618 39.856 530.626 39.7387 529.687 39.312C528.642 38.864 528.183 38.2347 528.311 37.424C528.183 36.1867 528.834 33.4987 530.263 29.36C532.396 23.152 534.53 18.7147 536.663 16.048C537.218 15.3653 537.687 14.928 538.071 14.736C538.476 14.5227 538.935 14.3307 539.447 14.16C539.959 13.9893 540.492 13.8293 541.047 13.68C542.156 13.3813 543.202 13.1787 544.183 13.072C545.186 12.944 546.082 13.0613 546.871 13.424C547.66 13.7653 548.268 14.2773 548.695 14.96C549.143 15.6427 549.42 16.4533 549.527 17.392C549.634 18.3093 549.602 19.28 549.431 20.304C549.26 21.3067 548.951 22.3307 548.503 23.376C548.055 24.4 547.49 25.36 546.807 26.256C545.314 28.2187 543.564 29.488 541.559 30.064L541.879 30.608C542.156 31.0347 542.487 31.504 542.871 32.016C543.276 32.528 543.671 33.0507 544.055 33.584C544.46 34.1173 544.823 34.6507 545.143 35.184C545.463 35.7173 545.698 36.2187 545.847 36.688C546.188 37.7333 545.922 38.4907 545.047 38.96C544.343 39.3867 543.788 39.4933 543.383 39.28C543.212 39.1733 543.042 39.0347 542.871 38.864C542.7 38.7147 542.466 38.5867 542.167 38.48C540.908 38.8427 539.948 38.5227 539.287 37.52C538.882 36.88 538.572 36.2933 538.359 35.76C538.146 35.2267 537.964 34.7787 537.815 34.416C537.431 33.6267 536.994 32.944 536.503 32.368C536.268 32.944 536.002 33.68 535.703 34.576C535.34 35.7067 534.935 36.88 534.487 38.096H534.647ZM541.111 19.472C540.706 20.3893 540.428 21.0293 540.279 21.392C539.98 22.1173 539.65 22.9173 539.287 23.792C539.223 24.2613 539.17 24.592 539.127 24.784L539.575 24.336L540.119 24.08C540.503 23.8667 540.855 23.6747 541.175 23.504C541.495 23.3333 541.783 23.12 542.039 22.864C542.53 22.3733 542.956 21.5733 543.319 20.464C543.319 20.2507 543.351 20.0373 543.415 19.824C543.5 19.6107 543.554 19.3973 543.575 19.184C543.66 18.7147 543.468 18.384 542.999 18.192C542.572 18.1493 542.039 18.5013 541.399 19.248C541.271 19.3973 541.175 19.472 541.111 19.472ZM558.648 14.832V14.896C558.648 14.9173 558.648 14.928 558.648 14.928C558.669 14.928 558.68 14.9387 558.68 14.96V15.024H558.712L558.904 15.536C559.117 16.1547 558.563 18.0747 557.24 21.296C555.832 24.7307 555.181 27.408 555.288 29.328C555.523 30.6933 556.664 29.5947 558.712 26.032C560.333 23.2587 561.901 20.2187 563.416 16.912C563.608 16.464 563.811 16.0053 564.024 15.536C564.237 15.0453 564.504 14.64 564.824 14.32C565.528 13.552 566.381 13.3493 567.384 13.712C567.725 13.3067 568.12 13.0293 568.568 12.88C569.037 12.7307 569.475 12.6987 569.88 12.784C570.307 12.8693 570.669 13.072 570.968 13.392C571.267 13.6907 571.427 14.096 571.448 14.608C571.512 15.0347 571.288 16.048 570.776 17.648C570.285 19.248 569.827 20.7093 569.4 22.032C568.973 23.3547 568.536 24.7947 568.088 26.352C567 30.0427 566.136 33.52 565.496 36.784C565.475 37.4667 565.176 38.032 564.6 38.48C564.045 38.928 563.416 39.216 562.712 39.344C562.029 39.4933 561.379 39.472 560.76 39.28C560.013 39.0667 559.619 38.5333 559.576 37.68C559.576 37.4453 559.565 37.2107 559.544 36.976C559.587 37.7013 559.064 38.32 557.976 38.832C557.677 38.9813 557.4 39.12 557.144 39.248C555.651 39.696 554.083 39.6 552.44 38.96C551.672 38.64 550.979 38.2133 550.36 37.68C549.763 37.1253 549.347 36.4747 549.112 35.728C548.365 33.3387 548.504 30.2027 549.528 26.32C549.955 24.656 550.477 23.0347 551.096 21.456C551.715 19.8773 552.163 18.736 552.44 18.032C552.739 17.328 552.952 16.848 553.08 16.592C553.208 16.3147 553.347 16.048 553.496 15.792C553.859 15.0667 554.168 14.576 554.424 14.32L554.808 13.968C554.851 13.9253 554.893 13.904 554.936 13.904C554.979 13.8827 555.032 13.8507 555.096 13.808C555.267 13.7013 555.448 13.6267 555.64 13.584L556.088 13.488H556.28C556.899 13.4027 557.432 13.5307 557.88 13.872C557.88 13.8933 557.901 13.904 557.944 13.904L558.2 14.128L558.296 14.224L558.392 14.352C558.392 14.3733 558.392 14.384 558.392 14.384C558.413 14.384 558.424 14.3947 558.424 14.416L558.456 14.448V14.512C558.477 14.512 558.488 14.5227 558.488 14.544V14.576C558.509 14.5973 558.531 14.608 558.552 14.608V14.64C558.552 14.6613 558.552 14.672 558.552 14.672C558.573 14.672 558.584 14.6827 558.584 14.704C558.584 14.704 558.595 14.7147 558.616 14.736V14.768C558.616 14.7893 558.627 14.8107 558.648 14.832ZM559.512 36.144V36.048C559.491 36.0693 559.48 36.1547 559.48 36.304C559.48 36.24 559.491 36.1973 559.512 36.176V36.144ZM589.482 25.008C589.397 25.9253 589.226 26.864 588.97 27.824C588.735 28.784 588.383 29.7227 587.914 30.64C587.466 31.5573 586.922 32.4427 586.282 33.296C585.663 34.1493 584.97 34.9387 584.202 35.664C583.434 36.3893 582.613 36.9973 581.738 37.488C579.861 38.5973 578.047 38.992 576.298 38.672C575.914 39.504 575.338 40.0267 574.57 40.24C573.823 40.4747 573.077 40.4747 572.33 40.24C571.605 40.0267 570.965 39.6107 570.41 38.992C569.855 38.3733 569.578 37.5307 569.578 36.464C569.578 35.376 569.653 34.2667 569.802 33.136C569.951 32.0053 570.154 30.9173 570.41 29.872C570.815 28.144 571.317 26.5227 571.914 25.008C573.322 21.5733 574.122 19.1627 574.314 17.776C574.591 15.92 575.103 14.768 575.85 14.32C577.087 13.5947 578.261 13.2853 579.37 13.392C580.479 13.4987 581.482 13.7653 582.378 14.192C583.85 14.896 585.439 16.08 587.146 17.744C589.023 19.5573 589.802 21.9787 589.482 25.008ZM576.906 34.608C577.994 34.0533 578.869 33.488 579.53 32.912C580.213 32.3147 580.853 31.7707 581.45 31.28C582.367 30.3627 583.039 29.2747 583.466 28.016C584.405 25.2427 583.807 23.1413 581.674 21.712C581.354 21.4773 580.874 21.1573 580.234 20.752C579.935 21.4347 579.711 22.1493 579.562 22.896C579.434 23.6427 579.253 24.368 579.018 25.072L578.154 27.888L577.45 30.928C577.407 31.3547 577.343 31.7707 577.258 32.176C577.173 32.56 577.098 32.9653 577.034 33.392L576.906 34.608ZM595.074 16.816C596.418 15.28 597.911 14.32 599.554 13.936C600.685 13.6587 601.751 13.7013 602.754 14.064C603.543 13.232 604.567 12.9333 605.826 13.168C606.978 13.3813 607.959 14.032 608.77 15.12C608.813 15.2693 608.898 15.4933 609.026 15.792C609.175 16.0907 609.314 16.4213 609.442 16.784C610.381 18.96 610.455 21.8187 609.666 25.36C608.685 29.7547 606.946 33.4773 604.45 36.528C603.682 37.4667 602.818 38.2453 601.858 38.864C600.322 40.0373 598.487 40.56 596.354 40.432C595.031 40.368 593.922 40.0373 593.026 39.44C589.463 37.6693 588.301 33.9787 589.538 28.368C590.562 23.76 592.407 19.9093 595.074 16.816ZM595.458 33.808L595.426 34L595.49 34.352C595.618 35.0133 595.831 35.5253 596.13 35.888C596.429 36.2293 596.674 36.4427 596.866 36.528C597.079 36.3573 597.293 36.1973 597.506 36.048C597.719 35.8987 597.911 35.7173 598.082 35.504C599.533 33.712 600.663 31.3653 601.474 28.464C602.285 25.5627 602.583 22.8747 602.37 20.4C601.538 21.4667 600.663 22.6933 599.746 24.08C598.829 25.4667 598.103 26.6507 597.57 27.632C596.354 29.9147 595.65 31.9733 595.458 33.808ZM611.544 36.944L611.32 16.272C611.32 15.76 611.522 15.3227 611.928 14.96C612.354 14.576 612.834 14.3093 613.368 14.16C613.901 14.0107 614.402 13.9893 614.872 14.096C615.341 14.2027 615.64 14.48 615.768 14.928C616.173 15.7387 616.45 16.8587 616.6 18.288C616.877 20.9547 617.016 23.2587 617.016 25.2C617.229 25.5413 617.496 25.7013 617.816 25.68C618.733 23.44 619.746 21.2853 620.856 19.216C621.965 17.1467 622.68 15.824 623 15.248C623.32 14.6507 623.704 14.2347 624.152 14C624.6 13.7653 625.08 13.616 625.592 13.552C626.701 13.424 627.746 13.616 628.728 14.128C629.474 14.384 629.912 14.8213 630.04 15.44C630.53 16.4213 630.2 17.552 629.048 18.832C627.704 20.9653 626.349 23.3227 624.984 25.904C622.381 30.8747 620.728 33.936 620.024 35.088C619.32 36.24 618.808 37.0613 618.488 37.552C618.168 38.0213 617.805 38.416 617.4 38.736C616.674 39.312 615.8 39.5467 614.776 39.44C612.984 39.376 611.938 38.8107 611.64 37.744C611.576 37.4453 611.544 37.1787 611.544 36.944ZM632.716 33.968C633.954 34.096 634.871 34.16 635.468 34.16C636.087 34.16 637.015 34.0747 638.252 33.904C638.636 34.032 638.86 34.192 638.924 34.384C638.988 34.576 639.01 34.7787 638.988 34.992C638.967 35.184 638.978 35.376 639.02 35.568C639.063 35.76 639.266 35.92 639.628 36.048C639.82 36.112 639.874 36.304 639.788 36.624C639.724 36.9227 639.554 37.2533 639.276 37.616C638.572 38.5333 637.74 39.1733 636.78 39.536C635.244 39.92 634.039 40.144 633.164 40.208C631.714 40.3147 630.135 40.2613 628.428 40.048C626.551 39.7067 625.644 38.928 625.708 37.712C625.708 33.232 626.69 28.7307 628.652 24.208C629.292 22.736 630.018 21.1893 630.828 19.568C630.999 19.2267 631.095 18.8427 631.116 18.416C631.159 17.9893 631.191 17.5733 631.212 17.168C631.234 16.7627 631.298 16.4 631.404 16.08C631.511 15.76 631.735 15.536 632.076 15.408C636.514 13.6373 640.023 12.9547 642.604 13.36C643.5 13.3813 644.087 13.6907 644.364 14.288C644.663 14.864 644.695 15.5147 644.46 16.24C644.247 16.9653 643.81 17.648 643.148 18.288C642.508 18.928 641.698 19.3227 640.716 19.472C639.458 19.8347 638.69 20.08 638.412 20.208C637.879 20.464 637.495 20.8053 637.26 21.232C636.962 21.7013 636.684 22.1493 636.428 22.576C636.172 23.0027 635.991 23.4613 635.884 23.952L635.756 24.656C636.162 24.848 636.652 24.912 637.228 24.848C637.826 24.7627 638.37 24.688 638.86 24.624C639.372 24.5387 639.778 24.528 640.076 24.592C640.396 24.656 640.46 24.976 640.268 25.552C640.098 26.1067 639.767 26.736 639.276 27.44C638.807 28.144 638.135 28.656 637.26 28.976C636.706 29.0827 636.322 29.168 636.108 29.232C635.916 29.2747 635.767 29.3067 635.66 29.328C635.511 29.3493 635.084 29.3813 634.38 29.424C633.378 31.1307 632.77 32.4533 632.556 33.392C632.471 33.776 632.524 33.968 632.716 33.968ZM647.866 38.096C647.674 38.9493 647.012 39.472 645.882 39.664C644.836 39.856 643.844 39.7387 642.906 39.312C641.86 38.864 641.402 38.2347 641.53 37.424C641.402 36.1867 642.052 33.4987 643.482 29.36C645.615 23.152 647.748 18.7147 649.882 16.048C650.436 15.3653 650.906 14.928 651.29 14.736C651.695 14.5227 652.154 14.3307 652.666 14.16C653.178 13.9893 653.711 13.8293 654.266 13.68C655.375 13.3813 656.42 13.1787 657.402 13.072C658.404 12.944 659.3 13.0613 660.09 13.424C660.879 13.7653 661.487 14.2773 661.914 14.96C662.362 15.6427 662.639 16.4533 662.746 17.392C662.852 18.3093 662.82 19.28 662.65 20.304C662.479 21.3067 662.17 22.3307 661.722 23.376C661.274 24.4 660.708 25.36 660.026 26.256C658.532 28.2187 656.783 29.488 654.778 30.064L655.098 30.608C655.375 31.0347 655.706 31.504 656.09 32.016C656.495 32.528 656.89 33.0507 657.274 33.584C657.679 34.1173 658.042 34.6507 658.362 35.184C658.682 35.7173 658.916 36.2187 659.066 36.688C659.407 37.7333 659.14 38.4907 658.266 38.96C657.562 39.3867 657.007 39.4933 656.602 39.28C656.431 39.1733 656.26 39.0347 656.09 38.864C655.919 38.7147 655.684 38.5867 655.386 38.48C654.127 38.8427 653.167 38.5227 652.506 37.52C652.1 36.88 651.791 36.2933 651.578 35.76C651.364 35.2267 651.183 34.7787 651.034 34.416C650.65 33.6267 650.212 32.944 649.722 32.368C649.487 32.944 649.22 33.68 648.922 34.576C648.559 35.7067 648.154 36.88 647.706 38.096H647.866ZM654.33 19.472C653.924 20.3893 653.647 21.0293 653.498 21.392C653.199 22.1173 652.868 22.9173 652.506 23.792C652.442 24.2613 652.388 24.592 652.346 24.784L652.794 24.336L653.338 24.08C653.722 23.8667 654.074 23.6747 654.394 23.504C654.714 23.3333 655.002 23.12 655.258 22.864C655.748 22.3733 656.175 21.5733 656.538 20.464C656.538 20.2507 656.57 20.0373 656.634 19.824C656.719 19.6107 656.772 19.3973 656.794 19.184C656.879 18.7147 656.687 18.384 656.218 18.192C655.791 18.1493 655.258 18.5013 654.618 19.248C654.49 19.3973 654.394 19.472 654.33 19.472ZM675.963 14.928C676.048 15.184 676.144 15.3653 676.251 15.472C676.357 15.5573 676.432 15.6213 676.475 15.664C676.581 15.7707 676.528 15.9627 676.315 16.24C676.123 16.624 675.856 17.072 675.515 17.584C674.896 18.5013 674.501 19.1733 674.331 19.6C673.456 21.3493 672.773 22.96 672.283 24.432C671.792 25.8827 671.376 27.1947 671.035 28.368C670.693 29.5413 670.363 30.576 670.043 31.472C669.659 32.5173 669.211 33.296 668.699 33.808C668.443 34.2347 667.984 34.5227 667.323 34.672C666.661 34.8213 665.989 34.8533 665.307 34.768C664.624 34.6613 664.037 34.4373 663.547 34.096C663.077 33.7547 662.907 33.3067 663.035 32.752C663.269 30.7467 663.621 29.0613 664.091 27.696C664.581 26.3307 664.997 25.2 665.339 24.304C665.701 23.408 666.011 22.608 666.267 21.904C666.523 21.1787 666.757 20.56 666.971 20.048C667.205 19.5147 667.472 18.96 667.771 18.384C668.069 17.7867 668.389 17.1893 668.731 16.592C669.093 15.9733 669.456 15.408 669.819 14.896C670.651 13.7227 671.355 13.0293 671.931 12.816C672.507 12.5813 673.083 12.4427 673.659 12.4C674.256 12.3573 674.768 12.4213 675.195 12.592C675.643 12.7627 675.952 13.04 676.123 13.424C676.293 13.808 676.24 14.3093 675.963 14.928ZM668.315 39.056C668.08 39.9307 667.589 40.5813 666.843 41.008C666.117 41.456 665.339 41.6907 664.507 41.712C663.675 41.7547 662.896 41.5947 662.171 41.232C661.467 40.8907 661.029 40.3467 660.859 39.6C660.667 38.8747 660.773 38.256 661.179 37.744C661.605 37.2107 662.107 36.8693 662.683 36.72C663.259 36.5493 663.931 36.432 664.699 36.368C665.488 36.304 666.203 36.3467 666.843 36.496C667.483 36.6453 667.973 36.9227 668.315 37.328C668.656 37.7333 668.656 38.3093 668.315 39.056Z" fill="#780E08"/>
</svg>
