<svg width="304" height="311" viewBox="0 0 304 311" fill="none" xmlns="http://www.w3.org/2000/svg">
<g clip-path="url(#clip0_449_1668)">
<path d="M221 207.549C221.198 203.97 221.693 199.48 222.712 195.036C224.317 188.035 226.976 181.407 229.49 174.716C230.795 171.242 231.817 167.669 231.946 163.883C232.054 160.681 230.825 158.123 228.738 155.853C228.16 155.224 227.532 154.6 227.123 153.864C225.418 150.8 227.805 146.499 231.289 146.241C234.314 146.018 236.561 147.543 238.497 149.591C240.521 151.731 241.77 154.321 242.443 157.211C243.022 159.699 243.35 162.2 243.238 164.754C243.083 168.305 242.444 171.776 241.583 175.216C240.52 179.459 238.731 183.447 237.353 187.577C236.039 191.512 235.075 195.525 234.413 199.637C233.923 202.68 233.925 205.713 234.151 208.724C234.375 211.709 235.647 214.442 237.203 217.002C238.385 218.948 239.839 220.647 241.713 221.946C242.266 222.328 242.874 222.65 243.496 222.902C243.873 223.054 244.402 223.167 244.701 222.8C244.981 222.454 244.659 222.05 244.496 221.705C242.136 216.711 240.142 211.568 239.317 206.09C238.544 200.951 238.711 195.851 241.723 191.287C242.89 189.519 244.319 187.96 245.878 186.544C247.052 185.477 247.532 184.255 247.514 182.659C247.465 178.291 247.9 173.937 248.232 169.588C248.545 165.5 249.062 161.414 249.739 157.37C250.771 151.205 251.913 145.056 253.372 138.972C254.086 135.99 254.716 132.986 255.417 130C256.066 127.237 255.3 124.78 253.94 122.411C252.659 120.182 251.37 117.957 250.776 115.399C250.396 113.76 250.336 112.107 250.626 110.494C251.23 107.135 251.035 103.823 250.6 100.467C250.092 96.5409 249.508 92.5988 250.074 88.6136C250.272 87.2156 250.72 85.9024 251.334 84.6432C251.604 84.0891 252.043 83.9024 252.662 84.0449C254.573 84.4859 256.29 85.2943 257.731 86.6493C259.321 88.1431 260.609 89.9121 262.089 91.5005C263.544 93.0643 265.106 94.3186 267.602 93.5103C270.176 92.6761 272.911 92.8015 275.5 93.5447C277.695 94.1749 279.165 93.197 280.51 91.7941C282.014 90.2253 283.279 88.433 284.838 86.9085C286.307 85.4724 288.08 84.6161 290.038 84.0891C290.835 83.8741 291.29 84.1174 291.65 84.8668C292.569 86.7758 292.883 88.8212 293.024 90.89C293.269 94.525 292.469 98.0814 292.105 101.671C291.929 103.412 291.688 105.15 291.632 106.896C291.602 107.802 291.877 108.727 292.073 109.63C292.854 113.237 292.044 116.576 290.477 119.816C289.419 122.003 288.56 124.284 287.788 126.584C287.035 128.826 287.675 131.054 288.223 133.237C288.934 136.076 289.476 138.95 290.137 141.798C290.873 144.966 291.464 148.16 292.094 151.347C293.175 156.818 293.978 162.342 294.474 167.893C294.894 172.589 295.425 177.296 295.346 182.018C295.31 184.239 296.108 185.843 297.686 187.265C300.594 189.884 302.628 193.074 303.512 196.933C304.054 199.292 304.111 201.696 303.854 204.089C303.263 209.619 301.462 214.785 299.209 219.839C297.751 223.11 296.15 226.296 294.415 229.42C294.173 229.855 294.154 230.302 294.148 230.767C294.138 231.591 294.148 232.412 293.919 233.218C293.533 234.576 292.545 235.416 291.138 235.453C289.536 235.496 287.933 235.492 286.331 235.496C285.71 235.497 285.319 235.635 285.08 236.352C284.599 237.798 283.226 238.138 281.953 238.456C279.316 239.114 276.576 239.264 274.035 238.409C272.058 237.743 270.393 238.062 268.521 238.533C265.569 239.275 262.587 239.045 259.69 238.038C258.89 237.759 258.199 237.315 257.858 236.503C257.575 235.826 257.095 235.657 256.417 235.681C253.182 235.802 249.942 235.947 246.711 235.696C240.28 235.199 234.248 233.544 229.174 229.282C225.487 226.185 223.328 222.129 222.101 217.539C221.313 214.591 220.98 211.568 221 207.549Z" fill="#780E08"/>
</g>
<g clip-path="url(#clip1_449_1668)">
<path d="M92.6329 238.983C85.7805 238.983 78.93 238.967 72.0776 238.988C66.4644 239.005 61.0291 238.157 55.9056 235.758C54.8958 235.284 53.8459 234.838 52.9489 234.194C51.8397 233.397 50.9102 233.521 49.7359 234.081C45.4749 236.108 41.0781 237.809 36.3945 238.554C29.303 239.684 22.9095 237.916 17.2008 233.607C10.7461 228.735 7.30368 221.836 4.63385 214.505C0.632935 203.525 -0.430405 192.113 0.145252 180.512C0.713259 169.083 3.4156 158.147 7.91758 147.649C9.42844 144.124 12.542 142.09 15.8506 142.257C19.2108 142.425 22.0107 144.707 23.3475 148.272C24.4873 151.31 24.43 154.286 23.0797 157.23C20.4386 162.984 18.637 168.972 17.7956 175.261C16.4224 185.547 17.7477 195.501 21.3451 205.188C22.5309 208.379 23.8964 211.491 25.6539 214.419C26.6312 216.05 27.8323 217.426 29.5076 218.374C32.2539 219.93 34.83 218.548 35.1112 215.408C35.3177 213.087 34.5929 210.988 33.7361 208.916C31.9269 204.544 30.7278 200.016 30.0087 195.342C28.318 184.36 29.3737 173.633 32.755 163.079C35.924 153.191 41.1221 144.495 48.227 136.979C51.876 133.12 56.0815 129.843 60.2909 126.597C67.2677 121.218 74.6709 116.436 81.7815 111.242C87.7044 106.916 93.2679 102.195 97.8043 96.3644C103.857 88.5825 107.543 79.6766 110.291 70.3139C111.316 66.8215 111.991 63.2508 112.802 59.7125C112.894 59.3149 112.844 58.7644 113.318 58.6573C113.816 58.5445 113.974 59.0989 114.202 59.4239C118.48 65.514 124.139 69.6697 131.498 71.0518C138.653 72.3956 145.329 70.9849 150.713 65.8734C154.787 62.0063 155.741 57.0172 154.045 51.7051C150.985 42.1225 147.766 32.5896 144.599 23.0415C144.44 22.5636 144.195 22.0953 143.899 21.69C143.444 21.0707 142.782 20.87 142.032 21.0592C141.225 21.2618 140.958 21.8793 140.883 22.6267C140.784 23.6188 140.977 24.5726 141.233 25.5227C143.694 34.6025 146.142 43.6861 148.613 52.764C149.998 57.8526 148.676 61.4271 144.433 63.8605C143.004 64.6787 141.434 65.1547 139.831 65.4681C132.99 66.8062 127.134 64.8641 122.146 60.0852C116.306 54.4883 114.185 47.5914 114.871 39.6547C115.254 35.2276 115.921 30.8903 117.501 26.7002C119.685 20.9025 123.367 16.1523 127.626 11.7844C131.181 8.13912 135.302 5.26798 140.003 3.31247C148.332 -0.151239 156.896 -0.927325 165.736 1.12376C175.229 3.32585 182.852 8.46025 189.232 15.6438C190.625 17.2113 192.007 18.7883 193.333 20.4112C196.67 24.4981 201.096 26.2873 206.223 26.8435C209.57 27.2067 212.93 26.9678 216.269 27.3061C221.771 27.8643 225.241 30.8501 225.79 36.3649C226.453 43.0477 225.7 49.5756 221.655 55.316C219.012 59.0645 215.257 61.3755 211.251 63.3215C203.454 67.1044 195.578 70.723 187.823 74.5862C182.38 77.2968 179.003 81.657 178.475 87.8924C178.261 90.4138 178.758 92.9083 179.033 95.3972C179.592 100.442 179.959 105.502 180.263 110.563C180.777 119.119 180.984 127.687 180.806 136.258C180.689 141.844 180.46 147.427 180.309 153.011C179.955 166.155 181.215 179.138 183.969 192.001C185.541 199.337 187.41 206.593 189.296 213.85C189.517 214.704 189.89 215.222 190.827 215.373C200.512 216.944 206.795 225.82 208.003 234.234C208.155 235.291 208.2 236.366 208.309 237.428C208.418 238.486 207.977 238.986 206.89 238.984C200.971 238.971 195.052 238.975 189.133 238.981C188.219 238.981 187.825 238.575 187.733 237.644C187.383 234.152 186.668 230.729 185.214 227.517C182.782 222.146 179.219 217.799 173.116 216.744C170.546 216.298 169.74 215.211 169.199 212.917C167.313 204.927 165.877 196.875 165.072 188.703C164.693 184.861 164.167 181.032 163.672 177.202C163.54 176.185 163.19 175.233 161.884 175.301C160.553 175.372 160.203 176.317 160.168 177.431C160.035 181.812 160.26 186.184 160.536 190.554C161.115 199.735 162.899 208.734 164.676 217.734C165.29 220.848 165.827 221.234 168.945 221.666C173.21 222.257 176.193 224.83 178.542 228.27C180.362 230.937 181.403 233.907 181.955 237.061C182.24 238.684 181.99 238.981 180.351 238.981C168.231 238.988 156.114 238.973 143.995 239.002C142.707 239.006 142.115 238.608 141.862 237.249C139.971 227.085 137.993 216.939 136.039 206.788C135.972 206.437 136.004 205.966 135.585 205.848C135.224 205.747 135.031 206.14 134.836 206.381C130.628 211.539 125.162 214.903 119.113 217.441C118.469 217.713 117.809 217.95 117.176 218.244C114.495 219.498 111.916 219.911 109.446 217.696C108.849 217.16 107.971 216.902 107.181 216.633C106.334 216.344 106.261 215.941 106.607 215.17C110.195 207.184 113.743 199.179 117.327 191.188C119.499 186.344 121.173 181.397 120.94 175.976C120.626 168.718 118.035 162.37 113.315 156.895C111.366 154.634 109.166 152.613 106.569 151.069C104.418 149.79 102.647 149.836 101.69 151.247C100.711 152.692 101.293 154.875 103.136 156.251C105.38 157.926 107.594 159.623 109.419 161.768C116.193 169.737 117.009 178.343 112.588 187.765C108.334 196.827 104.414 206.047 100.348 215.197C100.044 215.88 99.7818 216.57 99.7454 217.334C99.6441 219.494 100.463 220.576 102.595 220.857C107.131 221.454 110.413 224.002 112.903 227.622C114.843 230.444 116.202 233.563 116.713 236.998C116.965 238.698 116.757 238.977 115.017 238.981C107.56 238.99 100.101 238.984 92.6444 238.984L92.6329 238.983Z" fill="#780E08"/>
</g>
<path d="M9.744 296.18L7.812 287.192H7.756L5.824 296.18H9.744ZM10.276 283.72L15.568 303.712H11.368L10.444 299.484H5.124L4.2 303.712H0L5.292 283.72H10.276ZM21.6066 283.72L26.4786 297.412H26.5346V283.72H30.2306V303.712H25.6386L20.7106 289.712H20.6546V303.712H16.9586V283.72H21.6066ZM37.2647 300.744H39.0567C39.7661 300.744 40.3354 300.623 40.7647 300.38C41.1941 300.137 41.5301 299.736 41.7727 299.176C42.0341 298.616 42.2021 297.879 42.2767 296.964C42.3701 296.049 42.4167 294.911 42.4167 293.548C42.4167 292.409 42.3794 291.411 42.3047 290.552C42.2301 289.693 42.0714 288.984 41.8287 288.424C41.6047 287.845 41.2594 287.416 40.7927 287.136C40.3447 286.837 39.7381 286.688 38.9727 286.688H37.2647V300.744ZM33.2327 283.72H39.8407C41.2407 283.72 42.3701 283.953 43.2287 284.42C44.0874 284.868 44.7501 285.521 45.2167 286.38C45.7021 287.22 46.0287 288.237 46.1967 289.432C46.3647 290.627 46.4487 291.961 46.4487 293.436C46.4487 295.191 46.3367 296.721 46.1127 298.028C45.9074 299.316 45.5434 300.38 45.0207 301.22C44.4981 302.06 43.7981 302.685 42.9207 303.096C42.0434 303.507 40.9327 303.712 39.5887 303.712H33.2327V283.72ZM49.1148 283.72H56.5628C58.2428 283.72 59.5495 284.149 60.4828 285.008C61.4162 285.848 61.8828 287.136 61.8828 288.872C61.8828 290.216 61.6122 291.317 61.0708 292.176C60.5295 293.016 59.6895 293.557 58.5508 293.8V293.856C59.5588 294.005 60.2962 294.332 60.7628 294.836C61.2295 295.34 61.5188 296.152 61.6308 297.272C61.6682 297.645 61.6962 298.056 61.7148 298.504C61.7335 298.933 61.7522 299.419 61.7708 299.96C61.8082 301.024 61.8642 301.836 61.9388 302.396C62.0508 302.956 62.2935 303.339 62.6668 303.544V303.712H58.2988C58.0935 303.432 57.9628 303.115 57.9068 302.76C57.8508 302.387 57.8135 302.004 57.7948 301.612L57.6828 297.776C57.6455 296.992 57.4495 296.376 57.0948 295.928C56.7402 295.48 56.1428 295.256 55.3028 295.256H53.1468V303.712H49.1148V283.72ZM53.1468 292.456H54.8268C55.7975 292.456 56.5442 292.232 57.0668 291.784C57.5895 291.317 57.8508 290.543 57.8508 289.46C57.8508 287.612 56.9175 286.688 55.0508 286.688H53.1468V292.456ZM75.8454 283.72V287.024H68.7054V291.728H75.4254V295.032H68.7054V300.408H76.1254V303.712H64.6734V283.72H75.8454ZM89.1085 300.744H90.9005C91.6098 300.744 92.1791 300.623 92.6085 300.38C93.0378 300.137 93.3738 299.736 93.6165 299.176C93.8778 298.616 94.0458 297.879 94.1205 296.964C94.2138 296.049 94.2605 294.911 94.2605 293.548C94.2605 292.409 94.2231 291.411 94.1485 290.552C94.0738 289.693 93.9151 288.984 93.6725 288.424C93.4485 287.845 93.1031 287.416 92.6365 287.136C92.1885 286.837 91.5818 286.688 90.8165 286.688H89.1085V300.744ZM85.0765 283.72H91.6845C93.0845 283.72 94.2138 283.953 95.0725 284.42C95.9311 284.868 96.5938 285.521 97.0605 286.38C97.5458 287.22 97.8725 288.237 98.0405 289.432C98.2085 290.627 98.2925 291.961 98.2925 293.436C98.2925 295.191 98.1805 296.721 97.9565 298.028C97.7511 299.316 97.3871 300.38 96.8645 301.22C96.3418 302.06 95.6418 302.685 94.7645 303.096C93.8871 303.507 92.7765 303.712 91.4325 303.712H85.0765V283.72ZM103.632 283.72L106.264 291.448H106.32L109.12 283.72H113.488L108.308 295.844V303.712H104.276V295.844L99.0957 283.72H103.632ZM114.959 283.72H122.407C124.087 283.72 125.393 284.149 126.327 285.008C127.26 285.848 127.727 287.136 127.727 288.872C127.727 290.216 127.456 291.317 126.915 292.176C126.373 293.016 125.533 293.557 124.395 293.8V293.856C125.403 294.005 126.14 294.332 126.607 294.836C127.073 295.34 127.363 296.152 127.475 297.272C127.512 297.645 127.54 298.056 127.559 298.504C127.577 298.933 127.596 299.419 127.615 299.96C127.652 301.024 127.708 301.836 127.783 302.396C127.895 302.956 128.137 303.339 128.511 303.544V303.712H124.143C123.937 303.432 123.807 303.115 123.751 302.76C123.695 302.387 123.657 302.004 123.639 301.612L123.527 297.776C123.489 296.992 123.293 296.376 122.939 295.928C122.584 295.48 121.987 295.256 121.147 295.256H118.991V303.712H114.959V283.72ZM118.991 292.456H120.671C121.641 292.456 122.388 292.232 122.911 291.784C123.433 291.317 123.695 290.543 123.695 289.46C123.695 287.612 122.761 286.688 120.895 286.688H118.991V292.456ZM137.44 303.712V283.72H141.472V303.712H137.44ZM151.189 283.72H155.221V291.364H159.925V283.72H163.957V303.712H159.925V294.836H155.221V303.712H151.189V283.72ZM170.528 283.72V297.664C170.528 298.168 170.556 298.635 170.612 299.064C170.686 299.475 170.808 299.839 170.976 300.156C171.162 300.455 171.405 300.697 171.704 300.884C172.021 301.052 172.413 301.136 172.88 301.136C173.365 301.136 173.757 301.052 174.056 300.884C174.354 300.697 174.588 300.455 174.756 300.156C174.942 299.839 175.064 299.475 175.12 299.064C175.194 298.635 175.232 298.168 175.232 297.664V283.72H179.264V297.664C179.264 298.933 179.086 299.988 178.732 300.828C178.377 301.649 177.901 302.303 177.304 302.788C176.706 303.273 176.025 303.6 175.26 303.768C174.494 303.936 173.701 304.02 172.88 304.02C172.058 304.02 171.265 303.945 170.5 303.796C169.734 303.647 169.053 303.348 168.456 302.9C167.858 302.433 167.382 301.78 167.028 300.94C166.673 300.1 166.496 299.008 166.496 297.664V283.72H170.528ZM185.062 297.468V298.056C185.062 298.523 185.099 298.952 185.174 299.344C185.249 299.717 185.389 300.035 185.594 300.296C185.799 300.557 186.07 300.763 186.406 300.912C186.761 301.061 187.199 301.136 187.722 301.136C188.338 301.136 188.889 300.94 189.374 300.548C189.878 300.137 190.13 299.512 190.13 298.672C190.13 298.224 190.065 297.841 189.934 297.524C189.822 297.188 189.626 296.889 189.346 296.628C189.066 296.367 188.693 296.133 188.226 295.928C187.778 295.704 187.218 295.48 186.546 295.256C185.65 294.957 184.875 294.631 184.222 294.276C183.569 293.921 183.018 293.511 182.57 293.044C182.141 292.559 181.823 292.008 181.618 291.392C181.413 290.757 181.31 290.029 181.31 289.208C181.31 287.229 181.861 285.755 182.962 284.784C184.063 283.813 185.575 283.328 187.498 283.328C188.394 283.328 189.215 283.431 189.962 283.636C190.727 283.823 191.381 284.14 191.922 284.588C192.482 285.017 192.911 285.577 193.21 286.268C193.527 286.94 193.686 287.752 193.686 288.704V289.264H189.822C189.822 288.312 189.654 287.584 189.318 287.08C188.982 286.557 188.422 286.296 187.638 286.296C187.19 286.296 186.817 286.361 186.518 286.492C186.219 286.623 185.977 286.8 185.79 287.024C185.622 287.229 185.501 287.472 185.426 287.752C185.37 288.032 185.342 288.321 185.342 288.62C185.342 289.236 185.473 289.759 185.734 290.188C185.995 290.599 186.555 290.981 187.414 291.336L190.522 292.68C191.287 293.016 191.913 293.371 192.398 293.744C192.883 294.099 193.266 294.491 193.546 294.92C193.845 295.331 194.05 295.788 194.162 296.292C194.274 296.796 194.33 297.356 194.33 297.972C194.33 300.081 193.714 301.621 192.482 302.592C191.269 303.544 189.57 304.02 187.386 304.02C185.109 304.02 183.475 303.525 182.486 302.536C181.515 301.547 181.03 300.128 181.03 298.28V297.468H185.062ZM199.582 297.468V298.056C199.582 298.523 199.619 298.952 199.694 299.344C199.768 299.717 199.908 300.035 200.114 300.296C200.319 300.557 200.59 300.763 200.926 300.912C201.28 301.061 201.719 301.136 202.242 301.136C202.858 301.136 203.408 300.94 203.894 300.548C204.398 300.137 204.65 299.512 204.65 298.672C204.65 298.224 204.584 297.841 204.454 297.524C204.342 297.188 204.146 296.889 203.866 296.628C203.586 296.367 203.212 296.133 202.746 295.928C202.298 295.704 201.738 295.48 201.066 295.256C200.17 294.957 199.395 294.631 198.742 294.276C198.088 293.921 197.538 293.511 197.09 293.044C196.66 292.559 196.343 292.008 196.138 291.392C195.932 290.757 195.83 290.029 195.83 289.208C195.83 287.229 196.38 285.755 197.482 284.784C198.583 283.813 200.095 283.328 202.018 283.328C202.914 283.328 203.735 283.431 204.482 283.636C205.247 283.823 205.9 284.14 206.442 284.588C207.002 285.017 207.431 285.577 207.73 286.268C208.047 286.94 208.206 287.752 208.206 288.704V289.264H204.342C204.342 288.312 204.174 287.584 203.838 287.08C203.502 286.557 202.942 286.296 202.158 286.296C201.71 286.296 201.336 286.361 201.038 286.492C200.739 286.623 200.496 286.8 200.31 287.024C200.142 287.229 200.02 287.472 199.946 287.752C199.89 288.032 199.862 288.321 199.862 288.62C199.862 289.236 199.992 289.759 200.254 290.188C200.515 290.599 201.075 290.981 201.934 291.336L205.042 292.68C205.807 293.016 206.432 293.371 206.918 293.744C207.403 294.099 207.786 294.491 208.066 294.92C208.364 295.331 208.57 295.788 208.682 296.292C208.794 296.796 208.85 297.356 208.85 297.972C208.85 300.081 208.234 301.621 207.002 302.592C205.788 303.544 204.09 304.02 201.906 304.02C199.628 304.02 197.995 303.525 197.006 302.536C196.035 301.547 195.55 300.128 195.55 298.28V297.468H199.582ZM222.557 283.72V287.024H218.189V303.712H214.157V287.024H209.789V283.72H222.557ZM231.119 296.18L229.187 287.192H229.131L227.199 296.18H231.119ZM231.651 283.72L236.943 303.712H232.743L231.819 299.484H226.499L225.575 303.712H221.375L226.667 283.72H231.651ZM242.982 283.72L247.854 297.412H247.91V283.72H251.606V303.712H247.014L242.086 289.712H242.03V303.712H238.334V283.72H242.982ZM258.64 300.744H260.432C261.141 300.744 261.71 300.623 262.14 300.38C262.569 300.137 262.905 299.736 263.148 299.176C263.409 298.616 263.577 297.879 263.652 296.964C263.745 296.049 263.792 294.911 263.792 293.548C263.792 292.409 263.754 291.411 263.68 290.552C263.605 289.693 263.446 288.984 263.204 288.424C262.98 287.845 262.634 287.416 262.168 287.136C261.72 286.837 261.113 286.688 260.348 286.688H258.64V300.744ZM254.608 283.72H261.216C262.616 283.72 263.745 283.953 264.604 284.42C265.462 284.868 266.125 285.521 266.592 286.38C267.077 287.22 267.404 288.237 267.572 289.432C267.74 290.627 267.824 291.961 267.824 293.436C267.824 295.191 267.712 296.721 267.488 298.028C267.282 299.316 266.918 300.38 266.396 301.22C265.873 302.06 265.173 302.685 264.296 303.096C263.418 303.507 262.308 303.712 260.964 303.712H254.608V283.72ZM281.662 283.72V287.024H274.522V291.728H281.242V295.032H274.522V300.408H281.942V303.712H270.49V283.72H281.662ZM288.618 283.72L293.49 297.412H293.546V283.72H297.242V303.712H292.65L287.722 289.712H287.666V303.712H283.97V283.72H288.618Z" fill="#780E08"/>
<defs>
<clipPath id="clip0_449_1668">
<rect width="83" height="155" fill="white" transform="translate(221 84)"/>
</clipPath>
<clipPath id="clip1_449_1668">
<rect width="226" height="239" fill="white"/>
</clipPath>
</defs>
</svg>
