<svg width="331" height="382" viewBox="0 0 331 382" fill="none" xmlns="http://www.w3.org/2000/svg">
<path d="M165.139 310.125C112.587 310.125 60.0349 310.125 7.48293 310.125C3.03249 310.125 1.22652 309.157 0.368182 306.329C-0.74815 302.643 0.685715 300.207 4.51101 299.587C6.47079 299.269 8.47523 299.14 10.4648 299.13C18.9191 299.081 27.3685 299.12 35.8229 299.1C39.2413 299.09 39.9558 298.421 39.9558 295.077C39.9508 249.778 39.931 204.485 39.8913 159.187C39.8913 158.463 40.308 157.386 39.3257 157.093C38.5666 156.865 38.2689 157.912 37.7281 158.338C33.0048 162.055 29.626 167.428 23.7119 169.685C15.3766 172.866 4.90793 165.915 4.41674 156.989C3.99998 149.408 7.49286 143.707 12.5784 138.627C35.1382 116.077 57.6831 93.5168 80.233 70.957C89.9774 61.2077 99.7415 51.4832 109.446 41.6992C120.222 30.8435 131.227 20.2111 141.711 9.05767C146.642 3.80843 153.132 1.39715 160.177 0.414778C168.22 -0.706515 175.855 0.394934 183.065 4.33931C186.061 5.97659 188.547 8.16956 190.899 10.5461C199.924 19.6603 208.869 28.849 217.919 37.9384C236.713 56.8069 255.552 75.6307 274.375 94.4645C289.543 109.637 304.774 124.739 319.852 139.996C324.854 145.057 327.786 151.095 326.684 158.552C325.494 166.589 313.789 174.701 304.507 168.207C300.939 165.711 298.25 162.347 295.362 159.167C294.445 158.16 293.661 156.21 292.217 156.676C290.674 157.177 291.254 159.177 291.254 160.551C291.23 205.21 291.235 249.868 291.24 294.526C291.24 298.5 291.83 299.091 295.829 299.095C304.124 299.11 312.415 299.11 320.711 299.105C323.117 299.105 325.489 299.403 327.796 300.073C329.736 300.634 330.946 301.864 330.991 304.027C331.036 306.21 330.753 308.13 328.401 309.167C326.511 309.996 324.566 310.16 322.561 310.16C310.679 310.16 298.796 310.165 286.913 310.165C246.323 310.165 205.733 310.165 165.144 310.165V310.125H165.139ZM165.422 299.105C181.606 299.105 197.79 299.105 213.974 299.105C218.301 299.105 218.866 298.555 218.866 294.337C218.866 269.545 218.871 244.748 218.857 219.955C218.857 217.727 218.916 215.465 218.569 213.277C216.272 198.938 209.46 187.274 197.746 178.561C182.008 166.847 164.881 164.124 146.548 171.174C136.64 174.984 128.454 181.216 122.202 190.067C116.179 198.596 112.438 207.884 112.334 218.233C112.076 243.666 112.239 269.098 112.254 294.531C112.254 298.455 112.929 299.105 116.874 299.105C133.058 299.115 149.242 299.105 165.426 299.105H165.422ZM180.931 142.482C183.243 142.799 185.525 141.871 187.892 141.584C194.694 140.765 200.296 133.854 199.502 127.012C199.021 122.854 197.572 118.91 194.64 115.799C187.594 108.327 180.891 100.552 174.144 92.8123C168.349 86.1689 157.989 87.1909 153.216 94.6183C150.626 98.647 147.476 102.224 144.474 105.935C140.872 110.386 136.397 114.042 133.202 118.86C128.746 125.583 130.2 134.91 136.521 139.912C141.785 144.079 147.714 143.752 153.593 142.273C160.068 140.651 166.518 140.924 173.032 141.39C175.657 141.579 178.138 142.7 180.936 142.477L180.931 142.482ZM169.167 69.796C169.009 71.8253 169.381 73.785 169.773 75.7399C171.132 82.5073 176.605 87.0421 182.573 85.9952C187.49 85.1319 190.799 81.7482 192.868 77.4813C197.706 67.5336 193.9 54.4998 184.702 48.5262C179.805 45.3459 175.687 46.492 173.246 51.7611C170.596 57.4816 169.703 63.6041 169.162 69.7911L169.167 69.796ZM136.556 70.2723C136.531 74.2365 137.449 77.402 141.185 81.649C145.476 86.5261 152.507 88.1386 157.488 82.7752C161.244 78.7316 162.216 73.8297 162.271 68.7144C162.326 63.5098 161.06 58.4342 158.982 53.6712C155.657 46.0405 151.192 43.7433 144.464 50.1833C139.389 55.0456 136.432 61.2127 136.561 70.2773L136.556 70.2723ZM216.53 89.9743C216.54 84.348 215.131 79.2476 211.027 75.1941C208.775 72.9714 206.18 72.5893 203.888 74.2961C196.217 80.0018 192.228 87.6921 192.685 97.2627C193.082 105.558 200.574 109.756 207.366 105.677C213.225 102.165 216.435 96.9353 216.53 89.9743ZM114.978 87.9848C114.978 97.3124 118.372 103.256 125.968 106.526C129.5 108.049 133.534 107.111 135.866 104.11C138.788 100.354 139.478 96.2655 138.208 91.5422C136.531 85.2907 133.733 79.8281 128.965 75.4471C125.214 71.994 122.232 72.3214 119.176 76.3402C116.278 80.1506 114.7 84.3629 114.978 87.9897V87.9848Z" fill="#780E08"/>
<path d="M36.6029 372.032H38.1709C39.1416 372.032 39.9256 371.817 40.5229 371.388C41.1202 370.959 41.4189 370.165 41.4189 369.008C41.4189 368.429 41.3349 367.953 41.1669 367.58C41.0176 367.188 40.8029 366.88 40.5229 366.656C40.2616 366.413 39.9442 366.245 39.5709 366.152C39.1976 366.059 38.7869 366.012 38.3389 366.012H36.6029V372.032ZM36.6029 363.212H37.7509C38.8709 363.212 39.6829 363.016 40.1869 362.624C40.7096 362.213 40.9709 361.532 40.9709 360.58C40.9709 359.628 40.7376 358.956 40.2709 358.564C39.8042 358.172 39.0669 357.976 38.0589 357.976H36.6029V363.212ZM32.5709 355.008H39.3189C40.1402 355.008 40.8962 355.092 41.5869 355.26C42.2962 355.428 42.9029 355.708 43.4069 356.1C43.9109 356.492 44.3029 357.015 44.5829 357.668C44.8629 358.321 45.0029 359.124 45.0029 360.076C45.0029 361.159 44.7509 362.092 44.2469 362.876C43.7429 363.641 42.9869 364.164 41.9789 364.444V364.5C43.0989 364.649 43.9856 365.125 44.6389 365.928C45.2922 366.731 45.6189 367.804 45.6189 369.148C45.6189 369.932 45.5162 370.679 45.3109 371.388C45.1056 372.097 44.7509 372.723 44.2469 373.264C43.7616 373.787 43.1176 374.207 42.3149 374.524C41.5309 374.841 40.5509 375 39.3749 375H32.5709V355.008ZM51.7415 365.004C51.7415 366.348 51.7695 367.496 51.8255 368.448C51.9002 369.381 52.0308 370.147 52.2175 370.744C52.4228 371.323 52.7028 371.752 53.0575 372.032C53.4308 372.293 53.9162 372.424 54.5135 372.424C55.1108 372.424 55.5868 372.293 55.9415 372.032C56.3148 371.752 56.5948 371.323 56.7815 370.744C56.9868 370.147 57.1175 369.381 57.1735 368.448C57.2482 367.496 57.2855 366.348 57.2855 365.004C57.2855 363.66 57.2482 362.521 57.1735 361.588C57.1175 360.655 56.9868 359.889 56.7815 359.292C56.5948 358.695 56.3148 358.265 55.9415 358.004C55.5868 357.724 55.1108 357.584 54.5135 357.584C53.9162 357.584 53.4308 357.724 53.0575 358.004C52.7028 358.265 52.4228 358.695 52.2175 359.292C52.0308 359.889 51.9002 360.655 51.8255 361.588C51.7695 362.521 51.7415 363.66 51.7415 365.004ZM47.7095 365.004C47.7095 363.492 47.7748 362.101 47.9055 360.832C48.0548 359.544 48.3628 358.443 48.8295 357.528C49.3148 356.613 50.0055 355.904 50.9015 355.4C51.7975 354.877 53.0015 354.616 54.5135 354.616C56.0255 354.616 57.2295 354.877 58.1255 355.4C59.0215 355.904 59.7028 356.613 60.1695 357.528C60.6548 358.443 60.9628 359.544 61.0935 360.832C61.2428 362.101 61.3175 363.492 61.3175 365.004C61.3175 366.535 61.2428 367.935 61.0935 369.204C60.9628 370.473 60.6548 371.565 60.1695 372.48C59.7028 373.395 59.0215 374.095 58.1255 374.58C57.2295 375.065 56.0255 375.308 54.5135 375.308C53.0015 375.308 51.7975 375.065 50.9015 374.58C50.0055 374.095 49.3148 373.395 48.8295 372.48C48.3628 371.565 48.0548 370.473 47.9055 369.204C47.7748 367.935 47.7095 366.535 47.7095 365.004ZM63.6881 375V355.008H67.7201V371.696H74.8601V375H63.6881ZM76.845 375V355.008H80.877V375H76.845ZM92.7438 360.944C92.7438 360.571 92.6971 360.188 92.6038 359.796C92.5291 359.404 92.3984 359.049 92.2118 358.732C92.0251 358.396 91.7824 358.125 91.4838 357.92C91.2038 357.696 90.8584 357.584 90.4478 357.584C89.4771 357.584 88.7771 358.125 88.3478 359.208C87.9184 360.291 87.7038 362.083 87.7038 364.584C87.7038 365.779 87.7411 366.861 87.8158 367.832C87.8904 368.803 88.0211 369.633 88.2078 370.324C88.4131 370.996 88.6931 371.519 89.0478 371.892C89.4211 372.247 89.8971 372.424 90.4758 372.424C90.7184 372.424 90.9798 372.359 91.2598 372.228C91.5584 372.097 91.8291 371.901 92.0718 371.64C92.3331 371.379 92.5478 371.052 92.7158 370.66C92.8838 370.249 92.9678 369.773 92.9678 369.232V367.188H90.3078V364.22H96.8318V375H93.8638V373.152H93.8078C93.3224 373.936 92.7344 374.496 92.0438 374.832C91.3718 375.149 90.5598 375.308 89.6078 375.308C88.3758 375.308 87.3678 375.093 86.5838 374.664C85.8184 374.235 85.2118 373.572 84.7638 372.676C84.3344 371.78 84.0451 370.679 83.8958 369.372C83.7464 368.047 83.6718 366.516 83.6718 364.78C83.6718 363.1 83.7744 361.625 83.9798 360.356C84.2038 359.087 84.5771 358.032 85.0998 357.192C85.6224 356.333 86.3131 355.689 87.1718 355.26C88.0304 354.831 89.1038 354.616 90.3918 354.616C92.5944 354.616 94.1811 355.167 95.1518 356.268C96.1224 357.351 96.6078 358.909 96.6078 360.944H92.7438ZM99.4264 355.008H110.598V358.312H103.458V363.016H110.178V366.32H103.458V375H99.4264V355.008ZM115.999 365.004C115.999 366.348 116.027 367.496 116.083 368.448C116.158 369.381 116.289 370.147 116.475 370.744C116.681 371.323 116.961 371.752 117.315 372.032C117.689 372.293 118.174 372.424 118.771 372.424C119.369 372.424 119.845 372.293 120.199 372.032C120.573 371.752 120.853 371.323 121.039 370.744C121.245 370.147 121.375 369.381 121.431 368.448C121.506 367.496 121.543 366.348 121.543 365.004C121.543 363.66 121.506 362.521 121.431 361.588C121.375 360.655 121.245 359.889 121.039 359.292C120.853 358.695 120.573 358.265 120.199 358.004C119.845 357.724 119.369 357.584 118.771 357.584C118.174 357.584 117.689 357.724 117.315 358.004C116.961 358.265 116.681 358.695 116.475 359.292C116.289 359.889 116.158 360.655 116.083 361.588C116.027 362.521 115.999 363.66 115.999 365.004ZM111.967 365.004C111.967 363.492 112.033 362.101 112.163 360.832C112.313 359.544 112.621 358.443 113.087 357.528C113.573 356.613 114.263 355.904 115.159 355.4C116.055 354.877 117.259 354.616 118.771 354.616C120.283 354.616 121.487 354.877 122.383 355.4C123.279 355.904 123.961 356.613 124.427 357.528C124.913 358.443 125.221 359.544 125.351 360.832C125.501 362.101 125.575 363.492 125.575 365.004C125.575 366.535 125.501 367.935 125.351 369.204C125.221 370.473 124.913 371.565 124.427 372.48C123.961 373.395 123.279 374.095 122.383 374.58C121.487 375.065 120.283 375.308 118.771 375.308C117.259 375.308 116.055 375.065 115.159 374.58C114.263 374.095 113.573 373.395 113.087 372.48C112.621 371.565 112.313 370.473 112.163 369.204C112.033 367.935 111.967 366.535 111.967 365.004ZM127.946 355.008H135.394C137.074 355.008 138.381 355.437 139.314 356.296C140.247 357.136 140.714 358.424 140.714 360.16C140.714 361.504 140.443 362.605 139.902 363.464C139.361 364.304 138.521 364.845 137.382 365.088V365.144C138.39 365.293 139.127 365.62 139.594 366.124C140.061 366.628 140.35 367.44 140.462 368.56C140.499 368.933 140.527 369.344 140.546 369.792C140.565 370.221 140.583 370.707 140.602 371.248C140.639 372.312 140.695 373.124 140.77 373.684C140.882 374.244 141.125 374.627 141.498 374.832V375H137.13C136.925 374.72 136.794 374.403 136.738 374.048C136.682 373.675 136.645 373.292 136.626 372.9L136.514 369.064C136.477 368.28 136.281 367.664 135.926 367.216C135.571 366.768 134.974 366.544 134.134 366.544H131.978V375H127.946V355.008ZM131.978 363.744H133.658C134.629 363.744 135.375 363.52 135.898 363.072C136.421 362.605 136.682 361.831 136.682 360.748C136.682 358.9 135.749 357.976 133.882 357.976H131.978V363.744ZM143.504 355.008H147.536V362.652H152.24V355.008H156.272V375H152.24V366.124H147.536V375H143.504V355.008ZM162.675 365.004C162.675 366.348 162.703 367.496 162.759 368.448C162.834 369.381 162.964 370.147 163.151 370.744C163.356 371.323 163.636 371.752 163.991 372.032C164.364 372.293 164.85 372.424 165.447 372.424C166.044 372.424 166.52 372.293 166.875 372.032C167.248 371.752 167.528 371.323 167.715 370.744C167.92 370.147 168.051 369.381 168.107 368.448C168.182 367.496 168.219 366.348 168.219 365.004C168.219 363.66 168.182 362.521 168.107 361.588C168.051 360.655 167.92 359.889 167.715 359.292C167.528 358.695 167.248 358.265 166.875 358.004C166.52 357.724 166.044 357.584 165.447 357.584C164.85 357.584 164.364 357.724 163.991 358.004C163.636 358.265 163.356 358.695 163.151 359.292C162.964 359.889 162.834 360.655 162.759 361.588C162.703 362.521 162.675 363.66 162.675 365.004ZM158.643 365.004C158.643 363.492 158.708 362.101 158.839 360.832C158.988 359.544 159.296 358.443 159.763 357.528C160.248 356.613 160.939 355.904 161.835 355.4C162.731 354.877 163.935 354.616 165.447 354.616C166.959 354.616 168.163 354.877 169.059 355.4C169.955 355.904 170.636 356.613 171.103 357.528C171.588 358.443 171.896 359.544 172.027 360.832C172.176 362.101 172.251 363.492 172.251 365.004C172.251 366.535 172.176 367.935 172.027 369.204C171.896 370.473 171.588 371.565 171.103 372.48C170.636 373.395 169.955 374.095 169.059 374.58C168.163 375.065 166.959 375.308 165.447 375.308C163.935 375.308 162.731 375.065 161.835 374.58C160.939 374.095 160.248 373.395 159.763 372.48C159.296 371.565 158.988 370.473 158.839 369.204C158.708 367.935 158.643 366.535 158.643 365.004ZM174.622 375V355.008H178.654V371.696H185.794V375H174.622ZM191.811 372.032H193.603C194.312 372.032 194.881 371.911 195.311 371.668C195.74 371.425 196.076 371.024 196.319 370.464C196.58 369.904 196.748 369.167 196.823 368.252C196.916 367.337 196.963 366.199 196.963 364.836C196.963 363.697 196.925 362.699 196.851 361.84C196.776 360.981 196.617 360.272 196.375 359.712C196.151 359.133 195.805 358.704 195.339 358.424C194.891 358.125 194.284 357.976 193.519 357.976H191.811V372.032ZM187.779 355.008H194.387C195.787 355.008 196.916 355.241 197.775 355.708C198.633 356.156 199.296 356.809 199.763 357.668C200.248 358.508 200.575 359.525 200.743 360.72C200.911 361.915 200.995 363.249 200.995 364.724C200.995 366.479 200.883 368.009 200.659 369.316C200.453 370.604 200.089 371.668 199.567 372.508C199.044 373.348 198.344 373.973 197.467 374.384C196.589 374.795 195.479 375 194.135 375H187.779V355.008ZM213.999 365.004C213.999 366.348 214.027 367.496 214.083 368.448C214.158 369.381 214.289 370.147 214.475 370.744C214.681 371.323 214.961 371.752 215.315 372.032C215.689 372.293 216.174 372.424 216.771 372.424C217.369 372.424 217.845 372.293 218.199 372.032C218.573 371.752 218.853 371.323 219.039 370.744C219.245 370.147 219.375 369.381 219.431 368.448C219.506 367.496 219.543 366.348 219.543 365.004C219.543 363.66 219.506 362.521 219.431 361.588C219.375 360.655 219.245 359.889 219.039 359.292C218.853 358.695 218.573 358.265 218.199 358.004C217.845 357.724 217.369 357.584 216.771 357.584C216.174 357.584 215.689 357.724 215.315 358.004C214.961 358.265 214.681 358.695 214.475 359.292C214.289 359.889 214.158 360.655 214.083 361.588C214.027 362.521 213.999 363.66 213.999 365.004ZM209.967 365.004C209.967 363.492 210.033 362.101 210.163 360.832C210.313 359.544 210.621 358.443 211.087 357.528C211.573 356.613 212.263 355.904 213.159 355.4C214.055 354.877 215.259 354.616 216.771 354.616C218.283 354.616 219.487 354.877 220.383 355.4C221.279 355.904 221.961 356.613 222.427 357.528C222.913 358.443 223.221 359.544 223.351 360.832C223.501 362.101 223.575 363.492 223.575 365.004C223.575 366.535 223.501 367.935 223.351 369.204C223.221 370.473 222.913 371.565 222.427 372.48C221.961 373.395 221.279 374.095 220.383 374.58C219.487 375.065 218.283 375.308 216.771 375.308C215.259 375.308 214.055 375.065 213.159 374.58C212.263 374.095 211.573 373.395 211.087 372.48C210.621 371.565 210.313 370.473 210.163 369.204C210.033 367.935 209.967 366.535 209.967 365.004ZM234.822 360.944C234.822 360.571 234.775 360.188 234.682 359.796C234.607 359.404 234.477 359.049 234.29 358.732C234.103 358.396 233.861 358.125 233.562 357.92C233.282 357.696 232.937 357.584 232.526 357.584C231.555 357.584 230.855 358.125 230.426 359.208C229.997 360.291 229.782 362.083 229.782 364.584C229.782 365.779 229.819 366.861 229.894 367.832C229.969 368.803 230.099 369.633 230.286 370.324C230.491 370.996 230.771 371.519 231.126 371.892C231.499 372.247 231.975 372.424 232.554 372.424C232.797 372.424 233.058 372.359 233.338 372.228C233.637 372.097 233.907 371.901 234.15 371.64C234.411 371.379 234.626 371.052 234.794 370.66C234.962 370.249 235.046 369.773 235.046 369.232V367.188H232.386V364.22H238.91V375H235.942V373.152H235.886C235.401 373.936 234.813 374.496 234.122 374.832C233.45 375.149 232.638 375.308 231.686 375.308C230.454 375.308 229.446 375.093 228.662 374.664C227.897 374.235 227.29 373.572 226.842 372.676C226.413 371.78 226.123 370.679 225.974 369.372C225.825 368.047 225.75 366.516 225.75 364.78C225.75 363.1 225.853 361.625 226.058 360.356C226.282 359.087 226.655 358.032 227.178 357.192C227.701 356.333 228.391 355.689 229.25 355.26C230.109 354.831 231.182 354.616 232.47 354.616C234.673 354.616 236.259 355.167 237.23 356.268C238.201 357.351 238.686 358.909 238.686 360.944H234.822ZM248.231 355.008H255.679C257.359 355.008 258.666 355.437 259.599 356.296C260.532 357.136 260.999 358.424 260.999 360.16C260.999 361.504 260.728 362.605 260.187 363.464C259.646 364.304 258.806 364.845 257.667 365.088V365.144C258.675 365.293 259.412 365.62 259.879 366.124C260.346 366.628 260.635 367.44 260.747 368.56C260.784 368.933 260.812 369.344 260.831 369.792C260.85 370.221 260.868 370.707 260.887 371.248C260.924 372.312 260.98 373.124 261.055 373.684C261.167 374.244 261.41 374.627 261.783 374.832V375H257.415C257.21 374.72 257.079 374.403 257.023 374.048C256.967 373.675 256.93 373.292 256.911 372.9L256.799 369.064C256.762 368.28 256.566 367.664 256.211 367.216C255.856 366.768 255.259 366.544 254.419 366.544H252.263V375H248.231V355.008ZM252.263 363.744H253.943C254.914 363.744 255.66 363.52 256.183 363.072C256.706 362.605 256.967 361.831 256.967 360.748C256.967 358.9 256.034 357.976 254.167 357.976H252.263V363.744ZM268.117 355.008V368.952C268.117 369.456 268.145 369.923 268.201 370.352C268.275 370.763 268.397 371.127 268.565 371.444C268.751 371.743 268.994 371.985 269.293 372.172C269.61 372.34 270.002 372.424 270.469 372.424C270.954 372.424 271.346 372.34 271.645 372.172C271.943 371.985 272.177 371.743 272.345 371.444C272.531 371.127 272.653 370.763 272.709 370.352C272.783 369.923 272.821 369.456 272.821 368.952V355.008H276.853V368.952C276.853 370.221 276.675 371.276 276.321 372.116C275.966 372.937 275.49 373.591 274.893 374.076C274.295 374.561 273.614 374.888 272.849 375.056C272.083 375.224 271.29 375.308 270.469 375.308C269.647 375.308 268.854 375.233 268.089 375.084C267.323 374.935 266.642 374.636 266.045 374.188C265.447 373.721 264.971 373.068 264.617 372.228C264.262 371.388 264.085 370.296 264.085 368.952V355.008H268.117ZM279.487 355.008H285.479L288.335 369.12H288.391L291.275 355.008H297.239V375H293.543V359.04H293.487L289.931 375H286.795L283.239 359.04H283.183V375H279.487V355.008Z" fill="#780E08"/>
</svg>
