<svg width="476" height="433" viewBox="0 0 476 433" fill="none" xmlns="http://www.w3.org/2000/svg">
<path d="M6.60249 86.8838C6.60249 109.8 6.61772 132.717 6.58877 155.631C6.58419 159.716 6.78379 163.772 7.12205 167.82C7.22261 169.017 7.12967 170.146 6.93921 171.309C6.75333 172.447 6.53238 173.652 6.61923 174.786C7.3643 184.428 6.23071 194.043 6.47754 203.691C6.72437 213.372 6.84931 223.096 6.46992 232.759C4.85789 273.721 5.85131 314.726 5.13519 355.691C4.93102 367.327 4.89599 378.987 4.5425 390.624C4.24234 400.491 5.7203 410.229 5.54661 420.098C5.50395 422.542 5.06512 423.126 3.47442 422.893C2.63488 422.769 1.76944 422.91 0.919239 423.008C0.439287 423.065 0.0157054 423.373 0.000468786 424.167C-0.0162915 425 0.425561 425.315 0.905513 425.265C2.09092 425.139 2.84058 425.796 3.4409 427.213C3.95742 428.433 4.95846 428.469 5.9077 428.469C9.06319 428.466 12.2187 428.404 15.3712 428.525C32.782 429.197 50.1959 429.077 67.6082 428.991C71.4646 428.972 75.3667 428.269 79.1652 429.134C87.4006 431.009 95.6679 429.877 103.915 430.123C116.856 430.509 129.804 430.44 142.746 430.788C184.674 431.918 226.604 430.759 268.532 431.254C273.461 431.313 278.393 431.418 283.319 431.242C285.458 431.164 287.384 432.678 289.525 432.323C290.753 432.119 292.022 432.447 293.192 431.584C293.459 431.387 293.861 431.307 294.146 431.424C298.159 433.077 302.154 432.525 306.164 431.397C306.925 431.183 307.737 431.313 308.526 431.313C329.821 431.269 351.12 431.563 372.41 431.112C404.613 430.431 436.814 430.927 469.016 430.65C470.067 430.641 471.119 430.639 472.17 430.61C475.073 430.528 475.47 430.016 475.484 426.017C475.546 407.538 475.391 389.055 475.711 370.585C475.932 357.813 475.44 345.053 475.691 332.3C476.112 311.016 476.049 289.731 475.821 268.456C475.522 240.663 474.664 212.859 475.298 185.077C475.827 161.898 475.886 138.731 475.903 115.557C475.918 95.9194 476.063 76.2779 475.841 56.6448C475.647 39.6212 475.67 22.5997 475.603 5.57817C475.586 1.75316 474.763 0.573331 472.156 0.564933C450.142 0.501953 428.13 -0.35668 406.115 0.170256C401.123 0.289919 396.112 0.0925802 391.149 0.669901C389.07 0.911326 387.194 1.3039 385.034 0.732881C382.623 0.0967789 379.932 -0.0417782 377.476 1.48655C377.142 1.69438 376.676 1.70488 376.312 1.58312C370.277 -0.442753 364.097 0.15766 358.092 0.877736C346.538 2.26331 335.003 1.12966 323.467 1.6377C319.403 1.81614 315.346 1.76786 311.273 2.13315C305.934 2.6139 300.544 2.10795 295.228 0.854643C294.393 0.657305 293.524 0.684596 292.672 0.684596C279.855 0.684596 267.019 0.0379971 254.227 0.83155C208.391 3.67197 162.535 1.41937 116.694 2.2948C104.735 2.52362 92.7699 2.43125 80.8092 2.2654C78.216 2.22972 75.7537 3.08835 73.2138 3.34447C69.8831 3.68036 66.5417 3.34447 63.2064 3.5691C57.7867 3.93019 52.2467 3.60269 46.76 2.6139C43.0484 1.9442 39.2332 2.32419 35.4118 2.98968C30.2969 3.8777 25.0784 4.39414 19.8888 3.69086C16.6068 3.2458 13.3218 3.37806 10.0414 3.43684C7.43899 3.48303 7.02454 4.222 6.90112 7.82868C6.25814 26.6577 6.74572 45.4973 6.61012 64.3305C6.55679 71.8483 6.60097 79.366 6.60097 86.8838H6.60249ZM446.627 196.384C447.475 195.634 447.846 194.595 448.313 193.615C449.542 191.024 449.851 187.869 451.13 185.299C452.841 181.858 452.795 181.82 454.415 185.245C454.665 185.774 454.881 186.399 455.233 186.758C456.169 187.715 457.316 188.795 458.407 188.093C461.14 186.34 462.28 182.4 464.09 179.389C464.46 178.774 464.093 177.634 463.865 176.776C463.73 176.272 463.52 175.785 463.476 175.266C463.42 174.624 463.759 174.296 464.2 174.221C464.648 174.145 464.834 174.622 464.788 175.056C464.536 177.414 465.754 179.356 465.857 181.44C466.141 187.176 466.051 192.926 466.746 198.653C467.119 201.739 466.753 204.983 466.842 208.148C467.402 228.229 466.182 248.259 465.935 268.316C465.806 278.808 466.991 289.2 466.785 299.657C466.47 315.643 467.474 331.647 466.118 347.629C465.464 355.338 466.209 363.112 466.756 370.846C467.105 375.788 466.586 380.801 467.043 385.766C467.139 386.809 466.903 387.804 466.458 388.579C465.068 390.993 464.011 393.598 462.132 395.702C460.09 397.986 458.407 401.034 456.233 403.35C454.951 404.714 453.399 405.833 452.426 407.444C450.947 409.891 449.067 411.743 447.663 414.245C445.963 417.281 443.368 418.946 441.54 421.805C440.656 423.187 439.366 423.665 438.115 423.392C436.422 423.023 434.729 423.3 433.033 423.071C431.569 422.874 430.076 422.511 428.54 422.784C424.443 423.512 420.312 423.894 416.197 423.178C414.525 422.886 412.907 424.448 411.213 423.212C410.913 422.993 410.273 423.695 409.779 423.934C409.292 424.171 408.8 424.484 408.294 424.549C403.444 425.185 398.605 424.148 393.746 424.268C391.898 424.312 389.816 424.954 387.928 423.615C387.503 423.313 386.757 423.659 386.214 423.924C381.494 426.222 376.714 425.047 372.014 424.087C369.539 423.581 367.079 423.231 364.621 423.331C358.578 423.581 352.535 423.592 346.497 423.355C344.554 423.279 342.63 422.525 340.64 422.756C334.773 423.436 328.887 423.489 323.013 424.39C316.291 425.42 309.579 423.907 302.885 422.687C298.925 421.965 294.885 421.908 290.911 422.777C288.894 423.218 286.974 423.172 285.149 421.965C283.872 421.119 282.473 420.848 281.33 421.614C277.45 424.217 273.357 423.308 269.316 423.502C268.097 423.56 267.179 422.045 265.906 422.574C261.777 424.291 257.586 423.434 253.399 423.145C247.5 422.735 241.61 422.832 235.781 424.413C235.138 424.587 234.222 424.923 233.905 424.194C232.847 421.767 231.181 422.601 229.692 422.301C227.184 421.795 224.696 421.049 222.189 422.301C221.959 422.414 221.655 422.364 221.408 422.269C216.302 420.317 211.091 421.593 205.932 421.327C205.414 421.299 204.788 421.249 204.389 421.595C203.18 422.641 202.111 421.713 200.991 421.4C200.665 421.308 200.31 421.211 200.267 420.657C200.221 420.061 200.424 419.511 200.835 419.372C202.252 418.889 202.722 416.956 203.749 415.889C204.081 415.545 204.386 415.165 204.235 414.55C204.063 413.845 203.59 413.666 203.116 413.67C201.935 413.683 200.733 413.567 199.575 413.817C195.001 414.8 190.63 417.057 185.99 417.821C184.488 418.068 182.186 418.434 181.817 421.83C181.75 422.45 181.031 422.76 180.648 422.475C179.139 421.346 177.316 422.721 175.826 421.112C175.055 420.281 173.934 420.695 172.943 420.831C168.855 421.394 164.761 422.317 160.67 422.311C155.854 422.303 151.05 422.63 146.185 421.505C141.772 420.485 137.142 421.249 132.606 421.243C122.568 421.228 112.527 421.085 102.491 421.27C96.6096 421.377 90.7358 420.821 84.8271 422.112C81.2617 422.891 77.4846 422.177 73.8004 422.336C65.9886 422.676 58.1631 421.938 50.3574 422.891C49.7068 422.97 49.009 423.056 48.3949 422.826C46.3136 422.04 44.2125 422.378 42.1189 422.24C39.7451 422.08 37.3393 422.286 34.909 421.404C31.717 420.245 28.339 421.547 25.0601 421.83C23.6873 421.948 22.5902 420.709 21.2905 421.251C18.9776 422.215 16.6556 420.884 14.3366 421.276C13.1009 421.486 12.5844 420.707 12.4533 418.996C12.0526 413.752 12.3421 408.497 12.2705 403.251C12.2278 400.136 13.0521 399.546 15.01 401.263C15.7551 401.916 16.3707 402.435 17.1112 401.565C17.8273 400.726 17.7115 399.556 17.4006 398.551C16.9298 397.027 16.7622 395.44 16.5444 393.834C15.9227 389.253 15.5783 384.51 13.1344 380.828C12.8129 380.343 12.6956 379.749 12.6621 379.088C12.3162 372.158 11.7677 365.232 12.2477 358.279C12.3863 356.27 11.3944 354.716 11.4051 352.772C11.4294 347.7 11.3594 342.628 11.3396 337.556C11.3304 335.329 11.0729 333.045 12.5158 331.265C13.0049 330.662 12.9058 329.583 12.8647 328.666C12.3756 317.459 12.1669 306.24 12.2949 295.017C12.467 279.902 13.0369 264.797 12.8876 249.673C12.851 245.888 12.6179 242.122 12.8464 238.318C12.9805 236.095 13.3218 234.684 15.0131 233.826C16.8582 232.887 18.871 232.119 19.9482 229.314C21.0605 226.413 20.3901 224.066 18.0315 223.547C16.9999 223.32 15.9257 223.484 14.8866 223.297C13.3447 223.018 12.6392 221.742 13.1755 219.659C14.1156 216.006 14.2695 212.034 14.6047 208.369C15.3209 200.538 15.6027 192.536 15.2919 184.539C15.0969 179.538 15.0588 174.502 15.4428 169.428C15.8846 163.583 16.1848 157.531 14.1918 151.903C13.9389 151.189 13.5824 150.183 13.9328 149.562C15.5555 146.679 14.5849 143.199 15.2127 140.106C15.3376 139.493 15.4732 138.715 15.0314 138.345C13.8353 137.342 14.6108 136.693 15.1548 135.897C15.6027 135.24 16.0035 134.514 16.3859 133.781C17.9812 130.729 17.9583 130.233 15.5418 128.161C14.0943 126.92 13.6662 125.102 14.3137 123.318C15.7338 119.411 14.2939 115.17 15.3193 111.274C15.4138 110.915 15.3117 110.273 15.1228 109.983C13.1755 106.985 14.5697 103.546 14.7663 100.538C15.3727 91.2546 15.9593 82.0028 15.17 72.7153C14.4615 64.3851 15.3392 55.9793 13.9633 47.6008C13.4133 44.2524 13.8597 40.0579 14.0745 36.4113C14.4783 29.5674 12.5509 22.1777 15.9364 15.8482C15.3986 12.506 17.4205 12.7265 18.7018 12.4115C20.6948 11.9245 22.7502 11.9203 24.7782 11.7041C27.7798 11.385 30.8241 11.3745 33.7663 10.6187C35.4789 10.1799 37.2265 9.60892 38.7989 10.2534C41.2825 11.2716 43.7782 11.2968 46.2054 10.8748C48.4284 10.4885 50.4732 9.64671 52.169 12.485C52.3854 12.8461 52.8806 13.0456 53.2508 13.054C55.5485 13.1001 57.9224 13.5809 60.1286 12.9595C64.6859 11.6768 69.3833 11.83 73.8857 10.1422C74.4449 9.93222 75.097 9.9826 75.577 10.5704C76.6115 11.8363 77.8579 11.809 79.1149 11.7692C86.7347 11.5256 94.353 11.2821 101.973 11.0323C102.366 11.0197 102.765 11.005 103.151 10.9021C108.747 9.40948 114.477 8.59284 120.094 8.62223C150.159 8.77758 180.237 7.1023 210.291 9.39269C212.593 9.56693 214.839 8.73769 217.096 8.52146C228.342 7.44659 239.625 7.66493 250.888 6.37173C260.026 5.32205 269.263 5.71673 278.457 5.77131C296.59 5.87838 314.723 5.78181 332.857 6.01484C342.569 6.1408 352.302 5.90147 362.025 5.73143C365.177 5.67684 368.305 6.43891 371.471 6.11981C380.752 5.1835 390.101 6.60266 399.353 4.63977C401.378 4.2094 403.192 5.63906 405.144 5.71253C408.851 5.84899 412.504 5.55508 416.227 4.99875C421.978 4.14012 427.87 3.62368 433.722 4.34796C437.156 4.77203 440.617 5.58657 443.976 5.85529C447.83 6.16179 451.986 6.80629 455.852 4.73004C456.191 4.5474 456.699 4.5369 457.013 4.75943C458.836 6.04003 460.861 5.75662 462.783 6.25416C463.88 6.53758 464.398 7.26395 464.896 8.64532C465.696 10.8664 464.425 12.6215 464.553 14.6579C465.314 26.8488 464.197 39.0586 464.77 51.2726C465.074 57.7574 464.719 64.2927 464.402 70.807C463.814 82.9307 464.869 95.0398 464.803 107.163C464.799 107.961 464.997 108.757 465.073 109.559C465.533 114.379 468.166 119.249 464.911 123.998C464.834 124.112 464.837 124.34 464.817 124.519C464.255 129.522 462.249 133.771 460.768 138.228C457.907 146.837 455.024 155.459 452.751 164.356C450.24 174.183 448.511 184.39 446.443 194.433C446.32 195.036 446.149 195.655 446.626 196.4L446.627 196.384ZM184.285 422.011C190.299 419.389 192.896 418.923 194.924 420.084C191.267 421.841 187.804 422.265 184.285 422.011Z" fill="#780E08"/>
<path d="M145.948 189.56L142.108 199.32C141.575 200.813 141.095 202.36 140.668 203.96C140.241 205.56 139.788 206.947 139.308 208.12C138.828 209.347 138.081 210.307 137.068 211C136.108 211.693 135.015 212.2 133.788 212.52C132.561 212.893 131.281 213.053 129.948 213C128.668 212.947 127.521 212.707 126.508 212.28C124.215 211.213 123.415 209.453 124.108 207C126.561 196.227 128.855 187.587 130.988 181.08C133.175 174.573 134.961 169.453 136.348 165.72C137.788 161.987 139.281 158.04 140.828 153.88C140.988 152.333 141.628 150.947 142.748 149.72C143.868 148.493 145.175 147.48 146.668 146.68C148.215 145.88 149.815 145.32 151.468 145C153.121 144.627 154.588 144.573 155.868 144.84C157.148 145.107 158.081 145.693 158.668 146.6C159.308 147.507 159.361 148.813 158.828 150.52C156.908 155.427 155.548 158.893 154.748 160.92C153.948 162.947 153.228 164.76 152.588 166.36L150.348 171.64C151.468 171.693 152.881 171.533 154.588 171.16C157.681 170.467 159.921 170.227 161.308 170.44C161.308 170.173 161.441 169.72 161.708 169.08C163.201 162.573 164.881 156.6 166.748 151.16C168.081 146.68 171.521 144.333 177.068 144.12C179.255 144.12 180.908 144.653 182.028 145.72C183.255 146.84 183.415 148.36 182.508 150.28C177.601 164.04 174.135 174.893 172.108 182.84C169.815 192.013 168.295 198.2 167.548 201.4C166.855 204.6 166.241 206.493 165.708 207.08C165.175 207.667 164.615 208.067 164.028 208.28C163.495 208.547 162.961 208.787 162.428 209C161.895 209.213 161.468 209.747 161.148 210.6H160.908C160.481 211.56 159.548 212.307 158.108 212.84C156.668 213.373 155.201 213.56 153.708 213.4C152.268 213.293 151.041 212.76 150.028 211.8C149.068 210.893 148.828 209.48 149.308 207.56C149.841 204.52 150.721 201.267 151.948 197.8C153.175 194.28 154.135 191.533 154.828 189.56C155.575 187.587 156.188 185.747 156.668 184.04C156.241 184.253 155.815 184.413 155.388 184.52C155.015 184.627 154.535 184.84 153.948 185.16C153.361 185.427 152.748 185.667 152.108 185.88C151.521 186.093 150.935 186.307 150.348 186.52C148.855 187.107 147.628 187.693 146.668 188.28L145.948 189.56ZM154.988 184.2C155.041 184.2 155.308 184.12 155.788 183.96C155.468 184.067 155.201 184.147 154.988 184.2ZM183.459 176.68C182.553 168.947 182.179 162.653 182.339 157.8C182.233 155.507 183.166 153.32 185.139 151.24C187.006 149.267 188.953 148.173 190.979 147.96C193.219 147.8 194.659 149.053 195.299 151.72C195.726 153.213 196.259 154.947 196.899 156.92C197.539 158.893 198.153 160.973 198.739 163.16C199.326 162.36 200.259 160.947 201.539 158.92C202.819 156.893 204.019 155.08 205.139 153.48C207.859 149.587 210.259 146.867 212.339 145.32C214.366 144.52 216.099 144.307 217.539 144.68C219.033 145 220.099 145.533 220.739 146.28C221.433 147.027 221.699 148.12 221.539 149.56C221.433 152.92 218.873 158.2 213.859 165.4C212.686 167.053 211.486 168.973 210.259 171.16C209.086 173.347 207.699 175.8 206.099 178.52C204.553 181.187 203.059 183.853 201.619 186.52C198.313 192.547 195.726 198.28 193.859 203.72C193.913 203.613 194.126 203.747 194.499 204.12C194.873 204.44 195.219 204.92 195.539 205.56C196.393 207.16 196.313 208.493 195.299 209.56C192.739 212.227 189.566 213.72 185.779 214.04C182.313 214.307 179.326 213.667 176.819 212.12C174.313 210.68 173.486 208.893 174.339 206.76H174.099C175.273 203.72 176.606 200.867 178.099 198.2C179.593 195.48 181.139 192.68 182.739 189.8L186.339 183.4C185.433 183.613 184.686 182.973 184.099 181.48C183.673 180.253 183.459 178.653 183.459 176.68ZM227.156 207.24C226.676 209.373 225.023 210.68 222.196 211.16C219.583 211.64 217.103 211.347 214.756 210.28C212.143 209.16 210.996 207.587 211.316 205.56C210.996 202.467 212.623 195.747 216.196 185.4C221.53 169.88 226.863 158.787 232.196 152.12C233.583 150.413 234.756 149.32 235.716 148.84C236.73 148.307 237.876 147.827 239.156 147.4C240.436 146.973 241.77 146.573 243.156 146.2C245.93 145.453 248.543 144.947 250.996 144.68C253.503 144.36 255.743 144.653 257.716 145.56C259.69 146.413 261.21 147.693 262.276 149.4C263.396 151.107 264.09 153.133 264.356 155.48C264.623 157.773 264.543 160.2 264.116 162.76C263.69 165.267 262.916 167.827 261.796 170.44C260.676 173 259.263 175.4 257.556 177.64C253.823 182.547 249.45 185.72 244.436 187.16L245.236 188.52C245.93 189.587 246.756 190.76 247.716 192.04C248.73 193.32 249.716 194.627 250.676 195.96C251.69 197.293 252.596 198.627 253.396 199.96C254.196 201.293 254.783 202.547 255.156 203.72C256.01 206.333 255.343 208.227 253.156 209.4C251.396 210.467 250.01 210.733 248.996 210.2C248.57 209.933 248.143 209.587 247.716 209.16C247.29 208.787 246.703 208.467 245.956 208.2C242.81 209.107 240.41 208.307 238.756 205.8C237.743 204.2 236.97 202.733 236.436 201.4C235.903 200.067 235.45 198.947 235.076 198.04C234.116 196.067 233.023 194.36 231.796 192.92C231.21 194.36 230.543 196.2 229.796 198.44C228.89 201.267 227.876 204.2 226.756 207.24H227.156ZM243.316 160.68C242.303 162.973 241.61 164.573 241.236 165.48C240.49 167.293 239.663 169.293 238.756 171.48C238.596 172.653 238.463 173.48 238.356 173.96L239.476 172.84L240.836 172.2C241.796 171.667 242.676 171.187 243.476 170.76C244.276 170.333 244.996 169.8 245.636 169.16C246.863 167.933 247.93 165.933 248.836 163.16C248.836 162.627 248.916 162.093 249.076 161.56C249.29 161.027 249.423 160.493 249.476 159.96C249.69 158.787 249.21 157.96 248.036 157.48C246.97 157.373 245.636 158.253 244.036 160.12C243.716 160.493 243.476 160.68 243.316 160.68ZM309.479 174.52C309.265 176.813 308.839 179.16 308.199 181.56C307.612 183.96 306.732 186.307 305.559 188.6C304.439 190.893 303.079 193.107 301.479 195.24C299.932 197.373 298.199 199.347 296.279 201.16C294.359 202.973 292.305 204.493 290.119 205.72C285.425 208.493 280.892 209.48 276.519 208.68C275.559 210.76 274.119 212.067 272.199 212.6C270.332 213.187 268.465 213.187 266.599 212.6C264.785 212.067 263.185 211.027 261.799 209.48C260.412 207.933 259.719 205.827 259.719 203.16C259.719 200.44 259.905 197.667 260.279 194.84C260.652 192.013 261.159 189.293 261.799 186.68C262.812 182.36 264.065 178.307 265.559 174.52C269.079 165.933 271.079 159.907 271.559 156.44C272.252 151.8 273.532 148.92 275.399 147.8C278.492 145.987 281.425 145.213 284.199 145.48C286.972 145.747 289.479 146.413 291.719 147.48C295.399 149.24 299.372 152.2 303.639 156.36C308.332 160.893 310.279 166.947 309.479 174.52ZM278.039 198.52C280.759 197.133 282.945 195.72 284.599 194.28C286.305 192.787 287.905 191.427 289.399 190.2C291.692 187.907 293.372 185.187 294.439 182.04C296.785 175.107 295.292 169.853 289.959 166.28C289.159 165.693 287.959 164.893 286.359 163.88C285.612 165.587 285.052 167.373 284.679 169.24C284.359 171.107 283.905 172.92 283.319 174.68L281.159 181.72L279.399 189.32C279.292 190.387 279.132 191.427 278.919 192.44C278.705 193.4 278.519 194.413 278.359 195.48L278.039 198.52ZM325.299 196.92C328.392 197.24 330.685 197.4 332.179 197.4C333.725 197.4 336.045 197.187 339.139 196.76C340.099 197.08 340.659 197.48 340.819 197.96C340.979 198.44 341.032 198.947 340.979 199.48C340.925 199.96 340.952 200.44 341.059 200.92C341.165 201.4 341.672 201.8 342.579 202.12C343.059 202.28 343.192 202.76 342.979 203.56C342.819 204.307 342.392 205.133 341.699 206.04C339.939 208.333 337.859 209.933 335.459 210.84C331.619 211.8 328.605 212.36 326.419 212.52C322.792 212.787 318.845 212.653 314.579 212.12C309.885 211.267 307.619 209.32 307.779 206.28C307.779 195.08 310.232 183.827 315.139 172.52C316.739 168.84 318.552 164.973 320.579 160.92C321.005 160.067 321.245 159.107 321.299 158.04C321.405 156.973 321.485 155.933 321.539 154.92C321.592 153.907 321.752 153 322.019 152.2C322.285 151.4 322.845 150.84 323.699 150.52C334.792 146.093 343.565 144.387 350.019 145.4C352.259 145.453 353.725 146.227 354.419 147.72C355.165 149.16 355.245 150.787 354.659 152.6C354.125 154.413 353.032 156.12 351.379 157.72C349.779 159.32 347.752 160.307 345.299 160.68C342.152 161.587 340.232 162.2 339.539 162.52C338.205 163.16 337.245 164.013 336.659 165.08C335.912 166.253 335.219 167.373 334.579 168.44C333.939 169.507 333.485 170.653 333.219 171.88L332.899 173.64C333.912 174.12 335.139 174.28 336.579 174.12C338.072 173.907 339.432 173.72 340.659 173.56C341.939 173.347 342.952 173.32 343.699 173.48C344.499 173.64 344.659 174.44 344.179 175.88C343.752 177.267 342.925 178.84 341.699 180.6C340.525 182.36 338.845 183.64 336.659 184.44C335.272 184.707 334.312 184.92 333.779 185.08C333.299 185.187 332.925 185.267 332.659 185.32C332.285 185.373 331.219 185.453 329.459 185.56C326.952 189.827 325.432 193.133 324.899 195.48C324.685 196.44 324.819 196.92 325.299 196.92ZM136.3 269.56L132.46 279.32C131.926 280.813 131.446 282.36 131.02 283.96C130.593 285.56 130.14 286.947 129.66 288.12C129.18 289.347 128.433 290.307 127.42 291C126.46 291.693 125.366 292.2 124.14 292.52C122.913 292.893 121.633 293.053 120.3 293C119.02 292.947 117.873 292.707 116.86 292.28C114.566 291.213 113.766 289.453 114.46 287C116.913 276.227 119.206 267.587 121.34 261.08C123.526 254.573 125.313 249.453 126.7 245.72C128.14 241.987 129.633 238.04 131.18 233.88C131.34 232.333 131.98 230.947 133.1 229.72C134.22 228.493 135.526 227.48 137.02 226.68C138.566 225.88 140.166 225.32 141.82 225C143.473 224.627 144.94 224.573 146.22 224.84C147.5 225.107 148.433 225.693 149.02 226.6C149.66 227.507 149.713 228.813 149.18 230.52C147.26 235.427 145.9 238.893 145.1 240.92C144.3 242.947 143.58 244.76 142.94 246.36L140.7 251.64C141.82 251.693 143.233 251.533 144.94 251.16C148.033 250.467 150.273 250.227 151.66 250.44C151.66 250.173 151.793 249.72 152.06 249.08C153.553 242.573 155.233 236.6 157.1 231.16C158.433 226.68 161.873 224.333 167.42 224.12C169.606 224.12 171.26 224.653 172.38 225.72C173.606 226.84 173.766 228.36 172.86 230.28C167.953 244.04 164.486 254.893 162.46 262.84C160.166 272.013 158.646 278.2 157.9 281.4C157.206 284.6 156.593 286.493 156.06 287.08C155.526 287.667 154.966 288.067 154.38 288.28C153.846 288.547 153.313 288.787 152.78 289C152.246 289.213 151.82 289.747 151.5 290.6H151.26C150.833 291.56 149.9 292.307 148.46 292.84C147.02 293.373 145.553 293.56 144.06 293.4C142.62 293.293 141.393 292.76 140.38 291.8C139.42 290.893 139.18 289.48 139.66 287.56C140.193 284.52 141.073 281.267 142.3 277.8C143.526 274.28 144.486 271.533 145.18 269.56C145.926 267.587 146.54 265.747 147.02 264.04C146.593 264.253 146.166 264.413 145.74 264.52C145.366 264.627 144.886 264.84 144.3 265.16C143.713 265.427 143.1 265.667 142.46 265.88C141.873 266.093 141.286 266.307 140.7 266.52C139.206 267.107 137.98 267.693 137.02 268.28L136.3 269.56ZM145.34 264.2C145.393 264.2 145.66 264.12 146.14 263.96C145.82 264.067 145.553 264.147 145.34 264.2ZM191.651 229.08V229.24C191.651 229.293 191.651 229.32 191.651 229.32C191.704 229.32 191.731 229.347 191.731 229.4V229.56H191.811L192.291 230.84C192.824 232.387 191.438 237.187 188.131 245.24C184.611 253.827 182.984 260.52 183.251 265.32C183.838 268.733 186.691 265.987 191.811 257.08C195.864 250.147 199.784 242.547 203.571 234.28C204.051 233.16 204.558 232.013 205.091 230.84C205.624 229.613 206.291 228.6 207.091 227.8C208.851 225.88 210.984 225.373 213.491 226.28C214.344 225.267 215.331 224.573 216.451 224.2C217.624 223.827 218.718 223.747 219.731 223.96C220.798 224.173 221.704 224.68 222.451 225.48C223.198 226.227 223.598 227.24 223.651 228.52C223.811 229.587 223.251 232.12 221.971 236.12C220.744 240.12 219.598 243.773 218.531 247.08C217.464 250.387 216.371 253.987 215.251 257.88C212.531 267.107 210.371 275.8 208.771 283.96C208.718 285.667 207.971 287.08 206.531 288.2C205.144 289.32 203.571 290.04 201.811 290.36C200.104 290.733 198.478 290.68 196.931 290.2C195.064 289.667 194.078 288.333 193.971 286.2C193.971 285.613 193.944 285.027 193.891 284.44C193.998 286.253 192.691 287.8 189.971 289.08C189.224 289.453 188.531 289.8 187.891 290.12C184.158 291.24 180.238 291 176.131 289.4C174.211 288.6 172.478 287.533 170.931 286.2C169.438 284.813 168.398 283.187 167.811 281.32C165.944 275.347 166.291 267.507 168.851 257.8C169.918 253.64 171.224 249.587 172.771 245.64C174.318 241.693 175.438 238.84 176.131 237.08C176.878 235.32 177.411 234.12 177.731 233.48C178.051 232.787 178.398 232.12 178.771 231.48C179.678 229.667 180.451 228.44 181.091 227.8L182.051 226.92C182.158 226.813 182.264 226.76 182.371 226.76C182.478 226.707 182.611 226.627 182.771 226.52C183.198 226.253 183.651 226.067 184.131 225.96L185.251 225.72H185.731C187.278 225.507 188.611 225.827 189.731 226.68C189.731 226.733 189.784 226.76 189.891 226.76L190.531 227.32L190.771 227.56L191.011 227.88C191.011 227.933 191.011 227.96 191.011 227.96C191.064 227.96 191.091 227.987 191.091 228.04L191.171 228.12V228.28C191.224 228.28 191.251 228.307 191.251 228.36V228.44C191.304 228.493 191.358 228.52 191.411 228.52V228.6C191.411 228.653 191.411 228.68 191.411 228.68C191.464 228.68 191.491 228.707 191.491 228.76C191.491 228.76 191.518 228.787 191.571 228.84V228.92C191.571 228.973 191.598 229.027 191.651 229.08ZM193.811 282.36V282.12C193.758 282.173 193.731 282.387 193.731 282.76C193.731 282.6 193.758 282.493 193.811 282.44V282.36ZM224.417 255.96C225.483 252.387 226.337 249.64 226.977 247.72C227.67 245.747 228.337 243.987 228.977 242.44C229.617 240.893 230.337 239.4 231.137 237.96C231.99 236.52 232.897 235.213 233.857 234.04C234.87 232.813 235.937 231.853 237.057 231.16C238.177 230.467 239.35 230.12 240.577 230.12C241.803 230.12 243.083 230.6 244.417 231.56C246.55 236.893 247.857 240.467 248.337 242.28C248.977 244.947 249.563 248.707 250.097 253.56C250.577 252.333 251.11 251.053 251.697 249.72C252.337 248.333 252.95 246.947 253.537 245.56C255.19 242.04 256.23 239.373 256.657 237.56C257.83 233.827 260.257 231.027 263.937 229.16C267.137 227.56 270.123 227.053 272.897 227.64C274.017 227.853 274.79 228.307 275.217 229C275.697 229.693 275.697 230.413 275.217 231.16C274.79 231.907 274.63 232.627 274.737 233.32C274.897 233.96 275.03 234.733 275.137 235.64C275.297 238.093 274.87 240.28 273.857 242.2C272.843 244.067 271.803 246.413 270.737 249.24C269.67 252.013 268.577 254.973 267.457 258.12C266.39 261.267 265.297 264.467 264.177 267.72C263.057 270.973 261.963 273.933 260.897 276.6C258.55 282.733 256.63 286.12 255.137 286.76C253.11 287.987 251.617 288.707 250.657 288.92C249.43 289.133 247.697 289.133 245.457 288.92C244.07 288.813 242.87 287.027 241.857 283.56C241.27 281.693 240.737 279.107 240.257 275.8C239.403 270.04 238.817 266.867 238.497 266.28C236.363 273.213 234.843 277.587 233.937 279.4C233.083 281.213 232.417 282.413 231.937 283C231.51 283.587 230.977 284.36 230.337 285.32C229.643 287.24 227.99 288.653 225.377 289.56C223.137 290.413 221.11 290.547 219.297 289.96C217.323 289.32 216.737 288.093 217.537 286.28C218.123 279.88 220.417 269.773 224.417 255.96ZM319.127 254.52C318.914 256.813 318.487 259.16 317.847 261.56C317.261 263.96 316.381 266.307 315.207 268.6C314.087 270.893 312.727 273.107 311.127 275.24C309.581 277.373 307.847 279.347 305.927 281.16C304.007 282.973 301.954 284.493 299.767 285.72C295.074 288.493 290.541 289.48 286.167 288.68C285.207 290.76 283.767 292.067 281.847 292.6C279.981 293.187 278.114 293.187 276.247 292.6C274.434 292.067 272.834 291.027 271.447 289.48C270.061 287.933 269.367 285.827 269.367 283.16C269.367 280.44 269.554 277.667 269.927 274.84C270.301 272.013 270.807 269.293 271.447 266.68C272.461 262.36 273.714 258.307 275.207 254.52C278.727 245.933 280.727 239.907 281.207 236.44C281.901 231.8 283.181 228.92 285.047 227.8C288.141 225.987 291.074 225.213 293.847 225.48C296.621 225.747 299.127 226.413 301.367 227.48C305.047 229.24 309.021 232.2 313.287 236.36C317.981 240.893 319.927 246.947 319.127 254.52ZM287.687 278.52C290.407 277.133 292.594 275.72 294.247 274.28C295.954 272.787 297.554 271.427 299.047 270.2C301.341 267.907 303.021 265.187 304.087 262.04C306.434 255.107 304.941 249.853 299.607 246.28C298.807 245.693 297.607 244.893 296.007 243.88C295.261 245.587 294.701 247.373 294.327 249.24C294.007 251.107 293.554 252.92 292.967 254.68L290.807 261.72L289.047 269.32C288.941 270.387 288.781 271.427 288.567 272.44C288.354 273.4 288.167 274.413 288.007 275.48L287.687 278.52ZM334.947 276.92C338.041 277.24 340.334 277.4 341.827 277.4C343.374 277.4 345.694 277.187 348.787 276.76C349.747 277.08 350.307 277.48 350.467 277.96C350.627 278.44 350.681 278.947 350.627 279.48C350.574 279.96 350.601 280.44 350.707 280.92C350.814 281.4 351.321 281.8 352.227 282.12C352.707 282.28 352.841 282.76 352.627 283.56C352.467 284.307 352.041 285.133 351.347 286.04C349.587 288.333 347.507 289.933 345.107 290.84C341.267 291.8 338.254 292.36 336.067 292.52C332.441 292.787 328.494 292.653 324.227 292.12C319.534 291.267 317.267 289.32 317.427 286.28C317.427 275.08 319.881 263.827 324.787 252.52C326.387 248.84 328.201 244.973 330.227 240.92C330.654 240.067 330.894 239.107 330.947 238.04C331.054 236.973 331.134 235.933 331.187 234.92C331.241 233.907 331.401 233 331.667 232.2C331.934 231.4 332.494 230.84 333.347 230.52C344.441 226.093 353.214 224.387 359.667 225.4C361.907 225.453 363.374 226.227 364.067 227.72C364.814 229.16 364.894 230.787 364.307 232.6C363.774 234.413 362.681 236.12 361.027 237.72C359.427 239.32 357.401 240.307 354.947 240.68C351.801 241.587 349.881 242.2 349.187 242.52C347.854 243.16 346.894 244.013 346.307 245.08C345.561 246.253 344.867 247.373 344.227 248.44C343.587 249.507 343.134 250.653 342.867 251.88L342.547 253.64C343.561 254.12 344.787 254.28 346.227 254.12C347.721 253.907 349.081 253.72 350.307 253.56C351.587 253.347 352.601 253.32 353.347 253.48C354.147 253.64 354.307 254.44 353.827 255.88C353.401 257.267 352.574 258.84 351.347 260.6C350.174 262.36 348.494 263.64 346.307 264.44C344.921 264.707 343.961 264.92 343.427 265.08C342.947 265.187 342.574 265.267 342.307 265.32C341.934 265.373 340.867 265.453 339.107 265.56C336.601 269.827 335.081 273.133 334.547 275.48C334.334 276.44 334.467 276.92 334.947 276.92Z" fill="#780E08"/>
</svg>
