<svg width="476" height="433" viewBox="0 0 476 433" fill="none" xmlns="http://www.w3.org/2000/svg">
<path d="M469.398 345.58C469.398 322.664 469.382 299.747 469.411 276.833C469.416 272.748 469.216 268.692 468.878 264.644C468.777 263.448 468.87 262.318 469.061 261.155C469.247 260.017 469.468 258.812 469.381 257.679C468.636 248.036 469.769 238.421 469.522 228.773C469.276 219.093 469.151 209.368 469.53 199.705C471.142 158.743 470.149 117.738 470.865 76.7737C471.069 65.137 471.104 53.4773 471.457 41.8406C471.758 31.9737 470.28 22.2348 470.453 12.3658C470.496 9.92211 470.935 9.33848 472.526 9.57151C473.365 9.69537 474.231 9.55473 475.081 9.45606C475.561 9.39938 475.984 9.09077 476 8.29722C476.016 7.46378 475.574 7.14888 475.094 7.19926C473.909 7.32522 473.159 6.66812 472.559 5.25106C472.043 4.03134 471.042 3.99566 470.092 3.99566C466.937 3.99776 463.781 4.06073 460.629 3.93897C443.218 3.26718 425.804 3.38685 408.392 3.47292C404.535 3.49182 400.633 4.19509 396.835 3.33016C388.599 1.45544 380.332 2.58697 372.085 2.34135C359.144 1.95507 346.196 2.02436 333.254 1.67587C291.326 0.54642 249.396 1.70527 207.468 1.20982C202.539 1.15104 197.607 1.04608 192.681 1.22243C190.542 1.3001 188.616 -0.213556 186.475 0.141233C185.247 0.34487 183.978 0.0173759 182.808 0.880208C182.541 1.07755 182.139 1.15732 181.854 1.03976C177.841 -0.612426 173.846 -0.0602712 169.836 1.06708C169.075 1.28121 168.263 1.15103 167.474 1.15103C146.179 1.19512 124.88 0.901201 103.59 1.35256C71.3875 2.03275 39.1865 1.53729 6.98396 1.81441C5.93264 1.8228 4.88131 1.82494 3.82999 1.85433C0.92742 1.93621 0.529745 2.44842 0.516032 6.44768C0.453562 24.9261 0.608975 43.4088 0.289007 61.8789C0.0680766 74.6513 0.560218 87.4111 0.308815 100.165C-0.111715 121.448 -0.0492451 142.733 0.179304 164.008C0.477941 191.801 1.33576 219.605 0.701918 247.388C0.173209 270.567 0.113786 293.733 0.0970261 316.908C0.0817895 336.545 -0.062958 356.186 0.159496 375.819C0.353001 392.843 0.330146 409.865 0.397187 426.886C0.413947 430.711 1.23672 431.891 3.8437 431.899C25.8575 431.962 47.8698 432.821 69.8852 432.294C74.8767 432.174 79.888 432.372 84.8505 431.794C86.9303 431.553 88.8059 431.16 90.9665 431.731C93.3769 432.367 96.0677 432.506 98.5238 430.978C98.8575 430.77 99.3237 430.759 99.6879 430.881C105.723 432.907 111.903 432.307 117.908 431.586C129.462 430.201 140.997 431.335 152.533 430.827C156.597 430.648 160.654 430.696 164.727 430.331C170.066 429.85 175.456 430.356 180.772 431.61C181.607 431.807 182.476 431.78 183.328 431.78C196.145 431.78 208.981 432.426 221.773 431.633C267.609 428.792 313.465 431.045 359.306 430.169C371.265 429.941 383.23 430.033 395.191 430.199C397.784 430.235 400.246 429.376 402.786 429.12C406.117 428.784 409.458 429.12 412.794 428.895C418.213 428.534 423.753 428.862 429.24 429.85C432.952 430.52 436.767 430.14 440.588 429.475C445.703 428.587 450.922 428.07 456.111 428.773C459.393 429.218 462.678 429.086 465.959 429.027C468.561 428.981 468.975 428.242 469.099 424.636C469.742 405.807 469.254 386.967 469.39 368.134C469.443 360.616 469.399 353.098 469.399 345.58H469.398ZM29.3726 236.081C28.5254 236.83 28.1537 237.869 27.6874 238.85C26.4578 241.44 26.1485 244.596 24.8702 247.165C23.1591 250.606 23.2048 250.644 21.5852 247.22C21.3353 246.691 21.1189 246.065 20.767 245.706C19.8314 244.749 18.6841 243.67 17.5932 244.371C14.8598 246.124 13.7201 250.064 11.9099 253.075C11.5397 253.69 11.9069 254.83 12.1355 255.688C12.2695 256.192 12.4798 256.679 12.524 257.198C12.5804 257.84 12.2406 258.168 11.8002 258.243C11.3523 258.319 11.1664 257.842 11.2121 257.408C11.4635 255.05 10.2461 253.108 10.1425 251.024C9.8591 245.288 9.949 239.538 9.25421 233.811C8.88092 230.725 9.24659 227.482 9.15822 224.316C8.59752 204.236 9.81797 184.206 10.0648 164.149C10.1943 153.656 9.0089 143.264 9.2146 132.807C9.53 116.821 8.5259 100.818 9.88196 84.8352C10.5356 77.1264 9.79054 69.3525 9.24355 61.6185C8.89463 56.6767 9.4142 51.6634 8.9571 46.6985C8.86111 45.6551 9.09728 44.66 9.54218 43.8854C10.9318 41.4711 11.9892 38.8658 13.8679 36.7623C15.9096 34.4782 17.5932 31.4299 19.7675 29.1143C21.0489 27.7498 22.6015 26.6308 23.5736 25.0206C25.053 22.5728 26.9332 20.7212 28.3365 18.2187C30.0369 15.1831 32.6317 13.5183 34.4601 10.659C35.3438 9.27761 36.6344 8.79895 37.8853 9.07186C39.5781 9.44135 41.2708 9.16424 42.9667 9.39307C44.4309 9.59041 45.9241 9.9536 47.4599 9.68068C51.5571 8.95221 55.6877 8.57012 59.8031 9.286C61.4746 9.57781 63.0927 8.01589 64.787 9.25241C65.0872 9.47074 65.7271 8.76957 66.2207 8.53024C66.7083 8.29302 67.2005 7.9802 67.7063 7.91512C72.5561 7.27902 77.3953 8.31612 82.2542 8.19645C84.1024 8.15237 86.1837 7.50996 88.0715 8.84935C88.4966 9.15165 89.2432 8.80524 89.7856 8.54072C94.5059 6.24194 99.2857 7.41759 103.986 8.37699C106.461 8.88294 108.921 9.23352 111.379 9.13275C117.422 8.88293 123.465 8.87244 129.503 9.10966C131.446 9.18524 133.37 9.9389 135.36 9.70797C141.227 9.02778 147.113 8.97529 152.987 8.07467C159.709 7.0439 166.421 8.55752 173.115 9.77724C177.075 10.4994 181.115 10.5561 185.089 9.68698C187.106 9.24612 189.026 9.29231 190.851 10.4994C192.128 11.3455 193.527 11.6163 194.67 10.85C198.55 8.24682 202.643 9.15583 206.684 8.96269C207.903 8.90391 208.821 10.4197 210.094 9.89062C214.223 8.17335 218.414 9.02989 222.601 9.3196C228.5 9.72897 234.39 9.63239 240.219 8.05159C240.862 7.87734 241.778 7.54145 242.095 8.26993C243.153 10.6968 244.819 9.86333 246.308 10.1635C248.816 10.6695 251.304 11.4148 253.811 10.1635C254.041 10.0502 254.345 10.1005 254.592 10.195C259.698 12.1474 264.909 10.871 270.068 11.1376C270.586 11.1649 271.212 11.2153 271.611 10.8689C272.82 9.82344 273.889 10.7513 275.009 11.0641C275.335 11.1565 275.69 11.2531 275.733 11.8073C275.779 12.4035 275.576 12.9536 275.165 13.0921C273.748 13.575 273.278 15.5085 272.251 16.5749C271.919 16.9192 271.614 17.2992 271.765 17.9143C271.937 18.6197 272.41 18.7982 272.884 18.794C274.065 18.7814 275.267 18.8968 276.425 18.647C280.999 17.6645 285.37 15.4077 290.01 14.6435C291.512 14.3958 293.814 14.0305 294.183 10.6338C294.25 10.0145 294.969 9.70377 295.352 9.98928C296.861 11.1187 298.684 9.74365 300.174 11.3518C300.945 12.1831 302.066 11.7695 303.057 11.6331C307.145 11.0705 311.239 10.1467 315.33 10.153C320.146 10.1614 324.95 9.83393 329.815 10.9592C334.228 11.9795 338.858 11.2153 343.394 11.2216C353.432 11.2363 363.473 11.379 373.509 11.1943C379.39 11.0872 385.264 11.6436 391.173 10.3525C394.738 9.5736 398.515 10.2874 402.2 10.1278C410.011 9.78775 417.837 10.5267 425.643 9.57361C426.293 9.49384 426.991 9.40778 427.605 9.6387C429.686 10.4239 431.788 10.0858 433.881 10.2244C436.255 10.384 438.661 10.1782 441.091 11.0599C444.283 12.2188 447.661 10.9172 450.94 10.6338C452.313 10.5162 453.41 11.7548 454.709 11.2132C457.022 10.2496 459.344 11.5806 461.663 11.188C462.899 10.9781 463.416 11.7569 463.547 13.4679C463.947 18.7121 463.658 23.9667 463.73 29.213C463.772 32.3284 462.948 32.9184 460.99 31.2011C460.245 30.5482 459.629 30.0296 458.889 30.8988C458.173 31.7385 458.289 32.9079 458.599 33.9135C459.07 35.4376 459.238 37.0247 459.456 38.6307C460.077 43.2115 460.422 47.9539 462.866 51.6361C463.187 52.1211 463.304 52.7152 463.338 53.3765C463.684 60.3064 464.232 67.2322 463.752 74.1852C463.614 76.1943 464.606 77.7478 464.595 79.6918C464.571 84.7638 464.641 89.8359 464.66 94.9079C464.67 97.1353 464.927 99.4194 463.484 101.2C462.995 101.802 463.094 102.881 463.135 103.799C463.624 115.005 463.833 126.224 463.705 137.447C463.533 152.562 462.963 167.667 463.112 182.791C463.149 186.576 463.382 190.342 463.154 194.146C463.019 196.369 462.678 197.78 460.987 198.639C459.142 199.577 457.129 200.345 456.052 203.15C454.94 206.052 455.61 208.399 457.969 208.917C459 209.144 460.074 208.98 461.113 209.167C462.655 209.446 463.361 210.723 462.824 212.805C461.884 216.458 461.73 220.43 461.395 224.095C460.679 231.926 460.397 239.929 460.708 247.925C460.903 252.926 460.941 257.962 460.557 263.036C460.115 268.881 459.815 274.933 461.808 280.562C462.061 281.275 462.418 282.281 462.067 282.902C460.445 285.785 461.415 289.265 460.787 292.358C460.662 292.971 460.527 293.75 460.969 294.119C462.165 295.123 461.389 295.771 460.845 296.567C460.397 297.224 459.997 297.95 459.614 298.683C458.019 301.736 458.042 302.231 460.458 304.303C461.906 305.544 462.334 307.362 461.686 309.146C460.266 313.053 461.706 317.294 460.681 321.19C460.586 321.549 460.688 322.192 460.877 322.481C462.824 325.479 461.43 328.918 461.234 331.926C460.627 341.21 460.041 350.461 460.83 359.749C461.538 368.079 460.661 376.485 462.037 384.863C462.587 388.212 462.14 392.406 461.925 396.053C461.522 402.897 463.449 410.287 460.064 416.616C460.601 419.958 458.58 419.738 457.298 420.053C455.305 420.54 453.25 420.544 451.222 420.76C448.22 421.079 445.176 421.09 442.234 421.846C440.521 422.284 438.773 422.855 437.201 422.211C434.718 421.193 432.222 421.167 429.795 421.589C427.572 421.976 425.527 422.818 423.831 419.979C423.615 419.618 423.119 419.419 422.749 419.41C420.452 419.364 418.078 418.883 415.871 419.505C411.314 420.787 406.617 420.634 402.114 422.322C401.555 422.532 400.903 422.482 400.423 421.894C399.388 420.628 398.142 420.655 396.885 420.695C389.265 420.939 381.647 421.182 374.027 421.432C373.634 421.445 373.235 421.459 372.849 421.562C367.253 423.055 361.523 423.871 355.906 423.842C325.841 423.687 295.763 425.362 265.709 423.072C263.407 422.897 261.161 423.727 258.904 423.943C247.658 425.018 236.375 424.799 225.112 426.093C215.974 427.142 206.737 426.748 197.543 426.693C179.41 426.586 161.277 426.682 143.143 426.449C133.431 426.323 123.698 426.563 113.975 426.733C110.823 426.787 107.695 426.025 104.529 426.344C95.248 427.281 85.8988 425.862 76.6471 427.824C74.6222 428.255 72.8075 426.825 70.8557 426.752C67.1487 426.615 63.4965 426.909 59.7726 427.465C54.0223 428.324 48.1304 428.841 42.278 428.116C38.8437 427.692 35.3834 426.878 32.0238 426.609C28.1704 426.302 24.0139 425.658 20.1484 427.734C19.8086 427.917 19.3012 427.927 18.9873 427.705C17.1635 426.424 15.1386 426.708 13.2172 426.21C12.1202 425.927 11.6022 425.2 11.1039 423.819C10.304 421.598 11.5747 419.843 11.4468 417.806C10.6865 405.615 11.8033 393.406 11.2304 381.192C10.9257 374.707 11.2807 368.172 11.5976 361.657C12.1857 349.534 11.1314 337.424 11.1969 325.301C11.2014 324.503 11.0034 323.707 10.9272 322.905C10.467 318.085 7.83416 313.215 11.0887 308.466C11.1664 308.353 11.1634 308.124 11.1832 307.945C11.7454 302.943 13.7505 298.694 15.2315 294.237C18.093 285.627 20.9757 277.005 23.249 268.108C25.76 258.281 27.4894 248.074 29.557 238.031C29.6804 237.428 29.851 236.809 29.3741 236.064L29.3726 236.081ZM291.715 10.4533C285.701 13.0753 283.104 13.5414 281.076 12.3804C284.733 10.6233 288.196 10.1992 291.715 10.4533Z" fill="#780E08"/>
<path d="M159.135 189.92L159.055 191.84C159.055 192.16 159.108 192.8 159.215 193.76C159.695 194.347 160.202 194.48 160.735 194.16C161.162 193.893 162.122 193.147 163.615 191.92C166.068 188.24 168.095 184.613 169.695 181.04C173.375 172.667 175.988 165.52 177.535 159.6C178.015 157.84 178.468 156.107 178.895 154.4C179.375 152.693 179.828 150.96 180.255 149.2C180.735 147.387 181.268 145.52 181.855 143.6V143.28C182.762 140.133 185.082 137.68 188.815 135.92C192.388 134.16 195.455 133.893 198.015 135.12C199.242 135.707 200.122 136.72 200.655 138.16C201.188 139.547 201.135 141.44 200.495 143.84C199.268 147.52 198.042 151.387 196.815 155.44C195.588 159.493 194.282 163.573 192.895 167.68C191.508 171.733 189.962 175.707 188.255 179.6C186.548 183.493 184.575 187.067 182.335 190.32C177.375 197.573 171.508 202.373 164.735 204.72C163.988 205.04 163.348 205.227 162.815 205.28C162.335 205.333 161.615 205.413 160.655 205.52C159.695 205.68 158.468 205.707 156.975 205.6C155.535 205.547 154.122 205.307 152.735 204.88C149.535 203.973 147.562 202.373 146.815 200.08C145.962 196.88 145.642 194.56 145.855 193.12C146.015 191.627 146.308 190.427 146.735 189.52C147.162 188.613 147.695 187.653 148.335 186.64H148.415C148.895 185.733 149.642 184.96 150.655 184.32C151.722 183.68 152.815 183.28 153.935 183.12C155.108 182.907 156.175 182.987 157.135 183.36C158.148 183.733 158.815 184.453 159.135 185.52C159.188 186.107 159.215 186.853 159.215 187.76C159.215 188.667 159.188 189.387 159.135 189.92ZM236.459 143.76C238.272 144.72 239.419 146.133 239.899 148C238.832 153.973 237.872 159.92 237.019 165.84C236.165 171.707 235.339 176.64 234.539 180.64C233.739 184.587 233.179 187.547 232.859 189.52C232.592 191.493 232.272 193.467 231.899 195.44L231.419 197.12C231.312 197.707 231.205 198.24 231.099 198.72C230.992 199.253 230.885 199.813 230.779 200.4C229.285 202.107 227.259 202.96 224.699 202.96C221.979 202.96 219.819 202.267 218.219 200.88C217.259 200.133 217.099 198.56 217.739 196.16C218.005 195.2 218.165 193.973 218.219 192.48C218.325 190.933 218.432 189.653 218.539 188.64V188.48C216.939 189.067 215.499 189.84 214.219 190.8C212.939 191.707 212.139 192.293 211.819 192.56C211.499 192.773 211.072 192.96 210.539 193.12C210.005 193.227 209.525 193.307 209.099 193.36C208.085 193.413 207.392 193.573 207.019 193.84C203.925 199.387 201.152 202.48 198.699 203.12C197.152 203.6 195.605 203.707 194.059 203.44C192.512 203.227 191.285 202.32 190.379 200.72C188.672 199.12 189.099 194.747 191.659 187.6C193.045 183.813 195.019 179.28 197.579 174C200.192 168.667 202.699 164.027 205.099 160.08C210.272 151.6 215.952 144.453 222.139 138.64C223.152 138.213 224.245 137.733 225.419 137.2C226.592 136.613 227.739 136.293 228.859 136.24C230.032 136.187 231.232 136.32 232.459 136.64C233.685 136.96 234.725 137.44 235.579 138.08C237.552 139.573 237.845 141.467 236.459 143.76ZM219.339 164.8C218.219 168 217.099 170.96 215.979 173.68C214.859 176.347 213.899 178.693 213.099 180.72L219.419 180.48C219.845 177.067 220.325 173.68 220.859 170.32C221.392 166.96 221.899 163.6 222.379 160.24L219.339 164.8ZM217.179 180.8C217.925 180.8 218.672 180.747 219.419 180.64V180.56C218.725 180.613 218.085 180.667 217.499 180.72C216.912 180.773 216.805 180.8 217.179 180.8ZM269.135 137.6C276.815 136.053 282.788 137.013 287.055 140.48C289.082 142.133 290.415 144.533 291.055 147.68C291.748 150.827 291.402 154.347 290.015 158.24C289.428 160.053 288.415 161.413 286.975 162.32C285.535 163.227 284.042 163.76 282.495 163.92C281.002 164.027 279.642 163.84 278.415 163.36C277.188 162.827 276.522 162.08 276.415 161.12L275.695 159.52C274.415 157.6 272.202 157.36 269.055 158.8C266.335 160.027 263.615 162.16 260.895 165.2C258.015 168.453 256.148 171.387 255.295 174C254.335 176.88 253.855 178.773 253.855 179.68C253.748 181.707 254.468 183.52 256.015 185.12C258.255 186.56 260.495 187.227 262.735 187.12C264.975 186.96 266.975 186.453 268.735 185.6C270.495 184.693 271.935 183.68 273.055 182.56C274.175 181.44 274.735 180.64 274.735 180.16C274.895 179.84 275.055 179.52 275.215 179.2C275.375 178.88 275.508 178.56 275.615 178.24C275.402 178.24 275.455 178.24 275.775 178.24C276.095 178.187 276.175 178.187 276.015 178.24C275.855 178.24 275.935 178.267 276.255 178.32L276.735 178.48C274.122 180.827 271.588 181.307 269.135 179.92C268.175 179.333 267.322 178.72 266.575 178.08C265.828 177.387 265.135 177.067 264.495 177.12C263.322 176.48 263.055 175.227 263.695 173.36C263.962 172.613 264.442 171.92 265.135 171.28C265.882 170.587 266.815 170.107 267.935 169.84C273.268 167.547 278.202 167.013 282.735 168.24C284.762 168.773 286.148 169.867 286.895 171.52C287.695 173.12 288.042 174.933 287.935 176.96C287.828 178.987 287.375 181.04 286.575 183.12C285.828 185.2 285.002 186.88 284.095 188.16C283.188 189.387 281.908 190.853 280.255 192.56C278.655 194.267 276.628 195.92 274.175 197.52C268.148 201.413 261.695 203.28 254.815 203.12C244.842 202.96 238.948 198.88 237.135 190.88C236.548 188.32 236.282 185.44 236.335 182.24C236.868 172.96 239.642 164.293 244.655 156.24C247.055 152.4 250.282 148.613 254.335 144.88C256.895 142.587 259.775 140.827 262.975 139.6C264.682 138.907 266.735 138.24 269.135 137.6ZM316.309 177.52C314.869 181.68 313.402 185.68 311.909 189.52C310.415 193.36 309.162 196.267 308.149 198.24C307.189 200.267 306.335 201.653 305.589 202.4C304.842 203.147 304.069 203.653 303.269 203.92C302.522 204.187 301.749 204.293 300.949 204.24C300.202 204.187 299.429 204.133 298.629 204.08C294.149 203.387 292.762 200.16 294.469 194.4C295.589 189.813 296.495 186.08 297.189 183.2C297.882 180.267 298.442 177.867 298.869 176C299.349 174.08 299.749 172.507 300.069 171.28C300.389 170 300.735 168.747 301.109 167.52C301.482 166.293 301.935 164.907 302.469 163.36C303.055 161.813 303.802 159.76 304.709 157.2C302.682 157.467 300.869 157.253 299.269 156.56C296.922 155.547 295.962 153.36 296.389 150C296.602 148.453 297.429 147.013 298.869 145.68C299.615 144.987 300.495 144.24 301.509 143.44C303.589 141.787 307.722 140.027 313.909 138.16C320.309 136.24 325.802 135.333 330.389 135.44C331.615 135.227 332.869 135.387 334.149 135.92C335.482 136.4 336.549 137.067 337.349 137.92C338.149 138.773 338.549 139.707 338.549 140.72C338.602 141.733 337.962 142.64 336.629 143.44C335.989 143.867 335.535 144.587 335.269 145.6C335.002 146.56 334.709 147.6 334.389 148.72C334.069 149.787 333.589 150.773 332.949 151.68C332.362 152.587 331.402 153.12 330.069 153.28C329.375 153.653 328.389 153.92 327.109 154.08C325.882 154.24 325.055 154.373 324.629 154.48C324.255 154.533 324.042 154.667 323.989 154.88C323.029 157.707 321.882 161.147 320.549 165.2C319.215 169.2 317.802 173.307 316.309 177.52ZM305.509 156.32C305.402 156.32 305.349 156.347 305.349 156.4C305.349 156.4 305.402 156.4 305.509 156.4V156.32ZM136.3 260.56L132.46 270.32C131.926 271.813 131.446 273.36 131.02 274.96C130.593 276.56 130.14 277.947 129.66 279.12C129.18 280.347 128.433 281.307 127.42 282C126.46 282.693 125.366 283.2 124.14 283.52C122.913 283.893 121.633 284.053 120.3 284C119.02 283.947 117.873 283.707 116.86 283.28C114.566 282.213 113.766 280.453 114.46 278C116.913 267.227 119.206 258.587 121.34 252.08C123.526 245.573 125.313 240.453 126.7 236.72C128.14 232.987 129.633 229.04 131.18 224.88C131.34 223.333 131.98 221.947 133.1 220.72C134.22 219.493 135.526 218.48 137.02 217.68C138.566 216.88 140.166 216.32 141.82 216C143.473 215.627 144.94 215.573 146.22 215.84C147.5 216.107 148.433 216.693 149.02 217.6C149.66 218.507 149.713 219.813 149.18 221.52C147.26 226.427 145.9 229.893 145.1 231.92C144.3 233.947 143.58 235.76 142.94 237.36L140.7 242.64C141.82 242.693 143.233 242.533 144.94 242.16C148.033 241.467 150.273 241.227 151.66 241.44C151.66 241.173 151.793 240.72 152.06 240.08C153.553 233.573 155.233 227.6 157.1 222.16C158.433 217.68 161.873 215.333 167.42 215.12C169.606 215.12 171.26 215.653 172.38 216.72C173.606 217.84 173.766 219.36 172.86 221.28C167.953 235.04 164.486 245.893 162.46 253.84C160.166 263.013 158.646 269.2 157.9 272.4C157.206 275.6 156.593 277.493 156.06 278.08C155.526 278.667 154.966 279.067 154.38 279.28C153.846 279.547 153.313 279.787 152.78 280C152.246 280.213 151.82 280.747 151.5 281.6H151.26C150.833 282.56 149.9 283.307 148.46 283.84C147.02 284.373 145.553 284.56 144.06 284.4C142.62 284.293 141.393 283.76 140.38 282.8C139.42 281.893 139.18 280.48 139.66 278.56C140.193 275.52 141.073 272.267 142.3 268.8C143.526 265.28 144.486 262.533 145.18 260.56C145.926 258.587 146.54 256.747 147.02 255.04C146.593 255.253 146.166 255.413 145.74 255.52C145.366 255.627 144.886 255.84 144.3 256.16C143.713 256.427 143.1 256.667 142.46 256.88C141.873 257.093 141.286 257.307 140.7 257.52C139.206 258.107 137.98 258.693 137.02 259.28L136.3 260.56ZM145.34 255.2C145.393 255.2 145.66 255.12 146.14 254.96C145.82 255.067 145.553 255.147 145.34 255.2ZM191.651 220.08V220.24C191.651 220.293 191.651 220.32 191.651 220.32C191.704 220.32 191.731 220.347 191.731 220.4V220.56H191.811L192.291 221.84C192.824 223.387 191.438 228.187 188.131 236.24C184.611 244.827 182.984 251.52 183.251 256.32C183.838 259.733 186.691 256.987 191.811 248.08C195.864 241.147 199.784 233.547 203.571 225.28C204.051 224.16 204.558 223.013 205.091 221.84C205.624 220.613 206.291 219.6 207.091 218.8C208.851 216.88 210.984 216.373 213.491 217.28C214.344 216.267 215.331 215.573 216.451 215.2C217.624 214.827 218.718 214.747 219.731 214.96C220.798 215.173 221.704 215.68 222.451 216.48C223.198 217.227 223.598 218.24 223.651 219.52C223.811 220.587 223.251 223.12 221.971 227.12C220.744 231.12 219.598 234.773 218.531 238.08C217.464 241.387 216.371 244.987 215.251 248.88C212.531 258.107 210.371 266.8 208.771 274.96C208.718 276.667 207.971 278.08 206.531 279.2C205.144 280.32 203.571 281.04 201.811 281.36C200.104 281.733 198.478 281.68 196.931 281.2C195.064 280.667 194.078 279.333 193.971 277.2C193.971 276.613 193.944 276.027 193.891 275.44C193.998 277.253 192.691 278.8 189.971 280.08C189.224 280.453 188.531 280.8 187.891 281.12C184.158 282.24 180.238 282 176.131 280.4C174.211 279.6 172.478 278.533 170.931 277.2C169.438 275.813 168.398 274.187 167.811 272.32C165.944 266.347 166.291 258.507 168.851 248.8C169.918 244.64 171.224 240.587 172.771 236.64C174.318 232.693 175.438 229.84 176.131 228.08C176.878 226.32 177.411 225.12 177.731 224.48C178.051 223.787 178.398 223.12 178.771 222.48C179.678 220.667 180.451 219.44 181.091 218.8L182.051 217.92C182.158 217.813 182.264 217.76 182.371 217.76C182.478 217.707 182.611 217.627 182.771 217.52C183.198 217.253 183.651 217.067 184.131 216.96L185.251 216.72H185.731C187.278 216.507 188.611 216.827 189.731 217.68C189.731 217.733 189.784 217.76 189.891 217.76L190.531 218.32L190.771 218.56L191.011 218.88C191.011 218.933 191.011 218.96 191.011 218.96C191.064 218.96 191.091 218.987 191.091 219.04L191.171 219.12V219.28C191.224 219.28 191.251 219.307 191.251 219.36V219.44C191.304 219.493 191.358 219.52 191.411 219.52V219.6C191.411 219.653 191.411 219.68 191.411 219.68C191.464 219.68 191.491 219.707 191.491 219.76C191.491 219.76 191.518 219.787 191.571 219.84V219.92C191.571 219.973 191.598 220.027 191.651 220.08ZM193.811 273.36V273.12C193.758 273.173 193.731 273.387 193.731 273.76C193.731 273.6 193.758 273.493 193.811 273.44V273.36ZM224.417 246.96C225.483 243.387 226.337 240.64 226.977 238.72C227.67 236.747 228.337 234.987 228.977 233.44C229.617 231.893 230.337 230.4 231.137 228.96C231.99 227.52 232.897 226.213 233.857 225.04C234.87 223.813 235.937 222.853 237.057 222.16C238.177 221.467 239.35 221.12 240.577 221.12C241.803 221.12 243.083 221.6 244.417 222.56C246.55 227.893 247.857 231.467 248.337 233.28C248.977 235.947 249.563 239.707 250.097 244.56C250.577 243.333 251.11 242.053 251.697 240.72C252.337 239.333 252.95 237.947 253.537 236.56C255.19 233.04 256.23 230.373 256.657 228.56C257.83 224.827 260.257 222.027 263.937 220.16C267.137 218.56 270.123 218.053 272.897 218.64C274.017 218.853 274.79 219.307 275.217 220C275.697 220.693 275.697 221.413 275.217 222.16C274.79 222.907 274.63 223.627 274.737 224.32C274.897 224.96 275.03 225.733 275.137 226.64C275.297 229.093 274.87 231.28 273.857 233.2C272.843 235.067 271.803 237.413 270.737 240.24C269.67 243.013 268.577 245.973 267.457 249.12C266.39 252.267 265.297 255.467 264.177 258.72C263.057 261.973 261.963 264.933 260.897 267.6C258.55 273.733 256.63 277.12 255.137 277.76C253.11 278.987 251.617 279.707 250.657 279.92C249.43 280.133 247.697 280.133 245.457 279.92C244.07 279.813 242.87 278.027 241.857 274.56C241.27 272.693 240.737 270.107 240.257 266.8C239.403 261.04 238.817 257.867 238.497 257.28C236.363 264.213 234.843 268.587 233.937 270.4C233.083 272.213 232.417 273.413 231.937 274C231.51 274.587 230.977 275.36 230.337 276.32C229.643 278.24 227.99 279.653 225.377 280.56C223.137 281.413 221.11 281.547 219.297 280.96C217.323 280.32 216.737 279.093 217.537 277.28C218.123 270.88 220.417 260.773 224.417 246.96ZM319.127 245.52C318.914 247.813 318.487 250.16 317.847 252.56C317.261 254.96 316.381 257.307 315.207 259.6C314.087 261.893 312.727 264.107 311.127 266.24C309.581 268.373 307.847 270.347 305.927 272.16C304.007 273.973 301.954 275.493 299.767 276.72C295.074 279.493 290.541 280.48 286.167 279.68C285.207 281.76 283.767 283.067 281.847 283.6C279.981 284.187 278.114 284.187 276.247 283.6C274.434 283.067 272.834 282.027 271.447 280.48C270.061 278.933 269.367 276.827 269.367 274.16C269.367 271.44 269.554 268.667 269.927 265.84C270.301 263.013 270.807 260.293 271.447 257.68C272.461 253.36 273.714 249.307 275.207 245.52C278.727 236.933 280.727 230.907 281.207 227.44C281.901 222.8 283.181 219.92 285.047 218.8C288.141 216.987 291.074 216.213 293.847 216.48C296.621 216.747 299.127 217.413 301.367 218.48C305.047 220.24 309.021 223.2 313.287 227.36C317.981 231.893 319.927 237.947 319.127 245.52ZM287.687 269.52C290.407 268.133 292.594 266.72 294.247 265.28C295.954 263.787 297.554 262.427 299.047 261.2C301.341 258.907 303.021 256.187 304.087 253.04C306.434 246.107 304.941 240.853 299.607 237.28C298.807 236.693 297.607 235.893 296.007 234.88C295.261 236.587 294.701 238.373 294.327 240.24C294.007 242.107 293.554 243.92 292.967 245.68L290.807 252.72L289.047 260.32C288.941 261.387 288.781 262.427 288.567 263.44C288.354 264.4 288.167 265.413 288.007 266.48L287.687 269.52ZM334.947 267.92C338.041 268.24 340.334 268.4 341.827 268.4C343.374 268.4 345.694 268.187 348.787 267.76C349.747 268.08 350.307 268.48 350.467 268.96C350.627 269.44 350.681 269.947 350.627 270.48C350.574 270.96 350.601 271.44 350.707 271.92C350.814 272.4 351.321 272.8 352.227 273.12C352.707 273.28 352.841 273.76 352.627 274.56C352.467 275.307 352.041 276.133 351.347 277.04C349.587 279.333 347.507 280.933 345.107 281.84C341.267 282.8 338.254 283.36 336.067 283.52C332.441 283.787 328.494 283.653 324.227 283.12C319.534 282.267 317.267 280.32 317.427 277.28C317.427 266.08 319.881 254.827 324.787 243.52C326.387 239.84 328.201 235.973 330.227 231.92C330.654 231.067 330.894 230.107 330.947 229.04C331.054 227.973 331.134 226.933 331.187 225.92C331.241 224.907 331.401 224 331.667 223.2C331.934 222.4 332.494 221.84 333.347 221.52C344.441 217.093 353.214 215.387 359.667 216.4C361.907 216.453 363.374 217.227 364.067 218.72C364.814 220.16 364.894 221.787 364.307 223.6C363.774 225.413 362.681 227.12 361.027 228.72C359.427 230.32 357.401 231.307 354.947 231.68C351.801 232.587 349.881 233.2 349.187 233.52C347.854 234.16 346.894 235.013 346.307 236.08C345.561 237.253 344.867 238.373 344.227 239.44C343.587 240.507 343.134 241.653 342.867 242.88L342.547 244.64C343.561 245.12 344.787 245.28 346.227 245.12C347.721 244.907 349.081 244.72 350.307 244.56C351.587 244.347 352.601 244.32 353.347 244.48C354.147 244.64 354.307 245.44 353.827 246.88C353.401 248.267 352.574 249.84 351.347 251.6C350.174 253.36 348.494 254.64 346.307 255.44C344.921 255.707 343.961 255.92 343.427 256.08C342.947 256.187 342.574 256.267 342.307 256.32C341.934 256.373 340.867 256.453 339.107 256.56C336.601 260.827 335.081 264.133 334.547 266.48C334.334 267.44 334.467 267.92 334.947 267.92Z" fill="#780E08"/>
</svg>
