<svg width="476" height="433" viewBox="0 0 476 433" fill="none" xmlns="http://www.w3.org/2000/svg">
<path d="M469.398 86.8838C469.398 109.8 469.382 132.717 469.411 155.631C469.416 159.716 469.216 163.772 468.878 167.82C468.777 169.017 468.87 170.146 469.061 171.309C469.247 172.447 469.468 173.652 469.381 174.786C468.636 184.428 469.769 194.043 469.522 203.691C469.276 213.372 469.151 223.096 469.53 232.759C471.142 273.721 470.149 314.726 470.865 355.691C471.069 367.327 471.104 378.987 471.457 390.624C471.758 400.491 470.28 410.229 470.453 420.098C470.496 422.542 470.935 423.126 472.526 422.893C473.365 422.769 474.231 422.91 475.081 423.008C475.561 423.065 475.984 423.373 476 424.167C476.016 425 475.574 425.315 475.094 425.265C473.909 425.139 473.159 425.796 472.559 427.213C472.043 428.433 471.042 428.469 470.092 428.469C466.937 428.466 463.781 428.404 460.629 428.525C443.218 429.197 425.804 429.077 408.392 428.991C404.535 428.972 400.633 428.269 396.835 429.134C388.599 431.009 380.332 429.877 372.085 430.123C359.144 430.509 346.196 430.44 333.254 430.788C291.326 431.918 249.396 430.759 207.468 431.254C202.539 431.313 197.607 431.418 192.681 431.242C190.542 431.164 188.616 432.678 186.475 432.323C185.247 432.119 183.978 432.447 182.808 431.584C182.541 431.387 182.139 431.307 181.854 431.424C177.841 433.077 173.846 432.525 169.836 431.397C169.075 431.183 168.263 431.313 167.474 431.313C146.179 431.269 124.88 431.563 103.59 431.112C71.3875 430.431 39.1865 430.927 6.98396 430.65C5.93264 430.641 4.88131 430.639 3.82999 430.61C0.92742 430.528 0.529745 430.016 0.516032 426.017C0.453562 407.538 0.608975 389.055 0.289007 370.585C0.0680766 357.813 0.560218 345.053 0.308815 332.3C-0.111715 311.016 -0.0492451 289.731 0.179304 268.456C0.477941 240.663 1.33576 212.859 0.701918 185.077C0.173209 161.898 0.113786 138.731 0.0970261 115.557C0.0817895 95.9194 -0.062958 76.2779 0.159496 56.6448C0.353001 39.6212 0.330146 22.5997 0.397187 5.57817C0.413947 1.75316 1.23672 0.573331 3.8437 0.564933C25.8575 0.501953 47.8698 -0.35668 69.8852 0.170256C74.8767 0.289919 79.888 0.0925802 84.8505 0.669901C86.9303 0.911326 88.8059 1.3039 90.9665 0.732881C93.3769 0.0967789 96.0677 -0.0417782 98.5238 1.48655C98.8575 1.69438 99.3237 1.70488 99.6879 1.58312C105.723 -0.442753 111.903 0.15766 117.908 0.877736C129.462 2.26331 140.997 1.12966 152.533 1.6377C156.597 1.81614 160.654 1.76786 164.727 2.13315C170.066 2.6139 175.456 2.10795 180.772 0.854643C181.607 0.657305 182.476 0.684596 183.328 0.684596C196.145 0.684596 208.981 0.0379971 221.773 0.83155C267.609 3.67197 313.465 1.41937 359.306 2.2948C371.265 2.52362 383.23 2.43125 395.191 2.2654C397.784 2.22972 400.246 3.08835 402.786 3.34447C406.117 3.68036 409.458 3.34447 412.794 3.5691C418.213 3.93019 423.753 3.60269 429.24 2.6139C432.952 1.9442 436.767 2.32419 440.588 2.98968C445.703 3.8777 450.922 4.39414 456.111 3.69086C459.393 3.2458 462.678 3.37806 465.959 3.43684C468.561 3.48303 468.975 4.222 469.099 7.82868C469.742 26.6577 469.254 45.4973 469.39 64.3305C469.443 71.8483 469.399 79.366 469.399 86.8838H469.398ZM29.3726 196.384C28.5254 195.634 28.1537 194.595 27.6874 193.615C26.4578 191.024 26.1485 187.869 24.8702 185.299C23.1591 181.858 23.2048 181.82 21.5852 185.245C21.3353 185.774 21.1189 186.399 20.767 186.758C19.8314 187.715 18.6841 188.795 17.5932 188.093C14.8598 186.34 13.7201 182.4 11.9099 179.389C11.5397 178.774 11.9069 177.634 12.1355 176.776C12.2695 176.272 12.4798 175.785 12.524 175.266C12.5804 174.624 12.2406 174.296 11.8002 174.221C11.3523 174.145 11.1664 174.622 11.2121 175.056C11.4635 177.414 10.2461 179.356 10.1425 181.44C9.8591 187.176 9.949 192.926 9.25421 198.653C8.88092 201.739 9.24659 204.983 9.15822 208.148C8.59752 228.229 9.81797 248.259 10.0648 268.316C10.1943 278.808 9.0089 289.2 9.2146 299.657C9.53 315.643 8.5259 331.647 9.88196 347.629C10.5356 355.338 9.79054 363.112 9.24355 370.846C8.89463 375.788 9.4142 380.801 8.9571 385.766C8.86111 386.809 9.09728 387.804 9.54218 388.579C10.9318 390.993 11.9892 393.598 13.8679 395.702C15.9096 397.986 17.5932 401.034 19.7675 403.35C21.0489 404.714 22.6015 405.833 23.5736 407.444C25.053 409.891 26.9332 411.743 28.3365 414.245C30.0369 417.281 32.6317 418.946 34.4601 421.805C35.3438 423.187 36.6344 423.665 37.8853 423.392C39.5781 423.023 41.2708 423.3 42.9667 423.071C44.4309 422.874 45.9241 422.511 47.4599 422.784C51.5571 423.512 55.6877 423.894 59.8031 423.178C61.4746 422.886 63.0927 424.448 64.787 423.212C65.0872 422.993 65.7271 423.695 66.2207 423.934C66.7083 424.171 67.2005 424.484 67.7063 424.549C72.5561 425.185 77.3953 424.148 82.2542 424.268C84.1024 424.312 86.1837 424.954 88.0715 423.615C88.4966 423.313 89.2432 423.659 89.7856 423.924C94.5059 426.222 99.2857 425.047 103.986 424.087C106.461 423.581 108.921 423.231 111.379 423.331C117.422 423.581 123.465 423.592 129.503 423.355C131.446 423.279 133.37 422.525 135.36 422.756C141.227 423.436 147.113 423.489 152.987 424.39C159.709 425.42 166.421 423.907 173.115 422.687C177.075 421.965 181.115 421.908 185.089 422.777C187.106 423.218 189.026 423.172 190.851 421.965C192.128 421.119 193.527 420.848 194.67 421.614C198.55 424.217 202.643 423.308 206.684 423.502C207.903 423.56 208.821 422.045 210.094 422.574C214.223 424.291 218.414 423.434 222.601 423.145C228.5 422.735 234.39 422.832 240.219 424.413C240.862 424.587 241.778 424.923 242.095 424.194C243.153 421.767 244.819 422.601 246.308 422.301C248.816 421.795 251.304 421.049 253.811 422.301C254.041 422.414 254.345 422.364 254.592 422.269C259.698 420.317 264.909 421.593 270.068 421.327C270.586 421.299 271.212 421.249 271.611 421.595C272.82 422.641 273.889 421.713 275.009 421.4C275.335 421.308 275.69 421.211 275.733 420.657C275.779 420.061 275.576 419.511 275.165 419.372C273.748 418.889 273.278 416.956 272.251 415.889C271.919 415.545 271.614 415.165 271.765 414.55C271.937 413.845 272.41 413.666 272.884 413.67C274.065 413.683 275.267 413.567 276.425 413.817C280.999 414.8 285.37 417.057 290.01 417.821C291.512 418.068 293.814 418.434 294.183 421.83C294.25 422.45 294.969 422.76 295.352 422.475C296.861 421.346 298.684 422.721 300.174 421.112C300.945 420.281 302.066 420.695 303.057 420.831C307.145 421.394 311.239 422.317 315.33 422.311C320.146 422.303 324.95 422.63 329.815 421.505C334.228 420.485 338.858 421.249 343.394 421.243C353.432 421.228 363.473 421.085 373.509 421.27C379.39 421.377 385.264 420.821 391.173 422.112C394.738 422.891 398.515 422.177 402.2 422.336C410.011 422.676 417.837 421.938 425.643 422.891C426.293 422.97 426.991 423.056 427.605 422.826C429.686 422.04 431.788 422.378 433.881 422.24C436.255 422.08 438.661 422.286 441.091 421.404C444.283 420.245 447.661 421.547 450.94 421.83C452.313 421.948 453.41 420.709 454.709 421.251C457.022 422.215 459.344 420.884 461.663 421.276C462.899 421.486 463.416 420.707 463.547 418.996C463.947 413.752 463.658 408.497 463.73 403.251C463.772 400.136 462.948 399.546 460.99 401.263C460.245 401.916 459.629 402.435 458.889 401.565C458.173 400.726 458.289 399.556 458.599 398.551C459.07 397.027 459.238 395.44 459.456 393.834C460.077 389.253 460.422 384.51 462.866 380.828C463.187 380.343 463.304 379.749 463.338 379.088C463.684 372.158 464.232 365.232 463.752 358.279C463.614 356.27 464.606 354.716 464.595 352.772C464.571 347.7 464.641 342.628 464.66 337.556C464.67 335.329 464.927 333.045 463.484 331.265C462.995 330.662 463.094 329.583 463.135 328.666C463.624 317.459 463.833 306.24 463.705 295.017C463.533 279.902 462.963 264.797 463.112 249.673C463.149 245.888 463.382 242.122 463.154 238.318C463.019 236.095 462.678 234.684 460.987 233.826C459.142 232.887 457.129 232.119 456.052 229.314C454.94 226.413 455.61 224.066 457.969 223.547C459 223.32 460.074 223.484 461.113 223.297C462.655 223.018 463.361 221.742 462.824 219.659C461.884 216.006 461.73 212.034 461.395 208.369C460.679 200.538 460.397 192.536 460.708 184.539C460.903 179.538 460.941 174.502 460.557 169.428C460.115 163.583 459.815 157.531 461.808 151.903C462.061 151.189 462.418 150.183 462.067 149.562C460.445 146.679 461.415 143.199 460.787 140.106C460.662 139.493 460.527 138.715 460.969 138.345C462.165 137.342 461.389 136.693 460.845 135.897C460.397 135.24 459.997 134.514 459.614 133.781C458.019 130.729 458.042 130.233 460.458 128.161C461.906 126.92 462.334 125.102 461.686 123.318C460.266 119.411 461.706 115.17 460.681 111.274C460.586 110.915 460.688 110.273 460.877 109.983C462.824 106.985 461.43 103.546 461.234 100.538C460.627 91.2546 460.041 82.0028 460.83 72.7153C461.538 64.3851 460.661 55.9793 462.037 47.6008C462.587 44.2524 462.14 40.0579 461.925 36.4113C461.522 29.5674 463.449 22.1777 460.064 15.8482C460.601 12.506 458.58 12.7265 457.298 12.4115C455.305 11.9245 453.25 11.9203 451.222 11.7041C448.22 11.385 445.176 11.3745 442.234 10.6187C440.521 10.1799 438.773 9.60892 437.201 10.2534C434.718 11.2716 432.222 11.2968 429.795 10.8748C427.572 10.4885 425.527 9.64671 423.831 12.485C423.615 12.8461 423.119 13.0456 422.749 13.054C420.452 13.1001 418.078 13.5809 415.871 12.9595C411.314 11.6768 406.617 11.83 402.114 10.1422C401.555 9.93222 400.903 9.9826 400.423 10.5704C399.388 11.8363 398.142 11.809 396.885 11.7692C389.265 11.5256 381.647 11.2821 374.027 11.0323C373.634 11.0197 373.235 11.005 372.849 10.9021C367.253 9.40948 361.523 8.59284 355.906 8.62223C325.841 8.77758 295.763 7.1023 265.709 9.39269C263.407 9.56693 261.161 8.73769 258.904 8.52146C247.658 7.44659 236.375 7.66493 225.112 6.37173C215.974 5.32205 206.737 5.71673 197.543 5.77131C179.41 5.87838 161.277 5.78181 143.143 6.01484C133.431 6.1408 123.698 5.90147 113.975 5.73143C110.823 5.67684 107.695 6.43891 104.529 6.11981C95.248 5.1835 85.8988 6.60266 76.6471 4.63977C74.6222 4.2094 72.8075 5.63906 70.8557 5.71253C67.1487 5.84899 63.4965 5.55508 59.7726 4.99875C54.0223 4.14012 48.1304 3.62368 42.278 4.34796C38.8437 4.77203 35.3834 5.58657 32.0238 5.85529C28.1704 6.16179 24.0139 6.80629 20.1484 4.73004C19.8086 4.5474 19.3012 4.5369 18.9873 4.75943C17.1635 6.04003 15.1386 5.75662 13.2172 6.25416C12.1202 6.53758 11.6022 7.26395 11.1039 8.64532C10.304 10.8664 11.5747 12.6215 11.4468 14.6579C10.6865 26.8488 11.8033 39.0586 11.2304 51.2726C10.9257 57.7574 11.2807 64.2927 11.5976 70.807C12.1857 82.9307 11.1314 95.0398 11.1969 107.163C11.2014 107.961 11.0034 108.757 10.9272 109.559C10.467 114.379 7.83416 119.249 11.0887 123.998C11.1664 124.112 11.1634 124.34 11.1832 124.519C11.7454 129.522 13.7505 133.771 15.2315 138.228C18.093 146.837 20.9757 155.459 23.249 164.356C25.76 174.183 27.4894 184.39 29.557 194.433C29.6804 195.036 29.851 195.655 29.3741 196.4L29.3726 196.384ZM291.715 422.011C285.701 419.389 283.104 418.923 281.076 420.084C284.733 421.841 288.196 422.265 291.715 422.011Z" fill="#780E08"/>
<path d="M128.932 179.333C129.466 180.773 129.759 181.733 129.812 182.213C129.919 183.226 129.546 184.08 128.692 184.773C128.692 184.826 128.639 184.906 128.532 185.013C129.012 187.52 129.119 189.866 128.852 192.053C128.586 194.24 128.239 196.346 127.812 198.373C130.692 193.466 132.986 189.866 134.692 187.573C138.212 182.826 141.492 179.44 144.532 177.413C145.546 176.826 146.772 176.4 148.212 176.133C149.706 175.813 151.119 175.76 152.452 175.973C153.786 176.186 154.879 176.72 155.732 177.573C156.639 178.426 157.039 179.706 156.932 181.413C155.439 191.813 153.839 201.52 152.132 210.533C150.426 219.493 148.212 228.053 145.492 236.213V236.373H145.412C144.772 238.293 143.172 239.653 140.612 240.453C138.106 241.2 135.866 241.253 133.892 240.613C131.492 239.92 130.399 238.64 130.612 236.773L130.692 234.933V234.773C130.906 233.493 131.012 232.64 131.012 232.213C131.066 231.733 131.119 231.386 131.172 231.173C131.279 229.786 131.492 228.506 131.812 227.333C132.186 226.106 132.452 225.12 132.612 224.373C132.772 223.626 132.932 222.933 133.092 222.293C133.252 221.6 133.359 221.066 133.412 220.693C131.386 223.466 129.946 225.146 129.092 225.733C126.959 227.226 124.479 227.92 121.652 227.813C119.892 227.706 118.879 227.306 118.612 226.613C118.079 225.12 117.706 224.24 117.492 223.973C117.172 223.546 116.906 222.826 116.692 221.813C115.306 227.946 113.946 232.293 112.612 234.853C112.079 235.866 111.546 236.773 111.012 237.573C110.266 239.333 108.559 240.56 105.892 241.253C103.386 241.946 100.986 241.893 98.6922 241.093C96.3455 240.346 95.2255 239.013 95.3322 237.093C95.4389 235.173 95.8389 232.773 96.5322 229.893C97.1722 226.96 97.9455 223.866 98.8522 220.613C101.572 210.32 103.492 203.626 104.612 200.533C105.786 197.44 106.772 195.013 107.572 193.253C109.492 189.146 111.199 186.16 112.692 184.293C114.346 180.933 117.092 178.906 120.932 178.213C123.972 177.626 126.639 178 128.932 179.333ZM162.405 207.413C161.498 199.68 161.125 193.386 161.285 188.533C161.178 186.24 162.111 184.053 164.085 181.973C165.951 180 167.898 178.906 169.925 178.693C172.165 178.533 173.605 179.786 174.245 182.453C174.671 183.946 175.205 185.68 175.845 187.653C176.485 189.626 177.098 191.706 177.685 193.893C178.271 193.093 179.205 191.68 180.485 189.653C181.765 187.626 182.965 185.813 184.085 184.213C186.805 180.32 189.205 177.6 191.285 176.053C193.311 175.253 195.045 175.04 196.485 175.413C197.978 175.733 199.045 176.266 199.685 177.013C200.378 177.76 200.645 178.853 200.485 180.293C200.378 183.653 197.818 188.933 192.805 196.133C191.631 197.786 190.431 199.706 189.205 201.893C188.031 204.08 186.645 206.533 185.045 209.253C183.498 211.92 182.005 214.586 180.565 217.253C177.258 223.28 174.671 229.013 172.805 234.453C172.858 234.346 173.071 234.48 173.445 234.853C173.818 235.173 174.165 235.653 174.485 236.293C175.338 237.893 175.258 239.226 174.245 240.293C171.685 242.96 168.511 244.453 164.725 244.773C161.258 245.04 158.271 244.4 155.765 242.853C153.258 241.413 152.431 239.626 153.285 237.493H153.045C154.218 234.453 155.551 231.6 157.045 228.933C158.538 226.213 160.085 223.413 161.685 220.533L165.285 214.133C164.378 214.346 163.631 213.706 163.045 212.213C162.618 210.986 162.405 209.386 162.405 207.413ZM197.542 206.693C198.608 203.12 199.462 200.373 200.102 198.453C200.795 196.48 201.462 194.72 202.102 193.173C202.742 191.626 203.462 190.133 204.262 188.693C205.115 187.253 206.022 185.946 206.982 184.773C207.995 183.546 209.062 182.586 210.182 181.893C211.302 181.2 212.475 180.853 213.702 180.853C214.928 180.853 216.208 181.333 217.542 182.293C219.675 187.626 220.982 191.2 221.462 193.013C222.102 195.68 222.688 199.44 223.222 204.293C223.702 203.066 224.235 201.786 224.822 200.453C225.462 199.066 226.075 197.68 226.662 196.293C228.315 192.773 229.355 190.106 229.782 188.293C230.955 184.56 233.382 181.76 237.062 179.893C240.262 178.293 243.248 177.786 246.022 178.373C247.142 178.586 247.915 179.04 248.342 179.733C248.822 180.426 248.822 181.146 248.342 181.893C247.915 182.64 247.755 183.36 247.862 184.053C248.022 184.693 248.155 185.466 248.262 186.373C248.422 188.826 247.995 191.013 246.982 192.933C245.968 194.8 244.928 197.146 243.862 199.973C242.795 202.746 241.702 205.706 240.582 208.853C239.515 212 238.422 215.2 237.302 218.453C236.182 221.706 235.088 224.666 234.022 227.333C231.675 233.466 229.755 236.853 228.262 237.493C226.235 238.72 224.742 239.44 223.782 239.653C222.555 239.866 220.822 239.866 218.582 239.653C217.195 239.546 215.995 237.76 214.982 234.293C214.395 232.426 213.862 229.84 213.382 226.533C212.528 220.773 211.942 217.6 211.622 217.013C209.488 223.946 207.968 228.32 207.062 230.133C206.208 231.946 205.542 233.146 205.062 233.733C204.635 234.32 204.102 235.093 203.462 236.053C202.768 237.973 201.115 239.386 198.502 240.293C196.262 241.146 194.235 241.28 192.422 240.693C190.448 240.053 189.862 238.826 190.662 237.013C191.248 230.613 193.542 220.506 197.542 206.693ZM292.252 205.253C292.039 207.546 291.612 209.893 290.972 212.293C290.386 214.693 289.506 217.04 288.332 219.333C287.212 221.626 285.852 223.84 284.252 225.973C282.706 228.106 280.972 230.08 279.052 231.893C277.132 233.706 275.079 235.226 272.892 236.453C268.199 239.226 263.666 240.213 259.292 239.413C258.332 241.493 256.892 242.8 254.972 243.333C253.106 243.92 251.239 243.92 249.372 243.333C247.559 242.8 245.959 241.76 244.572 240.213C243.186 238.666 242.492 236.56 242.492 233.893C242.492 231.173 242.679 228.4 243.052 225.573C243.426 222.746 243.932 220.026 244.572 217.413C245.586 213.093 246.839 209.04 248.332 205.253C251.852 196.666 253.852 190.64 254.332 187.173C255.026 182.533 256.306 179.653 258.172 178.533C261.266 176.72 264.199 175.946 266.972 176.213C269.746 176.48 272.252 177.146 274.492 178.213C278.172 179.973 282.146 182.933 286.412 187.093C291.106 191.626 293.052 197.68 292.252 205.253ZM260.812 229.253C263.532 227.866 265.719 226.453 267.372 225.013C269.079 223.52 270.679 222.16 272.172 220.933C274.466 218.64 276.146 215.92 277.212 212.773C279.559 205.84 278.066 200.586 272.732 197.013C271.932 196.426 270.732 195.626 269.132 194.613C268.386 196.32 267.826 198.106 267.452 199.973C267.132 201.84 266.679 203.653 266.092 205.413L263.932 212.453L262.172 220.053C262.066 221.12 261.906 222.16 261.692 223.173C261.479 224.133 261.292 225.146 261.132 226.213L260.812 229.253ZM308.072 227.653C311.166 227.973 313.459 228.133 314.952 228.133C316.499 228.133 318.819 227.92 321.912 227.493C322.872 227.813 323.432 228.213 323.592 228.693C323.752 229.173 323.806 229.68 323.752 230.213C323.699 230.693 323.726 231.173 323.832 231.653C323.939 232.133 324.446 232.533 325.352 232.853C325.832 233.013 325.966 233.493 325.752 234.293C325.592 235.04 325.166 235.866 324.472 236.773C322.712 239.066 320.632 240.666 318.232 241.573C314.392 242.533 311.379 243.093 309.192 243.253C305.566 243.52 301.619 243.386 297.352 242.853C292.659 242 290.392 240.053 290.552 237.013C290.552 225.813 293.006 214.56 297.912 203.253C299.512 199.573 301.326 195.706 303.352 191.653C303.779 190.8 304.019 189.84 304.072 188.773C304.179 187.706 304.259 186.666 304.312 185.653C304.366 184.64 304.526 183.733 304.792 182.933C305.059 182.133 305.619 181.573 306.472 181.253C317.566 176.826 326.339 175.12 332.792 176.133C335.032 176.186 336.499 176.96 337.192 178.453C337.939 179.893 338.019 181.52 337.432 183.333C336.899 185.146 335.806 186.853 334.152 188.453C332.552 190.053 330.526 191.04 328.072 191.413C324.926 192.32 323.006 192.933 322.312 193.253C320.979 193.893 320.019 194.746 319.432 195.813C318.686 196.986 317.992 198.106 317.352 199.173C316.712 200.24 316.259 201.386 315.992 202.613L315.672 204.373C316.686 204.853 317.912 205.013 319.352 204.853C320.846 204.64 322.206 204.453 323.432 204.293C324.712 204.08 325.726 204.053 326.472 204.213C327.272 204.373 327.432 205.173 326.952 206.613C326.526 208 325.699 209.573 324.472 211.333C323.299 213.093 321.619 214.373 319.432 215.173C318.046 215.44 317.086 215.653 316.552 215.813C316.072 215.92 315.699 216 315.432 216.053C315.059 216.106 313.992 216.186 312.232 216.293C309.726 220.56 308.206 223.866 307.672 226.213C307.459 227.173 307.592 227.653 308.072 227.653ZM345.945 237.973C345.465 240.106 343.812 241.413 340.985 241.893C338.372 242.373 335.892 242.08 333.545 241.013C330.932 239.893 329.785 238.32 330.105 236.293C329.785 233.2 331.412 226.48 334.985 216.133C340.319 200.613 345.652 189.52 350.985 182.853C352.372 181.146 353.545 180.053 354.505 179.573C355.519 179.04 356.665 178.56 357.945 178.133C359.225 177.706 360.559 177.306 361.945 176.933C364.719 176.186 367.332 175.68 369.785 175.413C372.292 175.093 374.532 175.386 376.505 176.293C378.479 177.146 379.999 178.426 381.065 180.133C382.185 181.84 382.879 183.866 383.145 186.213C383.412 188.506 383.332 190.933 382.905 193.493C382.479 196 381.705 198.56 380.585 201.173C379.465 203.733 378.052 206.133 376.345 208.373C372.612 213.28 368.239 216.453 363.225 217.893L364.025 219.253C364.719 220.32 365.545 221.493 366.505 222.773C367.519 224.053 368.505 225.36 369.465 226.693C370.479 228.026 371.385 229.36 372.185 230.693C372.985 232.026 373.572 233.28 373.945 234.453C374.799 237.066 374.132 238.96 371.945 240.133C370.185 241.2 368.799 241.466 367.785 240.933C367.359 240.666 366.932 240.32 366.505 239.893C366.079 239.52 365.492 239.2 364.745 238.933C361.599 239.84 359.199 239.04 357.545 236.533C356.532 234.933 355.759 233.466 355.225 232.133C354.692 230.8 354.239 229.68 353.865 228.773C352.905 226.8 351.812 225.093 350.585 223.653C349.999 225.093 349.332 226.933 348.585 229.173C347.679 232 346.665 234.933 345.545 237.973H345.945ZM362.105 191.413C361.092 193.706 360.399 195.306 360.025 196.213C359.279 198.026 358.452 200.026 357.545 202.213C357.385 203.386 357.252 204.213 357.145 204.693L358.265 203.573L359.625 202.933C360.585 202.4 361.465 201.92 362.265 201.493C363.065 201.066 363.785 200.533 364.425 199.893C365.652 198.666 366.719 196.666 367.625 193.893C367.625 193.36 367.705 192.826 367.865 192.293C368.079 191.76 368.212 191.226 368.265 190.693C368.479 189.52 367.999 188.693 366.825 188.213C365.759 188.106 364.425 188.986 362.825 190.853C362.505 191.226 362.265 191.413 362.105 191.413Z" fill="#780E08"/>
</svg>
