<svg width="476" height="433" viewBox="0 0 476 433" fill="none" xmlns="http://www.w3.org/2000/svg">
<path d="M6.60249 345.58C6.60249 322.664 6.61772 299.747 6.58877 276.833C6.58419 272.748 6.78379 268.692 7.12205 264.644C7.22261 263.448 7.12967 262.318 6.93921 261.155C6.75333 260.017 6.53238 258.812 6.61923 257.679C7.3643 248.036 6.23071 238.421 6.47754 228.773C6.72437 219.093 6.84931 209.368 6.46992 199.705C4.85789 158.743 5.85131 117.738 5.13519 76.7737C4.93102 65.137 4.89599 53.4773 4.5425 41.8406C4.24234 31.9737 5.7203 22.2348 5.54661 12.3658C5.50395 9.92211 5.06512 9.33848 3.47442 9.57151C2.63488 9.69537 1.76944 9.55473 0.919239 9.45606C0.439287 9.39938 0.0157054 9.09077 0.000468786 8.29722C-0.0162915 7.46378 0.425561 7.14888 0.905513 7.19926C2.09092 7.32522 2.84058 6.66812 3.4409 5.25106C3.95742 4.03134 4.95846 3.99566 5.9077 3.99566C9.06319 3.99776 12.2187 4.06073 15.3712 3.93897C32.782 3.26718 50.1959 3.38685 67.6082 3.47292C71.4646 3.49182 75.3667 4.19509 79.1652 3.33016C87.4006 1.45544 95.6679 2.58697 103.915 2.34135C116.856 1.95507 129.804 2.02436 142.746 1.67587C184.674 0.54642 226.604 1.70527 268.532 1.20982C273.461 1.15104 278.393 1.04608 283.319 1.22243C285.458 1.3001 287.384 -0.213556 289.525 0.141233C290.753 0.34487 292.022 0.0173759 293.192 0.880208C293.459 1.07755 293.861 1.15732 294.146 1.03976C298.159 -0.612426 302.154 -0.0602712 306.164 1.06708C306.925 1.28121 307.737 1.15103 308.526 1.15103C329.821 1.19512 351.12 0.901201 372.41 1.35256C404.613 2.03275 436.814 1.53729 469.016 1.81441C470.067 1.8228 471.119 1.82494 472.17 1.85433C475.073 1.93621 475.47 2.44842 475.484 6.44768C475.546 24.9261 475.391 43.4088 475.711 61.8789C475.932 74.6513 475.44 87.4111 475.691 100.165C476.112 121.448 476.049 142.733 475.821 164.008C475.522 191.801 474.664 219.605 475.298 247.388C475.827 270.567 475.886 293.733 475.903 316.908C475.918 336.545 476.063 356.186 475.841 375.819C475.647 392.843 475.67 409.865 475.603 426.886C475.586 430.711 474.763 431.891 472.156 431.899C450.142 431.962 428.13 432.821 406.115 432.294C401.123 432.174 396.112 432.372 391.149 431.794C389.07 431.553 387.194 431.16 385.034 431.731C382.623 432.367 379.932 432.506 377.476 430.978C377.142 430.77 376.676 430.759 376.312 430.881C370.277 432.907 364.097 432.307 358.092 431.586C346.538 430.201 335.003 431.335 323.467 430.827C319.403 430.648 315.346 430.696 311.273 430.331C305.934 429.85 300.544 430.356 295.228 431.61C294.393 431.807 293.524 431.78 292.672 431.78C279.855 431.78 267.019 432.426 254.227 431.633C208.391 428.792 162.535 431.045 116.694 430.169C104.735 429.941 92.7699 430.033 80.8092 430.199C78.216 430.235 75.7537 429.376 73.2138 429.12C69.8831 428.784 66.5417 429.12 63.2064 428.895C57.7867 428.534 52.2467 428.862 46.76 429.85C43.0484 430.52 39.2332 430.14 35.4118 429.475C30.2969 428.587 25.0784 428.07 19.8888 428.773C16.6068 429.218 13.3218 429.086 10.0414 429.027C7.43899 428.981 7.02454 428.242 6.90112 424.636C6.25814 405.807 6.74572 386.967 6.61012 368.134C6.55679 360.616 6.60097 353.098 6.60097 345.58H6.60249ZM446.627 236.081C447.475 236.83 447.846 237.869 448.313 238.85C449.542 241.44 449.851 244.596 451.13 247.165C452.841 250.606 452.795 250.644 454.415 247.22C454.665 246.691 454.881 246.065 455.233 245.706C456.169 244.749 457.316 243.67 458.407 244.371C461.14 246.124 462.28 250.064 464.09 253.075C464.46 253.69 464.093 254.83 463.865 255.688C463.73 256.192 463.52 256.679 463.476 257.198C463.42 257.84 463.759 258.168 464.2 258.243C464.648 258.319 464.834 257.842 464.788 257.408C464.536 255.05 465.754 253.108 465.857 251.024C466.141 245.288 466.051 239.538 466.746 233.811C467.119 230.725 466.753 227.482 466.842 224.316C467.402 204.236 466.182 184.206 465.935 164.149C465.806 153.656 466.991 143.264 466.785 132.807C466.47 116.821 467.474 100.818 466.118 84.8352C465.464 77.1264 466.209 69.3525 466.756 61.6185C467.105 56.6767 466.586 51.6634 467.043 46.6985C467.139 45.6551 466.903 44.66 466.458 43.8854C465.068 41.4711 464.011 38.8658 462.132 36.7623C460.09 34.4782 458.407 31.4299 456.233 29.1143C454.951 27.7498 453.399 26.6308 452.426 25.0206C450.947 22.5728 449.067 20.7212 447.663 18.2187C445.963 15.1831 443.368 13.5183 441.54 10.659C440.656 9.27761 439.366 8.79895 438.115 9.07186C436.422 9.44135 434.729 9.16424 433.033 9.39307C431.569 9.59041 430.076 9.9536 428.54 9.68068C424.443 8.95221 420.312 8.57012 416.197 9.286C414.525 9.57781 412.907 8.01589 411.213 9.25241C410.913 9.47074 410.273 8.76957 409.779 8.53024C409.292 8.29302 408.8 7.9802 408.294 7.91512C403.444 7.27902 398.605 8.31612 393.746 8.19645C391.898 8.15237 389.816 7.50996 387.928 8.84935C387.503 9.15165 386.757 8.80524 386.214 8.54072C381.494 6.24194 376.714 7.41759 372.014 8.37699C369.539 8.88294 367.079 9.23352 364.621 9.13275C358.578 8.88293 352.535 8.87244 346.497 9.10966C344.554 9.18524 342.63 9.9389 340.64 9.70797C334.773 9.02778 328.887 8.97529 323.013 8.07467C316.291 7.0439 309.579 8.55752 302.885 9.77724C298.925 10.4994 294.885 10.5561 290.911 9.68698C288.894 9.24612 286.974 9.29231 285.149 10.4994C283.872 11.3455 282.473 11.6163 281.33 10.85C277.45 8.24682 273.357 9.15583 269.316 8.96269C268.097 8.90391 267.179 10.4197 265.906 9.89062C261.777 8.17335 257.586 9.02989 253.399 9.3196C247.5 9.72897 241.61 9.63239 235.781 8.05159C235.138 7.87734 234.222 7.54145 233.905 8.26993C232.847 10.6968 231.181 9.86333 229.692 10.1635C227.184 10.6695 224.696 11.4148 222.189 10.1635C221.959 10.0502 221.655 10.1005 221.408 10.195C216.302 12.1474 211.091 10.871 205.932 11.1376C205.414 11.1649 204.788 11.2153 204.389 10.8689C203.18 9.82344 202.111 10.7513 200.991 11.0641C200.665 11.1565 200.31 11.2531 200.267 11.8073C200.221 12.4035 200.424 12.9536 200.835 13.0921C202.252 13.575 202.722 15.5085 203.749 16.5749C204.081 16.9192 204.386 17.2992 204.235 17.9143C204.063 18.6197 203.59 18.7982 203.116 18.794C201.935 18.7814 200.733 18.8968 199.575 18.647C195.001 17.6645 190.63 15.4077 185.99 14.6435C184.488 14.3958 182.186 14.0305 181.817 10.6338C181.75 10.0145 181.031 9.70377 180.648 9.98928C179.139 11.1187 177.316 9.74365 175.826 11.3518C175.055 12.1831 173.934 11.7695 172.943 11.6331C168.855 11.0705 164.761 10.1467 160.67 10.153C155.854 10.1614 151.05 9.83393 146.185 10.9592C141.772 11.9795 137.142 11.2153 132.606 11.2216C122.568 11.2363 112.527 11.379 102.491 11.1943C96.6096 11.0872 90.7358 11.6436 84.8271 10.3525C81.2617 9.5736 77.4846 10.2874 73.8004 10.1278C65.9886 9.78775 58.1631 10.5267 50.3574 9.57361C49.7068 9.49384 49.009 9.40778 48.3949 9.6387C46.3136 10.4239 44.2125 10.0858 42.1189 10.2244C39.7451 10.384 37.3393 10.1782 34.909 11.0599C31.717 12.2188 28.339 10.9172 25.0601 10.6338C23.6873 10.5162 22.5902 11.7548 21.2905 11.2132C18.9776 10.2496 16.6556 11.5806 14.3366 11.188C13.1009 10.9781 12.5844 11.7569 12.4533 13.4679C12.0526 18.7121 12.3421 23.9667 12.2705 29.213C12.2278 32.3284 13.0521 32.9184 15.01 31.2011C15.7551 30.5482 16.3707 30.0296 17.1112 30.8988C17.8273 31.7385 17.7115 32.9079 17.4006 33.9135C16.9298 35.4376 16.7622 37.0247 16.5444 38.6307C15.9227 43.2115 15.5783 47.9539 13.1344 51.6361C12.8129 52.1211 12.6956 52.7152 12.6621 53.3765C12.3162 60.3064 11.7677 67.2322 12.2477 74.1852C12.3863 76.1943 11.3944 77.7478 11.4051 79.6918C11.4294 84.7638 11.3594 89.8359 11.3396 94.9079C11.3304 97.1353 11.0729 99.4194 12.5158 101.2C13.0049 101.802 12.9058 102.881 12.8647 103.799C12.3756 115.005 12.1669 126.224 12.2949 137.447C12.467 152.562 13.0369 167.667 12.8876 182.791C12.851 186.576 12.6179 190.342 12.8464 194.146C12.9805 196.369 13.3218 197.78 15.0131 198.639C16.8582 199.577 18.871 200.345 19.9482 203.15C21.0605 206.052 20.3901 208.399 18.0315 208.917C16.9999 209.144 15.9257 208.98 14.8866 209.167C13.3447 209.446 12.6392 210.723 13.1755 212.805C14.1156 216.458 14.2695 220.43 14.6047 224.095C15.3209 231.926 15.6027 239.929 15.2919 247.925C15.0969 252.926 15.0588 257.962 15.4428 263.036C15.8846 268.881 16.1848 274.933 14.1918 280.562C13.9389 281.275 13.5824 282.281 13.9328 282.902C15.5555 285.785 14.5849 289.265 15.2127 292.358C15.3376 292.971 15.4732 293.75 15.0314 294.119C13.8353 295.123 14.6108 295.771 15.1548 296.567C15.6027 297.224 16.0035 297.95 16.3859 298.683C17.9812 301.736 17.9583 302.231 15.5418 304.303C14.0943 305.544 13.6662 307.362 14.3137 309.146C15.7338 313.053 14.2939 317.294 15.3193 321.19C15.4138 321.549 15.3117 322.192 15.1228 322.481C13.1755 325.479 14.5697 328.918 14.7663 331.926C15.3727 341.21 15.9593 350.461 15.17 359.749C14.4615 368.079 15.3392 376.485 13.9633 384.863C13.4133 388.212 13.8597 392.406 14.0745 396.053C14.4783 402.897 12.5509 410.287 15.9364 416.616C15.3986 419.958 17.4205 419.738 18.7018 420.053C20.6948 420.54 22.7502 420.544 24.7782 420.76C27.7798 421.079 30.8241 421.09 33.7663 421.846C35.4789 422.284 37.2265 422.855 38.7989 422.211C41.2825 421.193 43.7782 421.167 46.2054 421.589C48.4284 421.976 50.4732 422.818 52.169 419.979C52.3854 419.618 52.8806 419.419 53.2508 419.41C55.5485 419.364 57.9224 418.883 60.1286 419.505C64.6859 420.787 69.3833 420.634 73.8857 422.322C74.4449 422.532 75.097 422.482 75.577 421.894C76.6115 420.628 77.8579 420.655 79.1149 420.695C86.7347 420.939 94.353 421.182 101.973 421.432C102.366 421.445 102.765 421.459 103.151 421.562C108.747 423.055 114.477 423.871 120.094 423.842C150.159 423.687 180.237 425.362 210.291 423.072C212.593 422.897 214.839 423.727 217.096 423.943C228.342 425.018 239.625 424.799 250.888 426.093C260.026 427.142 269.263 426.748 278.457 426.693C296.59 426.586 314.723 426.682 332.857 426.449C342.569 426.323 352.302 426.563 362.025 426.733C365.177 426.787 368.305 426.025 371.471 426.344C380.752 427.281 390.101 425.862 399.353 427.824C401.378 428.255 403.192 426.825 405.144 426.752C408.851 426.615 412.504 426.909 416.227 427.465C421.978 428.324 427.87 428.841 433.722 428.116C437.156 427.692 440.617 426.878 443.976 426.609C447.83 426.302 451.986 425.658 455.852 427.734C456.191 427.917 456.699 427.927 457.013 427.705C458.836 426.424 460.861 426.708 462.783 426.21C463.88 425.927 464.398 425.2 464.896 423.819C465.696 421.598 464.425 419.843 464.553 417.806C465.314 405.615 464.197 393.406 464.77 381.192C465.074 374.707 464.719 368.172 464.402 361.657C463.814 349.534 464.869 337.424 464.803 325.301C464.799 324.503 464.997 323.707 465.073 322.905C465.533 318.085 468.166 313.215 464.911 308.466C464.834 308.353 464.837 308.124 464.817 307.945C464.255 302.943 462.249 298.694 460.768 294.237C457.907 285.627 455.024 277.005 452.751 268.108C450.24 258.281 448.511 248.074 446.443 238.031C446.32 237.428 446.149 236.809 446.626 236.064L446.627 236.081ZM184.285 10.4533C190.299 13.0753 192.896 13.5414 194.924 12.3804C191.267 10.6233 187.804 10.1992 184.285 10.4533Z" fill="#780E08"/>
<path d="M76.28 202.64C73.56 202.747 71.0533 202.4 68.76 201.6C66.52 200.853 64.68 199.813 63.24 198.48C61.8533 197.147 60.9733 195.6 60.6 193.84C60.2267 192.027 60.5467 190.187 61.56 188.32C62.9467 186.08 65.72 185.413 69.88 186.32C73.0267 186.96 75.1867 187.307 76.36 187.36C77.5867 187.413 78.6267 187.253 79.48 186.88C83.3733 185.6 85.56 184.213 86.04 182.72C86.36 181.6 85.6667 180.293 83.96 178.8C83.2667 178.16 82.4933 177.52 81.64 176.88C80.7867 176.24 80.0667 175.6 79.48 174.96C76.8133 172.987 74.7067 170.72 73.16 168.16C71.6667 165.547 71.0533 162.72 71.32 159.68C71.5867 156.64 72.0933 154.133 72.84 152.16C73.5867 150.133 74.52 148.347 75.64 146.8C77.6133 144.08 80.1733 141.867 83.32 140.16C86.9467 138.293 89.8533 137.093 92.04 136.56C96.36 135.6 100.733 135.52 105.16 136.32C106.653 136.587 107.933 137.093 109 137.84C110.067 138.587 111.133 139.36 112.2 140.16C114.067 142.027 114.52 143.92 113.56 145.84C113.187 146.693 112.6 147.387 111.8 147.92C111 148.453 110.147 148.747 109.24 148.8C109.347 150.24 109.08 151.307 108.44 152C107.213 153.227 105.08 154.027 102.04 154.4C97.6667 154.08 94.7067 154.32 93.16 155.12C91.3467 156.08 90.68 158.16 91.16 161.36C91.2667 162.053 91.6933 162.773 92.44 163.52C93.24 164.267 94.1467 165.067 95.16 165.92C96.2267 166.773 97.32 167.733 98.44 168.8C99.6133 169.867 100.627 171.093 101.48 172.48C104.467 177.387 104.227 183.12 100.76 189.68C98.2 194.587 93.8267 198.267 87.64 200.72C84.44 202 80.6533 202.64 76.28 202.64ZM125.221 187.92C128.314 188.24 130.607 188.4 132.101 188.4C133.647 188.4 135.967 188.187 139.061 187.76C140.021 188.08 140.581 188.48 140.741 188.96C140.901 189.44 140.954 189.947 140.901 190.48C140.847 190.96 140.874 191.44 140.981 191.92C141.087 192.4 141.594 192.8 142.501 193.12C142.981 193.28 143.114 193.76 142.901 194.56C142.741 195.307 142.314 196.133 141.621 197.04C139.861 199.333 137.781 200.933 135.381 201.84C131.541 202.8 128.527 203.36 126.341 203.52C122.714 203.787 118.767 203.653 114.501 203.12C109.807 202.267 107.541 200.32 107.701 197.28C107.701 186.08 110.154 174.827 115.061 163.52C116.661 159.84 118.474 155.973 120.501 151.92C120.927 151.067 121.167 150.107 121.221 149.04C121.327 147.973 121.407 146.933 121.461 145.92C121.514 144.907 121.674 144 121.941 143.2C122.207 142.4 122.767 141.84 123.621 141.52C134.714 137.093 143.487 135.387 149.941 136.4C152.181 136.453 153.647 137.227 154.341 138.72C155.087 140.16 155.167 141.787 154.581 143.6C154.047 145.413 152.954 147.12 151.301 148.72C149.701 150.32 147.674 151.307 145.221 151.68C142.074 152.587 140.154 153.2 139.461 153.52C138.127 154.16 137.167 155.013 136.581 156.08C135.834 157.253 135.141 158.373 134.501 159.44C133.861 160.507 133.407 161.653 133.141 162.88L132.821 164.64C133.834 165.12 135.061 165.28 136.501 165.12C137.994 164.907 139.354 164.72 140.581 164.56C141.861 164.347 142.874 164.32 143.621 164.48C144.421 164.64 144.581 165.44 144.101 166.88C143.674 168.267 142.847 169.84 141.621 171.6C140.447 173.36 138.767 174.64 136.581 175.44C135.194 175.707 134.234 175.92 133.701 176.08C133.221 176.187 132.847 176.267 132.581 176.32C132.207 176.373 131.141 176.453 129.381 176.56C126.874 180.827 125.354 184.133 124.821 186.48C124.607 187.44 124.741 187.92 125.221 187.92ZM176.854 201.84C175.734 202.16 174.667 202.32 173.654 202.32C172.64 202.373 171.6 202.427 170.534 202.48C169.52 202.533 168.107 202.56 166.294 202.56C164.48 202.56 161.76 202.507 158.134 202.4C157.28 202.453 156.427 202.48 155.574 202.48C154.72 202.48 153.92 202.32 153.174 202C151.52 201.307 150.4 199.707 149.814 197.2C149.547 196.027 149.254 195.2 148.934 194.72C148.56 194.24 148.267 193.787 148.054 193.36C147.52 192.507 147.574 191.093 148.214 189.12C148.8 187.147 149.574 184.72 150.534 181.84C151.494 178.907 152.587 175.813 153.814 172.56C156.694 164.827 159.28 158.693 161.574 154.16C162.48 152.133 163.254 150.373 163.894 148.88C164.587 147.387 165.2 146.107 165.734 145.04C166.267 143.92 166.534 143.333 166.534 143.28C167.067 141.253 169.12 139.547 172.694 138.16C176.16 136.72 179.307 136.347 182.134 137.04C185.28 137.84 186.667 139.92 186.294 143.28C185.547 146.587 184.427 149.893 182.934 153.2C181.494 156.507 179.84 159.973 177.974 163.6C176.107 167.227 174.08 171.067 171.894 175.12C169.707 179.173 167.547 183.573 165.414 188.32C165.36 188.533 165.467 188.72 165.734 188.88C166.427 188.827 167.387 188.613 168.614 188.24C169.894 187.867 171.2 187.547 172.534 187.28C173.92 186.96 175.28 186.8 176.614 186.8C177.947 186.8 179.067 187.147 179.974 187.84C179.92 188.8 180.16 189.573 180.694 190.16C181.227 190.693 181.76 191.227 182.294 191.76C183.627 193.147 183.734 194.987 182.614 197.28C181.547 199.52 179.627 201.04 176.854 201.84ZM199.718 202.64C196.998 202.747 194.491 202.4 192.198 201.6C189.958 200.853 188.118 199.813 186.678 198.48C185.291 197.147 184.411 195.6 184.037 193.84C183.664 192.027 183.984 190.187 184.997 188.32C186.384 186.08 189.158 185.413 193.318 186.32C196.464 186.96 198.624 187.307 199.798 187.36C201.024 187.413 202.064 187.253 202.918 186.88C206.811 185.6 208.998 184.213 209.478 182.72C209.798 181.6 209.104 180.293 207.398 178.8C206.704 178.16 205.931 177.52 205.078 176.88C204.224 176.24 203.504 175.6 202.918 174.96C200.251 172.987 198.144 170.72 196.598 168.16C195.104 165.547 194.491 162.72 194.758 159.68C195.024 156.64 195.531 154.133 196.278 152.16C197.024 150.133 197.958 148.347 199.078 146.8C201.051 144.08 203.611 141.867 206.758 140.16C210.384 138.293 213.291 137.093 215.478 136.56C219.798 135.6 224.171 135.52 228.598 136.32C230.091 136.587 231.371 137.093 232.438 137.84C233.504 138.587 234.571 139.36 235.638 140.16C237.504 142.027 237.958 143.92 236.998 145.84C236.624 146.693 236.038 147.387 235.238 147.92C234.438 148.453 233.584 148.747 232.678 148.8C232.784 150.24 232.518 151.307 231.878 152C230.651 153.227 228.518 154.027 225.478 154.4C221.104 154.08 218.144 154.32 216.598 155.12C214.784 156.08 214.118 158.16 214.598 161.36C214.704 162.053 215.131 162.773 215.878 163.52C216.678 164.267 217.584 165.067 218.598 165.92C219.664 166.773 220.758 167.733 221.878 168.8C223.051 169.867 224.064 171.093 224.918 172.48C227.904 177.387 227.664 183.12 224.198 189.68C221.638 194.587 217.264 198.267 211.078 200.72C207.878 202 204.091 202.64 199.718 202.64ZM244.978 141.2C245.991 138.747 247.431 137.867 249.298 138.56C249.831 137.387 250.285 136.64 250.658 136.32C251.085 136 251.511 135.76 251.938 135.6C252.365 135.387 252.818 135.173 253.298 134.96C253.778 134.747 254.525 134.56 255.538 134.4C256.551 134.24 257.671 134.16 258.898 134.16C260.125 134.107 261.351 134.16 262.578 134.32C263.858 134.48 264.925 134.827 265.778 135.36C267.858 136.587 268.311 138.56 267.138 141.28C267.245 141.227 267.218 141.28 267.058 141.44L266.338 142.8L265.778 143.52C265.511 143.787 264.685 145.413 263.298 148.4C262.178 150.533 261.031 152.64 259.858 154.72C257.938 158.293 256.765 160.587 256.338 161.6C258.205 160.587 260.365 159.12 262.818 157.2C267.458 153.627 270.418 151.493 271.698 150.8C272.978 150.107 273.858 149.68 274.338 149.52C274.871 149.36 275.378 149.333 275.858 149.44C276.338 149.493 276.845 149.627 277.378 149.84L279.378 150.64C280.658 151.067 281.351 152.613 281.458 155.28C281.511 157.893 280.978 159.867 279.858 161.2C275.005 167.493 269.538 171.707 263.458 173.84C261.591 174.533 259.671 175.12 257.698 175.6C260.525 175.92 263.218 177.787 265.778 181.2C267.858 183.973 269.351 186.827 270.258 189.76C271.218 192.693 271.965 194.88 272.498 196.32C273.031 197.707 273.245 198.773 273.138 199.52C273.085 200.32 272.631 200.907 271.778 201.28C270.978 201.707 269.591 202.107 267.618 202.48C266.711 202.64 264.845 201.573 262.018 199.28C260.791 198.267 259.485 197.173 258.098 196C256.711 194.773 255.325 193.627 253.938 192.56C250.738 190.053 248.498 188.747 247.218 188.64C247.111 188.64 246.898 188.587 246.578 188.48L245.138 192.08C244.391 193.84 243.618 195.707 242.818 197.68C242.071 199.6 241.165 201.333 240.098 202.88C238.445 204 236.525 204.453 234.338 204.24C231.831 203.973 230.178 202.96 229.378 201.2C228.845 199.547 229.725 194.693 232.018 186.64C233.565 180.987 234.898 176.027 236.018 171.76C237.138 167.493 238.098 163.973 238.898 161.2C239.698 158.373 240.285 156.187 240.658 154.64C241.031 153.04 241.405 151.493 241.778 150C242.685 146.533 243.751 143.6 244.978 141.2ZM321.146 143.76C322.96 144.72 324.106 146.133 324.586 148C323.52 153.973 322.56 159.92 321.706 165.84C320.853 171.707 320.026 176.64 319.226 180.64C318.426 184.587 317.866 187.547 317.546 189.52C317.28 191.493 316.96 193.467 316.586 195.44L316.106 197.12C316 197.707 315.893 198.24 315.786 198.72C315.68 199.253 315.573 199.813 315.466 200.4C313.973 202.107 311.946 202.96 309.386 202.96C306.666 202.96 304.506 202.267 302.906 200.88C301.946 200.133 301.786 198.56 302.426 196.16C302.693 195.2 302.853 193.973 302.906 192.48C303.013 190.933 303.12 189.653 303.226 188.64V188.48C301.626 189.067 300.186 189.84 298.906 190.8C297.626 191.707 296.826 192.293 296.506 192.56C296.186 192.773 295.76 192.96 295.226 193.12C294.693 193.227 294.213 193.307 293.786 193.36C292.773 193.413 292.08 193.573 291.706 193.84C288.613 199.387 285.84 202.48 283.386 203.12C281.84 203.6 280.293 203.707 278.746 203.44C277.2 203.227 275.973 202.32 275.066 200.72C273.36 199.12 273.786 194.747 276.346 187.6C277.733 183.813 279.706 179.28 282.266 174C284.88 168.667 287.386 164.027 289.786 160.08C294.96 151.6 300.64 144.453 306.826 138.64C307.84 138.213 308.933 137.733 310.106 137.2C311.28 136.613 312.426 136.293 313.546 136.24C314.72 136.187 315.92 136.32 317.146 136.64C318.373 136.96 319.413 137.44 320.266 138.08C322.24 139.573 322.533 141.467 321.146 143.76ZM304.026 164.8C302.906 168 301.786 170.96 300.666 173.68C299.546 176.347 298.586 178.693 297.786 180.72L304.106 180.48C304.533 177.067 305.013 173.68 305.546 170.32C306.08 166.96 306.586 163.6 307.066 160.24L304.026 164.8ZM301.866 180.8C302.613 180.8 303.36 180.747 304.106 180.64V180.56C303.413 180.613 302.773 180.667 302.186 180.72C301.6 180.773 301.493 180.8 301.866 180.8ZM364.302 137.68L364.623 137.76C365.956 138.56 367.103 139.467 368.063 140.48C369.076 141.44 369.983 142.48 370.783 143.6C371.636 144.667 372.303 145.84 372.783 147.12C374.809 152.027 373.049 157.52 367.503 163.6C365.156 166.16 362.516 168.347 359.583 170.16C360.329 170.693 361.023 171.093 361.663 171.36C362.356 171.573 363.316 172.027 364.543 172.72C365.769 173.36 366.569 174.613 366.943 176.48C367.316 178.293 367.209 180.347 366.623 182.64C366.089 184.933 365.076 187.307 363.583 189.76C362.143 192.16 360.249 194.32 357.903 196.24C352.569 200.667 346.383 202.533 339.343 201.84C338.329 201.84 337.689 201.76 337.423 201.6C337.156 201.44 336.943 201.307 336.783 201.2C336.623 201.093 336.276 201.013 335.743 200.96C334.409 202.027 332.889 202.693 331.183 202.96C329.476 203.227 327.849 203.093 326.303 202.56C324.809 202.027 323.529 201.12 322.463 199.84C321.449 198.56 320.942 196.88 320.942 194.8C321.102 193.413 321.369 192.32 321.742 191.52C321.582 191.04 321.502 190.453 321.502 189.76C323.316 180.107 325.023 172.72 326.623 167.6C329.876 157.413 333.396 149.733 337.183 144.56C340.276 140.187 344.569 137.36 350.063 136.08C355.343 134.853 360.089 135.387 364.302 137.68ZM339.423 193.52C340.063 193.36 340.596 193.333 341.023 193.44C341.503 193.493 342.063 193.467 342.703 193.36C344.249 193.2 346.329 192.24 348.943 190.48C350.596 188.827 351.476 187.2 351.583 185.6C351.689 184 351.449 182.987 350.863 182.56C350.276 182.08 349.476 181.84 348.463 181.84C347.503 181.84 346.409 182 345.183 182.32C344.009 182.587 342.863 182.747 341.743 182.8V182.96C341.476 184.027 341.209 184.96 340.943 185.76C340.676 186.56 340.436 187.333 340.223 188.08C339.743 189.84 339.369 191.653 339.103 193.52H339.423ZM354.303 151.92C352.703 151.707 350.969 152.96 349.103 155.68C347.929 157.387 347.023 159.973 346.383 163.44C347.503 162.96 348.596 162.56 349.663 162.24C350.783 161.867 351.823 161.467 352.783 161.04C355.129 160.027 356.809 158.8 357.823 157.36C358.996 155.973 359.369 154.8 358.943 153.84C358.303 152.987 357.263 152.213 355.823 151.52C355.396 151.893 354.889 152.027 354.303 151.92ZM353.103 151.6H353.343H353.103ZM382.139 202.64C379.419 202.747 376.913 202.4 374.619 201.6C372.379 200.853 370.539 199.813 369.099 198.48C367.713 197.147 366.833 195.6 366.459 193.84C366.086 192.027 366.406 190.187 367.419 188.32C368.806 186.08 371.579 185.413 375.739 186.32C378.886 186.96 381.046 187.307 382.219 187.36C383.446 187.413 384.486 187.253 385.339 186.88C389.233 185.6 391.419 184.213 391.899 182.72C392.219 181.6 391.526 180.293 389.819 178.8C389.126 178.16 388.353 177.52 387.499 176.88C386.646 176.24 385.926 175.6 385.339 174.96C382.673 172.987 380.566 170.72 379.019 168.16C377.526 165.547 376.913 162.72 377.179 159.68C377.446 156.64 377.953 154.133 378.699 152.16C379.446 150.133 380.379 148.347 381.499 146.8C383.473 144.08 386.033 141.867 389.179 140.16C392.806 138.293 395.713 137.093 397.899 136.56C402.219 135.6 406.593 135.52 411.019 136.32C412.513 136.587 413.793 137.093 414.859 137.84C415.926 138.587 416.993 139.36 418.059 140.16C419.926 142.027 420.379 143.92 419.419 145.84C419.046 146.693 418.459 147.387 417.659 147.92C416.859 148.453 416.006 148.747 415.099 148.8C415.206 150.24 414.939 151.307 414.299 152C413.073 153.227 410.939 154.027 407.899 154.4C403.526 154.08 400.566 154.32 399.019 155.12C397.206 156.08 396.539 158.16 397.019 161.36C397.126 162.053 397.553 162.773 398.299 163.52C399.099 164.267 400.006 165.067 401.019 165.92C402.086 166.773 403.179 167.733 404.299 168.8C405.473 169.867 406.486 171.093 407.339 172.48C410.326 177.387 410.086 183.12 406.619 189.68C404.059 194.587 399.686 198.267 393.499 200.72C390.299 202 386.513 202.64 382.139 202.64ZM136.3 260.56L132.46 270.32C131.926 271.813 131.446 273.36 131.02 274.96C130.593 276.56 130.14 277.947 129.66 279.12C129.18 280.347 128.433 281.307 127.42 282C126.46 282.693 125.366 283.2 124.14 283.52C122.913 283.893 121.633 284.053 120.3 284C119.02 283.947 117.873 283.707 116.86 283.28C114.566 282.213 113.766 280.453 114.46 278C116.913 267.227 119.206 258.587 121.34 252.08C123.526 245.573 125.313 240.453 126.7 236.72C128.14 232.987 129.633 229.04 131.18 224.88C131.34 223.333 131.98 221.947 133.1 220.72C134.22 219.493 135.526 218.48 137.02 217.68C138.566 216.88 140.166 216.32 141.82 216C143.473 215.627 144.94 215.573 146.22 215.84C147.5 216.107 148.433 216.693 149.02 217.6C149.66 218.507 149.713 219.813 149.18 221.52C147.26 226.427 145.9 229.893 145.1 231.92C144.3 233.947 143.58 235.76 142.94 237.36L140.7 242.64C141.82 242.693 143.233 242.533 144.94 242.16C148.033 241.467 150.273 241.227 151.66 241.44C151.66 241.173 151.793 240.72 152.06 240.08C153.553 233.573 155.233 227.6 157.1 222.16C158.433 217.68 161.873 215.333 167.42 215.12C169.606 215.12 171.26 215.653 172.38 216.72C173.606 217.84 173.766 219.36 172.86 221.28C167.953 235.04 164.486 245.893 162.46 253.84C160.166 263.013 158.646 269.2 157.9 272.4C157.206 275.6 156.593 277.493 156.06 278.08C155.526 278.667 154.966 279.067 154.38 279.28C153.846 279.547 153.313 279.787 152.78 280C152.246 280.213 151.82 280.747 151.5 281.6H151.26C150.833 282.56 149.9 283.307 148.46 283.84C147.02 284.373 145.553 284.56 144.06 284.4C142.62 284.293 141.393 283.76 140.38 282.8C139.42 281.893 139.18 280.48 139.66 278.56C140.193 275.52 141.073 272.267 142.3 268.8C143.526 265.28 144.486 262.533 145.18 260.56C145.926 258.587 146.54 256.747 147.02 255.04C146.593 255.253 146.166 255.413 145.74 255.52C145.366 255.627 144.886 255.84 144.3 256.16C143.713 256.427 143.1 256.667 142.46 256.88C141.873 257.093 141.286 257.307 140.7 257.52C139.206 258.107 137.98 258.693 137.02 259.28L136.3 260.56ZM145.34 255.2C145.393 255.2 145.66 255.12 146.14 254.96C145.82 255.067 145.553 255.147 145.34 255.2ZM191.651 220.08V220.24C191.651 220.293 191.651 220.32 191.651 220.32C191.704 220.32 191.731 220.347 191.731 220.4V220.56H191.811L192.291 221.84C192.824 223.387 191.438 228.187 188.131 236.24C184.611 244.827 182.984 251.52 183.251 256.32C183.838 259.733 186.691 256.987 191.811 248.08C195.864 241.147 199.784 233.547 203.571 225.28C204.051 224.16 204.558 223.013 205.091 221.84C205.624 220.613 206.291 219.6 207.091 218.8C208.851 216.88 210.984 216.373 213.491 217.28C214.344 216.267 215.331 215.573 216.451 215.2C217.624 214.827 218.718 214.747 219.731 214.96C220.798 215.173 221.704 215.68 222.451 216.48C223.198 217.227 223.598 218.24 223.651 219.52C223.811 220.587 223.251 223.12 221.971 227.12C220.744 231.12 219.598 234.773 218.531 238.08C217.464 241.387 216.371 244.987 215.251 248.88C212.531 258.107 210.371 266.8 208.771 274.96C208.718 276.667 207.971 278.08 206.531 279.2C205.144 280.32 203.571 281.04 201.811 281.36C200.104 281.733 198.478 281.68 196.931 281.2C195.064 280.667 194.078 279.333 193.971 277.2C193.971 276.613 193.944 276.027 193.891 275.44C193.998 277.253 192.691 278.8 189.971 280.08C189.224 280.453 188.531 280.8 187.891 281.12C184.158 282.24 180.238 282 176.131 280.4C174.211 279.6 172.478 278.533 170.931 277.2C169.438 275.813 168.398 274.187 167.811 272.32C165.944 266.347 166.291 258.507 168.851 248.8C169.918 244.64 171.224 240.587 172.771 236.64C174.318 232.693 175.438 229.84 176.131 228.08C176.878 226.32 177.411 225.12 177.731 224.48C178.051 223.787 178.398 223.12 178.771 222.48C179.678 220.667 180.451 219.44 181.091 218.8L182.051 217.92C182.158 217.813 182.264 217.76 182.371 217.76C182.478 217.707 182.611 217.627 182.771 217.52C183.198 217.253 183.651 217.067 184.131 216.96L185.251 216.72H185.731C187.278 216.507 188.611 216.827 189.731 217.68C189.731 217.733 189.784 217.76 189.891 217.76L190.531 218.32L190.771 218.56L191.011 218.88C191.011 218.933 191.011 218.96 191.011 218.96C191.064 218.96 191.091 218.987 191.091 219.04L191.171 219.12V219.28C191.224 219.28 191.251 219.307 191.251 219.36V219.44C191.304 219.493 191.358 219.52 191.411 219.52V219.6C191.411 219.653 191.411 219.68 191.411 219.68C191.464 219.68 191.491 219.707 191.491 219.76C191.491 219.76 191.518 219.787 191.571 219.84V219.92C191.571 219.973 191.598 220.027 191.651 220.08ZM193.811 273.36V273.12C193.758 273.173 193.731 273.387 193.731 273.76C193.731 273.6 193.758 273.493 193.811 273.44V273.36ZM224.417 246.96C225.483 243.387 226.337 240.64 226.977 238.72C227.67 236.747 228.337 234.987 228.977 233.44C229.617 231.893 230.337 230.4 231.137 228.96C231.99 227.52 232.897 226.213 233.857 225.04C234.87 223.813 235.937 222.853 237.057 222.16C238.177 221.467 239.35 221.12 240.577 221.12C241.803 221.12 243.083 221.6 244.417 222.56C246.55 227.893 247.857 231.467 248.337 233.28C248.977 235.947 249.563 239.707 250.097 244.56C250.577 243.333 251.11 242.053 251.697 240.72C252.337 239.333 252.95 237.947 253.537 236.56C255.19 233.04 256.23 230.373 256.657 228.56C257.83 224.827 260.257 222.027 263.937 220.16C267.137 218.56 270.123 218.053 272.897 218.64C274.017 218.853 274.79 219.307 275.217 220C275.697 220.693 275.697 221.413 275.217 222.16C274.79 222.907 274.63 223.627 274.737 224.32C274.897 224.96 275.03 225.733 275.137 226.64C275.297 229.093 274.87 231.28 273.857 233.2C272.843 235.067 271.803 237.413 270.737 240.24C269.67 243.013 268.577 245.973 267.457 249.12C266.39 252.267 265.297 255.467 264.177 258.72C263.057 261.973 261.963 264.933 260.897 267.6C258.55 273.733 256.63 277.12 255.137 277.76C253.11 278.987 251.617 279.707 250.657 279.92C249.43 280.133 247.697 280.133 245.457 279.92C244.07 279.813 242.87 278.027 241.857 274.56C241.27 272.693 240.737 270.107 240.257 266.8C239.403 261.04 238.817 257.867 238.497 257.28C236.363 264.213 234.843 268.587 233.937 270.4C233.083 272.213 232.417 273.413 231.937 274C231.51 274.587 230.977 275.36 230.337 276.32C229.643 278.24 227.99 279.653 225.377 280.56C223.137 281.413 221.11 281.547 219.297 280.96C217.323 280.32 216.737 279.093 217.537 277.28C218.123 270.88 220.417 260.773 224.417 246.96ZM319.127 245.52C318.914 247.813 318.487 250.16 317.847 252.56C317.261 254.96 316.381 257.307 315.207 259.6C314.087 261.893 312.727 264.107 311.127 266.24C309.581 268.373 307.847 270.347 305.927 272.16C304.007 273.973 301.954 275.493 299.767 276.72C295.074 279.493 290.541 280.48 286.167 279.68C285.207 281.76 283.767 283.067 281.847 283.6C279.981 284.187 278.114 284.187 276.247 283.6C274.434 283.067 272.834 282.027 271.447 280.48C270.061 278.933 269.367 276.827 269.367 274.16C269.367 271.44 269.554 268.667 269.927 265.84C270.301 263.013 270.807 260.293 271.447 257.68C272.461 253.36 273.714 249.307 275.207 245.52C278.727 236.933 280.727 230.907 281.207 227.44C281.901 222.8 283.181 219.92 285.047 218.8C288.141 216.987 291.074 216.213 293.847 216.48C296.621 216.747 299.127 217.413 301.367 218.48C305.047 220.24 309.021 223.2 313.287 227.36C317.981 231.893 319.927 237.947 319.127 245.52ZM287.687 269.52C290.407 268.133 292.594 266.72 294.247 265.28C295.954 263.787 297.554 262.427 299.047 261.2C301.341 258.907 303.021 256.187 304.087 253.04C306.434 246.107 304.941 240.853 299.607 237.28C298.807 236.693 297.607 235.893 296.007 234.88C295.261 236.587 294.701 238.373 294.327 240.24C294.007 242.107 293.554 243.92 292.967 245.68L290.807 252.72L289.047 260.32C288.941 261.387 288.781 262.427 288.567 263.44C288.354 264.4 288.167 265.413 288.007 266.48L287.687 269.52ZM334.947 267.92C338.041 268.24 340.334 268.4 341.827 268.4C343.374 268.4 345.694 268.187 348.787 267.76C349.747 268.08 350.307 268.48 350.467 268.96C350.627 269.44 350.681 269.947 350.627 270.48C350.574 270.96 350.601 271.44 350.707 271.92C350.814 272.4 351.321 272.8 352.227 273.12C352.707 273.28 352.841 273.76 352.627 274.56C352.467 275.307 352.041 276.133 351.347 277.04C349.587 279.333 347.507 280.933 345.107 281.84C341.267 282.8 338.254 283.36 336.067 283.52C332.441 283.787 328.494 283.653 324.227 283.12C319.534 282.267 317.267 280.32 317.427 277.28C317.427 266.08 319.881 254.827 324.787 243.52C326.387 239.84 328.201 235.973 330.227 231.92C330.654 231.067 330.894 230.107 330.947 229.04C331.054 227.973 331.134 226.933 331.187 225.92C331.241 224.907 331.401 224 331.667 223.2C331.934 222.4 332.494 221.84 333.347 221.52C344.441 217.093 353.214 215.387 359.667 216.4C361.907 216.453 363.374 217.227 364.067 218.72C364.814 220.16 364.894 221.787 364.307 223.6C363.774 225.413 362.681 227.12 361.027 228.72C359.427 230.32 357.401 231.307 354.947 231.68C351.801 232.587 349.881 233.2 349.187 233.52C347.854 234.16 346.894 235.013 346.307 236.08C345.561 237.253 344.867 238.373 344.227 239.44C343.587 240.507 343.134 241.653 342.867 242.88L342.547 244.64C343.561 245.12 344.787 245.28 346.227 245.12C347.721 244.907 349.081 244.72 350.307 244.56C351.587 244.347 352.601 244.32 353.347 244.48C354.147 244.64 354.307 245.44 353.827 246.88C353.401 248.267 352.574 249.84 351.347 251.6C350.174 253.36 348.494 254.64 346.307 255.44C344.921 255.707 343.961 255.92 343.427 256.08C342.947 256.187 342.574 256.267 342.307 256.32C341.934 256.373 340.867 256.453 339.107 256.56C336.601 260.827 335.081 264.133 334.547 266.48C334.334 267.44 334.467 267.92 334.947 267.92Z" fill="#780E08"/>
</svg>
