<svg width="476" height="433" viewBox="0 0 476 433" fill="none" xmlns="http://www.w3.org/2000/svg">
<path d="M6.60249 345.58C6.60249 322.664 6.61772 299.747 6.58877 276.833C6.58419 272.748 6.78379 268.692 7.12205 264.644C7.22261 263.448 7.12967 262.318 6.93921 261.155C6.75333 260.017 6.53238 258.812 6.61923 257.679C7.3643 248.036 6.23071 238.421 6.47754 228.773C6.72437 219.093 6.84931 209.368 6.46992 199.705C4.85789 158.743 5.85131 117.738 5.13519 76.7737C4.93102 65.137 4.89599 53.4773 4.5425 41.8406C4.24234 31.9737 5.7203 22.2348 5.54661 12.3658C5.50395 9.92211 5.06512 9.33848 3.47442 9.57151C2.63488 9.69537 1.76944 9.55473 0.919239 9.45606C0.439287 9.39938 0.0157054 9.09077 0.000468786 8.29722C-0.0162915 7.46378 0.425561 7.14888 0.905513 7.19926C2.09092 7.32522 2.84058 6.66812 3.4409 5.25106C3.95742 4.03134 4.95846 3.99566 5.9077 3.99566C9.06319 3.99776 12.2187 4.06073 15.3712 3.93897C32.782 3.26718 50.1959 3.38685 67.6082 3.47292C71.4646 3.49182 75.3667 4.19509 79.1652 3.33016C87.4006 1.45544 95.6679 2.58697 103.915 2.34135C116.856 1.95507 129.804 2.02436 142.746 1.67587C184.674 0.54642 226.604 1.70527 268.532 1.20982C273.461 1.15104 278.393 1.04608 283.319 1.22243C285.458 1.3001 287.384 -0.213556 289.525 0.141233C290.753 0.34487 292.022 0.0173759 293.192 0.880208C293.459 1.07755 293.861 1.15732 294.146 1.03976C298.159 -0.612426 302.154 -0.0602712 306.164 1.06708C306.925 1.28121 307.737 1.15103 308.526 1.15103C329.821 1.19512 351.12 0.901201 372.41 1.35256C404.613 2.03275 436.814 1.53729 469.016 1.81441C470.067 1.8228 471.119 1.82494 472.17 1.85433C475.073 1.93621 475.47 2.44842 475.484 6.44768C475.546 24.9261 475.391 43.4088 475.711 61.8789C475.932 74.6513 475.44 87.4111 475.691 100.165C476.112 121.448 476.049 142.733 475.821 164.008C475.522 191.801 474.664 219.605 475.298 247.388C475.827 270.567 475.886 293.733 475.903 316.908C475.918 336.545 476.063 356.186 475.841 375.819C475.647 392.843 475.67 409.865 475.603 426.886C475.586 430.711 474.763 431.891 472.156 431.899C450.142 431.962 428.13 432.821 406.115 432.294C401.123 432.174 396.112 432.372 391.149 431.794C389.07 431.553 387.194 431.16 385.034 431.731C382.623 432.367 379.932 432.506 377.476 430.978C377.142 430.77 376.676 430.759 376.312 430.881C370.277 432.907 364.097 432.307 358.092 431.586C346.538 430.201 335.003 431.335 323.467 430.827C319.403 430.648 315.346 430.696 311.273 430.331C305.934 429.85 300.544 430.356 295.228 431.61C294.393 431.807 293.524 431.78 292.672 431.78C279.855 431.78 267.019 432.426 254.227 431.633C208.391 428.792 162.535 431.045 116.694 430.169C104.735 429.941 92.7699 430.033 80.8092 430.199C78.216 430.235 75.7537 429.376 73.2138 429.12C69.8831 428.784 66.5417 429.12 63.2064 428.895C57.7867 428.534 52.2467 428.862 46.76 429.85C43.0484 430.52 39.2332 430.14 35.4118 429.475C30.2969 428.587 25.0784 428.07 19.8888 428.773C16.6068 429.218 13.3218 429.086 10.0414 429.027C7.43899 428.981 7.02454 428.242 6.90112 424.636C6.25814 405.807 6.74572 386.967 6.61012 368.134C6.55679 360.616 6.60097 353.098 6.60097 345.58H6.60249ZM446.627 236.081C447.475 236.83 447.846 237.869 448.313 238.85C449.542 241.44 449.851 244.596 451.13 247.165C452.841 250.606 452.795 250.644 454.415 247.22C454.665 246.691 454.881 246.065 455.233 245.706C456.169 244.749 457.316 243.67 458.407 244.371C461.14 246.124 462.28 250.064 464.09 253.075C464.46 253.69 464.093 254.83 463.865 255.688C463.73 256.192 463.52 256.679 463.476 257.198C463.42 257.84 463.759 258.168 464.2 258.243C464.648 258.319 464.834 257.842 464.788 257.408C464.536 255.05 465.754 253.108 465.857 251.024C466.141 245.288 466.051 239.538 466.746 233.811C467.119 230.725 466.753 227.482 466.842 224.316C467.402 204.236 466.182 184.206 465.935 164.149C465.806 153.656 466.991 143.264 466.785 132.807C466.47 116.821 467.474 100.818 466.118 84.8352C465.464 77.1264 466.209 69.3525 466.756 61.6185C467.105 56.6767 466.586 51.6634 467.043 46.6985C467.139 45.6551 466.903 44.66 466.458 43.8854C465.068 41.4711 464.011 38.8658 462.132 36.7623C460.09 34.4782 458.407 31.4299 456.233 29.1143C454.951 27.7498 453.399 26.6308 452.426 25.0206C450.947 22.5728 449.067 20.7212 447.663 18.2187C445.963 15.1831 443.368 13.5183 441.54 10.659C440.656 9.27761 439.366 8.79895 438.115 9.07186C436.422 9.44135 434.729 9.16424 433.033 9.39307C431.569 9.59041 430.076 9.9536 428.54 9.68068C424.443 8.95221 420.312 8.57012 416.197 9.286C414.525 9.57781 412.907 8.01589 411.213 9.25241C410.913 9.47074 410.273 8.76957 409.779 8.53024C409.292 8.29302 408.8 7.9802 408.294 7.91512C403.444 7.27902 398.605 8.31612 393.746 8.19645C391.898 8.15237 389.816 7.50996 387.928 8.84935C387.503 9.15165 386.757 8.80524 386.214 8.54072C381.494 6.24194 376.714 7.41759 372.014 8.37699C369.539 8.88294 367.079 9.23352 364.621 9.13275C358.578 8.88293 352.535 8.87244 346.497 9.10966C344.554 9.18524 342.63 9.9389 340.64 9.70797C334.773 9.02778 328.887 8.97529 323.013 8.07467C316.291 7.0439 309.579 8.55752 302.885 9.77724C298.925 10.4994 294.885 10.5561 290.911 9.68698C288.894 9.24612 286.974 9.29231 285.149 10.4994C283.872 11.3455 282.473 11.6163 281.33 10.85C277.45 8.24682 273.357 9.15583 269.316 8.96269C268.097 8.90391 267.179 10.4197 265.906 9.89062C261.777 8.17335 257.586 9.02989 253.399 9.3196C247.5 9.72897 241.61 9.63239 235.781 8.05159C235.138 7.87734 234.222 7.54145 233.905 8.26993C232.847 10.6968 231.181 9.86333 229.692 10.1635C227.184 10.6695 224.696 11.4148 222.189 10.1635C221.959 10.0502 221.655 10.1005 221.408 10.195C216.302 12.1474 211.091 10.871 205.932 11.1376C205.414 11.1649 204.788 11.2153 204.389 10.8689C203.18 9.82344 202.111 10.7513 200.991 11.0641C200.665 11.1565 200.31 11.2531 200.267 11.8073C200.221 12.4035 200.424 12.9536 200.835 13.0921C202.252 13.575 202.722 15.5085 203.749 16.5749C204.081 16.9192 204.386 17.2992 204.235 17.9143C204.063 18.6197 203.59 18.7982 203.116 18.794C201.935 18.7814 200.733 18.8968 199.575 18.647C195.001 17.6645 190.63 15.4077 185.99 14.6435C184.488 14.3958 182.186 14.0305 181.817 10.6338C181.75 10.0145 181.031 9.70377 180.648 9.98928C179.139 11.1187 177.316 9.74365 175.826 11.3518C175.055 12.1831 173.934 11.7695 172.943 11.6331C168.855 11.0705 164.761 10.1467 160.67 10.153C155.854 10.1614 151.05 9.83393 146.185 10.9592C141.772 11.9795 137.142 11.2153 132.606 11.2216C122.568 11.2363 112.527 11.379 102.491 11.1943C96.6096 11.0872 90.7358 11.6436 84.8271 10.3525C81.2617 9.5736 77.4846 10.2874 73.8004 10.1278C65.9886 9.78775 58.1631 10.5267 50.3574 9.57361C49.7068 9.49384 49.009 9.40778 48.3949 9.6387C46.3136 10.4239 44.2125 10.0858 42.1189 10.2244C39.7451 10.384 37.3393 10.1782 34.909 11.0599C31.717 12.2188 28.339 10.9172 25.0601 10.6338C23.6873 10.5162 22.5902 11.7548 21.2905 11.2132C18.9776 10.2496 16.6556 11.5806 14.3366 11.188C13.1009 10.9781 12.5844 11.7569 12.4533 13.4679C12.0526 18.7121 12.3421 23.9667 12.2705 29.213C12.2278 32.3284 13.0521 32.9184 15.01 31.2011C15.7551 30.5482 16.3707 30.0296 17.1112 30.8988C17.8273 31.7385 17.7115 32.9079 17.4006 33.9135C16.9298 35.4376 16.7622 37.0247 16.5444 38.6307C15.9227 43.2115 15.5783 47.9539 13.1344 51.6361C12.8129 52.1211 12.6956 52.7152 12.6621 53.3765C12.3162 60.3064 11.7677 67.2322 12.2477 74.1852C12.3863 76.1943 11.3944 77.7478 11.4051 79.6918C11.4294 84.7638 11.3594 89.8359 11.3396 94.9079C11.3304 97.1353 11.0729 99.4194 12.5158 101.2C13.0049 101.802 12.9058 102.881 12.8647 103.799C12.3756 115.005 12.1669 126.224 12.2949 137.447C12.467 152.562 13.0369 167.667 12.8876 182.791C12.851 186.576 12.6179 190.342 12.8464 194.146C12.9805 196.369 13.3218 197.78 15.0131 198.639C16.8582 199.577 18.871 200.345 19.9482 203.15C21.0605 206.052 20.3901 208.399 18.0315 208.917C16.9999 209.144 15.9257 208.98 14.8866 209.167C13.3447 209.446 12.6392 210.723 13.1755 212.805C14.1156 216.458 14.2695 220.43 14.6047 224.095C15.3209 231.926 15.6027 239.929 15.2919 247.925C15.0969 252.926 15.0588 257.962 15.4428 263.036C15.8846 268.881 16.1848 274.933 14.1918 280.562C13.9389 281.275 13.5824 282.281 13.9328 282.902C15.5555 285.785 14.5849 289.265 15.2127 292.358C15.3376 292.971 15.4732 293.75 15.0314 294.119C13.8353 295.123 14.6108 295.771 15.1548 296.567C15.6027 297.224 16.0035 297.95 16.3859 298.683C17.9812 301.736 17.9583 302.231 15.5418 304.303C14.0943 305.544 13.6662 307.362 14.3137 309.146C15.7338 313.053 14.2939 317.294 15.3193 321.19C15.4138 321.549 15.3117 322.192 15.1228 322.481C13.1755 325.479 14.5697 328.918 14.7663 331.926C15.3727 341.21 15.9593 350.461 15.17 359.749C14.4615 368.079 15.3392 376.485 13.9633 384.863C13.4133 388.212 13.8597 392.406 14.0745 396.053C14.4783 402.897 12.5509 410.287 15.9364 416.616C15.3986 419.958 17.4205 419.738 18.7018 420.053C20.6948 420.54 22.7502 420.544 24.7782 420.76C27.7798 421.079 30.8241 421.09 33.7663 421.846C35.4789 422.284 37.2265 422.855 38.7989 422.211C41.2825 421.193 43.7782 421.167 46.2054 421.589C48.4284 421.976 50.4732 422.818 52.169 419.979C52.3854 419.618 52.8806 419.419 53.2508 419.41C55.5485 419.364 57.9224 418.883 60.1286 419.505C64.6859 420.787 69.3833 420.634 73.8857 422.322C74.4449 422.532 75.097 422.482 75.577 421.894C76.6115 420.628 77.8579 420.655 79.1149 420.695C86.7347 420.939 94.353 421.182 101.973 421.432C102.366 421.445 102.765 421.459 103.151 421.562C108.747 423.055 114.477 423.871 120.094 423.842C150.159 423.687 180.237 425.362 210.291 423.072C212.593 422.897 214.839 423.727 217.096 423.943C228.342 425.018 239.625 424.799 250.888 426.093C260.026 427.142 269.263 426.748 278.457 426.693C296.59 426.586 314.723 426.682 332.857 426.449C342.569 426.323 352.302 426.563 362.025 426.733C365.177 426.787 368.305 426.025 371.471 426.344C380.752 427.281 390.101 425.862 399.353 427.824C401.378 428.255 403.192 426.825 405.144 426.752C408.851 426.615 412.504 426.909 416.227 427.465C421.978 428.324 427.87 428.841 433.722 428.116C437.156 427.692 440.617 426.878 443.976 426.609C447.83 426.302 451.986 425.658 455.852 427.734C456.191 427.917 456.699 427.927 457.013 427.705C458.836 426.424 460.861 426.708 462.783 426.21C463.88 425.927 464.398 425.2 464.896 423.819C465.696 421.598 464.425 419.843 464.553 417.806C465.314 405.615 464.197 393.406 464.77 381.192C465.074 374.707 464.719 368.172 464.402 361.657C463.814 349.534 464.869 337.424 464.803 325.301C464.799 324.503 464.997 323.707 465.073 322.905C465.533 318.085 468.166 313.215 464.911 308.466C464.834 308.353 464.837 308.124 464.817 307.945C464.255 302.943 462.249 298.694 460.768 294.237C457.907 285.627 455.024 277.005 452.751 268.108C450.24 258.281 448.511 248.074 446.443 238.031C446.32 237.428 446.149 236.809 446.626 236.064L446.627 236.081ZM184.285 10.4533C190.299 13.0753 192.896 13.5414 194.924 12.3804C191.267 10.6233 187.804 10.1992 184.285 10.4533Z" fill="#780E08"/>
<path d="M55.6941 202.64C52.9741 202.747 50.4674 202.4 48.1741 201.6C45.9341 200.853 44.0941 199.813 42.6541 198.48C41.2674 197.147 40.3874 195.6 40.0141 193.84C39.6407 192.027 39.9607 190.187 40.9741 188.32C42.3607 186.08 45.1341 185.413 49.2941 186.32C52.4407 186.96 54.6007 187.307 55.7741 187.36C57.0007 187.413 58.0407 187.253 58.8941 186.88C62.7874 185.6 64.9741 184.213 65.4541 182.72C65.7741 181.6 65.0807 180.293 63.3741 178.8C62.6807 178.16 61.9074 177.52 61.0541 176.88C60.2007 176.24 59.4807 175.6 58.8941 174.96C56.2274 172.987 54.1207 170.72 52.5741 168.16C51.0807 165.547 50.4674 162.72 50.7341 159.68C51.0007 156.64 51.5074 154.133 52.2541 152.16C53.0007 150.133 53.9341 148.347 55.0541 146.8C57.0274 144.08 59.5874 141.867 62.7341 140.16C66.3607 138.293 69.2674 137.093 71.4541 136.56C75.7741 135.6 80.1474 135.52 84.5741 136.32C86.0674 136.587 87.3474 137.093 88.4141 137.84C89.4807 138.587 90.5474 139.36 91.6141 140.16C93.4807 142.027 93.9341 143.92 92.9741 145.84C92.6007 146.693 92.0141 147.387 91.2141 147.92C90.4141 148.453 89.5607 148.747 88.6541 148.8C88.7607 150.24 88.4941 151.307 87.8541 152C86.6274 153.227 84.4941 154.027 81.4541 154.4C77.0807 154.08 74.1207 154.32 72.5741 155.12C70.7607 156.08 70.0941 158.16 70.5741 161.36C70.6807 162.053 71.1074 162.773 71.8541 163.52C72.6541 164.267 73.5607 165.067 74.5741 165.92C75.6407 166.773 76.7341 167.733 77.8541 168.8C79.0274 169.867 80.0407 171.093 80.8941 172.48C83.8807 177.387 83.6407 183.12 80.1741 189.68C77.6141 194.587 73.2407 198.267 67.0541 200.72C63.8541 202 60.0674 202.64 55.6941 202.64ZM104.635 187.92C107.728 188.24 110.021 188.4 111.515 188.4C113.061 188.4 115.381 188.187 118.475 187.76C119.435 188.08 119.995 188.48 120.155 188.96C120.315 189.44 120.368 189.947 120.315 190.48C120.261 190.96 120.288 191.44 120.395 191.92C120.501 192.4 121.008 192.8 121.915 193.12C122.395 193.28 122.528 193.76 122.315 194.56C122.155 195.307 121.728 196.133 121.035 197.04C119.275 199.333 117.195 200.933 114.795 201.84C110.955 202.8 107.941 203.36 105.755 203.52C102.128 203.787 98.1814 203.653 93.9147 203.12C89.2214 202.267 86.9547 200.32 87.1147 197.28C87.1147 186.08 89.568 174.827 94.4747 163.52C96.0747 159.84 97.888 155.973 99.9147 151.92C100.341 151.067 100.581 150.107 100.635 149.04C100.741 147.973 100.821 146.933 100.875 145.92C100.928 144.907 101.088 144 101.355 143.2C101.621 142.4 102.181 141.84 103.035 141.52C114.128 137.093 122.901 135.387 129.355 136.4C131.595 136.453 133.061 137.227 133.755 138.72C134.501 140.16 134.581 141.787 133.995 143.6C133.461 145.413 132.368 147.12 130.715 148.72C129.115 150.32 127.088 151.307 124.635 151.68C121.488 152.587 119.568 153.2 118.875 153.52C117.541 154.16 116.581 155.013 115.995 156.08C115.248 157.253 114.555 158.373 113.915 159.44C113.275 160.507 112.821 161.653 112.555 162.88L112.235 164.64C113.248 165.12 114.475 165.28 115.915 165.12C117.408 164.907 118.768 164.72 119.995 164.56C121.275 164.347 122.288 164.32 123.035 164.48C123.835 164.64 123.995 165.44 123.515 166.88C123.088 168.267 122.261 169.84 121.035 171.6C119.861 173.36 118.181 174.64 115.995 175.44C114.608 175.707 113.648 175.92 113.115 176.08C112.635 176.187 112.261 176.267 111.995 176.32C111.621 176.373 110.555 176.453 108.795 176.56C106.288 180.827 104.768 184.133 104.235 186.48C104.021 187.44 104.155 187.92 104.635 187.92ZM156.268 201.84C155.148 202.16 154.081 202.32 153.068 202.32C152.054 202.373 151.014 202.427 149.948 202.48C148.934 202.533 147.521 202.56 145.708 202.56C143.894 202.56 141.174 202.507 137.548 202.4C136.694 202.453 135.841 202.48 134.988 202.48C134.134 202.48 133.334 202.32 132.588 202C130.934 201.307 129.814 199.707 129.228 197.2C128.961 196.027 128.668 195.2 128.348 194.72C127.974 194.24 127.681 193.787 127.468 193.36C126.934 192.507 126.988 191.093 127.628 189.12C128.214 187.147 128.988 184.72 129.948 181.84C130.908 178.907 132.001 175.813 133.228 172.56C136.108 164.827 138.694 158.693 140.988 154.16C141.894 152.133 142.668 150.373 143.308 148.88C144.001 147.387 144.614 146.107 145.148 145.04C145.681 143.92 145.948 143.333 145.948 143.28C146.481 141.253 148.534 139.547 152.108 138.16C155.574 136.72 158.721 136.347 161.548 137.04C164.694 137.84 166.081 139.92 165.708 143.28C164.961 146.587 163.841 149.893 162.348 153.2C160.908 156.507 159.254 159.973 157.388 163.6C155.521 167.227 153.494 171.067 151.308 175.12C149.121 179.173 146.961 183.573 144.828 188.32C144.774 188.533 144.881 188.72 145.148 188.88C145.841 188.827 146.801 188.613 148.028 188.24C149.308 187.867 150.614 187.547 151.948 187.28C153.334 186.96 154.694 186.8 156.028 186.8C157.361 186.8 158.481 187.147 159.388 187.84C159.334 188.8 159.574 189.573 160.108 190.16C160.641 190.693 161.174 191.227 161.708 191.76C163.041 193.147 163.148 194.987 162.028 197.28C160.961 199.52 159.041 201.04 156.268 201.84ZM172.172 195.36L171.612 143.68C171.612 142.4 172.118 141.307 173.132 140.4C174.198 139.44 175.398 138.773 176.732 138.4C178.065 138.027 179.318 137.973 180.492 138.24C181.665 138.507 182.412 139.2 182.732 140.32C183.745 142.347 184.438 145.147 184.812 148.72C185.505 155.387 185.852 161.147 185.852 166C186.385 166.853 187.052 167.253 187.852 167.2C190.145 161.6 192.678 156.213 195.452 151.04C198.225 145.867 200.012 142.56 200.812 141.12C201.612 139.627 202.572 138.587 203.692 138C204.812 137.413 206.012 137.04 207.292 136.88C210.065 136.56 212.678 137.04 215.132 138.32C216.998 138.96 218.092 140.053 218.412 141.6C219.638 144.053 218.812 146.88 215.932 150.08C212.572 155.413 209.185 161.307 205.772 167.76C199.265 180.187 195.132 187.84 193.372 190.72C191.612 193.6 190.332 195.653 189.532 196.88C188.732 198.053 187.825 199.04 186.812 199.84C184.998 201.28 182.812 201.867 180.252 201.6C175.772 201.44 173.158 200.027 172.412 197.36C172.252 196.613 172.172 195.947 172.172 195.36ZM220.303 202.64C217.583 202.747 215.077 202.4 212.783 201.6C210.543 200.853 208.703 199.813 207.263 198.48C205.877 197.147 204.997 195.6 204.623 193.84C204.25 192.027 204.57 190.187 205.583 188.32C206.97 186.08 209.743 185.413 213.903 186.32C217.05 186.96 219.21 187.307 220.383 187.36C221.61 187.413 222.65 187.253 223.503 186.88C227.397 185.6 229.583 184.213 230.063 182.72C230.383 181.6 229.69 180.293 227.983 178.8C227.29 178.16 226.517 177.52 225.663 176.88C224.81 176.24 224.09 175.6 223.503 174.96C220.837 172.987 218.73 170.72 217.183 168.16C215.69 165.547 215.077 162.72 215.343 159.68C215.61 156.64 216.117 154.133 216.863 152.16C217.61 150.133 218.543 148.347 219.663 146.8C221.637 144.08 224.197 141.867 227.343 140.16C230.97 138.293 233.877 137.093 236.063 136.56C240.383 135.6 244.757 135.52 249.183 136.32C250.677 136.587 251.957 137.093 253.023 137.84C254.09 138.587 255.157 139.36 256.223 140.16C258.09 142.027 258.543 143.92 257.583 145.84C257.21 146.693 256.623 147.387 255.823 147.92C255.023 148.453 254.17 148.747 253.263 148.8C253.37 150.24 253.103 151.307 252.463 152C251.237 153.227 249.103 154.027 246.063 154.4C241.69 154.08 238.73 154.32 237.183 155.12C235.37 156.08 234.703 158.16 235.183 161.36C235.29 162.053 235.717 162.773 236.463 163.52C237.263 164.267 238.17 165.067 239.183 165.92C240.25 166.773 241.343 167.733 242.463 168.8C243.637 169.867 244.65 171.093 245.503 172.48C248.49 177.387 248.25 183.12 244.783 189.68C242.223 194.587 237.85 198.267 231.663 200.72C228.463 202 224.677 202.64 220.303 202.64ZM265.564 141.2C266.577 138.747 268.017 137.867 269.884 138.56C270.417 137.387 270.871 136.64 271.244 136.32C271.671 136 272.097 135.76 272.524 135.6C272.951 135.387 273.404 135.173 273.884 134.96C274.364 134.747 275.111 134.56 276.124 134.4C277.137 134.24 278.257 134.16 279.484 134.16C280.711 134.107 281.937 134.16 283.164 134.32C284.444 134.48 285.511 134.827 286.364 135.36C288.444 136.587 288.897 138.56 287.724 141.28C287.831 141.227 287.804 141.28 287.644 141.44L286.924 142.8L286.364 143.52C286.097 143.787 285.271 145.413 283.884 148.4C282.764 150.533 281.617 152.64 280.444 154.72C278.524 158.293 277.351 160.587 276.924 161.6C278.791 160.587 280.951 159.12 283.404 157.2C288.044 153.627 291.004 151.493 292.284 150.8C293.564 150.107 294.444 149.68 294.924 149.52C295.457 149.36 295.964 149.333 296.444 149.44C296.924 149.493 297.431 149.627 297.964 149.84L299.964 150.64C301.244 151.067 301.937 152.613 302.044 155.28C302.097 157.893 301.564 159.867 300.444 161.2C295.591 167.493 290.124 171.707 284.044 173.84C282.177 174.533 280.257 175.12 278.284 175.6C281.111 175.92 283.804 177.787 286.364 181.2C288.444 183.973 289.937 186.827 290.844 189.76C291.804 192.693 292.551 194.88 293.084 196.32C293.617 197.707 293.831 198.773 293.724 199.52C293.671 200.32 293.217 200.907 292.364 201.28C291.564 201.707 290.177 202.107 288.204 202.48C287.297 202.64 285.431 201.573 282.604 199.28C281.377 198.267 280.071 197.173 278.684 196C277.297 194.773 275.911 193.627 274.524 192.56C271.324 190.053 269.084 188.747 267.804 188.64C267.697 188.64 267.484 188.587 267.164 188.48L265.724 192.08C264.977 193.84 264.204 195.707 263.404 197.68C262.657 199.6 261.751 201.333 260.684 202.88C259.031 204 257.111 204.453 254.924 204.24C252.417 203.973 250.764 202.96 249.964 201.2C249.431 199.547 250.311 194.693 252.604 186.64C254.151 180.987 255.484 176.027 256.604 171.76C257.724 167.493 258.684 163.973 259.484 161.2C260.284 158.373 260.871 156.187 261.244 154.64C261.617 153.04 261.991 151.493 262.364 150C263.271 146.533 264.337 143.6 265.564 141.2ZM341.732 143.76C343.546 144.72 344.692 146.133 345.172 148C344.106 153.973 343.146 159.92 342.292 165.84C341.439 171.707 340.612 176.64 339.812 180.64C339.012 184.587 338.452 187.547 338.132 189.52C337.866 191.493 337.546 193.467 337.172 195.44L336.692 197.12C336.586 197.707 336.479 198.24 336.372 198.72C336.266 199.253 336.159 199.813 336.052 200.4C334.559 202.107 332.532 202.96 329.972 202.96C327.252 202.96 325.092 202.267 323.492 200.88C322.532 200.133 322.372 198.56 323.012 196.16C323.279 195.2 323.439 193.973 323.492 192.48C323.599 190.933 323.706 189.653 323.812 188.64V188.48C322.212 189.067 320.772 189.84 319.492 190.8C318.212 191.707 317.412 192.293 317.092 192.56C316.772 192.773 316.346 192.96 315.812 193.12C315.279 193.227 314.799 193.307 314.372 193.36C313.359 193.413 312.666 193.573 312.292 193.84C309.199 199.387 306.426 202.48 303.972 203.12C302.426 203.6 300.879 203.707 299.332 203.44C297.786 203.227 296.559 202.32 295.652 200.72C293.946 199.12 294.372 194.747 296.932 187.6C298.319 183.813 300.292 179.28 302.852 174C305.466 168.667 307.972 164.027 310.372 160.08C315.546 151.6 321.226 144.453 327.412 138.64C328.426 138.213 329.519 137.733 330.692 137.2C331.866 136.613 333.012 136.293 334.132 136.24C335.306 136.187 336.506 136.32 337.732 136.64C338.959 136.96 339.999 137.44 340.852 138.08C342.826 139.573 343.119 141.467 341.732 143.76ZM324.612 164.8C323.492 168 322.372 170.96 321.252 173.68C320.132 176.347 319.172 178.693 318.372 180.72L324.692 180.48C325.119 177.067 325.599 173.68 326.132 170.32C326.666 166.96 327.172 163.6 327.652 160.24L324.612 164.8ZM322.452 180.8C323.199 180.8 323.946 180.747 324.692 180.64V180.56C323.999 180.613 323.359 180.667 322.772 180.72C322.186 180.773 322.079 180.8 322.452 180.8ZM384.888 137.68L385.208 137.76C386.542 138.56 387.688 139.467 388.648 140.48C389.662 141.44 390.568 142.48 391.368 143.6C392.222 144.667 392.888 145.84 393.368 147.12C395.395 152.027 393.635 157.52 388.088 163.6C385.742 166.16 383.102 168.347 380.168 170.16C380.915 170.693 381.608 171.093 382.248 171.36C382.942 171.573 383.902 172.027 385.128 172.72C386.355 173.36 387.155 174.613 387.528 176.48C387.902 178.293 387.795 180.347 387.208 182.64C386.675 184.933 385.662 187.307 384.168 189.76C382.728 192.16 380.835 194.32 378.488 196.24C373.155 200.667 366.968 202.533 359.928 201.84C358.915 201.84 358.275 201.76 358.008 201.6C357.742 201.44 357.528 201.307 357.368 201.2C357.208 201.093 356.862 201.013 356.328 200.96C354.995 202.027 353.475 202.693 351.768 202.96C350.062 203.227 348.435 203.093 346.888 202.56C345.395 202.027 344.115 201.12 343.048 199.84C342.035 198.56 341.528 196.88 341.528 194.8C341.688 193.413 341.955 192.32 342.328 191.52C342.168 191.04 342.088 190.453 342.088 189.76C343.902 180.107 345.608 172.72 347.208 167.6C350.462 157.413 353.982 149.733 357.768 144.56C360.862 140.187 365.155 137.36 370.648 136.08C375.928 134.853 380.675 135.387 384.888 137.68ZM360.008 193.52C360.648 193.36 361.182 193.333 361.608 193.44C362.088 193.493 362.648 193.467 363.288 193.36C364.835 193.2 366.915 192.24 369.528 190.48C371.182 188.827 372.062 187.2 372.168 185.6C372.275 184 372.035 182.987 371.448 182.56C370.862 182.08 370.062 181.84 369.048 181.84C368.088 181.84 366.995 182 365.768 182.32C364.595 182.587 363.448 182.747 362.328 182.8V182.96C362.062 184.027 361.795 184.96 361.528 185.76C361.262 186.56 361.022 187.333 360.808 188.08C360.328 189.84 359.955 191.653 359.688 193.52H360.008ZM374.888 151.92C373.288 151.707 371.555 152.96 369.688 155.68C368.515 157.387 367.608 159.973 366.968 163.44C368.088 162.96 369.182 162.56 370.248 162.24C371.368 161.867 372.408 161.467 373.368 161.04C375.715 160.027 377.395 158.8 378.408 157.36C379.582 155.973 379.955 154.8 379.528 153.84C378.888 152.987 377.848 152.213 376.408 151.52C375.982 151.893 375.475 152.027 374.888 151.92ZM373.688 151.6H373.928H373.688ZM402.725 202.64C400.005 202.747 397.499 202.4 395.205 201.6C392.965 200.853 391.125 199.813 389.685 198.48C388.299 197.147 387.419 195.6 387.045 193.84C386.672 192.027 386.992 190.187 388.005 188.32C389.392 186.08 392.165 185.413 396.325 186.32C399.472 186.96 401.632 187.307 402.805 187.36C404.032 187.413 405.072 187.253 405.925 186.88C409.819 185.6 412.005 184.213 412.485 182.72C412.805 181.6 412.112 180.293 410.405 178.8C409.712 178.16 408.939 177.52 408.085 176.88C407.232 176.24 406.512 175.6 405.925 174.96C403.259 172.987 401.152 170.72 399.605 168.16C398.112 165.547 397.499 162.72 397.765 159.68C398.032 156.64 398.539 154.133 399.285 152.16C400.032 150.133 400.965 148.347 402.085 146.8C404.059 144.08 406.619 141.867 409.765 140.16C413.392 138.293 416.299 137.093 418.485 136.56C422.805 135.6 427.179 135.52 431.605 136.32C433.099 136.587 434.379 137.093 435.445 137.84C436.512 138.587 437.579 139.36 438.645 140.16C440.512 142.027 440.965 143.92 440.005 145.84C439.632 146.693 439.045 147.387 438.245 147.92C437.445 148.453 436.592 148.747 435.685 148.8C435.792 150.24 435.525 151.307 434.885 152C433.659 153.227 431.525 154.027 428.485 154.4C424.112 154.08 421.152 154.32 419.605 155.12C417.792 156.08 417.125 158.16 417.605 161.36C417.712 162.053 418.139 162.773 418.885 163.52C419.685 164.267 420.592 165.067 421.605 165.92C422.672 166.773 423.765 167.733 424.885 168.8C426.059 169.867 427.072 171.093 427.925 172.48C430.912 177.387 430.672 183.12 427.205 189.68C424.645 194.587 420.272 198.267 414.085 200.72C410.885 202 407.099 202.64 402.725 202.64ZM136.3 260.56L132.46 270.32C131.926 271.813 131.446 273.36 131.02 274.96C130.593 276.56 130.14 277.947 129.66 279.12C129.18 280.347 128.433 281.307 127.42 282C126.46 282.693 125.366 283.2 124.14 283.52C122.913 283.893 121.633 284.053 120.3 284C119.02 283.947 117.873 283.707 116.86 283.28C114.566 282.213 113.766 280.453 114.46 278C116.913 267.227 119.206 258.587 121.34 252.08C123.526 245.573 125.313 240.453 126.7 236.72C128.14 232.987 129.633 229.04 131.18 224.88C131.34 223.333 131.98 221.947 133.1 220.72C134.22 219.493 135.526 218.48 137.02 217.68C138.566 216.88 140.166 216.32 141.82 216C143.473 215.627 144.94 215.573 146.22 215.84C147.5 216.107 148.433 216.693 149.02 217.6C149.66 218.507 149.713 219.813 149.18 221.52C147.26 226.427 145.9 229.893 145.1 231.92C144.3 233.947 143.58 235.76 142.94 237.36L140.7 242.64C141.82 242.693 143.233 242.533 144.94 242.16C148.033 241.467 150.273 241.227 151.66 241.44C151.66 241.173 151.793 240.72 152.06 240.08C153.553 233.573 155.233 227.6 157.1 222.16C158.433 217.68 161.873 215.333 167.42 215.12C169.606 215.12 171.26 215.653 172.38 216.72C173.606 217.84 173.766 219.36 172.86 221.28C167.953 235.04 164.486 245.893 162.46 253.84C160.166 263.013 158.646 269.2 157.9 272.4C157.206 275.6 156.593 277.493 156.06 278.08C155.526 278.667 154.966 279.067 154.38 279.28C153.846 279.547 153.313 279.787 152.78 280C152.246 280.213 151.82 280.747 151.5 281.6H151.26C150.833 282.56 149.9 283.307 148.46 283.84C147.02 284.373 145.553 284.56 144.06 284.4C142.62 284.293 141.393 283.76 140.38 282.8C139.42 281.893 139.18 280.48 139.66 278.56C140.193 275.52 141.073 272.267 142.3 268.8C143.526 265.28 144.486 262.533 145.18 260.56C145.926 258.587 146.54 256.747 147.02 255.04C146.593 255.253 146.166 255.413 145.74 255.52C145.366 255.627 144.886 255.84 144.3 256.16C143.713 256.427 143.1 256.667 142.46 256.88C141.873 257.093 141.286 257.307 140.7 257.52C139.206 258.107 137.98 258.693 137.02 259.28L136.3 260.56ZM145.34 255.2C145.393 255.2 145.66 255.12 146.14 254.96C145.82 255.067 145.553 255.147 145.34 255.2ZM191.651 220.08V220.24C191.651 220.293 191.651 220.32 191.651 220.32C191.704 220.32 191.731 220.347 191.731 220.4V220.56H191.811L192.291 221.84C192.824 223.387 191.438 228.187 188.131 236.24C184.611 244.827 182.984 251.52 183.251 256.32C183.838 259.733 186.691 256.987 191.811 248.08C195.864 241.147 199.784 233.547 203.571 225.28C204.051 224.16 204.558 223.013 205.091 221.84C205.624 220.613 206.291 219.6 207.091 218.8C208.851 216.88 210.984 216.373 213.491 217.28C214.344 216.267 215.331 215.573 216.451 215.2C217.624 214.827 218.718 214.747 219.731 214.96C220.798 215.173 221.704 215.68 222.451 216.48C223.198 217.227 223.598 218.24 223.651 219.52C223.811 220.587 223.251 223.12 221.971 227.12C220.744 231.12 219.598 234.773 218.531 238.08C217.464 241.387 216.371 244.987 215.251 248.88C212.531 258.107 210.371 266.8 208.771 274.96C208.718 276.667 207.971 278.08 206.531 279.2C205.144 280.32 203.571 281.04 201.811 281.36C200.104 281.733 198.478 281.68 196.931 281.2C195.064 280.667 194.078 279.333 193.971 277.2C193.971 276.613 193.944 276.027 193.891 275.44C193.998 277.253 192.691 278.8 189.971 280.08C189.224 280.453 188.531 280.8 187.891 281.12C184.158 282.24 180.238 282 176.131 280.4C174.211 279.6 172.478 278.533 170.931 277.2C169.438 275.813 168.398 274.187 167.811 272.32C165.944 266.347 166.291 258.507 168.851 248.8C169.918 244.64 171.224 240.587 172.771 236.64C174.318 232.693 175.438 229.84 176.131 228.08C176.878 226.32 177.411 225.12 177.731 224.48C178.051 223.787 178.398 223.12 178.771 222.48C179.678 220.667 180.451 219.44 181.091 218.8L182.051 217.92C182.158 217.813 182.264 217.76 182.371 217.76C182.478 217.707 182.611 217.627 182.771 217.52C183.198 217.253 183.651 217.067 184.131 216.96L185.251 216.72H185.731C187.278 216.507 188.611 216.827 189.731 217.68C189.731 217.733 189.784 217.76 189.891 217.76L190.531 218.32L190.771 218.56L191.011 218.88C191.011 218.933 191.011 218.96 191.011 218.96C191.064 218.96 191.091 218.987 191.091 219.04L191.171 219.12V219.28C191.224 219.28 191.251 219.307 191.251 219.36V219.44C191.304 219.493 191.358 219.52 191.411 219.52V219.6C191.411 219.653 191.411 219.68 191.411 219.68C191.464 219.68 191.491 219.707 191.491 219.76C191.491 219.76 191.518 219.787 191.571 219.84V219.92C191.571 219.973 191.598 220.027 191.651 220.08ZM193.811 273.36V273.12C193.758 273.173 193.731 273.387 193.731 273.76C193.731 273.6 193.758 273.493 193.811 273.44V273.36ZM224.417 246.96C225.483 243.387 226.337 240.64 226.977 238.72C227.67 236.747 228.337 234.987 228.977 233.44C229.617 231.893 230.337 230.4 231.137 228.96C231.99 227.52 232.897 226.213 233.857 225.04C234.87 223.813 235.937 222.853 237.057 222.16C238.177 221.467 239.35 221.12 240.577 221.12C241.803 221.12 243.083 221.6 244.417 222.56C246.55 227.893 247.857 231.467 248.337 233.28C248.977 235.947 249.563 239.707 250.097 244.56C250.577 243.333 251.11 242.053 251.697 240.72C252.337 239.333 252.95 237.947 253.537 236.56C255.19 233.04 256.23 230.373 256.657 228.56C257.83 224.827 260.257 222.027 263.937 220.16C267.137 218.56 270.123 218.053 272.897 218.64C274.017 218.853 274.79 219.307 275.217 220C275.697 220.693 275.697 221.413 275.217 222.16C274.79 222.907 274.63 223.627 274.737 224.32C274.897 224.96 275.03 225.733 275.137 226.64C275.297 229.093 274.87 231.28 273.857 233.2C272.843 235.067 271.803 237.413 270.737 240.24C269.67 243.013 268.577 245.973 267.457 249.12C266.39 252.267 265.297 255.467 264.177 258.72C263.057 261.973 261.963 264.933 260.897 267.6C258.55 273.733 256.63 277.12 255.137 277.76C253.11 278.987 251.617 279.707 250.657 279.92C249.43 280.133 247.697 280.133 245.457 279.92C244.07 279.813 242.87 278.027 241.857 274.56C241.27 272.693 240.737 270.107 240.257 266.8C239.403 261.04 238.817 257.867 238.497 257.28C236.363 264.213 234.843 268.587 233.937 270.4C233.083 272.213 232.417 273.413 231.937 274C231.51 274.587 230.977 275.36 230.337 276.32C229.643 278.24 227.99 279.653 225.377 280.56C223.137 281.413 221.11 281.547 219.297 280.96C217.323 280.32 216.737 279.093 217.537 277.28C218.123 270.88 220.417 260.773 224.417 246.96ZM319.127 245.52C318.914 247.813 318.487 250.16 317.847 252.56C317.261 254.96 316.381 257.307 315.207 259.6C314.087 261.893 312.727 264.107 311.127 266.24C309.581 268.373 307.847 270.347 305.927 272.16C304.007 273.973 301.954 275.493 299.767 276.72C295.074 279.493 290.541 280.48 286.167 279.68C285.207 281.76 283.767 283.067 281.847 283.6C279.981 284.187 278.114 284.187 276.247 283.6C274.434 283.067 272.834 282.027 271.447 280.48C270.061 278.933 269.367 276.827 269.367 274.16C269.367 271.44 269.554 268.667 269.927 265.84C270.301 263.013 270.807 260.293 271.447 257.68C272.461 253.36 273.714 249.307 275.207 245.52C278.727 236.933 280.727 230.907 281.207 227.44C281.901 222.8 283.181 219.92 285.047 218.8C288.141 216.987 291.074 216.213 293.847 216.48C296.621 216.747 299.127 217.413 301.367 218.48C305.047 220.24 309.021 223.2 313.287 227.36C317.981 231.893 319.927 237.947 319.127 245.52ZM287.687 269.52C290.407 268.133 292.594 266.72 294.247 265.28C295.954 263.787 297.554 262.427 299.047 261.2C301.341 258.907 303.021 256.187 304.087 253.04C306.434 246.107 304.941 240.853 299.607 237.28C298.807 236.693 297.607 235.893 296.007 234.88C295.261 236.587 294.701 238.373 294.327 240.24C294.007 242.107 293.554 243.92 292.967 245.68L290.807 252.72L289.047 260.32C288.941 261.387 288.781 262.427 288.567 263.44C288.354 264.4 288.167 265.413 288.007 266.48L287.687 269.52ZM334.947 267.92C338.041 268.24 340.334 268.4 341.827 268.4C343.374 268.4 345.694 268.187 348.787 267.76C349.747 268.08 350.307 268.48 350.467 268.96C350.627 269.44 350.681 269.947 350.627 270.48C350.574 270.96 350.601 271.44 350.707 271.92C350.814 272.4 351.321 272.8 352.227 273.12C352.707 273.28 352.841 273.76 352.627 274.56C352.467 275.307 352.041 276.133 351.347 277.04C349.587 279.333 347.507 280.933 345.107 281.84C341.267 282.8 338.254 283.36 336.067 283.52C332.441 283.787 328.494 283.653 324.227 283.12C319.534 282.267 317.267 280.32 317.427 277.28C317.427 266.08 319.881 254.827 324.787 243.52C326.387 239.84 328.201 235.973 330.227 231.92C330.654 231.067 330.894 230.107 330.947 229.04C331.054 227.973 331.134 226.933 331.187 225.92C331.241 224.907 331.401 224 331.667 223.2C331.934 222.4 332.494 221.84 333.347 221.52C344.441 217.093 353.214 215.387 359.667 216.4C361.907 216.453 363.374 217.227 364.067 218.72C364.814 220.16 364.894 221.787 364.307 223.6C363.774 225.413 362.681 227.12 361.027 228.72C359.427 230.32 357.401 231.307 354.947 231.68C351.801 232.587 349.881 233.2 349.187 233.52C347.854 234.16 346.894 235.013 346.307 236.08C345.561 237.253 344.867 238.373 344.227 239.44C343.587 240.507 343.134 241.653 342.867 242.88L342.547 244.64C343.561 245.12 344.787 245.28 346.227 245.12C347.721 244.907 349.081 244.72 350.307 244.56C351.587 244.347 352.601 244.32 353.347 244.48C354.147 244.64 354.307 245.44 353.827 246.88C353.401 248.267 352.574 249.84 351.347 251.6C350.174 253.36 348.494 254.64 346.307 255.44C344.921 255.707 343.961 255.92 343.427 256.08C342.947 256.187 342.574 256.267 342.307 256.32C341.934 256.373 340.867 256.453 339.107 256.56C336.601 260.827 335.081 264.133 334.547 266.48C334.334 267.44 334.467 267.92 334.947 267.92Z" fill="#780E08"/>
</svg>
