<svg width="1516" height="982" viewBox="0 0 1516 982" fill="none" xmlns="http://www.w3.org/2000/svg">
<path d="M0.0779184 21.1561C0.0779184 14.8189 0.0779184 8.48178 0.0779184 2.14463C2.39329 2.43488 4.46003 3.53139 6.40246 4.96652C20.1238 14.9802 35.4145 21.4463 49.4621 30.8795C58.7702 37.136 69.2749 41.1028 78.785 47.4561C90.797 55.4863 103.399 62.3395 115.769 69.6603C123.15 74.0302 130.485 78.5613 138.332 81.8024C146.506 85.1887 154.477 89.0265 161.719 94.6864C166.552 98.4596 172.053 100.475 177.507 102.749C182.433 104.813 187.607 107.054 191.601 110.779C194.647 113.617 197.584 116.181 201.189 117.39C213.387 121.502 223.612 130.436 235.298 135.741C242.648 139.079 248.584 145.271 255.67 149.237C260.549 151.979 266.377 151.027 270.774 154.768C279.741 162.412 290.214 166.346 300.501 170.313C305.241 172.135 310.4 175.183 315.901 173.215C319.63 171.877 323.36 172.151 327.182 172.764C339.35 174.731 351.517 177.489 363.747 178.198C386.294 179.472 408.951 177.134 431.467 180.552C441.677 182.1 451.637 178.246 461.831 178.408C478.086 178.666 494.355 178.65 510.61 178.408C521.223 178.246 531.805 176.537 542.419 178.392C544.377 178.73 546.397 178.311 548.168 177.166C550.81 175.457 553.654 175.376 556.56 175.279C566.598 174.941 576.605 175.457 586.597 176.44C597.444 177.505 608.011 174.296 618.779 174.199C632.143 174.086 645.523 173.957 658.84 172.99C670.992 172.103 683.066 172.119 695.233 172.957C704.122 173.57 713.088 173.232 721.775 169.894C725.861 168.33 730.228 168.201 734.268 170.361C738.821 172.796 743.405 172.458 748.083 171.313C749.854 170.877 751.657 170.087 753.428 170.152C771.811 170.764 790.148 169.636 808.422 167.765C819.362 166.652 830.302 168.088 841.148 166.685C849.306 165.62 857.356 164.008 865.607 165.427C867.798 165.798 871.357 165.282 871.45 162.702C871.683 155.284 876.174 156.639 879.81 156.381C887.502 155.816 895.365 159.477 902.949 154.801C903.99 154.156 905.854 155.268 907.331 155.575C911.231 156.413 915.66 157.848 918.768 154.655C925.014 148.238 933.126 148.334 940.274 146.351C950.297 143.578 960.91 143.158 971.431 143.432C977.258 143.578 983.738 144.335 988.912 141.239C995.812 137.111 1003.44 137.644 1010.59 134.886C1019.26 131.548 1029.05 134.144 1038.56 130.661C1047.03 127.549 1056.68 126.678 1066 127.775C1073.2 128.63 1080.07 125.147 1087.23 125.308C1088.35 125.324 1089.61 124.566 1090.57 123.776C1092.95 121.825 1095.57 121.438 1098.36 121.454C1107.63 121.486 1116.89 121.47 1126.17 121.454C1128.15 121.454 1130.66 122.002 1131.86 120.261C1136.46 113.617 1142.86 114.375 1148.64 115.343C1157.83 116.891 1165.47 110.134 1174.27 110.279C1175 110.279 1176.01 109.36 1176.44 108.554C1178.45 104.861 1181.51 104.41 1184.82 104.571C1194.86 105.039 1204.85 103.991 1214.86 103.475C1216.38 103.394 1218.17 103.507 1219.11 102.056C1221.85 97.8952 1225.66 98.3306 1229.46 98.1855C1235.21 97.9597 1241.21 99.6367 1246.65 97.1696C1251.44 95.0089 1256.08 94.7025 1260.91 95.5732C1264.01 96.1376 1266.9 95.5732 1269.9 94.7347C1275.21 93.2512 1280.11 89.5747 1285.4 89.0587C1293.75 88.2525 1301.41 86.5754 1309.33 82.5926C1322.45 75.9813 1336.61 72.2403 1350.06 66.2579C1359.65 62.0009 1369.74 59.4853 1378.67 53.0514C1386.49 47.4399 1395.83 46.2305 1404.54 43.328C1407.17 42.4573 1409.98 42.167 1411.94 39.6354C1417.69 32.234 1425.59 31.331 1433.37 30.1055C1441.34 28.8477 1449.24 27.3804 1455.42 20.5756C1456.73 19.1404 1458.25 16.6249 1459.94 17.7859C1464.14 20.6885 1466.67 17.8182 1469.62 15.2543C1472.09 13.1097 1475.05 12.1583 1478.11 11.6423C1481.29 11.1102 1484.39 10.1265 1487.14 8.15928C1491.43 5.09552 1496.86 5.2084 1500.9 1.45126C1501.39 1.01588 1502.58 0.886878 1503.06 1.27388C1506.41 3.99901 1509.09 1.54801 1511.91 0V34.8463C1498.59 40.8609 1486.56 49.9071 1473.52 56.6151C1460.64 63.2425 1448.29 71.2405 1435.53 78.2227C1425.38 83.7697 1415.47 89.865 1405.23 95.2346C1393.37 101.459 1382.23 109.489 1370.42 115.826C1357.37 122.841 1344.69 130.758 1331.63 137.773C1320.37 143.836 1309.4 150.689 1298.22 157.01C1295.09 158.783 1291.96 160.735 1290.35 164.653C1289.63 166.362 1288.64 166.717 1287.04 166.556C1283.7 166.233 1274.42 173.103 1273.41 176.86C1272.74 179.359 1271.54 180.617 1269.59 181.584C1262.2 185.18 1255.37 189.84 1251.19 198.048C1247.71 204.901 1242.8 211.222 1242.94 219.881C1243.37 244.859 1242.06 269.821 1242.02 294.782C1241.93 346.302 1241.94 397.821 1242 449.341C1242.02 465.53 1241.24 481.688 1241.21 497.845C1241.1 550.09 1240.48 602.336 1241.94 654.581C1242.27 666.175 1240.95 677.736 1240.93 689.362C1240.93 697.925 1243.59 702.94 1250.5 706.31C1272.34 716.969 1293.95 728.192 1315.66 739.173C1344.19 753.605 1372.74 767.972 1401.27 782.436C1424.22 794.079 1447.11 805.866 1470.06 817.492C1483.97 824.539 1497.95 831.376 1511.91 838.31C1511.91 884.589 1511.86 930.867 1512 977.146C1512 981.113 1511.22 982 1507.8 982C1222.41 981.887 936.995 981.903 651.599 981.903C435.803 981.903 220.007 981.903 4.19586 982C0.777191 982 -0.0153169 981.113 0.000222536 977.146C0.140077 935.447 0.0934581 893.731 0.0934581 852.032C12.0743 846.05 24.0863 840.148 36.0361 834.069C66.0272 818.782 95.925 803.254 125.978 788.096C160.755 770.552 195.688 753.395 230.481 735.867C249.672 726.208 268.677 715.985 287.883 706.374C292.825 703.907 295.109 700.392 294.643 694.297C294.534 692.894 294.643 691.491 294.643 690.072C294.643 542.479 294.581 394.87 294.69 247.278C294.69 231.33 291.193 216.076 289.251 200.515C289.173 199.854 288.878 199.144 288.505 198.612C283.657 191.759 279.29 184.326 271.691 180.859C269.174 179.714 266.454 177.779 265.538 174.892C264.403 171.28 263.797 169.378 259.959 167.265C255.67 164.911 251.07 161.944 246.813 158.88C239.152 153.333 230.76 149.705 222.789 145.029C208.834 136.853 194.616 129.339 180.537 121.454C170.561 115.875 160.709 110.021 150.717 104.474C132.816 94.509 114.883 84.5921 96.8884 74.8364C83.1516 67.4028 69.912 58.8081 55.8955 51.9872C47.24 47.7786 38.942 42.6185 30.473 37.91C20.3568 32.2824 10.2252 26.6709 0.0934581 21.0593L0.0779184 21.1561ZM764.694 703.698C917.291 703.698 1069.9 703.698 1222.5 703.698C1224.79 703.698 1227.08 703.649 1229.37 703.553C1230.29 703.504 1231.28 703.246 1231.59 702.101C1231.93 700.876 1231.11 700.134 1230.32 699.65C1228.05 698.263 1227.64 696.554 1229.35 694.248C1230.07 693.265 1230.05 692.071 1230.01 690.814C1229.62 678.736 1228.95 666.658 1229.03 654.597C1229.23 619.831 1229.63 585.049 1229.51 550.316C1229.32 495.233 1232.12 440.15 1227.64 385.018C1225.89 363.378 1224.83 341.319 1225.24 319.389C1225.27 318.018 1225.1 316.616 1224.83 315.277C1221.94 300.813 1224.04 285.913 1221.07 271.272C1219.1 261.581 1220.73 250.954 1220.67 240.747C1220.62 234.926 1218.24 230.298 1213.92 227.428C1204.69 221.284 1194.31 218.253 1184.37 214.06C1178.91 211.754 1173.16 213.206 1167.57 212.464C1148.19 209.932 1128.74 208.481 1109.25 207.191C1099.38 206.546 1089.58 206.272 1079.71 206.046C1058.84 205.578 1037.99 204.208 1017.09 204.305C1005.94 204.353 994.802 204.305 983.66 204.321C980.583 204.321 977.693 203.772 974.756 202.466C970.25 200.451 965.448 200.451 960.926 202.547C958.3 203.756 955.705 204.337 952.923 204.321C938.736 204.288 924.533 204.321 910.345 204.321C908.045 204.321 905.777 204.176 903.632 203.031C898.939 200.515 894.246 200.596 889.491 202.934C885.249 205.014 880.665 205.288 876.547 203.353C872.849 201.628 869.244 201.225 865.421 201.241C743.514 201.837 621.592 199.983 499.685 202.192C492.382 202.321 485.063 201.66 477.759 201.209C467.83 200.596 457.962 202.128 448.048 202.353C431.25 202.724 414.514 201.176 397.731 201.192C388.299 201.192 378.944 202.902 369.434 201.45C362.845 200.451 356.024 200.999 349.311 201.354C344.198 201.628 339.583 204.675 334.175 204.514C325.986 204.272 318.201 205.804 310.959 211.658C302.257 218.704 297.704 227.396 297.642 239.296C297.3 310.214 297.86 381.132 296.881 452.066C296.041 512.261 296.679 572.488 296.756 632.699C296.756 641.648 295.933 650.662 298.264 659.515C298.885 661.885 298.885 664.852 298.233 667.223C296.135 674.866 296.756 682.654 296.741 690.394C296.71 704.955 295.653 703.714 308.691 703.714C460.681 703.746 612.672 703.73 764.679 703.714L764.694 703.698Z" fill="#605046"/>
<path d="M525.65 386.55C525.45 388.7 525.05 390.9 524.45 393.15C523.9 395.4 523.075 397.6 521.975 399.75C520.925 401.9 519.65 403.975 518.15 405.975C516.7 407.975 515.075 409.825 513.275 411.525C511.475 413.225 509.55 414.65 507.5 415.8C503.1 418.4 498.85 419.325 494.75 418.575C493.85 420.525 492.5 421.75 490.7 422.25C488.95 422.8 487.2 422.8 485.45 422.25C483.75 421.75 482.25 420.775 480.95 419.325C479.65 417.875 479 415.9 479 413.4C479 410.85 479.175 408.25 479.525 405.6C479.875 402.95 480.35 400.4 480.95 397.95C481.9 393.9 483.075 390.1 484.475 386.55C487.775 378.5 489.65 372.85 490.1 369.6C490.75 365.25 491.95 362.55 493.7 361.5C496.6 359.8 499.35 359.075 501.95 359.325C504.55 359.575 506.9 360.2 509 361.2C512.45 362.85 516.175 365.625 520.175 369.525C524.575 373.775 526.4 379.45 525.65 386.55ZM496.175 409.05C498.725 407.75 500.775 406.425 502.325 405.075C503.925 403.675 505.425 402.4 506.825 401.25C508.975 399.1 510.55 396.55 511.55 393.6C513.75 387.1 512.35 382.175 507.35 378.825C506.6 378.275 505.475 377.525 503.975 376.575C503.275 378.175 502.75 379.85 502.4 381.6C502.1 383.35 501.675 385.05 501.125 386.7L499.1 393.3L497.45 400.425C497.35 401.425 497.2 402.4 497 403.35C496.8 404.25 496.625 405.2 496.475 406.2L496.175 409.05ZM540.481 407.55C543.381 407.85 545.531 408 546.931 408C548.381 408 550.556 407.8 553.456 407.4C554.356 407.7 554.881 408.075 555.031 408.525C555.181 408.975 555.231 409.45 555.181 409.95C555.131 410.4 555.156 410.85 555.256 411.3C555.356 411.75 555.831 412.125 556.681 412.425C557.131 412.575 557.256 413.025 557.056 413.775C556.906 414.475 556.506 415.25 555.856 416.1C554.206 418.25 552.256 419.75 550.006 420.6C546.406 421.5 543.581 422.025 541.531 422.175C538.131 422.425 534.431 422.3 530.431 421.8C526.031 421 523.906 419.175 524.056 416.325C524.056 405.825 526.356 395.275 530.956 384.675C532.456 381.225 534.156 377.6 536.056 373.8C536.456 373 536.681 372.1 536.731 371.1C536.831 370.1 536.906 369.125 536.956 368.175C537.006 367.225 537.156 366.375 537.406 365.625C537.656 364.875 538.181 364.35 538.981 364.05C549.381 359.9 557.606 358.3 563.656 359.25C565.756 359.3 567.131 360.025 567.781 361.425C568.481 362.775 568.556 364.3 568.006 366C567.506 367.7 566.481 369.3 564.931 370.8C563.431 372.3 561.531 373.225 559.231 373.575C556.281 374.425 554.481 375 553.831 375.3C552.581 375.9 551.681 376.7 551.131 377.7C550.431 378.8 549.781 379.85 549.181 380.85C548.581 381.85 548.156 382.925 547.906 384.075L547.606 385.725C548.556 386.175 549.706 386.325 551.056 386.175C552.456 385.975 553.731 385.8 554.881 385.65C556.081 385.45 557.031 385.425 557.731 385.575C558.481 385.725 558.631 386.475 558.181 387.825C557.781 389.125 557.006 390.6 555.856 392.25C554.756 393.9 553.181 395.1 551.131 395.85C549.831 396.1 548.931 396.3 548.431 396.45C547.981 396.55 547.631 396.625 547.381 396.675C547.031 396.725 546.031 396.8 544.381 396.9C542.031 400.9 540.606 404 540.106 406.2C539.906 407.1 540.031 407.55 540.481 407.55ZM567.962 387.9C568.962 384.55 569.762 381.975 570.362 380.175C571.012 378.325 571.637 376.675 572.237 375.225C572.837 373.775 573.512 372.375 574.262 371.025C575.062 369.675 575.912 368.45 576.812 367.35C577.762 366.2 578.762 365.3 579.812 364.65C580.862 364 581.962 363.675 583.112 363.675C584.262 363.675 585.462 364.125 586.712 365.025C588.712 370.025 589.937 373.375 590.387 375.075C590.987 377.575 591.537 381.1 592.037 385.65C592.487 384.5 592.987 383.3 593.537 382.05C594.137 380.75 594.712 379.45 595.262 378.15C596.812 374.85 597.787 372.35 598.187 370.65C599.287 367.15 601.562 364.525 605.012 362.775C608.012 361.275 610.812 360.8 613.412 361.35C614.462 361.55 615.187 361.975 615.587 362.625C616.037 363.275 616.037 363.95 615.587 364.65C615.187 365.35 615.037 366.025 615.137 366.675C615.287 367.275 615.412 368 615.512 368.85C615.662 371.15 615.262 373.2 614.312 375C613.362 376.75 612.387 378.95 611.387 381.6C610.387 384.2 609.362 386.975 608.312 389.925C607.312 392.875 606.287 395.875 605.237 398.925C604.187 401.975 603.162 404.75 602.162 407.25C599.962 413 598.162 416.175 596.762 416.775C594.862 417.925 593.462 418.6 592.562 418.8C591.412 419 589.787 419 587.687 418.8C586.387 418.7 585.262 417.025 584.312 413.775C583.762 412.025 583.262 409.6 582.812 406.5C582.012 401.1 581.462 398.125 581.162 397.575C579.162 404.075 577.737 408.175 576.887 409.875C576.087 411.575 575.462 412.7 575.012 413.25C574.612 413.8 574.112 414.525 573.512 415.425C572.862 417.225 571.312 418.55 568.862 419.4C566.762 420.2 564.862 420.325 563.162 419.775C561.312 419.175 560.762 418.025 561.512 416.325C562.062 410.325 564.212 400.85 567.962 387.9ZM644.568 416.325C643.918 418.675 642.268 420.25 639.618 421.05C637.218 421.75 635.068 421.5 633.168 420.3C631.118 419.05 630.468 417.2 631.218 414.75C631.868 411.95 633.118 407.475 634.968 401.325C636.818 395.175 638.118 390.85 638.868 388.35C640.618 382.15 641.718 378.05 642.168 376.05C643.718 371.05 644.818 367.95 645.468 366.75C646.168 365.55 646.768 364.725 647.268 364.275C647.768 363.775 648.568 363.2 649.668 362.55C650.818 361.9 652.043 361.4 653.343 361.05C654.643 360.7 655.943 360.475 657.243 360.375C658.543 360.225 659.868 360.125 661.218 360.075C662.568 359.975 664.068 359.725 665.718 359.325C666.368 359.325 666.943 359.275 667.443 359.175C667.993 359.075 668.518 359 669.018 358.95C670.168 358.85 671.293 358.975 672.393 359.325C673.543 359.675 674.393 360.3 674.943 361.2C675.543 362.1 675.843 363.125 675.843 364.275C675.843 365.425 675.593 366.65 675.093 367.95C674.643 369.25 673.993 370.5 673.143 371.7C671.293 374.3 668.968 376.15 666.168 377.25C664.218 377.85 662.818 378.15 661.968 378.15C661.118 378.15 660.518 378.05 660.168 377.85C659.868 377.65 659.693 377.5 659.643 377.4C659.593 377.3 659.418 377.475 659.118 377.925C658.668 378.575 658.343 379.3 658.143 380.1C657.943 380.9 657.718 381.5 657.468 381.9C657.218 382.25 656.868 382.975 656.418 384.075C656.018 385.175 655.493 386.1 654.843 386.85C654.193 387.55 653.818 387.975 653.718 388.125L660.318 387.45C661.368 387.35 662.268 387.575 663.018 388.125C663.818 388.625 664.368 389.25 664.668 390C665.018 390.75 665.118 391.5 664.968 392.25C664.818 392.95 664.368 393.5 663.618 393.9C662.868 394.25 662.368 394.625 662.118 395.025C661.918 395.375 661.743 395.725 661.593 396.075C661.443 396.425 661.243 396.775 660.993 397.125C660.793 397.475 660.318 397.8 659.568 398.1C657.968 398.85 654.893 399.45 650.343 399.9C650.093 400.65 649.743 401.55 649.293 402.6C648.893 403.6 648.468 404.65 648.018 405.75C646.718 409.1 645.968 411.125 645.768 411.825C645.618 412.525 645.493 413.1 645.393 413.55C645.093 414.9 644.818 415.825 644.568 416.325ZM680.48 367.35C683.63 363.75 687.13 361.5 690.98 360.6C693.63 359.95 696.13 360.05 698.48 360.9C700.33 358.95 702.73 358.25 705.68 358.8C708.38 359.3 710.68 360.825 712.58 363.375C712.68 363.725 712.88 364.25 713.18 364.95C713.53 365.65 713.855 366.425 714.155 367.275C716.355 372.375 716.53 379.075 714.68 387.375C712.38 397.675 708.305 406.4 702.455 413.55C700.655 415.75 698.63 417.575 696.38 419.025C692.78 421.775 688.48 423 683.48 422.7C680.38 422.55 677.78 421.775 675.68 420.375C667.33 416.225 664.605 407.575 667.505 394.425C669.905 383.625 674.23 374.6 680.48 367.35ZM681.38 407.175L681.305 407.625L681.455 408.45C681.755 410 682.255 411.2 682.955 412.05C683.655 412.85 684.23 413.35 684.68 413.55C685.18 413.15 685.68 412.775 686.18 412.425C686.68 412.075 687.13 411.65 687.53 411.15C690.93 406.95 693.58 401.45 695.48 394.65C697.38 387.85 698.08 381.55 697.58 375.75C695.63 378.25 693.58 381.125 691.43 384.375C689.28 387.625 687.58 390.4 686.33 392.7C683.48 398.05 681.83 402.875 681.38 407.175ZM695.03 368.625C696.78 365.525 698.105 363.05 699.005 361.2C699.955 359.3 700.73 357.875 701.33 356.925C701.93 355.925 702.33 355.325 702.53 355.125C702.73 354.875 702.88 354.625 702.98 354.375C702.88 353.225 703.43 352.125 704.63 351.075C705.88 349.975 707.93 349.15 710.78 348.6H711.305C714.005 348.7 715.88 349 716.93 349.5C718.88 350.4 720.23 351.95 720.98 354.15C721.13 355.1 720.905 356 720.305 356.85C719.755 357.7 719.18 358.475 718.58 359.175C719.18 360.775 718.755 362.425 717.305 364.125C715.205 366.125 713.33 368.275 711.68 370.575C710.03 372.825 708.08 375.5 705.83 378.6C703.63 381.65 701.205 385.275 698.555 389.475C695.955 393.675 693.33 397.9 690.68 402.15C683.98 412.85 678.48 420.85 674.18 426.15C673.33 427.2 672.105 427.375 670.505 426.675C668.855 425.975 667.73 424.75 667.13 423C666.33 420.95 666.63 418.825 668.03 416.625C671.43 408.875 675.88 400.45 681.38 391.35C683.83 387.35 686.28 383.35 688.73 379.35C691.23 375.3 693.33 371.725 695.03 368.625ZM726.28 417.225C725.83 419.225 724.28 420.45 721.63 420.9C719.18 421.35 716.855 421.075 714.655 420.075C712.205 419.025 711.13 417.55 711.43 415.65C711.13 412.75 712.655 406.45 716.005 396.75C721.005 382.2 726.005 371.8 731.005 365.55C732.305 363.95 733.405 362.925 734.305 362.475C735.255 361.975 736.33 361.525 737.53 361.125C738.73 360.725 739.98 360.35 741.28 360C743.88 359.3 746.33 358.825 748.63 358.575C750.98 358.275 753.08 358.55 754.93 359.4C756.78 360.2 758.205 361.4 759.205 363C760.255 364.6 760.905 366.5 761.155 368.7C761.405 370.85 761.33 373.125 760.93 375.525C760.53 377.875 759.805 380.275 758.755 382.725C757.705 385.125 756.38 387.375 754.78 389.475C751.28 394.075 747.18 397.05 742.48 398.4L743.23 399.675C743.88 400.675 744.655 401.775 745.555 402.975C746.505 404.175 747.43 405.4 748.33 406.65C749.28 407.9 750.13 409.15 750.88 410.4C751.63 411.65 752.18 412.825 752.53 413.925C753.33 416.375 752.705 418.15 750.655 419.25C749.005 420.25 747.705 420.5 746.755 420C746.355 419.75 745.955 419.425 745.555 419.025C745.155 418.675 744.605 418.375 743.905 418.125C740.955 418.975 738.705 418.225 737.155 415.875C736.205 414.375 735.48 413 734.98 411.75C734.48 410.5 734.055 409.45 733.705 408.6C732.805 406.75 731.78 405.15 730.63 403.8C730.08 405.15 729.455 406.875 728.755 408.975C727.905 411.625 726.955 414.375 725.905 417.225H726.28ZM741.43 373.575C740.48 375.725 739.83 377.225 739.48 378.075C738.78 379.775 738.005 381.65 737.155 383.7C737.005 384.8 736.88 385.575 736.78 386.025L737.83 384.975L739.105 384.375C740.005 383.875 740.83 383.425 741.58 383.025C742.33 382.625 743.005 382.125 743.605 381.525C744.755 380.375 745.755 378.5 746.605 375.9C746.605 375.4 746.68 374.9 746.83 374.4C747.03 373.9 747.155 373.4 747.205 372.9C747.405 371.8 746.955 371.025 745.855 370.575C744.855 370.475 743.605 371.3 742.105 373.05C741.805 373.4 741.58 373.575 741.43 373.575ZM769.258 421.35C766.708 421.45 764.358 421.125 762.208 420.375C760.108 419.675 758.383 418.7 757.033 417.45C755.733 416.2 754.908 414.75 754.558 413.1C754.208 411.4 754.508 409.675 755.458 407.925C756.758 405.825 759.358 405.2 763.258 406.05C766.208 406.65 768.233 406.975 769.333 407.025C770.483 407.075 771.458 406.925 772.258 406.575C775.908 405.375 777.958 404.075 778.408 402.675C778.708 401.625 778.058 400.4 776.458 399C775.808 398.4 775.083 397.8 774.283 397.2C773.483 396.6 772.808 396 772.258 395.4C769.758 393.55 767.783 391.425 766.333 389.025C764.933 386.575 764.358 383.925 764.608 381.075C764.858 378.225 765.333 375.875 766.033 374.025C766.733 372.125 767.608 370.45 768.658 369C770.508 366.45 772.908 364.375 775.858 362.775C779.258 361.025 781.983 359.9 784.033 359.4C788.083 358.5 792.183 358.425 796.333 359.175C797.733 359.425 798.933 359.9 799.933 360.6C800.933 361.3 801.933 362.025 802.933 362.775C804.683 364.525 805.108 366.3 804.208 368.1C803.858 368.9 803.308 369.55 802.558 370.05C801.808 370.55 801.008 370.825 800.158 370.875C800.258 372.225 800.008 373.225 799.408 373.875C798.258 375.025 796.258 375.775 793.408 376.125C789.308 375.825 786.533 376.05 785.083 376.8C783.383 377.7 782.758 379.65 783.208 382.65C783.308 383.3 783.708 383.975 784.408 384.675C785.158 385.375 786.008 386.125 786.958 386.925C787.958 387.725 788.983 388.625 790.033 389.625C791.133 390.625 792.083 391.775 792.883 393.075C795.683 397.675 795.458 403.05 792.208 409.2C789.808 413.8 785.708 417.25 779.908 419.55C776.908 420.75 773.358 421.35 769.258 421.35ZM824.289 397.8C822.939 401.7 821.564 405.45 820.164 409.05C818.764 412.65 817.589 415.375 816.639 417.225C815.739 419.125 814.939 420.425 814.239 421.125C813.539 421.825 812.814 422.3 812.064 422.55C811.364 422.8 810.639 422.9 809.889 422.85C809.189 422.8 808.464 422.75 807.714 422.7C803.514 422.05 802.214 419.025 803.814 413.625C804.864 409.325 805.714 405.825 806.364 403.125C807.014 400.375 807.539 398.125 807.939 396.375C808.389 394.575 808.764 393.1 809.064 391.95C809.364 390.75 809.689 389.575 810.039 388.425C810.389 387.275 810.814 385.975 811.314 384.525C811.864 383.075 812.564 381.15 813.414 378.75C811.514 379 809.814 378.8 808.314 378.15C806.114 377.2 805.214 375.15 805.614 372C805.814 370.55 806.589 369.2 807.939 367.95C808.639 367.3 809.464 366.6 810.414 365.85C812.364 364.3 816.239 362.65 822.039 360.9C828.039 359.1 833.189 358.25 837.489 358.35C838.639 358.15 839.814 358.3 841.014 358.8C842.264 359.25 843.264 359.875 844.014 360.675C844.764 361.475 845.139 362.35 845.139 363.3C845.189 364.25 844.589 365.1 843.339 365.85C842.739 366.25 842.314 366.925 842.064 367.875C841.814 368.775 841.539 369.75 841.239 370.8C840.939 371.8 840.489 372.725 839.889 373.575C839.339 374.425 838.439 374.925 837.189 375.075C836.539 375.425 835.614 375.675 834.414 375.825C833.264 375.975 832.489 376.1 832.089 376.2C831.739 376.25 831.539 376.375 831.489 376.575C830.589 379.225 829.514 382.45 828.264 386.25C827.014 390 825.689 393.85 824.289 397.8ZM814.164 377.925C814.064 377.925 814.014 377.95 814.014 378C814.014 378 814.064 378 814.164 378V377.925ZM852.786 407.55C855.686 407.85 857.836 408 859.236 408C860.686 408 862.861 407.8 865.761 407.4C866.661 407.7 867.186 408.075 867.336 408.525C867.486 408.975 867.536 409.45 867.486 409.95C867.436 410.4 867.461 410.85 867.561 411.3C867.661 411.75 868.136 412.125 868.986 412.425C869.436 412.575 869.561 413.025 869.361 413.775C869.211 414.475 868.811 415.25 868.161 416.1C866.511 418.25 864.561 419.75 862.311 420.6C858.711 421.5 855.886 422.025 853.836 422.175C850.436 422.425 846.736 422.3 842.736 421.8C838.336 421 836.211 419.175 836.361 416.325C836.361 405.825 838.661 395.275 843.261 384.675C844.761 381.225 846.461 377.6 848.361 373.8C848.761 373 848.986 372.1 849.036 371.1C849.136 370.1 849.211 369.125 849.261 368.175C849.311 367.225 849.461 366.375 849.711 365.625C849.961 364.875 850.486 364.35 851.286 364.05C861.686 359.9 869.911 358.3 875.961 359.25C878.061 359.3 879.436 360.025 880.086 361.425C880.786 362.775 880.861 364.3 880.311 366C879.811 367.7 878.786 369.3 877.236 370.8C875.736 372.3 873.836 373.225 871.536 373.575C868.586 374.425 866.786 375 866.136 375.3C864.886 375.9 863.986 376.7 863.436 377.7C862.736 378.8 862.086 379.85 861.486 380.85C860.886 381.85 860.461 382.925 860.211 384.075L859.911 385.725C860.861 386.175 862.011 386.325 863.361 386.175C864.761 385.975 866.036 385.8 867.186 385.65C868.386 385.45 869.336 385.425 870.036 385.575C870.786 385.725 870.936 386.475 870.486 387.825C870.086 389.125 869.311 390.6 868.161 392.25C867.061 393.9 865.486 395.1 863.436 395.85C862.136 396.1 861.236 396.3 860.736 396.45C860.286 396.55 859.936 396.625 859.686 396.675C859.336 396.725 858.336 396.8 856.686 396.9C854.336 400.9 852.911 404 852.411 406.2C852.211 407.1 852.336 407.55 852.786 407.55ZM924.631 397.8C923.281 401.7 921.906 405.45 920.506 409.05C919.106 412.65 917.931 415.375 916.981 417.225C916.081 419.125 915.281 420.425 914.581 421.125C913.881 421.825 913.156 422.3 912.406 422.55C911.706 422.8 910.981 422.9 910.231 422.85C909.531 422.8 908.806 422.75 908.056 422.7C903.856 422.05 902.556 419.025 904.156 413.625C905.206 409.325 906.056 405.825 906.706 403.125C907.356 400.375 907.881 398.125 908.281 396.375C908.731 394.575 909.106 393.1 909.406 391.95C909.706 390.75 910.031 389.575 910.381 388.425C910.731 387.275 911.156 385.975 911.656 384.525C912.206 383.075 912.906 381.15 913.756 378.75C911.856 379 910.156 378.8 908.656 378.15C906.456 377.2 905.556 375.15 905.956 372C906.156 370.55 906.931 369.2 908.281 367.95C908.981 367.3 909.806 366.6 910.756 365.85C912.706 364.3 916.581 362.65 922.381 360.9C928.381 359.1 933.531 358.25 937.831 358.35C938.981 358.15 940.156 358.3 941.356 358.8C942.606 359.25 943.606 359.875 944.356 360.675C945.106 361.475 945.481 362.35 945.481 363.3C945.531 364.25 944.931 365.1 943.681 365.85C943.081 366.25 942.656 366.925 942.406 367.875C942.156 368.775 941.881 369.75 941.581 370.8C941.281 371.8 940.831 372.725 940.231 373.575C939.681 374.425 938.781 374.925 937.531 375.075C936.881 375.425 935.956 375.675 934.756 375.825C933.606 375.975 932.831 376.1 932.431 376.2C932.081 376.25 931.881 376.375 931.831 376.575C930.931 379.225 929.856 382.45 928.606 386.25C927.356 390 926.031 393.85 924.631 397.8ZM914.506 377.925C914.406 377.925 914.356 377.95 914.356 378C914.356 378 914.406 378 914.506 378V377.925ZM967.903 366.3C966.153 371.75 964.528 376.675 963.028 381.075C961.578 385.475 960.228 389.525 958.978 393.225C957.778 396.925 956.653 400.35 955.603 403.5C954.553 406.6 953.578 409.575 952.678 412.425C952.178 415.725 950.553 418.05 947.803 419.4C946.203 420.15 944.303 420.525 942.103 420.525C939.903 420.525 938.253 420.275 937.153 419.775C936.053 419.325 935.353 418.65 935.053 417.75C934.703 416.85 934.703 415.775 935.053 414.525C935.353 413.225 935.903 411.475 936.703 409.275C937.503 407.025 938.503 404 939.703 400.2C940.953 396.4 942.253 392.55 943.603 388.65C946.953 378.9 949.603 372.15 951.553 368.4C952.303 367 953.053 366.075 953.803 365.625C954.553 365.125 955.278 364.775 955.978 364.575C956.678 364.325 957.328 364.05 957.928 363.75C958.528 363.45 959.053 362.7 959.503 361.5C960.003 360.3 960.878 359.475 962.128 359.025C963.428 358.575 964.628 358.55 965.728 358.95C966.878 359.3 967.728 360.1 968.278 361.35C968.878 362.55 968.753 364.2 967.903 366.3ZM1010.37 386.55C1010.17 388.7 1009.77 390.9 1009.17 393.15C1008.62 395.4 1007.79 397.6 1006.69 399.75C1005.64 401.9 1004.37 403.975 1002.87 405.975C1001.42 407.975 999.792 409.825 997.992 411.525C996.192 413.225 994.267 414.65 992.217 415.8C987.817 418.4 983.567 419.325 979.467 418.575C978.567 420.525 977.217 421.75 975.417 422.25C973.667 422.8 971.917 422.8 970.167 422.25C968.467 421.75 966.967 420.775 965.667 419.325C964.367 417.875 963.717 415.9 963.717 413.4C963.717 410.85 963.892 408.25 964.242 405.6C964.592 402.95 965.067 400.4 965.667 397.95C966.617 393.9 967.792 390.1 969.192 386.55C972.492 378.5 974.367 372.85 974.817 369.6C975.467 365.25 976.667 362.55 978.417 361.5C981.317 359.8 984.067 359.075 986.667 359.325C989.267 359.575 991.617 360.2 993.717 361.2C997.167 362.85 1000.89 365.625 1004.89 369.525C1009.29 373.775 1011.12 379.45 1010.37 386.55ZM980.892 409.05C983.442 407.75 985.492 406.425 987.042 405.075C988.642 403.675 990.142 402.4 991.542 401.25C993.692 399.1 995.267 396.55 996.267 393.6C998.467 387.1 997.067 382.175 992.067 378.825C991.317 378.275 990.192 377.525 988.692 376.575C987.992 378.175 987.467 379.85 987.117 381.6C986.817 383.35 986.392 385.05 985.842 386.7L983.817 393.3L982.167 400.425C982.067 401.425 981.917 402.4 981.717 403.35C981.517 404.25 981.342 405.2 981.192 406.2L980.892 409.05ZM525.53 452.64C522.963 460.633 520.58 467.857 518.38 474.31C516.253 480.763 514.273 486.703 512.44 492.13C510.68 497.557 509.03 502.58 507.49 507.2C505.95 511.747 504.52 516.11 503.2 520.29C502.467 525.13 500.083 528.54 496.05 530.52C493.703 531.62 490.917 532.17 487.69 532.17C484.463 532.17 482.043 531.803 480.43 531.07C478.817 530.41 477.79 529.42 477.35 528.1C476.837 526.78 476.837 525.203 477.35 523.37C477.79 521.463 478.597 518.897 479.77 515.67C480.943 512.37 482.41 507.933 484.17 502.36C486.003 496.787 487.91 491.14 489.89 485.42C494.803 471.12 498.69 461.22 501.55 455.72C502.65 453.667 503.75 452.31 504.85 451.65C505.95 450.917 507.013 450.403 508.04 450.11C509.067 449.743 510.02 449.34 510.9 448.9C511.78 448.46 512.55 447.36 513.21 445.6C513.943 443.84 515.227 442.63 517.06 441.97C518.967 441.31 520.727 441.273 522.34 441.86C524.027 442.373 525.273 443.547 526.08 445.38C526.96 447.14 526.777 449.56 525.53 452.64ZM579.948 503.02L574.668 516.44C573.935 518.493 573.275 520.62 572.688 522.82C572.102 525.02 571.478 526.927 570.818 528.54C570.158 530.227 569.132 531.547 567.738 532.5C566.418 533.453 564.915 534.15 563.228 534.59C561.542 535.103 559.782 535.323 557.948 535.25C556.188 535.177 554.612 534.847 553.218 534.26C550.065 532.793 548.965 530.373 549.918 527C553.292 512.187 556.445 500.307 559.378 491.36C562.385 482.413 564.842 475.373 566.748 470.24C568.728 465.107 570.782 459.68 572.908 453.96C573.128 451.833 574.008 449.927 575.548 448.24C577.088 446.553 578.885 445.16 580.938 444.06C583.065 442.96 585.265 442.19 587.538 441.75C589.812 441.237 591.828 441.163 593.588 441.53C595.348 441.897 596.632 442.703 597.438 443.95C598.318 445.197 598.392 446.993 597.658 449.34C595.018 456.087 593.148 460.853 592.048 463.64C590.948 466.427 589.958 468.92 589.078 471.12L585.998 478.38C587.538 478.453 589.482 478.233 591.828 477.72C596.082 476.767 599.162 476.437 601.068 476.73C601.068 476.363 601.252 475.74 601.618 474.86C603.672 465.913 605.982 457.7 608.548 450.22C610.382 444.06 615.112 440.833 622.738 440.54C625.745 440.54 628.018 441.273 629.558 442.74C631.245 444.28 631.465 446.37 630.218 449.01C623.472 467.93 618.705 482.853 615.918 493.78C612.765 506.393 610.675 514.9 609.648 519.3C608.695 523.7 607.852 526.303 607.118 527.11C606.385 527.917 605.615 528.467 604.808 528.76C604.075 529.127 603.342 529.457 602.608 529.75C601.875 530.043 601.288 530.777 600.848 531.95H600.518C599.932 533.27 598.648 534.297 596.668 535.03C594.688 535.763 592.672 536.02 590.618 535.8C588.638 535.653 586.952 534.92 585.558 533.6C584.238 532.353 583.908 530.41 584.568 527.77C585.302 523.59 586.512 519.117 588.198 514.35C589.885 509.51 591.205 505.733 592.158 503.02C593.185 500.307 594.028 497.777 594.688 495.43C594.102 495.723 593.515 495.943 592.928 496.09C592.415 496.237 591.755 496.53 590.948 496.97C590.142 497.337 589.298 497.667 588.418 497.96C587.612 498.253 586.805 498.547 585.998 498.84C583.945 499.647 582.258 500.453 580.938 501.26L579.948 503.02ZM592.378 495.65C592.452 495.65 592.818 495.54 593.478 495.32C593.038 495.467 592.672 495.577 592.378 495.65ZM634.496 515.89L634.386 518.53C634.386 518.97 634.46 519.85 634.606 521.17C635.266 521.977 635.963 522.16 636.696 521.72C637.283 521.353 638.603 520.327 640.656 518.64C644.03 513.58 646.816 508.593 649.016 503.68C654.076 492.167 657.67 482.34 659.796 474.2C660.456 471.78 661.08 469.397 661.666 467.05C662.326 464.703 662.95 462.32 663.536 459.9C664.196 457.407 664.93 454.84 665.736 452.2V451.76C666.983 447.433 670.173 444.06 675.306 441.64C680.22 439.22 684.436 438.853 687.956 440.54C689.643 441.347 690.853 442.74 691.586 444.72C692.32 446.627 692.246 449.23 691.366 452.53C689.68 457.59 687.993 462.907 686.306 468.48C684.62 474.053 682.823 479.663 680.916 485.31C679.01 490.883 676.883 496.347 674.536 501.7C672.19 507.053 669.476 511.967 666.396 516.44C659.576 526.413 651.51 533.013 642.196 536.24C641.17 536.68 640.29 536.937 639.556 537.01C638.896 537.083 637.906 537.193 636.586 537.34C635.266 537.56 633.58 537.597 631.526 537.45C629.546 537.377 627.603 537.047 625.696 536.46C621.296 535.213 618.583 533.013 617.556 529.86C616.383 525.46 615.943 522.27 616.236 520.29C616.456 518.237 616.86 516.587 617.446 515.34C618.033 514.093 618.766 512.773 619.646 511.38H619.756C620.416 510.133 621.443 509.07 622.836 508.19C624.303 507.31 625.806 506.76 627.346 506.54C628.96 506.247 630.426 506.357 631.746 506.87C633.14 507.383 634.056 508.373 634.496 509.84C634.57 510.647 634.606 511.673 634.606 512.92C634.606 514.167 634.57 515.157 634.496 515.89ZM704.846 513.14C709.1 513.58 712.253 513.8 714.306 513.8C716.433 513.8 719.623 513.507 723.876 512.92C725.196 513.36 725.966 513.91 726.186 514.57C726.406 515.23 726.48 515.927 726.406 516.66C726.333 517.32 726.37 517.98 726.516 518.64C726.663 519.3 727.36 519.85 728.606 520.29C729.266 520.51 729.45 521.17 729.156 522.27C728.936 523.297 728.35 524.433 727.396 525.68C724.976 528.833 722.116 531.033 718.816 532.28C713.536 533.6 709.393 534.37 706.386 534.59C701.4 534.957 695.973 534.773 690.106 534.04C683.653 532.867 680.536 530.19 680.756 526.01C680.756 510.61 684.13 495.137 690.876 479.59C693.076 474.53 695.57 469.213 698.356 463.64C698.943 462.467 699.273 461.147 699.346 459.68C699.493 458.213 699.603 456.783 699.676 455.39C699.75 453.997 699.97 452.75 700.336 451.65C700.703 450.55 701.473 449.78 702.646 449.34C717.9 443.253 729.963 440.907 738.836 442.3C741.916 442.373 743.933 443.437 744.886 445.49C745.913 447.47 746.023 449.707 745.216 452.2C744.483 454.693 742.98 457.04 740.706 459.24C738.506 461.44 735.72 462.797 732.346 463.31C728.02 464.557 725.38 465.4 724.426 465.84C722.593 466.72 721.273 467.893 720.466 469.36C719.44 470.973 718.486 472.513 717.606 473.98C716.726 475.447 716.103 477.023 715.736 478.71L715.296 481.13C716.69 481.79 718.376 482.01 720.356 481.79C722.41 481.497 724.28 481.24 725.966 481.02C727.726 480.727 729.12 480.69 730.146 480.91C731.246 481.13 731.466 482.23 730.806 484.21C730.22 486.117 729.083 488.28 727.396 490.7C725.783 493.12 723.473 494.88 720.466 495.98C718.56 496.347 717.24 496.64 716.506 496.86C715.846 497.007 715.333 497.117 714.966 497.19C714.453 497.263 712.986 497.373 710.566 497.52C707.12 503.387 705.03 507.933 704.296 511.16C704.003 512.48 704.186 513.14 704.846 513.14ZM780.902 446.7C781.635 448.68 782.039 450 782.112 450.66C782.259 452.053 781.745 453.227 780.572 454.18C780.572 454.253 780.499 454.363 780.352 454.51C781.012 457.957 781.159 461.183 780.792 464.19C780.425 467.197 779.949 470.093 779.362 472.88C783.322 466.133 786.475 461.183 788.822 458.03C793.662 451.503 798.172 446.847 802.352 444.06C803.745 443.253 805.432 442.667 807.412 442.3C809.465 441.86 811.409 441.787 813.242 442.08C815.075 442.373 816.579 443.107 817.752 444.28C818.999 445.453 819.549 447.213 819.402 449.56C817.349 463.86 815.149 477.207 812.802 489.6C810.455 501.92 807.412 513.69 803.672 524.91V525.13H803.562C802.682 527.77 800.482 529.64 796.962 530.74C793.515 531.767 790.435 531.84 787.722 530.96C784.422 530.007 782.919 528.247 783.212 525.68L783.322 523.15V522.93C783.615 521.17 783.762 519.997 783.762 519.41C783.835 518.75 783.909 518.273 783.982 517.98C784.129 516.073 784.422 514.313 784.862 512.7C785.375 511.013 785.742 509.657 785.962 508.63C786.182 507.603 786.402 506.65 786.622 505.77C786.842 504.817 786.989 504.083 787.062 503.57C784.275 507.383 782.295 509.693 781.122 510.5C778.189 512.553 774.779 513.507 770.892 513.36C768.472 513.213 767.079 512.663 766.712 511.71C765.979 509.657 765.465 508.447 765.172 508.08C764.732 507.493 764.365 506.503 764.072 505.11C762.165 513.543 760.295 519.52 758.462 523.04C757.729 524.433 756.995 525.68 756.262 526.78C755.235 529.2 752.889 530.887 749.222 531.84C745.775 532.793 742.475 532.72 739.322 531.62C736.095 530.593 734.555 528.76 734.702 526.12C734.849 523.48 735.399 520.18 736.352 516.22C737.232 512.187 738.295 507.933 739.542 503.46C743.282 489.307 745.922 480.103 747.462 475.85C749.075 471.597 750.432 468.26 751.532 465.84C754.172 460.193 756.519 456.087 758.572 453.52C760.845 448.9 764.622 446.113 769.902 445.16C774.082 444.353 777.749 444.867 780.902 446.7ZM856.957 446.7C857.69 448.68 858.093 450 858.167 450.66C858.313 452.053 857.8 453.227 856.627 454.18C856.627 454.253 856.553 454.363 856.407 454.51C857.067 457.957 857.213 461.183 856.847 464.19C856.48 467.197 856.003 470.093 855.417 472.88C859.377 466.133 862.53 461.183 864.877 458.03C869.717 451.503 874.227 446.847 878.407 444.06C879.8 443.253 881.487 442.667 883.467 442.3C885.52 441.86 887.463 441.787 889.297 442.08C891.13 442.373 892.633 443.107 893.807 444.28C895.053 445.453 895.603 447.213 895.457 449.56C893.403 463.86 891.203 477.207 888.857 489.6C886.51 501.92 883.467 513.69 879.727 524.91V525.13H879.617C878.737 527.77 876.537 529.64 873.017 530.74C869.57 531.767 866.49 531.84 863.777 530.96C860.477 530.007 858.973 528.247 859.267 525.68L859.377 523.15V522.93C859.67 521.17 859.817 519.997 859.817 519.41C859.89 518.75 859.963 518.273 860.037 517.98C860.183 516.073 860.477 514.313 860.917 512.7C861.43 511.013 861.797 509.657 862.017 508.63C862.237 507.603 862.457 506.65 862.677 505.77C862.897 504.817 863.043 504.083 863.117 503.57C860.33 507.383 858.35 509.693 857.177 510.5C854.243 512.553 850.833 513.507 846.947 513.36C844.527 513.213 843.133 512.663 842.767 511.71C842.033 509.657 841.52 508.447 841.227 508.08C840.787 507.493 840.42 506.503 840.127 505.11C838.22 513.543 836.35 519.52 834.517 523.04C833.783 524.433 833.05 525.68 832.317 526.78C831.29 529.2 828.943 530.887 825.277 531.84C821.83 532.793 818.53 532.72 815.377 531.62C812.15 530.593 810.61 528.76 810.757 526.12C810.903 523.48 811.453 520.18 812.407 516.22C813.287 512.187 814.35 507.933 815.597 503.46C819.337 489.307 821.977 480.103 823.517 475.85C825.13 471.597 826.487 468.26 827.587 465.84C830.227 460.193 832.573 456.087 834.627 453.52C836.9 448.9 840.677 446.113 845.957 445.16C850.137 444.353 853.803 444.867 856.957 446.7ZM914.641 513.14C918.895 513.58 922.048 513.8 924.101 513.8C926.228 513.8 929.418 513.507 933.671 512.92C934.991 513.36 935.761 513.91 935.981 514.57C936.201 515.23 936.275 515.927 936.201 516.66C936.128 517.32 936.165 517.98 936.311 518.64C936.458 519.3 937.155 519.85 938.401 520.29C939.061 520.51 939.245 521.17 938.951 522.27C938.731 523.297 938.145 524.433 937.191 525.68C934.771 528.833 931.911 531.033 928.611 532.28C923.331 533.6 919.188 534.37 916.181 534.59C911.195 534.957 905.768 534.773 899.901 534.04C893.448 532.867 890.331 530.19 890.551 526.01C890.551 510.61 893.925 495.137 900.671 479.59C902.871 474.53 905.365 469.213 908.151 463.64C908.738 462.467 909.068 461.147 909.141 459.68C909.288 458.213 909.398 456.783 909.471 455.39C909.545 453.997 909.765 452.75 910.131 451.65C910.498 450.55 911.268 449.78 912.441 449.34C927.695 443.253 939.758 440.907 948.631 442.3C951.711 442.373 953.728 443.437 954.681 445.49C955.708 447.47 955.818 449.707 955.011 452.2C954.278 454.693 952.775 457.04 950.501 459.24C948.301 461.44 945.515 462.797 942.141 463.31C937.815 464.557 935.175 465.4 934.221 465.84C932.388 466.72 931.068 467.893 930.261 469.36C929.235 470.973 928.281 472.513 927.401 473.98C926.521 475.447 925.898 477.023 925.531 478.71L925.091 481.13C926.485 481.79 928.171 482.01 930.151 481.79C932.205 481.497 934.075 481.24 935.761 481.02C937.521 480.727 938.915 480.69 939.941 480.91C941.041 481.13 941.261 482.23 940.601 484.21C940.015 486.117 938.878 488.28 937.191 490.7C935.578 493.12 933.268 494.88 930.261 495.98C928.355 496.347 927.035 496.64 926.301 496.86C925.641 497.007 925.128 497.117 924.761 497.19C924.248 497.263 922.781 497.373 920.361 497.52C916.915 503.387 914.825 507.933 914.091 511.16C913.798 512.48 913.981 513.14 914.641 513.14ZM985.747 498.84C983.767 504.56 981.75 510.06 979.697 515.34C977.643 520.62 975.92 524.617 974.527 527.33C973.207 530.117 972.033 532.023 971.007 533.05C969.98 534.077 968.917 534.773 967.817 535.14C966.79 535.507 965.727 535.653 964.627 535.58C963.6 535.507 962.537 535.433 961.437 535.36C955.277 534.407 953.37 529.97 955.717 522.05C957.257 515.743 958.503 510.61 959.457 506.65C960.41 502.617 961.18 499.317 961.767 496.75C962.427 494.11 962.977 491.947 963.417 490.26C963.857 488.5 964.333 486.777 964.847 485.09C965.36 483.403 965.983 481.497 966.717 479.37C967.523 477.243 968.55 474.42 969.797 470.9C967.01 471.267 964.517 470.973 962.317 470.02C959.09 468.627 957.77 465.62 958.357 461C958.65 458.873 959.787 456.893 961.767 455.06C962.793 454.107 964.003 453.08 965.397 451.98C968.257 449.707 973.94 447.287 982.447 444.72C991.247 442.08 998.8 440.833 1005.11 440.98C1006.79 440.687 1008.52 440.907 1010.28 441.64C1012.11 442.3 1013.58 443.217 1014.68 444.39C1015.78 445.563 1016.33 446.847 1016.33 448.24C1016.4 449.633 1015.52 450.88 1013.69 451.98C1012.81 452.567 1012.18 453.557 1011.82 454.95C1011.45 456.27 1011.05 457.7 1010.61 459.24C1010.17 460.707 1009.51 462.063 1008.63 463.31C1007.82 464.557 1006.5 465.29 1004.67 465.51C1003.71 466.023 1002.36 466.39 1000.6 466.61C998.91 466.83 997.773 467.013 997.187 467.16C996.673 467.233 996.38 467.417 996.307 467.71C994.987 471.597 993.41 476.327 991.577 481.9C989.743 487.4 987.8 493.047 985.747 498.84ZM970.897 469.69C970.75 469.69 970.677 469.727 970.677 469.8C970.677 469.8 970.75 469.8 970.897 469.8V469.69Z" fill="#F5F0E8"/>
<path d="M839.433 738.45C837.018 737.518 836.107 736.199 835.783 733.851C834.624 725.542 829.06 721.544 820.66 722.83C819.76 722.969 818.816 723.002 817.911 722.916C816.59 722.787 815.835 722.262 817.221 721.088C818.509 720 818.833 718.633 818.892 717.003C819.005 713.98 819.285 710.957 819.598 707.944C819.927 704.749 818.957 701.898 817.442 699.18C817.064 698.499 815.889 697.899 815.959 697.384C816.487 693.53 813.835 691.15 811.964 688.459C809.899 685.479 808.422 681.93 804.551 680.563C802.998 680.016 801.37 678.226 800.927 681.544C800.857 682.059 800.318 681.962 799.919 681.807C799.434 681.614 798.863 681.389 798.895 680.804C798.938 680 799.089 679.185 799.337 678.419C800.2 675.76 800.593 673.058 800.421 670.266C799.925 662.273 794.954 657.368 787.114 656.221C781.453 655.396 775.706 655.551 770.083 654.329C766.206 653.488 762.335 652.335 758.286 652.458C755.472 652.549 753.579 653.638 753.348 656.736C752.782 664.439 750.97 672.019 751.153 679.802C751.218 682.611 753.445 684.599 756.151 683.812C759.192 682.927 762.2 681.903 765.257 681.072C773.851 678.724 782.58 676.725 788.813 669.521C789.859 668.309 791.411 667.575 793.18 667.537C795.078 667.494 796.07 668.084 795.832 670.212C795.482 673.348 793.773 675.262 791.147 676.934C789.616 677.91 789.314 676.114 788.306 676.436C786.964 676.859 785.416 676.189 784.171 677.041C780.801 679.336 777.156 680.949 773.172 681.85C770.741 682.396 767.797 682.434 766.082 683.881C764.271 685.409 762.475 686.942 760.357 687.709C756.399 689.145 753.935 692.335 751.072 694.993C749.751 696.221 748.35 697.877 747.988 699.818C747.25 703.817 746.689 707.783 744.818 711.541C743.848 713.498 742.991 715.272 741.26 716.682C738.413 719.003 735.567 721.367 732.989 723.972C729.501 727.494 729.172 731.954 730.051 736.558C730.267 737.7 731.075 738.772 732.396 738.52C733.636 738.284 733.065 737.025 733.183 736.178C733.227 735.877 733.194 735.566 733.205 735.261C733.297 732.795 734.413 730.93 736.634 729.863C738.888 728.786 740.942 729.611 742.538 731.176C744.57 733.17 746.581 735.266 748.177 737.609C750.663 741.265 748.711 745.585 744.333 746.7C743.837 746.829 743.33 746.941 742.861 747.14C742.392 747.333 741.907 747.601 741.918 748.206C741.928 748.807 742.376 749.08 742.888 749.236C746.587 750.34 750.253 751.61 754.011 752.468C755.93 752.907 757.812 752.489 759.731 751.256C763.306 748.968 767.452 747.837 771.738 748.512C774.725 748.984 777.572 750.549 780.693 749.155C781.259 748.903 781.556 749.605 781.982 749.75C786.899 751.455 791.87 752.195 796.647 749.461C798.852 748.201 800.89 746.609 802.885 745.022C805.462 742.969 807.855 740.718 809.268 737.561C807.138 736.751 806.378 739.683 804.092 738.279C806.076 737.625 807.058 736.387 808.228 735.245C810.265 733.261 811.306 729.831 815.339 730.361C821.803 731.208 823.949 733.572 823.34 740.101C822.946 744.331 824.488 747.579 828.198 749.563C834.543 752.95 841.466 752.548 848.243 751.771C851.667 751.38 852.551 747.922 850.157 745.43C847.143 742.294 843.428 740 839.428 738.456L839.433 738.45ZM763.063 710.517C761.764 710.748 761.149 709.156 760.761 708.035C759.769 705.167 758.917 702.251 758.033 699.351C757.85 698.756 757.79 698.108 758.383 697.695C758.874 697.347 759.489 697.518 759.737 697.952C761.44 700.976 763.667 703.742 764.519 706.315C764.389 708.518 764.573 710.249 763.068 710.517H763.063ZM784.214 740.964C782.58 740.482 781.41 739.281 780.294 738.113C779.022 736.783 777.997 735.315 775.846 735.223C774.73 735.181 774.283 734.376 775.118 733.278C776.488 731.476 778.062 730.688 780.046 732.297C782.456 734.253 783.82 737.094 785.842 739.378C786.025 739.587 786.052 739.941 786.144 740.214C785.864 741.463 784.985 741.19 784.208 740.959L784.214 740.964Z" fill="#F5F0E8"/>
<path d="M726.79 748.785C715.252 748.078 703.714 747.751 692.128 747.976C683.291 748.147 674.541 746.164 665.86 744.138C659.207 742.583 654.339 738.788 649.335 733.551C652.128 734.43 654.991 732.79 656.22 736.135C656.404 736.638 657.428 736.81 658.032 737.196C661.79 739.597 666.405 739.935 670.206 742.251C671.069 742.776 672.028 743.173 673.128 742.889C674.805 742.455 676.584 743.95 678.261 743.446C678.902 743.72 679.614 743.88 680.363 743.913C681.749 745.247 683.992 744.642 685.663 745.344C686.645 745.762 687.356 745.917 687.69 745.564C687.804 745.574 687.917 745.58 688.036 745.585C688.904 745.601 689.766 745.66 690.629 745.74C691.184 745.966 691.81 746.057 692.602 745.976C692.645 745.976 692.694 745.971 692.737 745.966C695.05 746.239 697.357 746.534 699.697 746.416C700.441 746.378 701.18 746.201 701.87 745.923C704.113 746.475 706.528 745.665 708.804 745.923C713.349 746.437 713.667 745.81 712.836 741.736C712.82 741.667 713.09 741.543 713.23 741.447C715.322 744.497 715.333 744.39 719.748 744.818C721.5 744.99 721.98 744.299 721.97 742.862C721.932 736.14 721.199 729.563 717.117 723.891C716.244 722.675 715.683 721.527 716.001 719.721C720.314 724.921 724.428 729.884 724.719 736.88C725.808 732.136 728.585 728.035 729.043 723.2C729.135 722.256 730.062 721.94 730.812 721.672C733.912 720.563 734.532 718.156 734.192 715.293C733.572 710.061 731.971 705.167 729.237 700.622C727.108 697.078 723.625 695.084 720.632 692.469C711.138 684.176 700.134 681.71 688.036 683.651C683.792 684.331 679.549 684.23 675.188 685.098C675.894 682.766 678.784 681.823 679.296 681.898C683.771 682.584 688.014 680.895 692.494 681.024C700.668 681.254 708.291 682.262 715.424 686.32C716.087 686.695 717.079 687.151 717.629 686.91C717.662 686.899 717.683 686.878 717.71 686.867C718.395 687.467 719.144 688.019 719.932 688.539C719.932 688.539 719.937 688.545 719.942 688.55C720.217 689.108 720.557 689.585 721.177 689.547C721.862 690.035 722.595 690.453 723.355 690.785C723.571 690.882 723.792 690.962 724.018 691.037C724.892 691.552 725.771 692.061 726.639 692.586C727.188 692.919 727.728 693.273 728.272 693.621C728.337 693.675 728.402 693.728 728.472 693.782C728.569 693.9 728.72 694.007 728.833 694.077C728.919 694.146 729.005 694.216 729.097 694.291C729.528 694.639 730.003 694.945 730.499 695.197C732.364 699.63 734.855 703.822 735.96 708.512C735.96 708.673 735.96 708.839 735.971 709C736.079 710.426 736.467 712.313 737.686 713.219C737.756 713.267 737.837 713.299 737.923 713.31C738.155 713.61 738.538 713.642 738.877 713.492C740.333 712.849 741.379 711.262 742.026 709.868C742.107 709.697 742.177 709.525 742.241 709.349C742.279 709.434 742.317 709.515 742.36 709.6C743.39 707.698 743.643 706.02 743.595 704.315C743.525 701.737 743.934 699.228 744.393 696.709C744.517 696.028 744.382 695.176 745.336 695.004C748.323 694.468 749.407 692.158 750.334 689.708C750.469 689.349 750.571 688.786 750.388 688.529C746.776 683.522 747.93 677.851 747.989 672.303C748.016 669.864 748.609 667.65 749.795 665.586C750.798 663.844 751.132 661.989 751.224 660.016C751.536 653.069 753.003 651.343 759.731 649.456C755.224 647.403 750.895 644.68 746.172 643.442C738.408 641.405 730.472 639.727 722.444 639.175C718.481 638.902 714.556 637.39 710.583 638.275C707.838 638.886 705.121 639.089 702.355 638.934C698.759 638.736 695.217 638.918 691.664 639.599C685.555 640.773 679.328 641.566 673.484 643.726C665.402 646.712 657.903 650.963 650.894 655.926C646.58 658.982 642.752 662.659 639.426 666.91C637.129 669.842 637.9 673.97 635.01 676.462C632.994 678.199 632.401 680.836 630.994 682.847C627.123 688.379 628.018 695.315 624.982 701.013C624.599 701.737 624.664 702.889 624.923 703.72C625.494 705.559 625.144 707.333 625.068 709.166C624.648 719.978 624.292 730.796 627.829 741.275C629.538 746.346 632.908 749.782 638.191 752.243C638.191 752.232 638.191 752.221 638.186 752.211C638.612 752.446 639.086 752.591 639.555 752.72C641.033 753.422 642.569 753.937 644.009 754.247C644.348 754.323 644.693 754.365 645.044 754.382C645.928 754.676 646.807 754.982 647.702 755.239C648.478 755.464 649.265 755.663 650.053 755.829C650.651 756.22 651.244 756.638 651.869 757.062C654.538 758.884 657.299 761.045 660.792 760.664C662.545 760.471 664.081 760.894 665.709 761.028C668.842 761.286 671.554 762.883 674.611 763.151C679.479 763.575 684.342 764.052 689.216 764.406C691.114 764.545 693.659 765.462 694.748 763.918C695.794 762.438 696.452 763.055 697.411 763.248C700.706 763.907 704.01 765.274 707.369 764.196C710.464 763.21 713.586 763.071 716.751 762.915C720.023 762.755 723.328 762.738 726.552 762.229C737.626 760.487 748.663 761.548 759.456 763.591C768.746 765.344 777.728 768.705 786.834 771.396C787.961 771.728 789.293 772.184 789.897 771.09C790.582 769.846 789.25 769.064 788.312 768.549C785.449 766.973 782.473 765.59 779.621 763.993C771.959 759.694 763.516 757.528 755.24 754.885C745.956 751.921 736.559 749.396 726.806 748.796L726.79 748.785Z" fill="#F5F0E8"/>
<path d="M900.67 774.783C898.492 773.079 896.508 771.294 895.165 769.101C894.324 767.729 892.874 766.673 891.44 765.638C890.982 765.306 890.389 764.958 889.801 765.269C889.779 765.279 889.752 765.295 889.736 765.306C889.661 765.242 889.58 765.172 889.499 765.108C887.402 763.392 885.207 761.806 882.932 760.332C882.706 760.187 882.479 760.042 882.253 759.897C881.223 758.08 880.031 756.295 878.716 754.548C877.018 752.291 874.753 750.249 873.767 747.718C872.025 743.242 870.343 738.75 868.79 734.232C868.499 731.846 868.197 729.466 867.814 727.092C867.545 725.414 867.221 723.741 866.785 722.096C866.165 719.764 865.248 717.539 864.24 715.347C863.167 713.02 861.603 710.941 859.916 709.027C859.026 708.073 857.975 707.403 856.756 707.006C855.587 706.395 854.325 706.116 852.972 706.164C851.748 706.116 850.599 706.347 849.527 706.84C848.41 706.116 847.219 705.51 845.957 704.98C844.151 704.219 842.421 703.656 840.474 703.382C838.016 703.034 835.6 702.771 833.12 702.707C831.363 702.664 829.6 702.659 827.842 702.594C825.551 702.509 823.254 702.444 820.962 702.401C821.874 707.102 821.577 711.927 821.173 716.821C821.049 718.3 821.566 718.777 822.995 718.944C829.411 719.689 835.649 725.081 837.261 731.482C837.789 733.594 838.819 734.794 840.728 735.727C845.181 737.898 849.149 740.793 852.249 744.711C855.565 748.898 854.406 751.808 849.478 753.701C844.022 755.797 838.447 755.775 832.856 755.405C831.136 755.293 829.653 754.205 827.88 753.652C827.109 752.591 825.869 751.648 824.618 751.364C823.831 751.187 823.033 751.154 822.267 751.262C820.24 750.994 818.218 750.828 816.191 750.758C815.528 750.672 814.87 750.592 814.239 750.511C808.115 749.755 801.494 750.098 796.178 753.502C793.73 753.583 791.288 753.658 788.845 753.727C788.721 753.701 788.597 753.679 788.473 753.652C787.778 753.492 787.05 753.459 786.338 753.54C786.187 753.508 786.042 753.47 785.891 753.433C785.077 753.234 784.263 753.074 783.427 752.977C781.734 752.784 780.02 752.864 778.321 752.87C778.31 752.87 778.305 752.87 778.294 752.87C776.882 752.634 775.469 752.339 774.03 752.269C772.633 752.2 771.258 752.393 770.078 753.122C769.458 753.299 768.881 753.588 768.412 754.087C768.115 754.221 767.889 754.526 767.98 754.934C768.401 756.794 770.633 757.582 772.24 758.086C773.091 758.354 773.954 758.563 774.811 758.804C775.976 759.597 777.146 760.38 778.348 761.103C779.669 761.897 781.152 762.465 782.473 763.28C783.184 764.137 784.144 764.791 785.33 765.065C786.311 765.29 787.303 765.429 788.295 765.601C788.533 765.644 788.77 765.687 789.007 765.73C790.603 766.362 791.342 767.606 791.999 769.053C792.776 770.758 792.28 771.899 790.749 772.5C789.482 772.296 788.22 772.076 786.958 771.846C780.704 770.704 774.59 769.037 768.369 767.75C763.096 766.662 757.192 765.88 751.671 766.426C736.597 765.735 721.533 766.475 706.447 767.322C700.436 765.472 693.907 766.362 687.685 767.08C684.202 767.209 680.703 767.305 677.193 767.439C676.902 767.375 676.606 767.311 676.314 767.241C674.692 766.855 673.069 766.48 671.43 766.153C670.589 765.987 669.742 765.826 668.896 765.681C668.842 765.665 668.782 765.644 668.729 765.628C666.696 764.968 664.599 764.443 662.474 764.137C661.677 763.81 660.819 763.634 659.962 763.612C658.814 763.451 657.687 763.21 656.571 762.926C655.255 762.331 653.961 761.698 652.624 761.146C651.066 760.503 649.486 759.913 647.907 759.318C646.462 758.777 645.082 758.128 643.669 757.507C642.542 757.013 641.399 756.617 640.208 756.424C639.544 756.167 638.871 755.984 638.191 755.856C637.161 755.239 636.148 754.591 635.167 753.904C635.01 753.797 633.716 752.789 633.964 753.009C634.045 753.074 634.121 753.143 634.196 753.208C634.072 753.106 634.002 753.047 633.964 753.009C633.63 752.73 633.29 752.457 632.967 752.168C631.964 751.283 631.021 750.329 630.158 749.311C630.072 749.209 629.991 749.107 629.905 749.005C629.867 748.951 629.77 748.817 629.613 748.598C629.231 747.986 628.821 747.397 628.465 746.764C628.195 746.282 627.958 745.794 627.71 745.296C628.217 746.314 627.203 744.03 627.117 743.789C626.589 742.337 626.141 740.852 625.753 739.351C624.917 736.14 624.341 732.87 623.694 729.622C623.505 728.667 622.998 727.815 622.308 727.118C622.432 723.044 622.599 718.965 622.621 714.891C612.819 716.612 603.26 720.262 596.364 727.649C594.989 729.123 593.755 730.747 592.585 732.382C591.199 734.323 590.983 737.614 591.576 739.844C590.137 741.586 588.697 743.328 586.886 744.894C582.098 749.037 577.758 753.443 574.653 758.552C573.564 760.348 572.453 762.122 571.412 763.923C569.639 764.995 567.897 766.121 566.193 767.3C567.169 765.987 568.005 764.604 569.38 763.494C569.73 763.21 570.091 762.824 569.612 762.454C569.164 762.111 568.636 762.299 568.248 762.588C567.131 763.414 566.048 764.255 564.959 765.102C558.791 769.895 552.424 774.574 550.084 781.452C549.911 781.956 549.48 782.411 549.113 782.979C547.873 781.929 548.515 780.883 548.552 779.897C548.569 779.49 548.509 779.072 547.965 778.884C547.393 778.686 547.01 779.013 546.628 779.275C543.803 781.221 544.827 784.995 548.375 786.051C551.022 786.839 553.793 787.391 556.003 788.999C556.796 789.578 557.934 790.607 559.47 790.114C561.303 789.53 561.147 790.516 560.565 791.09C558.225 793.379 560.462 794.585 562.355 795.764C564.031 796.815 565.988 797.576 568.145 797.924C578.141 799.543 588.32 800.015 598.461 800.213C614.372 800.524 630.298 800.31 646.219 800.31C657.094 800.31 667.974 800.31 678.848 800.277C688.704 800.251 698.565 800.819 708.415 800.197C715.392 799.758 722.374 799.934 729.356 799.913C739.125 799.886 748.857 799.061 758.653 799.313C775.712 799.741 792.781 800.149 809.845 800.122C816.935 800.111 823.976 800.647 831.071 800.567C840.911 800.454 850.745 801.307 860.633 800.851C867.426 800.54 873.271 798.986 877.988 795.142C878.101 795.051 878.215 794.96 878.333 794.869C879.277 794.869 880.226 794.837 881.169 794.751C882.932 794.59 884.744 794.402 886.469 793.958C888 793.566 889.52 792.955 890.885 792.173C892.691 791.133 893.995 789.878 895.182 788.292C895.462 788.292 895.683 788.292 895.796 788.302C897.128 788.302 897.656 788.367 898.152 788.292C900.557 787.911 903.511 788.308 904.412 785.724C905.873 781.527 904.617 777.871 900.675 774.789L900.67 774.783Z" fill="#F5F0E8"/>
<path d="M1058.57 854.559C1058.38 851.853 1057.86 849.309 1057.15 846.718C1054.99 838.902 1053.13 831.003 1050.89 823.212C1049.45 818.217 1047.16 814.012 1041.54 812.029C1029.58 807.813 1017.3 805.754 1004.69 805.161C994.595 804.687 984.583 805.247 974.661 807.015C974.564 807.152 974.413 807.263 974.197 807.324C972.303 807.846 970.273 807.673 968.35 808.011C968.253 808.162 968.102 808.277 967.89 808.32C967.815 808.334 967.736 808.349 967.66 808.363C965.313 808.737 963.15 809.969 960.764 810.027C959.481 810.498 958.191 810.9 956.814 810.925C956.142 811.159 955.467 811.374 954.78 811.561C947.697 813.484 943.493 817.998 942.088 825.242C941.653 827.488 940.693 829.634 939.975 831.822C939.921 831.822 939.867 831.83 939.813 831.833C939.543 832.775 939.292 833.723 939.073 834.679C939.443 835.923 938.889 837.317 938.282 838.514C937.959 839.761 937.509 841.001 937.157 842.262C937.168 842.442 937.161 842.636 937.125 842.859C937.064 843.247 936.949 843.523 936.805 843.735C936.694 844.328 936.622 844.925 936.618 845.532C936.614 845.971 936.338 846.391 935.896 846.47C935.896 846.47 935.896 846.477 935.892 846.477C936.18 846.891 936.172 847.552 935.784 848.526C933.563 854.107 936.331 857.603 940.675 860.665C943.166 862.422 945.883 863.651 948.574 864.942C957.479 869.204 966.535 873.218 976.357 874.727C994.027 877.44 1011.42 876.226 1028.29 869.919C1037.72 866.397 1047.39 863.468 1056.24 858.505C1057.89 857.578 1058.71 856.726 1058.57 854.552V854.559ZM948.272 816.693C951.413 814.152 955.122 812.69 958.999 811.781C968.72 809.502 978.517 807.662 988.489 806.807C992.571 806.455 996.632 806.764 999.532 806.613C1009.81 807.019 1018.96 807.357 1027.84 809.646C1032.71 810.9 1037.47 812.589 1042.22 814.26C1044.75 815.151 1046.1 817.53 1047.71 819.503C1048.52 820.502 1047.95 821.462 1047.35 822.436C1045.39 825.587 1042.58 827.582 1039.14 828.822C1029.85 832.171 1020.16 833.238 1010.4 833.932C992.855 835.182 975.721 832.717 958.924 827.783C955.176 826.683 951.453 825.21 948.337 822.623C945.778 820.502 945.674 818.788 948.269 816.689L948.272 816.693ZM1053.72 857.628C1040.23 863.77 1026.67 869.851 1012.01 872.38C998.867 874.648 985.445 875.794 972.361 872.075C961.741 869.056 951.467 864.888 941.822 859.422C937.082 856.737 936.079 854.067 937.376 848.612C939.335 840.372 941.484 832.178 943.568 823.97C943.935 822.526 944.38 821.559 946.084 822.996C950.346 826.59 955.445 828.689 960.703 830.234C979.472 835.754 998.591 837.565 1018.06 835.139C1024.76 834.302 1031.46 833.565 1037.95 831.431C1042.26 830.011 1045.91 827.837 1049.14 823.87C1050.58 829.562 1051.85 834.737 1053.21 839.887C1054.36 844.238 1055.98 848.472 1056.33 853.018C1056.5 855.174 1056.17 856.518 1053.73 857.628H1053.72Z" fill="#463931"/>
<path d="M976.59 849.385C975.426 848.271 974.265 847.441 973.467 846.344C971.681 843.883 972.745 841.673 975.742 841.364C978.48 841.08 980.496 842.463 982.189 844.372C983.066 845.36 983.853 846.183 985.326 846.294C993.595 846.912 1001.84 846.531 1010.1 846.017C1012.06 845.895 1013.21 844.745 1014.33 843.444C1016.33 841.101 1018.72 839.38 1021.76 838.665C1024.03 838.129 1025.07 839.114 1024.57 841.414C1024.07 843.685 1022.58 845.428 1021.25 847.261C1021.46 848.339 1022.59 848.148 1023.2 848.67C1025.59 850.693 1026.48 853.64 1025.26 855.753C1023.69 858.459 1019.9 860.076 1017.53 857.974C1012.85 853.848 1007.82 855.041 1002.58 855.275C996.916 855.53 991.292 854.153 985.589 854.218C983.759 854.24 982.315 854.639 980.885 855.789C978.858 857.417 976.522 858.459 973.809 858.247C972.328 858.132 971.117 857.603 970.542 856.08C969.953 854.52 970.696 853.481 971.696 852.36C972.971 850.93 974.682 850.326 976.594 849.385H976.59ZM1017.06 848.788C1019.72 846.636 1022.03 845.018 1022.92 842.241C1023.11 841.63 1023.4 841.001 1022.93 840.408C1022.4 839.75 1021.75 840.12 1021.15 840.282C1018.46 841.015 1016.27 842.496 1014.74 844.832C1013.66 846.499 1012.2 847.193 1010.23 847.34C1001.77 847.976 993.311 848.077 984.838 847.538C983.271 847.437 982.322 846.822 981.452 845.579C980.46 844.163 979.116 842.988 977.338 842.675C976.224 842.478 974.887 842.09 974.096 843.351C973.244 844.709 974.373 845.539 975.167 846.366C975.835 847.06 976.558 847.732 977.352 848.267C978.761 849.216 978.444 849.895 977.133 850.513C975.875 851.106 974.552 851.588 973.359 852.288C972.184 852.975 971.394 854.031 971.857 855.515C972.357 857.118 973.83 857.172 975.056 857.039C977.586 856.759 979.803 855.573 981.413 853.604C982.3 852.518 983.21 852.303 984.475 852.414C992.377 853.111 1000.28 853.884 1008.24 853.309C1011.14 853.097 1014.07 852.853 1016.27 855.494C1017.3 856.719 1018.92 856.881 1020.41 857.061C1023.29 857.417 1024.91 855.03 1023.86 852.303C1022.76 849.457 1020.31 849.183 1017.05 848.788H1017.06Z" fill="#463931"/>
<path d="M1001.03 812.776C1001.44 809.251 1003.37 808.819 1006.09 809.639C1007.83 810.164 1009.61 810.562 1011.36 811.055C1011.87 811.198 1012.47 811.342 1012.81 811.694C1016.43 815.489 1021.12 817.814 1026.68 817.548C1030.05 817.387 1031.88 818.634 1033.31 821.412C1033.67 822.098 1033.9 824.013 1035.43 823.101C1036.95 822.202 1038.95 821.732 1039.67 819.892C1040.04 818.946 1038.92 818.379 1038.26 817.994C1036.32 816.873 1034.33 815.824 1032.04 815.461C1030.2 815.166 1028.29 815.335 1026.56 814.275C1025.94 813.89 1024.89 813.606 1024.25 814.577C1024.02 814.925 1023.46 815.471 1023.41 815.169C1022.65 810.839 1018.94 814.253 1017.12 812.74C1016.58 812.302 1015.55 812.37 1015.72 811.321C1015.86 810.483 1016.58 810.48 1017.24 810.566C1024.79 811.536 1032.41 812.291 1039.25 816.068C1043.13 818.21 1043.23 820.944 1039.39 823.334C1033.94 826.723 1027.8 828.01 1021.52 828.966C1008.28 830.978 995.048 830.788 981.848 829.055C976.878 828.405 971.962 827.248 966.953 826.712C966.288 826.64 965.325 826.763 965.99 824.987C966.687 823.119 963.841 823.205 962.55 822.745C961.498 822.368 959.927 822.698 959.514 824.337C959.481 824.463 960.153 824.675 959.787 824.977C958.863 825.728 953.965 824.003 952.7 822.576C951.155 820.833 951.92 819.072 953.311 818.12C954.849 817.067 956.499 816.064 958.317 815.32C969.457 810.764 981.148 810.792 992.863 810.836C994.793 810.843 996.73 810.814 998.656 810.731C999.989 810.674 1000.89 811.019 1001.03 812.787L1001.03 812.776ZM1009.95 821.135C1009.42 819.777 1010.23 819.022 1010.53 818.145C1012.3 812.888 1011.88 812.165 1006.36 811.436C1005.39 811.31 1004.28 810.544 1003.36 811.626C1001.98 813.25 1003.01 820.571 1004.77 821.652C1004.85 821.706 1004.98 821.753 1005.07 821.724C1008.24 820.797 1011.44 824.013 1014.69 821.566C1015.53 820.934 1016.94 820.988 1018.1 820.876C1019.28 820.765 1020.37 820.657 1021.06 819.281C1019 818.371 1017.06 816.855 1015.1 816.826C1012.83 816.79 1012.17 819.953 1009.95 821.135H1009.95ZM1001.1 820.869C998.699 822.195 997.165 821.864 995.767 820.319C995.213 819.708 994.804 818.404 993.592 819.737C992.302 821.157 990.861 822.439 989.521 823.816C988.644 824.714 987.915 825.771 989.201 826.817C990.279 827.69 991.627 828.592 992.831 827.082C994.099 825.49 995.846 824.984 997.61 824.297C998.969 823.769 1000.16 822.777 1001.38 821.926C1002.02 821.476 1002.64 820.635 1001.89 820.06C1000.31 818.849 998.674 817.448 996.094 818.048C997.272 819.892 998.724 820.693 1001.09 820.869H1001.1ZM995.131 827.934C999.605 829.016 1008.11 828.908 1011.9 827.722C1009.43 822.447 1000.57 822.562 995.131 827.934ZM988.716 812.762C988.299 812.787 987.084 813.103 985.97 812.891C983.297 812.381 983.8 814.821 983.555 815.82C983.185 817.34 984.925 816.765 985.801 816.938C987.361 817.243 988.989 817.283 990.491 817.75C991.745 818.138 992.687 818.256 993.607 817.157C994.498 816.093 994.965 814.857 994.516 813.621C994.06 812.37 992.683 812.909 991.691 812.783C990.962 812.69 990.207 812.765 988.716 812.765V812.762ZM986.743 824.049C986.405 824.301 986.208 824.394 986.085 824.553C985.219 825.674 985.532 824.603 985.586 824.269C985.794 822.968 986.84 822.353 987.778 821.627C988.349 821.185 989.115 820.732 988.856 819.827C988.608 818.968 987.724 818.9 987.027 818.734C983.523 817.89 981.399 820.046 981.029 824.596C980.896 826.206 981.55 826.971 983.009 827.334C985.615 827.981 986.833 826.921 986.743 824.049ZM1019.86 822.461C1018.55 822.716 1017.03 822.856 1015.64 823.345C1014.66 823.686 1012.92 823.755 1013.24 825.322C1013.54 826.791 1014.91 827.503 1016.47 827.392C1018.39 827.251 1020.31 827.036 1022.22 826.82C1023.19 826.712 1024.26 826.565 1024.38 825.325C1024.5 824.06 1023.6 823.331 1022.58 822.928C1021.81 822.623 1020.91 822.63 1019.86 822.461H1019.86ZM1028.02 825.803C1029.35 825.059 1031.28 825.728 1031.8 824.01C1032.2 822.659 1029.25 819.762 1027.72 819.845C1026.59 819.906 1024.54 820.589 1024.98 821.167C1026.09 822.608 1025.68 825.196 1028.02 825.807L1028.02 825.803ZM967.276 822.871C968.962 824.732 970.866 826.17 973.525 826.231C974.402 826.252 975.02 826.17 974.733 825.002C973.817 821.289 970.259 820.258 967.276 822.874V822.871ZM974.611 820.244C974.923 818.425 977.094 818.803 978.104 817.577C978.366 817.261 978.485 816.593 977.96 816.496C976.249 816.179 974.474 815.382 972.879 816.902C972.167 817.577 972.429 818.274 972.728 818.954C973.03 819.633 973.371 820.355 974.607 820.244H974.611ZM978.377 826.684C980.113 823.924 976.875 823.205 976.627 821.361C976.627 821.351 975.958 821.311 975.879 821.448C974.747 823.381 977.22 824.021 977.396 825.526C977.435 825.861 977.903 826.145 978.373 826.684H978.377Z" fill="#463931"/>
<g clip-path="url(#clip0_630_2233)">
<path d="M1347 354.694C1347.21 357.855 1348.11 360.834 1349.43 363.686C1351.43 368.007 1354.08 371.867 1357.35 375.336C1360.75 378.943 1364.26 382.432 1367.86 385.821C1370.3 388.114 1372.96 390.171 1375.48 392.378C1378.76 395.249 1381.08 398.713 1381.2 403.228C1381.29 406.571 1380.17 409.581 1377.23 411.396C1373.72 413.558 1369.96 412.435 1367.69 408.834C1366.81 407.427 1366.17 405.895 1365.52 404.376C1365.1 403.412 1364.6 402.509 1363.94 401.698C1362.67 400.143 1360.8 399.828 1359.09 400.882C1357.57 401.819 1357.13 403.228 1357.63 405.422C1358.62 409.738 1361.12 412.935 1364.86 415.139C1366.83 416.298 1369 416.875 1371.31 416.975C1374.73 417.123 1378.06 416.616 1381.4 415.982C1383.12 415.657 1384.83 415.273 1386.59 415.191C1387.24 415.16 1387.66 414.822 1388.01 414.301C1389 412.802 1389.23 411.063 1389.5 409.355C1389.84 407.139 1390.05 404.895 1389.99 402.653C1389.89 398.774 1389.4 394.953 1388.36 391.191C1387.86 389.392 1386.67 388.814 1385.11 388.505C1385.03 388.49 1384.92 388.457 1384.88 388.496C1384.19 389.162 1383.77 388.62 1383.17 388.262C1382.34 387.765 1381.37 387.509 1380.44 387.185C1373.24 384.667 1367.28 380.403 1362.53 374.38C1359.23 370.202 1357.03 365.528 1355.76 360.37C1355.21 358.139 1354.61 355.921 1354.03 353.699C1353.67 352.357 1352.91 351.421 1351.49 351.135C1350.02 350.841 1348.72 350.963 1347.65 352.205C1346.99 352.962 1347.02 353.808 1347 354.695L1347 354.694Z" fill="#605046"/>
</g>
<path d="M1343.91 521.361C1343.79 525.301 1342.9 529.17 1343.16 533.171C1343.34 535.944 1344.05 538.526 1344.77 541.144C1344.9 541.59 1344.9 542.119 1345.56 542.15C1346.29 542.188 1346.63 541.66 1346.79 541.125C1349.27 533.077 1353.96 526.187 1359.46 520.14C1366.06 512.883 1373.33 505.911 1384.12 505.374C1390.14 505.077 1395.86 506.357 1401.04 509.517C1402.62 510.481 1404.25 511.226 1405.7 512.68C1408.97 515.977 1409.23 519.844 1409.19 523.944C1409.12 530.905 1409.27 537.894 1407.71 544.743C1407.17 547.137 1409.1 547.917 1410.34 549.011C1415.31 553.398 1415.91 559.243 1416.36 565.318C1417.05 574.836 1412.88 582.027 1406.4 588.439C1403.49 591.311 1400.75 594.323 1397.62 596.986C1395.15 599.1 1392.21 600.397 1389.2 600.741C1383.17 601.432 1377.02 602.052 1371.13 599.692C1369.07 598.872 1366.87 598.349 1365.01 597.064C1363.82 596.234 1362.49 595.813 1361.09 595.399C1359.73 594.996 1359.36 595.087 1359.04 596.488C1358.03 601.02 1357.21 605.607 1355.46 609.951C1353.15 615.656 1352.37 621.781 1350.94 627.71C1350.2 630.733 1349.62 633.773 1348.57 636.717C1348.27 637.566 1348.34 638.386 1348.95 639.378C1351.86 644.131 1350.35 651.004 1345.79 654.112C1344.72 654.835 1343.47 655.35 1341.98 654.623C1340.68 653.995 1339.93 653.988 1339.35 656.094C1337.63 662.38 1336.34 668.892 1332.65 674.481C1330.97 677.02 1328.97 678.728 1325.55 678.263C1323.74 678.019 1322.42 677.099 1322.27 675.711C1321.83 671.489 1320.51 667.099 1324.69 663.544C1326.58 661.934 1326.55 658.782 1328.28 656.793C1331.27 653.357 1331.49 649.474 1330.95 645.079C1330.66 642.707 1331.45 639.947 1333.87 638.036C1335.83 636.489 1336.61 634.151 1336.92 631.468C1337.76 624.266 1340.46 617.428 1341.33 610.201C1341.97 604.921 1344.51 600.116 1345.44 594.923C1346.11 591.137 1347.03 587.518 1348.91 584.157C1349.76 582.639 1349.33 581.168 1348.61 579.745C1346.36 575.302 1344.13 570.819 1343.51 565.805C1343.08 562.348 1342.4 558.758 1342.9 555.388C1343.32 552.548 1342.07 550.555 1341.23 548.325C1339.19 542.974 1337.56 537.444 1337.02 531.832C1336.55 526.902 1337 521.86 1338.43 516.86C1340.02 511.305 1342.67 506.602 1346.37 502.312C1349.28 498.936 1351.42 495.026 1353.35 491.072C1354.94 487.799 1355.02 484.04 1354.83 480.43C1354.4 472.309 1354.26 464.123 1353.07 456.099C1352.18 450.002 1351.3 443.866 1350.08 437.784C1347.98 427.351 1349.47 417.254 1356.76 408.937C1360.92 404.197 1366.6 402.337 1373 401.776C1380.1 401.148 1384.96 404.888 1389.5 409.134C1393.09 412.488 1394.22 417.166 1394.04 422.115C1393.83 427.54 1394.06 432.981 1392.67 438.317C1391.22 443.869 1389.5 449.329 1386.07 453.987C1384.45 456.198 1383.54 458.732 1382.38 461.096C1379.54 466.882 1375.69 471.951 1372.3 477.35C1368.65 483.15 1363.57 487.814 1360.26 493.785C1357.25 499.203 1353.53 504.179 1350.73 509.764C1348.73 513.75 1346.17 517.519 1343.92 521.415C1343.58 520.602 1343.96 519.864 1344.24 519.18C1346.24 514.275 1348.56 509.287 1351.38 505.07C1356.27 497.736 1360.45 489.887 1366.01 482.995C1366.79 482.031 1367.74 481.186 1368.39 480.145C1373.31 472.165 1378.26 464.203 1383.02 456.125C1385.53 451.866 1387.4 447.302 1388.92 442.552C1389.93 439.417 1390.31 436.192 1390.71 433.06C1391.43 427.378 1392.71 421.561 1390.32 415.858C1387.41 408.93 1379.21 404.826 1371.77 405.194C1366.03 405.475 1362.01 408.223 1358.01 411.75C1353.18 416.002 1351.09 421.333 1351.54 427.582C1351.96 433.58 1352.84 439.543 1353.48 445.523C1353.86 449.041 1353.84 452.643 1354.64 456.054C1355.33 458.976 1355.58 461.929 1356.05 464.856C1357.17 471.862 1356.18 478.953 1356.29 486.293C1357.84 484.337 1357.87 484.084 1358.08 482.44C1359.37 472.481 1358.36 462.643 1357.02 452.755C1355.66 442.809 1355.92 432.987 1358.72 423.099C1360.76 415.893 1365.98 413.158 1371.89 410.905C1375.89 409.376 1379.83 410.597 1383.63 412.49C1385.36 413.348 1386.84 414.122 1387.17 416.075C1387.47 417.781 1388.28 419.287 1388.71 420.92C1389.34 423.341 1389.79 425.775 1389.1 428.318C1387.54 433.972 1385.02 439.219 1382.42 444.423C1379.66 449.957 1376.4 455.271 1373.98 460.947C1370.8 468.386 1367.36 475.599 1362.07 481.796C1361.81 482.088 1361.6 482.413 1361.38 482.739C1356.95 489.493 1352.53 496.259 1348.11 503.014C1345.69 506.701 1342.46 509.733 1340.94 514.145C1339.1 519.505 1337.68 525.273 1338.63 530.418C1340 537.883 1340.25 545.909 1345.91 552.424C1348.13 554.988 1350.44 558.083 1352.1 561.368C1353.19 563.52 1355.6 564.606 1357.33 566.225C1360.69 569.381 1363.9 573.096 1369.28 573.329C1371.11 573.411 1373.07 573.638 1374.93 573.781C1379.03 574.093 1383.25 574.487 1387.22 572.996C1395.37 569.936 1399.99 563.226 1403.67 555.943C1406.83 549.69 1405.56 542.49 1406.87 535.794C1407.81 531.015 1407.2 526.212 1406.1 521.401C1405.17 517.329 1402.44 513.766 1398.41 513.074C1397.53 512.919 1396.19 511.851 1395.71 513.191C1395.31 514.285 1395.21 515.831 1396.85 516.604C1399.04 517.629 1400.01 519.731 1400.66 521.812C1401.98 526.056 1403.29 530.27 1404.07 534.724C1405.32 541.864 1403.5 548.237 1401.32 554.746C1401 555.71 1400.51 556.451 1399.98 557.247C1395.93 563.384 1390.07 567.343 1383.5 570.123C1375.35 573.574 1367.78 572.062 1361.06 566.296C1360.44 565.767 1360.19 565.138 1360.8 564.586C1362.24 563.27 1362.15 563.307 1362.25 561.628C1362.54 556.529 1362.16 551.249 1365.03 546.671C1368.04 541.865 1371.08 536.705 1377.1 535.449C1380.18 534.808 1383.45 534.736 1386.74 534.079C1385 532.811 1383.35 532.497 1381.3 532.536C1376.56 532.628 1372.47 534.477 1369.54 537.718C1364.08 543.766 1359.15 550.319 1357.8 558.761C1355.67 557.437 1356.56 555.58 1357 553.87C1357.68 551.251 1359.33 549.074 1360.6 546.746C1364.38 539.787 1368.48 533.434 1376.89 530.747C1381.98 529.121 1391.85 531.938 1395.02 535.903C1395.76 536.827 1396.51 537.663 1397.45 538.301C1398.44 538.967 1399.31 540.462 1400.7 539.649C1402.11 538.83 1402.08 537.214 1401.91 535.741C1401.23 529.735 1400.67 523.672 1396.31 518.911C1394.13 516.532 1392.54 513.457 1389.25 512.315C1387.65 511.757 1385.82 511.45 1384.32 512.383C1376.93 516.976 1371.14 523.316 1365.71 529.989C1362.37 534.094 1359.33 538.396 1357.18 543.297C1355.38 547.402 1354.44 551.735 1353.26 556.009C1352.7 558.039 1354.67 558.268 1355.57 559.237C1356.63 560.364 1357.21 559.489 1357.77 558.631C1358.42 560.56 1359.07 562.483 1359.91 565.014C1356.42 561.895 1352.89 559.85 1350.86 556.051C1348.92 552.416 1347.04 548.738 1345.08 545.121C1341.96 539.347 1341.09 533.329 1341.68 527.027C1341.86 525.074 1342.22 522.889 1343.9 521.388L1343.91 521.361ZM1381.24 413.246C1378.89 412.211 1376.26 412.388 1373.93 412.749C1363.73 414.333 1360.8 420.873 1359.37 429.151C1359.07 430.815 1359.15 432.687 1359.01 434.455C1358.39 441.969 1357.7 449.438 1359.13 456.988C1360.01 461.675 1360.83 466.411 1360.82 471.26C1360.82 474.139 1360.26 476.863 1359.77 479.637C1359.69 480.089 1359.15 480.841 1360.11 481.027C1360.68 481.138 1361.36 481.078 1361.5 480.336C1362.11 476.913 1364.68 474.487 1366.01 471.467C1369.33 463.966 1372.77 456.478 1377.21 449.622C1381.63 442.78 1384.54 435.481 1386.25 427.666C1386.97 424.345 1388.26 420.805 1385.92 417.428C1384.69 415.654 1382.98 414.565 1381.26 413.248L1381.24 413.246ZM1371.28 540.961C1369.52 543.285 1368.36 545.27 1367.13 547.215C1363.3 553.269 1362.84 559.482 1365.15 566.133C1365.74 567.848 1367.01 568.659 1368.4 569.026C1375.3 570.824 1381.57 568.43 1387.66 565.608C1391.2 563.966 1394.1 561.149 1396.73 558.374C1402.44 552.341 1402.82 547.354 1397.56 541.731C1393.8 537.701 1388.16 535.685 1382.73 536.341C1378.62 536.835 1373.07 535.753 1371.27 540.953L1371.28 540.961ZM1400.66 564.751C1397.98 568.917 1394.57 572.455 1390.05 574.451C1384.24 577.011 1378.06 576.09 1372 575.389C1369.67 575.117 1367.26 574.927 1365.22 573.308C1364.17 572.467 1363.24 573.143 1363 574.529C1362.48 577.698 1361.79 580.848 1361.43 584.037C1360.7 590.559 1361.35 591.295 1367.74 593.012C1372.13 594.185 1376.54 592.893 1380.88 593.375C1384.95 593.828 1388.79 593.559 1392.27 591.4C1395.47 589.423 1398.48 587.371 1400.46 583.796C1402.5 580.113 1405.08 576.718 1406.49 572.692C1407.82 568.884 1408.48 565.026 1407.62 560.928C1407.34 559.612 1406.52 558.653 1405.82 558.419C1404.61 558.024 1404.4 559.456 1403.89 560.392C1403.02 561.962 1401.75 563.308 1400.66 564.748L1400.66 564.751ZM1346.04 638.651C1346.6 637.685 1347.39 636.907 1347.74 635.701C1348.79 632.073 1349.42 628.378 1350.09 624.675C1351.75 615.613 1354.96 606.895 1356.22 597.736C1356.38 596.62 1356.44 595.125 1357.15 594.529C1358.69 593.229 1357.76 592.48 1356.98 591.553C1355.46 589.739 1353.9 587.968 1352.4 586.133C1351.26 584.738 1350.77 585.271 1350.13 586.62C1347.24 592.751 1345.91 599.423 1344.1 605.841C1341.39 615.412 1340.11 625.401 1338.42 635.243C1337.89 638.322 1340.86 639.094 1342.79 640.348C1344.61 641.53 1345.15 639.646 1346.05 638.658L1346.04 638.651ZM1395.22 509.204C1393.6 508.782 1391.85 508.598 1390.37 507.878C1388.05 506.754 1385.65 506.551 1383.38 507.237C1379.29 508.481 1375.37 510.254 1371.73 512.516C1365.78 516.224 1360.37 520.313 1356.88 526.845C1353.77 532.65 1350.68 538.367 1348.67 544.653C1348.04 546.616 1348.47 548.34 1349.24 550.09C1349.56 550.817 1349.6 551.912 1350.66 551.896C1351.82 551.878 1351.74 550.789 1351.99 549.98C1354.37 542.482 1357.92 535.672 1362.98 529.551C1367.44 524.166 1371.74 518.653 1377.09 514.119C1381.41 510.461 1385.98 507.389 1392.08 510.424C1393.05 510.905 1394.65 511.176 1395.21 509.205L1395.22 509.204ZM1407.65 550.02C1407.12 552.287 1406.28 554.137 1407.8 556.492C1409.24 558.717 1410.27 561.324 1410.43 564.195C1411.01 574.092 1405.9 581.41 1399.59 588.074C1398.02 589.736 1396.29 591.46 1394.17 592.647C1389.8 595.092 1384.98 595.914 1380.16 596.159C1377.14 596.314 1374.13 596.867 1370.98 596.41C1367.17 595.851 1364.17 593.783 1360.85 592.283C1365.58 596.757 1371.34 598.786 1377.7 599.54C1387.31 600.669 1394.9 596.368 1401.72 590.451C1407.42 585.503 1411.46 579.396 1413.21 571.845C1414.35 566.943 1413.82 562.234 1413.02 557.385C1412.46 553.939 1410.81 551.684 1407.65 550.025L1407.65 550.02ZM1324.29 666.03C1323.07 666.248 1323.22 667.148 1323.03 667.862C1322.49 669.783 1323.97 671.349 1323.9 673.212C1323.8 676.154 1325.88 677.397 1328.53 676.022C1331.7 674.377 1332.87 671.103 1333.96 668.183C1335.94 662.849 1337.27 657.267 1338.78 651.761C1338.97 651.069 1339.7 650 1338.68 649.46C1337.75 648.97 1336.86 649.144 1335.84 649.99C1331.65 653.489 1330.04 658.708 1326.93 662.915C1326.72 663.198 1326.78 663.964 1327.02 664.24C1327.66 664.999 1328.26 664.155 1328.78 663.915C1330.69 663.031 1332.88 663.489 1333 665.088C1333.1 666.374 1332.4 667.656 1332.03 668.926C1331.32 671.447 1329.25 671.51 1327.49 671.582C1325.87 671.642 1325.5 669.985 1325.22 668.549C1325.05 667.667 1324.6 666.837 1324.29 666.017L1324.29 666.03ZM1357.06 570.226C1356.77 571.199 1356.76 572.187 1356.26 572.742C1353.96 575.289 1354.71 578.887 1353.08 581.669C1352.81 582.13 1353.19 583.466 1353.67 583.78C1355.53 585.002 1356.76 587.139 1359.06 587.889C1360.05 583 1359.49 578.057 1362.28 573.872C1362.56 573.459 1362.66 572.547 1361.85 572.615C1359.79 572.789 1358.96 570.79 1357.07 570.221L1357.06 570.226ZM1352.23 564.737C1351.18 564.042 1350.57 563.23 1349.43 563.358C1348.47 563.467 1347.73 563.51 1348.07 564.879C1349.02 568.644 1349.87 572.441 1350.78 576.216C1350.89 576.668 1350.65 577.52 1351.56 577.326C1352.15 577.201 1352.76 577.105 1352.88 576.12C1353.05 574.627 1353.22 572.929 1354.02 571.762C1356.38 568.348 1353.91 566.592 1352.23 564.737ZM1337.73 642.816C1337.55 643.048 1337.37 643.269 1337.2 643.508C1336.27 644.833 1336.36 646.208 1337.13 647.529C1337.99 649.032 1338.64 647.253 1339.44 647.291C1340.62 647.347 1341.48 647.915 1341.71 648.987C1341.89 649.805 1341.74 650.22 1342.83 649.715C1345 648.708 1345.25 646.605 1345.62 644.768C1345.9 643.384 1344.94 641.966 1343.38 641.785C1341.44 641.56 1339.27 640.729 1337.72 642.817L1337.73 642.816ZM1348.12 576.08C1348.51 575.578 1348.86 575.318 1348.83 575.126C1347.98 570.048 1347.04 564.99 1346.65 559.844C1346.6 559.214 1347.16 557.526 1345.51 557.833C1344.37 558.046 1344.4 559.487 1344.52 560.254C1345.34 565.548 1345.21 571.077 1348.13 576.075L1348.12 576.08ZM1346.99 649.834C1348.72 648.368 1348.63 645.905 1349.35 643.78C1349.71 642.719 1348.93 641.783 1348.22 640.992C1348.08 640.829 1347.57 640.726 1347.48 640.827C1346.64 641.681 1347.64 642.383 1347.69 643.171C1347.75 643.909 1347.67 644.72 1347.41 645.405C1346.56 647.698 1345.59 649.953 1343.33 651.276C1342.78 651.595 1342.27 651.997 1342.65 652.587C1343.02 653.166 1343.66 652.817 1344.19 652.579C1345.38 652.043 1346.18 651.102 1346.99 649.826L1346.99 649.834ZM1336.98 638.278C1333.58 639.917 1333.32 643.05 1332.79 646.017C1332.61 647.003 1333.66 647.994 1334.04 648.013C1335.06 648.071 1334.9 647.052 1334.85 646.262C1334.71 643.408 1334.97 640.652 1336.98 638.274L1336.98 638.278Z" fill="#605046"/>
<path d="M33.7708 830.614C38.1548 829.183 42.5277 827.533 46.9117 826.012C48.5169 825.445 48.6719 824.322 48.5944 822.354C48.218 811.658 47.0445 801.29 46.646 790.574C45.9043 770.733 44.8525 750.981 43.978 731.169C42.4945 697.431 41.1328 663.693 39.5718 629.975C38.8412 614.229 37.4905 598.513 36.2949 582.737C35.4203 571.197 35.1546 559.636 34.5568 548.085C33.6933 531.256 32.5641 514.367 31.9331 497.547C31.3463 481.782 29.8518 465.897 29.11 450.091C28.8443 444.445 28.4237 438.699 27.6819 432.914C27.2502 429.534 27.6709 426.264 27.6044 422.914C27.3609 409.514 26.9734 396.114 26.0103 382.526C25.6671 377.675 25.3903 372.843 25.025 367.983C24.8257 365.358 25.8221 364.623 27.9144 365.169C38.5976 367.913 49.2476 369.305 59.9862 372.496C67.6471 374.762 75.2747 376.213 82.8803 377.267C91.8697 378.5 100.848 379.315 109.871 380.816C122.214 382.863 134.547 385.349 146.88 386.611C161.737 388.142 176.594 390.687 191.45 393.102C207.802 395.786 224.02 400.876 240.327 405.687C243.339 406.582 246.339 407.526 249.35 408.44C251.619 409.136 252.405 410.25 252.45 412.188C252.704 423.033 251.199 433.272 250.468 443.799C249.826 453.034 249.571 462.368 248.553 471.493C247.368 482.1 246.638 492.825 245.896 503.541C245.409 510.609 245.287 517.726 244.7 524.774C244.302 529.665 243.815 534.546 243.66 539.476C243.394 547.906 243.15 556.335 242.265 564.695C240.117 585.163 239.353 605.65 237.405 626.148C236.497 635.73 236.287 645.204 235.512 654.757C234.836 663.156 234.847 671.437 233.851 679.876C232.545 691.03 232.301 701.914 231.194 713.028C230.818 716.756 230.209 720.563 229.855 724.3C229.611 726.875 229.6 729.38 229.489 731.905C229.434 733.177 230.22 733.088 231.249 732.74C231.803 732.551 232.821 731.736 232.733 732.81C232.655 733.724 231.703 733.893 231.106 734.112C229.954 734.519 229.212 735.116 229.046 736.488C228.914 737.561 228.26 738.167 227.209 738.545C222.271 740.325 217.323 742.313 212.374 744.44C210.171 745.384 207.979 747.124 205.754 747.879C204.724 748.227 203.816 748.575 203.606 747.352C203.418 746.299 202.565 746.826 201.768 747.263C192.624 752.263 183.513 757.233 174.413 761.488C173.438 761.945 172.464 762.542 171.49 762.999C171.014 763.218 170.283 763.645 170.438 762.671C170.549 761.935 171.18 761.756 171.612 761.528C174.867 759.758 178.132 758.048 181.387 756.339C188.306 752.71 195.214 749.351 202.145 745.305C203.119 744.738 203.706 744.291 203.695 742.969C203.595 735.871 204.591 728.267 204.514 721.159C204.414 712.491 205.289 703.445 205.222 694.737C205.178 689.638 205.875 684.24 206.219 679.001C206.706 671.735 207.204 664.488 207.591 657.252C208.012 649.568 208.687 641.824 208.765 634.229C208.92 619.627 210.381 604.805 210.492 590.203C210.581 577.976 211.256 565.68 212.042 553.413C212.629 544.307 212.23 535.222 212.883 526.116C213.271 520.729 213.979 515.371 213.979 509.983C213.979 491.464 215.341 473.004 216.215 454.545C216.625 445.787 216.138 436.86 216.968 428.152C216.968 428.083 216.968 428.013 216.968 427.934C216.902 423.848 216.182 423.013 211.61 422.099C203.196 420.449 194.783 419.077 186.369 417.844C177.49 416.542 168.589 415.727 159.733 414.305C150.234 412.775 140.736 411.85 131.237 410.707C121.074 409.474 110.9 408.669 100.737 407.486C95.7001 406.9 90.6519 405.935 85.6148 405.061C76.2268 403.42 66.9053 403.033 57.5506 401.552C55.8125 401.273 55.0154 402.029 55.1372 403.937C55.8457 415.657 55.8789 427.268 56.7535 439.008C57.4842 448.779 57.8163 458.511 58.0045 468.223C58.3809 486.841 60.1965 505.49 60.7832 524.059C61.1043 534.108 61.0489 544.178 61.4585 554.238C61.835 563.662 62.6985 573.055 63.1302 582.459C63.8277 597.589 64.1819 612.758 65.0122 627.848C65.7983 642.4 65.8093 657.103 66.7725 671.586C67.4921 682.57 67.5474 693.713 68.5106 704.608C69.1305 711.557 68.8316 718.863 69.3852 725.841C70.3594 737.998 70.2929 750.524 71.2007 762.671C71.5329 767.144 71.3557 771.896 71.5771 776.458C72.0089 785.425 72.3964 794.401 72.7838 803.377C72.8835 805.664 73.0495 807.94 73.0053 810.286C72.9499 812.93 73.6474 813.705 75.5294 812.791C79.2491 810.982 82.9689 809.491 86.6886 807.741C91.4269 805.505 96.154 802.821 100.859 800.027C113.535 792.502 126.233 785.415 138.92 778.337C148.463 773.019 157.995 768.148 167.516 763.287C168.18 762.949 169.232 762.134 169.176 763.327C169.121 764.5 168.069 764.858 167.427 765.156C159.965 768.496 152.448 773.108 144.965 776.617C142.086 777.959 139.119 780.027 136.186 781.697C126.986 786.946 117.775 792.164 108.575 797.562C102.929 800.872 97.2943 804.262 91.6483 807.214C86.4008 809.958 81.1533 812.433 75.9058 814.888C74.688 815.465 73.4481 815.952 73.7691 818.507C73.9241 819.759 73.0938 820.157 72.4407 820.545C66.6064 824.044 60.7722 827.125 54.8826 829.054C53.5984 829.471 52.292 830.346 51.0189 831.191C49.7679 832.036 49.0594 831.578 48.9598 829.819C48.8269 827.483 47.8638 827.692 46.6238 828.199C42.3727 829.948 38.1326 831.519 33.8815 833C33.8372 832.215 33.804 831.419 33.7597 830.634L33.7708 830.614ZM249.859 426.174C250.18 421.641 250.49 417.864 250.678 414.047C250.723 413.192 251.143 411.91 249.56 411.393C248.221 410.955 247.247 411.681 246.937 412.794C246.782 413.361 246.759 413.987 246.737 414.604C246.405 421.81 246.084 429.007 245.719 436.184C244.922 451.851 243.781 467.427 243.25 483.114C243.228 483.75 243.261 484.495 242.342 484.426C241.268 484.336 241.169 483.521 241.191 482.815C241.324 476.225 241.977 469.734 241.944 463.093C241.922 458.988 242.243 454.873 242.652 450.807C243.25 444.882 243.826 438.928 243.649 432.775C243.471 426.751 243.804 420.836 244.269 414.961C244.39 413.391 243.87 413.073 242.22 413.441C236.408 414.763 231.039 416.95 225.626 419.246C224.662 419.653 224.297 420.329 224.275 421.343C224.22 424.703 224.098 428.053 224.031 431.383C223.899 438.391 223.566 445.35 223.046 452.278C222.138 464.594 222.326 477.05 221.552 489.376C221.064 497.259 221.264 505.231 220.832 513.114C220.456 520.192 220.301 527.269 219.703 534.337C218.695 546.166 219.271 557.966 218.662 569.755C217.854 585.59 216.747 601.475 216.426 617.231C216.326 622.42 215.651 627.708 215.319 632.937C214.776 641.357 215.241 649.508 214.5 657.987C213.215 672.759 212.075 687.59 211.61 702.173C211.344 710.423 210.271 719.002 210.614 726.984C210.802 731.458 210.082 736.289 210.116 740.802C210.138 743.466 210.47 743.565 213.06 742.412C216.249 741 219.448 739.629 222.625 738.525C223.932 738.068 224.485 737.521 224.541 736.199C224.629 733.973 224.806 731.726 224.806 729.529C224.795 726.149 225.138 722.62 225.371 719.141C225.404 718.545 225.482 717.69 226.212 717.402C227.319 716.974 226.832 718.167 226.81 718.704C226.589 724.281 226.312 729.877 226.035 735.454C226.002 736.02 225.592 736.994 226.434 736.756C227.386 736.497 227.364 735.662 227.397 734.986C227.651 729.738 228.227 724.39 228.747 719.062C230.043 705.751 230.563 692.66 231.914 679.359C233.131 667.321 233.707 655.413 234.515 643.434C234.958 636.903 235.279 630.382 235.844 623.832C236.951 610.849 237.538 597.897 238.512 584.914C239.32 574.089 240.87 563.324 241.268 552.508C241.534 545.132 241.866 537.747 242.298 530.381C242.84 521.196 243.394 512.001 244.047 502.826C244.822 491.792 245.63 480.768 246.704 469.813C247.568 461.016 248.243 452.179 248.376 443.173C248.464 437.139 249.793 431.443 249.881 426.154L249.859 426.174ZM61.4585 823.894C61.4585 823.894 61.4585 823.875 61.4585 823.865C63.4181 822.96 65.3776 822.026 67.326 821.111C68.2559 820.674 69.0087 819.869 68.6102 818.556C68.2117 817.244 68.2892 815.733 68.1342 814.332C66.5178 799.848 66.0307 784.729 65.3776 769.719C65.2669 767.184 65.9975 763.953 63.7391 762.919C63.5398 762.83 63.4956 762.124 63.4845 761.667C63.3959 754.132 62.6099 746.865 62.2556 739.42C62.2003 738.277 62.2114 737.044 63.1192 736.269C64.1709 735.374 64.1819 734.231 64.1377 732.969C63.9716 728.694 63.9605 724.35 63.6284 720.135C62.787 709.718 63.097 698.982 61.8903 688.634C61.4918 685.214 61.8128 681.536 61.6689 678.017C61.2814 669.14 60.8054 660.264 60.8164 651.317C60.8164 639.06 60.4068 626.873 59.8312 614.696C59.2776 602.996 58.8459 591.276 58.3145 579.557C57.927 571.226 57.8717 562.866 57.1299 554.556C55.7129 538.681 55.2036 522.746 54.1962 506.812C53.543 496.543 53.4545 486.295 52.5688 475.986C52.4802 474.992 52.7238 473.68 51.7164 473.183C50.089 472.378 50.089 470.917 49.9893 469.416C49.5022 462.378 49.0262 455.33 48.5169 448.272C48.4616 447.457 48.4173 446.622 49.0926 446.453C50.6536 446.045 50.4875 444.544 50.4543 443.024C50.1222 427.556 48.9044 411.939 48.2623 396.402C48.218 395.229 47.9966 394.126 47.1663 393.142C43.0037 388.211 38.8412 383.142 34.6122 377.983C33.8815 377.088 32.9626 375.617 32.0881 375.845C31.1249 376.094 31.7006 377.794 31.7781 378.867C32.398 386.86 33.2726 394.911 33.6933 402.834C34.6786 421.681 35.0771 440.419 36.4831 459.336C37.8116 477.249 37.712 495.012 39.4501 512.925C40.2914 521.613 40.4132 530.261 40.8671 538.92C41.8635 557.986 43.1698 577.032 44.1551 596.048C45.4504 621.168 46.8231 646.247 47.8306 671.357C48.8048 695.542 50.0004 719.658 50.7532 743.903C51.2403 759.361 52.1813 774.689 52.7902 790.107C53.2441 801.419 53.5319 812.791 53.8419 824.173C53.8973 826.35 54.4176 827.165 55.9675 826.399C57.7831 825.495 59.6208 824.739 61.4475 823.894H61.4585ZM27.5823 367.138C28.9661 369.543 30.671 370.507 32.4645 371.024C37.247 372.406 42.0295 373.579 46.8121 374.832C56.0671 377.237 65.1894 377.645 74.4112 379.156C82.9246 380.547 91.449 382.128 99.9623 383.45C101.501 383.689 103.04 384.027 104.579 384.315C105.232 384.434 106.029 384.533 106.018 385.488C106.018 386.422 105.188 386.253 104.557 386.213C103.992 386.184 103.427 386.084 102.852 385.995C95.7223 384.931 88.5928 383.867 81.4522 382.545C71.8871 380.766 62.4217 380.189 52.912 378.44C47.0999 377.366 41.2546 375.746 35.4203 374.195C34.8336 374.036 34.1029 373.5 33.6712 374.285C38.0662 378.838 41.8192 383.957 45.7493 388.728C47.5206 390.866 49.3583 392.049 51.5392 392.377C56.3439 393.102 61.1486 393.798 65.9532 394.285C70.8465 394.782 75.7619 396.283 80.644 396.82C91.6926 398.033 102.763 398.848 113.845 400.369C121.318 401.393 128.79 403.063 136.252 403.888C157.663 406.263 179.051 409.365 200.484 412.526C207.625 413.58 214.809 414.584 221.939 416.83C223.223 417.228 224.441 417.387 225.626 416.9C229.069 415.468 232.678 414.335 236.098 413.023C238.014 412.287 240.372 412.218 242.342 410.896C237.493 409.415 233.076 408.202 228.659 406.969C223.721 405.597 218.74 404.792 213.846 403.5C204.137 400.925 194.417 399.126 184.697 397.426C159.744 393.072 134.78 389.852 109.837 386.979C108.952 386.879 107.468 387.048 107.413 385.726C107.358 384.514 108.852 384.961 109.76 384.921C109.837 384.921 109.926 384.941 110.003 384.951C116.148 385.687 122.303 386.253 128.458 387.128C132.709 387.734 137.016 388.689 141.223 389.265C145.463 389.852 149.769 390.508 154.009 390.895C162.611 391.691 171.191 393.42 179.782 394.732C187.321 395.895 194.849 397.625 202.388 399.037C209.684 400.408 216.946 402.426 224.242 404.226C230.718 405.826 237.194 407.874 243.682 409.902C244.944 410.299 246.195 410.548 247.125 409.504C173.771 384.305 100.604 388.43 27.5823 367.138ZM206.03 733.167C205.787 737.939 205.577 741.448 205.455 744.917C205.422 745.692 205.643 746.418 206.661 745.832C207.602 745.285 208.289 744.579 208.322 743.376C208.355 742.044 208.444 740.692 208.566 739.33C209.285 730.712 208.71 722.66 209.186 714.121C209.374 710.712 209.839 707.203 209.872 703.863C209.972 693.395 210.902 682.65 211.654 671.993C212.208 664.101 212.894 656.198 213.304 648.355C213.625 642.271 213.271 636.307 213.791 630.184C214.245 624.905 214.71 619.627 214.688 614.458C214.655 607.509 214.964 600.481 215.352 593.483C215.739 586.465 215.939 579.457 216.282 572.449C216.957 558.612 217.145 544.755 217.942 530.888C218.673 518.084 219.238 505.291 219.503 492.448C219.636 486.384 219.847 480.33 220.024 474.257C220.345 463.262 220.821 452.288 221.197 441.284C221.33 437.407 223.002 433.749 221.098 429.544C221.053 429.435 221.131 429.266 221.219 429.176C222.659 427.467 221.817 425.081 222.16 423.043C222.26 422.476 222.57 421.671 221.695 421.244C220.887 420.846 220.179 421.313 219.581 421.691C218.85 422.158 218.895 423.003 218.806 423.779C218.33 428.093 218.496 432.546 218.419 436.92C218.252 446.344 218.208 455.747 217.356 465.062C217.09 467.974 217.001 470.936 217.035 473.889C217.079 478.283 217.245 482.686 216.492 486.971C216.06 489.456 216.083 491.971 216.038 494.446C215.917 500.39 216.315 506.325 215.917 512.259C215.319 521.255 214.754 530.271 214.832 539.278C214.898 546.345 214.001 553.413 213.47 560.501C212.64 571.604 212.606 582.648 212.463 593.672C212.385 599.895 211.588 606.227 211.355 612.489C211.045 620.76 211.09 628.951 210.747 637.192C210.182 650.92 208.776 664.846 207.924 678.683C206.761 697.471 206.042 716.159 206.019 733.187L206.03 733.167ZM27.5934 371.253C27.0066 372.436 27.2502 373.48 27.3055 374.424C27.8701 384.842 28.8776 395.359 29.1875 405.707C29.3204 410.11 29.1875 414.445 29.3757 418.858C29.8075 429.206 30.8039 439.674 31.0806 449.972C31.4681 464.247 32.9073 478.66 33.4497 492.955C33.8262 502.776 34.3575 512.667 35.0439 522.548C35.8964 534.834 36.3945 547.091 37.1252 559.357C38.5423 583.264 39.8375 607.141 41.3099 630.969C43.048 659.27 43.9558 687.64 44.8415 716.109C45.2289 728.495 46.2142 740.752 46.7899 753.088C47.5427 769.162 48.0188 785.335 48.9376 801.349C49.4247 809.908 50.1333 818.377 50.5539 826.956C50.5982 827.771 50.6536 828.547 51.3621 828.338C52.0263 828.149 52.292 827.394 52.3031 826.529C52.3142 825.555 52.2699 824.6 52.2256 823.646C51.8713 815.266 51.4175 806.906 51.1628 798.487C50.875 788.814 50.244 779.262 49.8343 769.629C48.8048 745.782 47.8084 721.925 46.8785 698.057C45.7935 670.274 44.2879 642.56 42.8598 614.786C42.4059 605.909 42.0517 597.032 41.3874 588.155C40.2361 572.976 40.07 557.767 38.8854 542.548C38.343 535.57 38.2655 528.591 38.0219 521.613C37.7562 513.621 36.5053 505.569 36.0956 497.507C35.2764 481.215 34.5015 464.932 33.4719 448.58C31.9884 425.101 31.6674 401.89 29.2982 378.142C29.0879 375.995 29.1211 373.808 27.6044 371.273L27.5934 371.253ZM50.244 396.959C50.4432 402.287 50.6204 407.397 50.8086 412.506C51.2071 422.675 52.1924 432.914 52.3585 443.043C52.3806 444.216 52.2699 445.538 53.233 446.533C54.2626 447.596 54.329 448.859 54.484 450.191C55.27 456.891 55.104 463.501 55.6243 470.161C55.6907 471.086 55.8568 472.239 55.2147 472.736C54.0966 473.591 54.4287 474.913 54.484 476.175C55.3475 497.676 56.2221 519.188 58.0156 540.639C59.3662 556.932 59.5433 573.284 60.3072 589.606C61.2703 610.193 61.9235 630.8 62.2556 651.496C62.5545 670.313 63.3516 689.091 64.5583 707.69C65.1894 717.551 64.4366 728.058 67.2707 736.965C67.3371 737.193 67.2928 737.511 67.3039 737.79C67.5363 744.649 67.7688 751.498 68.0013 758.357C68.0345 759.281 68.2559 760.345 67.6581 761.11C66.3629 762.79 66.5843 764.48 66.6175 766.249C66.7835 776.26 67.5363 786.031 68.101 795.852C68.5216 803.268 69.042 810.654 69.994 817.751C70.1158 818.656 70.1822 819.7 71.09 819.173C72.031 818.626 71.9535 817.513 71.8096 816.678C71.1565 812.98 71.3779 808.835 71.234 804.888C70.7358 791.638 69.6066 778.635 69.3741 765.235C69.2744 759.192 68.6877 753.357 68.4552 747.352C67.7467 729.37 66.8942 711.427 65.8647 693.505C65.1562 681.208 64.5915 668.822 64.4366 656.377C64.3369 648.216 63.6616 640.154 63.2631 632.033C62.5878 618.344 62.5656 604.567 61.6246 590.919C60.8275 579.278 60.5618 567.598 59.6762 555.938C59.1116 548.642 59.3219 541.295 59.1669 533.989C58.7905 515.927 57.3403 497.826 56.6649 479.734C56.2 467.139 55.4029 454.525 54.7719 441.9C54.1187 428.799 53.222 415.608 53.233 402.605C53.233 399.902 52.2478 398.321 50.2993 396.969L50.244 396.959ZM57.9602 395.727C56.7203 395.488 55.5911 395.17 54.473 395.06C53.6316 394.981 52.1703 393.888 52.1149 395.349C52.0706 396.512 53.4102 397.416 54.4397 397.973C54.8936 398.222 55.3918 398.331 55.8789 398.42C61.4918 399.434 67.1157 400.538 72.7064 401.075C80.8101 401.86 88.9027 403.629 97.0065 404.852C110.623 406.9 124.24 407.377 137.868 409.365C145.164 410.419 152.471 411.025 159.766 412.029C170.438 413.49 181.11 414.693 191.771 416.582C198.702 417.804 205.687 418.808 212.629 420.26C215.651 420.896 217.677 420.24 219.869 419.345C220.112 419.246 220.4 419.007 220.389 418.789C220.367 418.351 219.891 418.202 219.492 418.093C218.695 417.884 217.887 417.675 217.079 417.506C209.385 415.856 201.669 414.713 193.986 413.49C173.56 410.25 153.146 407.914 132.732 405.518C126.875 404.832 121.008 403.401 115.151 402.814C106.483 401.939 97.8146 400.896 89.1574 400.13C78.7399 399.236 68.2449 396.611 57.9713 395.717L57.9602 395.727ZM64.3259 749.37C64.3259 749.37 64.4033 749.351 64.4366 749.331C64.5473 752.392 64.6469 755.464 64.7798 758.516C64.813 759.231 64.8572 760.166 65.6211 759.818C66.2079 759.55 66.23 758.744 66.2189 758.088C66.1414 751.945 66.5843 745.633 65.5879 739.808C65.4661 739.102 65.4551 738.177 64.7576 738.366C63.8277 738.615 63.9937 739.678 64.0159 740.464C64.0934 743.446 64.2151 746.408 64.3259 749.38V749.37ZM52.757 457.835C52.6795 455.598 52.602 453.372 52.5134 451.135C52.4802 450.191 52.1481 449.375 51.2735 449.246C50.3436 449.107 50.3989 450.111 50.5318 450.787C51.816 456.94 51.5614 462.964 52.0042 469.048C52.0485 469.624 51.8824 470.539 52.7127 470.559C53.2552 470.579 53.2109 469.813 53.2663 469.276C53.6205 465.519 52.7238 461.632 52.757 457.835Z" fill="#605046"/>
<path d="M184.841 581.505C182.727 581.803 180.601 582.141 178.487 582.419C176.793 582.648 175.055 582.549 174.933 580.461C174.8 578.234 176.549 577.399 178.321 576.743C180.391 575.968 182.406 576.266 184.454 575.958C186.945 575.6 189.435 575.352 191.915 575.203C193.609 575.093 194.307 574.407 194.318 572.638C194.351 569.089 194.528 565.521 194.683 561.962C194.76 560.272 195.281 558.711 196.698 557.469C200.783 553.89 205.311 555.113 206.163 560.063C206.994 564.924 206.673 569.944 205.798 574.974C205.543 576.435 206.041 577.628 205.953 579.01C205.477 586.545 205.123 594.07 204.669 601.605C204.503 604.428 201.37 607.559 198.502 607.967C195.104 608.434 192.712 606.406 192.956 603.106C193.465 596.326 193.299 589.656 193.532 582.916C193.598 580.978 192.856 580.352 190.996 580.67C188.948 581.028 186.911 581.227 184.863 581.515L184.841 581.505ZM203.728 579.069C201.004 581.604 200.495 581.694 198.071 580.024C197.517 579.646 196.952 579.447 196.288 579.755C195.369 580.173 195.801 580.908 195.779 581.525C195.746 582.41 195.746 583.294 195.713 584.179C195.513 589.557 195.314 594.944 195.115 600.332C195.093 600.849 195.07 601.366 195.082 601.873C195.148 604.696 196.543 605.978 199.023 605.551C201.026 605.203 202.632 603.205 202.776 600.621C203.075 595.024 203.285 589.428 203.54 583.841C203.606 582.41 203.661 580.968 203.75 579.079L203.728 579.069ZM204.381 573.95C204.171 571.047 204.248 568.334 204.359 565.62C204.425 563.97 204.303 562.29 203.982 560.699C203.34 557.558 200.24 556.644 197.927 558.89C196.908 559.874 196.609 561.107 196.554 562.409C196.41 565.799 196.222 569.199 196.067 572.588C196.034 573.274 195.27 574.258 196.067 574.586C196.842 574.904 197.274 573.89 197.772 573.314C199.311 571.554 201.281 571.346 202.765 572.727C203.152 573.085 203.274 573.721 204.381 573.95ZM199.111 576.654C196.576 576.336 193.974 576.783 191.395 577.081C187.299 577.559 183.214 578.075 179.118 578.692C178.398 578.801 177.18 578.642 177.147 579.785C177.125 580.769 178.343 580.491 179.095 580.441C180.402 580.352 181.719 580.153 183.037 579.964C188.406 579.189 193.753 578.115 199.111 576.664V576.654Z" fill="#605046"/>
<path d="M242.564 496.921C242.475 510.768 240.427 524.307 239.652 538.065C239.409 542.28 239.154 546.484 238.534 550.679C238.135 553.373 238.423 556.087 238.025 558.821C237.316 563.751 237.283 568.731 236.497 573.692C235.324 581.187 235.257 588.712 234.892 596.207C234.394 606.485 234.183 616.704 233.209 627.003C232.412 635.462 232.7 643.752 231.925 652.202C231.117 661.138 230.895 669.976 229.954 678.942C229.379 684.419 228.803 689.926 228.438 695.344C228.083 700.563 227.718 705.811 227.541 710.99C227.508 711.795 227.441 712.62 227.308 713.445C227.22 714.012 227.386 714.837 226.5 715.066C225.758 715.265 225.825 714.36 225.869 713.813C226.102 710.811 226.157 707.869 226.334 704.877C227.541 684.618 229.733 664.17 230.762 643.971C230.94 640.432 230.917 636.933 231.117 633.385C231.703 623.166 232.822 612.887 232.855 602.738C232.888 594.776 233.021 586.773 234.095 578.811C235.611 567.678 236.087 556.574 237.051 545.471C237.571 539.437 237.516 533.333 238.302 527.349C239.287 519.814 239.73 512.249 240.062 504.655C240.305 499.178 240.46 493.69 240.837 488.223C240.903 487.239 240.715 485.599 241.888 485.678C243.405 485.788 242.63 487.299 242.807 488.134C243.427 491.156 242.575 493.979 242.553 496.931L242.564 496.921Z" fill="#605046"/>
<defs>
<clipPath id="clip0_630_2233">
<rect width="43" height="66" fill="white" transform="matrix(-1 1.13033e-08 1.13033e-08 1 1390 351)"/>
</clipPath>
</defs>
</svg>
