<svg width="1488" height="635" viewBox="0 0 1488 635" fill="none" xmlns="http://www.w3.org/2000/svg">
<path d="M525.65 144.55C525.45 146.7 525.05 148.9 524.45 151.15C523.9 153.4 523.075 155.6 521.975 157.75C520.925 159.9 519.65 161.975 518.15 163.975C516.7 165.975 515.075 167.825 513.275 169.525C511.475 171.225 509.55 172.65 507.5 173.8C503.1 176.4 498.85 177.325 494.75 176.575C493.85 178.525 492.5 179.75 490.7 180.25C488.95 180.8 487.2 180.8 485.45 180.25C483.75 179.75 482.25 178.775 480.95 177.325C479.65 175.875 479 173.9 479 171.4C479 168.85 479.175 166.25 479.525 163.6C479.875 160.95 480.35 158.4 480.95 155.95C481.9 151.9 483.075 148.1 484.475 144.55C487.775 136.5 489.65 130.85 490.1 127.6C490.75 123.25 491.95 120.55 493.7 119.5C496.6 117.8 499.35 117.075 501.95 117.325C504.55 117.575 506.9 118.2 509 119.2C512.45 120.85 516.175 123.625 520.175 127.525C524.575 131.775 526.4 137.45 525.65 144.55ZM496.175 167.05C498.725 165.75 500.775 164.425 502.325 163.075C503.925 161.675 505.425 160.4 506.825 159.25C508.975 157.1 510.55 154.55 511.55 151.6C513.75 145.1 512.35 140.175 507.35 136.825C506.6 136.275 505.475 135.525 503.975 134.575C503.275 136.175 502.75 137.85 502.4 139.6C502.1 141.35 501.675 143.05 501.125 144.7L499.1 151.3L497.45 158.425C497.35 159.425 497.2 160.4 497 161.35C496.8 162.25 496.625 163.2 496.475 164.2L496.175 167.05ZM540.481 165.55C543.381 165.85 545.531 166 546.931 166C548.381 166 550.556 165.8 553.456 165.4C554.356 165.7 554.881 166.075 555.031 166.525C555.181 166.975 555.231 167.45 555.181 167.95C555.131 168.4 555.156 168.85 555.256 169.3C555.356 169.75 555.831 170.125 556.681 170.425C557.131 170.575 557.256 171.025 557.056 171.775C556.906 172.475 556.506 173.25 555.856 174.1C554.206 176.25 552.256 177.75 550.006 178.6C546.406 179.5 543.581 180.025 541.531 180.175C538.131 180.425 534.431 180.3 530.431 179.8C526.031 179 523.906 177.175 524.056 174.325C524.056 163.825 526.356 153.275 530.956 142.675C532.456 139.225 534.156 135.6 536.056 131.8C536.456 131 536.681 130.1 536.731 129.1C536.831 128.1 536.906 127.125 536.956 126.175C537.006 125.225 537.156 124.375 537.406 123.625C537.656 122.875 538.181 122.35 538.981 122.05C549.381 117.9 557.606 116.3 563.656 117.25C565.756 117.3 567.131 118.025 567.781 119.425C568.481 120.775 568.556 122.3 568.006 124C567.506 125.7 566.481 127.3 564.931 128.8C563.431 130.3 561.531 131.225 559.231 131.575C556.281 132.425 554.481 133 553.831 133.3C552.581 133.9 551.681 134.7 551.131 135.7C550.431 136.8 549.781 137.85 549.181 138.85C548.581 139.85 548.156 140.925 547.906 142.075L547.606 143.725C548.556 144.175 549.706 144.325 551.056 144.175C552.456 143.975 553.731 143.8 554.881 143.65C556.081 143.45 557.031 143.425 557.731 143.575C558.481 143.725 558.631 144.475 558.181 145.825C557.781 147.125 557.006 148.6 555.856 150.25C554.756 151.9 553.181 153.1 551.131 153.85C549.831 154.1 548.931 154.3 548.431 154.45C547.981 154.55 547.631 154.625 547.381 154.675C547.031 154.725 546.031 154.8 544.381 154.9C542.031 158.9 540.606 162 540.106 164.2C539.906 165.1 540.031 165.55 540.481 165.55ZM567.962 145.9C568.962 142.55 569.762 139.975 570.362 138.175C571.012 136.325 571.637 134.675 572.237 133.225C572.837 131.775 573.512 130.375 574.262 129.025C575.062 127.675 575.912 126.45 576.812 125.35C577.762 124.2 578.762 123.3 579.812 122.65C580.862 122 581.962 121.675 583.112 121.675C584.262 121.675 585.462 122.125 586.712 123.025C588.712 128.025 589.937 131.375 590.387 133.075C590.987 135.575 591.537 139.1 592.037 143.65C592.487 142.5 592.987 141.3 593.537 140.05C594.137 138.75 594.712 137.45 595.262 136.15C596.812 132.85 597.787 130.35 598.187 128.65C599.287 125.15 601.562 122.525 605.012 120.775C608.012 119.275 610.812 118.8 613.412 119.35C614.462 119.55 615.187 119.975 615.587 120.625C616.037 121.275 616.037 121.95 615.587 122.65C615.187 123.35 615.037 124.025 615.137 124.675C615.287 125.275 615.412 126 615.512 126.85C615.662 129.15 615.262 131.2 614.312 133C613.362 134.75 612.387 136.95 611.387 139.6C610.387 142.2 609.362 144.975 608.312 147.925C607.312 150.875 606.287 153.875 605.237 156.925C604.187 159.975 603.162 162.75 602.162 165.25C599.962 171 598.162 174.175 596.762 174.775C594.862 175.925 593.462 176.6 592.562 176.8C591.412 177 589.787 177 587.687 176.8C586.387 176.7 585.262 175.025 584.312 171.775C583.762 170.025 583.262 167.6 582.812 164.5C582.012 159.1 581.462 156.125 581.162 155.575C579.162 162.075 577.737 166.175 576.887 167.875C576.087 169.575 575.462 170.7 575.012 171.25C574.612 171.8 574.112 172.525 573.512 173.425C572.862 175.225 571.312 176.55 568.862 177.4C566.762 178.2 564.862 178.325 563.162 177.775C561.312 177.175 560.762 176.025 561.512 174.325C562.062 168.325 564.212 158.85 567.962 145.9ZM644.568 174.325C643.918 176.675 642.268 178.25 639.618 179.05C637.218 179.75 635.068 179.5 633.168 178.3C631.118 177.05 630.468 175.2 631.218 172.75C631.868 169.95 633.118 165.475 634.968 159.325C636.818 153.175 638.118 148.85 638.868 146.35C640.618 140.15 641.718 136.05 642.168 134.05C643.718 129.05 644.818 125.95 645.468 124.75C646.168 123.55 646.768 122.725 647.268 122.275C647.768 121.775 648.568 121.2 649.668 120.55C650.818 119.9 652.043 119.4 653.343 119.05C654.643 118.7 655.943 118.475 657.243 118.375C658.543 118.225 659.868 118.125 661.218 118.075C662.568 117.975 664.068 117.725 665.718 117.325C666.368 117.325 666.943 117.275 667.443 117.175C667.993 117.075 668.518 117 669.018 116.95C670.168 116.85 671.293 116.975 672.393 117.325C673.543 117.675 674.393 118.3 674.943 119.2C675.543 120.1 675.843 121.125 675.843 122.275C675.843 123.425 675.593 124.65 675.093 125.95C674.643 127.25 673.993 128.5 673.143 129.7C671.293 132.3 668.968 134.15 666.168 135.25C664.218 135.85 662.818 136.15 661.968 136.15C661.118 136.15 660.518 136.05 660.168 135.85C659.868 135.65 659.693 135.5 659.643 135.4C659.593 135.3 659.418 135.475 659.118 135.925C658.668 136.575 658.343 137.3 658.143 138.1C657.943 138.9 657.718 139.5 657.468 139.9C657.218 140.25 656.868 140.975 656.418 142.075C656.018 143.175 655.493 144.1 654.843 144.85C654.193 145.55 653.818 145.975 653.718 146.125L660.318 145.45C661.368 145.35 662.268 145.575 663.018 146.125C663.818 146.625 664.368 147.25 664.668 148C665.018 148.75 665.118 149.5 664.968 150.25C664.818 150.95 664.368 151.5 663.618 151.9C662.868 152.25 662.368 152.625 662.118 153.025C661.918 153.375 661.743 153.725 661.593 154.075C661.443 154.425 661.243 154.775 660.993 155.125C660.793 155.475 660.318 155.8 659.568 156.1C657.968 156.85 654.893 157.45 650.343 157.9C650.093 158.65 649.743 159.55 649.293 160.6C648.893 161.6 648.468 162.65 648.018 163.75C646.718 167.1 645.968 169.125 645.768 169.825C645.618 170.525 645.493 171.1 645.393 171.55C645.093 172.9 644.818 173.825 644.568 174.325ZM680.48 125.35C683.63 121.75 687.13 119.5 690.98 118.6C693.63 117.95 696.13 118.05 698.48 118.9C700.33 116.95 702.73 116.25 705.68 116.8C708.38 117.3 710.68 118.825 712.58 121.375C712.68 121.725 712.88 122.25 713.18 122.95C713.53 123.65 713.855 124.425 714.155 125.275C716.355 130.375 716.53 137.075 714.68 145.375C712.38 155.675 708.305 164.4 702.455 171.55C700.655 173.75 698.63 175.575 696.38 177.025C692.78 179.775 688.48 181 683.48 180.7C680.38 180.55 677.78 179.775 675.68 178.375C667.33 174.225 664.605 165.575 667.505 152.425C669.905 141.625 674.23 132.6 680.48 125.35ZM681.38 165.175L681.305 165.625L681.455 166.45C681.755 168 682.255 169.2 682.955 170.05C683.655 170.85 684.23 171.35 684.68 171.55C685.18 171.15 685.68 170.775 686.18 170.425C686.68 170.075 687.13 169.65 687.53 169.15C690.93 164.95 693.58 159.45 695.48 152.65C697.38 145.85 698.08 139.55 697.58 133.75C695.63 136.25 693.58 139.125 691.43 142.375C689.28 145.625 687.58 148.4 686.33 150.7C683.48 156.05 681.83 160.875 681.38 165.175ZM695.03 126.625C696.78 123.525 698.105 121.05 699.005 119.2C699.955 117.3 700.73 115.875 701.33 114.925C701.93 113.925 702.33 113.325 702.53 113.125C702.73 112.875 702.88 112.625 702.98 112.375C702.88 111.225 703.43 110.125 704.63 109.075C705.88 107.975 707.93 107.15 710.78 106.6H711.305C714.005 106.7 715.88 107 716.93 107.5C718.88 108.4 720.23 109.95 720.98 112.15C721.13 113.1 720.905 114 720.305 114.85C719.755 115.7 719.18 116.475 718.58 117.175C719.18 118.775 718.755 120.425 717.305 122.125C715.205 124.125 713.33 126.275 711.68 128.575C710.03 130.825 708.08 133.5 705.83 136.6C703.63 139.65 701.205 143.275 698.555 147.475C695.955 151.675 693.33 155.9 690.68 160.15C683.98 170.85 678.48 178.85 674.18 184.15C673.33 185.2 672.105 185.375 670.505 184.675C668.855 183.975 667.73 182.75 667.13 181C666.33 178.95 666.63 176.825 668.03 174.625C671.43 166.875 675.88 158.45 681.38 149.35C683.83 145.35 686.28 141.35 688.73 137.35C691.23 133.3 693.33 129.725 695.03 126.625ZM726.28 175.225C725.83 177.225 724.28 178.45 721.63 178.9C719.18 179.35 716.855 179.075 714.655 178.075C712.205 177.025 711.13 175.55 711.43 173.65C711.13 170.75 712.655 164.45 716.005 154.75C721.005 140.2 726.005 129.8 731.005 123.55C732.305 121.95 733.405 120.925 734.305 120.475C735.255 119.975 736.33 119.525 737.53 119.125C738.73 118.725 739.98 118.35 741.28 118C743.88 117.3 746.33 116.825 748.63 116.575C750.98 116.275 753.08 116.55 754.93 117.4C756.78 118.2 758.205 119.4 759.205 121C760.255 122.6 760.905 124.5 761.155 126.7C761.405 128.85 761.33 131.125 760.93 133.525C760.53 135.875 759.805 138.275 758.755 140.725C757.705 143.125 756.38 145.375 754.78 147.475C751.28 152.075 747.18 155.05 742.48 156.4L743.23 157.675C743.88 158.675 744.655 159.775 745.555 160.975C746.505 162.175 747.43 163.4 748.33 164.65C749.28 165.9 750.13 167.15 750.88 168.4C751.63 169.65 752.18 170.825 752.53 171.925C753.33 174.375 752.705 176.15 750.655 177.25C749.005 178.25 747.705 178.5 746.755 178C746.355 177.75 745.955 177.425 745.555 177.025C745.155 176.675 744.605 176.375 743.905 176.125C740.955 176.975 738.705 176.225 737.155 173.875C736.205 172.375 735.48 171 734.98 169.75C734.48 168.5 734.055 167.45 733.705 166.6C732.805 164.75 731.78 163.15 730.63 161.8C730.08 163.15 729.455 164.875 728.755 166.975C727.905 169.625 726.955 172.375 725.905 175.225H726.28ZM741.43 131.575C740.48 133.725 739.83 135.225 739.48 136.075C738.78 137.775 738.005 139.65 737.155 141.7C737.005 142.8 736.88 143.575 736.78 144.025L737.83 142.975L739.105 142.375C740.005 141.875 740.83 141.425 741.58 141.025C742.33 140.625 743.005 140.125 743.605 139.525C744.755 138.375 745.755 136.5 746.605 133.9C746.605 133.4 746.68 132.9 746.83 132.4C747.03 131.9 747.155 131.4 747.205 130.9C747.405 129.8 746.955 129.025 745.855 128.575C744.855 128.475 743.605 129.3 742.105 131.05C741.805 131.4 741.58 131.575 741.43 131.575ZM769.258 179.35C766.708 179.45 764.358 179.125 762.208 178.375C760.108 177.675 758.383 176.7 757.033 175.45C755.733 174.2 754.908 172.75 754.558 171.1C754.208 169.4 754.508 167.675 755.458 165.925C756.758 163.825 759.358 163.2 763.258 164.05C766.208 164.65 768.233 164.975 769.333 165.025C770.483 165.075 771.458 164.925 772.258 164.575C775.908 163.375 777.958 162.075 778.408 160.675C778.708 159.625 778.058 158.4 776.458 157C775.808 156.4 775.083 155.8 774.283 155.2C773.483 154.6 772.808 154 772.258 153.4C769.758 151.55 767.783 149.425 766.333 147.025C764.933 144.575 764.358 141.925 764.608 139.075C764.858 136.225 765.333 133.875 766.033 132.025C766.733 130.125 767.608 128.45 768.658 127C770.508 124.45 772.908 122.375 775.858 120.775C779.258 119.025 781.983 117.9 784.033 117.4C788.083 116.5 792.183 116.425 796.333 117.175C797.733 117.425 798.933 117.9 799.933 118.6C800.933 119.3 801.933 120.025 802.933 120.775C804.683 122.525 805.108 124.3 804.208 126.1C803.858 126.9 803.308 127.55 802.558 128.05C801.808 128.55 801.008 128.825 800.158 128.875C800.258 130.225 800.008 131.225 799.408 131.875C798.258 133.025 796.258 133.775 793.408 134.125C789.308 133.825 786.533 134.05 785.083 134.8C783.383 135.7 782.758 137.65 783.208 140.65C783.308 141.3 783.708 141.975 784.408 142.675C785.158 143.375 786.008 144.125 786.958 144.925C787.958 145.725 788.983 146.625 790.033 147.625C791.133 148.625 792.083 149.775 792.883 151.075C795.683 155.675 795.458 161.05 792.208 167.2C789.808 171.8 785.708 175.25 779.908 177.55C776.908 178.75 773.358 179.35 769.258 179.35ZM824.289 155.8C822.939 159.7 821.564 163.45 820.164 167.05C818.764 170.65 817.589 173.375 816.639 175.225C815.739 177.125 814.939 178.425 814.239 179.125C813.539 179.825 812.814 180.3 812.064 180.55C811.364 180.8 810.639 180.9 809.889 180.85C809.189 180.8 808.464 180.75 807.714 180.7C803.514 180.05 802.214 177.025 803.814 171.625C804.864 167.325 805.714 163.825 806.364 161.125C807.014 158.375 807.539 156.125 807.939 154.375C808.389 152.575 808.764 151.1 809.064 149.95C809.364 148.75 809.689 147.575 810.039 146.425C810.389 145.275 810.814 143.975 811.314 142.525C811.864 141.075 812.564 139.15 813.414 136.75C811.514 137 809.814 136.8 808.314 136.15C806.114 135.2 805.214 133.15 805.614 130C805.814 128.55 806.589 127.2 807.939 125.95C808.639 125.3 809.464 124.6 810.414 123.85C812.364 122.3 816.239 120.65 822.039 118.9C828.039 117.1 833.189 116.25 837.489 116.35C838.639 116.15 839.814 116.3 841.014 116.8C842.264 117.25 843.264 117.875 844.014 118.675C844.764 119.475 845.139 120.35 845.139 121.3C845.189 122.25 844.589 123.1 843.339 123.85C842.739 124.25 842.314 124.925 842.064 125.875C841.814 126.775 841.539 127.75 841.239 128.8C840.939 129.8 840.489 130.725 839.889 131.575C839.339 132.425 838.439 132.925 837.189 133.075C836.539 133.425 835.614 133.675 834.414 133.825C833.264 133.975 832.489 134.1 832.089 134.2C831.739 134.25 831.539 134.375 831.489 134.575C830.589 137.225 829.514 140.45 828.264 144.25C827.014 148 825.689 151.85 824.289 155.8ZM814.164 135.925C814.064 135.925 814.014 135.95 814.014 136C814.014 136 814.064 136 814.164 136V135.925ZM852.786 165.55C855.686 165.85 857.836 166 859.236 166C860.686 166 862.861 165.8 865.761 165.4C866.661 165.7 867.186 166.075 867.336 166.525C867.486 166.975 867.536 167.45 867.486 167.95C867.436 168.4 867.461 168.85 867.561 169.3C867.661 169.75 868.136 170.125 868.986 170.425C869.436 170.575 869.561 171.025 869.361 171.775C869.211 172.475 868.811 173.25 868.161 174.1C866.511 176.25 864.561 177.75 862.311 178.6C858.711 179.5 855.886 180.025 853.836 180.175C850.436 180.425 846.736 180.3 842.736 179.8C838.336 179 836.211 177.175 836.361 174.325C836.361 163.825 838.661 153.275 843.261 142.675C844.761 139.225 846.461 135.6 848.361 131.8C848.761 131 848.986 130.1 849.036 129.1C849.136 128.1 849.211 127.125 849.261 126.175C849.311 125.225 849.461 124.375 849.711 123.625C849.961 122.875 850.486 122.35 851.286 122.05C861.686 117.9 869.911 116.3 875.961 117.25C878.061 117.3 879.436 118.025 880.086 119.425C880.786 120.775 880.861 122.3 880.311 124C879.811 125.7 878.786 127.3 877.236 128.8C875.736 130.3 873.836 131.225 871.536 131.575C868.586 132.425 866.786 133 866.136 133.3C864.886 133.9 863.986 134.7 863.436 135.7C862.736 136.8 862.086 137.85 861.486 138.85C860.886 139.85 860.461 140.925 860.211 142.075L859.911 143.725C860.861 144.175 862.011 144.325 863.361 144.175C864.761 143.975 866.036 143.8 867.186 143.65C868.386 143.45 869.336 143.425 870.036 143.575C870.786 143.725 870.936 144.475 870.486 145.825C870.086 147.125 869.311 148.6 868.161 150.25C867.061 151.9 865.486 153.1 863.436 153.85C862.136 154.1 861.236 154.3 860.736 154.45C860.286 154.55 859.936 154.625 859.686 154.675C859.336 154.725 858.336 154.8 856.686 154.9C854.336 158.9 852.911 162 852.411 164.2C852.211 165.1 852.336 165.55 852.786 165.55ZM924.631 155.8C923.281 159.7 921.906 163.45 920.506 167.05C919.106 170.65 917.931 173.375 916.981 175.225C916.081 177.125 915.281 178.425 914.581 179.125C913.881 179.825 913.156 180.3 912.406 180.55C911.706 180.8 910.981 180.9 910.231 180.85C909.531 180.8 908.806 180.75 908.056 180.7C903.856 180.05 902.556 177.025 904.156 171.625C905.206 167.325 906.056 163.825 906.706 161.125C907.356 158.375 907.881 156.125 908.281 154.375C908.731 152.575 909.106 151.1 909.406 149.95C909.706 148.75 910.031 147.575 910.381 146.425C910.731 145.275 911.156 143.975 911.656 142.525C912.206 141.075 912.906 139.15 913.756 136.75C911.856 137 910.156 136.8 908.656 136.15C906.456 135.2 905.556 133.15 905.956 130C906.156 128.55 906.931 127.2 908.281 125.95C908.981 125.3 909.806 124.6 910.756 123.85C912.706 122.3 916.581 120.65 922.381 118.9C928.381 117.1 933.531 116.25 937.831 116.35C938.981 116.15 940.156 116.3 941.356 116.8C942.606 117.25 943.606 117.875 944.356 118.675C945.106 119.475 945.481 120.35 945.481 121.3C945.531 122.25 944.931 123.1 943.681 123.85C943.081 124.25 942.656 124.925 942.406 125.875C942.156 126.775 941.881 127.75 941.581 128.8C941.281 129.8 940.831 130.725 940.231 131.575C939.681 132.425 938.781 132.925 937.531 133.075C936.881 133.425 935.956 133.675 934.756 133.825C933.606 133.975 932.831 134.1 932.431 134.2C932.081 134.25 931.881 134.375 931.831 134.575C930.931 137.225 929.856 140.45 928.606 144.25C927.356 148 926.031 151.85 924.631 155.8ZM914.506 135.925C914.406 135.925 914.356 135.95 914.356 136C914.356 136 914.406 136 914.506 136V135.925ZM967.903 124.3C966.153 129.75 964.528 134.675 963.028 139.075C961.578 143.475 960.228 147.525 958.978 151.225C957.778 154.925 956.653 158.35 955.603 161.5C954.553 164.6 953.578 167.575 952.678 170.425C952.178 173.725 950.553 176.05 947.803 177.4C946.203 178.15 944.303 178.525 942.103 178.525C939.903 178.525 938.253 178.275 937.153 177.775C936.053 177.325 935.353 176.65 935.053 175.75C934.703 174.85 934.703 173.775 935.053 172.525C935.353 171.225 935.903 169.475 936.703 167.275C937.503 165.025 938.503 162 939.703 158.2C940.953 154.4 942.253 150.55 943.603 146.65C946.953 136.9 949.603 130.15 951.553 126.4C952.303 125 953.053 124.075 953.803 123.625C954.553 123.125 955.278 122.775 955.978 122.575C956.678 122.325 957.328 122.05 957.928 121.75C958.528 121.45 959.053 120.7 959.503 119.5C960.003 118.3 960.878 117.475 962.128 117.025C963.428 116.575 964.628 116.55 965.728 116.95C966.878 117.3 967.728 118.1 968.278 119.35C968.878 120.55 968.753 122.2 967.903 124.3ZM1010.37 144.55C1010.17 146.7 1009.77 148.9 1009.17 151.15C1008.62 153.4 1007.79 155.6 1006.69 157.75C1005.64 159.9 1004.37 161.975 1002.87 163.975C1001.42 165.975 999.792 167.825 997.992 169.525C996.192 171.225 994.267 172.65 992.217 173.8C987.817 176.4 983.567 177.325 979.467 176.575C978.567 178.525 977.217 179.75 975.417 180.25C973.667 180.8 971.917 180.8 970.167 180.25C968.467 179.75 966.967 178.775 965.667 177.325C964.367 175.875 963.717 173.9 963.717 171.4C963.717 168.85 963.892 166.25 964.242 163.6C964.592 160.95 965.067 158.4 965.667 155.95C966.617 151.9 967.792 148.1 969.192 144.55C972.492 136.5 974.367 130.85 974.817 127.6C975.467 123.25 976.667 120.55 978.417 119.5C981.317 117.8 984.067 117.075 986.667 117.325C989.267 117.575 991.617 118.2 993.717 119.2C997.167 120.85 1000.89 123.625 1004.89 127.525C1009.29 131.775 1011.12 137.45 1010.37 144.55ZM980.892 167.05C983.442 165.75 985.492 164.425 987.042 163.075C988.642 161.675 990.142 160.4 991.542 159.25C993.692 157.1 995.267 154.55 996.267 151.6C998.467 145.1 997.067 140.175 992.067 136.825C991.317 136.275 990.192 135.525 988.692 134.575C987.992 136.175 987.467 137.85 987.117 139.6C986.817 141.35 986.392 143.05 985.842 144.7L983.817 151.3L982.167 158.425C982.067 159.425 981.917 160.4 981.717 161.35C981.517 162.25 981.342 163.2 981.192 164.2L980.892 167.05ZM525.53 210.64C522.963 218.633 520.58 225.857 518.38 232.31C516.253 238.763 514.273 244.703 512.44 250.13C510.68 255.557 509.03 260.58 507.49 265.2C505.95 269.747 504.52 274.11 503.2 278.29C502.467 283.13 500.083 286.54 496.05 288.52C493.703 289.62 490.917 290.17 487.69 290.17C484.463 290.17 482.043 289.803 480.43 289.07C478.817 288.41 477.79 287.42 477.35 286.1C476.837 284.78 476.837 283.203 477.35 281.37C477.79 279.463 478.597 276.897 479.77 273.67C480.943 270.37 482.41 265.933 484.17 260.36C486.003 254.787 487.91 249.14 489.89 243.42C494.803 229.12 498.69 219.22 501.55 213.72C502.65 211.667 503.75 210.31 504.85 209.65C505.95 208.917 507.013 208.403 508.04 208.11C509.067 207.743 510.02 207.34 510.9 206.9C511.78 206.46 512.55 205.36 513.21 203.6C513.943 201.84 515.227 200.63 517.06 199.97C518.967 199.31 520.727 199.273 522.34 199.86C524.027 200.373 525.273 201.547 526.08 203.38C526.96 205.14 526.777 207.56 525.53 210.64ZM579.948 261.02L574.668 274.44C573.935 276.493 573.275 278.62 572.688 280.82C572.102 283.02 571.478 284.927 570.818 286.54C570.158 288.227 569.132 289.547 567.738 290.5C566.418 291.453 564.915 292.15 563.228 292.59C561.542 293.103 559.782 293.323 557.948 293.25C556.188 293.177 554.612 292.847 553.218 292.26C550.065 290.793 548.965 288.373 549.918 285C553.292 270.187 556.445 258.307 559.378 249.36C562.385 240.413 564.842 233.373 566.748 228.24C568.728 223.107 570.782 217.68 572.908 211.96C573.128 209.833 574.008 207.927 575.548 206.24C577.088 204.553 578.885 203.16 580.938 202.06C583.065 200.96 585.265 200.19 587.538 199.75C589.812 199.237 591.828 199.163 593.588 199.53C595.348 199.897 596.632 200.703 597.438 201.95C598.318 203.197 598.392 204.993 597.658 207.34C595.018 214.087 593.148 218.853 592.048 221.64C590.948 224.427 589.958 226.92 589.078 229.12L585.998 236.38C587.538 236.453 589.482 236.233 591.828 235.72C596.082 234.767 599.162 234.437 601.068 234.73C601.068 234.363 601.252 233.74 601.618 232.86C603.672 223.913 605.982 215.7 608.548 208.22C610.382 202.06 615.112 198.833 622.738 198.54C625.745 198.54 628.018 199.273 629.558 200.74C631.245 202.28 631.465 204.37 630.218 207.01C623.472 225.93 618.705 240.853 615.918 251.78C612.765 264.393 610.675 272.9 609.648 277.3C608.695 281.7 607.852 284.303 607.118 285.11C606.385 285.917 605.615 286.467 604.808 286.76C604.075 287.127 603.342 287.457 602.608 287.75C601.875 288.043 601.288 288.777 600.848 289.95H600.518C599.932 291.27 598.648 292.297 596.668 293.03C594.688 293.763 592.672 294.02 590.618 293.8C588.638 293.653 586.952 292.92 585.558 291.6C584.238 290.353 583.908 288.41 584.568 285.77C585.302 281.59 586.512 277.117 588.198 272.35C589.885 267.51 591.205 263.733 592.158 261.02C593.185 258.307 594.028 255.777 594.688 253.43C594.102 253.723 593.515 253.943 592.928 254.09C592.415 254.237 591.755 254.53 590.948 254.97C590.142 255.337 589.298 255.667 588.418 255.96C587.612 256.253 586.805 256.547 585.998 256.84C583.945 257.647 582.258 258.453 580.938 259.26L579.948 261.02ZM592.378 253.65C592.452 253.65 592.818 253.54 593.478 253.32C593.038 253.467 592.672 253.577 592.378 253.65ZM634.496 273.89L634.386 276.53C634.386 276.97 634.46 277.85 634.606 279.17C635.266 279.977 635.963 280.16 636.696 279.72C637.283 279.353 638.603 278.327 640.656 276.64C644.03 271.58 646.816 266.593 649.016 261.68C654.076 250.167 657.67 240.34 659.796 232.2C660.456 229.78 661.08 227.397 661.666 225.05C662.326 222.703 662.95 220.32 663.536 217.9C664.196 215.407 664.93 212.84 665.736 210.2V209.76C666.983 205.433 670.173 202.06 675.306 199.64C680.22 197.22 684.436 196.853 687.956 198.54C689.643 199.347 690.853 200.74 691.586 202.72C692.32 204.627 692.246 207.23 691.366 210.53C689.68 215.59 687.993 220.907 686.306 226.48C684.62 232.053 682.823 237.663 680.916 243.31C679.01 248.883 676.883 254.347 674.536 259.7C672.19 265.053 669.476 269.967 666.396 274.44C659.576 284.413 651.51 291.013 642.196 294.24C641.17 294.68 640.29 294.937 639.556 295.01C638.896 295.083 637.906 295.193 636.586 295.34C635.266 295.56 633.58 295.597 631.526 295.45C629.546 295.377 627.603 295.047 625.696 294.46C621.296 293.213 618.583 291.013 617.556 287.86C616.383 283.46 615.943 280.27 616.236 278.29C616.456 276.237 616.86 274.587 617.446 273.34C618.033 272.093 618.766 270.773 619.646 269.38H619.756C620.416 268.133 621.443 267.07 622.836 266.19C624.303 265.31 625.806 264.76 627.346 264.54C628.96 264.247 630.426 264.357 631.746 264.87C633.14 265.383 634.056 266.373 634.496 267.84C634.57 268.647 634.606 269.673 634.606 270.92C634.606 272.167 634.57 273.157 634.496 273.89ZM704.846 271.14C709.1 271.58 712.253 271.8 714.306 271.8C716.433 271.8 719.623 271.507 723.876 270.92C725.196 271.36 725.966 271.91 726.186 272.57C726.406 273.23 726.48 273.927 726.406 274.66C726.333 275.32 726.37 275.98 726.516 276.64C726.663 277.3 727.36 277.85 728.606 278.29C729.266 278.51 729.45 279.17 729.156 280.27C728.936 281.297 728.35 282.433 727.396 283.68C724.976 286.833 722.116 289.033 718.816 290.28C713.536 291.6 709.393 292.37 706.386 292.59C701.4 292.957 695.973 292.773 690.106 292.04C683.653 290.867 680.536 288.19 680.756 284.01C680.756 268.61 684.13 253.137 690.876 237.59C693.076 232.53 695.57 227.213 698.356 221.64C698.943 220.467 699.273 219.147 699.346 217.68C699.493 216.213 699.603 214.783 699.676 213.39C699.75 211.997 699.97 210.75 700.336 209.65C700.703 208.55 701.473 207.78 702.646 207.34C717.9 201.253 729.963 198.907 738.836 200.3C741.916 200.373 743.933 201.437 744.886 203.49C745.913 205.47 746.023 207.707 745.216 210.2C744.483 212.693 742.98 215.04 740.706 217.24C738.506 219.44 735.72 220.797 732.346 221.31C728.02 222.557 725.38 223.4 724.426 223.84C722.593 224.72 721.273 225.893 720.466 227.36C719.44 228.973 718.486 230.513 717.606 231.98C716.726 233.447 716.103 235.023 715.736 236.71L715.296 239.13C716.69 239.79 718.376 240.01 720.356 239.79C722.41 239.497 724.28 239.24 725.966 239.02C727.726 238.727 729.12 238.69 730.146 238.91C731.246 239.13 731.466 240.23 730.806 242.21C730.22 244.117 729.083 246.28 727.396 248.7C725.783 251.12 723.473 252.88 720.466 253.98C718.56 254.347 717.24 254.64 716.506 254.86C715.846 255.007 715.333 255.117 714.966 255.19C714.453 255.263 712.986 255.373 710.566 255.52C707.12 261.387 705.03 265.933 704.296 269.16C704.003 270.48 704.186 271.14 704.846 271.14ZM780.902 204.7C781.635 206.68 782.039 208 782.112 208.66C782.259 210.053 781.745 211.227 780.572 212.18C780.572 212.253 780.499 212.363 780.352 212.51C781.012 215.957 781.159 219.183 780.792 222.19C780.425 225.197 779.949 228.093 779.362 230.88C783.322 224.133 786.475 219.183 788.822 216.03C793.662 209.503 798.172 204.847 802.352 202.06C803.745 201.253 805.432 200.667 807.412 200.3C809.465 199.86 811.409 199.787 813.242 200.08C815.075 200.373 816.579 201.107 817.752 202.28C818.999 203.453 819.549 205.213 819.402 207.56C817.349 221.86 815.149 235.207 812.802 247.6C810.455 259.92 807.412 271.69 803.672 282.91V283.13H803.562C802.682 285.77 800.482 287.64 796.962 288.74C793.515 289.767 790.435 289.84 787.722 288.96C784.422 288.007 782.919 286.247 783.212 283.68L783.322 281.15V280.93C783.615 279.17 783.762 277.997 783.762 277.41C783.835 276.75 783.909 276.273 783.982 275.98C784.129 274.073 784.422 272.313 784.862 270.7C785.375 269.013 785.742 267.657 785.962 266.63C786.182 265.603 786.402 264.65 786.622 263.77C786.842 262.817 786.989 262.083 787.062 261.57C784.275 265.383 782.295 267.693 781.122 268.5C778.189 270.553 774.779 271.507 770.892 271.36C768.472 271.213 767.079 270.663 766.712 269.71C765.979 267.657 765.465 266.447 765.172 266.08C764.732 265.493 764.365 264.503 764.072 263.11C762.165 271.543 760.295 277.52 758.462 281.04C757.729 282.433 756.995 283.68 756.262 284.78C755.235 287.2 752.889 288.887 749.222 289.84C745.775 290.793 742.475 290.72 739.322 289.62C736.095 288.593 734.555 286.76 734.702 284.12C734.849 281.48 735.399 278.18 736.352 274.22C737.232 270.187 738.295 265.933 739.542 261.46C743.282 247.307 745.922 238.103 747.462 233.85C749.075 229.597 750.432 226.26 751.532 223.84C754.172 218.193 756.519 214.087 758.572 211.52C760.845 206.9 764.622 204.113 769.902 203.16C774.082 202.353 777.749 202.867 780.902 204.7ZM856.957 204.7C857.69 206.68 858.093 208 858.167 208.66C858.313 210.053 857.8 211.227 856.627 212.18C856.627 212.253 856.553 212.363 856.407 212.51C857.067 215.957 857.213 219.183 856.847 222.19C856.48 225.197 856.003 228.093 855.417 230.88C859.377 224.133 862.53 219.183 864.877 216.03C869.717 209.503 874.227 204.847 878.407 202.06C879.8 201.253 881.487 200.667 883.467 200.3C885.52 199.86 887.463 199.787 889.297 200.08C891.13 200.373 892.633 201.107 893.807 202.28C895.053 203.453 895.603 205.213 895.457 207.56C893.403 221.86 891.203 235.207 888.857 247.6C886.51 259.92 883.467 271.69 879.727 282.91V283.13H879.617C878.737 285.77 876.537 287.64 873.017 288.74C869.57 289.767 866.49 289.84 863.777 288.96C860.477 288.007 858.973 286.247 859.267 283.68L859.377 281.15V280.93C859.67 279.17 859.817 277.997 859.817 277.41C859.89 276.75 859.963 276.273 860.037 275.98C860.183 274.073 860.477 272.313 860.917 270.7C861.43 269.013 861.797 267.657 862.017 266.63C862.237 265.603 862.457 264.65 862.677 263.77C862.897 262.817 863.043 262.083 863.117 261.57C860.33 265.383 858.35 267.693 857.177 268.5C854.243 270.553 850.833 271.507 846.947 271.36C844.527 271.213 843.133 270.663 842.767 269.71C842.033 267.657 841.52 266.447 841.227 266.08C840.787 265.493 840.42 264.503 840.127 263.11C838.22 271.543 836.35 277.52 834.517 281.04C833.783 282.433 833.05 283.68 832.317 284.78C831.29 287.2 828.943 288.887 825.277 289.84C821.83 290.793 818.53 290.72 815.377 289.62C812.15 288.593 810.61 286.76 810.757 284.12C810.903 281.48 811.453 278.18 812.407 274.22C813.287 270.187 814.35 265.933 815.597 261.46C819.337 247.307 821.977 238.103 823.517 233.85C825.13 229.597 826.487 226.26 827.587 223.84C830.227 218.193 832.573 214.087 834.627 211.52C836.9 206.9 840.677 204.113 845.957 203.16C850.137 202.353 853.803 202.867 856.957 204.7ZM914.641 271.14C918.895 271.58 922.048 271.8 924.101 271.8C926.228 271.8 929.418 271.507 933.671 270.92C934.991 271.36 935.761 271.91 935.981 272.57C936.201 273.23 936.275 273.927 936.201 274.66C936.128 275.32 936.165 275.98 936.311 276.64C936.458 277.3 937.155 277.85 938.401 278.29C939.061 278.51 939.245 279.17 938.951 280.27C938.731 281.297 938.145 282.433 937.191 283.68C934.771 286.833 931.911 289.033 928.611 290.28C923.331 291.6 919.188 292.37 916.181 292.59C911.195 292.957 905.768 292.773 899.901 292.04C893.448 290.867 890.331 288.19 890.551 284.01C890.551 268.61 893.925 253.137 900.671 237.59C902.871 232.53 905.365 227.213 908.151 221.64C908.738 220.467 909.068 219.147 909.141 217.68C909.288 216.213 909.398 214.783 909.471 213.39C909.545 211.997 909.765 210.75 910.131 209.65C910.498 208.55 911.268 207.78 912.441 207.34C927.695 201.253 939.758 198.907 948.631 200.3C951.711 200.373 953.728 201.437 954.681 203.49C955.708 205.47 955.818 207.707 955.011 210.2C954.278 212.693 952.775 215.04 950.501 217.24C948.301 219.44 945.515 220.797 942.141 221.31C937.815 222.557 935.175 223.4 934.221 223.84C932.388 224.72 931.068 225.893 930.261 227.36C929.235 228.973 928.281 230.513 927.401 231.98C926.521 233.447 925.898 235.023 925.531 236.71L925.091 239.13C926.485 239.79 928.171 240.01 930.151 239.79C932.205 239.497 934.075 239.24 935.761 239.02C937.521 238.727 938.915 238.69 939.941 238.91C941.041 239.13 941.261 240.23 940.601 242.21C940.015 244.117 938.878 246.28 937.191 248.7C935.578 251.12 933.268 252.88 930.261 253.98C928.355 254.347 927.035 254.64 926.301 254.86C925.641 255.007 925.128 255.117 924.761 255.19C924.248 255.263 922.781 255.373 920.361 255.52C916.915 261.387 914.825 265.933 914.091 269.16C913.798 270.48 913.981 271.14 914.641 271.14ZM985.747 256.84C983.767 262.56 981.75 268.06 979.697 273.34C977.643 278.62 975.92 282.617 974.527 285.33C973.207 288.117 972.033 290.023 971.007 291.05C969.98 292.077 968.917 292.773 967.817 293.14C966.79 293.507 965.727 293.653 964.627 293.58C963.6 293.507 962.537 293.433 961.437 293.36C955.277 292.407 953.37 287.97 955.717 280.05C957.257 273.743 958.503 268.61 959.457 264.65C960.41 260.617 961.18 257.317 961.767 254.75C962.427 252.11 962.977 249.947 963.417 248.26C963.857 246.5 964.333 244.777 964.847 243.09C965.36 241.403 965.983 239.497 966.717 237.37C967.523 235.243 968.55 232.42 969.797 228.9C967.01 229.267 964.517 228.973 962.317 228.02C959.09 226.627 957.77 223.62 958.357 219C958.65 216.873 959.787 214.893 961.767 213.06C962.793 212.107 964.003 211.08 965.397 209.98C968.257 207.707 973.94 205.287 982.447 202.72C991.247 200.08 998.8 198.833 1005.11 198.98C1006.79 198.687 1008.52 198.907 1010.28 199.64C1012.11 200.3 1013.58 201.217 1014.68 202.39C1015.78 203.563 1016.33 204.847 1016.33 206.24C1016.4 207.633 1015.52 208.88 1013.69 209.98C1012.81 210.567 1012.18 211.557 1011.82 212.95C1011.45 214.27 1011.05 215.7 1010.61 217.24C1010.17 218.707 1009.51 220.063 1008.63 221.31C1007.82 222.557 1006.5 223.29 1004.67 223.51C1003.71 224.023 1002.36 224.39 1000.6 224.61C998.91 224.83 997.773 225.013 997.187 225.16C996.673 225.233 996.38 225.417 996.307 225.71C994.987 229.597 993.41 234.327 991.577 239.9C989.743 245.4 987.8 251.047 985.747 256.84ZM970.897 227.69C970.75 227.69 970.677 227.727 970.677 227.8C970.677 227.8 970.75 227.8 970.897 227.8V227.69Z" fill="#F5F0E8"/>
<path d="M840.433 517.45C838.018 516.518 837.107 515.199 836.783 512.851C835.624 504.542 830.06 500.543 821.66 501.83C820.76 501.969 819.816 502.001 818.911 501.916C817.59 501.787 816.835 501.262 818.221 500.088C819.509 499 819.833 497.633 819.892 496.003C820.005 492.98 820.285 489.957 820.598 486.944C820.927 483.749 819.957 480.897 818.442 478.18C818.064 477.499 816.889 476.899 816.959 476.384C817.487 472.53 814.835 470.15 812.964 467.459C810.899 464.478 809.422 460.93 805.551 459.563C803.998 459.016 802.37 457.226 801.927 460.544C801.857 461.059 801.318 460.962 800.919 460.807C800.434 460.614 799.863 460.388 799.895 459.804C799.938 459 800.089 458.185 800.337 457.419C801.2 454.76 801.593 452.058 801.421 449.266C800.925 441.273 795.954 436.368 788.114 435.221C782.453 434.396 776.706 434.551 771.083 433.329C767.206 432.487 763.335 431.335 759.286 431.458C756.472 431.549 754.579 432.638 754.348 435.736C753.782 443.439 751.97 451.018 752.153 458.802C752.218 461.611 754.445 463.599 757.151 462.811C760.192 461.927 763.2 460.903 766.257 460.072C774.851 457.724 783.58 455.725 789.813 448.52C790.859 447.309 792.411 446.575 794.18 446.537C796.078 446.494 797.07 447.084 796.832 449.212C796.482 452.348 794.773 454.261 792.147 455.934C790.616 456.91 790.314 455.114 789.306 455.435C787.964 455.859 786.416 455.189 785.171 456.041C781.801 458.335 778.156 459.949 774.172 460.849C771.741 461.396 768.797 461.434 767.082 462.881C765.271 464.409 763.475 465.942 761.357 466.708C757.399 468.145 754.935 471.334 752.072 473.993C750.751 475.221 749.35 476.877 748.988 478.818C748.25 482.817 747.689 486.783 745.818 490.541C744.848 492.497 743.991 494.272 742.26 495.682C739.413 498.003 736.567 500.367 733.989 502.972C730.501 506.494 730.172 510.953 731.051 515.558C731.267 516.7 732.075 517.772 733.396 517.52C734.636 517.284 734.065 516.024 734.183 515.177C734.227 514.877 734.194 514.566 734.205 514.261C734.297 511.795 735.413 509.93 737.634 508.863C739.888 507.785 741.942 508.611 743.538 510.176C745.57 512.17 747.581 514.266 749.177 516.609C751.663 520.264 749.711 524.585 745.333 525.7C744.837 525.829 744.33 525.941 743.861 526.14C743.392 526.332 742.907 526.601 742.918 527.206C742.928 527.807 743.376 528.08 743.888 528.235C747.587 529.34 751.253 530.61 755.011 531.468C756.93 531.907 758.812 531.489 760.731 530.256C764.306 527.967 768.452 526.836 772.738 527.512C775.725 527.984 778.572 529.549 781.693 528.155C782.259 527.903 782.556 528.605 782.982 528.75C787.899 530.455 792.87 531.194 797.647 528.461C799.852 527.201 801.89 525.609 803.885 524.022C806.462 521.969 808.855 519.718 810.268 516.56C808.138 515.751 807.378 518.683 805.092 517.279C807.076 516.625 808.058 515.386 809.228 514.245C811.265 512.261 812.306 508.831 816.339 509.361C822.803 510.208 824.949 512.572 824.34 519.101C823.946 523.331 825.488 526.579 829.198 528.562C835.543 531.95 842.466 531.548 849.243 530.771C852.667 530.38 853.551 526.922 851.157 524.43C848.143 521.294 844.428 518.999 840.428 517.456L840.433 517.45ZM764.063 489.517C762.764 489.748 762.149 488.156 761.761 487.035C760.769 484.167 759.917 481.251 759.033 478.351C758.85 477.756 758.79 477.108 759.383 476.695C759.874 476.346 760.489 476.518 760.737 476.952C762.44 479.975 764.667 482.741 765.519 485.314C765.389 487.518 765.573 489.249 764.068 489.517H764.063ZM785.214 519.964C783.58 519.482 782.41 518.281 781.294 517.113C780.022 515.783 778.997 514.314 776.846 514.223C775.73 514.18 775.283 513.376 776.118 512.277C777.488 510.476 779.062 509.688 781.046 511.296C783.456 513.253 784.82 516.094 786.842 518.378C787.025 518.587 787.052 518.94 787.144 519.214C786.864 520.463 785.985 520.189 785.208 519.959L785.214 519.964Z" fill="#F5F0E8"/>
<path d="M727.79 527.785C716.252 527.078 704.714 526.751 693.128 526.976C684.291 527.147 675.541 525.164 666.86 523.138C660.207 521.583 655.339 517.788 650.335 512.551C653.128 513.43 655.991 511.79 657.22 515.135C657.404 515.638 658.428 515.81 659.032 516.196C662.79 518.597 667.405 518.935 671.206 521.251C672.069 521.776 673.028 522.173 674.128 521.889C675.805 521.455 677.584 522.95 679.261 522.446C679.902 522.72 680.614 522.88 681.363 522.913C682.749 524.247 684.992 523.642 686.663 524.344C687.645 524.762 688.356 524.917 688.69 524.564C688.804 524.574 688.917 524.58 689.036 524.585C689.904 524.601 690.766 524.66 691.629 524.74C692.184 524.966 692.81 525.057 693.602 524.976C693.645 524.976 693.694 524.971 693.737 524.966C696.05 525.239 698.357 525.534 700.697 525.416C701.441 525.378 702.18 525.201 702.87 524.923C705.113 525.475 707.528 524.665 709.804 524.923C714.349 525.437 714.667 524.81 713.836 520.736C713.82 520.667 714.09 520.543 714.23 520.447C716.322 523.497 716.333 523.39 720.748 523.818C722.5 523.99 722.98 523.299 722.97 521.862C722.932 515.14 722.199 508.563 718.117 502.891C717.244 501.675 716.683 500.527 717.001 498.721C721.314 503.921 725.428 508.884 725.719 515.88C726.808 511.136 729.585 507.035 730.043 502.2C730.135 501.256 731.062 500.94 731.812 500.672C734.912 499.563 735.532 497.156 735.192 494.293C734.572 489.061 732.971 484.167 730.237 479.622C728.108 476.078 724.625 474.084 721.632 471.469C712.138 463.176 701.134 460.71 689.036 462.651C684.792 463.331 680.549 463.23 676.188 464.098C676.894 461.766 679.784 460.823 680.296 460.898C684.771 461.584 689.014 459.895 693.494 460.024C701.668 460.254 709.291 461.262 716.424 465.32C717.087 465.695 718.079 466.151 718.629 465.91C718.662 465.899 718.683 465.878 718.71 465.867C719.395 466.467 720.144 467.019 720.932 467.539C720.932 467.539 720.937 467.545 720.942 467.55C721.217 468.108 721.557 468.585 722.177 468.547C722.862 469.035 723.595 469.453 724.355 469.785C724.571 469.882 724.792 469.962 725.018 470.037C725.892 470.552 726.771 471.061 727.639 471.586C728.188 471.919 728.728 472.273 729.272 472.621C729.337 472.675 729.402 472.728 729.472 472.782C729.569 472.9 729.72 473.007 729.833 473.077C729.919 473.146 730.005 473.216 730.097 473.291C730.528 473.639 731.003 473.945 731.499 474.197C733.364 478.63 735.855 482.822 736.96 487.512C736.96 487.673 736.96 487.839 736.971 488C737.079 489.426 737.467 491.313 738.686 492.219C738.756 492.267 738.837 492.299 738.923 492.31C739.155 492.61 739.538 492.642 739.877 492.492C741.333 491.849 742.379 490.262 743.026 488.868C743.107 488.697 743.177 488.525 743.241 488.349C743.279 488.434 743.317 488.515 743.36 488.6C744.39 486.698 744.643 485.02 744.595 483.315C744.525 480.737 744.934 478.228 745.393 475.709C745.517 475.028 745.382 474.176 746.336 474.004C749.323 473.468 750.407 471.158 751.334 468.708C751.469 468.349 751.571 467.786 751.388 467.529C747.776 462.522 748.93 456.851 748.989 451.303C749.016 448.864 749.609 446.65 750.795 444.586C751.798 442.844 752.132 440.989 752.224 439.016C752.536 432.069 754.003 430.343 760.731 428.456C756.224 426.403 751.895 423.68 747.172 422.442C739.408 420.405 731.472 418.727 723.444 418.175C719.481 417.902 715.556 416.39 711.583 417.275C708.838 417.886 706.121 418.089 703.355 417.934C699.759 417.736 696.217 417.918 692.664 418.599C686.555 419.773 680.328 420.566 674.484 422.726C666.402 425.712 658.903 429.963 651.894 434.926C647.58 437.982 643.752 441.659 640.426 445.91C638.129 448.842 638.9 452.97 636.01 455.462C633.994 457.199 633.401 459.836 631.994 461.847C628.123 467.379 629.018 474.315 625.982 480.013C625.599 480.737 625.664 481.889 625.923 482.72C626.494 484.559 626.144 486.333 626.068 488.166C625.648 498.978 625.292 509.796 628.829 520.275C630.538 525.346 633.908 528.782 639.191 531.243C639.191 531.232 639.191 531.221 639.186 531.211C639.612 531.446 640.086 531.591 640.555 531.72C642.033 532.422 643.569 532.937 645.009 533.247C645.348 533.323 645.693 533.365 646.044 533.382C646.928 533.676 647.807 533.982 648.702 534.239C649.478 534.464 650.265 534.663 651.053 534.829C651.651 535.22 652.244 535.638 652.869 536.062C655.538 537.884 658.299 540.045 661.792 539.664C663.545 539.471 665.081 539.894 666.709 540.028C669.842 540.286 672.554 541.883 675.611 542.151C680.479 542.575 685.342 543.052 690.216 543.406C692.114 543.545 694.659 544.462 695.748 542.918C696.794 541.438 697.452 542.055 698.411 542.248C701.706 542.907 705.01 544.274 708.369 543.196C711.464 542.21 714.586 542.071 717.751 541.915C721.023 541.755 724.328 541.738 727.552 541.229C738.626 539.487 749.663 540.548 760.456 542.591C769.746 544.344 778.728 547.705 787.834 550.396C788.961 550.728 790.293 551.184 790.897 550.09C791.582 548.846 790.25 548.064 789.312 547.549C786.449 545.973 783.473 544.59 780.621 542.993C772.959 538.694 764.516 536.528 756.24 533.885C746.956 530.921 737.559 528.396 727.806 527.796L727.79 527.785Z" fill="#F5F0E8"/>
<path d="M901.67 553.783C899.492 552.079 897.508 550.294 896.165 548.101C895.324 546.729 893.874 545.673 892.44 544.638C891.982 544.306 891.389 543.958 890.801 544.269C890.779 544.279 890.752 544.295 890.736 544.306C890.661 544.242 890.58 544.172 890.499 544.108C888.402 542.392 886.207 540.806 883.932 539.332C883.706 539.187 883.479 539.042 883.253 538.897C882.223 537.08 881.031 535.295 879.716 533.548C878.018 531.291 875.753 529.249 874.767 526.718C873.025 522.242 871.343 517.75 869.79 513.232C869.499 510.846 869.197 508.466 868.814 506.092C868.545 504.414 868.221 502.741 867.785 501.096C867.165 498.764 866.248 496.539 865.24 494.347C864.167 492.02 862.603 489.941 860.916 488.027C860.026 487.073 858.975 486.403 857.756 486.006C856.587 485.395 855.325 485.116 853.972 485.164C852.748 485.116 851.599 485.347 850.527 485.84C849.41 485.116 848.219 484.51 846.957 483.98C845.151 483.219 843.421 482.656 841.474 482.382C839.016 482.034 836.6 481.771 834.12 481.707C832.363 481.664 830.6 481.659 828.842 481.594C826.551 481.509 824.254 481.444 821.962 481.401C822.874 486.102 822.577 490.927 822.173 495.821C822.049 497.3 822.566 497.777 823.995 497.944C830.411 498.689 836.649 504.081 838.261 510.482C838.789 512.594 839.819 513.794 841.728 514.727C846.181 516.898 850.149 519.793 853.249 523.711C856.565 527.898 855.406 530.808 850.478 532.701C845.022 534.797 839.447 534.775 833.856 534.405C832.136 534.293 830.653 533.205 828.88 532.652C828.109 531.591 826.869 530.648 825.618 530.364C824.831 530.187 824.033 530.154 823.267 530.262C821.24 529.994 819.218 529.828 817.191 529.758C816.528 529.672 815.87 529.592 815.239 529.511C809.115 528.755 802.494 529.098 797.178 532.502C794.73 532.583 792.288 532.658 789.845 532.727C789.721 532.701 789.597 532.679 789.473 532.652C788.778 532.492 788.05 532.459 787.338 532.54C787.187 532.508 787.042 532.47 786.891 532.433C786.077 532.234 785.263 532.074 784.427 531.977C782.734 531.784 781.02 531.864 779.321 531.87C779.31 531.87 779.305 531.87 779.294 531.87C777.882 531.634 776.469 531.339 775.03 531.269C773.633 531.2 772.258 531.393 771.078 532.122C770.458 532.299 769.881 532.588 769.412 533.087C769.115 533.221 768.889 533.526 768.98 533.934C769.401 535.794 771.633 536.582 773.24 537.086C774.091 537.354 774.954 537.563 775.811 537.804C776.976 538.597 778.146 539.38 779.348 540.103C780.669 540.897 782.152 541.465 783.473 542.28C784.184 543.137 785.144 543.791 786.33 544.065C787.311 544.29 788.303 544.429 789.295 544.601C789.533 544.644 789.77 544.687 790.007 544.73C791.603 545.362 792.342 546.606 792.999 548.053C793.776 549.758 793.28 550.899 791.749 551.5C790.482 551.296 789.22 551.076 787.958 550.846C781.704 549.704 775.59 548.037 769.369 546.75C764.096 545.662 758.192 544.88 752.671 545.426C737.597 544.735 722.533 545.475 707.447 546.322C701.436 544.472 694.907 545.362 688.685 546.08C685.202 546.209 681.703 546.305 678.193 546.439C677.902 546.375 677.606 546.311 677.314 546.241C675.692 545.855 674.069 545.48 672.43 545.153C671.589 544.987 670.742 544.826 669.896 544.681C669.842 544.665 669.782 544.644 669.729 544.628C667.696 543.968 665.599 543.443 663.474 543.137C662.677 542.81 661.819 542.634 660.962 542.612C659.814 542.451 658.687 542.21 657.571 541.926C656.255 541.331 654.961 540.698 653.624 540.146C652.066 539.503 650.486 538.913 648.907 538.318C647.462 537.777 646.082 537.128 644.669 536.507C643.542 536.013 642.399 535.617 641.208 535.424C640.544 535.167 639.871 534.984 639.191 534.856C638.161 534.239 637.148 533.591 636.167 532.904C636.01 532.797 634.716 531.789 634.964 532.009C635.045 532.074 635.121 532.143 635.196 532.208C635.072 532.106 635.002 532.047 634.964 532.009C634.63 531.73 634.29 531.457 633.967 531.168C632.964 530.283 632.021 529.329 631.158 528.311C631.072 528.209 630.991 528.107 630.905 528.005C630.867 527.951 630.77 527.817 630.613 527.598C630.231 526.986 629.821 526.397 629.465 525.764C629.195 525.282 628.958 524.794 628.71 524.296C629.217 525.314 628.203 523.03 628.117 522.789C627.589 521.337 627.141 519.852 626.753 518.351C625.917 515.14 625.341 511.87 624.694 508.622C624.505 507.667 623.998 506.815 623.308 506.118C623.432 502.044 623.599 497.965 623.621 493.891C613.819 495.612 604.26 499.262 597.364 506.649C595.989 508.123 594.755 509.747 593.585 511.382C592.199 513.323 591.983 516.614 592.576 518.844C591.137 520.586 589.697 522.328 587.886 523.894C583.098 528.037 578.758 532.443 575.653 537.552C574.564 539.348 573.453 541.122 572.412 542.923C570.639 543.995 568.897 545.121 567.193 546.3C568.169 544.987 569.005 543.604 570.38 542.494C570.73 542.21 571.091 541.824 570.612 541.454C570.164 541.111 569.636 541.299 569.248 541.588C568.131 542.414 567.048 543.255 565.959 544.102C559.791 548.895 553.424 553.574 551.084 560.452C550.911 560.956 550.48 561.411 550.113 561.979C548.873 560.929 549.515 559.883 549.552 558.897C549.569 558.49 549.509 558.072 548.965 557.884C548.393 557.686 548.01 558.013 547.628 558.275C544.803 560.221 545.827 563.995 549.375 565.051C552.022 565.839 554.793 566.391 557.003 567.999C557.796 568.578 558.934 569.607 560.47 569.114C562.303 568.53 562.147 569.516 561.565 570.09C559.225 572.379 561.462 573.585 563.355 574.764C565.031 575.815 566.988 576.576 569.145 576.924C579.141 578.543 589.32 579.015 599.461 579.213C615.372 579.524 631.298 579.31 647.219 579.31C658.094 579.31 668.974 579.31 679.848 579.277C689.704 579.251 699.565 579.819 709.415 579.197C716.392 578.758 723.374 578.934 730.356 578.913C740.125 578.886 749.857 578.061 759.653 578.313C776.712 578.741 793.781 579.149 810.845 579.122C817.935 579.111 824.976 579.647 832.071 579.567C841.911 579.454 851.745 580.307 861.633 579.851C868.426 579.54 874.271 577.986 878.988 574.142C879.101 574.051 879.215 573.96 879.333 573.869C880.277 573.869 881.226 573.837 882.169 573.751C883.932 573.59 885.744 573.402 887.469 572.958C889 572.566 890.52 571.955 891.885 571.173C893.691 570.133 894.995 568.878 896.182 567.292C896.462 567.292 896.683 567.292 896.796 567.302C898.128 567.302 898.656 567.367 899.152 567.292C901.557 566.911 904.511 567.308 905.412 564.724C906.873 560.527 905.617 556.871 901.675 553.789L901.67 553.783Z" fill="#F5F0E8"/>
<path d="M1058.57 612.559C1058.38 609.853 1057.86 607.309 1057.15 604.718C1054.99 596.902 1053.13 589.003 1050.89 581.212C1049.45 576.217 1047.16 572.012 1041.54 570.029C1029.58 565.813 1017.3 563.754 1004.69 563.161C994.595 562.687 984.583 563.247 974.661 565.015C974.564 565.152 974.413 565.263 974.197 565.324C972.303 565.846 970.273 565.673 968.35 566.011C968.253 566.162 968.102 566.277 967.89 566.32C967.815 566.334 967.736 566.349 967.66 566.363C965.313 566.737 963.15 567.969 960.764 568.027C959.481 568.498 958.191 568.9 956.814 568.925C956.142 569.159 955.467 569.374 954.78 569.561C947.697 571.484 943.493 575.998 942.088 583.242C941.653 585.488 940.693 587.634 939.975 589.822C939.921 589.822 939.867 589.83 939.813 589.833C939.543 590.775 939.292 591.723 939.073 592.679C939.443 593.923 938.889 595.317 938.282 596.514C937.959 597.761 937.509 599.001 937.157 600.262C937.168 600.442 937.161 600.636 937.125 600.859C937.064 601.247 936.949 601.523 936.805 601.735C936.694 602.328 936.622 602.925 936.618 603.532C936.614 603.971 936.338 604.391 935.896 604.47C935.896 604.47 935.896 604.477 935.892 604.477C936.18 604.891 936.172 605.552 935.784 606.526C933.563 612.107 936.331 615.603 940.675 618.665C943.166 620.422 945.883 621.651 948.574 622.942C957.479 627.204 966.535 631.218 976.357 632.727C994.027 635.44 1011.42 634.226 1028.29 627.919C1037.72 624.397 1047.39 621.468 1056.24 616.505C1057.89 615.578 1058.71 614.726 1058.57 612.552V612.559ZM948.272 574.693C951.413 572.152 955.122 570.69 958.999 569.781C968.72 567.502 978.517 565.662 988.489 564.807C992.571 564.455 996.632 564.764 999.532 564.613C1009.81 565.019 1018.96 565.357 1027.84 567.646C1032.71 568.9 1037.47 570.589 1042.22 572.26C1044.75 573.151 1046.1 575.53 1047.71 577.503C1048.52 578.502 1047.95 579.462 1047.35 580.436C1045.39 583.587 1042.58 585.582 1039.14 586.822C1029.85 590.171 1020.16 591.238 1010.4 591.932C992.855 593.182 975.721 590.717 958.924 585.783C955.176 584.683 951.453 583.21 948.337 580.623C945.778 578.502 945.674 576.788 948.269 574.689L948.272 574.693ZM1053.72 615.628C1040.23 621.77 1026.67 627.851 1012.01 630.38C998.867 632.648 985.445 633.794 972.361 630.075C961.741 627.056 951.467 622.888 941.822 617.422C937.082 614.737 936.079 612.067 937.376 606.612C939.335 598.372 941.484 590.178 943.568 581.97C943.935 580.526 944.38 579.559 946.084 580.996C950.346 584.59 955.445 586.689 960.703 588.234C979.472 593.754 998.591 595.565 1018.06 593.139C1024.76 592.302 1031.46 591.565 1037.95 589.431C1042.26 588.011 1045.91 585.837 1049.14 581.87C1050.58 587.562 1051.85 592.737 1053.21 597.887C1054.36 602.238 1055.98 606.472 1056.33 611.018C1056.5 613.174 1056.17 614.518 1053.73 615.628H1053.72Z" fill="#463931"/>
<path d="M976.59 607.385C975.426 606.271 974.265 605.44 973.467 604.344C971.681 601.883 972.745 599.673 975.742 599.364C978.48 599.08 980.496 600.463 982.189 602.371C983.066 603.36 983.853 604.183 985.326 604.294C993.595 604.912 1001.84 604.531 1010.1 604.017C1012.06 603.895 1013.21 602.745 1014.33 601.444C1016.33 599.101 1018.72 597.38 1021.76 596.665C1024.03 596.129 1025.07 597.114 1024.57 599.414C1024.07 601.685 1022.58 603.428 1021.25 605.261C1021.46 606.339 1022.59 606.148 1023.2 606.669C1025.59 608.693 1026.48 611.64 1025.26 613.753C1023.69 616.459 1019.9 618.076 1017.53 615.973C1012.85 611.848 1007.82 613.041 1002.58 613.275C996.916 613.53 991.292 612.153 985.589 612.218C983.759 612.24 982.315 612.639 980.885 613.789C978.858 615.416 976.522 616.459 973.809 616.247C972.328 616.132 971.117 615.603 970.542 614.08C969.953 612.52 970.696 611.481 971.696 610.36C972.971 608.93 974.682 608.326 976.594 607.385H976.59ZM1017.06 606.788C1019.72 604.635 1022.03 603.018 1022.92 600.24C1023.11 599.63 1023.4 599.001 1022.93 598.408C1022.4 597.75 1021.75 598.12 1021.15 598.282C1018.46 599.015 1016.27 600.496 1014.74 602.831C1013.66 604.499 1012.2 605.193 1010.23 605.34C1001.77 605.976 993.311 606.077 984.838 605.538C983.271 605.437 982.322 604.822 981.452 603.579C980.46 602.163 979.116 600.988 977.338 600.675C976.224 600.478 974.887 600.09 974.096 601.351C973.244 602.709 974.373 603.539 975.167 604.366C975.835 605.06 976.558 605.732 977.352 606.267C978.761 607.216 978.444 607.895 977.133 608.513C975.875 609.106 974.552 609.588 973.359 610.288C972.184 610.975 971.394 612.031 971.857 613.515C972.357 615.118 973.83 615.172 975.056 615.039C977.586 614.759 979.803 613.573 981.413 611.604C982.3 610.518 983.21 610.303 984.475 610.414C992.377 611.111 1000.28 611.884 1008.24 611.309C1011.14 611.097 1014.07 610.853 1016.27 613.494C1017.3 614.719 1018.92 614.881 1020.41 615.061C1023.29 615.416 1024.91 613.03 1023.86 610.303C1022.76 607.457 1020.31 607.183 1017.05 606.788H1017.06Z" fill="#463931"/>
<path d="M1001.03 570.776C1001.44 567.251 1003.37 566.819 1006.09 567.639C1007.83 568.163 1009.61 568.562 1011.36 569.055C1011.87 569.198 1012.47 569.342 1012.81 569.694C1016.43 573.489 1021.12 575.814 1026.68 575.548C1030.05 575.387 1031.88 576.634 1033.31 579.412C1033.67 580.098 1033.9 582.013 1035.43 581.101C1036.95 580.202 1038.95 579.731 1039.67 577.891C1040.04 576.946 1038.92 576.378 1038.26 575.994C1036.32 574.873 1034.33 573.823 1032.04 573.46C1030.2 573.166 1028.29 573.335 1026.56 572.275C1025.94 571.89 1024.89 571.606 1024.25 572.576C1024.02 572.925 1023.46 573.471 1023.41 573.169C1022.65 568.839 1018.94 572.253 1017.12 570.74C1016.58 570.302 1015.55 570.37 1015.72 569.321C1015.86 568.483 1016.58 568.48 1017.24 568.566C1024.79 569.536 1032.41 570.291 1039.25 574.068C1043.13 576.21 1043.23 578.944 1039.39 581.334C1033.94 584.723 1027.8 586.01 1021.52 586.965C1008.28 588.978 995.048 588.787 981.848 587.055C976.878 586.405 971.962 585.248 966.953 584.712C966.288 584.64 965.325 584.763 965.99 582.987C966.687 581.119 963.841 581.205 962.55 580.745C961.498 580.367 959.927 580.698 959.514 582.337C959.481 582.463 960.153 582.675 959.787 582.976C958.863 583.728 953.965 582.003 952.7 580.576C951.155 578.833 951.92 577.072 953.311 576.12C954.849 575.067 956.499 574.064 958.317 573.32C969.457 568.764 981.148 568.792 992.863 568.835C994.793 568.843 996.73 568.814 998.656 568.731C999.989 568.674 1000.89 569.019 1001.03 570.787L1001.03 570.776ZM1009.95 579.135C1009.42 577.776 1010.23 577.022 1010.53 576.145C1012.3 570.887 1011.88 570.165 1006.36 569.436C1005.39 569.31 1004.28 568.544 1003.36 569.626C1001.98 571.25 1003.01 578.571 1004.77 579.652C1004.85 579.706 1004.98 579.753 1005.07 579.724C1008.24 578.797 1011.44 582.013 1014.69 579.566C1015.53 578.934 1016.94 578.987 1018.1 578.876C1019.28 578.765 1020.37 578.657 1021.06 577.281C1019 576.371 1017.06 574.855 1015.1 574.826C1012.83 574.79 1012.17 577.953 1009.95 579.135H1009.95ZM1001.1 578.869C998.699 580.195 997.165 579.864 995.767 578.319C995.213 577.708 994.804 576.404 993.592 577.737C992.302 579.156 990.861 580.439 989.521 581.816C988.644 582.714 987.915 583.771 989.201 584.816C990.279 585.69 991.627 586.592 992.831 585.082C994.099 583.49 995.846 582.984 997.61 582.297C998.969 581.769 1000.16 580.777 1001.38 579.925C1002.02 579.476 1002.64 578.635 1001.89 578.06C1000.31 576.849 998.674 575.448 996.094 576.048C997.272 577.891 998.724 578.693 1001.09 578.869H1001.1ZM995.131 585.934C999.605 587.016 1008.11 586.908 1011.9 585.722C1009.43 580.447 1000.57 580.562 995.131 585.934ZM988.716 570.762C988.299 570.787 987.084 571.103 985.97 570.891C983.297 570.381 983.8 572.821 983.555 573.82C983.185 575.34 984.925 574.765 985.801 574.937C987.361 575.243 988.989 575.282 990.491 575.75C991.745 576.138 992.687 576.256 993.607 575.157C994.498 574.093 994.965 572.857 994.516 571.62C994.06 570.37 992.683 570.909 991.691 570.783C990.962 570.69 990.207 570.765 988.716 570.765V570.762ZM986.743 582.049C986.405 582.301 986.208 582.394 986.085 582.552C985.219 583.674 985.532 582.603 985.586 582.269C985.794 580.968 986.84 580.353 987.778 579.627C988.349 579.185 989.115 578.732 988.856 577.827C988.608 576.968 987.724 576.9 987.027 576.734C983.523 575.89 981.399 578.046 981.029 582.596C980.896 584.205 981.55 584.971 983.009 585.334C985.615 585.981 986.833 584.921 986.743 582.049ZM1019.86 580.461C1018.55 580.716 1017.03 580.856 1015.64 581.345C1014.66 581.686 1012.92 581.755 1013.24 583.321C1013.54 584.791 1014.91 585.503 1016.47 585.391C1018.39 585.251 1020.31 585.036 1022.22 584.82C1023.19 584.712 1024.26 584.565 1024.38 583.325C1024.5 582.06 1023.6 581.331 1022.58 580.928C1021.81 580.623 1020.91 580.63 1019.86 580.461H1019.86ZM1028.02 583.803C1029.35 583.059 1031.28 583.728 1031.8 582.01C1032.2 580.659 1029.25 577.762 1027.72 577.845C1026.59 577.906 1024.54 578.589 1024.98 579.167C1026.09 580.608 1025.68 583.196 1028.02 583.807L1028.02 583.803ZM967.276 580.871C968.962 582.732 970.866 584.17 973.525 584.231C974.402 584.252 975.02 584.17 974.733 583.002C973.817 579.289 970.259 578.258 967.276 580.874V580.871ZM974.611 578.244C974.923 576.425 977.094 576.803 978.104 575.577C978.366 575.261 978.485 574.592 977.96 574.495C976.249 574.179 974.474 573.381 972.879 574.901C972.167 575.577 972.429 576.274 972.728 576.953C973.03 577.633 973.371 578.355 974.607 578.244H974.611ZM978.377 584.683C980.113 581.924 976.875 581.205 976.627 579.361C976.627 579.35 975.958 579.311 975.879 579.447C974.747 581.381 977.22 582.021 977.396 583.526C977.435 583.861 977.903 584.144 978.373 584.683H978.377Z" fill="#463931"/>
<path d="M1343.91 279.361C1343.79 283.301 1342.9 287.17 1343.16 291.171C1343.34 293.944 1344.05 296.526 1344.77 299.144C1344.9 299.59 1344.9 300.119 1345.56 300.15C1346.29 300.188 1346.63 299.66 1346.79 299.125C1349.27 291.077 1353.96 284.187 1359.46 278.14C1366.06 270.883 1373.33 263.911 1384.12 263.374C1390.14 263.077 1395.86 264.357 1401.04 267.517C1402.62 268.481 1404.25 269.226 1405.7 270.68C1408.97 273.977 1409.23 277.844 1409.19 281.944C1409.12 288.905 1409.27 295.894 1407.71 302.743C1407.17 305.137 1409.1 305.917 1410.34 307.011C1415.31 311.398 1415.91 317.243 1416.36 323.318C1417.05 332.836 1412.88 340.027 1406.4 346.439C1403.49 349.311 1400.75 352.323 1397.62 354.986C1395.15 357.1 1392.21 358.397 1389.2 358.741C1383.17 359.432 1377.02 360.052 1371.13 357.692C1369.07 356.872 1366.87 356.349 1365.01 355.064C1363.82 354.234 1362.49 353.813 1361.09 353.399C1359.73 352.996 1359.36 353.088 1359.04 354.488C1358.03 359.02 1357.21 363.607 1355.46 367.951C1353.15 373.657 1352.37 379.781 1350.94 385.71C1350.2 388.733 1349.62 391.773 1348.57 394.717C1348.27 395.566 1348.34 396.386 1348.95 397.378C1351.86 402.131 1350.35 409.004 1345.79 412.112C1344.72 412.835 1343.47 413.35 1341.98 412.623C1340.68 411.995 1339.93 411.988 1339.35 414.094C1337.63 420.38 1336.34 426.892 1332.65 432.482C1330.97 435.02 1328.97 436.728 1325.55 436.263C1323.74 436.019 1322.42 435.099 1322.27 433.711C1321.83 429.489 1320.51 425.099 1324.69 421.544C1326.58 419.934 1326.55 416.782 1328.28 414.794C1331.27 411.357 1331.49 407.474 1330.95 403.079C1330.66 400.707 1331.45 397.947 1333.87 396.036C1335.83 394.489 1336.61 392.151 1336.92 389.468C1337.76 382.267 1340.46 375.428 1341.33 368.201C1341.97 362.921 1344.51 358.117 1345.44 352.923C1346.11 349.137 1347.03 345.518 1348.91 342.157C1349.76 340.639 1349.33 339.168 1348.61 337.745C1346.36 333.302 1344.13 328.819 1343.51 323.805C1343.08 320.348 1342.4 316.758 1342.9 313.388C1343.32 310.548 1342.07 308.556 1341.23 306.325C1339.19 300.974 1337.56 295.444 1337.02 289.832C1336.55 284.902 1337 279.86 1338.43 274.86C1340.02 269.305 1342.67 264.602 1346.37 260.312C1349.28 256.937 1351.42 253.026 1353.35 249.072C1354.94 245.799 1355.02 242.04 1354.83 238.43C1354.4 230.309 1354.26 222.123 1353.07 214.099C1352.18 208.002 1351.3 201.866 1350.08 195.784C1347.98 185.351 1349.47 175.254 1356.76 166.937C1360.92 162.197 1366.6 160.337 1373 159.776C1380.1 159.148 1384.96 162.888 1389.5 167.134C1393.09 170.488 1394.22 175.166 1394.04 180.115C1393.83 185.54 1394.06 190.981 1392.67 196.317C1391.22 201.869 1389.5 207.329 1386.07 211.987C1384.45 214.198 1383.54 216.732 1382.38 219.096C1379.54 224.882 1375.69 229.952 1372.3 235.35C1368.65 241.15 1363.57 245.814 1360.26 251.786C1357.25 257.203 1353.53 262.179 1350.73 267.764C1348.73 271.75 1346.17 275.519 1343.92 279.415C1343.58 278.602 1343.96 277.864 1344.24 277.18C1346.24 272.275 1348.56 267.287 1351.38 263.07C1356.27 255.736 1360.45 247.887 1366.01 240.995C1366.79 240.032 1367.74 239.186 1368.39 238.145C1373.31 230.165 1378.26 222.203 1383.02 214.125C1385.53 209.866 1387.4 205.302 1388.92 200.552C1389.93 197.417 1390.31 194.192 1390.71 191.06C1391.43 185.378 1392.71 179.561 1390.32 173.858C1387.41 166.93 1379.21 162.826 1371.77 163.194C1366.03 163.475 1362.01 166.223 1358.01 169.75C1353.18 174.002 1351.09 179.334 1351.54 185.582C1351.96 191.58 1352.84 197.543 1353.48 203.523C1353.86 207.041 1353.84 210.643 1354.64 214.054C1355.33 216.976 1355.58 219.929 1356.05 222.856C1357.17 229.862 1356.18 236.953 1356.29 244.293C1357.84 242.337 1357.87 242.084 1358.08 240.44C1359.37 230.481 1358.36 220.643 1357.02 210.755C1355.66 200.809 1355.92 190.987 1358.72 181.099C1360.76 173.893 1365.98 171.158 1371.89 168.905C1375.89 167.376 1379.83 168.597 1383.63 170.49C1385.36 171.348 1386.84 172.122 1387.17 174.075C1387.47 175.781 1388.28 177.287 1388.71 178.92C1389.34 181.341 1389.79 183.775 1389.1 186.318C1387.54 191.972 1385.02 197.219 1382.42 202.423C1379.66 207.957 1376.4 213.271 1373.98 218.947C1370.8 226.386 1367.36 233.599 1362.07 239.796C1361.81 240.088 1361.6 240.413 1361.38 240.739C1356.95 247.493 1352.53 254.259 1348.11 261.014C1345.69 264.701 1342.46 267.734 1340.94 272.146C1339.1 277.505 1337.68 283.274 1338.63 288.418C1340 295.883 1340.25 303.909 1345.91 310.424C1348.13 312.989 1350.44 316.083 1352.1 319.369C1353.19 321.52 1355.6 322.606 1357.33 324.225C1360.69 327.381 1363.9 331.096 1369.28 331.329C1371.11 331.411 1373.07 331.638 1374.93 331.781C1379.03 332.093 1383.25 332.487 1387.22 330.996C1395.37 327.936 1399.99 321.226 1403.67 313.943C1406.83 307.69 1405.56 300.49 1406.87 293.795C1407.81 289.015 1407.2 284.212 1406.1 279.401C1405.17 275.329 1402.44 271.766 1398.41 271.074C1397.53 270.919 1396.19 269.851 1395.71 271.191C1395.31 272.285 1395.21 273.831 1396.85 274.604C1399.04 275.629 1400.01 277.731 1400.66 279.812C1401.98 284.056 1403.29 288.27 1404.07 292.724C1405.32 299.864 1403.5 306.237 1401.32 312.746C1401 313.71 1400.51 314.451 1399.98 315.247C1395.93 321.384 1390.07 325.343 1383.5 328.123C1375.35 331.574 1367.78 330.062 1361.06 324.296C1360.44 323.767 1360.19 323.138 1360.8 322.586C1362.24 321.27 1362.15 321.307 1362.25 319.628C1362.54 314.529 1362.16 309.249 1365.03 304.671C1368.04 299.865 1371.08 294.705 1377.1 293.449C1380.18 292.808 1383.45 292.736 1386.74 292.079C1385 290.811 1383.35 290.497 1381.3 290.536C1376.56 290.629 1372.47 292.477 1369.54 295.718C1364.08 301.767 1359.15 308.319 1357.8 316.761C1355.67 315.437 1356.56 313.58 1357 311.87C1357.68 309.251 1359.33 307.075 1360.6 304.746C1364.38 297.787 1368.48 291.434 1376.89 288.747C1381.98 287.121 1391.85 289.938 1395.02 293.903C1395.76 294.827 1396.51 295.663 1397.45 296.301C1398.44 296.967 1399.31 298.462 1400.7 297.649C1402.11 296.83 1402.08 295.214 1401.91 293.741C1401.23 287.735 1400.67 281.672 1396.31 276.911C1394.13 274.532 1392.54 271.457 1389.25 270.315C1387.65 269.757 1385.82 269.45 1384.32 270.383C1376.93 274.977 1371.14 281.316 1365.71 287.989C1362.37 292.094 1359.33 296.396 1357.18 301.298C1355.38 305.402 1354.44 309.735 1353.26 314.009C1352.7 316.039 1354.67 316.268 1355.57 317.237C1356.63 318.364 1357.21 317.49 1357.77 316.631C1358.42 318.56 1359.07 320.484 1359.91 323.014C1356.42 319.895 1352.89 317.85 1350.86 314.051C1348.92 310.416 1347.04 306.738 1345.08 303.121C1341.96 297.347 1341.09 291.329 1341.68 285.027C1341.86 283.074 1342.22 280.889 1343.9 279.388L1343.91 279.361ZM1381.24 171.246C1378.89 170.211 1376.26 170.388 1373.93 170.749C1363.73 172.333 1360.8 178.873 1359.37 187.151C1359.07 188.815 1359.15 190.687 1359.01 192.455C1358.39 199.969 1357.7 207.438 1359.13 214.988C1360.01 219.675 1360.83 224.411 1360.82 229.26C1360.82 232.139 1360.26 234.863 1359.77 237.637C1359.69 238.089 1359.15 238.841 1360.11 239.027C1360.68 239.138 1361.36 239.078 1361.5 238.336C1362.11 234.913 1364.68 232.487 1366.01 229.467C1369.33 221.966 1372.77 214.478 1377.21 207.622C1381.63 200.78 1384.54 193.481 1386.25 185.666C1386.97 182.345 1388.26 178.805 1385.92 175.428C1384.69 173.654 1382.98 172.565 1381.26 171.248L1381.24 171.246ZM1371.28 298.961C1369.52 301.285 1368.36 303.27 1367.13 305.215C1363.3 311.269 1362.84 317.482 1365.15 324.133C1365.74 325.848 1367.01 326.659 1368.4 327.026C1375.3 328.824 1381.57 326.43 1387.66 323.608C1391.2 321.966 1394.1 319.149 1396.73 316.374C1402.44 310.341 1402.82 305.354 1397.56 299.731C1393.8 295.701 1388.16 293.685 1382.73 294.341C1378.62 294.835 1373.07 293.753 1371.27 298.953L1371.28 298.961ZM1400.66 322.751C1397.98 326.917 1394.57 330.455 1390.05 332.451C1384.24 335.011 1378.06 334.09 1372 333.389C1369.67 333.117 1367.26 332.927 1365.22 331.308C1364.17 330.467 1363.24 331.144 1363 332.529C1362.48 335.698 1361.79 338.848 1361.43 342.037C1360.7 348.559 1361.35 349.295 1367.74 351.012C1372.13 352.185 1376.54 350.893 1380.88 351.375C1384.95 351.828 1388.79 351.559 1392.27 349.4C1395.47 347.423 1398.48 345.371 1400.46 341.796C1402.5 338.113 1405.08 334.718 1406.49 330.692C1407.82 326.884 1408.48 323.026 1407.62 318.928C1407.34 317.612 1406.52 316.653 1405.82 316.419C1404.61 316.024 1404.4 317.456 1403.89 318.392C1403.02 319.962 1401.75 321.308 1400.66 322.748L1400.66 322.751ZM1346.04 396.651C1346.6 395.685 1347.39 394.907 1347.74 393.701C1348.79 390.073 1349.42 386.378 1350.09 382.675C1351.75 373.613 1354.96 364.895 1356.22 355.736C1356.38 354.62 1356.44 353.125 1357.15 352.529C1358.69 351.229 1357.76 350.481 1356.98 349.553C1355.46 347.739 1353.9 345.968 1352.4 344.134C1351.26 342.738 1350.77 343.272 1350.13 344.62C1347.24 350.751 1345.91 357.423 1344.1 363.841C1341.39 373.412 1340.11 383.401 1338.42 393.243C1337.89 396.322 1340.86 397.094 1342.79 398.348C1344.61 399.53 1345.15 397.646 1346.05 396.658L1346.04 396.651ZM1395.22 267.204C1393.6 266.782 1391.85 266.598 1390.37 265.878C1388.05 264.754 1385.65 264.551 1383.38 265.237C1379.29 266.481 1375.37 268.254 1371.73 270.516C1365.78 274.224 1360.37 278.313 1356.88 284.846C1353.77 290.65 1350.68 296.367 1348.67 302.653C1348.04 304.617 1348.47 306.34 1349.24 308.09C1349.56 308.818 1349.6 309.912 1350.66 309.896C1351.82 309.878 1351.74 308.789 1351.99 307.98C1354.37 300.482 1357.92 293.672 1362.98 287.551C1367.44 282.166 1371.74 276.653 1377.09 272.119C1381.41 268.461 1385.98 265.389 1392.08 268.424C1393.05 268.905 1394.65 269.176 1395.21 267.205L1395.22 267.204ZM1407.65 308.02C1407.12 310.287 1406.28 312.137 1407.8 314.492C1409.24 316.718 1410.27 319.324 1410.43 322.196C1411.01 332.092 1405.9 339.41 1399.59 346.074C1398.02 347.736 1396.29 349.46 1394.17 350.647C1389.8 353.092 1384.98 353.914 1380.16 354.159C1377.14 354.314 1374.13 354.867 1370.98 354.41C1367.17 353.852 1364.17 351.783 1360.85 350.283C1365.58 354.757 1371.34 356.786 1377.7 357.54C1387.31 358.669 1394.9 354.368 1401.72 348.451C1407.42 343.503 1411.46 337.396 1413.21 329.845C1414.35 324.943 1413.82 320.234 1413.02 315.385C1412.46 311.939 1410.81 309.684 1407.65 308.025L1407.65 308.02ZM1324.29 424.03C1323.07 424.248 1323.22 425.148 1323.03 425.862C1322.49 427.784 1323.97 429.349 1323.9 431.212C1323.8 434.154 1325.88 435.397 1328.53 434.022C1331.7 432.378 1332.87 429.104 1333.96 426.183C1335.94 420.849 1337.27 415.267 1338.78 409.762C1338.97 409.07 1339.7 408 1338.68 407.46C1337.75 406.97 1336.86 407.144 1335.84 407.99C1331.65 411.489 1330.04 416.708 1326.93 420.915C1326.72 421.198 1326.78 421.964 1327.02 422.24C1327.66 422.999 1328.26 422.155 1328.78 421.915C1330.69 421.031 1332.88 421.489 1333 423.088C1333.1 424.374 1332.4 425.656 1332.03 426.926C1331.32 429.447 1329.25 429.51 1327.49 429.582C1325.87 429.642 1325.5 427.985 1325.22 426.549C1325.05 425.667 1324.6 424.837 1324.29 424.017L1324.29 424.03ZM1357.06 328.226C1356.77 329.199 1356.76 330.187 1356.26 330.742C1353.96 333.289 1354.71 336.887 1353.08 339.669C1352.81 340.13 1353.19 341.466 1353.67 341.78C1355.53 343.002 1356.76 345.139 1359.06 345.889C1360.05 341 1359.49 336.057 1362.28 331.872C1362.56 331.46 1362.66 330.547 1361.85 330.615C1359.79 330.789 1358.96 328.79 1357.07 328.221L1357.06 328.226ZM1352.23 322.737C1351.18 322.042 1350.57 321.23 1349.43 321.358C1348.47 321.467 1347.73 321.51 1348.07 322.879C1349.02 326.644 1349.87 330.441 1350.78 334.216C1350.89 334.668 1350.65 335.52 1351.56 335.326C1352.15 335.201 1352.76 335.105 1352.88 334.12C1353.05 332.627 1353.22 330.929 1354.02 329.762C1356.38 326.349 1353.91 324.592 1352.23 322.737ZM1337.73 400.816C1337.55 401.048 1337.37 401.269 1337.2 401.508C1336.27 402.833 1336.36 404.208 1337.13 405.529C1337.99 407.032 1338.64 405.253 1339.44 405.291C1340.62 405.347 1341.48 405.915 1341.71 406.987C1341.89 407.805 1341.74 408.22 1342.83 407.715C1345 406.708 1345.25 404.605 1345.62 402.768C1345.9 401.384 1344.94 399.966 1343.38 399.785C1341.44 399.56 1339.27 398.729 1337.72 400.817L1337.73 400.816ZM1348.12 334.08C1348.51 333.578 1348.86 333.318 1348.83 333.127C1347.98 328.048 1347.04 322.99 1346.65 317.844C1346.6 317.214 1347.16 315.526 1345.51 315.833C1344.37 316.046 1344.4 317.487 1344.52 318.254C1345.34 323.548 1345.21 329.077 1348.13 334.075L1348.12 334.08ZM1346.99 407.834C1348.72 406.368 1348.63 403.905 1349.35 401.78C1349.71 400.719 1348.93 399.783 1348.22 398.992C1348.08 398.829 1347.57 398.726 1347.48 398.827C1346.64 399.681 1347.64 400.383 1347.69 401.171C1347.75 401.909 1347.67 402.72 1347.41 403.405C1346.56 405.698 1345.59 407.953 1343.33 409.276C1342.78 409.595 1342.27 409.997 1342.65 410.587C1343.02 411.166 1343.66 410.817 1344.19 410.579C1345.38 410.043 1346.18 409.102 1346.99 407.826L1346.99 407.834ZM1336.98 396.278C1333.58 397.917 1333.32 401.05 1332.79 404.017C1332.61 405.003 1333.66 405.994 1334.04 406.013C1335.06 406.071 1334.9 405.052 1334.85 404.262C1334.71 401.408 1334.97 398.653 1336.98 396.274L1336.98 396.278Z" fill="#605046"/>
<path d="M33.7708 588.614C38.1548 587.183 42.5277 585.533 46.9117 584.012C48.5169 583.445 48.6719 582.322 48.5944 580.354C48.218 569.658 47.0445 559.29 46.646 548.574C45.9043 528.733 44.8525 508.981 43.978 489.169C42.4945 455.431 41.1328 421.693 39.5718 387.975C38.8412 372.229 37.4905 356.513 36.2949 340.737C35.4203 329.197 35.1546 317.636 34.5568 306.085C33.6933 289.256 32.5641 272.367 31.9331 255.547C31.3463 239.782 29.8518 223.897 29.11 208.091C28.8443 202.445 28.4237 196.699 27.6819 190.914C27.2502 187.534 27.6709 184.264 27.6044 180.914C27.3609 167.514 26.9734 154.114 26.0103 140.526C25.6671 135.675 25.3903 130.843 25.025 125.983C24.8257 123.358 25.8221 122.623 27.9144 123.169C38.5976 125.913 49.2476 127.305 59.9862 130.496C67.6471 132.762 75.2747 134.213 82.8803 135.267C91.8697 136.5 100.848 137.315 109.871 138.816C122.214 140.863 134.547 143.349 146.88 144.611C161.737 146.142 176.594 148.687 191.45 151.102C207.802 153.786 224.02 158.876 240.327 163.687C243.339 164.582 246.339 165.526 249.35 166.44C251.619 167.136 252.405 168.25 252.45 170.188C252.704 181.033 251.199 191.272 250.468 201.799C249.826 211.034 249.571 220.368 248.553 229.493C247.368 240.1 246.638 250.825 245.896 261.541C245.409 268.609 245.287 275.726 244.7 282.774C244.302 287.665 243.815 292.546 243.66 297.476C243.394 305.906 243.15 314.335 242.265 322.695C240.117 343.163 239.353 363.65 237.405 384.148C236.497 393.73 236.287 403.204 235.512 412.757C234.836 421.156 234.847 429.437 233.851 437.876C232.545 449.03 232.301 459.914 231.194 471.028C230.818 474.756 230.209 478.563 229.855 482.3C229.611 484.875 229.6 487.38 229.489 489.905C229.434 491.177 230.22 491.088 231.249 490.74C231.803 490.551 232.821 489.736 232.733 490.81C232.655 491.724 231.703 491.893 231.106 492.112C229.954 492.519 229.212 493.116 229.046 494.488C228.914 495.561 228.26 496.167 227.209 496.545C222.271 498.325 217.323 500.313 212.374 502.44C210.171 503.384 207.979 505.124 205.754 505.879C204.724 506.227 203.816 506.575 203.606 505.352C203.418 504.299 202.565 504.826 201.768 505.263C192.624 510.263 183.513 515.233 174.413 519.488C173.438 519.945 172.464 520.542 171.49 520.999C171.014 521.218 170.283 521.645 170.438 520.671C170.549 519.935 171.18 519.756 171.612 519.528C174.867 517.758 178.132 516.048 181.387 514.339C188.306 510.71 195.214 507.351 202.145 503.305C203.119 502.738 203.706 502.291 203.695 500.969C203.595 493.871 204.591 486.267 204.514 479.159C204.414 470.491 205.289 461.445 205.222 452.737C205.178 447.638 205.875 442.24 206.219 437.001C206.706 429.735 207.204 422.488 207.591 415.252C208.012 407.568 208.687 399.824 208.765 392.229C208.92 377.627 210.381 362.805 210.492 348.203C210.581 335.976 211.256 323.68 212.042 311.413C212.629 302.307 212.23 293.222 212.883 284.116C213.271 278.729 213.979 273.371 213.979 267.983C213.979 249.464 215.341 231.004 216.215 212.545C216.625 203.787 216.138 194.86 216.968 186.152C216.968 186.083 216.968 186.013 216.968 185.934C216.902 181.848 216.182 181.013 211.61 180.099C203.196 178.449 194.783 177.077 186.369 175.844C177.49 174.542 168.589 173.727 159.733 172.305C150.234 170.775 140.736 169.85 131.237 168.707C121.074 167.474 110.9 166.669 100.737 165.486C95.7001 164.9 90.6519 163.935 85.6148 163.061C76.2268 161.42 66.9053 161.033 57.5506 159.552C55.8125 159.273 55.0154 160.029 55.1372 161.937C55.8457 173.657 55.8789 185.268 56.7535 197.008C57.4842 206.779 57.8163 216.511 58.0045 226.223C58.3809 244.841 60.1965 263.49 60.7832 282.059C61.1043 292.108 61.0489 302.178 61.4585 312.238C61.835 321.662 62.6985 331.055 63.1302 340.459C63.8277 355.589 64.1819 370.758 65.0122 385.848C65.7983 400.4 65.8093 415.103 66.7725 429.586C67.4921 440.57 67.5474 451.713 68.5106 462.608C69.1305 469.557 68.8316 476.863 69.3852 483.841C70.3594 495.998 70.2929 508.524 71.2007 520.671C71.5329 525.144 71.3557 529.896 71.5771 534.458C72.0089 543.425 72.3964 552.401 72.7838 561.377C72.8835 563.664 73.0495 565.94 73.0053 568.286C72.9499 570.93 73.6474 571.705 75.5294 570.791C79.2491 568.982 82.9689 567.491 86.6886 565.741C91.4269 563.505 96.154 560.821 100.859 558.027C113.535 550.502 126.233 543.415 138.92 536.337C148.463 531.019 157.995 526.148 167.516 521.287C168.18 520.949 169.232 520.134 169.176 521.327C169.121 522.5 168.069 522.858 167.427 523.156C159.965 526.496 152.448 531.108 144.965 534.617C142.086 535.959 139.119 538.027 136.186 539.697C126.986 544.946 117.775 550.164 108.575 555.562C102.929 558.872 97.2943 562.262 91.6483 565.214C86.4008 567.958 81.1533 570.433 75.9058 572.888C74.688 573.465 73.4481 573.952 73.7691 576.507C73.9241 577.759 73.0938 578.157 72.4407 578.545C66.6064 582.044 60.7722 585.125 54.8826 587.054C53.5984 587.471 52.292 588.346 51.0189 589.191C49.7679 590.036 49.0594 589.578 48.9598 587.819C48.8269 585.483 47.8638 585.692 46.6238 586.199C42.3727 587.948 38.1326 589.519 33.8815 591C33.8372 590.215 33.804 589.419 33.7597 588.634L33.7708 588.614ZM249.859 184.174C250.18 179.641 250.49 175.864 250.678 172.047C250.723 171.192 251.143 169.91 249.56 169.393C248.221 168.955 247.247 169.681 246.937 170.794C246.782 171.361 246.759 171.987 246.737 172.604C246.405 179.81 246.084 187.007 245.719 194.184C244.922 209.851 243.781 225.427 243.25 241.114C243.228 241.75 243.261 242.495 242.342 242.426C241.268 242.336 241.169 241.521 241.191 240.815C241.324 234.225 241.977 227.734 241.944 221.093C241.922 216.988 242.243 212.873 242.652 208.807C243.25 202.882 243.826 196.928 243.649 190.775C243.471 184.751 243.804 178.836 244.269 172.961C244.39 171.391 243.87 171.073 242.22 171.441C236.408 172.763 231.039 174.95 225.626 177.246C224.662 177.653 224.297 178.329 224.275 179.343C224.22 182.703 224.098 186.053 224.031 189.383C223.899 196.391 223.566 203.35 223.046 210.278C222.138 222.594 222.326 235.05 221.552 247.376C221.064 255.259 221.264 263.231 220.832 271.114C220.456 278.192 220.301 285.269 219.703 292.337C218.695 304.166 219.271 315.966 218.662 327.755C217.854 343.59 216.747 359.475 216.426 375.231C216.326 380.42 215.651 385.708 215.319 390.937C214.776 399.357 215.241 407.508 214.5 415.987C213.215 430.759 212.075 445.59 211.61 460.173C211.344 468.423 210.271 477.002 210.614 484.984C210.802 489.458 210.082 494.289 210.116 498.802C210.138 501.466 210.47 501.565 213.06 500.412C216.249 499 219.448 497.629 222.625 496.525C223.932 496.068 224.485 495.521 224.541 494.199C224.629 491.973 224.806 489.726 224.806 487.529C224.795 484.149 225.138 480.62 225.371 477.141C225.404 476.545 225.482 475.69 226.212 475.402C227.319 474.974 226.832 476.167 226.81 476.704C226.589 482.281 226.312 487.877 226.035 493.454C226.002 494.02 225.592 494.994 226.434 494.756C227.386 494.497 227.364 493.662 227.397 492.986C227.651 487.738 228.227 482.39 228.747 477.062C230.043 463.751 230.563 450.66 231.914 437.359C233.131 425.321 233.707 413.413 234.515 401.434C234.958 394.903 235.279 388.382 235.844 381.832C236.951 368.849 237.538 355.897 238.512 342.914C239.32 332.089 240.87 321.324 241.268 310.508C241.534 303.132 241.866 295.747 242.298 288.381C242.84 279.196 243.394 270.001 244.047 260.826C244.822 249.792 245.63 238.768 246.704 227.813C247.568 219.016 248.243 210.179 248.376 201.173C248.464 195.139 249.793 189.443 249.881 184.154L249.859 184.174ZM61.4585 581.894C61.4585 581.894 61.4585 581.875 61.4585 581.865C63.4181 580.96 65.3776 580.026 67.326 579.111C68.2559 578.674 69.0087 577.869 68.6102 576.556C68.2117 575.244 68.2892 573.733 68.1342 572.332C66.5178 557.848 66.0307 542.729 65.3776 527.719C65.2669 525.184 65.9975 521.953 63.7391 520.919C63.5398 520.83 63.4956 520.124 63.4845 519.667C63.3959 512.132 62.6099 504.865 62.2556 497.42C62.2003 496.277 62.2114 495.044 63.1192 494.269C64.1709 493.374 64.1819 492.231 64.1377 490.969C63.9716 486.694 63.9605 482.35 63.6284 478.135C62.787 467.718 63.097 456.982 61.8903 446.634C61.4918 443.214 61.8128 439.536 61.6689 436.017C61.2814 427.14 60.8054 418.264 60.8164 409.317C60.8164 397.06 60.4068 384.873 59.8312 372.696C59.2776 360.996 58.8459 349.276 58.3145 337.557C57.927 329.226 57.8717 320.866 57.1299 312.556C55.7129 296.681 55.2036 280.746 54.1962 264.812C53.543 254.543 53.4545 244.295 52.5688 233.986C52.4802 232.992 52.7238 231.68 51.7164 231.183C50.089 230.378 50.089 228.917 49.9893 227.416C49.5022 220.378 49.0262 213.33 48.5169 206.272C48.4616 205.457 48.4173 204.622 49.0926 204.453C50.6536 204.045 50.4875 202.544 50.4543 201.024C50.1222 185.556 48.9044 169.939 48.2623 154.402C48.218 153.229 47.9966 152.126 47.1663 151.142C43.0037 146.211 38.8412 141.142 34.6122 135.983C33.8815 135.088 32.9626 133.617 32.0881 133.845C31.1249 134.094 31.7006 135.794 31.7781 136.867C32.398 144.86 33.2726 152.911 33.6933 160.834C34.6786 179.681 35.0771 198.419 36.4831 217.336C37.8116 235.249 37.712 253.012 39.4501 270.925C40.2914 279.613 40.4132 288.261 40.8671 296.92C41.8635 315.986 43.1698 335.032 44.1551 354.048C45.4504 379.168 46.8231 404.247 47.8306 429.357C48.8048 453.542 50.0004 477.658 50.7532 501.903C51.2403 517.361 52.1813 532.689 52.7902 548.107C53.2441 559.419 53.5319 570.791 53.8419 582.173C53.8973 584.35 54.4176 585.165 55.9675 584.399C57.7831 583.495 59.6208 582.739 61.4475 581.894H61.4585ZM27.5823 125.138C28.9661 127.543 30.671 128.507 32.4645 129.024C37.247 130.406 42.0295 131.579 46.8121 132.832C56.0671 135.237 65.1894 135.645 74.4112 137.156C82.9246 138.547 91.449 140.128 99.9623 141.45C101.501 141.689 103.04 142.027 104.579 142.315C105.232 142.434 106.029 142.533 106.018 143.488C106.018 144.422 105.188 144.253 104.557 144.213C103.992 144.184 103.427 144.084 102.852 143.995C95.7223 142.931 88.5928 141.867 81.4522 140.545C71.8871 138.766 62.4217 138.189 52.912 136.44C47.0999 135.366 41.2546 133.746 35.4203 132.195C34.8336 132.036 34.1029 131.5 33.6712 132.285C38.0662 136.838 41.8192 141.957 45.7493 146.728C47.5206 148.866 49.3583 150.049 51.5392 150.377C56.3439 151.102 61.1486 151.798 65.9532 152.285C70.8465 152.782 75.7619 154.283 80.644 154.82C91.6926 156.033 102.763 156.848 113.845 158.369C121.318 159.393 128.79 161.063 136.252 161.888C157.663 164.263 179.051 167.365 200.484 170.526C207.625 171.58 214.809 172.584 221.939 174.83C223.223 175.228 224.441 175.387 225.626 174.9C229.069 173.468 232.678 172.335 236.098 171.023C238.014 170.287 240.372 170.218 242.342 168.896C237.493 167.415 233.076 166.202 228.659 164.969C223.721 163.597 218.74 162.792 213.846 161.5C204.137 158.925 194.417 157.126 184.697 155.426C159.744 151.072 134.78 147.852 109.837 144.979C108.952 144.879 107.468 145.048 107.413 143.726C107.358 142.514 108.852 142.961 109.76 142.921C109.837 142.921 109.926 142.941 110.003 142.951C116.148 143.687 122.303 144.253 128.458 145.128C132.709 145.734 137.016 146.689 141.223 147.265C145.463 147.852 149.769 148.508 154.009 148.895C162.611 149.691 171.191 151.42 179.782 152.732C187.321 153.895 194.849 155.625 202.388 157.037C209.684 158.408 216.946 160.426 224.242 162.226C230.718 163.826 237.194 165.874 243.682 167.902C244.944 168.299 246.195 168.548 247.125 167.504C173.771 142.305 100.604 146.43 27.5823 125.138ZM206.03 491.167C205.787 495.939 205.577 499.448 205.455 502.917C205.422 503.692 205.643 504.418 206.661 503.832C207.602 503.285 208.289 502.579 208.322 501.376C208.355 500.044 208.444 498.692 208.566 497.33C209.285 488.712 208.71 480.66 209.186 472.121C209.374 468.712 209.839 465.203 209.872 461.863C209.972 451.395 210.902 440.65 211.654 429.993C212.208 422.101 212.894 414.198 213.304 406.355C213.625 400.271 213.271 394.307 213.791 388.184C214.245 382.905 214.71 377.627 214.688 372.458C214.655 365.509 214.964 358.481 215.352 351.483C215.739 344.465 215.939 337.457 216.282 330.449C216.957 316.612 217.145 302.755 217.942 288.888C218.673 276.084 219.238 263.291 219.503 250.448C219.636 244.384 219.847 238.33 220.024 232.257C220.345 221.262 220.821 210.288 221.197 199.284C221.33 195.407 223.002 191.749 221.098 187.544C221.053 187.435 221.131 187.266 221.219 187.176C222.659 185.467 221.817 183.081 222.16 181.043C222.26 180.476 222.57 179.671 221.695 179.244C220.887 178.846 220.179 179.313 219.581 179.691C218.85 180.158 218.895 181.003 218.806 181.779C218.33 186.093 218.496 190.546 218.419 194.92C218.252 204.344 218.208 213.747 217.356 223.062C217.09 225.974 217.001 228.936 217.035 231.889C217.079 236.283 217.245 240.686 216.492 244.971C216.06 247.456 216.083 249.971 216.038 252.446C215.917 258.39 216.315 264.325 215.917 270.259C215.319 279.255 214.754 288.271 214.832 297.278C214.898 304.345 214.001 311.413 213.47 318.501C212.64 329.604 212.606 340.648 212.463 351.672C212.385 357.895 211.588 364.227 211.355 370.489C211.045 378.76 211.09 386.951 210.747 395.192C210.182 408.92 208.776 422.846 207.924 436.683C206.761 455.471 206.042 474.159 206.019 491.187L206.03 491.167ZM27.5934 129.253C27.0066 130.436 27.2502 131.48 27.3055 132.424C27.8701 142.842 28.8776 153.359 29.1875 163.707C29.3204 168.11 29.1875 172.445 29.3757 176.858C29.8075 187.206 30.8039 197.674 31.0806 207.972C31.4681 222.247 32.9073 236.66 33.4497 250.955C33.8262 260.776 34.3575 270.667 35.0439 280.548C35.8964 292.834 36.3945 305.091 37.1252 317.357C38.5423 341.264 39.8375 365.141 41.3099 388.969C43.048 417.27 43.9558 445.64 44.8415 474.109C45.2289 486.495 46.2142 498.752 46.7899 511.088C47.5427 527.162 48.0188 543.335 48.9376 559.349C49.4247 567.908 50.1333 576.377 50.5539 584.956C50.5982 585.771 50.6536 586.547 51.3621 586.338C52.0263 586.149 52.292 585.394 52.3031 584.529C52.3142 583.555 52.2699 582.6 52.2256 581.646C51.8713 573.266 51.4175 564.906 51.1628 556.487C50.875 546.814 50.244 537.262 49.8343 527.629C48.8048 503.782 47.8084 479.925 46.8785 456.057C45.7935 428.274 44.2879 400.56 42.8598 372.786C42.4059 363.909 42.0517 355.032 41.3874 346.155C40.2361 330.976 40.07 315.767 38.8854 300.548C38.343 293.57 38.2655 286.591 38.0219 279.613C37.7562 271.621 36.5053 263.569 36.0956 255.507C35.2764 239.215 34.5015 222.932 33.4719 206.58C31.9884 183.101 31.6674 159.89 29.2982 136.142C29.0879 133.995 29.1211 131.808 27.6044 129.273L27.5934 129.253ZM50.244 154.959C50.4432 160.287 50.6204 165.397 50.8086 170.506C51.2071 180.675 52.1924 190.914 52.3585 201.043C52.3806 202.216 52.2699 203.538 53.233 204.533C54.2626 205.596 54.329 206.859 54.484 208.191C55.27 214.891 55.104 221.501 55.6243 228.161C55.6907 229.086 55.8568 230.239 55.2147 230.736C54.0966 231.591 54.4287 232.913 54.484 234.175C55.3475 255.676 56.2221 277.188 58.0156 298.639C59.3662 314.932 59.5433 331.284 60.3072 347.606C61.2703 368.193 61.9235 388.8 62.2556 409.496C62.5545 428.313 63.3516 447.091 64.5583 465.69C65.1894 475.551 64.4366 486.058 67.2707 494.965C67.3371 495.193 67.2928 495.511 67.3039 495.79C67.5363 502.649 67.7688 509.498 68.0013 516.357C68.0345 517.281 68.2559 518.345 67.6581 519.11C66.3629 520.79 66.5843 522.48 66.6175 524.249C66.7835 534.26 67.5363 544.031 68.101 553.852C68.5216 561.268 69.042 568.654 69.994 575.751C70.1158 576.656 70.1822 577.7 71.09 577.173C72.031 576.626 71.9535 575.513 71.8096 574.678C71.1565 570.98 71.3779 566.835 71.234 562.888C70.7358 549.638 69.6066 536.635 69.3741 523.235C69.2744 517.192 68.6877 511.357 68.4552 505.352C67.7467 487.37 66.8942 469.427 65.8647 451.505C65.1562 439.208 64.5915 426.822 64.4366 414.377C64.3369 406.216 63.6616 398.154 63.2631 390.033C62.5878 376.344 62.5656 362.567 61.6246 348.919C60.8275 337.278 60.5618 325.598 59.6762 313.938C59.1116 306.642 59.3219 299.295 59.1669 291.989C58.7905 273.927 57.3403 255.826 56.6649 237.734C56.2 225.139 55.4029 212.525 54.7719 199.9C54.1187 186.799 53.222 173.608 53.233 160.605C53.233 157.902 52.2478 156.321 50.2993 154.969L50.244 154.959ZM57.9602 153.727C56.7203 153.488 55.5911 153.17 54.473 153.06C53.6316 152.981 52.1703 151.888 52.1149 153.349C52.0706 154.512 53.4102 155.416 54.4397 155.973C54.8936 156.222 55.3918 156.331 55.8789 156.42C61.4918 157.434 67.1157 158.538 72.7064 159.075C80.8101 159.86 88.9027 161.629 97.0065 162.852C110.623 164.9 124.24 165.377 137.868 167.365C145.164 168.419 152.471 169.025 159.766 170.029C170.438 171.49 181.11 172.693 191.771 174.582C198.702 175.804 205.687 176.808 212.629 178.26C215.651 178.896 217.677 178.24 219.869 177.345C220.112 177.246 220.4 177.007 220.389 176.789C220.367 176.351 219.891 176.202 219.492 176.093C218.695 175.884 217.887 175.675 217.079 175.506C209.385 173.856 201.669 172.713 193.986 171.49C173.56 168.25 153.146 165.914 132.732 163.518C126.875 162.832 121.008 161.401 115.151 160.814C106.483 159.939 97.8146 158.896 89.1574 158.13C78.7399 157.236 68.2449 154.611 57.9713 153.717L57.9602 153.727ZM64.3259 507.37C64.3259 507.37 64.4033 507.351 64.4366 507.331C64.5473 510.392 64.6469 513.464 64.7798 516.516C64.813 517.231 64.8572 518.166 65.6211 517.818C66.2079 517.55 66.23 516.744 66.2189 516.088C66.1414 509.945 66.5843 503.633 65.5879 497.808C65.4661 497.102 65.4551 496.177 64.7576 496.366C63.8277 496.615 63.9937 497.678 64.0159 498.464C64.0934 501.446 64.2151 504.408 64.3259 507.38V507.37ZM52.757 215.835C52.6795 213.598 52.602 211.372 52.5134 209.135C52.4802 208.191 52.1481 207.375 51.2735 207.246C50.3436 207.107 50.3989 208.111 50.5318 208.787C51.816 214.94 51.5614 220.964 52.0042 227.048C52.0485 227.624 51.8824 228.539 52.7127 228.559C53.2552 228.579 53.2109 227.813 53.2663 227.276C53.6205 223.519 52.7238 219.632 52.757 215.835Z" fill="#605046"/>
<path d="M184.841 339.505C182.727 339.803 180.601 340.141 178.487 340.419C176.793 340.648 175.055 340.549 174.933 338.461C174.8 336.234 176.549 335.399 178.321 334.743C180.391 333.968 182.406 334.266 184.454 333.958C186.945 333.6 189.435 333.352 191.915 333.203C193.609 333.093 194.307 332.407 194.318 330.638C194.351 327.089 194.528 323.521 194.683 319.962C194.76 318.272 195.281 316.711 196.698 315.469C200.783 311.89 205.311 313.113 206.163 318.063C206.994 322.924 206.673 327.944 205.798 332.974C205.543 334.435 206.041 335.628 205.953 337.01C205.477 344.545 205.123 352.07 204.669 359.605C204.503 362.428 201.37 365.559 198.502 365.967C195.104 366.434 192.712 364.406 192.956 361.106C193.465 354.326 193.299 347.656 193.532 340.916C193.598 338.978 192.856 338.352 190.996 338.67C188.948 339.028 186.911 339.227 184.863 339.515L184.841 339.505ZM203.728 337.069C201.004 339.604 200.495 339.694 198.071 338.024C197.517 337.646 196.952 337.447 196.288 337.755C195.369 338.173 195.801 338.908 195.779 339.525C195.746 340.409 195.746 341.294 195.713 342.179C195.513 347.557 195.314 352.944 195.115 358.332C195.093 358.849 195.07 359.366 195.082 359.873C195.148 362.696 196.543 363.978 199.023 363.551C201.026 363.203 202.632 361.205 202.776 358.62C203.075 353.024 203.285 347.427 203.54 341.841C203.606 340.409 203.661 338.968 203.75 337.079L203.728 337.069ZM204.381 331.95C204.171 329.047 204.248 326.334 204.359 323.62C204.425 321.97 204.303 320.29 203.982 318.699C203.34 315.558 200.24 314.644 197.927 316.89C196.908 317.874 196.609 319.107 196.554 320.409C196.41 323.799 196.222 327.199 196.067 330.588C196.034 331.274 195.27 332.258 196.067 332.586C196.842 332.904 197.274 331.89 197.772 331.314C199.311 329.554 201.281 329.346 202.765 330.727C203.152 331.085 203.274 331.721 204.381 331.95ZM199.111 334.654C196.576 334.336 193.974 334.783 191.395 335.081C187.299 335.558 183.214 336.075 179.118 336.692C178.398 336.801 177.18 336.642 177.147 337.785C177.125 338.769 178.343 338.491 179.095 338.441C180.402 338.352 181.719 338.153 183.037 337.964C188.406 337.189 193.753 336.115 199.111 334.664V334.654Z" fill="#605046"/>
<path d="M242.564 254.921C242.475 268.768 240.427 282.307 239.652 296.065C239.409 300.28 239.154 304.484 238.534 308.679C238.135 311.373 238.423 314.087 238.025 316.821C237.316 321.751 237.283 326.731 236.497 331.692C235.324 339.187 235.257 346.712 234.892 354.207C234.394 364.485 234.183 374.704 233.209 385.003C232.412 393.462 232.7 401.752 231.925 410.202C231.117 419.138 230.895 427.975 229.954 436.942C229.379 442.419 228.803 447.926 228.438 453.344C228.083 458.562 227.718 463.811 227.541 468.99C227.508 469.795 227.441 470.62 227.308 471.445C227.22 472.012 227.386 472.837 226.5 473.066C225.758 473.264 225.825 472.36 225.869 471.813C226.102 468.811 226.157 465.869 226.334 462.877C227.541 442.618 229.733 422.17 230.762 401.971C230.94 398.432 230.917 394.933 231.117 391.384C231.703 381.166 232.822 370.887 232.855 360.738C232.888 352.775 233.021 344.773 234.095 336.811C235.611 325.678 236.087 314.574 237.051 303.47C237.571 297.437 237.516 291.333 238.302 285.349C239.287 277.814 239.73 270.249 240.062 262.655C240.305 257.177 240.46 251.69 240.837 246.223C240.903 245.239 240.715 243.599 241.888 243.678C243.405 243.788 242.63 245.299 242.807 246.134C243.427 249.155 242.575 251.979 242.553 254.931L242.564 254.921Z" fill="#605046"/>
</svg>
