<svg width="129" height="129" viewBox="0 0 129 129" fill="none" xmlns="http://www.w3.org/2000/svg">
<circle cx="64.5" cy="64.5" r="64.5" fill="#FD5141"/>
<path d="M22.37 74.01L22.16 54.63C22.16 54.15 22.35 53.74 22.73 53.4C23.13 53.04 23.58 52.79 24.08 52.65C24.58 52.51 25.05 52.49 25.49 52.59C25.93 52.69 26.21 52.95 26.33 53.37C26.71 54.13 26.97 55.18 27.11 56.52C27.37 59.02 27.5 61.18 27.5 63C27.7 63.32 27.95 63.47 28.25 63.45C29.11 61.35 30.06 59.33 31.1 57.39C32.14 55.45 32.81 54.21 33.11 53.67C33.41 53.11 33.77 52.72 34.19 52.5C34.61 52.28 35.06 52.14 35.54 52.08C36.58 51.96 37.56 52.14 38.48 52.62C39.18 52.86 39.59 53.27 39.71 53.85C40.17 54.77 39.86 55.83 38.78 57.03C37.52 59.03 36.25 61.24 34.97 63.66C32.53 68.32 30.98 71.19 30.32 72.27C29.66 73.35 29.18 74.12 28.88 74.58C28.58 75.02 28.24 75.39 27.86 75.69C27.18 76.23 26.36 76.45 25.4 76.35C23.72 76.29 22.74 75.76 22.46 74.76C22.4 74.48 22.37 74.23 22.37 74.01ZM48.1295 54.72C47.4295 56.9 46.7795 58.87 46.1795 60.63C45.5995 62.39 45.0595 64.01 44.5595 65.49C44.0795 66.97 43.6295 68.34 43.2095 69.6C42.7895 70.84 42.3995 72.03 42.0395 73.17C41.8395 74.49 41.1895 75.42 40.0895 75.96C39.4495 76.26 38.6895 76.41 37.8095 76.41C36.9295 76.41 36.2695 76.31 35.8295 76.11C35.3895 75.93 35.1095 75.66 34.9895 75.3C34.8495 74.94 34.8495 74.51 34.9895 74.01C35.1095 73.49 35.3295 72.79 35.6495 71.91C35.9695 71.01 36.3695 69.8 36.8495 68.28C37.3495 66.76 37.8695 65.22 38.4095 63.66C39.7495 59.76 40.8095 57.06 41.5895 55.56C41.8895 55 42.1895 54.63 42.4895 54.45C42.7895 54.25 43.0795 54.11 43.3595 54.03C43.6395 53.93 43.8995 53.82 44.1395 53.7C44.3795 53.58 44.5895 53.28 44.7695 52.8C44.9695 52.32 45.3195 51.99 45.8195 51.81C46.3395 51.63 46.8195 51.62 47.2595 51.78C47.7195 51.92 48.0595 52.24 48.2795 52.74C48.5195 53.22 48.4695 53.88 48.1295 54.72ZM65.1151 62.82C65.0351 63.68 64.8751 64.56 64.6351 65.46C64.4151 66.36 64.0851 67.24 63.6451 68.1C63.2251 68.96 62.7151 69.79 62.1151 70.59C61.5351 71.39 60.8851 72.13 60.1651 72.81C59.4451 73.49 58.6751 74.06 57.8551 74.52C56.0951 75.56 54.3951 75.93 52.7551 75.63C52.3951 76.41 51.8551 76.9 51.1351 77.1C50.4351 77.32 49.7351 77.32 49.0351 77.1C48.3551 76.9 47.7551 76.51 47.2351 75.93C46.7151 75.35 46.4551 74.56 46.4551 73.56C46.4551 72.54 46.5251 71.5 46.6651 70.44C46.8051 69.38 46.9951 68.36 47.2351 67.38C47.6151 65.76 48.0851 64.24 48.6451 62.82C49.9651 59.6 50.7151 57.34 50.8951 56.04C51.1551 54.3 51.6351 53.22 52.3351 52.8C53.4951 52.12 54.5951 51.83 55.6351 51.93C56.6751 52.03 57.6151 52.28 58.4551 52.68C59.8351 53.34 61.3251 54.45 62.9251 56.01C64.6851 57.71 65.4151 59.98 65.1151 62.82ZM53.3251 71.82C54.3451 71.3 55.1651 70.77 55.7851 70.23C56.4251 69.67 57.0251 69.16 57.5851 68.7C58.4451 67.84 59.0751 66.82 59.4751 65.64C60.3551 63.04 59.7951 61.07 57.7951 59.73C57.4951 59.51 57.0451 59.21 56.4451 58.83C56.1651 59.47 55.9551 60.14 55.8151 60.84C55.6951 61.54 55.5251 62.22 55.3051 62.88L54.4951 65.52L53.8351 68.37C53.7951 68.77 53.7351 69.16 53.6551 69.54C53.5751 69.9 53.5051 70.28 53.4451 70.68L53.3251 71.82ZM71.0476 71.22C72.2076 71.34 73.0676 71.4 73.6276 71.4C74.2076 71.4 75.0776 71.32 76.2376 71.16C76.5976 71.28 76.8076 71.43 76.8676 71.61C76.9276 71.79 76.9476 71.98 76.9276 72.18C76.9076 72.36 76.9176 72.54 76.9576 72.72C76.9976 72.9 77.1876 73.05 77.5276 73.17C77.7076 73.23 77.7576 73.41 77.6776 73.71C77.6176 73.99 77.4576 74.3 77.1976 74.64C76.5376 75.5 75.7576 76.1 74.8576 76.44C73.4176 76.8 72.2876 77.01 71.4676 77.07C70.1076 77.17 68.6276 77.12 67.0276 76.92C65.2676 76.6 64.4176 75.87 64.4776 74.73C64.4776 70.53 65.3976 66.31 67.2376 62.07C67.8376 60.69 68.5176 59.24 69.2776 57.72C69.4376 57.4 69.5276 57.04 69.5476 56.64C69.5876 56.24 69.6176 55.85 69.6376 55.47C69.6576 55.09 69.7176 54.75 69.8176 54.45C69.9176 54.15 70.1276 53.94 70.4476 53.82C74.6076 52.16 77.8976 51.52 80.3176 51.9C81.1576 51.92 81.7076 52.21 81.9676 52.77C82.2476 53.31 82.2776 53.92 82.0576 54.6C81.8576 55.28 81.4476 55.92 80.8276 56.52C80.2276 57.12 79.4676 57.49 78.5476 57.63C77.3676 57.97 76.6476 58.2 76.3876 58.32C75.8876 58.56 75.5276 58.88 75.3076 59.28C75.0276 59.72 74.7676 60.14 74.5276 60.54C74.2876 60.94 74.1176 61.37 74.0176 61.83L73.8976 62.49C74.2776 62.67 74.7376 62.73 75.2776 62.67C75.8376 62.59 76.3476 62.52 76.8076 62.46C77.2876 62.38 77.6676 62.37 77.9476 62.43C78.2476 62.49 78.3076 62.79 78.1276 63.33C77.9676 63.85 77.6576 64.44 77.1976 65.1C76.7576 65.76 76.1276 66.24 75.3076 66.54C74.7876 66.64 74.4276 66.72 74.2276 66.78C74.0476 66.82 73.9076 66.85 73.8076 66.87C73.6676 66.89 73.2676 66.92 72.6076 66.96C71.6676 68.56 71.0976 69.8 70.8976 70.68C70.8176 71.04 70.8676 71.22 71.0476 71.22ZM85.25 75.09C85.07 75.89 84.45 76.38 83.39 76.56C82.41 76.74 81.48 76.63 80.6 76.23C79.62 75.81 79.19 75.22 79.31 74.46C79.19 73.3 79.8 70.78 81.14 66.9C83.14 61.08 85.14 56.92 87.14 54.42C87.66 53.78 88.1 53.37 88.46 53.19C88.84 52.99 89.27 52.81 89.75 52.65C90.23 52.49 90.73 52.34 91.25 52.2C92.29 51.92 93.27 51.73 94.19 51.63C95.13 51.51 95.97 51.62 96.71 51.96C97.45 52.28 98.02 52.76 98.42 53.4C98.84 54.04 99.1 54.8 99.2 55.68C99.3 56.54 99.27 57.45 99.11 58.41C98.95 59.35 98.66 60.31 98.24 61.29C97.82 62.25 97.29 63.15 96.65 63.99C95.25 65.83 93.61 67.02 91.73 67.56L92.03 68.07C92.29 68.47 92.6 68.91 92.96 69.39C93.34 69.87 93.71 70.36 94.07 70.86C94.45 71.36 94.79 71.86 95.09 72.36C95.39 72.86 95.61 73.33 95.75 73.77C96.07 74.75 95.82 75.46 95 75.9C94.34 76.3 93.82 76.4 93.44 76.2C93.28 76.1 93.12 75.97 92.96 75.81C92.8 75.67 92.58 75.55 92.3 75.45C91.12 75.79 90.22 75.49 89.6 74.55C89.22 73.95 88.93 73.4 88.73 72.9C88.53 72.4 88.36 71.98 88.22 71.64C87.86 70.9 87.45 70.26 86.99 69.72C86.77 70.26 86.52 70.95 86.24 71.79C85.9 72.85 85.52 73.95 85.1 75.09H85.25ZM91.31 57.63C90.93 58.49 90.67 59.09 90.53 59.43C90.25 60.11 89.94 60.86 89.6 61.68C89.54 62.12 89.49 62.43 89.45 62.61L89.87 62.19L90.38 61.95C90.74 61.75 91.07 61.57 91.37 61.41C91.67 61.25 91.94 61.05 92.18 60.81C92.64 60.35 93.04 59.6 93.38 58.56C93.38 58.36 93.41 58.16 93.47 57.96C93.55 57.76 93.6 57.56 93.62 57.36C93.7 56.92 93.52 56.61 93.08 56.43C92.68 56.39 92.18 56.72 91.58 57.42C91.46 57.56 91.37 57.63 91.31 57.63ZM104.241 71.22C105.401 71.34 106.261 71.4 106.821 71.4C107.401 71.4 108.271 71.32 109.431 71.16C109.791 71.28 110.001 71.43 110.061 71.61C110.121 71.79 110.141 71.98 110.121 72.18C110.101 72.36 110.111 72.54 110.151 72.72C110.191 72.9 110.381 73.05 110.721 73.17C110.901 73.23 110.951 73.41 110.871 73.71C110.811 73.99 110.651 74.3 110.391 74.64C109.731 75.5 108.951 76.1 108.051 76.44C106.611 76.8 105.481 77.01 104.661 77.07C103.301 77.17 101.821 77.12 100.221 76.92C98.4609 76.6 97.6109 75.87 97.6709 74.73C97.6709 70.53 98.5909 66.31 100.431 62.07C101.031 60.69 101.711 59.24 102.471 57.72C102.631 57.4 102.721 57.04 102.741 56.64C102.781 56.24 102.811 55.85 102.831 55.47C102.851 55.09 102.911 54.75 103.011 54.45C103.111 54.15 103.321 53.94 103.641 53.82C107.801 52.16 111.091 51.52 113.511 51.9C114.351 51.92 114.901 52.21 115.161 52.77C115.441 53.31 115.471 53.92 115.251 54.6C115.051 55.28 114.641 55.92 114.021 56.52C113.421 57.12 112.661 57.49 111.741 57.63C110.561 57.97 109.841 58.2 109.581 58.32C109.081 58.56 108.721 58.88 108.501 59.28C108.221 59.72 107.961 60.14 107.721 60.54C107.481 60.94 107.311 61.37 107.211 61.83L107.091 62.49C107.471 62.67 107.931 62.73 108.471 62.67C109.031 62.59 109.541 62.52 110.001 62.46C110.481 62.38 110.861 62.37 111.141 62.43C111.441 62.49 111.501 62.79 111.321 63.33C111.161 63.85 110.851 64.44 110.391 65.1C109.951 65.76 109.321 66.24 108.501 66.54C107.981 66.64 107.621 66.72 107.421 66.78C107.241 66.82 107.101 66.85 107.001 66.87C106.861 66.89 106.461 66.92 105.801 66.96C104.861 68.56 104.291 69.8 104.091 70.68C104.011 71.04 104.061 71.22 104.241 71.22Z" fill="#F5F0E8"/>
</svg>
