<?xml version="1.0" encoding="UTF-8"?>
<svg id="Layer_2" xmlns="http://www.w3.org/2000/svg" viewBox="0 0 96.41 34.12">
  <g id="Layer_1-2" data-name="Layer_1">
    <path d="M1.8,13.84c.11-.09-1.46-1.69-.49-1.74.93.36,1.88.71,2.85,1.03h0c1.46.44,28.7,1.86,35.05,1.65s23.14-.56,29.42-.65c2.46-.04,4.9-.41,7.27-1.09.15-.04.36-.03.4-.23.03-.18-.16-.23-.27-.31-.49-.36-.98-.71-1.48-1.06-2.72-1.92-5.47-3.79-7.38-6.63-.69-1.03-1.51-1.98-2.25-2.98-.5-.67-.41-1.04.32-1.4.98-.49,1.96-.66,2.93.03.17.12.37.2.56.3,3.52,1.89,7,3.84,10.73,5.31,3.4,1.34,6.83,2.56,10.35,3.57.97.28,1.97.51,2.86,1.03.3.18.6.21.94.15.91-.17,1.08-.02,1.13.9.04.79.37,1.38,1.1,1.73.15.07.29.17.4.28.32.33.2.71-.25.8-.31.06-.62,0-.92-.06-.74-.17-1.45-.1-2.02.46-1.28,1.26-2.83,2.14-4.3,3.13-2.21,1.49-4.44,2.96-6.29,4.91-2.57,2.7-4.64,5.77-6.53,8.97-.67,1.14-1.57,1.82-2.81,2.13-.64.16-.93-.03-1.03-.68-.22-1.38-.43-2.77-.43-4.17,0-1.8.27-3.53,1.14-5.16.94-1.75,2.1-3.34,3.29-4.92.23-.3.46-.6.68-.91.09-.13.19-.29.08-.46-.09-.14-.25-.14-.4-.12-.28.03-.55.07-.83.11-4.23.66-8.11.18-12.77.91-5.97.94-51.91-1.1-58.16-2.06-1.59-.25-5.22-1.25-4.62-1.28.34-.97,2.58-1.14,1.74-1.48ZM89.23,12.78c.17-.01.35-.07.36-.26,0-.19-.18-.26-.33-.32-.47-.2-1.17.08-1.58.68.58-.03,1.06-.06,1.55-.09ZM80.92,21.51c.14.08.25-.04.33-.13.65-.78,1.3-1.56,1.94-2.35.06-.07.13-.17.07-.27-.07-.11-.17-.04-.26,0-.53.22-1.07.44-1.17,1.13-.04.26-.25.41-.44.57-.23.19-.42.42-.53.71-.02.11-.09.26.05.34ZM80.97,11.42c1.44.3,2.88.61,4.34.05.18-.07.44-.09.48-.29.03-.22-.23-.28-.39-.38-.18-.11-.37-.2-.56-.3-.24-.07-.49-.11-.73-.06-1.03.2-2.05.4-3.07.61-.12.02-.29.04-.28.21,0,.11.13.14.22.16ZM76.03,26.76c-.29,1.02-.89,1.86-1.55,2.67-.08.1-.17.21-.23.32-.12.23-.11.49.08.63.23.16.34-.12.44-.26.92-1.24,1.82-2.5,2.73-3.75.05-.07.08-.14.11-.18.12-.35-.01-.51-.35-.45-.58.12-1.06.42-1.23,1.01ZM76.67,10.46c.12.1.28.16.36.21.44.13.81.14,1.19.06.53-.12,1.04-.31,1.53-.52.14-.06.37-.09.32-.3-.03-.16-.23-.15-.38-.17-.82-.12-1.65-.24-2.47-.37-.5-.08-1-.17-1.48-.32-.43-.14-.6-.4-.54-.85.07-.53-.03-.64-.57-.62-.42.02-.85.08-1.27.13-.12.02-.29,0-.34.15-.05.17.09.27.2.37.32.29.68.51,1.06.71.84.44,1.67.9,2.39,1.53Z" fill="#fd5141"/>
  </g>
</svg>