<svg width="384" height="379" viewBox="0 0 384 379" fill="none" xmlns="http://www.w3.org/2000/svg">
<g clip-path="url(#clip0_778_827)">
<path d="M254.116 233.168C243.416 253.928 255.761 274.696 278.044 274.323C297.261 273.999 312.441 265.781 322.454 248.958C330.392 235.26 334.13 220.864 329.841 205.217C327.487 196.63 321.695 192.053 313.709 192.983C286.998 196.097 266.464 209.21 254.114 233.167L254.116 233.168Z" fill="#780E08"/>
<path d="M161.671 171.226C149.698 177.4 136.984 181.685 124.452 186.504C109.417 192.283 93.3672 194.89 78.8154 202.136C58.5083 212.248 48.9341 237.015 57.2866 258.091C64.2443 275.652 79.1494 283.182 95.5519 287.86C113.614 293.012 128.937 302.748 144.151 313.051C150.276 317.197 154.746 323.418 161.878 326.812C167.063 330.844 173.932 331.783 180.094 334.416C197.811 341.985 221.176 333.032 228.877 315.248C233.556 304.442 235.579 292.795 232.806 281.088C226.152 252.969 220.758 224.606 215.204 196.259C210.437 171.927 183.752 159.84 161.676 171.223L161.671 171.226Z" fill="#780E08"/>
<path d="M245.329 191.515C258.527 196.329 271.34 192.737 282.387 185.261C308.163 167.825 317.225 130.735 303.217 103.243C295.759 88.6041 284.123 85.6074 270.765 95.0127C256.27 105.222 245.476 118.881 235.458 133.198C232.223 137.916 230.371 143.216 228.58 148.526C222.373 166.919 229.326 185.676 245.336 191.513L245.329 191.515Z" fill="#780E08"/>
<path d="M188.746 148.377C203.575 143.808 212.845 133.239 220.174 120.843C227.623 108.239 231.678 94.0928 233.32 79.5687C235.952 56.3092 228.311 44.4224 202.858 50.6563C183.66 55.3567 167.775 66.2342 155.339 88.4877C149.696 98.1094 147.487 107.118 150.617 122.712C154.213 140.625 169.072 154.438 188.749 148.378L188.746 148.377Z" fill="#780E08"/>
<path d="M78.549 161.912C85.0128 170.585 96.1649 173.976 106.07 169.944C118.468 164.897 125.897 155.915 129.451 142.62C134.154 125.034 135.02 107.789 129.575 90.4098C125.289 76.7271 117.566 73.3236 104.468 78.8134C92.0566 84.0195 82.2752 92.0655 77.8584 101.287C64.7425 124.014 64.6477 143.258 78.549 161.912Z" fill="#780E08"/>
</g>
<defs>
<clipPath id="clip0_778_827">
<rect width="285.753" height="272.469" fill="white" transform="translate(136.235) rotate(30)"/>
</clipPath>
</defs>
</svg>
