<svg width="119" height="107" viewBox="0 0 119 107" fill="none" xmlns="http://www.w3.org/2000/svg">
<path d="M57.8201 104.793C61.4948 104.74 65.1004 104.327 68.3884 102.497C70.081 101.555 71.6019 101.365 73.2373 102.754C83.3303 111.327 102.023 106.653 106.346 91.1232C108.253 84.2777 110.115 78.3818 115.673 73.3421C120.897 68.6056 119.688 59.5733 114.009 53.883C111.417 51.2847 110.518 49.0653 111.972 45.5728C113.432 42.064 113.587 38.2239 113.301 34.4174C112.974 30.0967 111.044 26.7481 107.14 24.7604C105.487 23.9181 104.21 22.8355 103.496 21.1152C103.452 21.008 103.365 20.9171 103.318 20.8099C100.392 14.2611 93.0032 12.8829 88.6361 8.10421C83.8164 2.83074 77.9641 1.61062 71.1893 1.33563C65.9731 1.12344 60.8586 -0.686712 55.4804 0.284403C50.8876 1.11369 46.689 2.84156 42.6718 5.10317C41.2763 5.88915 39.9855 6.24859 38.3361 5.77873C26.3127 2.35438 16.8246 6.64375 12.3333 18.6208C9.68793 25.6752 6.77906 32.3409 2.77921 38.7804C-2.48876 47.2617 -0.0713491 54.9418 8.36798 60.2391C10.3479 61.482 11.3719 62.7097 11.1991 65.295C10.2237 79.8097 16.3126 89.7049 29.7682 95.2718C34.0122 97.0278 38.1351 98.9538 42.1912 101.088C47.0649 103.652 52.2983 104.875 57.8222 104.795L57.8201 104.793ZM84.4105 104.506C81.83 104.408 78.7634 103.49 75.9247 101.58C73.9372 100.243 73.4587 99.0772 75.0908 97.0505C76.4043 95.419 77.5125 93.5418 78.3346 91.6125C79.2549 89.4505 80.7811 88.5444 82.8788 87.6642C89.2053 85.0085 95.8332 83.5989 102.465 82.1049C104.538 81.6372 105.554 81.8353 105.489 84.3319C105.21 95.0282 95.7825 104.462 84.4116 104.507L84.4105 104.506ZM76.7316 20.484C78.65 20.3552 79.1015 21.3436 79.0658 22.4652C78.8822 28.3439 78.6359 34.255 76.9163 39.9074C75.8178 43.5212 74.2872 43.715 70.5185 43.086C65.5368 42.2545 61.3176 40.2073 57.267 37.2712C54.962 35.5996 54.666 34.6599 56.9311 32.8963C62.3114 28.7087 67.7943 24.6889 73.9026 21.6154C74.9407 21.0935 76.0662 20.746 76.7305 20.484H76.7316ZM24.5532 60.985C20.9994 60.9287 16.2305 55.5416 17.464 53.0364C21.0945 45.6616 26.2263 39.6649 34.1169 36.5859C36.4652 35.67 37.5 36.4982 36.9275 39.0825C35.9219 43.6251 35.9943 48.1971 36.6834 52.7712C36.9048 54.2414 36.9275 55.6195 35.5665 56.5842C32.15 59.0038 28.3813 60.526 24.5532 60.985ZM48.3913 96.9758C46.5194 96.8015 44.6485 96.4919 42.7755 96.4768C33.4548 96.3977 27.6727 84.7649 30.7295 76.4785C31.086 75.5128 31.275 74.1649 32.4643 74.0339C33.8836 73.878 33.9311 75.3396 34.2185 76.2847C35.9478 81.9674 40.1086 85.2034 45.274 87.4325C50.6813 89.7656 56.4148 90.2376 62.2088 90.3491C63.317 90.3707 64.8217 89.8998 65.0723 91.5757C65.297 93.073 63.8733 93.5028 62.831 93.912C58.1992 95.7308 53.4303 96.952 48.3913 96.9758ZM13.3875 69.1047C13.3875 68.5169 13.2914 67.9084 13.4059 67.3433C13.6932 65.9261 13.0721 63.9655 14.9494 63.3776C16.7274 62.8201 17.6455 64.3986 18.5993 65.5797C20.7985 68.3036 23.6091 70.1798 26.7999 71.5103C28.4428 72.1956 29.2249 73.1646 28.6189 75.0613C27.0591 79.9483 27.2082 84.7963 29.2011 89.5609C29.4582 90.1759 29.9637 90.8926 29.2335 91.4783C28.5789 92.0033 27.8941 91.6082 27.2849 91.2509C18.8175 86.2882 13.475 79.341 13.3864 69.1047H13.3875ZM18.1078 43.4898C18.3195 42.942 18.5896 42.2946 18.8229 41.6331C21.142 35.0497 24.6309 29.0692 28.3499 23.2209C30.6809 19.5551 32.5485 19.3126 36.0645 22.0495C36.9859 22.7673 37.8565 23.5706 38.6515 24.428C42.2743 28.3331 41.1531 32.1288 35.9413 33.468C30.1938 34.9457 25.413 37.9381 21.5168 42.3975C20.9 43.1033 20.333 43.8817 19.6092 44.4588C18.622 45.2458 18.1478 44.7457 18.1089 43.4909L18.1078 43.4898ZM31.6336 6.67081C32.5032 6.87976 33.875 7.16449 35.2198 7.54774C36.2697 7.84654 37.0906 8.7776 36.2665 9.61664C33.6557 12.2766 31.7719 16.068 28.3661 17.431C23.8554 19.2358 19.6006 21.2841 15.685 24.1152C15.0412 24.5807 14.3521 25.3721 13.5117 24.7626C12.5028 24.0307 13.1715 22.9957 13.4761 22.1935C15.079 17.9864 17.1864 14.0749 20.5976 11.0251C23.5864 8.35213 27.0786 6.8646 31.6336 6.67081ZM116.319 64.2849C116.316 68.7507 113.417 73.734 110.083 75.6102C108.777 76.3453 107.988 76.1418 107.239 74.8221C104.282 69.6201 104.947 59.9436 108.552 55.1291C109.529 53.8256 110.394 53.8765 111.444 54.8379C114.34 57.4903 115.982 60.7739 116.32 64.2849H116.319ZM55.3627 86.5177C49.3321 85.3387 42.8652 84.347 38.4149 78.8733C37.1749 77.3489 35.64 75.4273 36.7137 73.4666C37.89 71.3176 40.2631 72.3483 42.1922 72.5561C44.1538 72.7662 45.6823 73.7005 46.999 75.201C49.8776 78.4835 53.0025 81.5019 56.8544 83.6671C57.6397 84.1088 58.8376 84.583 58.4833 85.6732C58.0599 86.9789 56.6935 86.3098 55.3627 86.5188V86.5177ZM69.6619 4.48174C71.5155 4.76756 73.1843 6.02557 74.6328 7.6062C75.7756 8.8523 75.5715 9.83316 73.9945 10.6278C67.9174 13.6884 61.511 15.8623 55.0246 17.8262C53.4627 18.2993 52.726 17.8673 53.3385 16.0864C54.9468 11.4062 64.6521 4.32151 69.6619 4.48174ZM2.62582 46.7529C2.73599 43.4465 4.37029 40.099 6.58787 37.0168C7.33102 35.984 8.53864 35.6245 8.72335 37.3946C9.33904 43.2939 11.0414 48.851 13.3378 54.2879C13.8952 55.6087 13.192 57.0778 12.2177 58.1637C11.5599 58.8977 10.7281 58.5275 9.94501 58.207C6.08127 56.6253 2.66794 51.5792 2.62474 46.7518L2.62582 46.7529ZM11.2574 36.3781C11.1829 34.0201 11.0414 31.6362 12.9662 29.8022C15.8665 27.0393 19.0767 24.6911 22.557 22.7229C23.2429 22.3353 24.0854 21.7464 24.8102 22.4533C25.5966 23.2209 24.82 23.9961 24.4354 24.6521C20.6937 31.0375 17.1648 37.5181 15.105 44.6905C14.9116 45.3628 14.7453 46.1617 13.8595 46.1542C13.0019 46.1466 12.7956 45.3952 12.5925 44.7034C11.7964 41.985 11.3816 39.2059 11.2553 36.3791L11.2574 36.3781ZM93.904 37.4044C93.9872 37.4044 94.0704 37.4044 94.1546 37.4044C94.1546 34.9349 94.1374 32.4654 94.1611 29.996C94.1752 28.5896 94.6872 27.4291 96.14 27.0025C97.7559 26.5283 98.4958 27.6434 99.1029 28.8473C101.336 33.2731 102.162 37.8483 101.347 42.8522C100.74 46.584 98.5109 46.5168 95.75 46.2419C92.6673 45.9344 93.6491 43.7237 93.6675 41.985C93.6826 40.4574 93.8209 38.9309 93.9051 37.4044H93.904ZM33.795 16.2347C34.9119 14.4949 36.6607 12.9522 38.4268 11.4095C39.6161 10.3701 40.734 9.87213 42.162 11.0078C44.7058 13.0291 46.6512 15.5202 47.8599 18.5126C49.0491 21.4584 46.636 22.7381 44.8862 24.2202C43.0067 25.8138 41.9244 24.2429 40.8291 23.0271C39.2412 21.2646 37.4827 19.724 35.3624 18.6382C34.5015 18.1975 33.6579 17.7775 33.7961 16.2347H33.795ZM59.1994 2.25045C60.3541 2.39011 61.9161 1.77518 62.2487 3.29627C62.5253 4.56186 61.0001 4.79137 60.1467 5.34026C58.0566 6.68488 56.229 8.32615 54.4618 10.0746C52.8221 11.6974 52.241 15.046 49.896 14.9962C47.66 14.9486 46.9871 11.6011 45.1055 10.1666C42.9343 8.51019 43.8881 7.23053 45.8054 6.23235C50.0299 4.03245 54.5169 2.72248 59.1984 2.25153L59.1994 2.25045ZM81.1203 47.6698C78.812 47.9816 77.9889 47.0462 78.4264 44.8323C78.8509 42.6865 79.6621 40.7367 81.3277 39.3076C83.2741 37.6382 84.7799 33.6141 87.1671 34.7985C89.4689 35.9407 87.8411 39.7353 87.3496 42.3249C86.4747 46.9391 85.7326 47.4912 81.1192 47.6698H81.1203ZM53.5999 50.6178C53.6312 47.2952 56.4429 45.1246 60.8186 44.7792C62.7413 44.6277 66.2335 47.2942 66.6007 49.1833C66.8967 50.7066 65.7247 50.9329 64.7418 51.2273C62.2747 51.9657 59.7568 52.5427 57.3146 53.3558C54.3905 54.3291 53.3536 53.1966 53.5999 50.6178ZM78.3367 77.1346C78.2805 78.9555 78.4242 80.4279 76.2984 80.4831C73.1206 80.5643 68.5407 78.2204 68.4705 76.4016C68.3538 73.3411 71.5425 69.9578 74.8445 70.2686C79.6416 70.72 76.8029 75.2411 78.3367 77.1346ZM57.4604 102.505C55.2169 102.509 53.0036 102.271 50.8757 101.528C50.1703 101.281 48.9951 101.537 48.9994 100.364C49.0038 99.2472 50.0569 99.2331 50.8444 99.1812C55.6835 98.8585 60.3552 97.8712 64.8109 95.8997C66.6353 95.0921 67.7198 96.0784 68.3992 97.6676C69.124 99.363 67.9088 100.066 66.6915 100.571C63.7448 101.795 60.6933 102.61 57.4604 102.506V102.505ZM54.5169 73.2544C58.8117 73.2274 61.4354 76.6582 64.3691 79.3334C65.3564 80.2341 65.014 82.1114 64.0537 83.2449C63.0632 84.4141 61.862 83.5372 60.8737 83.0089C57.9832 81.464 55.2017 79.735 52.8513 77.4085C51.9688 76.5348 50.3875 75.8408 50.8163 74.3988C51.298 72.777 53.0339 73.694 54.5169 73.2544ZM106.768 33.6769C106.757 33.456 106.631 32.7415 106.706 32.0497C106.837 30.8642 105.758 29.0194 107.384 28.6514C108.98 28.2908 109.496 30.2038 110.037 31.4575C112.223 36.5112 110.601 41.3874 109.226 46.2559C108.795 47.7803 107.934 48.8499 106.148 48.1603C104.473 47.5139 104.778 46.2191 105.25 44.9211C106.516 41.4426 106.851 37.8309 106.767 33.6769H106.768ZM69.5453 17.1809C70.6189 17.3585 72.0923 16.7446 72.911 18.1131C73.2308 18.6479 72.7609 19.2542 72.2111 19.5421C67.7533 21.8817 63.6519 24.7777 59.5181 27.6261C59.193 27.8502 58.5848 27.9531 58.2521 27.7993C57.779 27.5817 57.9302 27.0307 58.0609 26.5554C59.0407 22.9957 66.0056 17.2286 69.5463 17.1799L69.5453 17.1809ZM52.5759 61.0305C52.4603 60.198 52.4484 59.3438 53.1743 58.7884C53.8494 58.272 54.5256 58.6834 55.0797 59.1143C57.2109 60.7707 59.544 62.0601 61.9917 63.1828C64.017 64.1127 63.478 65.1499 62.0133 66.2022C57.8017 69.2292 53.2607 66.7489 52.577 61.0305H52.5759ZM93.4363 64.0218C94.8416 64.6032 97.1013 64.1972 97.8013 66.1351C98.4062 67.8078 96.706 68.8211 95.7198 69.9189C94.5446 71.2278 93.2851 72.4641 92.0116 73.6777C91.532 74.1346 91.02 74.8167 90.2088 74.4377C89.362 74.0437 89.6201 73.2404 89.74 72.5756C90.157 70.2642 90.6203 67.9615 91.0686 65.6555C91.303 64.4484 91.9155 63.7349 93.4363 64.0207V64.0218ZM63.5493 60.9179C61.7054 60.4838 59.7492 59.4553 58.0717 57.9764C56.9397 56.9793 57.4074 55.992 58.6378 55.6022C61.1859 54.7946 63.7837 54.1429 66.3782 53.4954C66.7595 53.4002 67.5329 53.5712 67.6172 53.804C68.3355 55.782 66.834 57.2911 66.3631 59.0255C66.0477 60.1872 65.4244 61.2146 63.5503 60.9179H63.5493ZM38.7541 42.9171C39.0004 41.6201 39.2294 39.8641 39.6863 38.1687C40.0524 36.8111 40.5709 35.4004 42.3856 35.368C43.5921 35.3463 44.8268 35.4275 45.4263 36.6769C46.1381 38.1611 45.4403 39.3791 44.493 40.5332C43.4496 41.8042 42.5044 43.1553 41.4631 44.4274C40.9144 45.0964 40.5979 46.401 39.4141 45.9073C38.322 45.4515 38.8643 44.2661 38.7552 42.9171H38.7541ZM80.9723 32.4265C81.1538 29.6593 81.2856 27.4334 81.4519 25.2097C81.52 24.296 81.4206 23.1906 82.6098 22.9253C83.5787 22.7088 84.0065 23.5858 84.5045 24.2245C87.3604 27.887 87.1249 30.1714 83.5636 33.154C82.9641 33.6563 82.4467 34.5203 81.4822 34.0731C80.4668 33.6022 80.9864 32.6495 80.9723 32.4265Z" fill="#BEC8BE"/>
</svg>
