<svg width="633" height="401" viewBox="0 0 633 401" fill="none" xmlns="http://www.w3.org/2000/svg">
<path d="M391.662 263.002C391.048 261.357 391.825 260.368 393.201 259.597C395.114 258.517 395.86 257.052 394.737 254.912C394.411 254.288 393.577 253.472 395.187 252.976C396.231 252.657 395.346 251.589 395.205 250.908C395.022 250.05 394.418 250.454 393.918 250.697C392.373 251.461 391.577 250.751 391.109 249.295C390.294 246.764 388.679 246.362 386.74 248.217C386.231 248.71 385.717 248.937 385.054 248.703C384.275 248.433 384.194 247.826 384.445 247.171C384.84 246.13 384.466 244.994 383.654 244.781C382.781 244.544 381.46 245.074 381.04 245.975C380.602 246.898 380.435 246.912 379.567 246.535C378.655 246.141 377.579 246.034 376.572 246.005C373.588 245.903 372.268 243.373 370.299 241.812C370.155 241.694 370.144 241.166 370.283 240.969C371.204 239.645 370.814 238.119 371.087 236.728C371.519 234.583 370.428 233.222 369.144 232.246C365.83 229.736 361.947 228.701 357.794 229.18C355.996 229.39 355.129 228.329 354.414 227.137C353.701 225.967 353.116 225.411 351.522 225.49C349.693 225.577 348.008 224.542 346.869 222.849C345.503 220.814 343.615 220.111 341.114 220.443C339.763 220.619 338.424 219.451 336.827 220.093C336.214 220.342 336.026 219.371 336.329 218.686C336.728 217.787 337.019 216.554 335.984 216.242C334.829 215.902 333.087 215.036 332.264 216.34C330.804 218.637 329.282 217.295 327.906 216.676C326.656 216.117 325.806 215.697 324.529 216.749C323.32 217.758 321.936 216.199 320.519 216.439C319.765 216.561 318.734 215.758 318.654 217.297C318.648 217.365 318.563 217.502 318.545 217.495C315.678 216.493 314.196 220.968 311.106 219.363C310.639 219.116 309.904 219.568 309.349 220.203C308.078 221.67 306.607 222.856 304.352 222.621C302.258 222.411 300.416 223.64 298.473 224.215C294.919 225.265 291.592 224.986 288.056 224.018C284.429 223.025 280.578 223.151 276.861 223.723C273.045 224.317 269.684 224.225 266.286 221.772C263.954 220.087 260.733 220.706 257.863 221.152C257.444 221.217 257.003 221.665 257.261 221.98C259.577 224.868 254.44 224.299 255.222 226.434C251.777 225.06 249.573 229.197 246.173 228.445C244.793 228.137 243.306 228.631 242.966 230.47C242.852 231.109 242.294 231.269 241.793 231.513C239.92 232.468 237.847 233.041 236.113 234.303C235.37 234.853 234.509 234.812 233.724 234.126C233.015 233.501 232.251 232.864 231.172 233.622C231.172 234.659 233.426 234.138 232.646 235.64C232.126 236.641 228.413 237.809 227.799 237.051C226.827 235.847 225.133 235.796 224.302 234.417C223.754 233.514 222.67 233.655 221.707 233.946C221.112 234.122 220.689 234.477 220.686 235.09C220.684 236.207 221.71 236.415 222.446 236.769C223.681 237.363 224.993 237.815 226.768 238.523C224.1 239.725 222.232 241.528 219.545 240.275C219.239 240.133 218.525 240.181 218.459 240.346C217.367 242.881 214.815 243.012 212.713 243.755C206.66 245.913 200.525 247.848 194.484 250.051C191.973 250.963 189.642 250.588 187.231 249.959C186.775 249.837 186.315 249.754 185.859 249.633C185.076 249.421 183.961 249.943 183.563 248.868C183.163 247.772 184.125 247.179 184.757 246.504C185.131 246.099 185.636 245.767 185.87 245.307C186.092 244.851 186.272 244.147 186.066 243.753C185.726 243.064 185.106 243.632 184.632 243.785C183.789 244.054 182.938 244.923 182.156 243.725C181.455 242.649 181.56 241.704 182.578 240.821C183.215 240.259 183.36 239.39 182.876 238.684C182.365 237.916 181.605 238.026 180.771 238.348C179.16 238.975 177.565 239.587 175.77 239.637C174.446 239.673 173.64 239.291 172.795 238.249C171.412 236.559 170.969 235.244 173.09 233.794C174.337 232.942 174.379 231.901 173.082 230.779C169.962 228.085 167.838 224.538 165.255 221.383C164.13 220.008 164.366 218.884 165.873 217.863C167.955 216.457 170.254 216.256 172.626 216.427C176.271 216.692 179.839 216.846 183.417 215.634C184.724 215.189 186.422 215.483 187.839 215.847C191.906 216.874 195.233 215.713 198.125 212.859C199.773 211.229 201.655 211.466 203.552 212.323C204.587 212.787 206.437 212.698 206.513 213.696C206.612 214.863 204.79 215.033 203.787 215.449C202.183 216.108 202.004 218.504 199.825 218.431C199.378 218.414 199.454 219.361 199.86 219.583C201.006 220.222 202.526 221.14 203.542 220.488C206.228 218.759 209.019 220.204 211.727 219.834C213.667 219.571 215.616 219.26 217.612 219.361L217.603 218.753C216.495 218.674 215.377 218.671 214.287 218.498C213.801 218.426 213.141 218.363 213.001 217.653C212.878 217.05 213.419 216.933 213.705 216.594C215.674 214.237 218.599 213.248 221.024 211.567C222.568 210.5 224.96 211.404 226.982 210.911C230.201 210.12 233.155 208.73 236.137 207.371C236.566 207.18 236.99 206.875 237.431 206.83C241.2 206.43 243.441 204.301 244.915 200.881C246.332 197.609 249.185 195.383 251.714 192.987C252.46 192.278 253.165 191.672 253.611 190.682C254.124 189.547 254.872 188.203 256.078 187.959C258.26 187.52 259.17 185.869 260.239 184.351C261.706 182.267 263.392 180.543 265.859 179.664C267.189 179.187 267.624 177.97 267.985 176.735C268.278 175.723 268.196 174.462 269.632 174.148C271.026 173.838 271.494 174.941 272.218 175.804C271.574 174.993 273.964 173.146 271.185 173.136C270.794 173.131 270.972 172.306 271.342 171.96C273.005 170.417 275.555 171.102 276.264 173.268C277.659 172.273 278.522 170.11 280.859 171.203C280.998 171.258 281.154 171.27 281.295 171.296C281.196 168.336 285.741 169.756 285.691 166.543C285.672 165.327 287.518 165.731 288.535 165.532C289.522 165.331 289.606 166.08 289.771 166.831C289.995 167.786 290.696 168.479 291.539 168.946C292.024 169.22 292.304 168.898 292.811 168.587C295.01 167.218 294.738 164.058 296.526 163.19C298.775 162.102 299.942 159.909 302.071 158.945C304.608 157.791 305.715 155.192 307.911 153.63C309.834 152.272 311.902 151.686 314.006 151.418C316.097 151.154 316.986 149.001 319.062 148.902C323.428 148.699 326.486 145.961 329.407 143.188C332.519 140.239 335.295 136.945 338.392 133.98C339.764 132.664 340.414 130.858 340.419 129.43C340.427 126.704 341.877 124.966 343.161 122.909C344.958 120.021 345.345 116.75 344.34 113.479C343.97 112.284 343.949 111.047 344.153 110.031C345.55 102.964 343.219 96.2933 342.201 89.4918C342.093 88.8038 341.79 87.7164 340.713 88.0924C339.693 88.451 339.803 89.2605 340.204 90.2263C341.305 92.8509 341.292 95.716 341.699 98.4869C341.84 99.4494 341.653 100.624 340.61 100.812C339.613 100.988 339.333 99.8698 339.085 99.0255C337.479 93.5206 336.647 87.9717 338.423 82.3551C338.884 80.897 339.452 79.2704 340.492 78.255C343.135 75.6732 342.694 72.6069 342.03 69.6727C341.398 66.8828 341.043 64.1326 341.119 61.3127C341.222 57.5667 340.658 53.8472 340.73 50.0786C340.841 43.7576 343.024 40.8616 349.87 41.215C357.974 41.6267 365.162 44.5844 371.769 49.0019C374.522 50.8453 376.1 53.7406 377.325 56.9384C378.775 60.7095 379.822 64.6824 382.346 68.0358C383.724 69.8644 383.89 72.4079 385.28 74.3825C385.944 75.322 386.472 76.3989 387.226 77.314C391.624 82.6434 394.569 88.8842 398.253 94.664C400.982 98.9451 403.082 103.388 404.285 108.31C404.857 110.643 407.281 111.035 409.002 111.601C413.963 113.217 418.142 119.778 416.408 124.858C415.26 128.217 415.203 131.901 413.206 135.012C412.753 135.718 412.862 136.859 412.907 137.783C412.964 138.854 413.507 139.261 414.406 138.371C416.938 135.866 420.263 134.835 423.41 133.492C424.781 132.911 426.255 132.552 427.496 131.717C430.576 129.632 434.188 130.408 437.541 129.862C441.529 129.216 447.154 124.238 447.791 120.342C447.894 119.729 447.636 119.314 447.314 118.833C443.967 113.903 445.039 108.257 450.131 105.02C452.671 103.404 455.55 102.428 458.006 100.517C459.587 99.2838 462.003 99.8243 463.898 100.761C465.17 101.389 466.053 101.55 466.813 100.151C467.068 99.6889 467.551 99.3376 467.985 99.0072C470.771 96.8753 471.973 97.0222 474.159 99.858C480.832 108.482 487.478 117.125 494.144 125.766C503.204 137.507 512.27 149.231 521.327 160.98C529.712 171.858 538.062 182.752 546.466 193.607C559.766 210.796 573.097 227.957 586.412 245.131C588.19 247.422 589.918 249.763 591.728 252.026C592.547 253.057 592.579 253.785 591.37 254.491C590.922 254.756 590.568 255.239 590.266 255.693C588.726 257.959 587.347 258.436 584.697 257.521C583.775 257.203 582.832 256.837 583.581 255.515C583.958 254.849 583.913 253.824 583.502 253.489C580.893 251.36 579.589 247.728 575.83 246.914C574.486 246.62 573.251 246.681 571.308 247.205C575.177 249.665 579.892 250.458 580.895 255.45C576.907 252.329 571.902 250.595 568.678 246.469C569.182 245.28 570.325 246.713 570.716 245.68C571.094 244.683 570.241 244.091 569.932 243.323C569.114 241.254 567.299 240.017 565.817 238.55C564.156 236.9 562.231 235.508 560.938 233.492C560.448 232.722 559.604 232.083 558.803 232.146C556.089 232.353 554.611 230.394 552.754 229.059C551.412 228.101 550.117 226.799 549.036 229.611C548.516 230.965 547.498 229.471 546.832 229.044C546.174 228.621 545.531 227.881 545.638 227.108C545.767 226.202 546.701 226.515 547.383 226.474C548.496 226.414 548.352 225.612 548.092 224.924C547.832 224.236 547.452 223.52 548.265 223.049C549.075 222.586 549.788 223.123 550.391 223.635C552.231 225.215 554.279 226.576 555.604 228.715C555.921 229.235 556.44 230.207 557.213 229.559C557.864 229.013 557.031 228.449 556.658 228.018C555.089 226.163 553.858 224.041 552.004 222.395C551.028 221.532 549.846 220.88 548.852 221.148C545.89 221.951 544.694 219.792 543.167 218.186C542.249 217.226 541.538 216.076 540.475 215.229C539.879 214.749 539.239 214.182 539.45 213.249C540.125 210.265 538.34 208.093 536.72 206.087C535.621 204.722 534.199 203.56 533.009 202.22C532.605 201.767 531.987 201.269 531.438 201.231C527.313 200.955 526.16 197.273 524.017 194.786C522.637 193.189 521.637 191.652 521.733 189.061C521.847 186.095 519.713 183.381 517.936 180.859C516.183 178.377 514.358 176.028 510.826 176.211C510.291 176.239 509.852 175.772 509.502 175.31C507.718 173.007 505.915 170.727 504.116 168.438C503.663 167.855 503.403 167.217 503.642 166.467C504.646 163.241 502.733 160.706 501.521 158.057C500.881 156.654 499.821 155.445 498.946 154.149C497.768 152.401 496.118 151.481 494.109 152.221C492.54 152.793 491.925 152.085 491.338 150.954C491.027 150.367 490.962 149.344 489.959 149.76C488.847 150.222 489.881 150.917 489.944 151.516C490.231 154.209 492.748 153.46 494.183 153.982C498.71 155.626 499.366 159.897 501.212 163.383C501.327 163.6 501.215 164.21 501.076 164.255C499.244 164.854 499.659 166.671 498.968 167.846C497.969 169.542 498.775 170.075 500.015 170.378C503.541 171.22 504.512 174.549 506.519 176.85C506.989 177.39 506.816 178.026 506.314 178.551C504.427 180.527 505.082 182.753 506.091 184.696C507.374 187.192 508.955 189.575 510.669 191.799C511.953 193.46 513.558 194.946 515.983 194.856C517.529 194.797 518.666 195.613 519.558 196.815C520.45 198.017 521.267 199.279 522.275 200.366C523.386 201.575 523.814 202.803 523.423 204.44C523.025 206.094 523.443 207.701 524.343 209.188C525.43 211.011 526.632 212.75 527.895 214.462C529.883 217.138 532.392 218.582 535.748 218.258C536.932 218.146 537.65 218.493 538.304 219.459C539.877 221.809 542.065 223.628 542.054 227.018C542.037 229.841 544.664 231.725 546.645 233.532C548.931 235.612 548.981 238.825 550.949 241.02C551.375 241.492 550.714 242.114 550.267 242.601C547.72 245.322 547.179 249.991 549.912 253.125C551.806 255.301 553.323 257.769 555.735 259.506C557.315 260.65 557.013 262.041 555.237 262.954C553.517 263.829 551.584 263.874 549.75 264.3C549.305 264.405 548.484 264.138 548.276 263.773C546.969 261.489 544.396 261.672 542.464 260.65C542.395 260.622 542.31 260.608 542.243 260.572C540.785 259.93 541.696 263.032 540.129 261.954C539.242 261.348 538.672 260.275 537.32 260.834C536.228 261.295 534.831 260.778 533.96 262.103C533.577 262.685 532.682 262.147 532.318 261.72C531.247 260.436 529.914 260.519 528.455 260.562C524.464 260.682 520.451 260.431 516.475 260.971C515.731 261.067 515.137 260.659 514.514 260.3C513.693 259.831 512.785 259.429 511.745 260.444C513.573 261.928 515.799 262.816 517.36 264.567C517.616 264.86 518.108 265.016 518.236 265.329C520.664 271.172 525.763 269.409 530.187 269.541C530.575 269.555 530.962 269.367 531.35 269.381C531.844 269.406 532.581 269.126 532.667 269.946C532.729 270.525 532.145 270.725 531.701 270.8C530.338 271.032 529.008 271.79 527.577 271.129C527.008 270.862 526.393 270.737 526.363 271.571C526.289 273.526 525.059 274.385 523.492 275.18C521.973 275.954 520.461 276.358 518.788 276.255C518.484 276.235 517.929 276.134 517.908 276.186C517.443 277.935 515.573 277.541 514.536 277.994C510.514 279.734 506.725 281.929 502.678 283.608C499.557 284.912 496.854 284.106 494.299 282.372C493.411 281.766 492.725 281.16 491.566 281.564C490.794 281.83 490.263 281.165 489.669 280.807C489.214 280.535 488.8 279.826 488.253 280.112C485.093 281.742 483.064 278.687 480.41 278.263C479.946 278.188 479.458 277.39 479.052 278.154C478.199 279.738 476.504 279.032 475.462 279.573C472.604 281.051 471.242 278.776 470.044 277.483C467.255 274.466 463.609 273.445 460.063 271.971C457.41 270.862 454.582 270.42 451.934 269.374C451.716 269.287 451.417 269.228 451.302 269.061C449.664 266.545 448.234 268.361 446.982 269.403C445.929 270.272 444.732 270.369 443.304 270.434C444.863 272.718 447.433 272.695 449.183 274.047C449.969 274.653 451.825 274.628 451.335 275.983C450.796 277.46 449.306 276.393 447.913 276.119C449.681 279.977 445.978 279.276 444.564 280.293C441.391 282.563 437.599 282.591 433.839 282.361C431.82 282.24 430.399 281.936 429.172 279.704C428.183 277.91 426.314 276.278 424.771 274.635C424.156 273.977 423.663 274.153 423.23 274.756C422.837 275.314 422.531 275.927 422.193 276.497C421.299 276.262 421.053 275.539 421.129 274.995C421.345 273.339 421.406 272.226 419.067 272.632C418.243 272.777 418.187 271.324 417.965 270.541C417.109 267.48 415.119 266.123 412.155 266.703C411.366 266.862 411.167 267.538 410.899 268.236C410.547 269.143 409.936 269.665 409.407 268.286C409.126 267.549 409.013 266.719 407.813 267.227C407.071 267.546 407.029 266.713 406.761 266.274C406.08 265.126 405.535 264.013 403.7 264.519C402.214 264.934 398.899 263.31 398.367 262.242C397.25 263.78 396.173 264.458 394.722 262.51C393.722 261.174 392.608 262.019 391.718 262.964L391.728 262.988L391.662 263.002ZM380.362 141.775C380.283 139.648 381.071 138.734 382.687 139.308C385.143 140.177 387.567 140.368 390.09 139.833C390.651 139.714 391.59 139.938 391.125 140.498C389.329 142.651 390.821 144.294 391.667 146.092C391.963 146.714 392.011 147.528 392.966 147.537C393.874 147.536 394.118 146.797 394.374 146.154C395.279 143.886 396.752 142.087 398.952 141.021C402.582 139.276 403.837 136.634 402.349 132.908C401.548 130.897 401.128 128.866 401.136 126.774C401.142 125.467 400.835 124.317 400.501 123.106C399.32 118.889 397.683 114.802 396.5 110.613C395.408 106.753 394.076 102.888 392.376 99.4407C388.393 91.3259 384.489 83.1415 379.649 75.4304C376.959 71.1545 373.735 67.3811 370.747 63.3696C368.657 60.5719 365.266 60.1763 362.442 58.7377C359.877 57.4329 359.597 57.6033 359.01 60.2898C358.932 60.6617 358.715 61.0284 358.516 61.3517C357.719 62.565 357.878 63.9878 358.562 64.9256C359.67 66.4452 360.555 67.6139 358.498 68.9792C358.16 69.1966 358.23 69.6274 358.363 70.053C359.409 73.4716 360.309 76.9025 359.433 80.5413C359.299 81.1026 359.561 81.7609 359.639 82.3759C359.739 83.1612 359.921 84.1201 359.357 84.6504C358.066 85.8884 358.527 87.4118 358.462 88.8157C358.43 89.5281 358.451 90.2317 358.145 90.8748C357.063 93.1325 358.431 95.8941 356.643 98.0011C356.586 98.0689 356.71 98.2895 356.748 98.4458C357.044 99.601 356.526 99.7873 355.434 99.9965C353.755 100.314 352.172 99.6824 350.545 99.8694C350.091 99.9201 349.557 100.07 349.434 100.605C349.322 101.114 349.71 101.481 350.045 101.805C350.351 102.099 350.828 102.319 351.083 101.957C352.376 100.106 354.113 101.161 355.551 101.423C357.015 101.695 358.687 102.382 359.319 103.832C360.198 105.875 361.365 106.995 363.683 107.174C367.807 107.499 369.135 109.076 368.432 112.784C367.522 117.568 369.209 121.655 373.235 124.631C374.302 125.419 375.799 126.015 376.313 127.077C377.187 128.906 378.478 128.827 379.775 128.306C381.36 127.669 382.707 128.337 384.141 128.557C384.703 128.64 385.355 128.749 385.278 129.474C385.211 130.122 384.527 129.789 384.159 129.954C382.842 130.577 380.458 130.966 381.376 132.863C382.518 135.232 381.573 136.084 379.93 137.322C378.25 138.576 378.495 140.919 380.369 141.757L380.362 141.775ZM339.808 192.014C337.865 191.45 335.933 190.76 333.861 191.253C332.658 191.539 331.605 192.106 331.027 193.124C330.602 193.861 332.512 197.896 333.249 197.918C335.673 198.009 337.536 199.709 339.887 200.032C343.557 200.539 347.024 201.68 348.908 205.171C350.275 207.71 352.607 207.552 354.775 207.702C356.74 207.831 357.446 206.541 356.607 204.877C356.381 204.434 356.577 204.17 356.766 203.823C357.234 202.952 357.094 202.191 356.338 201.507C355.947 201.149 355.652 200.75 355.771 200.072C356.187 197.79 354.876 196.351 353.037 195.426C352.036 194.926 351.093 194.409 350.266 193.677C349.366 192.874 348.378 192.773 347.206 192.879C344.692 193.116 342.185 193.032 339.822 192.029L339.808 192.014ZM351.871 104.659C350.288 103.926 347.489 105.459 347.557 107.309C347.721 111.373 347.301 115.688 350.606 118.98C351.327 119.7 351.97 120.793 353.101 119.904C354.042 119.162 354.263 118.001 353.568 116.938C352.433 115.206 352.603 113.441 352.997 111.543C353.323 109.941 353.321 108.329 351.605 107.222C350.893 106.756 350.464 105.86 349.947 105.211C350.544 104.371 351.264 105.524 351.862 104.655L351.871 104.659ZM360.359 145.49C361.224 145.875 361.959 145.826 362.728 145.136C364.51 143.55 365.081 141.26 364.102 139.037C363.832 138.425 363.317 138.049 362.682 137.896C361.734 137.669 361.846 138.55 361.511 139.011C360.916 139.821 360.799 140.872 359.921 141.559C358.199 142.917 358.436 144.623 360.356 145.499L360.359 145.49Z" fill="#BEC8BE"/>
<path d="M352.653 299.938C351.951 297.171 352.561 294.302 351.759 291.585C351.436 290.499 351.101 289.419 352.362 288.683C352.795 288.432 353.487 288.316 353.647 288.722C354.094 289.827 355.257 290.754 354.654 292.165C354.567 292.382 354.451 292.598 354.333 292.792C353.97 293.373 353.738 294.257 354.465 294.356C355.166 294.444 356.482 294.455 356.547 293.232C356.584 292.633 356.342 292.103 357.171 292.122C357.841 292.137 358.371 292.449 358.407 293.269C358.451 294.374 358.546 295.45 357.666 296.368C357.341 296.701 356.832 297.244 357.351 297.813C357.778 298.286 358.284 298.105 358.864 297.964C360.21 297.624 362.226 296.233 361.612 299.543C361.452 300.426 364.091 300.481 365.378 299.504C366.116 298.942 366.67 298.186 367.834 298.529C368.86 298.838 369.545 299.091 369.259 300.417C368.581 303.581 369.791 306.592 370.264 309.651C370.585 311.703 371.727 312.128 373.319 310.789C375.218 309.189 376.355 310.861 377.143 311.82C378.405 313.331 379.714 312.604 380.325 311.88C382.021 309.878 384.202 308.351 386.416 307.451C388.545 306.588 389.146 305.992 388.96 303.702C388.863 302.555 390.311 301.199 391.238 300.088C391.796 299.424 392.719 299.762 393.462 300.048C394.115 300.309 393.936 300.832 393.993 301.398C394.572 306.494 390.81 309.858 389.044 314.008C387.713 317.144 384.95 318.358 381.926 319.569C378.642 320.878 376.634 323.965 374.325 326.569C376.769 325.802 378.538 323.969 380.782 322.87C382.722 321.921 384.488 322.626 386.303 322.423C387.19 322.323 386.965 323.19 386.46 323.523C384.173 325.008 382.853 327.231 381.785 329.605C380.241 333.048 376.733 334.056 374.048 336.087C373.496 336.512 372.774 336.728 372.236 337.167C371.098 338.124 370.191 338.527 369.782 336.571C369.735 336.361 369.559 336.17 369.437 335.97C368.216 337.236 366.536 335.508 365.009 336.934C362.988 338.817 361.196 340.933 359.459 342.989C356.095 346.976 352.68 350.911 349.27 354.859C348.413 355.847 347.252 356.583 346.231 357.424C344.656 358.72 343.527 360.183 344.103 362.508C345.735 361.93 345.972 360.322 346.873 359.302C348.231 357.769 350.438 357.138 351.188 354.929C351.427 354.229 352.877 353.679 353.403 354.382C354.08 355.287 355.763 356.15 354.576 357.761C353.083 359.784 351.537 361.766 350.022 363.77C347.927 366.52 345.8 369.248 343.78 372.038C343.239 372.789 342.386 373.284 341.812 373.055C338.541 371.751 337.107 374.362 335.807 376.18C334.465 378.052 332.447 378.687 330.851 378.796C328.496 378.965 326.275 380.385 323.723 379.529C323.066 379.307 321.57 380.453 321.083 381.749C320.519 383.266 319.158 383.973 317.896 383.167C316.852 382.499 317.132 381.09 317.735 379.83C318.328 378.596 319.748 377.994 319.972 376.371C320.035 375.883 320.492 375.118 320.447 374.395C320.412 373.928 320.185 373.384 320.555 373.038C323.167 370.585 322.686 366.556 325.291 364.12C319.253 369.628 313.577 375.442 307.788 381.261C309.493 378.376 308.999 374.583 312.214 372.109C310.724 371.877 309.73 371.41 309.303 370.182C308.2 371.102 308.048 372.19 307.885 373.283C307.766 374.061 307.243 374.588 306.511 374.729C305.287 374.966 305.347 373.68 304.786 373.114C304.169 372.486 304.234 371.716 304.997 371.346C306.749 370.493 306.951 367.28 309.943 368.222C310.517 368.4 310.613 367.099 310.88 366.48C311.915 364.113 311.534 361.856 310.043 359.781C309.729 359.354 309.614 358.935 309.836 358.48C310.148 357.849 310.746 357.866 311.266 358.053C312.719 358.582 314.041 358.656 315.059 357.239C316.123 355.76 315.596 354.351 314.732 353.08C313.504 351.281 313.892 349.623 315.007 348.043C315.926 346.748 316.61 345.49 316.731 343.796C316.874 341.818 318.725 340.895 320.189 339.877C321.666 338.855 322.932 337.778 322.444 335.741C321.991 333.868 324.784 334.146 324.489 333.243C323.897 331.415 324.765 330.905 326.071 330.54C327.261 330.209 327.928 329.498 327.7 328.349C327.115 325.367 328.891 322.761 328.878 319.886C328.879 319.604 329.039 319.204 329.258 319.06C331.563 317.552 332.369 315.859 330.163 313.579C329.771 313.171 329.92 312.445 330.27 312.021C330.914 311.24 330.84 310.768 330.227 309.879C329.346 308.6 330.899 308.092 331.626 307.687C333.406 306.685 333.484 305.96 331.603 305.089C330.286 304.473 329.615 303.702 331.139 302.537C331.573 302.207 332.026 301.904 331.337 301.257C329.89 299.904 329.902 296.384 331.358 295.061C332.427 294.098 331.963 293.822 330.897 293.689C329.742 293.55 329.83 293.052 330.103 292.063C330.643 290.103 331.795 288.377 331.451 286.054C331.214 284.449 330.184 283.544 329.456 282.539C328.008 280.531 327.114 278.271 326.115 276.1C323.527 270.505 318.91 267.999 313.235 266.582C309.495 265.644 305.748 264.624 302.263 262.77C299.785 261.45 297 260.722 294.467 259.49C289.536 257.09 284.248 255.837 279.011 254.433C277.6 254.052 276.091 253.944 275.79 251.941C275.55 250.344 274.275 251.165 273.924 251.69C273.032 253.016 271.849 252.595 270.648 252.75C265.455 253.459 260.358 252.413 255.221 252.147C254.461 252.106 253.625 252.306 252.93 252.633C249.618 254.163 246.072 253.876 242.582 254.106C238.295 254.391 234.007 253.285 229.709 254.229C227.386 254.743 224.934 253.232 222.576 254.467C222.231 254.651 221.7 254.49 221.616 254.044C221.481 253.345 222.112 253.406 222.543 253.336C227.637 252.446 232.727 251.566 237.82 250.676C240.835 250.146 244.042 249.814 246.806 249.002C249.352 248.255 251.616 248.342 254.038 248.261C265.474 247.876 276.831 246.222 288.277 245.963C292.001 245.877 295.585 246.953 299.266 247.304C300.402 247.414 301.433 248.47 302.531 249.079C306.053 251.017 309.653 252.836 313.083 254.929C314.55 255.826 316.19 255.987 317.651 256.67C321.525 258.487 325.366 260.382 329.12 262.423C331.838 263.899 334.917 264.674 337.191 267.011C339.709 269.596 341.234 272.521 342.218 276.046C343.216 279.637 343.979 283.537 346.95 286.303C347.51 286.818 347.151 287.491 347.361 288.078C348.778 292.158 350.512 296.103 352.637 299.901L352.653 299.938Z" fill="#BEC8BE"/>
<path d="M194.76 286.671C197.227 283.949 196.489 281.529 194.839 279.169C194.222 278.289 194.524 277.684 195.281 277.2C195.943 276.779 196.673 276.466 197.356 276.094C198.706 275.363 199.534 275.462 200.181 277.15C201.575 280.808 203.004 284.48 205.655 287.491C206.441 288.379 207.157 289.541 208.537 288.912C209.913 288.293 209.989 287.014 209.669 285.668C209.241 283.835 208.828 281.988 208.444 280.144C208.336 279.607 208.236 278.973 208.668 278.571C209.273 278.016 209.654 278.702 210.049 279.001C210.888 279.628 211.821 279.818 212.695 279.27C213.66 278.669 213.487 277.663 213.23 276.714C213.027 275.958 212.941 275.138 212.617 274.435C211.851 272.79 211.487 271.023 213.205 270.027C214.991 268.987 217.182 268.068 219.187 269.462C221.104 270.8 222.26 270.909 223.33 268.505C224.056 266.861 227.371 266.159 228.739 267.429C229.871 268.485 231.273 268.561 232.44 269.298C233.239 269.798 234.223 269.858 234.878 269.203C237.457 266.605 240.684 267.741 243.574 267.877C245.751 267.98 248.447 267.514 250 269.966C251.844 268.375 253.448 270.244 255.164 270.314C259.338 270.467 263.353 271.142 267.115 273.086C268.614 273.855 270.095 272.693 271.73 272.942C282.224 274.539 291.917 278.576 301.664 282.473C306.379 284.354 311.252 285.864 315.88 287.911C319.084 289.33 321.955 291.462 323.995 294.461C325.743 297.031 324.816 299.381 321.838 299.996C319.376 300.505 318.587 302.003 319.656 304.303C320.403 305.92 321.347 307.294 320.157 309.317C319.493 310.452 321.257 311.539 322.013 312.575C322.456 313.185 323.202 313.563 323.815 314.049C324.607 314.667 325.835 315.177 325.375 316.383C324.959 317.477 323.995 318.2 322.684 318.402C319.129 318.948 318.722 319.793 320.36 323.015C320.563 323.418 321.151 323.864 320.786 324.273C319.083 326.192 320.067 328.125 320.671 330.048C321.202 331.75 320.911 332.732 318.86 332.871C316.996 332.994 315.811 333.841 316.873 335.956C317.454 337.104 317.02 337.787 315.897 338.075C313.587 338.684 312.121 339.681 313.488 342.371C313.885 343.144 313.69 343.963 312.795 344.361C309.952 345.624 309.815 348.168 309.919 350.687C309.975 352.039 309.818 352.964 308.455 353.498C307.666 353.808 307.215 354.433 307.396 355.372C307.578 356.33 308.317 357.461 307.318 358.221C305.659 359.473 304.316 361.324 301.974 361.458C300.293 361.553 298.682 361.293 297.208 360.413C295.548 359.419 293.737 358.928 291.802 359.103C289.766 359.278 288.951 360.917 290.068 362.592C290.974 363.96 292.002 365.226 293.269 366.295C292.684 367.029 291.98 367.201 291.295 366.948C289.985 366.466 288.845 366.999 287.632 367.31C285.888 367.763 285.879 368.696 286.816 369.886C288.043 371.463 289.722 372.485 291.445 373.424C294.352 375.006 294.522 375.567 293.084 378.489C292.205 380.264 292.819 381.455 294.857 381.754C295.781 381.891 296.749 381.713 297.679 381.832C299.34 382.042 300.04 382.663 300.827 384.608C302.326 388.308 299.833 388.996 297.978 390.512C296.877 391.403 295.921 391.223 294.755 390.556C290.041 387.84 286.219 384.554 286.249 378.513C286.256 378.143 286.09 377.724 285.883 377.41C283.215 373.556 283.178 369.099 283.118 364.724C283.06 360.471 288.765 355.394 293.004 355.635C297.628 355.897 301.132 353.407 302.657 348.899C305.196 341.371 308.448 334.177 313.149 327.723C314.911 325.303 316.176 322.636 316.047 319.673C315.812 314.272 316.404 308.868 315.908 303.463C315.262 296.387 312.85 295.203 305.783 294.469C290.363 292.862 275.719 289.157 261.918 281.971C254.206 277.949 245.801 275.564 237.193 274.598C231.868 273.995 226.389 274.409 221.058 275.667C219.69 275.987 219.199 276.587 219.35 277.926C219.49 279.17 219.491 280.43 219.597 281.681C219.896 285.003 218.23 287.259 215.566 288.856C214.491 289.504 214.061 290.229 213.929 291.446C213.501 295.425 211.835 297.479 208.576 298.345C205.226 299.235 202.589 298.213 200.202 295.096C199.579 294.284 198.959 293.462 198.418 292.592C197.984 291.885 197.428 291.714 196.635 291.78C192.372 292.104 189.279 289.823 186.279 287.207C182.23 283.658 179.989 279.038 178.19 274.12C177.469 272.161 175.607 271.217 174.23 269.842C172.191 267.8 172.173 267.692 174.543 266.351C176.159 265.435 177.935 264.723 179.639 265.835C181.254 266.892 180.945 268.703 180.761 270.352C180.39 273.608 181.365 276.525 183.102 279.222C183.693 280.142 184.483 280.941 185.102 281.842C185.668 282.673 186.073 283.831 187.29 283.662C188.552 283.48 188.679 282.403 188.648 281.293C188.64 280.806 189.234 280.227 189.565 280.712C191.059 282.909 194.698 283.111 194.774 286.687L194.76 286.671Z" fill="#BEC8BE"/>
<path d="M325.159 286.133C323.94 285.626 322.744 284.958 321.336 285.202C320.383 285.366 319.649 284.832 319.031 284.233C317.274 282.545 314.844 282.19 312.817 281.029C312.389 280.788 311.899 281.006 311.762 281.273C310.643 283.395 308.87 282.406 307.461 282.046C301.201 280.425 294.77 278.777 289.218 275.636C285.193 273.366 280.808 272.353 276.846 270.229C276.089 269.826 274.975 269.483 275.235 268.478C275.546 267.293 276.886 267.092 277.779 267.458C280.441 268.57 281.94 267.768 282.669 265.057C282.767 264.684 283.3 264.181 283.664 264.155C286.037 263.994 286.756 262.266 287.31 260.422C287.701 259.138 288.527 258.813 289.612 259.276C291.19 259.946 292.826 260.648 294.402 261.146C296.945 261.949 299.011 263.619 301.572 264.428C303.311 264.971 305.442 265.519 306.597 267.883C307.611 269.939 310.502 270.377 312.697 271.091C313.894 271.478 315.048 271.948 316.114 272.534C317.331 273.201 317.948 273.548 319.43 272.487C321.221 271.207 322.808 273.421 323.738 274.679C324.85 276.19 326.366 277.57 326.793 279.533C327.274 281.739 327.552 283.975 328.637 286.059C329.029 286.82 327.796 287.003 327.135 286.891C326.457 286.771 325.82 286.397 325.159 286.133Z" fill="#BEC8BE"/>
<path d="M392.388 317.86C392.265 313.188 393.361 309.556 397.26 306.478C399.883 304.402 402.439 301.987 404.957 299.667C407.685 297.15 411.19 295.566 414.5 293.815C415.537 293.261 416.643 292.866 417.57 292.108C418.049 291.715 418.565 291.256 419.24 291.334C422.496 291.716 425.794 290.221 429.016 291.546C430.531 292.171 431.805 291.48 433.183 290.983C435.188 290.252 437.446 290.658 439.419 289.35C440.86 288.394 445.714 290.481 446.523 292.042C446.948 292.847 446.544 293.33 445.882 293.801C444.657 294.672 443.179 294.788 441.827 294.893C434.617 295.452 427.536 297.583 420.302 297.317C414.527 297.109 412.076 301.006 409.224 304.642C407.537 306.8 406.102 309.158 404.582 311.453C403.68 312.805 402.582 313.939 400.945 314.253C397.889 314.837 395.32 316.551 392.367 317.862L392.388 317.86Z" fill="#BEC8BE"/>
<path d="M419.26 276.446C418.83 279.85 417.176 282.403 414.303 284.148C413.787 284.455 413.737 285.01 413.659 285.583C413.487 286.824 412.689 287.915 411.599 288.146C410.224 288.433 409.455 286.998 409.165 286.007C408.741 284.568 408.384 284.023 406.678 284.128C404.984 284.228 405.76 282.916 406.291 282.191C408.912 278.603 413.395 275.678 417.736 274.579C418.386 274.415 418.796 274.649 419.181 275.075C419.571 275.512 419.753 276.018 419.268 276.449L419.26 276.446Z" fill="#BEC8BE"/>
<path d="M556.806 255.885C554.103 254.777 552.455 252.891 551.162 250.723C550.221 249.139 551.2 247.113 553.161 245.458C554.639 244.204 555.579 244.78 557.02 245.717C559.707 247.474 560.582 250.563 562.773 252.705C564.376 254.271 562.674 256.493 559.989 256.449C558.836 256.433 557.686 256.055 556.806 255.885Z" fill="#BEC8BE"/>
<path d="M391.651 262.978C391.046 264.318 391.85 265.816 392.48 266.36C393.995 267.669 393.612 269.943 395.373 271.039C396.061 271.464 395.235 271.991 394.782 272.193C392.667 273.122 392.184 274.662 392.903 276.751C393.424 278.278 392.321 279.097 391.232 279.348C389.828 279.684 389.664 278.451 389.647 277.356C389.626 276.019 389.244 275.181 387.651 275.815C386.886 276.114 386.214 275.776 385.85 275.097C385.413 274.298 386.221 274.116 386.646 273.682C387.605 272.694 389.406 271.489 386.3 270.935C385.839 270.852 385.348 270.314 385.895 269.928C387.327 268.917 386.963 267.654 386.577 266.372C386.43 265.881 386.48 265.075 386.748 265.161C389.07 265.886 389.571 262.631 391.662 263.002L391.651 262.978Z" fill="#BEC8BE"/>
<path d="M518.113 188.453C517.036 189.333 516.085 190.505 514.856 190.982C513.961 191.33 513.547 189.865 512.924 189.204C511.24 187.435 510.093 185.305 508.921 183.186C508.634 182.669 508.32 182.09 508.992 181.795C510.179 181.271 511.124 180.721 511.495 179.287C511.65 178.695 512.621 178.891 513.103 179.375C515.461 181.756 516.767 184.774 518.129 187.755C518.217 187.941 518.118 188.214 518.104 188.45L518.113 188.453Z" fill="#BEC8BE"/>
<path d="M536.549 211.749C534.4 211.93 534.988 213.564 534.687 214.874C534.518 215.603 533.446 215.457 532.888 215.013C530.331 212.956 528.934 210.012 527.17 207.354C526.761 206.738 527.055 205.899 527.745 205.509C528.555 205.046 529.302 204.69 529.784 203.734C530.292 202.738 531.114 203.307 531.671 203.932C533.56 206.045 535.071 208.4 536.28 210.957C536.381 211.159 536.421 211.386 536.536 211.755L536.549 211.749Z" fill="#BEC8BE"/>
<path d="M261.93 254.843C263.652 255.781 265.713 255.596 267.274 256.762C268.028 257.325 268.759 257.919 269.424 258.577C269.735 258.882 269.985 259.747 269.422 259.694C267.201 259.473 266.227 261.512 264.501 262.123C263.575 262.448 262.613 262.659 261.853 261.912C261.024 261.108 261.452 260.161 261.906 259.325C262.838 257.622 262.555 256.764 260.427 257.094C260.199 257.134 259.935 257.189 259.732 257.118C258.747 256.806 256.986 256.95 257.156 255.739C257.328 254.548 258.689 253.691 260.305 254.114C260.933 254.284 261.481 254.502 261.926 254.851L261.93 254.843Z" fill="#BEC8BE"/>
<path d="M205.374 256.721C206.145 257.089 206.033 257.548 205.614 257.864C205.124 258.233 204.563 258.553 203.981 258.724C201.094 259.566 198.464 260.623 196.67 263.352C195.438 265.227 193.245 265.038 191.296 264.592C190.014 264.293 189.993 262.904 191.12 261.823C193.424 259.61 196.408 258.876 199.346 258.134C200.712 257.793 202.05 257.37 203.418 257.049C204.098 256.887 204.802 256.815 205.374 256.721Z" fill="#BEC8BE"/>
<path d="M154.138 223.698C154.749 222.975 154.698 220.879 156.258 221.391C157.705 221.857 157.332 223.602 156.901 224.91C156.006 227.635 156.81 230.323 157.046 233.016C157.083 233.453 157.508 233.905 156.999 234.296C156.49 234.687 156.038 234.457 155.497 234.221C152.322 232.803 152.358 232.838 152.894 229.144C153.154 227.354 153.351 225.57 154.138 223.698Z" fill="#BEC8BE"/>
<path d="M166.223 235.235C165.368 234.471 164.198 234.196 163.169 233.665C161.271 232.686 160.972 229.112 162.636 227.772C163.541 227.045 164.464 227.081 165.387 227.852C167.439 229.557 167.705 232.05 168.102 234.393C168.331 235.764 167.126 235.424 166.214 235.232L166.223 235.235Z" fill="#BEC8BE"/>
<path d="M208.831 257.838C208.521 257.704 207.871 257.515 207.837 256.918C207.78 256.049 208.646 256.102 209.192 255.947C210.32 255.622 211.184 255.402 212.527 256.23C214.111 257.214 216.418 257.067 218.451 257.001C219.063 256.983 219.873 256.823 220.067 257.575C220.284 258.447 219.425 258.78 218.799 258.983C216.594 259.685 214.415 261.102 212.129 258.871C211.441 258.194 210.085 258.207 208.828 257.846L208.831 257.838Z" fill="#BEC8BE"/>
<path d="M250.737 257.046C251.901 257.994 253.354 258.321 254.799 258.717C255.759 258.989 256.538 259.793 257.66 258.8C258.066 258.438 259.205 258.792 259.806 259.384C260.159 259.736 260.343 260.263 259.985 260.654C259.403 261.278 258.688 262.06 257.801 261.858C254.94 261.22 251.784 261.472 249.42 259.21C248.871 258.689 247.843 258.309 248.343 257.411C248.83 256.517 249.832 256.786 250.744 257.029L250.737 257.046Z" fill="#BEC8BE"/>
<path d="M247.317 260.537C248.492 261.056 250.278 261.204 249.796 262.613C249.486 263.517 247.846 262.802 246.809 262.469C245.737 262.123 244.689 262.047 243.568 262.406C242.713 262.679 241.812 262.511 241.299 261.622C240.884 260.892 240.805 260.105 241.359 259.399C242.079 258.478 242.895 258.935 243.696 259.304C244.91 259.849 246.355 259.74 247.305 260.542L247.317 260.537Z" fill="#BEC8BE"/>
<path d="M133.63 174C135.246 174.839 137.089 175.167 136.629 177.097C136.087 179.369 133.986 178.956 132.385 178.812C119.814 177.693 107.222 176.951 94.6104 176.582C87.9433 176.387 81.2648 176.315 74.5958 176.467C66.8295 176.644 63.5623 173.186 65.0123 165.533C66.0279 160.175 67.3483 154.87 68.6945 149.584C69.2561 147.377 68.6568 146.091 66.5417 145.384C57.5623 142.374 48.8473 138.673 40.0171 135.274C31.5023 131.997 23.3102 128.029 14.9888 124.336C13.8357 123.826 12.7517 123.07 13.1868 121.583C13.6093 120.134 14.9363 120.115 16.1777 120.066C18.4485 119.979 20.3949 121.141 22.4889 121.715C41.4329 126.934 60.6647 130.892 79.9006 134.825C85.609 135.991 87.6305 139.305 85.9367 144.841C84.4825 149.592 83.3088 154.444 81.6282 159.112C80.4651 162.346 81.7777 163.136 84.5899 163.581C96.445 165.458 108.185 167.927 119.879 170.622C124.605 171.712 129.301 172.932 133.628 173.999L133.63 174Z" fill="#BEC8BE"/>
<path d="M96.3964 130.008C98.7311 126.003 101.278 121.597 103.863 117.213C105.213 114.923 104.865 113.063 103.16 110.95C92.9658 98.3087 82.8645 85.5882 72.8522 72.8021C71.835 71.5021 69.2527 69.8598 71.489 67.9442C73.3201 66.3775 74.8008 68.6201 76.0689 69.7206C89.2387 81.1396 102.358 92.6198 115.477 104.097C116.57 105.051 117.555 106.127 118.622 107.112C122.186 110.398 122.804 112.632 120.731 117.083C118.736 121.362 116.647 125.641 114.124 129.616C112.43 132.283 113.215 133.475 115.378 135.16C125.981 143.417 136.719 151.511 146.826 160.384C147.862 161.293 149.702 162.162 148.726 163.835C147.622 165.729 145.869 164.522 144.541 163.848C132.647 157.817 120.792 151.712 108.905 145.665C105.987 144.181 103.01 142.804 100.047 141.408C94.3842 138.743 93.4279 136.036 96.3953 130.005L96.3964 130.008Z" fill="#BEC8BE"/>
<path d="M169.401 101.485C168.668 103.103 167.441 104.251 165.886 105.04C162.21 106.907 158.608 108.963 154.801 110.519C152.159 111.6 151.945 112.807 153.103 115.172C157.855 124.869 162.473 134.632 167.136 144.372C167.764 145.686 168.458 146.98 168.937 148.346C169.419 149.722 170.901 151.454 168.879 152.511C166.969 153.506 165.762 151.75 164.739 150.418C161.124 145.703 157.606 140.911 153.99 136.198C147.718 128.018 141.39 119.882 135.103 111.714C130.834 106.167 132.973 100.917 139.802 99.4342C143.69 98.5886 147.557 97.5085 151.23 95.8154C153.155 94.9278 153.734 93.8636 153.196 91.846C148.987 76.1528 144.831 60.4466 140.653 44.7452C140.527 44.2764 140.301 43.8335 140.199 43.3628C139.924 42.0913 139.191 40.4962 140.778 39.8053C142.648 38.9912 143.279 40.762 143.893 42.0419C149.045 52.7544 154.16 63.4844 159.297 74.2046C162.491 80.8697 165.63 87.5641 168.949 94.1672C170.188 96.6331 170.503 98.9687 169.403 101.488L169.401 101.485Z" fill="#BEC8BE"/>
</svg>
