<svg width="145" height="163" viewBox="0 0 145 163" fill="none" xmlns="http://www.w3.org/2000/svg">
<path d="M90.1372 40.4552C89.2615 33.9376 86.987 27.8745 84.1874 21.9686C82.5954 18.6125 81.0765 15.2208 79.5671 11.8254C78.5245 9.48137 77.0563 7.55638 74.2604 8.84719C71.6202 10.0669 72.2953 12.3773 73.2797 14.4557C76.1281 20.4645 79.3646 26.3162 81.8079 32.4803C86.2407 43.658 83.2986 48.2375 74.6523 51.313C68.9557 53.339 63.2853 55.438 57.6317 57.58C56.0997 58.1599 53.8927 58.7025 54.729 60.9661C55.5541 63.2035 57.598 62.2793 59.1487 61.705C66.563 58.9588 74.3504 57.2582 81.5228 53.8479C87.1239 51.1858 89.5765 46.4267 90.1353 40.4496L90.1372 40.4552Z" fill="#BEC8BE"/>
<path d="M137.831 47.61C132.634 48.2292 126.755 48.9233 121.387 51.6003C113.278 55.643 110.541 62.3889 114.45 70.4555C118.63 79.0796 123.507 87.3708 128.169 95.7573C129.243 97.6916 130.796 99.7027 133.339 98.1706C135.759 96.7132 135.006 94.4721 133.839 92.4554C129.187 84.4169 124.447 76.4288 119.885 68.3397C117.079 63.3654 117.835 60.5817 122.36 57.1882C127.063 53.6619 132.624 53.0576 138.19 52.4328C138.958 52.3467 139.744 52.3954 140.515 52.3131C142.315 52.1222 144.931 52.4477 144.998 50.0887C145.081 47.2471 142.285 47.8102 140.374 47.6175C139.759 47.5558 139.133 47.6081 137.833 47.6081L137.831 47.61Z" fill="#BEC8BE"/>
<path d="M88.8942 73.6157C95.7947 72.5494 99.9031 76.9382 102.725 83.2837C105.058 88.5293 107.381 93.7805 109.779 98.998C110.785 101.183 112.106 103.51 115.005 102.234C117.732 101.035 116.806 98.5658 115.956 96.5679C112.92 89.4273 109.665 82.3502 105.444 75.8475C100.58 68.3552 92.7213 65.884 83.2444 68.5367C76.5089 70.4224 69.9066 72.7795 63.7205 76.1113C62.1885 76.9363 59.6215 77.5911 60.8065 79.9819C61.8079 82.0023 63.8218 80.646 65.365 80.0848C72.7793 77.389 79.8298 73.4343 88.8961 73.6139L88.8942 73.6157Z" fill="#BEC8BE"/>
<path d="M104.908 16.7675C105.225 13.0615 105.63 9.36119 105.831 5.64776C105.967 3.10168 105.855 0.160876 102.502 0.00560467C99.2 -0.145925 99.3426 2.80611 99.2207 5.10712C98.9675 9.90557 98.5306 14.7152 98.6544 19.5062C99.0594 35.1157 107.505 42.3106 122.87 39.9067C128.838 38.9732 134.676 37.1642 140.537 35.6227C142.086 35.2148 144.391 34.779 143.543 32.4143C142.782 30.2892 140.751 31.0711 139.079 31.4247C134.061 32.4836 129.063 33.6621 124.014 34.5302C110.306 36.8854 104.374 31.4472 105.099 19.1134C105.144 18.3407 105.105 17.5625 105.105 16.7862C105.039 16.7806 104.974 16.7749 104.908 16.7693V16.7675Z" fill="#BEC8BE"/>
<path d="M31.5113 135.193C27.0073 135.406 21.6837 137.832 16.7353 141.13C13 143.62 9.39974 146.322 5.81073 149.023C4.47938 150.026 2.68487 151.311 3.92059 153.182C5.37194 155.382 7.00518 153.455 8.25215 152.604C13.2419 149.201 18.1566 145.719 23.6264 143.055C33.3677 138.308 42.3365 141.364 46.6474 151.236C47.9431 154.203 48.7888 157.367 49.8614 160.431C50.5027 162.262 51.7609 163.276 53.7617 162.934C55.8525 162.575 56.3869 161.028 56.3963 159.153C56.4581 147.863 44.1085 135.15 31.5095 135.193H31.5113Z" fill="#BEC8BE"/>
<path d="M48.1813 111.124C50.7258 111.188 53.1316 110.578 55.3649 109.422C62.196 105.882 67.9246 100.889 73.3775 95.5652C74.4557 94.512 75.9089 93.1333 74.2738 91.6442C72.9199 90.4132 71.6617 91.8069 70.6454 92.6749C65.1006 97.4154 59.6721 102.298 52.7003 104.969C47.1406 107.1 44.8791 106.236 42.2352 100.88C39.9288 96.205 39.1544 91.1746 38.74 86.0525C38.5468 83.6636 38.2918 81.024 35.0122 81.3008C32.0476 81.5515 32.0307 84.1126 32.1601 86.2938C32.5876 93.5261 34.3165 100.366 38.6893 106.341C41.3014 109.908 43.7409 111.167 48.1794 111.122L48.1813 111.124Z" fill="#BEC8BE"/>
<path d="M27.551 112.076C27.0278 106.383 23.6338 101.712 21.8487 96.4628C21.2524 94.7118 20.3711 93.0505 19.5535 91.3818C18.5353 89.2997 17.0933 87.3579 14.5356 88.5439C11.9948 89.7206 12.458 92.1601 13.4106 94.2272C15.4188 98.5879 17.2546 103.085 19.7823 107.139C23.1763 112.581 21.3986 116.979 17.7177 121.027C13.5231 125.641 8.55958 129.377 3.00167 132.284C1.53719 133.049 -0.74672 133.73 0.239602 135.81C1.24092 137.92 3.30358 136.562 4.74181 135.891C13.013 132.035 20.4967 127.147 25.3589 119.127C26.6471 117 27.6297 114.697 27.5491 112.076H27.551Z" fill="#BEC8BE"/>
<path d="M55.6295 130.347C56.1601 133.563 57.4052 137.383 59.2447 140.973C60.938 144.275 62.8319 147.468 63.9813 151.03C64.6451 153.09 65.7796 154.873 68.3241 154.085C70.8124 153.316 70.8706 151.09 70.4018 149.077C69.4042 144.78 66.4584 141.415 64.4801 137.581C59.5597 128.046 60.3773 124.621 69.498 118.93C72.7795 116.884 76.1228 114.938 79.4156 112.91C80.475 112.257 81.6939 111.496 80.955 109.999C80.3831 108.841 79.0912 108.77 78.0917 109.232C70.6455 112.676 63.0156 115.901 57.7465 122.602C56.1939 124.578 55.4082 126.958 55.6295 130.347Z" fill="#BEC8BE"/>
</svg>
