<svg width="442" height="293" viewBox="0 0 442 293" fill="none" xmlns="http://www.w3.org/2000/svg">
<g clip-path="url(#clip0_229_949)">
<path d="M102.5 218.91C108.98 224.54 118.19 225.27 124.42 232.7C125.82 225.09 118.48 219.91 122.77 212.95C128.79 220.13 129.94 228.88 132.99 236.78C138.05 249.89 143.5 262.82 150.54 275.03C152.9 279.12 156.99 281.56 159.59 285.38C160.37 286.52 161.71 286.73 163.01 286.71C164.06 286.69 165.21 286.76 166.14 286.37C171.32 284.22 177.12 283.81 181.92 280.64C178.66 275.09 176.55 268.16 171.9 264.3C163.86 257.63 161.52 249.23 160.81 239.96C159.69 225.38 158.71 210.76 160.1 196.1C160.99 186.7 163.85 177.93 167.7 169.45C169.02 166.55 171.44 164.82 174.83 163.88C193.48 158.7 211.84 160.26 229.68 166.8C243.89 172 257.96 177.07 273.07 179.4C278.79 180.28 285.66 181.6 289.52 187.63C290.64 189.38 292.55 189.92 294.57 189.14C296.64 188.34 299.17 187.91 300.74 188.93C308.39 193.89 311.71 186.96 315.19 183.16C317.52 180.61 312.46 178.34 311.46 175.66C307.66 165.46 298.97 157.28 299.29 145.34C299.41 140.96 300.76 137.69 304.61 135.19C292.72 123.9 274.83 124.46 262.59 113.71C267.75 115.06 268.09 112.16 267.98 108.84C267.91 106.91 267.54 104.76 270.33 104.56C273.08 104.37 273.06 106.43 273.23 108.42C273.34 109.65 274 110.83 274.27 112.06C274.95 115.15 277.85 115.63 279.69 115.09C282.55 114.25 281 111.55 280.27 109.8C274.42 95.8501 265.43 84.1001 255.05 73.2001C235.8 53.0001 210.52 43.5401 185.45 33.7201C183.45 32.9401 179.87 30.1801 177.91 35.4101C177.14 37.4701 174.44 35.5001 172.89 33.8001C170.22 30.8701 169.84 26.2201 165.73 24.4301C163.27 26.5001 166.33 28.0701 166.52 29.4001C155.87 33.5801 144.79 33.7001 134.15 36.3301C138.31 38.5801 143.32 35.4201 147.48 39.1001C144.7 42.1501 141.21 40.3701 138.74 39.8801C122.24 36.6401 114.19 49.3301 110.32 60.5201C107.48 68.7301 106.85 77.3201 105.47 85.7901C102.4 104.7 100.14 110.9 77.9299 115.93C76.4899 116.26 75.1099 116.48 73.7499 117.16C69.4399 119.31 65.9999 118.99 62.3199 114.95C54.5499 106.44 46.1499 98.5501 39.7199 88.8301C38.5699 87.0801 38.0299 84.7701 35.3199 82.3601V111.84C38.0999 109.97 40.1599 108.35 42.4299 107.14C44.2099 106.2 46.4399 105.03 48.0599 107.32C49.4399 109.27 48.9699 110.99 47.1499 112.86C43.7899 116.31 41.2299 120.59 37.6499 123.75C32.7299 128.09 33.6999 132.46 36.2899 137.21C40.1099 144.22 43.8699 151.26 47.9199 158.14C49.4099 160.68 49.9599 163.2 47.7799 164.98C44.7599 167.44 44.1299 163.61 42.6799 162.26C33.4599 153.61 28.3999 142.58 25.0399 130.44C21.1599 148.04 16.5599 165.16 11.6799 182.22C9.87989 188.5 5.29989 193.49 4.64989 200.1C4.52989 201.34 3.55989 201.97 2.42989 201.89C0.519887 201.76 0.169887 200.24 0.119887 198.69C-0.690113 176.95 3.10989 155.61 5.64989 134.16C7.02989 122.51 7.73989 110.78 8.89989 99.1001C9.43989 93.6501 10.1799 88.2201 11.9099 82.9801C12.5999 80.9001 13.3899 78.9101 15.6099 78.1501C19.5799 76.7801 22.9399 75.0201 23.0799 70.0701C23.1099 69.1301 23.8399 67.9801 25.2099 68.2901C26.5599 68.6001 26.5699 69.8301 26.4699 70.8401C26.2399 73.2501 25.8499 75.6401 26.3099 78.1501C28.2799 74.2901 29.2799 70.3201 28.1499 65.8801C26.7399 60.3701 23.5699 55.5901 22.3999 49.8901C18.6099 31.3801 30.9599 8.11012 48.5099 1.57012C56.8699 -1.53988 65.2599 0.680119 73.3999 2.12012C84.9699 4.17012 96.1399 8.11012 107.45 11.2601C116.1 13.6701 125.75 12.7701 134.95 12.7801C142.9 12.7801 150.86 11.5101 158.79 11.7201C162.84 11.8301 165.74 15.6201 168.44 18.5101C172.67 23.0401 175.23 27.8201 183.6 27.9501C195.55 28.1401 206.15 35.4801 216.95 40.5601C241.93 52.3001 262.64 69.0801 277.75 92.5801C281.82 98.9001 282.82 106.86 288.7 112.08C288.85 112.21 289.07 112.52 289.02 112.6C283.84 120.76 292.31 119.43 295.35 120.99C301.61 124.19 307.43 126.69 311.76 133.42C315.18 138.74 322.77 141.52 327.42 146.78C329.23 148.83 331.28 150.71 332.87 152.91C340.33 163.22 339.43 168.04 330.13 176.8C319.93 186.41 309.89 196.13 297.61 203.14C294.14 205.12 290.66 206.99 286.84 208.25C285.05 208.84 283.19 209.02 282.08 207.71C277.45 202.26 271 202.44 264.85 201.96C258.24 201.44 251.55 201.74 244.96 201.02C227.48 199.12 213.33 207.79 198.71 215.04C195.44 216.66 195.59 220.47 194.86 223.18C192.35 232.52 189.79 241.83 186.92 251.07C185.96 254.17 185.22 257.15 181.44 258.02C176.47 259.17 176.5 262 179.05 265.62C180.49 267.65 181.81 269.77 183.33 272.06C186.66 269.07 191.62 266.5 183.21 263.85C184.98 262.07 186.81 262.53 188.37 262.55C190.56 262.57 193.44 261.28 194.82 263.67C196.42 266.43 193.29 267.52 191.95 269.24C190.82 270.69 189 272.07 189.56 274.16C190.44 277.48 189.53 279.05 185.98 278.89C185.11 278.85 184.15 279.29 184.21 280.29C184.43 284.03 182.56 286.44 179.25 287.48C172.15 289.71 165.4 294.23 157.55 292.26C155.25 291.68 153.08 289.89 151.15 287.7C140.52 275.64 138.85 259.01 129.47 246.32C125.65 241.15 122.36 236.65 115.19 235.39C108.88 234.28 102.82 230.72 98.4799 225.84C88.4299 214.58 75.6799 212.63 61.7399 213.83C60.3199 213.95 57.6599 214.32 57.9799 213.14C58.9299 209.56 55.5699 208.23 55.0899 205.68C54.9499 204.92 56.8899 204.27 58.2999 204.41C65.3799 205.13 72.4699 205.78 79.5599 206.45C86.6599 207.12 92.0699 211.26 97.3799 215.42C99.0499 216.72 100.53 218.19 102.56 218.94L102.49 218.91H102.5ZM101.5 15.3301C91.1699 11.4901 81.2399 9.28012 71.1499 7.66012C64.5499 6.60012 58.0199 4.44012 51.2299 6.62012C35.4899 11.6701 30.8299 24.8001 27.8599 38.9601C25.7899 48.8701 30.9099 57.2501 34.3999 65.9601C41.5699 83.8201 53.0099 98.5801 66.9899 111.54C67.9399 112.42 69.0799 113.06 70.4399 112.74C77.1899 111.15 83.9299 109.55 90.6699 107.9C92.3799 107.48 93.5099 106.47 94.3299 104.74C96.8599 99.3901 98.4899 93.8601 99.3699 87.9801C101.43 74.2901 103.31 60.6401 109.86 47.9401C117.51 33.1001 134.03 25.0701 150.62 28.8901C153.67 29.5901 157.27 28.2901 160.53 27.5401C162.43 27.1001 162.73 25.1001 162.78 23.3901C162.84 21.4401 161.65 20.2101 159.85 19.7501C156.6 18.9101 153.27 17.4301 150.04 17.6001C131.79 18.5401 113.47 18.3901 95.3499 21.1601C92.9699 21.5201 90.7999 22.4601 89.5599 19.2601C92.6999 16.1901 97.5099 18.9801 101.5 15.3301ZM192.25 214.13C194.72 212.11 196.3 210.36 198.26 209.28C213.88 200.69 230 194.4 248.49 195.93C260.03 196.89 271.63 196.65 282.76 200.6C285.74 201.66 288.9 200.85 290.23 197.79C291.12 195.76 279.22 184.92 276.68 184.3C271.41 183.02 268.16 187.06 264.3 189.13C262.97 186.72 266.59 184.89 264.28 183.51C262.54 182.48 260.82 184.36 259.17 185.26C257.52 186.15 255.78 187.25 253.99 187.44C250.65 187.8 246.08 188.95 247.92 182.63C248.5 180.65 247.22 180.39 246 180.29C243.08 180.05 239.88 179.22 237.25 180.05C231.14 182 226.03 183.66 227.36 173.95C227.59 172.3 226.19 171.89 224.82 171.89C223.98 171.89 222.65 172.21 222.96 173.05C225.01 178.64 219.65 179.3 217.26 181.92C214.69 184.73 210.49 185.93 209.07 189.81C211.32 192.13 213.56 188.7 216.26 190.61C213.28 191.6 210.78 192.5 208.25 193.25C206.28 193.83 204.04 195.13 202.27 193.47C200.1 191.44 203.16 189.52 203.14 187.59C201.06 186.4 199.9 190.96 198.23 188.4C196.75 186.14 199.47 185.38 200.89 184.33C206.72 180.04 212.55 175.74 218.47 171.38C217.42 169.9 216.27 169.73 215.34 170.06C208 172.69 203.35 179.03 197.28 183.42C194.02 185.77 195.74 189.41 195.72 192.62C195.68 199.72 193.5 206.56 192.26 214.12L192.25 214.13ZM176.86 169.76C174.28 170.4 171.49 171.57 170.27 175.44C163.09 198.26 164.65 221.42 167.3 244.64C167.45 245.91 167.4 247.23 169 247.63C172.72 248.55 178.9 243.84 179 239.88C179.11 235.73 178.83 231.73 180.78 227.65C185.97 216.75 187.71 204.83 190.16 193.11C190.99 189.16 190.43 186.32 188.07 183.41C185.31 179.99 182.61 176.51 181.62 172.07C181.15 169.95 179.48 169.72 176.86 169.77V169.76Z" fill="#BEC8BE"/>
<path d="M249.02 112.84C247.41 112.23 246.45 111.58 245.44 111.52C238.6 111.05 235.93 106.82 235.07 100.62C234.83 98.86 234.34 96.45 232.58 95.95C230.7 95.41 230.25 97.95 229.13 99.11C227.16 101.15 224.79 104.45 222.01 102.51C219.48 100.74 219.45 96.93 221.08 93.78C221.37 93.23 221.58 92.57 222.02 92.17C227.74 86.86 232.96 81.31 233.22 72.81C233.26 71.52 234.26 70.41 235.8 70.56C236.99 70.68 237.6 71.59 237.65 72.76C238.29 86.77 246.49 98.61 249.02 112.84Z" fill="#BEC8BE"/>
<path d="M102.57 218.94C100.26 215.77 101.4 213.62 104.64 212.17C105.59 211.74 106.74 211.7 107.6 211.16C109.04 210.26 111.87 209.98 110.67 207.38C109.88 205.67 107.91 206.23 106.15 206.57C102.87 207.2 99.7998 209.66 95.7598 208.37C97.3598 205.68 99.5798 205.04 101.76 204.61C106.59 203.64 107.43 201.94 103.63 198.26C102.14 196.82 97.8098 195.7 100.42 192.89C101.89 191.31 105.06 193.99 106.79 195.62C110.74 199.35 114.09 203.63 116.78 208.4C117.55 209.76 118.2 211.12 117.62 212.57C116.67 214.93 115.14 212.61 113.97 212.86C109.6 213.78 105.03 214.45 102.48 218.89C102.51 218.92 102.58 218.96 102.58 218.96L102.57 218.94Z" fill="#BEC8BE"/>
</g>
<path d="M390.404 44.0816C390.906 40.363 392.208 36.9037 393.81 33.5341C394.721 31.6193 395.591 29.6842 396.455 27.7469C397.052 26.4095 397.892 25.3112 399.492 26.0477C401.004 26.7436 400.617 28.0618 400.054 29.2476C398.423 32.6759 396.571 36.0146 395.172 39.5315C392.635 45.9089 394.319 48.5217 399.268 50.2765C402.529 51.4324 405.775 52.63 409.011 53.8521C409.888 54.183 411.151 54.4925 410.673 55.784C410.2 57.0605 409.03 56.5332 408.143 56.2056C403.899 54.6387 399.441 53.6685 395.335 51.7227C392.129 50.2039 390.725 47.4886 390.405 44.0784L390.404 44.0816Z" fill="#BEC8BE"/>
<path d="M363.103 48.1638C366.079 48.5171 369.444 48.9131 372.517 50.4404C377.158 52.747 378.725 56.5958 376.487 61.1982C374.095 66.1187 371.303 70.8491 368.634 75.6341C368.019 76.7377 367.131 77.8851 365.675 77.0109C364.289 76.1795 364.721 74.9008 365.389 73.7502C368.052 69.1638 370.765 64.6062 373.377 59.991C374.982 57.153 374.55 55.5648 371.96 53.6286C369.268 51.6166 366.084 51.2719 362.898 50.9154C362.458 50.8663 362.009 50.8941 361.567 50.8471C360.537 50.7382 359.04 50.9239 359.001 49.578C358.954 47.9567 360.554 48.278 361.648 48.168C362 48.1328 362.359 48.1627 363.102 48.1627L363.103 48.1638Z" fill="#BEC8BE"/>
<path d="M391.116 63.0012C387.166 62.3928 384.814 64.8968 383.199 68.5172C381.864 71.5101 380.534 74.5061 379.161 77.4829C378.586 78.7296 377.829 80.0574 376.17 79.3294C374.609 78.6453 375.139 77.2364 375.625 76.0964C377.363 72.0224 379.227 67.9846 381.643 64.2745C384.427 59.9998 388.925 58.5898 394.35 60.1033C398.206 61.1792 401.985 62.5241 405.526 64.425C406.403 64.8957 407.872 65.2693 407.194 66.6334C406.621 67.7861 405.468 67.0123 404.585 66.6921C400.341 65.154 396.305 62.8976 391.115 63.0001L391.116 63.0012Z" fill="#BEC8BE"/>
<path d="M381.95 30.5666C381.768 28.4522 381.536 26.341 381.422 24.2223C381.343 22.7697 381.408 21.0918 383.327 21.0032C385.217 20.9167 385.135 22.601 385.205 23.9139C385.35 26.6516 385.6 29.3957 385.529 32.1292C385.297 41.0352 380.463 45.1402 371.668 43.7686C368.251 43.236 364.91 42.2039 361.555 41.3244C360.668 41.0917 359.349 40.843 359.834 39.4939C360.27 38.2814 361.432 38.7275 362.39 38.9293C365.262 39.5334 368.123 40.2058 371.013 40.7011C378.859 42.0449 382.256 38.9421 381.84 31.9051C381.814 31.4643 381.837 31.0202 381.837 30.5773C381.875 30.5741 381.912 30.5709 381.95 30.5677V30.5666Z" fill="#BEC8BE"/>
<path d="M423.963 98.1339C426.541 98.2555 429.589 99.6399 432.421 101.522C434.559 102.942 436.62 104.483 438.675 106.025C439.437 106.597 440.464 107.33 439.756 108.397C438.926 109.653 437.991 108.553 437.277 108.068C434.421 106.126 431.608 104.14 428.477 102.62C422.9 99.911 417.766 101.655 415.299 107.287C414.557 108.98 414.073 110.785 413.459 112.533C413.092 113.578 412.372 114.157 411.226 113.962C410.03 113.757 409.724 112.874 409.718 111.804C409.683 105.363 416.752 98.1093 423.964 98.1339H423.963Z" fill="#BEC8BE"/>
<path d="M414.421 84.4016C412.964 84.4379 411.587 84.0899 410.309 83.4303C406.398 81.4109 403.119 78.5621 399.998 75.5245C399.381 74.9236 398.549 74.1369 399.485 73.2873C400.26 72.585 400.98 73.3802 401.562 73.8754C404.736 76.5801 407.843 79.3659 411.834 80.89C415.016 82.1057 416.311 81.6126 417.824 78.5568C419.145 75.8895 419.588 73.0194 419.825 70.097C419.936 68.734 420.082 67.228 421.959 67.386C423.656 67.529 423.666 68.9902 423.592 70.2347C423.347 74.3611 422.357 78.2633 419.854 81.6724C418.359 83.7078 416.962 84.4261 414.422 84.4005L414.421 84.4016Z" fill="#BEC8BE"/>
<path d="M426.23 84.9446C426.53 81.6967 428.472 79.0316 429.494 76.0366C429.836 75.0375 430.34 74.0897 430.808 73.1377C431.391 71.9497 432.216 70.8418 433.68 71.5185C435.135 72.1899 434.87 73.5817 434.324 74.7611C433.175 77.2491 432.124 79.815 430.677 82.1279C428.734 85.2328 429.752 87.7422 431.859 90.0519C434.26 92.684 437.101 94.8155 440.283 96.4741C441.121 96.9107 442.428 97.2992 441.864 98.4861C441.29 99.69 440.11 98.9151 439.286 98.532C434.552 96.3322 430.268 93.5432 427.485 88.9675C426.747 87.7539 426.185 86.44 426.231 84.9446H426.23Z" fill="#BEC8BE"/>
<path d="M410.158 95.3693C409.854 97.2041 409.141 99.3836 408.088 101.432C407.119 103.316 406.035 105.138 405.377 107.17C404.997 108.345 404.347 109.362 402.891 108.913C401.467 108.474 401.433 107.204 401.702 106.056C402.273 103.604 403.959 101.684 405.091 99.4967C407.908 94.0564 407.44 92.1021 402.219 88.8553C400.341 87.6876 398.427 86.5776 396.542 85.4205C395.935 85.048 395.238 84.6136 395.661 83.7598C395.988 83.0991 396.728 83.0585 397.3 83.3221C401.562 85.2871 405.93 87.1272 408.946 90.9505C409.834 92.0776 410.284 93.4353 410.158 95.3693Z" fill="#BEC8BE"/>
<defs>
<clipPath id="clip0_229_949">
<rect width="337.89" height="292.73" fill="white"/>
</clipPath>
</defs>
</svg>
