<svg width="284" height="455" viewBox="0 0 284 455" fill="none" xmlns="http://www.w3.org/2000/svg">
<g clip-path="url(#clip0_229_946)">
<path d="M240.23 454.46C239.5 452.93 239.19 451.32 239.32 449.63C239.53 446.75 239.53 443.89 238.77 441.07C238.36 439.55 238.43 438.01 240.29 437.65C242.59 437.2 241.8 436.21 240.81 435.3C239.85 434.42 238.71 433.71 237.6 433.01C236.01 432 234.45 430.95 233.29 429.45C232.45 428.37 230.95 427.38 231.86 425.73C232.7 424.2 234.24 424.41 235.7 424.68C236 424.74 236.32 424.68 236.83 424.68C235.95 421.73 234.59 419.47 231.92 417.87C228.73 415.97 228.84 413.94 232.03 412.49C233.31 411.91 232.97 411.18 232.61 410.38C231.95 408.9 230.61 408.39 229.13 408.21C227.37 408 225.63 407.73 224.05 406.85C223.2 406.38 222.13 406.02 222.29 404.74C222.43 403.67 223.14 402.79 224.12 402.58C230.4 401.24 236.7 400.23 242.95 402.69C244.02 403.11 244.93 403.85 244.7 405.18C244.45 406.56 243.3 406.67 242.15 406.78C241.29 406.86 240.35 406.89 239.59 407.26C237.5 408.28 236.47 409.67 238.24 411.94C239.73 413.84 240.91 416.03 243.18 417.19C244.01 417.61 244.8 418.22 244.79 419.15C244.77 422.16 246.93 423.36 249.07 424.5C253.39 426.8 257.23 429.72 260.83 433.01C262.24 434.29 263.82 435.62 264.23 437.41C265.16 441.51 268.12 443.33 271.51 444.82C276.47 446.98 280 450.97 283.93 454.46H272.68C264.49 446.47 255.79 439.17 245.57 433.86C244.17 437.8 242.95 441.3 243.16 445.26C243.32 448.32 243.85 451.71 241.56 454.45H240.24L240.23 454.46Z" fill="#BEC8BE"/>
<path d="M64.1396 454.46C64.3196 447.24 67.7096 441.24 71.4196 435.38C71.8796 434.66 72.5996 433.89 73.5996 434.35C74.6696 434.85 74.7297 435.98 74.5097 436.94C73.5297 441.21 73.2796 445.64 71.5996 449.76C70.9796 451.27 70.5896 452.88 70.0996 454.45H64.1396V454.46Z" fill="#BEC8BE"/>
<path d="M56.8604 454.46C59.8804 445.45 63.4603 436.68 68.3403 428.5C68.8903 427.58 69.4504 425.84 70.9704 426.73C72.2304 427.46 71.6004 428.87 71.1204 430.02C67.7104 438.28 64.4903 446.61 60.1703 454.46H56.8604Z" fill="#BEC8BE"/>
<path d="M120.41 454.46C119.82 451.47 118.75 448.53 119.68 445.39C120.57 442.37 121.87 442.08 124.34 444.08C126.49 445.82 126.67 448.18 127.03 450.56C127.23 451.86 127.46 453.16 127.68 454.46H120.4H120.41Z" fill="#BEC8BE"/>
<path d="M104.52 454.46C104.87 451.49 105.57 448.64 107.04 446C107.82 444.61 108.82 442.84 110.46 444.12C112.06 445.37 114.84 446.48 113.78 449.4C113.18 451.07 112.6 452.69 112.45 454.46H104.51H104.52Z" fill="#BEC8BE"/>
<path d="M92.6104 454.46C93.2904 451.65 94.6304 449.16 96.2604 446.81C96.9204 445.86 97.2604 444.39 98.8304 444.77C100.45 445.16 101.36 446.39 101.8 447.98C102.2 449.46 101.69 450.64 100.42 451.33C99.0303 452.08 97.8104 452.91 97.2504 454.46H92.6204H92.6104Z" fill="#BEC8BE"/>
<path d="M77.3003 198.17C76.0203 201.39 75.2603 203.92 74.8303 206.55C74.7003 207.33 74.4803 208.18 73.5703 208.29C72.4403 208.44 72.0703 207.52 71.8703 206.64C71.4203 204.6 70.5103 202.73 69.9603 200.71C68.5803 195.62 65.8703 191.7 60.1103 190.66C57.2203 190.14 56.1203 187.04 54.0603 185.34C53.5403 185.64 53.8703 185.9 53.9603 186.17C54.3803 187.33 55.7603 188.66 54.2203 189.66C53.0103 190.44 52.0003 189.1 51.1903 188.25C48.5903 185.56 45.6303 183.18 43.7303 179.87C42.9603 178.53 41.9403 176.84 43.6303 175.75C45.2103 174.72 46.8603 175.62 47.8403 177.19C48.7903 178.69 49.6103 179.97 51.1203 177.73C51.4503 177.24 52.1003 176.92 52.5703 177.2C56.2503 179.37 55.2603 176.27 55.3303 174.68C55.4503 171.65 55.3603 168.61 55.3603 165.24C54.1403 166.56 53.9803 167.88 53.6103 169.12C53.0903 170.84 52.3203 172.33 50.3803 173C48.5403 173.63 47.6603 173.48 47.1703 171.29C46.8303 169.8 47.3203 166.74 43.6303 168.27C42.4703 168.75 42.2503 166.39 42.1803 165.1C41.9003 160.29 40.4503 158.87 35.5003 158.7C34.0503 158.65 33.6903 157.69 33.5303 156.51C33.3303 155.01 33.1203 153.61 31.2003 155.27C29.6903 156.58 28.9903 155.67 28.8703 154.15C28.7103 152.09 27.5403 151.97 25.8903 152.18C21.5303 152.73 17.1403 153.16 12.7803 153.68C10.6503 153.93 5.62031 159.83 5.89031 162.18C6.37031 166.38 7.40031 170.46 11.0103 173.27C11.7503 173.84 13.1003 174.2 12.4903 175.46C11.9303 176.62 10.6203 176.57 9.54031 176.27C8.61031 176.01 7.53031 175.69 6.90031 175.02C2.91031 170.84 -0.599694 166.43 0.100306 160.04C0.790306 153.7 6.14031 147.28 12.3403 145.63C14.4603 145.07 16.5903 144.57 19.0803 143.94C17.3503 141.83 17.9603 139.91 18.9403 137.95C19.6403 136.56 20.2003 135.15 19.0703 133.61C18.6203 132.99 18.5303 131.86 19.2003 131.45C22.5203 129.43 20.1803 128.26 18.6903 126.82C17.4403 125.61 17.2103 124.08 18.1803 122.59C19.1003 121.18 20.4303 121.61 21.7503 122.04C24.6803 122.99 26.1203 124.84 25.6003 128.04C25.3303 129.67 25.1303 131.33 25.0403 132.98C24.9703 134.26 26.0403 135.13 26.9203 135.45C28.0603 135.87 28.0203 134.43 28.3903 133.72C29.3703 131.86 30.2503 129.95 31.3503 128.17C34.7003 122.71 36.8603 121.88 42.7003 124.46C45.8903 125.87 49.0503 127.54 51.4303 130.29C51.5703 130.46 51.7003 130.75 51.8703 130.77C57.3703 131.56 57.2603 137.33 60.2903 140.32C62.4203 142.42 62.7203 144.4 63.3403 153.24C63.5303 153.26 63.7703 153.37 63.9003 153.29C64.8103 152.76 64.5503 150.82 66.0403 151.16C67.4203 151.47 67.4403 153.01 67.7803 154.13C68.0703 155.08 68.1203 156.09 68.3703 157.05C69.5803 161.6 67.9403 166.78 71.4403 170.84C71.8203 171.28 71.8903 172.12 71.8403 172.76C71.4603 178.47 74.5703 183.29 75.8303 188.57C76.0003 189.27 75.7103 190.93 77.5103 189.94C78.4203 189.44 78.8303 190.34 79.3203 190.93C83.0003 195.39 84.2503 200.63 84.0803 206.25C84.0003 208.87 83.3803 209.24 81.1303 208.51C80.1503 208.19 80.3203 208.91 80.1503 209.34C79.8203 210.16 79.6003 211.27 78.4703 211C77.2703 210.72 77.3503 209.48 77.3303 208.52C77.2803 205.32 77.3103 202.12 77.3103 198.2L77.3003 198.17Z" fill="#BEC8BE"/>
<path d="M168.67 231.46C165.23 232.1 161.78 232.77 158.33 233.37C156.49 233.69 154.66 233.54 153.73 231.67C152.78 229.76 153.68 228.27 155.36 227.19C156.16 226.68 156.45 225.89 156.74 225.02C157.83 221.72 160.04 219.67 163.51 218.96C166.62 218.33 165.07 215.03 166.5 213.4C166.57 213.32 166.26 212.98 166.29 212.8C166.87 210.14 168.77 207.79 167.6 204.69C167.27 203.82 169.05 203.25 170.17 203.15C184.87 201.88 199.57 200.8 214.31 202.73C218.02 203.22 221.44 201.7 225 201.1C228.25 200.56 231.46 199.81 234.71 199.24C235.39 199.12 236.45 198.91 236.67 199.92C236.89 200.91 235.89 201.13 235.19 201.37C233.32 202.02 231.35 202.44 229.56 203.26C220.49 207.4 210.89 211.11 203.64 217.93C196.74 224.42 188.26 227.91 180.69 233.01C174.85 236.95 167.79 238.51 161.02 240.45C160.41 240.63 159.69 240.6 159.05 240.48C157.88 240.27 156.46 240.21 156.21 238.68C155.94 237.02 157.21 236.34 158.48 235.87C161.27 234.84 164.09 233.91 166.89 232.9C167.59 232.65 168.25 232.26 168.93 231.94C168.85 231.77 168.76 231.6 168.68 231.43L168.67 231.46Z" fill="#BEC8BE"/>
<path d="M187.05 327.24C185.72 330.5 186.31 333.93 186.13 337.28C186.07 338.27 186.14 339.28 186.06 340.27C185.98 341.27 185.87 342.4 184.61 342.56C183.34 342.72 182.86 341.61 182.66 340.68C181.84 336.8 180.98 332.91 180.97 328.93C180.97 323.98 181.69 319.01 180.11 314.15C179.92 313.57 180.03 312.84 180.17 312.22C181.67 305.45 181.06 298.58 181.19 291.75C181.21 290.65 181.02 289.52 181.66 288.52C182.83 286.68 184.14 286.41 185.54 288.26C185.87 288.69 186.19 289.2 186.3 289.72C187.74 296.26 190.15 302.66 189.07 309.56C188.6 312.55 188.69 315.34 190.39 318.15C192.52 321.67 193.21 325.72 193.51 329.88C193.89 335.14 195.28 340.3 195.56 345.6C195.63 346.87 196.52 347.78 197.49 348.58C201.73 352.14 205.61 355.99 207.96 361.15C208.74 362.85 210.29 363.43 212.08 363.35C218.92 363.01 225.73 363.66 232.55 364.04C233.21 364.08 233.88 364.08 234.53 364.19C235.49 364.35 236.72 364.39 236.89 365.6C237.06 366.85 235.82 367.28 234.94 367.49C230.01 368.67 225.83 371.82 220.9 372.95C213.17 374.73 205.99 373.68 199.81 368.34C198.25 366.99 197.68 365.08 198.93 363.28C200.04 361.68 199.25 361.1 198.13 360.1C194.52 356.86 191.35 353.24 189.1 348.85C188.22 347.14 188.22 345.8 190 345.03C191.92 344.19 191.75 342.99 191.31 341.33C190.21 337.17 189.3 332.97 188.28 328.79C188.13 328.19 188 327.47 187.07 327.26L187.05 327.24Z" fill="#BEC8BE"/>
<path d="M168.33 176.75C168.04 178.76 168.41 180.24 168.74 181.72C169.01 182.96 169.17 184.25 167.64 184.77C166.02 185.32 165.18 184.29 164.62 182.96C163.29 179.81 161.84 176.72 160.33 173.65C156.54 165.98 150.33 161.31 142.73 158.05C140.69 157.17 137.66 156.3 138.52 153.41C139.48 150.21 142.6 151.26 144.78 151.99C155.16 155.46 164.03 160.73 167.12 172.33C167.47 173.65 168.14 174.65 169.68 173.48C171.09 172.42 172.17 173.17 173.15 174.16C176.61 177.69 180.57 180.86 181.65 186.11C181.95 187.54 183.08 187.94 184.35 188.14C191.71 189.27 198.65 192.39 206.38 191.91C211.95 191.57 217.05 189.57 222.45 188.72C229.95 187.54 237.02 184.44 244.6 183.57C247.03 183.29 249.43 183.1 251.78 183.95C252.36 184.16 253.11 184.43 253.01 185.26C252.94 185.89 252.34 186.23 251.82 186.23C242.18 186.3 234.32 193.15 224.96 193.61C217.05 194 209.75 197.17 201.93 197.56C199.93 197.66 198.05 197.45 196.17 196.52C193.85 195.37 191.31 195.29 188.74 195.93C187.15 196.33 185.48 196.83 183.89 196.73C181.94 196.61 180.51 196.66 179.68 198.81C179.17 200.14 177.61 200.84 176.4 200.48C174.93 200.05 174.74 198.28 175.24 197.08C176.28 194.56 175.11 193.74 172.97 193.12C171.29 192.63 169.63 191.94 168.11 191.08C167.02 190.46 165.55 189.56 166.22 188C166.91 186.37 168.44 186.47 169.91 187.09C171.13 187.6 172.36 188.08 173.57 188.61C174.27 188.91 175.02 189.46 175.7 188.83C176.35 188.23 176.02 187.34 175.82 186.62C174.68 182.45 171.28 180.05 168.32 176.74L168.33 176.75Z" fill="#BEC8BE"/>
<path d="M263.16 198.5C263.14 195.55 261.45 193.97 259.09 192.88C257.81 192.29 255.99 191.78 256.6 189.98C257.21 188.19 259.08 188.5 260.63 188.76C265.25 189.55 267.64 192.94 269.7 196.67C270.52 198.16 270.18 199.68 269.39 201.11C264.91 209.17 259.03 215.74 250.54 219.78C246.76 221.58 243.65 224.47 240.33 227.01C236.95 229.6 233.48 231.55 228.84 229.81C227.06 229.15 224.89 229.7 223.68 232.17C220.95 237.72 216.11 241.81 210.88 244.14C206.74 245.99 202.88 248.14 199.46 250.8C196.46 253.14 193.47 255.33 190.22 257.33C185.99 259.92 181.43 260.87 176.68 260.98C174.36 261.04 172.09 260.65 171.72 257.07C171.29 253.01 170.82 253.03 175.16 252.46C182.64 251.47 189.09 247.98 195.42 244.15C199 241.98 202.71 240.13 207.05 240.06C207.65 240.05 208.43 239.71 208.8 239.26C212.15 235.21 216.71 232.21 219.01 227.22C220.05 224.97 221.69 223.25 224.49 225.05C225.55 225.73 226.35 225.02 227.25 224.64C232.63 222.37 237.98 220.04 243.42 217.94C245.61 217.09 247.89 215.88 250.42 217.05C250.74 217.2 251.41 217.13 251.6 216.9C256.08 211.49 261 206.36 263.08 199.36C263.17 199.05 263.15 198.7 263.17 198.5H263.16Z" fill="#BEC8BE"/>
<path d="M135.32 271.36C138.99 271.95 141.89 270.98 144.84 270.96C145.89 270.96 147.3 270.46 147.69 271.87C148.09 273.33 146.66 273.69 145.65 273.96C142.64 274.77 141.7 276.6 141.5 279.74C141.15 285.28 138.58 290.33 137 295.6C136.68 296.67 135.9 297.81 134.63 297.43C133.18 297 133.66 295.66 133.97 294.61C134.98 291.22 136.01 287.85 137.07 284.48C137.57 282.89 138.08 281.32 138.05 279.63C138.02 277.58 137.59 276.37 135.11 277.57C130.95 279.59 126.71 278.62 122.59 277.34C120.86 276.8 119.09 275.53 119.25 273.64C119.47 271.14 118.12 270.74 116.37 269.83C110.94 266.98 104.59 266.04 99.8304 261.75C98.0004 260.1 96.1104 258.84 98.5304 256.15C99.4404 255.14 98.9104 254.43 97.3004 254.71C94.4604 255.2 90.0604 251.54 89.8904 248.75C89.8004 247.26 91.0304 246.69 91.9004 245.92C93.0704 244.89 94.3504 245.48 95.1604 246.34C98.1504 249.5 101.49 252.12 105.43 254C105.99 254.27 106.7 254.63 106.57 255.45C106.44 256.25 105.69 256.36 105.06 256.51C104.33 256.69 103.58 256.78 102.65 256.95C103.14 258.49 104.35 259.07 105.48 259.66C109.87 261.94 114.16 264.44 118.91 265.99C119.93 266.32 121.3 266.81 121.7 267.63C123.37 271.02 125.56 269.5 127.62 268.44C133.69 265.33 139.71 262.12 145.75 258.95C146.33 258.64 146.88 258.25 147.49 258.01C148.47 257.63 149.52 257.5 150.04 258.68C150.48 259.69 149.74 260.35 148.99 260.86C146.44 262.6 143.98 264.51 141.28 265.95C138.93 267.2 137.55 269.24 135.32 271.39V271.36Z" fill="#BEC8BE"/>
<path d="M73.2904 306.81C74.1004 302.35 73.7204 297 75.2204 291.83C76.0204 289.05 74.0004 286.55 73.2604 283.99C72.2804 280.59 70.8804 277.24 69.2704 273.96C66.8404 269 64.2204 263.4 63.7704 258.27C63.3504 253.45 62.3504 249.49 59.9904 245.62C58.4304 243.06 56.1604 241.08 54.1004 238.93C52.9804 237.75 51.4904 236.22 53.2204 234.7C54.8504 233.26 56.6304 233.52 58.4604 235.2C65.6104 241.75 68.7704 250.35 71.3904 259.31C72.1904 262.06 73.1604 264.77 74.2604 267.41C76.5504 272.88 75.9904 278.98 78.1404 284.47C78.1804 284.57 78.1604 284.7 78.2004 284.79C82.0004 292.92 79.1604 300.67 76.8604 308.44C76.7404 308.86 76.5404 309.27 76.3304 309.65C75.8704 310.51 75.5204 311.64 74.2304 311.35C72.9004 311.05 73.1604 309.87 73.1604 308.9C73.1604 308.46 73.2004 308.02 73.2704 306.82L73.2904 306.81Z" fill="#BEC8BE"/>
<path d="M47.5605 81.13C56.6805 81.13 62.5605 85.19 65.9405 93.77C66.1705 94.36 66.5205 95.08 67.0205 95.35C71.7605 97.9 75.9305 101.45 81.1005 103.26C84.7505 104.54 85.3705 106.12 84.1105 109.18C83.0005 111.88 81.2705 112.3 78.8605 111.07C75.2005 109.2 71.8105 106.98 69.1805 103.75C68.1905 102.54 67.3505 101.44 65.8305 103.25C63.6705 105.81 63.0605 103.61 62.8105 101.97C62.2405 98.15 60.9305 94.9 58.0605 92.11C54.4205 88.57 47.1805 86.95 42.3305 88.6C37.8505 90.13 34.4505 92.32 33.6305 97.38C33.4505 98.46 32.8405 99.62 31.4005 99.29C29.9405 98.96 30.1005 97.7 30.2405 96.59C31.1405 89.59 40.4605 79.75 47.5605 81.13Z" fill="#BEC8BE"/>
<path d="M68.0996 406.64C69.9596 405.34 70.8896 403.25 72.3596 401.61C73.3596 400.5 74.0696 398.74 76.0296 399.69C77.8796 400.59 78.1896 402.3 78.0196 404.2C77.5796 409.26 75.3496 413.74 73.2096 418.15C71.1496 422.39 67.8196 425.91 64.9696 429.69C62.4096 433.08 58.0096 433.4 55.1496 436.18C54.7396 436.58 54.0696 436.48 53.6296 436.08C52.8696 435.41 52.8196 434.55 53.1996 433.66C54.4896 430.61 55.5596 427.45 57.1296 424.55C60.0996 419.04 62.8996 413.41 67.0896 408.66C67.5796 408.1 67.7896 407.3 68.1296 406.61L68.0996 406.64Z" fill="#BEC8BE"/>
<path d="M106.03 294.2C105.96 295.23 106.12 296.3 105.02 296.57C103.85 296.86 103.61 295.71 103.22 294.99C98.5 286.03 91.87 278.23 87.71 268.94C87.08 267.54 85.97 266.44 84.77 265.41C79.36 260.79 77.25 254.21 74.78 247.89C74.28 246.62 75.23 245.19 76.55 244.68C78.18 244.05 78.88 245.32 79.48 246.59C81.81 251.55 83.39 256.95 87.88 260.6C88.05 260.74 88.16 260.94 88.33 261.08C91.64 263.84 94.24 266.81 95.58 271.29C97.01 276.07 100.11 280.33 102.2 284.94C103.59 288.02 105.91 290.75 106.05 294.2H106.03Z" fill="#BEC8BE"/>
<path d="M104.05 424.18C103.04 429.04 101.12 433.73 97.5197 437.9C93.6897 442.35 87.9398 444.19 84.1898 448.61C83.5698 449.34 82.6997 449.78 81.8797 449.08C80.7597 448.12 81.4298 447.01 82.0398 446.11C84.6998 442.17 87.3498 438.21 90.0498 434.29C92.8398 430.24 95.0897 425.77 96.7797 421.06C97.5897 418.82 97.8598 416.59 97.8598 414.24C97.8598 412.83 97.8998 411.06 99.7598 410.87C101.75 410.67 102.31 412.4 102.58 413.94C103.14 417.2 103.53 420.49 104.05 424.18Z" fill="#BEC8BE"/>
<path d="M92.5303 370.01C92.5803 374.71 92.0003 379.61 90.1703 384.27C89.7503 385.35 89.7703 386.15 90.3703 387.04C90.9703 387.91 91.4503 388.92 90.4303 389.69C89.2703 390.58 88.3103 389.7 87.5903 388.86C84.9403 385.76 84.0703 382 84.0103 378.06C83.9203 371.5 84.0503 364.93 83.9703 358.37C83.9503 356.42 84.4603 354.65 85.1003 352.89C85.5003 351.77 85.8803 350.36 87.4303 350.52C88.7503 350.66 89.0303 351.96 89.2303 353.03C89.8303 356.27 90.6103 359.51 90.7703 362.78C90.9003 365.31 93.1703 367.12 92.5203 370.01H92.5303Z" fill="#BEC8BE"/>
<path d="M95.06 131.29C93.2 131.15 91.32 131.16 89.49 130.82C87.95 130.53 82.8 122.48 83.21 120.94C83.61 119.41 82.92 119.29 81.79 119.11C80.83 118.95 79.88 118.61 78.98 118.22C77.73 117.67 76.54 116.87 76.73 115.3C76.94 113.63 78.24 113.02 79.78 112.78C81.95 112.44 84.11 111.96 86.28 111.67C87.84 111.46 89.41 111.74 90.65 112.78C92.17 114.07 92.8 115.31 90.31 116.43C86.69 118.06 86.72 118.18 89.97 120.69C90.06 120.76 90.18 120.8 90.23 120.89C93.47 126.78 99.72 126.34 104.99 127.94C106.14 128.29 107.33 128.49 108.51 128.78C109.33 128.98 110.51 128.91 110.45 130.11C110.38 131.36 109.17 131.62 108.21 131.61C105.58 131.59 102.95 131.39 100.32 131.25C98.57 131.16 96.82 131.05 95.07 130.95C95.07 131.06 95.06 131.18 95.05 131.29H95.06Z" fill="#BEC8BE"/>
<path d="M131.82 149.12C132.02 151.81 131.41 154.6 129.97 157.15C128.82 159.19 126.72 159.52 125.78 157.79C122.88 152.46 118.09 149.61 112.76 147.4C111.06 146.7 108.7 146.43 108.48 144.31C108.23 141.8 110.85 141.38 112.53 140.6C116.33 138.85 120.14 137.23 124.57 138.69C130.15 140.54 131.98 142.9 131.81 149.11L131.82 149.12ZM127.03 151.35C127.98 145.07 124.44 141.39 119.07 142.3C118.53 142.39 117.88 142.44 117.83 143.08C117.8 143.4 118.19 143.89 118.52 144.08C121.62 145.92 124.26 148.34 127.04 151.34L127.03 151.35Z" fill="#BEC8BE"/>
<path d="M232.78 446.12C232.86 447.39 232.92 448.24 232.03 448.58C230.97 448.98 230.41 448.22 229.94 447.44C229.71 447.07 229.53 446.66 229.37 446.25C226.69 439.23 222.35 433.44 216.96 428.26C214.8 426.18 213.45 423.23 211.77 420.66C210.72 419.05 211.07 417.5 212.15 416.06C212.88 415.08 213.81 414.85 214.64 415.83C218.27 420.1 222.71 423.53 226.39 427.81C231.16 433.36 230.96 440.27 232.79 446.13L232.78 446.12Z" fill="#BEC8BE"/>
<path d="M226.16 388.28C219.67 387.28 213.64 384.93 208.38 380.76C207.64 380.18 207.22 379.35 207.58 378.42C208.07 377.13 209.26 376.46 210.47 376.63C216.2 377.43 222.14 376.99 227.61 379.41C230.23 380.57 232.89 381.57 235.75 382.01C236.81 382.17 238.15 382.36 238.29 383.7C238.45 385.16 237.14 385.3 236.07 385.62C232.82 386.59 229.73 388.14 226.15 388.29L226.16 388.28Z" fill="#BEC8BE"/>
<path d="M41.0195 186.09C39.3995 186.07 38.4295 185.38 37.4895 184.57C33.2995 181.01 28.2995 179.52 22.9695 178.88C21.5595 178.71 19.9495 178.79 19.2495 177.25C18.5295 175.65 20.0295 174.97 20.8595 173.99C24.3495 169.85 25.3195 169.52 30.3495 171.58C35.4395 173.68 39.7095 176.89 42.8495 181.51C43.5995 182.61 43.9195 183.68 43.2495 184.89C42.6895 185.9 41.7195 186.05 41.0195 186.08V186.09Z" fill="#BEC8BE"/>
<path d="M68.12 406.61C67.35 407.04 66.56 407.62 65.74 406.77C64.96 405.98 65.49 405.17 65.76 404.32C67.34 399.18 69.49 394.12 70.25 388.86C71.09 382.99 74.12 377.96 75.25 372.28C75.48 371.1 75.83 369.73 77.56 370.19C78.89 370.54 79.08 371.61 78.92 372.82C77.95 380.13 77.59 387.57 74.46 394.42C72.55 398.6 69.49 402.18 68.11 406.64L68.14 406.61H68.12Z" fill="#BEC8BE"/>
<path d="M102.41 335.22C101.91 327.54 101.33 319.86 99.33 312.37C98.89 310.73 98.65 308.78 100.64 308.11C102.75 307.39 103.42 309.29 104.03 310.85C106.88 318.07 107.18 325.6 106.72 333.24C106.55 336.1 106.65 338.97 106.53 341.83C106.47 343.36 106.26 344.9 106.02 346.42C105.89 347.28 105.66 348.35 104.56 348.32C103.21 348.29 103.2 347.03 103.13 346.09C102.84 342.47 102.64 338.85 102.41 335.22Z" fill="#BEC8BE"/>
<path d="M228.87 423.56C228.86 424.36 228.79 425.18 227.99 425.57C226.96 426.08 226.17 425.35 225.83 424.6C223.58 419.7 219.05 416.9 215.64 413.08C213.58 410.77 211.96 407.87 211.58 404.56C211.36 402.69 211.83 401.04 213.11 399.68C214.21 398.51 215.66 398.28 216.38 399.84C220.01 407.68 227.17 413.59 228.63 422.59C228.68 422.91 228.8 423.23 228.88 423.55L228.87 423.56Z" fill="#BEC8BE"/>
<path d="M193.21 296.63C193.21 296.85 193.23 297.08 193.21 297.29C193.07 298.45 193.38 300.17 191.85 300.26C190.12 300.37 190.03 298.58 189.98 297.31C189.68 289.93 186.91 283.2 184.64 276.33C183.78 273.72 182.29 271.62 180.02 270.06C178.92 269.3 177.71 268.36 178.63 266.82C179.59 265.22 181.18 265.23 182.72 265.91C186.99 267.82 189.26 271.53 190.46 275.72C192.4 282.52 192.69 289.61 193.23 296.63H193.21Z" fill="#BEC8BE"/>
<path d="M44.2797 117.85C42.4297 117.68 42.0897 116.69 42.6497 115.11C43.4897 112.72 45.2297 111.03 47.1797 109.6C49.7297 107.73 50.3397 105.92 48.0897 103.22C46.7197 101.57 45.8897 99.34 47.0897 97.06C48.0797 95.19 49.3397 94.3 51.1597 96.21C52.0697 97.16 53.0697 98.01 53.5997 99.29C54.3197 101 54.6897 103.13 57.5597 101.96C58.4197 101.61 59.2997 102.71 59.5097 103.81C59.7397 104.99 59.4197 106.04 58.4197 106.73C54.4297 109.48 51.8197 113.85 47.4097 116.13C46.3597 116.67 45.4497 117.51 44.2797 117.87V117.85Z" fill="#BEC8BE"/>
<path d="M80.5901 146.47C81.5801 142.93 80.7301 140.08 78.9101 137.67C78.1101 136.61 78.2201 135.81 78.3501 134.78C78.5001 133.56 78.5801 132.17 79.9901 131.84C81.4101 131.5 82.0601 132.76 82.7601 133.76C84.8601 136.73 85.6001 140.19 86.0501 143.68C86.3701 146.17 84.0501 147.37 82.5101 148.4C81.1501 149.32 80.8501 150.12 80.8201 151.49C80.8001 152.83 80.7101 154.33 79.0101 154.58C77.3701 154.82 76.3401 153.78 75.7801 152.32C75.1901 150.78 74.5701 149.25 74.1201 147.67C73.7201 146.25 73.6901 144.66 74.9001 143.67C76.3401 142.49 77.5701 143.82 78.7301 144.55C79.3601 144.94 79.7901 145.64 80.5901 146.49V146.47Z" fill="#BEC8BE"/>
<path d="M136.76 419.57C136.41 420.95 136.51 422.83 134.79 423.34C132.75 423.94 132.74 421.86 132.13 420.7C128.98 414.67 125.85 408.64 122.74 402.59C122.19 401.52 121.56 400.2 122.8 399.31C123.81 398.59 125.01 399.23 125.78 400.01C130.88 405.15 135.04 410.87 136.54 418.17C136.63 418.6 136.67 419.04 136.75 419.57H136.76Z" fill="#BEC8BE"/>
<path d="M104.49 139.63C102.59 139.59 100.77 139.16 99.1401 138.19C98.3501 137.72 97.8701 136.89 98.1401 135.94C98.4101 134.99 99.2002 134.4 100.16 134.64C108.89 136.81 114.64 131.38 120.66 126.62C121.86 125.67 123.08 124.74 124.32 123.84C124.77 123.51 125.33 123.33 125.83 123.76C126.35 124.2 126.12 124.73 125.91 125.26C123.34 131.48 111.23 139.61 104.49 139.63Z" fill="#BEC8BE"/>
<path d="M88.3698 333.01C88.2798 336.57 88.4298 339.44 87.5098 342.22C86.8498 344.21 85.6198 344.59 83.9898 343.55C81.6998 342.09 80.3598 340.09 81.0498 337.19C81.9198 333.56 82.7498 329.92 83.6398 326.3C83.9598 324.98 84.4998 323.6 86.1298 323.73C87.6298 323.85 87.8798 325.3 87.9898 326.48C88.2198 328.88 88.2698 331.31 88.3598 333.01H88.3698Z" fill="#BEC8BE"/>
<path d="M133.3 127.4C134.85 126.74 135.99 124.9 137.57 126.7C139.04 128.37 137.96 129.85 137.01 131.17C135.37 133.43 132.92 134.82 130.8 136.56C128.68 138.3 127.8 134.81 125.71 135.15C124.99 135.27 125.65 133.23 126.07 132.3C127.07 130.07 127.79 127.76 128.14 125.35C128.4 123.5 129.21 121.99 131.17 122.09C132.99 122.19 133.06 123.95 133.21 125.39C133.27 125.94 133.27 126.49 133.32 127.39L133.3 127.4Z" fill="#BEC8BE"/>
<path d="M9.16992 184.81C9.44992 181.51 10.8699 178.78 13.8999 177.04C15.4799 176.13 16.8699 176.52 18.0399 177.85C19.1899 179.17 18.9499 180.21 17.7799 181.57C14.0099 185.97 13.7699 189.76 16.6699 194.47C17.0899 195.16 17.5799 195.86 17.0699 196.59C16.4299 197.52 15.4999 197.17 14.6799 196.79C13.0999 196.05 12.1799 194.72 11.4099 193.19C10.0999 190.57 9.59992 187.76 9.16992 184.81Z" fill="#BEC8BE"/>
<path d="M40.9203 211.68C41.0403 213.04 41.0803 214.48 41.3303 215.88C41.5303 216.95 41.5903 217.89 40.5303 218.46C39.3803 219.08 38.1903 219.15 37.1703 218.18C35.8003 216.88 34.6703 215.43 34.3003 213.49C33.7403 210.57 33.1203 207.67 32.4603 204.77C32.1203 203.27 32.6103 202.13 33.7803 201.31C35.0703 200.4 36.0503 201.31 36.9903 202.1C39.9303 204.58 41.9303 207.47 40.9203 211.67V211.68Z" fill="#BEC8BE"/>
<path d="M46.3301 214.25C46.2301 212 47.2401 211.04 48.5601 210.34C50.0301 209.56 51.0101 210.46 52.0201 211.4C54.2201 213.45 55.1101 216.14 55.8501 218.94C56.2101 220.31 56.6901 221.66 57.2201 222.98C57.5801 223.87 57.8401 224.66 56.9101 225.32C56.0101 225.97 54.9701 226.8 53.9301 225.95C50.0201 222.74 47.0001 218.92 46.3301 214.26V214.25Z" fill="#BEC8BE"/>
<path d="M84.7203 305.42C85.1703 311.81 81.1203 316.89 79.7803 322.76C79.4603 324.15 78.9503 325.5 78.4203 326.83C78.0703 327.72 77.6703 329.01 76.4903 328.67C75.2703 328.32 75.6903 326.92 75.8503 326.06C76.4303 322.93 76.8903 319.72 77.9803 316.77C79.4403 312.82 79.8603 308.65 81.1803 304.69C81.6303 303.33 81.2803 300.94 83.3303 301.25C85.4403 301.57 84.6203 303.89 84.7303 305.42H84.7203Z" fill="#BEC8BE"/>
<path d="M37.1003 114.92C37.1003 115.46 37.0703 116.25 36.2903 116.7C35.5703 117.11 34.9603 116.7 34.5903 116.16C33.7703 114.98 32.5203 115.22 31.4003 114.88C28.7803 114.1 26.8103 102.86 28.8903 101.05C29.5603 100.46 30.5103 100.21 30.9503 100.84C32.3403 102.82 35.0503 103.68 35.3903 106.61C35.7103 109.33 36.4803 111.99 37.1103 114.91L37.1003 114.92Z" fill="#BEC8BE"/>
<path d="M138.91 442.85C138.99 445.11 139.71 448.07 136.71 448.64C133.94 449.17 133.35 446.2 132.68 444.22C131.76 441.51 131.19 438.63 132.13 435.78C132.98 433.21 134.67 432.89 136.56 434.83C138.75 437.07 139.02 439.9 138.91 442.85Z" fill="#BEC8BE"/>
<path d="M31.5 204.28C31.06 206.07 29.83 207.79 27.97 208.41C25.73 209.16 25.96 206.83 25.31 205.56C24.3 203.61 23.06 201.79 21.92 199.91C20.84 198.13 20.51 196.39 22.42 194.94C24.6 193.29 26.05 194.91 27.05 196.41C28.67 198.84 31.1 200.83 31.51 204.29L31.5 204.28Z" fill="#BEC8BE"/>
<path d="M98.8001 390.94C98.8301 393.91 98.7401 396.87 99.2701 399.83C99.4701 400.94 99.7101 402.55 97.9601 402.67C96.5301 402.77 96.4801 401.38 96.2701 400.28C94.9801 393.58 94.5601 386.83 94.9401 380.02C94.9901 379.08 94.5801 377.82 96.0701 377.73C97.3401 377.66 97.6601 378.79 97.8301 379.76C98.4901 383.45 98.7801 387.18 98.7901 390.94H98.8001Z" fill="#BEC8BE"/>
<path d="M141.35 145.68C139.36 145.67 137.4 145.43 135.5 144.86C134.21 144.47 132.88 143.8 132.98 142.23C133.08 140.55 134.6 140.28 135.91 140.19C139.28 139.95 142.4 141 145.45 142.28C146.21 142.6 147.15 143.08 146.93 144.2C146.69 145.42 145.62 145.59 144.64 145.66C143.55 145.74 142.45 145.68 141.36 145.68H141.35Z" fill="#BEC8BE"/>
<path d="M138.89 400C138.95 401.16 138.71 401.75 138.05 402.08C137.36 402.42 136.73 402.17 136.24 401.7C133.28 398.86 130.84 395.62 129.27 391.8C128.88 390.84 128.92 389.82 129.82 389.09C130.41 388.61 131.16 388.71 131.64 389.19C134.86 392.41 136.17 396.89 138.88 400H138.89Z" fill="#BEC8BE"/>
</g>
<path d="M185.002 91.1674C183.099 91.2348 181.951 90.3983 181.42 89.0774C179.233 83.6547 175.861 78.975 172.321 74.4257C170.875 72.5682 171.402 71.3363 172.7 69.8373C180.067 61.3295 187.461 52.8435 194.71 44.2337C201.202 36.5233 207.466 28.6238 213.935 20.8917C216.691 17.5959 218.065 17.6155 220.953 20.9156C227.081 27.9178 232.742 35.3023 238.291 42.7715C239.108 43.8709 239.908 44.9854 240.688 46.1108C243.327 49.9236 243.258 50.2408 239.561 53.152C224.176 65.2684 208.296 76.6939 191.836 87.2959C189.57 88.7559 187.413 90.5483 185.002 91.1674ZM186.228 83.1311C186.596 82.9356 187.106 82.6532 187.626 82.3881C193.034 79.6225 197.999 76.116 203.178 72.9701C214.388 66.1613 225.153 58.6877 235.836 51.0859C237.613 49.8215 237.786 48.6592 236.326 47.0406C230.752 40.8705 225.205 34.6744 219.692 28.45C218.128 26.6838 217.057 26.8967 215.508 28.6521C208.517 36.5754 201.317 44.3162 194.315 52.233C189 58.2467 183.5 64.0822 177.909 69.8329C176.288 71.4993 176.195 72.7767 177.92 74.5148C180.187 76.7981 182.146 79.3878 184.245 81.8363C184.737 82.4099 185.073 83.218 186.226 83.1311H186.228Z" fill="#BEC8BE"/>
<path d="M155.797 75.2729C155.566 75.2012 154.675 75.06 153.912 74.669C149.476 72.3943 145.101 70.0045 140.646 67.7667C138.206 66.5414 137.541 64.8034 138.293 62.2267C140.765 53.7711 143.483 45.3981 146.512 37.1272C150.48 26.2904 154.493 15.4711 158.454 4.63222C160.339 -0.525435 161.223 -0.82742 166.457 1.0714C172.983 3.43948 179.406 6.03569 185.697 8.96864C189.877 10.9174 190.384 12.675 188.293 16.8702C179.614 34.2898 170.988 51.7354 162.331 69.1659C161.635 70.5672 160.927 71.9706 160.103 73.2959C159.284 74.6168 158.071 75.3989 155.795 75.2708L155.797 75.2729ZM144.592 60.9232C144.568 62.7568 145.528 63.5911 146.675 64.2124C148.909 65.4204 151.227 66.4784 153.431 67.7407C155.065 68.677 155.958 68.4576 156.809 66.6631C159.91 60.128 163.169 53.669 166.35 47.1709C171.295 37.0685 176.243 26.9683 181.14 16.842C181.716 15.6493 182.876 14.3848 180.791 13.166C175.304 9.95933 169.731 6.93513 164.025 4.13905C162.905 3.58939 162.372 3.56984 161.962 4.96896C161.163 7.68249 160.094 10.3156 159.21 13.0074C154.417 27.5875 149.71 42.1957 145.513 56.9648C145.112 58.3726 144.848 59.8195 144.594 60.9232H144.592Z" fill="#BEC8BE"/>
<path d="M204.957 114.998C203.57 114.967 202.655 114.379 202.205 113.108C200.918 109.467 198.822 106.275 196.569 103.203C195.097 101.198 195.392 99.9572 197.552 98.7927C207.353 93.5069 217.354 88.623 227.387 83.8064C233.368 80.9343 239.379 78.1187 245.398 75.3313C249.713 73.3325 250.996 73.8974 252.708 78.2099C255.234 84.5625 257.8 90.8998 260.378 97.2328C261.887 100.935 260.665 103.296 256.636 104C249.249 105.293 241.825 106.373 234.453 107.737C225.924 109.317 217.514 111.439 209.195 113.914C207.798 114.329 206.367 114.642 204.952 115.002L204.957 114.998ZM206.679 110.572C206.76 110.555 207.34 110.464 207.897 110.288C222.594 105.649 237.407 101.489 252.695 99.262C254.235 99.0382 254.645 98.3126 253.949 96.8135C252.094 92.8291 250.133 88.8728 248.612 84.758C247.617 82.0662 246.365 81.6404 243.821 82.6267C229.079 88.334 214.413 94.2238 199.869 100.422C198.397 101.05 198.363 101.515 199.277 102.666C201.035 104.885 202.692 107.185 204.348 109.484C204.825 110.147 205.234 110.792 206.682 110.572H206.679Z" fill="#BEC8BE"/>
<defs>
<clipPath id="clip0_229_946">
<rect width="283.92" height="373.46" fill="white" transform="translate(0 81)"/>
</clipPath>
</defs>
</svg>
