<svg width="411" height="373" viewBox="0 0 411 373" fill="none" xmlns="http://www.w3.org/2000/svg">
<g clip-path="url(#clip0_229_948)">
<path d="M0 373C2.52961 367.117 6.90892 362.925 11.9881 359.143C23.5163 350.569 33.4948 340.263 43.4932 329.988C48.6424 324.695 54.1116 319.813 60.9305 316.831C62.9102 315.961 65.0899 315.371 65.4698 313.15C66.3897 307.677 70.2091 307.737 74.5484 306.956C79.0877 306.146 85.8066 304.655 79.2477 297.522C78.1778 296.361 77.368 294.95 78.8577 293.78C79.5876 293.199 81.0974 293.159 82.0872 293.45C84.0569 294.04 85.8666 295.11 87.8063 295.821C89.2761 296.361 90.7359 296.211 91.7157 294.78C92.5156 293.62 92.1656 292.319 91.2758 291.579C83.427 284.975 91.4558 283.965 94.8852 282.734C100.154 280.843 105.214 279.492 109.573 275.3C115.562 269.537 119.141 264.065 115.952 255.33C113.562 248.807 121.561 237.871 128.73 237.081C131.749 236.751 133.639 235.4 135.159 233.069C137.699 229.157 139.378 224.825 142.718 221.233C145.597 218.121 144.348 213.709 141.228 210.898C138.728 208.646 137.159 205.885 135.249 203.294C131.36 198.001 133.939 194.719 138.578 191.808C143.918 188.456 150.707 172.878 149.317 167.305C148.447 163.834 144.797 165.254 142.728 163.934C134.749 158.861 130.05 159.301 126.06 169.546C123.441 176.27 115.882 180.762 109.093 184.534C108.113 185.084 106.813 185.605 105.784 185.425C102.544 184.854 95.2952 168.426 97.7048 166.475C108.233 157.941 110.883 144.394 118.961 134.118C126.32 124.764 134.519 124.193 144.278 124.534C145.727 124.584 147.167 124.534 148.417 124.534C146.137 117.7 143.168 111.347 151.766 106.634C154.096 105.364 156.966 101.992 150.817 101.372C149.167 101.202 147.657 100.932 148.167 98.9705C148.667 97.0495 150.277 96.1491 152.306 96.8394C154.776 97.6799 157.625 97.91 158.185 95.0885C158.785 92.077 155.656 92.7974 153.766 92.5072C152.076 92.2471 151.056 91.3266 151.726 89.4757C152.776 86.5742 155.106 84.9234 157.935 85.6938C164.644 87.5247 168.514 80.7713 175.063 80.6412C179.052 80.5611 176.812 75.0083 174.063 73.3074C160.535 64.9332 162.095 52.9171 166.114 40.6208C168.684 32.7568 169.664 25.343 166.714 17.3189C164.164 10.3754 167.934 5.14273 173.633 1.70098C177.662 -0.730263 182.032 -0.96038 185.371 3.63196C190.39 10.5255 192.46 18.4895 193.95 26.6637C194.25 28.3245 194.46 30.7458 192.35 31.166C183.751 32.8869 188.201 38.2296 189.281 42.3217C189.85 44.4928 191.79 46.2537 192.9 48.3247C199.749 61.0612 213.777 68.3549 227.815 65.2834C235.333 63.6325 242.212 64.9132 246.432 70.2759C250.991 76.0789 255.8 77.0394 262.389 77.1194C266.778 77.1694 270.168 77.3295 273.167 73.5076C276.487 69.2754 280.166 71.0563 282.676 74.5181C288.815 82.9924 294.894 82.9223 301.883 73.8777C303.233 72.1369 303.453 69.2754 306.852 69.9357C309.962 70.546 311.282 72.5471 311.941 75.3285C312.221 76.4791 312.541 77.6196 312.901 78.7402C314.631 84.0929 311.991 90.3261 316.701 95.2486C317.93 96.5393 317.481 100.161 313.541 99.5108L313.791 99.7409C313.701 95.7989 309.732 95.7789 307.612 94.2181C303.433 91.1365 307.262 90.2961 308.902 88.165C302.323 86.3641 296.274 84.233 289.425 85.7038C286.755 86.2741 283.036 86.6943 280.986 84.3931C277.067 79.9909 273.607 80.341 269.718 84.0829C268.408 85.3436 266.928 86.2741 264.959 85.6237C259.11 83.6627 253.401 84.7933 247.641 86.254C243.812 87.2245 244.292 86.6843 241.852 82.7022C239.533 78.9203 236.863 82.4321 234.473 83.6927C232.264 84.8533 231.744 88.6152 228.334 87.7448C227.895 87.6347 227.395 86.174 227.565 85.5037C228.374 82.222 231.104 81.0114 233.964 80.0309C234.523 79.8408 235.193 79.7507 235.603 79.3905C237.503 77.7097 243.102 80.361 241.672 75.5486C240.673 72.1569 236.913 69.0553 232.434 70.9863C226.435 73.5676 218.396 70.2759 213.927 77.9498C212.997 79.5506 208.518 79.6807 204.318 78.27C207.258 76.6692 209.347 75.5286 211.807 74.1879C211.007 73.5276 210.287 72.5471 209.887 72.6671C201.369 75.1184 191.9 75.0383 184.801 81.3015C180.852 84.7933 175.993 87.4847 171.733 89.6658C160.845 95.2386 159.825 104.703 158.445 114.438C157.016 124.484 152.966 129.406 142.818 131.697C135.159 133.418 130 137.61 125.64 144.314C119.781 153.328 116.302 164.124 107.023 170.797C105.724 171.738 104.304 173.639 106.283 175.219C107.553 176.23 109.173 175.409 110.203 174.269C114.342 169.657 118.702 165.204 122.441 160.282C126.96 154.319 132.499 149.566 138.228 144.904C144.048 140.162 149.387 136.81 156.096 144.033C161.655 150.017 162.195 153.228 156.666 161.162C164.494 160.882 169.164 169.687 166.944 180.542C169.49 178.661 171.673 175.429 173.493 170.847C174.013 171.037 174.543 171.217 175.063 171.407C172.293 178.711 176.872 180.792 182.592 182.513C185.351 183.343 188.151 184.824 190.32 186.705C193.67 189.597 195.06 193.469 189.88 195.67C187.511 196.68 183.911 196.06 184.481 199.682C185.251 204.554 186.281 210.047 190.37 213.029C192.09 214.279 197.229 216.66 199.049 208.316C200.479 214.629 199.469 217.191 197.939 220.592C195.6 225.785 192.55 232.268 200.239 236.951C204.188 239.352 203.878 239.862 208.738 231.838C209.827 237.001 214.937 240.943 207.788 245.625C205.098 247.386 203.678 252.759 207.628 255.71C212.277 259.182 212.347 253.519 214.687 251.888C220.606 247.766 219.096 242.153 219.796 236.891C220.176 234.019 219.886 230.958 223.195 228.747C227.295 233.739 224.325 239.042 224.205 244.004C224.135 247.146 222.465 250.057 223.595 253.499C224.475 256.161 220.956 261.473 228.604 258.272C230.914 257.301 232.084 264.895 234.913 267.827C240.203 262.344 240.193 262.114 234.673 256.181C234.483 255.97 234.104 255.72 234.134 255.54C236.233 244.635 220.636 234.99 232.154 223.084C234.873 220.272 232.264 214.88 233.564 210.357C235.333 204.194 239.883 200.132 242.212 194.379C244.792 197.141 247.002 199.542 251.451 200.112C256.62 200.772 259.01 206.075 260.809 210.858C264.839 221.573 272.648 227.536 283.956 226.676C287.685 226.395 289.945 228.066 293.864 229.417C293.224 224.575 293.044 220.853 286.935 221.533C284.976 221.753 281.986 221.753 281.026 220.582C273.457 211.358 262.059 205.645 258.04 192.998C253.82 179.702 251.771 166.525 253.69 152.738C254.29 148.466 254.13 143.853 259.58 139.801C258.81 147.715 257.9 154.399 257.59 161.122C257.26 168.166 257.52 175.229 258.24 182.623C265.459 171.517 270.028 159.151 274.487 145.304C275.977 150.667 271.708 154.599 275.397 159.051C284.246 150.377 287.275 139.191 289.475 126.665C291.035 128.456 291.755 128.946 291.685 129.256C288.195 144.214 293.874 158.621 294.504 173.338C294.864 181.643 298.564 189.547 304.773 195.33C309.812 200.022 307.662 206.865 310.382 211.258C314.571 218.011 311.671 223.934 311.541 230.207C311.491 232.679 310.172 235.1 307.342 235.05C304.613 234.99 304.883 232.238 304.373 230.307C303.273 226.105 302.553 221.793 300.163 218.281C303.103 215.82 304.813 222.794 306.742 218.682C308.302 215.36 306.572 211.468 304.173 208.846C301.693 206.135 300.133 209.337 298.574 210.797C294.774 214.349 292.604 218.001 297.104 222.814C298.853 224.695 299.633 227.456 300.993 229.737C302.493 232.268 304.923 235.02 301.053 237.191C298.494 238.632 294.854 242.284 292.474 238.642C287.115 230.427 277.817 233.829 274.067 235.83C264.959 240.683 266.069 232.569 265.529 230.017C264.439 224.855 263.959 220.733 257.8 218.852C252.631 217.281 251.471 211.728 250.691 205.945C244.882 212.158 244.362 217.301 248.661 223.804C254.28 232.298 255.3 244.785 261.959 250.898C276.257 264.035 272.788 282.934 281.326 297.422C282.266 299.022 281.556 300.873 280.746 302.514C278.337 307.417 279.127 312.189 281.126 317.042C286.115 329.178 288.865 341.884 289.405 354.941C289.695 361.864 295.574 366.367 296.054 373.01H216.266C217.766 365.846 218.206 358.573 224.485 352.98C228.434 349.468 222.745 330.979 217.756 331.079C211.537 331.209 211.937 328.377 212.197 324.565C212.357 322.234 211.617 319.593 209.827 319.283C198.549 317.372 197.859 305.085 188.251 299.653C194.96 300.923 200.019 298.602 204.728 302.714C211.487 308.627 222.065 309.258 226.975 318.142C227.235 318.622 228.564 318.903 229.234 318.702C232.694 317.712 232.664 317.652 233.554 320.393C234.284 322.624 234.993 324.866 235.803 327.077C236.613 329.288 237.343 332.109 240.163 331.979C243.322 331.839 242.972 328.637 243.412 326.486C244.912 319.063 246.252 311.599 247.651 304.155C249.581 313.77 248.441 322.955 245.872 332.049C245.272 334.16 244.312 337.582 247.291 338.082C250.721 338.663 249.941 335.081 250.111 332.96C251.091 320.383 251.821 307.787 253.021 295.23C253.361 291.699 252.351 290.878 249.091 290.038C244.112 288.757 239.973 274.14 244.012 272.419C253.611 268.317 248.701 261.703 248.541 255.75C236.653 269.107 233.194 286.516 224.815 304.185C224.575 294.95 216.586 294.19 213.977 288.297C212.727 285.465 209.907 288.277 210.107 290.968C210.527 296.641 207.458 294.89 205.678 292.809C200.749 287.076 193.28 284.835 188.201 279.472C185.281 276.391 180.392 273.549 181.912 268.757C183.781 262.884 179.792 260.213 177.272 256.631C176.143 255.02 174.633 253.039 172.193 254.39C169.574 255.84 173.593 257.962 171.783 259.862C171.153 259.172 170.613 258.552 170.044 257.971C167.054 254.92 167.364 247.366 162.485 248.287C157.405 249.237 162.135 255.55 160.495 259.192C158.375 263.905 158.415 269.397 161.955 272.479C172.363 281.513 175.573 292.689 174.943 305.856C174.603 312.859 174.003 320.083 178.222 326.456C180.812 330.368 184.861 333.04 189.031 332.98C193.14 332.92 190.45 327.057 192.88 324.605C195.09 326.857 193.12 330.609 197.079 332.089C205.318 335.161 205.418 342.725 204.928 349.748C204.328 358.503 199.679 365.826 194.99 373H179.032C179.152 360.994 187.851 349.298 181.172 336.542C176.872 338.673 179.012 343.005 175.773 345.846C176.023 336.972 174.913 328.948 173.453 320.974C172.033 313.22 168.614 306.016 168.504 295.591C164.424 304.685 170.333 311.859 164.694 320.303C164.014 313.72 163.705 309.168 163.005 304.685C162.735 302.964 161.565 301.304 159.325 301.854C158.755 301.994 157.945 303.185 158.055 303.735C159.665 312.189 153.896 319.763 155.226 328.207C155.476 329.768 154.556 331.809 151.356 330.619C153.516 318.202 154.216 305.626 153.256 292.859C153.046 290.098 153.976 287.977 150.976 287.446C146.557 286.676 142.438 288.047 139.398 291.499C138.818 292.159 138.738 294.37 139.218 294.69C143.018 297.221 144.997 293.81 147.457 291.909C147.717 291.709 148.387 292.039 148.927 292.139C149.047 295.331 147.797 296.951 144.827 298.872C141.918 300.763 135.459 303.355 137.789 307.267C141.178 312.969 140.448 317.782 138.858 323.135C137.969 326.146 138.648 328.107 141.358 329.808C148.367 334.2 152.026 341.534 156.056 348.257C158.995 353.17 162.245 359.723 159.645 364.876C157.405 369.318 159.965 370.509 161.315 373H0ZM271.678 363.065C269.178 361.424 264.429 363.785 265.859 360.074C269.298 351.149 264.849 341.954 268.018 333.02C269.638 328.447 269.218 322.995 266.948 316.271C262.779 332.079 259.03 346.126 260.749 360.924C261.099 363.905 259.65 368.098 263.639 369.468C268.888 371.279 267.598 364.546 271.668 363.075L271.678 363.065ZM180.522 29.5552C177.132 31.236 177.622 33.8774 176.992 36.0285C174.973 42.952 178.682 49.7254 176.493 57.1992C174.623 63.5725 187.131 72.357 194.62 71.5666C195.67 71.4565 197.109 70.9562 197.559 70.1658C198.569 68.3949 196.989 67.5245 195.63 67.0042C189.76 64.7431 190.69 55.4183 182.772 54.9381C180.732 54.818 181.682 51.7165 181.692 49.6454C181.722 43.0821 180.992 36.5187 180.522 29.5552Z" fill="#BEC8BE"/>
<path d="M313.531 99.5107C315.631 104.383 318.291 109.116 319.63 114.198C320.56 117.73 324.06 124.914 314.281 121.582C311.142 120.511 312.032 123.233 312.052 124.664C312.092 128.205 312.452 131.747 312.482 135.289C312.502 137.77 311.722 140.532 309.132 140.902C305.303 141.462 308.052 136.97 305.863 135.799C304.023 137.46 301.443 138.501 300.923 141.452C300.503 143.823 299.584 145.304 296.754 144.093C293.524 142.713 295.544 140.742 296.054 138.991C297.384 134.489 298.804 130.026 300.133 125.724C303.883 124.213 303.383 129.616 306.662 129.156C307.952 124.553 304.653 120.181 306.113 114.668C298.934 125.604 289.905 121.602 281.236 119.251C273.558 117.16 270.878 110.606 269.878 103.923C268.958 97.8098 274.607 95.6787 279.207 93.7978C292.935 88.1649 299.824 92.0769 304.783 107.225C305.833 110.426 309.032 112.928 311.302 115.829C315.151 111.857 312.332 108.875 310.602 105.984C308.192 101.962 309.032 99.9209 313.801 99.7508L313.551 99.5107H313.531Z" fill="#BEC8BE"/>
<path d="M201.789 137.67C198.339 131.117 203.038 125.444 203.828 118.901C192.66 124.413 192.2 126.775 193.83 159.441C193.71 157.3 193.69 155.149 193.45 153.028C192.98 148.846 193.12 145.094 189.92 140.992C183.681 132.988 194.01 112.747 204.388 111.767C207.368 111.487 210.227 106.494 212.827 110.376C215.497 114.358 211.477 117.41 209.088 120.161C204.718 125.204 202.389 130.947 201.789 137.68V137.67Z" fill="#BEC8BE"/>
</g>
<path d="M398.694 43.6935C396.383 44.278 394.064 44.8369 391.76 45.4502C379.641 48.6732 367.526 51.9106 355.408 55.1402C354.786 55.3054 354.15 55.4197 353.532 55.5993C351.472 56.1971 350.62 55.3298 350.273 53.3013C349.097 46.4251 347.798 39.57 346.531 32.7093C346.435 32.1858 346.608 31.4327 345.956 31.2375C345.189 31.0079 344.862 31.8009 344.474 32.249C339.789 37.6568 335.132 43.0901 330.469 48.5168C330.207 48.8218 329.977 49.1579 329.69 49.4385C329.039 50.0773 328.416 51.417 327.422 50.6484C326.362 49.8277 327.569 48.9538 328.092 48.2296C333.649 40.5382 339.224 32.8601 344.795 25.1798C345.031 24.8548 345.264 24.5254 345.52 24.216C346.224 23.3631 347.05 22.7443 348.233 23.1047C349.406 23.4618 349.75 24.3957 349.878 25.518C350.844 33.9647 351.868 42.4058 352.78 50.8592C352.943 52.3664 353.479 52.5749 354.79 52.1856C362.498 49.8954 370.218 47.6451 377.937 45.3903C387.81 42.5068 397.687 39.6298 407.562 36.7529C408.732 36.4124 409.963 35.9378 410.698 37.4539C411.429 38.9589 410.753 39.9792 409.591 40.9929C399.652 49.6614 389.765 58.3897 379.82 67.0516C378.362 68.3215 378.271 69.4394 379.374 70.9755C383.453 76.6572 387.473 82.3811 391.488 88.1095C392.205 89.1309 393.252 90.1335 392.414 91.5786C391.656 92.8873 390.371 93.0759 389.046 92.975C383.675 92.569 378.315 92.0755 372.925 91.8737C366.905 91.6474 360.898 91.0729 354.886 90.647C354.326 90.6071 353.757 90.596 353.21 90.4884C352.713 90.3908 352.294 90.0914 352.322 89.5158C352.35 88.9135 352.848 88.7383 353.336 88.6928C354.055 88.6263 354.782 88.6196 355.505 88.6174C363.957 88.5919 372.409 88.572 380.863 88.5498C381.346 88.5487 381.836 88.5875 382.309 88.5198C383.313 88.3779 384.642 88.6485 385.11 87.5649C385.54 86.5679 384.403 85.878 383.877 85.1128C380.46 80.143 377.07 75.1555 373.551 70.259C372.307 68.5277 372.76 67.31 374.145 66.0967C381.347 59.7938 388.553 53.4976 395.748 47.1882C396.828 46.241 397.856 45.234 398.908 44.2536C398.839 44.0661 398.768 43.8798 398.698 43.6924L398.694 43.6935Z" fill="#BEC8BE"/>
<defs>
<clipPath id="clip0_229_948">
<rect width="321" height="373" fill="white"/>
</clipPath>
</defs>
</svg>
