<svg width="502" height="314" viewBox="0 0 502 314" fill="none" xmlns="http://www.w3.org/2000/svg">
<g clip-path="url(#clip0_227_777)">
<path d="M490.997 2.9646H0V308.687H490.997V2.9646Z" fill="#2D372D"/>
<path d="M9.59693 12.9456C9.59693 10.9941 9.59693 9.04261 9.59693 7.0911C10.3371 7.18048 10.9977 7.51815 11.6187 7.96009C16.0049 11.0438 20.8928 13.035 25.3833 15.9399C28.3588 17.8666 31.7167 19.0882 34.7568 21.0447C38.5966 23.5176 42.6251 25.628 46.5792 27.8824C48.9387 29.2281 51.2833 30.6235 53.7918 31.6216C56.4047 32.6644 58.953 33.8462 61.2678 35.5892C62.8126 36.7511 64.5711 37.3718 66.3146 38.072C67.8893 38.7076 69.5435 39.3978 70.8201 40.5449C71.7937 41.4189 72.7325 42.2084 73.885 42.5808C77.7844 43.8471 81.0529 46.5981 84.7884 48.2318C87.138 49.2597 89.0355 51.1665 91.3006 52.3881C92.8604 53.2322 94.7232 52.9393 96.129 54.0913C98.9951 56.445 102.343 57.6567 105.632 58.8782C107.147 59.4393 108.796 60.3778 110.554 59.772C111.746 59.3599 112.939 59.4443 114.161 59.633C118.05 60.2388 121.94 61.0879 125.849 61.3064C133.057 61.6987 140.299 60.9787 147.497 62.0314C150.76 62.5081 153.944 61.3213 157.203 61.371C162.399 61.4504 167.6 61.4455 172.796 61.371C176.188 61.3213 179.571 60.795 182.964 61.366C183.59 61.4703 184.236 61.3412 184.802 60.9886C185.646 60.4623 186.555 60.4374 187.484 60.4076C190.693 60.3034 193.892 60.4623 197.086 60.7652C200.554 61.0929 203.931 60.1047 207.374 60.0749C211.646 60.0402 215.923 60.0005 220.18 59.7025C224.064 59.4294 227.924 59.4344 231.813 59.6926C234.655 59.8813 237.521 59.777 240.298 58.7491C241.604 58.2674 243 58.2277 244.291 58.8931C245.747 59.6429 247.212 59.5386 248.707 59.1861C249.274 59.052 249.85 58.8087 250.416 58.8286C256.293 59.0172 262.154 58.6696 267.996 58.0936C271.493 57.751 274.99 58.1929 278.457 57.7609C281.065 57.4332 283.638 56.9366 286.276 57.3736C286.976 57.4878 288.114 57.3289 288.144 56.5344C288.218 54.2502 289.654 54.6673 290.816 54.5879C293.275 54.4141 295.788 55.5413 298.213 54.1012C298.545 53.9026 299.141 54.2452 299.613 54.3396C300.86 54.5978 302.276 55.0397 303.269 54.0565C305.266 52.0802 307.859 52.11 310.144 51.4992C313.348 50.6451 316.741 50.516 320.104 50.6004C321.967 50.6451 324.038 50.8785 325.692 49.9251C327.898 48.6539 330.337 48.8177 332.622 47.9686C335.393 46.9407 338.523 47.7402 341.563 46.6676C344.27 45.7092 347.355 45.4411 350.335 45.7787C352.635 46.0419 354.831 44.9693 357.121 45.019C357.478 45.024 357.881 44.7906 358.189 44.5472C358.949 43.9464 359.788 43.8272 360.678 43.8322C363.643 43.8421 366.604 43.8372 369.569 43.8322C370.2 43.8322 371.005 44.001 371.387 43.4647C372.858 41.4189 374.904 41.6523 376.752 41.9502C379.688 42.4269 382.132 40.3463 384.943 40.391C385.177 40.391 385.5 40.1079 385.639 39.8596C386.279 38.7225 387.258 38.5835 388.316 38.6331C391.525 38.7771 394.719 38.4544 397.918 38.2955C398.405 38.2706 398.976 38.3054 399.279 37.8585C400.153 36.5773 401.37 36.7114 402.587 36.6667C404.425 36.5972 406.343 37.1136 408.081 36.3539C409.611 35.6885 411.097 35.5941 412.641 35.8623C413.63 36.0361 414.554 35.8623 415.513 35.604C417.211 35.1472 418.776 34.015 420.47 33.8561C423.138 33.6078 425.586 33.0914 428.12 31.8649C432.312 29.829 436.838 28.6769 441.139 26.8347C444.204 25.5237 447.428 24.7491 450.284 22.7678C452.783 21.0397 455.768 20.6673 458.555 19.7735C459.395 19.5053 460.294 19.4159 460.92 18.6363C462.757 16.3571 465.281 16.079 467.77 15.7016C470.318 15.3143 472.841 14.8624 474.818 12.7669C475.236 12.3249 475.722 11.5503 476.264 11.9078C477.605 12.8016 478.415 11.9177 479.359 11.1282C480.148 10.4678 481.092 10.1748 482.071 10.0159C483.089 9.85202 484.078 9.54911 484.957 8.9433C486.328 7.99982 488.066 8.03458 489.358 6.87758C489.512 6.7435 489.894 6.70378 490.048 6.82295C491.116 7.66215 491.976 6.90737 492.875 6.43066V17.1615C488.618 19.0137 484.773 21.7995 480.605 23.8652C476.487 25.9061 472.538 28.3691 468.46 30.5192C465.216 32.2274 462.047 34.1044 458.774 35.758C454.983 37.6747 451.422 40.1477 447.647 42.0992C443.474 44.2592 439.421 46.6974 435.248 48.8575C431.647 50.7246 428.14 52.835 424.568 54.7815C423.565 55.3277 422.566 55.9286 422.05 57.1353C421.821 57.6616 421.503 57.7709 420.992 57.7212C419.924 57.6219 416.958 59.7373 416.635 60.8943C416.422 61.664 416.039 62.0513 415.413 62.3492C413.054 63.4566 410.868 64.8917 409.532 67.4192C408.419 69.5296 406.849 71.4761 406.894 74.1427C407.033 81.8346 406.616 89.5214 406.601 97.2083C406.571 113.074 406.576 128.939 406.596 144.804C406.601 149.79 406.353 154.766 406.343 159.741C406.308 175.83 406.109 191.919 406.576 208.008C406.681 211.578 406.258 215.138 406.253 218.719C406.253 221.355 407.103 222.9 409.313 223.938C416.292 227.22 423.202 230.676 430.142 234.058C439.262 238.502 448.387 242.926 457.507 247.38C464.844 250.966 472.161 254.596 479.498 258.176C483.943 260.346 488.414 262.451 492.875 264.587C492.875 278.838 492.86 293.09 492.905 307.341C492.905 308.563 492.656 308.836 491.563 308.836C400.332 308.801 309.096 308.806 217.865 308.806C148.883 308.806 79.9005 308.806 10.9133 308.836C9.82046 308.836 9.56713 308.563 9.57209 307.341C9.6168 294.5 9.6019 281.654 9.6019 268.812C13.4318 266.97 17.2716 265.153 21.0915 263.281C30.6786 258.573 40.2358 253.791 49.8428 249.123C60.9598 243.721 72.1265 238.437 83.2485 233.04C89.3832 230.065 95.4584 226.917 101.598 223.957C103.178 223.198 103.908 222.115 103.759 220.238C103.724 219.806 103.759 219.374 103.759 218.937C103.759 173.486 103.739 128.03 103.774 82.5794C103.774 77.6684 102.656 72.9708 102.035 68.1789C102.01 67.9753 101.916 67.7568 101.797 67.593C100.247 65.4826 98.8511 63.1934 96.422 62.1258C95.6173 61.7732 94.748 61.1773 94.4549 60.2885C94.0923 59.1762 93.8986 58.5902 92.6716 57.9397C91.3006 57.2147 89.8303 56.301 88.4692 55.3575C86.0203 53.6493 83.3379 52.5321 80.7896 51.092C76.3289 48.5744 71.7837 46.2604 67.2833 43.8322C64.0942 42.1141 60.9449 40.3115 57.7509 38.6033C52.0284 35.5345 46.296 32.4806 40.5438 29.4764C36.1526 27.1872 31.9204 24.5405 27.4398 22.44C24.673 21.144 22.0204 19.555 19.3132 18.105C16.0794 16.372 12.8406 14.6439 9.6019 12.9158L9.59693 12.9456ZM254.018 223.133C302.797 223.133 351.582 223.133 400.362 223.133C401.092 223.133 401.827 223.118 402.558 223.088C402.851 223.073 403.169 222.994 403.268 222.641C403.377 222.264 403.114 222.036 402.861 221.887C402.135 221.46 402.006 220.933 402.553 220.223C402.781 219.92 402.776 219.553 402.761 219.165C402.637 215.446 402.423 211.727 402.448 208.013C402.513 197.307 402.642 186.596 402.602 175.899C402.543 158.937 403.437 141.974 402.006 124.996C401.445 118.332 401.107 111.539 401.236 104.786C401.246 104.364 401.192 103.932 401.107 103.52C400.183 99.0655 400.854 94.4772 399.905 89.9683C399.274 86.984 399.796 83.7116 399.776 80.5683C399.761 78.7757 399.001 77.3506 397.62 76.4667C394.669 74.5747 391.351 73.6412 388.172 72.3501C386.428 71.64 384.591 72.0869 382.802 71.8585C376.608 71.0789 370.389 70.632 364.16 70.2347C361.005 70.0361 357.871 69.9517 354.717 69.8822C348.045 69.7382 341.379 69.3161 334.698 69.3459C331.136 69.3608 327.575 69.3459 324.013 69.3508C323.03 69.3508 322.106 69.182 321.167 68.7798C319.726 68.1591 318.191 68.1591 316.746 68.8046C315.906 69.177 315.077 69.3558 314.188 69.3508C309.652 69.3409 305.112 69.3508 300.577 69.3508C299.842 69.3508 299.117 69.3061 298.431 68.9536C296.931 68.1789 295.431 68.2038 293.911 68.9238C292.555 69.5644 291.089 69.6488 289.773 69.0529C288.591 68.5216 287.438 68.3974 286.216 68.4024C247.247 68.5861 208.273 68.0151 169.304 68.6954C166.969 68.7351 164.629 68.5315 162.295 68.3925C159.12 68.2038 155.966 68.6755 152.797 68.745C147.427 68.8592 142.077 68.3825 136.713 68.3875C133.697 68.3875 130.707 68.9139 127.667 68.4669C125.561 68.1591 123.38 68.3279 121.234 68.4372C119.6 68.5216 118.125 69.4601 116.396 69.4104C113.778 69.3359 111.289 69.8077 108.975 71.6102C106.193 73.7802 104.737 76.4567 104.718 80.1214C104.608 101.96 104.787 123.8 104.474 145.644C104.206 164.18 104.41 182.727 104.434 201.269C104.434 204.025 104.171 206.801 104.916 209.527C105.115 210.257 105.115 211.171 104.906 211.901C104.236 214.254 104.434 216.653 104.429 219.036C104.42 223.52 104.082 223.138 108.249 223.138C156.835 223.148 205.422 223.143 254.013 223.138L254.018 223.133Z" fill="#3C473C"/>
<path d="M495.036 63.0841C495.036 79.7241 495.021 96.3591 495.051 112.999C495.055 115.964 494.847 118.908 494.489 121.848C494.385 122.717 494.479 123.536 494.683 124.38C494.882 125.205 495.11 126.084 495.021 126.903C494.236 133.905 495.433 140.886 495.17 147.888C494.911 154.914 494.777 161.976 495.18 168.992C496.879 198.732 495.83 228.506 496.585 258.25C496.799 266.697 496.839 275.163 497.211 283.615C497.529 290.781 495.97 297.852 496.153 305.017C496.198 306.79 496.66 307.217 498.339 307.043C499.223 306.954 500.137 307.058 501.031 307.128C501.538 307.167 501.985 307.391 502 307.967C502.015 308.573 501.553 308.801 501.046 308.761C499.794 308.672 499.005 309.149 498.374 310.176C497.827 311.06 496.774 311.09 495.771 311.09C492.443 311.09 489.115 311.045 485.791 311.13C467.432 311.617 449.067 311.532 430.703 311.468C426.635 311.453 422.522 310.941 418.513 311.572C409.825 312.932 401.107 312.113 392.409 312.292C378.764 312.57 365.108 312.52 351.458 312.774C307.238 313.593 263.019 312.754 218.799 313.111C213.603 313.156 208.397 313.23 203.206 313.101C200.951 313.047 198.919 314.144 196.659 313.886C195.363 313.737 194.026 313.975 192.79 313.35C192.506 313.206 192.084 313.151 191.786 313.235C187.554 314.432 183.342 314.035 179.109 313.215C178.31 313.062 177.45 313.156 176.621 313.156C154.163 313.126 131.7 313.335 109.248 313.012C75.2858 312.515 41.3237 312.878 7.3666 312.679C6.25887 312.674 5.14617 312.674 4.03844 312.649C0.978526 312.59 0.556297 312.217 0.541395 309.312C0.476819 295.895 0.640743 282.478 0.30296 269.066C0.0694926 259.79 0.591069 250.529 0.32283 241.268C-0.119268 225.814 -0.0546923 210.361 0.183743 194.913C0.496689 174.732 1.40572 154.547 0.735124 134.376C0.183743 117.553 0.119166 100.734 0.104264 83.9052C0.0893621 69.6487 -0.0646271 55.3873 0.16884 41.1308C0.372504 28.7712 0.347667 16.4116 0.41721 4.05203C0.43708 1.27124 1.30141 0.417146 4.05334 0.41218C27.2709 0.367489 50.4836 -0.258187 73.7012 0.124171C78.9666 0.208587 84.2519 0.0695481 89.4826 0.486665C91.6782 0.660464 93.6552 0.948474 95.9303 0.531357C98.4736 0.0695481 101.31 -0.0297656 103.898 1.07758C104.251 1.22655 104.742 1.23648 105.125 1.1471C111.488 -0.322741 118.005 0.114239 124.339 0.635636C136.524 1.64367 148.689 0.819366 160.854 1.18683C165.141 1.31593 169.418 1.28117 173.715 1.54932C179.348 1.89692 185.03 1.52946 190.639 0.620739C191.518 0.476734 192.437 0.496597 193.336 0.496597C206.852 0.496597 220.393 0.0298227 233.88 0.600876C282.222 2.66163 330.58 1.02792 378.923 1.66353C391.535 1.8274 404.152 1.76285 416.769 1.64367C419.506 1.61884 422.099 2.23955 424.777 2.42825C428.289 2.67157 431.811 2.42825 435.328 2.59211C441.045 2.8553 446.887 2.61694 452.674 1.89692C456.588 1.41028 460.612 1.68836 464.64 2.17003C470.035 2.81557 475.539 3.188 481.013 2.6815C484.475 2.35873 487.937 2.45308 491.4 2.49777C494.142 2.53253 494.584 3.06882 494.713 5.68574C495.388 19.3563 494.877 33.0367 495.021 46.7072C495.075 52.1645 495.031 57.6218 495.031 63.0841H495.036ZM30.9766 142.59C30.0825 142.043 29.6901 141.289 29.1983 140.579C27.9018 138.697 27.574 136.407 26.2278 134.54C24.4246 132.042 24.4693 132.013 22.7606 134.501C22.4973 134.883 22.2688 135.34 21.8962 135.598C20.9077 136.293 19.7006 137.078 18.5482 136.566C15.6671 135.295 14.465 132.435 12.5526 130.245C12.1601 129.798 12.5526 128.969 12.791 128.348C12.9301 127.981 13.1536 127.628 13.1983 127.251C13.2579 126.784 12.9003 126.545 12.4333 126.491C11.9614 126.436 11.7627 126.784 11.8124 127.097C12.0757 128.81 10.7941 130.22 10.6848 131.73C10.3868 135.896 10.4812 140.067 9.75095 144.228C9.35852 146.468 9.74101 148.822 9.6516 151.121C9.06048 165.7 10.347 180.244 10.6103 194.809C10.7444 202.426 9.49761 209.974 9.71617 217.566C10.049 229.171 8.99093 240.796 10.4215 252.401C11.112 257.997 10.3272 263.643 9.74598 269.259C9.37839 272.849 9.9248 276.489 9.44297 280.094C9.34362 280.854 9.59199 281.574 10.0589 282.135C11.5243 283.888 12.637 285.78 14.619 287.305C16.7748 288.963 18.5482 291.178 20.8431 292.856C22.1943 293.849 23.8335 294.659 24.8568 295.826C26.4166 297.603 28.3985 298.949 29.8788 300.766C31.6721 302.971 34.4091 304.178 36.3364 306.254C37.2703 307.257 38.6314 307.604 39.9477 307.406C41.731 307.137 43.5193 307.341 45.3076 307.172C46.8524 307.028 48.4271 306.765 50.0465 306.964C54.3681 307.495 58.7245 307.773 63.066 307.252C64.8294 307.038 66.5332 308.175 68.3215 307.276C68.6394 307.118 69.315 307.629 69.8316 307.803C70.3482 307.977 70.8648 308.2 71.3963 308.25C76.5127 308.712 81.6143 307.957 86.7406 308.046C88.6878 308.081 90.8834 308.543 92.8753 307.569C93.3224 307.351 94.1122 307.599 94.6835 307.793C99.6608 309.461 104.703 308.607 109.66 307.912C112.268 307.545 114.866 307.291 117.459 307.366C123.832 307.545 130.205 307.555 136.574 307.381C138.62 307.326 140.652 306.78 142.748 306.944C148.937 307.44 155.147 307.475 161.341 308.131C168.429 308.88 175.508 307.778 182.567 306.894C186.744 306.368 191.006 306.328 195.194 306.959C197.32 307.276 199.346 307.247 201.269 306.368C202.615 305.752 204.09 305.558 205.297 306.115C209.391 308.006 213.707 307.346 217.969 307.485C219.256 307.53 220.224 306.427 221.566 306.81C225.922 308.056 230.343 307.435 234.754 307.222C240.973 306.924 247.187 306.993 253.332 308.141C254.008 308.265 254.976 308.513 255.309 307.982C256.422 306.219 258.18 306.825 259.75 306.606C262.393 306.239 265.02 305.697 267.663 306.606C267.906 306.691 268.229 306.651 268.488 306.581C273.872 305.166 279.366 306.09 284.811 305.896C285.357 305.876 286.018 305.841 286.44 306.09C287.711 306.849 288.844 306.174 290.021 305.946C290.364 305.881 290.737 305.807 290.786 305.404C290.836 304.972 290.622 304.57 290.185 304.471C288.69 304.118 288.193 302.718 287.115 301.943C286.763 301.695 286.445 301.417 286.604 300.97C286.788 300.459 287.284 300.33 287.786 300.334C289.033 300.344 290.299 300.26 291.521 300.439C296.345 301.154 300.955 302.792 305.847 303.344C307.432 303.522 309.861 303.791 310.249 306.254C310.318 306.7 311.078 306.929 311.48 306.72C313.075 305.901 314.992 306.899 316.567 305.732C317.382 305.126 318.564 305.429 319.607 305.529C323.919 305.936 328.235 306.606 332.552 306.606C337.629 306.601 342.701 306.84 347.827 306.02C352.481 305.28 357.364 305.831 362.148 305.827C372.733 305.817 383.324 305.712 393.909 305.846C400.114 305.926 406.308 305.519 412.537 306.457C416.297 307.023 420.281 306.502 424.166 306.621C432.402 306.869 440.658 306.333 448.889 307.023C449.574 307.083 450.309 307.142 450.96 306.974C453.156 306.403 455.371 306.651 457.581 306.547C460.085 306.432 462.623 306.581 465.187 305.941C468.554 305.102 472.116 306.045 475.573 306.249C477.024 306.333 478.176 305.434 479.547 305.827C481.986 306.527 484.435 305.558 486.879 305.846C488.181 306 488.727 305.434 488.866 304.193C489.288 300.384 488.985 296.57 489.06 292.762C489.105 290.502 488.235 290.07 486.169 291.317C485.384 291.793 484.733 292.166 483.953 291.535C483.198 290.924 483.323 290.075 483.65 289.345C484.147 288.238 484.326 287.086 484.554 285.919C485.21 282.592 485.573 279.151 488.151 276.474C488.489 276.122 488.613 275.69 488.648 275.213C489.01 270.183 489.591 265.153 489.085 260.103C488.941 258.643 489.984 257.515 489.974 256.105C489.949 252.421 490.024 248.741 490.043 245.056C490.053 243.438 490.327 241.779 488.802 240.488C488.285 240.051 488.389 239.266 488.434 238.601C488.951 230.462 489.169 222.319 489.035 214.17C488.851 203.196 488.255 192.227 488.409 181.247C488.449 178.501 488.692 175.765 488.454 173.004C488.315 171.391 487.952 170.368 486.169 169.742C484.222 169.062 482.101 168.506 480.963 166.465C479.791 164.359 480.496 162.656 482.985 162.279C484.073 162.115 485.205 162.234 486.303 162.095C487.927 161.891 488.672 160.968 488.106 159.453C487.113 156.801 486.954 153.916 486.601 151.255C485.846 145.569 485.548 139.759 485.876 133.954C486.079 130.324 486.124 126.665 485.717 122.98C485.25 118.734 484.932 114.34 487.033 110.253C487.301 109.737 487.674 109.007 487.306 108.555C485.598 106.464 486.621 103.932 485.955 101.687C485.826 101.24 485.682 100.674 486.144 100.406C487.406 99.6762 486.586 99.2094 486.015 98.6284C485.543 98.1517 485.121 97.6254 484.718 97.0891C483.034 94.8744 483.059 94.5119 485.608 93.0073C487.133 92.1035 487.585 90.7876 486.904 89.4916C485.409 86.6562 486.924 83.5774 485.841 80.747C485.742 80.4838 485.851 80.022 486.05 79.8085C488.101 77.6335 486.631 75.1358 486.427 72.9509C485.786 66.2124 485.17 59.4939 486 52.7505C486.745 46.7023 485.821 40.5995 487.272 34.5165C487.853 32.0833 487.381 29.0393 487.152 26.3926C486.725 21.422 488.757 16.059 485.19 11.4608C485.757 9.03261 483.626 9.19151 482.274 8.96805C480.173 8.61549 478.007 8.61052 475.866 8.45659C472.702 8.2232 469.488 8.21823 466.389 7.66704C464.581 7.34924 462.738 6.93212 461.083 7.40386C458.466 8.14375 455.833 8.15865 453.27 7.85574C450.925 7.57269 448.769 6.96192 446.981 9.02267C446.753 9.28586 446.231 9.42986 445.839 9.43483C443.414 9.46959 440.911 9.81718 438.586 9.36531C433.778 8.43672 428.825 8.54597 424.076 7.31945C423.485 7.16551 422.8 7.20523 422.293 7.63228C421.2 8.55093 419.889 8.53107 418.563 8.50128C410.525 8.32251 402.493 8.14871 394.456 7.96498C394.044 7.95505 393.621 7.94512 393.214 7.87064C387.313 6.78812 381.267 6.19224 375.346 6.21706C343.639 6.33127 311.918 5.11468 280.221 6.77819C277.792 6.90729 275.422 6.30148 273.043 6.14754C261.181 5.36793 249.284 5.52683 237.407 4.58832C227.77 3.82857 218.029 4.11161 208.332 4.15134C189.208 4.23079 170.084 4.15631 150.959 4.3301C140.716 4.41949 130.454 4.25065 120.196 4.12651C116.873 4.08679 113.574 4.63798 110.231 4.40955C100.446 3.72926 90.5854 4.76212 80.8244 3.332C78.6885 3.01916 76.776 4.05699 74.7145 4.11161C70.8052 4.21093 66.9555 3.9974 63.0263 3.59518C56.9611 2.96951 50.7469 2.59708 44.5774 3.12344C40.9561 3.43132 37.3051 4.02223 33.7633 4.21589C29.7 4.43935 25.3138 4.90612 21.2405 3.40152C20.8829 3.26745 20.3464 3.26248 20.0186 3.42138C18.0962 4.34997 15.9602 4.14637 13.9335 4.50887C12.7761 4.71743 12.2297 5.24379 11.7031 6.24189C10.8587 7.85574 12.1999 9.12695 12.0658 10.6067C11.261 19.4556 12.4433 28.3243 11.8373 37.193C11.5144 41.9005 11.8919 46.6477 12.2247 51.375C12.8456 60.1791 11.7329 68.9684 11.8025 77.7726C11.8025 78.3535 11.5988 78.9296 11.5193 79.5105C11.0325 83.0113 8.25576 86.5469 11.6882 89.9931C11.7727 90.0775 11.7677 90.2414 11.7876 90.3705C12.3787 94.0004 14.4948 97.0891 16.0546 100.322C19.0698 106.574 22.1098 112.835 24.5091 119.291C27.1567 126.426 28.9797 133.835 31.1604 141.13C31.2896 141.567 31.4734 142.019 30.9667 142.56L30.9766 142.59ZM307.646 306.407C301.302 304.506 298.565 304.168 296.429 305.007C300.284 306.283 303.94 306.591 307.646 306.407Z" fill="#BEC8BE"/>
<path d="M359.434 201.471C357.019 200.538 356.108 199.219 355.784 196.871C354.625 188.563 349.061 184.564 340.661 185.85C339.761 185.99 338.817 186.022 337.911 185.936C336.59 185.807 335.836 185.282 337.221 184.108C338.51 183.02 338.833 181.653 338.893 180.024C339.006 177 339.286 173.977 339.599 170.964C339.928 167.77 338.957 164.918 337.442 162.2C337.065 161.519 335.89 160.919 335.96 160.404C336.488 156.55 333.835 154.17 331.965 151.479C329.9 148.499 328.422 144.95 324.551 143.583C322.999 143.037 321.37 141.246 320.928 144.564C320.858 145.079 320.319 144.982 319.92 144.827C319.435 144.634 318.863 144.409 318.896 143.825C318.939 143.021 319.09 142.206 319.338 141.439C320.2 138.78 320.594 136.079 320.421 133.286C319.925 125.294 314.954 120.389 307.115 119.242C301.454 118.416 295.707 118.572 290.084 117.349C286.207 116.508 282.336 115.355 278.287 115.479C275.473 115.57 273.58 116.658 273.348 119.756C272.782 127.459 270.971 135.039 271.154 142.822C271.219 145.631 273.445 147.62 276.152 146.832C279.193 145.947 282.201 144.923 285.258 144.093C293.852 141.745 302.581 139.745 308.814 132.541C309.859 131.329 311.412 130.595 313.181 130.557C315.078 130.515 316.07 131.104 315.833 133.232C315.483 136.368 313.774 138.282 311.148 139.954C309.617 140.93 309.315 139.134 308.307 139.456C306.964 139.879 305.417 139.209 304.171 140.062C300.802 142.356 297.157 143.969 293.173 144.87C290.741 145.417 287.798 145.454 286.083 146.901C284.271 148.429 282.476 149.962 280.357 150.729C276.4 152.165 273.936 155.355 271.073 158.014C269.752 159.241 268.35 160.898 267.989 162.838C267.251 166.837 266.69 170.804 264.819 174.561C263.849 176.518 262.991 178.292 261.261 179.702C258.414 182.023 255.567 184.387 252.99 186.992C249.502 190.514 249.173 194.974 250.052 199.578C250.267 200.72 251.076 201.792 252.397 201.54C253.637 201.304 253.066 200.045 253.184 199.198C253.227 198.898 253.195 198.587 253.206 198.281C253.297 195.815 254.413 193.95 256.635 192.883C258.888 191.806 260.943 192.631 262.538 194.197C264.571 196.191 266.582 198.287 268.178 200.629C270.663 204.285 268.712 208.605 264.334 209.72C263.838 209.849 263.331 209.962 262.862 210.16C262.393 210.353 261.908 210.621 261.918 211.227C261.929 211.827 262.377 212.1 262.889 212.256C266.587 213.36 270.254 214.631 274.012 215.488C275.931 215.928 277.812 215.51 279.732 214.277C283.306 211.988 287.452 210.857 291.739 211.532C294.726 212.004 297.572 213.569 300.694 212.175C301.26 211.923 301.557 212.626 301.983 212.77C306.9 214.475 311.87 215.215 316.647 212.481C318.852 211.221 320.89 209.629 322.885 208.043C325.462 205.989 327.856 203.738 329.269 200.581C327.139 199.771 326.379 202.704 324.093 201.299C326.077 200.645 327.058 199.407 328.228 198.265C330.266 196.282 331.307 192.851 335.34 193.382C341.804 194.229 343.95 196.593 343.341 203.122C342.947 207.351 344.489 210.599 348.198 212.583C354.544 215.971 361.467 215.569 368.244 214.791C371.667 214.4 372.552 210.943 370.158 208.45C367.144 205.314 363.429 203.02 359.429 201.476L359.434 201.471ZM283.064 173.537C281.764 173.768 281.15 172.176 280.762 171.056C279.77 168.188 278.918 165.272 278.034 162.372C277.85 161.777 277.791 161.128 278.384 160.715C278.875 160.367 279.489 160.538 279.737 160.973C281.441 163.996 283.668 166.762 284.519 169.335C284.39 171.538 284.573 173.269 283.069 173.537H283.064ZM304.215 203.985C302.581 203.502 301.411 202.302 300.295 201.133C299.023 199.804 297.998 198.335 295.847 198.244C294.731 198.201 294.283 197.397 295.119 196.298C296.489 194.497 298.063 193.709 300.047 195.317C302.457 197.273 303.821 200.114 305.843 202.398C306.026 202.607 306.053 202.961 306.145 203.234C305.864 204.483 304.986 204.21 304.209 203.979L304.215 203.985Z" fill="#BEC8BE"/>
<path d="M246.79 211.805C235.252 211.098 223.714 210.771 212.128 210.996C203.292 211.168 194.541 209.184 185.861 207.158C179.208 205.603 174.339 201.808 169.336 196.571C172.129 197.45 174.992 195.81 176.221 199.155C176.404 199.659 177.429 199.83 178.032 200.216C181.79 202.618 186.405 202.955 190.206 205.271C191.069 205.796 192.029 206.193 193.129 205.909C194.805 205.475 196.585 206.97 198.261 206.466C198.903 206.74 199.615 206.901 200.364 206.933C201.75 208.268 203.992 207.662 205.664 208.364C206.645 208.782 207.357 208.938 207.691 208.584C207.804 208.595 207.917 208.6 208.036 208.605C208.904 208.621 209.767 208.68 210.629 208.761C211.185 208.986 211.81 209.077 212.603 208.997C212.646 208.997 212.694 208.991 212.737 208.986C215.05 209.259 217.358 209.554 219.698 209.436C220.442 209.399 221.18 209.222 221.871 208.943C224.113 209.495 226.529 208.686 228.804 208.943C233.349 209.458 233.667 208.83 232.837 204.757C232.821 204.687 233.09 204.564 233.23 204.467C235.322 207.517 235.333 207.41 239.749 207.839C241.501 208.01 241.981 207.319 241.97 205.882C241.932 199.16 241.199 192.583 237.118 186.912C236.244 185.695 235.684 184.548 236.002 182.741C240.315 187.941 244.429 192.905 244.72 199.9C245.809 195.156 248.585 191.055 249.044 186.22C249.135 185.277 250.063 184.96 250.812 184.692C253.912 183.583 254.532 181.176 254.192 178.313C253.572 173.082 251.971 168.188 249.238 163.642C247.108 160.099 243.625 158.105 240.633 155.489C231.139 147.196 220.135 144.73 208.036 146.671C203.793 147.352 199.55 147.25 195.188 148.118C195.894 145.786 198.784 144.843 199.296 144.918C203.771 145.604 208.014 143.916 212.495 144.044C220.668 144.275 228.292 145.283 235.425 149.34C236.088 149.716 237.08 150.171 237.63 149.93C237.662 149.919 237.684 149.898 237.711 149.887C238.395 150.487 239.145 151.04 239.932 151.56C239.932 151.56 239.937 151.565 239.943 151.57C240.218 152.128 240.557 152.605 241.177 152.567C241.862 153.055 242.595 153.473 243.356 153.806C243.571 153.902 243.792 153.982 244.019 154.058C244.892 154.572 245.771 155.081 246.639 155.607C247.189 155.939 247.728 156.293 248.273 156.641C248.337 156.695 248.402 156.748 248.472 156.802C248.569 156.92 248.72 157.027 248.833 157.097C248.92 157.167 249.006 157.236 249.098 157.311C249.529 157.66 250.003 157.965 250.499 158.217C252.365 162.65 254.856 166.842 255.961 171.533C255.961 171.693 255.961 171.86 255.972 172.02C256.08 173.446 256.468 175.333 257.686 176.239C257.756 176.287 257.837 176.319 257.923 176.33C258.155 176.63 258.538 176.662 258.878 176.512C260.333 175.869 261.379 174.282 262.026 172.889C262.107 172.717 262.177 172.546 262.242 172.369C262.28 172.455 262.317 172.535 262.361 172.621C263.39 170.718 263.644 169.04 263.595 167.335C263.525 164.757 263.935 162.248 264.393 159.729C264.517 159.048 264.382 158.196 265.337 158.024C268.324 157.488 269.407 155.178 270.335 152.728C270.469 152.369 270.572 151.806 270.389 151.549C266.776 146.542 267.93 140.871 267.989 135.323C268.016 132.884 268.609 130.67 269.795 128.606C270.798 126.864 271.133 125.009 271.224 123.037C271.537 116.09 273.003 114.364 279.732 112.477C275.225 110.424 270.895 107.701 266.172 106.462C258.409 104.425 250.472 102.747 242.444 102.195C238.482 101.922 234.557 100.41 230.583 101.295C227.839 101.906 225.122 102.11 222.356 101.954C218.76 101.756 215.217 101.938 211.664 102.619C205.556 103.793 199.329 104.586 193.484 106.746C185.403 109.732 177.903 113.983 170.894 118.947C166.581 122.002 162.753 125.679 159.426 129.93C157.13 132.862 157.901 136.99 155.011 139.483C152.994 141.219 152.401 143.857 150.994 145.867C147.123 151.399 148.018 158.335 144.983 164.033C144.6 164.757 144.665 165.909 144.923 166.74C145.495 168.579 145.144 170.353 145.069 172.187C144.648 182.999 144.293 193.816 147.829 204.296C149.538 209.366 152.908 212.803 158.192 215.263C158.192 215.252 158.192 215.242 158.186 215.231C158.612 215.467 159.087 215.611 159.556 215.74C161.033 216.442 162.57 216.957 164.009 217.268C164.349 217.343 164.694 217.386 165.044 217.402C165.929 217.697 166.807 218.002 167.702 218.259C168.479 218.485 169.266 218.683 170.053 218.849C170.651 219.24 171.245 219.659 171.87 220.082C174.539 221.905 177.299 224.065 180.793 223.684C182.545 223.491 184.082 223.915 185.71 224.049C188.842 224.306 191.554 225.903 194.611 226.171C199.48 226.595 204.343 227.072 209.217 227.426C211.115 227.565 213.659 228.482 214.748 226.938C215.794 225.458 216.452 226.075 217.412 226.268C220.706 226.927 224.011 228.294 227.37 227.217C230.465 226.23 233.586 226.091 236.751 225.936C240.024 225.775 243.329 225.759 246.553 225.249C257.627 223.507 268.663 224.569 279.457 226.611C288.746 228.364 297.729 231.725 306.835 234.416C307.962 234.748 309.293 235.204 309.897 234.11C310.582 232.867 309.25 232.084 308.312 231.569C305.449 229.993 302.473 228.61 299.621 227.013C291.96 222.714 283.517 220.548 275.241 217.906C265.957 214.941 256.559 212.417 246.806 211.816L246.79 211.805Z" fill="#BEC8BE"/>
<path d="M420.671 237.804C418.492 236.099 416.508 234.314 415.166 232.121C414.325 230.749 412.874 229.693 411.44 228.659C410.982 228.326 410.389 227.978 409.801 228.289C409.78 228.299 409.753 228.316 409.737 228.326C409.661 228.262 409.58 228.192 409.499 228.128C407.402 226.413 405.208 224.826 402.933 223.352C402.706 223.207 402.48 223.062 402.253 222.918C401.224 221.1 400.032 219.315 398.716 217.568C397.018 215.311 394.754 213.269 393.767 210.739C392.026 206.263 390.343 201.771 388.791 197.252C388.5 194.866 388.198 192.486 387.815 190.112C387.545 188.434 387.222 186.762 386.785 185.116C386.165 182.784 385.249 180.559 384.24 178.367C383.167 176.041 381.604 173.961 379.916 172.047C379.027 171.093 377.975 170.423 376.757 170.026C375.587 169.415 374.325 169.136 372.972 169.185C371.748 169.136 370.6 169.367 369.527 169.86C368.411 169.136 367.219 168.531 365.958 168C364.152 167.239 362.421 166.676 360.475 166.403C358.016 166.054 355.601 165.792 353.121 165.727C351.363 165.684 349.6 165.679 347.842 165.615C345.551 165.529 343.254 165.465 340.963 165.422C341.874 170.123 341.578 174.947 341.173 179.841C341.049 181.321 341.567 181.798 342.995 181.964C349.411 182.709 355.649 188.102 357.261 194.502C357.79 196.614 358.82 197.815 360.728 198.747C365.181 200.918 369.15 203.813 372.25 207.732C375.565 211.918 374.406 214.829 369.478 216.721C364.022 218.817 358.447 218.795 352.857 218.426C351.137 218.313 349.654 217.225 347.88 216.673C347.109 215.611 345.869 214.668 344.618 214.384C343.831 214.207 343.033 214.175 342.268 214.282C340.24 214.014 338.219 213.848 336.191 213.778C335.528 213.692 334.871 213.612 334.24 213.532C328.115 212.776 321.494 213.119 316.178 216.523C313.731 216.603 311.288 216.678 308.846 216.748C308.722 216.721 308.598 216.7 308.474 216.673C307.778 216.512 307.051 216.48 306.339 216.56C306.188 216.528 306.042 216.49 305.891 216.453C305.077 216.255 304.263 216.094 303.427 215.997C301.735 215.804 300.02 215.885 298.322 215.89C298.311 215.89 298.306 215.89 298.295 215.89C296.882 215.654 295.47 215.359 294.03 215.29C292.634 215.22 291.259 215.413 290.078 216.142C289.458 216.319 288.881 216.608 288.412 217.107C288.116 217.241 287.889 217.546 287.981 217.954C288.401 219.814 290.633 220.602 292.24 221.106C293.092 221.374 293.955 221.583 294.812 221.824C295.976 222.617 297.146 223.4 298.349 224.124C299.67 224.917 301.152 225.485 302.473 226.3C303.185 227.158 304.145 227.812 305.331 228.085C306.312 228.31 307.304 228.45 308.296 228.621C308.533 228.664 308.77 228.707 309.008 228.75C310.603 229.382 311.342 230.626 312 232.073C312.776 233.778 312.28 234.92 310.749 235.52C309.482 235.316 308.22 235.097 306.959 234.866C300.705 233.724 294.591 232.057 288.369 230.771C283.096 229.682 277.192 228.9 271.672 229.447C256.597 228.755 241.533 229.495 226.448 230.342C220.436 228.492 213.907 229.382 207.686 230.101C204.203 230.229 200.704 230.326 197.194 230.46C196.903 230.395 196.606 230.331 196.315 230.261C194.692 229.875 193.069 229.5 191.43 229.173C190.589 229.007 189.743 228.846 188.896 228.702C188.842 228.685 188.783 228.664 188.729 228.648C186.696 227.989 184.599 227.463 182.475 227.158C181.677 226.831 180.82 226.654 179.963 226.632C178.814 226.472 177.687 226.23 176.571 225.946C175.256 225.351 173.962 224.719 172.625 224.167C171.067 223.523 169.487 222.934 167.907 222.339C166.462 221.797 165.082 221.149 163.669 220.527C162.543 220.034 161.4 219.637 160.208 219.444C159.545 219.187 158.871 219.005 158.192 218.876C157.162 218.259 156.148 217.611 155.167 216.925C155.011 216.817 153.717 215.81 153.965 216.029C154.046 216.094 154.121 216.163 154.197 216.228C154.073 216.126 154.003 216.067 153.965 216.029C153.631 215.751 153.291 215.477 152.967 215.188C151.965 214.303 151.021 213.349 150.158 212.331C150.072 212.229 149.991 212.127 149.905 212.025C149.867 211.972 149.77 211.838 149.614 211.618C149.231 211.007 148.821 210.417 148.465 209.785C148.196 209.302 147.959 208.814 147.711 208.316C148.217 209.334 147.204 207.051 147.118 206.81C146.589 205.357 146.142 203.872 145.754 202.371C144.918 199.16 144.341 195.89 143.694 192.642C143.505 191.688 142.999 190.835 142.308 190.139C142.432 186.065 142.6 181.985 142.621 177.911C132.819 179.632 123.26 183.283 116.365 190.669C114.99 192.143 113.755 193.768 112.585 195.403C111.2 197.343 110.984 200.634 111.577 202.864C110.137 204.606 108.698 206.349 106.886 207.914C102.099 212.057 97.7586 216.464 94.6531 221.572C93.564 223.368 92.4534 225.142 91.4128 226.943C89.639 228.015 87.8976 229.141 86.1939 230.32C87.1697 229.007 88.0054 227.624 89.3802 226.514C89.7307 226.23 90.0919 225.844 89.6121 225.475C89.1646 225.131 88.6362 225.319 88.248 225.609C87.132 226.434 86.0483 227.276 84.9592 228.123C78.7914 232.915 72.424 237.594 70.0841 244.472C69.9116 244.976 69.4803 245.431 69.1136 246C67.8736 244.949 68.5152 243.904 68.5529 242.917C68.5691 242.51 68.5098 242.092 67.9653 241.904C67.3938 241.706 67.011 242.033 66.6282 242.296C63.803 244.241 64.8274 248.015 68.375 249.071C71.0222 249.859 73.7934 250.411 76.004 252.019C76.7965 252.598 77.9341 253.628 79.4707 253.134C81.3038 252.55 81.1474 253.536 80.5651 254.11C78.2252 256.399 80.4627 257.605 82.3551 258.784C84.0319 259.835 85.989 260.596 88.1456 260.945C98.1414 262.563 108.32 263.035 118.462 263.233C134.372 263.544 150.299 263.33 166.22 263.33C177.094 263.33 187.974 263.33 198.849 263.298C208.704 263.271 218.566 263.839 228.416 263.217C235.392 262.778 242.374 262.955 249.356 262.933C259.126 262.906 268.857 262.081 278.654 262.333C295.712 262.762 312.782 263.169 329.846 263.142C336.935 263.132 343.977 263.668 351.072 263.587C360.911 263.475 370.745 264.327 380.633 263.871C387.427 263.56 393.271 262.006 397.989 258.162C398.102 258.071 398.215 257.98 398.334 257.889C399.277 257.889 400.226 257.857 401.17 257.771C402.933 257.61 404.744 257.423 406.469 256.978C408.001 256.587 409.521 255.975 410.885 255.193C412.691 254.153 413.996 252.899 415.182 251.312C415.462 251.312 415.683 251.312 415.797 251.323C417.128 251.323 417.657 251.387 418.153 251.312C420.557 250.931 423.512 251.328 424.412 248.744C425.873 244.547 424.617 240.891 420.676 237.809L420.671 237.804Z" fill="#BEC8BE"/>
</g>
<defs>
<clipPath id="clip0_227_777">
<rect width="502" height="314" fill="white"/>
</clipPath>
</defs>
</svg>
