<svg width="525" height="394" viewBox="0 0 525 394" fill="none" xmlns="http://www.w3.org/2000/svg">
<path d="M53.0606 62.2185C51.4075 61.8232 49.9529 61.1895 48.6968 60.3173C47.4645 59.4864 46.5183 58.5456 45.8581 57.4947C45.2301 56.4529 44.9399 55.3675 44.9876 54.2386C45.0435 53.0775 45.5208 52.0174 46.4193 51.0583C47.6002 49.9364 49.3721 50.0016 51.7349 51.2539C53.5292 52.1735 54.7752 52.7486 55.473 52.9793C56.2028 53.219 56.8533 53.2979 57.4245 53.2161C59.9652 53.0993 61.4954 52.6293 62.0153 51.8061C62.3812 51.182 62.1662 50.2736 61.3703 49.0807C61.0522 48.576 60.6859 48.0577 60.2714 47.5259C59.857 46.994 59.5228 46.4847 59.2688 45.998C57.9696 44.3522 57.0528 42.6235 56.5182 40.8118C56.0241 38.9768 56.0924 37.1614 56.7232 35.3657C57.354 33.5699 58.0467 32.1376 58.8013 31.0689C59.5641 29.9679 60.4022 29.0438 61.3154 28.2966C62.9236 26.9832 64.8064 26.0757 66.9638 25.5743C69.4348 25.0571 71.3694 24.8219 72.7676 24.8686C75.5155 25.0177 78.1593 25.7086 80.699 26.9415C81.5563 27.3554 82.2481 27.8787 82.7744 28.5111C83.3006 29.1436 83.8228 29.7923 84.3408 30.457C85.1752 31.903 85.155 33.1261 84.2803 34.1265C83.9236 34.5801 83.4634 34.9007 82.8995 35.0884C82.3356 35.2761 81.7768 35.3095 81.223 35.1885C81.0643 36.0785 80.7389 36.6794 80.2465 36.991C79.3186 37.5264 77.9112 37.6501 76.0243 37.3622C73.4424 36.4291 71.6242 36.0739 70.5698 36.2969C69.3302 36.5716 68.6072 37.7184 68.4009 39.7373C68.3578 40.1752 68.5032 40.6834 68.8369 41.2617C69.2027 41.8491 69.6245 42.4869 70.1022 43.1749C70.612 43.872 71.1213 44.6382 71.6301 45.4734C72.1711 46.3177 72.591 47.2319 72.8899 48.2158C73.9278 51.692 72.8963 55.1232 69.7954 58.5095C67.4959 61.0479 64.2951 62.5369 60.193 62.9765C58.0695 63.2106 55.6921 62.9579 53.0606 62.2185ZM102.531 47.2508C102.779 46.2819 102.566 45.7028 101.892 45.5134C101.635 45.4413 101.314 45.4202 100.928 45.4502C100.542 45.4802 100.176 45.4986 99.8302 45.5053C98.4778 45.8176 97.3657 46.2666 96.4937 46.8523C95.6621 47.4148 94.7897 48.0696 93.8765 48.8168C92.9633 49.564 92.1298 50.4029 91.3762 51.3334C90.6225 52.2639 89.9976 53.1614 89.5016 54.0258C87.688 57.22 87.4469 59.6445 88.7782 61.2993C89.3283 61.9731 89.9724 62.4137 90.7105 62.6211C91.4889 62.8052 92.1399 62.815 92.6634 62.6506C93.219 62.4952 93.7545 62.3514 94.2698 62.2193C94.7851 62.0872 95.3439 62.0538 95.9463 62.1192C96.589 62.1614 97.3065 62.4495 98.0986 62.9836C98.9311 63.4945 99.3217 63.985 99.2704 64.4552C99.219 64.9254 99.0994 65.3936 98.9114 65.86C98.7235 66.3264 98.596 66.7579 98.5291 67.1545C98.4942 67.5601 98.7853 67.9015 99.4024 68.1787C99.8141 69.1251 99.1897 69.9535 97.5292 70.6638C97.102 70.8553 96.6949 71.0351 96.3079 71.2033C93.0943 72.2041 89.9063 72.3641 86.744 71.6832C84.7535 71.2623 82.7584 70.321 80.7587 68.8591C77.7752 66.6708 76.636 63.3219 77.3411 58.8125C77.8353 54.5899 79.4256 50.5196 82.1121 46.6015C84.3685 43.2895 87.2287 40.4414 90.6927 38.0571C93.8339 35.859 96.6872 34.6532 99.2526 34.4394C102.416 33.7706 105.577 34.053 108.735 35.2867C112.054 36.7037 113.924 38.8044 114.348 41.5887C114.772 44.373 113.832 47.3108 111.529 50.402C110.734 51.494 109.572 52.2059 108.042 52.5376C106.722 52.8589 105.388 52.8302 104.04 52.4515C102.692 52.0728 101.933 51.4095 101.763 50.4616C101.6 49.4814 101.856 48.4111 102.531 47.2508ZM113.141 76.2448C112.522 77.4555 111.325 77.9672 109.55 77.7799C107.903 77.6288 106.457 77.0318 105.21 75.9892C103.81 74.8691 103.364 73.7225 103.87 72.5494C104.156 70.6221 106.175 66.8279 109.926 61.1667C115.536 52.6703 120.461 46.8545 124.702 43.7192C125.8 42.9202 126.676 42.4565 127.327 42.3282C128.02 42.1765 128.784 42.0798 129.62 42.0378C130.456 41.9958 131.32 41.9791 132.213 41.9874C133.997 42.0042 135.648 42.1392 137.165 42.3925C138.723 42.6226 140.025 43.1789 141.072 44.0616C142.128 44.9119 142.844 45.944 143.222 47.1578C143.632 48.3806 143.735 49.7251 143.533 51.1912C143.338 52.625 142.915 54.0809 142.262 55.559C141.617 57.0048 140.756 58.4242 139.678 59.8173C138.608 61.1782 137.386 62.3925 136.012 63.4604C133.007 65.8004 129.885 66.9826 126.645 67.007L126.916 67.9658C127.168 68.7289 127.484 69.5792 127.864 70.5166C128.275 71.463 128.667 72.4211 129.038 73.3908C129.442 74.3695 129.781 75.3302 130.056 76.2728C130.331 77.2155 130.49 78.0736 130.533 78.8473C130.642 80.574 129.948 81.6078 128.451 81.9486C127.227 82.297 126.351 82.224 125.824 81.7297C125.609 81.4961 125.406 81.214 125.215 80.8835C125.016 80.5853 124.712 80.2924 124.304 80.0046C122.271 80.0217 120.95 79.1315 120.343 77.334C119.981 76.1938 119.743 75.1749 119.628 74.2774C119.514 73.3798 119.414 72.625 119.33 72.0128C119.058 70.6556 118.664 69.4372 118.149 68.3579C117.573 69.1307 116.887 70.1322 116.091 71.3623C115.108 72.9207 114.045 74.5257 112.9 76.1772L113.141 76.2448ZM130.068 50.7828C129.104 52.0002 128.439 52.8518 128.074 53.3377C127.344 54.3095 126.538 55.3809 125.654 56.5517C125.376 57.2352 125.168 57.7132 125.029 57.9858L125.876 57.497L126.794 57.3394C127.454 57.1787 128.058 57.0368 128.605 56.9137C129.152 56.7906 129.668 56.5894 130.152 56.3101C131.08 55.7746 132.031 54.7439 133.006 53.2178C133.089 52.8948 133.219 52.5854 133.398 52.2895C133.609 52.0026 133.772 51.7022 133.886 51.3883C134.196 50.7138 134.035 50.1321 133.404 49.6431C132.778 49.3981 131.84 49.7056 130.588 50.5654C130.338 50.7374 130.165 50.8098 130.068 50.7828ZM153.143 52.9571C155.759 51.1999 158.377 50.3778 160.997 50.4908C162.805 50.5489 164.393 51.0643 165.761 52.0372C167.27 51.1113 168.926 51.0919 170.728 51.9792C172.379 52.7891 173.603 54.1889 174.402 56.1786C174.408 56.4227 174.45 56.7979 174.527 57.3042C174.636 57.8194 174.717 58.3786 174.769 58.9817C175.339 62.6727 174.346 67.0319 171.789 72.0593C168.612 78.2975 164.557 83.1982 159.622 86.7615C158.104 87.8579 156.503 88.6715 154.82 89.2023C152.055 90.3293 149.094 90.3451 145.934 89.2496C143.969 88.5936 142.428 87.6242 141.312 86.3412C136.637 82.1547 136.316 76.0761 140.348 68.1054C143.67 61.5623 147.936 56.5129 153.143 52.9571ZM147.148 78.843L147.026 79.1202L146.986 79.6801C146.923 80.7354 147.046 81.6006 147.355 82.2759C147.672 82.9189 147.958 83.3455 148.214 83.5559C148.601 83.3877 148.984 83.2356 149.363 83.0997C149.741 82.9638 150.1 82.7705 150.44 82.5196C153.315 80.42 155.923 77.3453 158.265 73.2958C160.607 69.2462 162.096 65.3032 162.732 61.4667C161.068 62.7298 159.278 64.2171 157.362 65.9286C155.445 67.6401 153.896 69.1259 152.714 70.3861C150.002 73.3278 148.147 76.1467 147.148 78.843ZM184.436 98.6146C183.713 98.619 183.046 98.5356 182.437 98.3642C181.819 98.2252 181.185 98.0817 180.535 97.9336C179.917 97.7946 179.062 97.5718 177.971 97.2652C176.88 96.9586 175.252 96.4664 173.086 95.7887C172.564 95.6767 172.047 95.5486 171.533 95.4043C171.02 95.26 170.563 95.0279 170.163 94.7079C169.276 94.0085 168.85 92.8503 168.884 91.2332C168.906 90.4776 168.857 89.9274 168.739 89.5826C168.588 89.2289 168.482 88.9048 168.42 88.6103C168.231 88.0034 168.482 87.1566 169.172 86.0699C169.83 84.9741 170.671 83.6354 171.694 82.0537C172.726 80.4398 173.862 78.7515 175.104 76.9888C178.033 72.7929 180.538 69.5162 182.62 67.1588C183.479 66.0848 184.217 65.1498 184.833 64.3537C185.481 63.5667 186.048 62.8953 186.534 62.3395C187.028 61.7515 187.279 61.4413 187.288 61.409C187.922 60.272 189.422 59.5857 191.786 59.3501C194.095 59.0643 196.046 59.3702 197.64 60.2679C199.409 61.2844 199.922 62.7784 199.177 64.7499C198.216 66.626 197.031 68.439 195.621 70.1888C194.243 71.9477 192.711 73.7674 191.027 75.6479C189.343 77.5284 187.529 79.5111 185.586 81.5958C183.643 83.6806 181.663 85.9798 179.645 88.4934C179.58 88.6136 179.615 88.7447 179.751 88.8867C180.176 88.9716 180.787 89.0047 181.583 88.986C182.411 88.9764 183.246 89.0035 184.09 89.0675C184.974 89.1081 185.817 89.2412 186.619 89.4666C187.421 89.692 188.042 90.0913 188.48 90.6645C188.299 91.2368 188.324 91.7456 188.554 92.1911C188.793 92.6042 189.031 93.0173 189.269 93.4304C189.857 94.4956 189.637 95.6278 188.608 96.8272C187.619 98.0032 186.229 98.599 184.436 98.6146ZM209.313 105.605C208.589 105.609 207.923 105.526 207.313 105.354C206.695 105.215 206.061 105.072 205.411 104.924C204.793 104.785 203.939 104.562 202.848 104.255C201.756 103.949 200.128 103.456 197.962 102.779C197.441 102.667 196.923 102.539 196.41 102.394C195.896 102.25 195.44 102.018 195.04 101.698C194.152 100.999 193.726 99.8403 193.761 98.2232C193.782 97.4676 193.733 96.9174 193.615 96.5727C193.465 96.2189 193.358 95.8948 193.296 95.6004C193.107 94.9935 193.358 94.1466 194.048 93.0599C194.707 91.9641 195.547 90.6254 196.571 89.0438C197.602 87.4298 198.739 85.7415 199.98 83.9789C202.91 79.7829 205.415 76.5062 207.496 74.1488C208.355 73.0749 209.093 72.1399 209.709 71.3438C210.357 70.5567 210.924 69.8853 211.41 69.3296C211.905 68.7415 212.156 68.4314 212.164 68.3991C212.799 67.262 214.298 66.5757 216.663 66.3402C218.971 66.0543 220.923 66.3602 222.516 67.258C224.286 68.2744 224.798 69.7684 224.054 71.7399C223.093 73.616 221.907 75.429 220.497 77.1789C219.119 78.9377 217.588 80.7574 215.903 82.6379C214.219 84.5184 212.406 86.5011 210.463 88.5859C208.52 90.6706 206.539 92.9698 204.521 95.4835C204.456 95.6036 204.492 95.7347 204.627 95.8767C205.053 95.9616 205.663 95.9947 206.459 95.9761C207.287 95.9664 208.123 95.9936 208.966 96.0575C209.85 96.0982 210.693 96.2312 211.496 96.4566C212.298 96.6821 212.918 97.0814 213.356 97.6545C213.176 98.2268 213.2 98.7357 213.431 99.1811C213.669 99.5942 213.907 100.007 214.146 100.42C214.733 101.486 214.513 102.618 213.484 103.817C212.496 104.993 211.105 105.589 209.313 105.605ZM243.558 92.5894C244.753 90.606 245.692 89.087 246.374 88.0326C247.096 86.9548 247.77 86.0018 248.394 85.1734C249.018 84.345 249.683 83.5625 250.387 82.8258C251.123 82.0981 251.871 81.4601 252.63 80.9119C253.43 80.3404 254.22 79.9394 255.001 79.709C255.782 79.4785 256.542 79.4669 257.28 79.6743C258.018 79.8817 258.714 80.3888 259.368 81.1955C259.826 84.7858 260.059 87.1705 260.068 88.3497C260.04 90.0727 259.811 92.4488 259.381 95.4779C259.86 94.8162 260.379 94.1313 260.938 93.4231C261.538 92.6916 262.121 91.9556 262.689 91.2151C264.228 89.3631 265.267 87.9242 265.804 86.8982C267.088 84.8359 268.981 83.5507 271.484 83.0425C273.657 82.6147 275.533 82.8128 277.111 83.637C277.751 83.9555 278.147 84.3608 278.296 84.8527C278.478 85.3537 278.366 85.7897 277.962 86.1607C277.59 86.5407 277.382 86.9497 277.339 87.3875C277.336 87.8021 277.297 88.293 277.221 88.86C276.937 90.3727 276.342 91.6247 275.435 92.616C274.537 93.575 273.548 94.8202 272.469 96.3515C271.398 97.8506 270.282 99.4581 269.121 101.174C267.993 102.899 266.84 104.652 265.662 106.433C264.485 108.214 263.369 109.821 262.315 111.256C259.954 114.573 258.275 116.299 257.277 116.434C255.868 116.834 254.858 117.018 254.247 116.985C253.476 116.906 252.433 116.613 251.118 116.105C250.301 115.806 249.855 114.522 249.782 112.251C249.717 111.022 249.797 109.365 250.02 107.282C250.397 103.649 250.535 101.629 250.434 101.219C248.077 105.057 246.486 107.448 245.66 108.393C244.866 109.347 244.279 109.961 243.899 110.235C243.552 110.518 243.111 110.896 242.578 111.369C241.864 112.415 240.65 112.991 238.937 113.098C237.457 113.236 236.217 112.974 235.217 112.312C234.129 111.591 233.966 110.749 234.728 109.786C236.071 106.01 239.014 100.278 243.558 92.5894ZM280.648 116.615C282.459 117.331 283.814 117.816 284.713 118.068C285.644 118.33 287.073 118.593 289 118.858C289.528 119.214 289.803 119.551 289.825 119.868C289.847 120.186 289.801 120.502 289.686 120.816C289.58 121.097 289.522 121.393 289.511 121.701C289.501 122.01 289.744 122.338 290.24 122.685C290.504 122.863 290.51 123.176 290.258 123.625C290.046 124.05 289.662 124.478 289.104 124.91C287.691 126.001 286.191 126.618 284.607 126.762C282.148 126.694 280.248 126.523 278.908 126.25C276.684 125.799 274.33 125.051 271.846 124.006C269.154 122.696 268.091 121.134 268.658 119.32C270.391 112.538 273.608 106.139 278.31 100.122C279.842 98.1636 281.531 96.1288 283.378 94.017C283.766 93.5724 284.059 93.0316 284.256 92.3947C284.486 91.7668 284.695 91.1506 284.884 90.546C285.073 89.9414 285.309 89.4194 285.593 88.9801C285.878 88.5407 286.301 88.2963 286.864 88.2468C294.224 87.4418 299.767 87.8917 303.493 89.5963C304.833 90.0074 305.595 90.7236 305.781 91.7451C306.008 92.7433 305.804 93.7419 305.171 94.7408C304.569 95.7486 303.647 96.5973 302.405 97.2866C301.195 97.985 299.823 98.2398 298.289 98.0511C296.255 98.0681 295.005 98.1149 294.538 98.1914C293.637 98.3535 292.927 98.708 292.409 99.2547C291.778 99.839 291.188 100.4 290.638 100.938C290.088 101.475 289.638 102.093 289.287 102.791L288.822 103.802C289.358 104.264 290.071 104.569 290.962 104.715C291.894 104.839 292.741 104.955 293.504 105.066C294.307 105.153 294.921 105.308 295.346 105.532C295.802 105.764 295.775 106.275 295.263 107.066C294.792 107.834 294.051 108.647 293.041 109.505C292.062 110.372 290.853 110.863 289.414 110.978C288.538 110.905 287.928 110.872 287.582 110.879C287.277 110.862 287.04 110.847 286.871 110.835C286.638 110.804 285.984 110.672 284.908 110.439C282.74 112.599 281.314 114.344 280.63 115.675C280.353 116.22 280.359 116.533 280.648 116.615ZM330.825 116.176C330.342 117.529 329.722 118.877 328.966 120.223C328.241 121.577 327.349 122.849 326.288 124.039C325.259 125.239 324.098 126.349 322.806 127.37C321.545 128.401 320.197 129.302 318.761 130.076C317.325 130.849 315.854 131.423 314.349 131.796C311.096 132.682 308.215 132.513 305.708 131.289C304.808 132.386 303.74 132.934 302.502 132.932C301.288 132.972 300.165 132.656 299.132 131.985C298.124 131.356 297.322 130.455 296.727 129.284C296.132 128.113 296.041 126.721 296.453 125.106C296.874 123.459 297.416 121.811 298.078 120.162C298.74 118.514 299.465 116.952 300.255 115.478C301.533 113.033 302.914 110.791 304.399 108.75C307.845 104.146 309.981 100.835 310.806 98.8165C311.941 96.124 313.157 94.5964 314.453 94.2338C316.595 93.6587 318.48 93.6864 320.107 94.3168C321.735 94.9471 323.14 95.7746 324.323 96.7993C326.265 98.4872 328.197 100.951 330.121 104.192C332.244 107.73 332.478 111.725 330.825 116.176ZM308.194 125.393C310.045 125.014 311.58 124.527 312.797 123.935C314.055 123.319 315.229 122.766 316.317 122.276C318.052 121.275 319.483 119.912 320.612 118.187C323.097 114.385 323.011 110.951 320.355 107.886C319.964 107.395 319.366 106.708 318.56 105.824C317.847 106.731 317.233 107.718 316.72 108.786C316.239 109.862 315.685 110.883 315.06 111.85L312.671 115.748L310.436 120.052C310.207 120.68 309.95 121.283 309.665 121.86C309.388 122.406 309.119 122.988 308.857 123.607L308.194 125.393ZM79.5245 155.19C81.5215 155.128 82.7931 155.361 83.3393 155.889C83.9005 156.358 83.969 156.938 83.5448 157.629C83.1207 158.319 82.3128 159.058 81.1212 159.845C79.9297 160.631 78.5582 161.274 77.0068 161.773C73.2803 163.031 70.2708 163.058 67.9785 161.853C66.4931 161.124 65.3379 159.709 64.5127 157.608C64.2289 156.78 63.945 155.953 63.6611 155.126C63.3773 154.298 63.0348 153.579 62.6338 152.968C57.0935 155.025 51.5259 155.734 45.9312 155.097C44.124 154.901 42.0017 154.242 39.5641 153.121C37.1116 152.058 34.7631 150.588 32.5186 148.711C30.317 146.909 28.7682 144.854 27.872 142.546C26.0798 137.93 27.1245 132.024 31.0062 124.828C34.467 120.006 40.108 115.859 47.9291 112.387C51.2233 110.882 53.4505 109.919 54.6107 109.498C55.2676 102.081 57.7687 95.8056 62.1142 90.6714C65.8473 86.2374 70.0979 83.413 74.8658 82.1982C78.1864 81.0752 81.9773 81.0189 86.2385 82.0293C94.0679 83.8555 98.1509 87.7442 98.4875 93.6956C98.6361 97.4757 96.9535 101.395 93.4398 105.455C90.6705 108.54 86.7228 111.512 81.5967 114.37C79.0849 115.721 76.299 116.932 73.2392 118.003C72.7903 120.245 72.7028 122.526 72.9768 124.846C73.2507 127.166 73.4843 129.038 73.6773 130.463C73.9431 131.846 74.151 133.213 74.3012 134.564C74.5042 134.496 74.7657 134.32 75.0859 134.036C75.421 133.694 75.7849 133.361 76.1776 133.035C76.5704 132.709 76.9632 132.383 77.356 132.057C77.7488 131.732 78.0467 131.535 78.2497 131.467C78.4675 131.342 78.7506 131.203 79.0988 131.052C79.5048 130.917 79.9686 130.798 80.4901 130.695C81.7642 130.555 82.7461 130.831 83.436 131.523C83.5086 131.481 83.7619 131.459 84.196 131.456C84.7027 131.411 84.9708 131.331 85.0006 131.215C85.2498 130.724 85.7795 130.468 86.5899 130.446C87.458 130.441 88.3178 130.589 89.1694 130.891C91.4353 131.714 92.4124 132.737 92.1004 133.957C91.9486 135.036 91.0285 136.335 89.3402 137.855C85.8942 142.619 82.2089 146.381 78.2843 149.141C78.1968 149.241 78.1168 149.312 78.0442 149.354C77.9864 149.338 77.9212 149.35 77.8486 149.392C78.3899 150.666 78.7158 151.692 78.8264 152.471C79.0096 153.208 79.2423 154.114 79.5245 155.19ZM54.2962 127.447C52.1309 128.895 50.5598 130.198 49.5827 131.356C48.6206 132.457 48.4737 133.88 49.1421 135.625C49.6685 136.957 50.4582 137.864 51.5112 138.347C52.579 138.772 53.5535 139.077 54.4348 139.262C55.3161 139.447 56.284 139.657 57.3386 139.891C57.1983 139.228 56.9854 138.608 56.6999 138.029C56.4293 137.392 56.1306 136.623 55.8038 135.721C55.038 133.388 54.5355 130.63 54.2962 127.447ZM83.0623 96.2772C83.0722 94.7847 82.0771 94.3181 80.0768 94.8776C78.2944 95.3113 76.493 96.4251 74.6727 98.2189C72.7797 100.055 72.0081 101.863 72.358 103.643C73.1848 103.315 73.8813 103.012 74.4474 102.735C75.0283 102.4 75.7388 102.163 76.5788 102.026C77.4337 101.83 78.2746 101.568 79.1014 101.239C80.9581 100.515 82.3073 98.8688 83.149 96.3016L83.0623 96.2772ZM76.8264 103.964L73.467 103.301L76.8264 103.964ZM73.2492 103.426L72.9224 103.615L73.2492 103.426ZM151.081 179.503C149.779 179.511 148.579 179.361 147.482 179.052C146.369 178.802 145.228 178.544 144.058 178.277C142.946 178.027 141.408 177.626 139.444 177.074C137.48 176.522 134.549 175.636 130.65 174.416C129.711 174.215 128.78 173.984 127.856 173.724C126.931 173.465 126.109 173.047 125.39 172.471C123.792 171.212 123.025 169.127 123.088 166.216C123.126 164.856 123.038 163.866 122.825 163.245C122.555 162.609 122.363 162.025 122.251 161.495C121.911 160.403 122.362 158.878 123.605 156.922C124.79 154.95 126.303 152.54 128.145 149.693C130.002 146.788 132.048 143.749 134.282 140.576C139.555 133.024 144.065 127.126 147.811 122.882C149.358 120.949 150.685 119.266 151.794 117.833C152.961 116.417 153.982 115.208 154.857 114.208C155.746 113.149 156.198 112.591 156.213 112.533C157.355 110.486 160.055 109.251 164.311 108.827C168.467 108.312 171.979 108.863 174.847 110.479C178.032 112.308 178.955 114.998 177.614 118.546C175.885 121.923 173.751 125.187 171.213 128.336C168.732 131.502 165.976 134.778 162.944 138.163C159.913 141.548 156.648 145.116 153.151 148.869C149.654 152.622 146.089 156.76 142.456 161.285C142.339 161.501 142.403 161.737 142.647 161.993C143.413 162.145 144.512 162.205 145.944 162.171C147.435 162.154 148.939 162.203 150.457 162.318C152.048 162.391 153.566 162.631 155.01 163.036C156.454 163.442 157.571 164.161 158.359 165.193C158.034 166.223 158.079 167.139 158.493 167.94C158.922 168.684 159.351 169.428 159.78 170.171C160.838 172.089 160.441 174.127 158.59 176.285C156.81 178.402 154.308 179.475 151.081 179.503ZM229.883 133.794C231.58 135.392 232.428 137.282 232.428 139.462C229.609 145.649 226.913 151.838 224.34 158.031C221.782 164.166 219.513 169.292 217.532 173.408C215.567 177.467 214.136 180.523 213.24 182.576C212.401 184.646 211.505 186.699 210.551 188.737L209.563 190.422C209.285 191.029 209.021 191.578 208.771 192.068C208.507 192.617 208.236 193.195 207.957 193.802C205.864 195.208 203.431 195.521 200.659 194.742C197.713 193.914 195.567 192.501 194.22 190.503C193.388 189.397 193.653 187.633 195.015 185.212C195.571 184.247 196.086 182.959 196.559 181.347C197.106 179.694 197.578 178.331 197.975 177.259L198.02 177.084C196.124 177.237 194.349 177.642 192.695 178.299C191.056 178.897 190.026 179.293 189.606 179.487C189.2 179.622 188.685 179.695 188.063 179.707C187.456 179.661 186.914 179.602 186.437 179.531C185.325 179.28 184.529 179.244 184.05 179.421C179.155 184.525 175.29 187.053 172.455 187.004C170.646 187.056 168.941 186.702 167.34 185.941C165.725 185.237 164.649 183.876 164.112 181.856C162.709 179.593 164.39 174.956 169.153 167.945C171.709 164.24 175.109 159.899 179.352 154.923C183.668 149.905 187.675 145.61 191.373 142.039C199.338 134.37 207.48 128.309 215.8 123.855C217.016 123.699 218.334 123.508 219.753 123.284C221.187 123.002 222.518 123.002 223.746 123.285C225.032 123.583 226.294 124.094 227.534 124.816C228.773 125.538 229.766 126.378 230.512 127.335C232.233 129.563 232.024 131.716 229.883 133.794ZM205.481 151.517C203.377 154.664 201.34 157.55 199.369 160.174C197.414 162.739 195.72 165.005 194.289 166.971L201.201 168.632C202.614 165.042 204.077 161.497 205.59 157.996C207.104 154.496 208.588 150.988 210.044 147.472L205.481 151.517ZM198.686 168.3C199.495 168.527 200.318 168.696 201.157 168.807L201.179 168.72C200.413 168.567 199.705 168.43 199.055 168.31C198.405 168.189 198.282 168.186 198.686 168.3ZM218.525 180.79C221.786 182.08 224.225 182.953 225.843 183.407C227.518 183.878 230.09 184.351 233.559 184.828C234.51 185.469 235.005 186.075 235.044 186.647C235.084 187.219 235.001 187.787 234.794 188.352C234.603 188.859 234.498 189.391 234.48 189.946C234.462 190.502 234.899 191.092 235.792 191.717C236.267 192.037 236.278 192.601 235.824 193.408C235.443 194.173 234.751 194.944 233.747 195.722C231.202 197.686 228.504 198.797 225.652 199.055C221.226 198.932 217.806 198.626 215.393 198.135C211.391 197.322 207.154 195.975 202.681 194.095C197.836 191.737 195.923 188.925 196.943 185.661C200.062 173.453 205.854 161.933 214.317 151.103C217.075 147.578 220.115 143.916 223.439 140.114C224.139 139.314 224.666 138.341 225.021 137.194C225.434 136.064 225.81 134.955 226.15 133.867C226.49 132.778 226.916 131.839 227.427 131.048C227.939 130.257 228.701 129.817 229.715 129.728C242.962 128.279 252.94 129.089 259.647 132.157C262.058 132.897 263.431 134.186 263.766 136.025C264.174 137.822 263.807 139.619 262.667 141.417C261.584 143.231 259.925 144.759 257.689 146C255.51 147.257 253.04 147.715 250.279 147.376C246.619 147.406 244.368 147.491 243.528 147.628C241.906 147.92 240.629 148.558 239.696 149.542C238.561 150.594 237.498 151.604 236.508 152.572C235.517 153.539 234.707 154.651 234.077 155.907L233.24 157.728C234.204 158.56 235.488 159.108 237.092 159.371C238.769 159.593 240.294 159.804 241.667 160.003C243.112 160.16 244.217 160.439 244.981 160.841C245.803 161.258 245.754 162.179 244.833 163.603C243.985 164.984 242.651 166.448 240.832 167.993C239.071 169.554 236.895 170.438 234.304 170.644C232.728 170.513 231.629 170.453 231.007 170.465C230.457 170.436 230.031 170.409 229.727 170.386C229.308 170.331 228.13 170.093 226.194 169.674C222.291 173.562 219.724 176.703 218.493 179.099C217.994 180.08 218.005 180.644 218.525 180.79ZM259.482 205.757C258.368 207.936 256.213 208.857 253.018 208.52C250.054 208.248 247.45 207.173 245.205 205.297C242.687 203.28 241.883 201.217 242.794 199.105C243.309 195.636 246.942 188.806 253.694 178.616C263.793 163.323 272.658 152.854 280.291 147.211C282.269 145.772 283.844 144.938 285.017 144.707C286.263 144.434 287.639 144.26 289.144 144.184C290.649 144.109 292.205 144.078 293.81 144.093C297.022 144.124 299.994 144.367 302.725 144.823C305.529 145.237 307.873 146.238 309.758 147.827C311.658 149.357 312.947 151.215 313.627 153.4C314.365 155.601 314.551 158.021 314.187 160.66C313.837 163.241 313.074 165.862 311.899 168.522C310.739 171.125 309.189 173.68 307.248 176.187C305.322 178.637 303.123 180.823 300.65 182.745C295.24 186.957 289.62 189.085 283.789 189.129L284.277 190.854C284.731 192.228 285.299 193.759 285.983 195.446C286.724 197.149 287.428 198.874 288.097 200.619C288.823 202.381 289.433 204.11 289.929 205.807C290.424 207.504 290.71 209.049 290.788 210.441C290.984 213.549 289.735 215.41 287.04 216.024C284.836 216.651 283.26 216.519 282.311 215.63C281.923 215.209 281.558 214.701 281.215 214.106C280.856 213.57 280.31 213.042 279.576 212.524C275.915 212.555 273.539 210.953 272.446 207.717C271.794 205.665 271.365 203.831 271.159 202.215C270.953 200.6 270.774 199.241 270.622 198.139C270.132 195.696 269.423 193.503 268.495 191.56C267.459 192.951 266.224 194.754 264.792 196.968C263.023 199.773 261.108 202.662 259.048 205.635L259.482 205.757ZM289.951 159.925C288.215 162.116 287.018 163.649 286.361 164.524C285.048 166.273 283.595 168.202 282.004 170.309C281.504 171.539 281.13 172.4 280.881 172.891L282.405 172.011L284.057 171.727C285.245 171.438 286.332 171.182 287.317 170.961C288.302 170.739 289.231 170.377 290.102 169.874C291.772 168.91 293.484 167.055 295.239 164.308C295.387 163.727 295.622 163.17 295.944 162.637C296.324 162.121 296.617 161.58 296.823 161.015C297.381 159.801 297.091 158.754 295.954 157.874C294.829 157.433 293.14 157.986 290.887 159.534C290.436 159.843 290.124 159.974 289.951 159.925Z" fill="#BEC8BE"/>
<path d="M444.718 270.858C437.843 258.493 429.669 248.044 419.824 238.781C411.656 231.095 402.802 224.196 393.341 218.011C382.801 211.121 371.844 204.861 360.269 199.626C354.26 196.91 347.875 195.372 341.064 195.776C340.725 195.796 340.382 195.764 340.044 195.729C339.409 195.661 338.8 195.488 338.727 194.781C338.655 194.102 339.19 193.742 339.758 193.475C340.366 193.19 341.012 193.207 341.656 193.316C342.177 193.404 342.692 193.524 343.215 193.596C344.44 193.765 344.765 193.467 344.633 192.32C344.607 192.105 344.56 191.893 344.538 191.678C344.402 190.301 345.204 189.557 346.657 189.689C347.441 189.761 348.089 190.135 348.727 190.506C349.732 191.09 350.807 191.483 351.945 191.778C362.024 194.382 371.432 198.429 380.405 203.395C391.507 209.54 401.888 216.67 412.045 224.106C416.869 227.638 421.629 231.237 426.109 235.164C431.377 239.779 436.023 244.922 440.336 250.348C445.326 256.627 449.809 263.216 453.795 270.14C460.47 281.736 465.271 294.015 468.532 306.911C470.861 316.12 471.169 325.521 471.26 334.959C471.266 335.572 471.285 336.186 471.315 336.799C471.332 337.13 471.399 337.479 471.743 337.627C472.152 337.804 472.483 337.542 472.752 337.284C473.372 336.688 473.968 336.066 474.57 335.454C477.718 332.255 480.903 329.102 484.536 326.377C487.898 323.854 491.74 322.581 495.837 321.884C499.033 321.342 502.261 321.253 505.487 321.177C507.004 321.142 507.531 321.692 507.411 323.139C507.18 325.947 505.959 328.171 503.621 330.074C497.053 335.419 490.844 341.134 485.671 347.76C481.942 352.538 479.431 357.953 476.869 363.332C475.167 366.907 473.748 370.615 471.363 373.884C470.298 375.343 470.402 376.895 471.074 378.441C471.35 379.077 471.589 379.722 471.561 380.422C471.519 381.434 470.709 381.843 469.834 381.286C469.529 381.092 469.25 380.826 469.041 380.538C467.987 379.083 466.509 378.609 464.703 378.823C462.596 379.071 462.206 378.753 462.241 376.715C462.253 375.95 462.06 375.313 461.542 374.734C460.013 373.022 459.118 370.946 458.122 368.945C454.526 361.717 450.446 354.752 446.128 347.909C441.392 340.403 435.636 333.616 430.021 326.728C429.722 326.36 429.465 325.953 429.121 325.63C427.178 323.804 427.207 321.61 427.944 319.298C428.499 317.555 429.298 317.224 431.016 318.043C433.569 319.263 436.034 320.66 438.645 321.756C445.827 324.768 451.11 330.007 456.493 335.149C457.473 336.086 458.46 337.017 459.455 337.939C459.685 338.152 459.877 338.541 460.268 338.412C460.723 338.261 460.606 337.8 460.647 337.462C461.31 332.035 461.237 326.614 460.394 321.254C458.248 307.606 454.643 294.328 449.653 281.428C448.155 277.557 446.265 273.846 444.717 270.861L444.718 270.858ZM455.667 340.834C455.536 340.679 455.342 340.357 455.06 340.138C453.36 338.819 451.993 337.215 450.68 335.561C450.091 334.819 449.451 334.118 448.675 333.546C448.416 333.355 448.129 333.085 447.767 333.259C447.436 333.418 447.538 333.775 447.55 334.048C447.589 334.983 447.614 335.922 447.728 336.85C447.873 338.042 448.163 338.219 449.342 337.848C450.351 337.53 451.008 337.801 451.477 338.683C452.007 339.676 452.405 340.718 452.772 341.771C453.375 343.505 453.942 345.251 454.535 346.988C454.637 347.286 454.7 347.729 455.071 347.736C455.566 347.745 455.556 347.235 455.637 346.914C455.931 345.752 456.18 344.579 456.247 343.385C456.295 342.539 456.127 341.737 455.668 340.836L455.667 340.834ZM458.202 357.831C458.495 358.197 458.764 358.586 459.091 358.924C459.38 359.223 459.62 359.781 460.11 359.62C460.564 359.471 460.513 358.888 460.601 358.473C461.317 355.101 460.065 352.098 458.852 349.088C458.775 348.897 458.671 348.629 458.414 348.666C458.011 348.723 458.048 349.091 458.037 349.358C457.944 351.661 457.859 353.963 457.793 356.266C457.777 356.813 457.961 357.326 458.202 357.831ZM491.203 335.988C491.289 335.918 491.443 335.807 491.575 335.678C494.08 333.22 496.59 330.767 499.076 328.29C499.351 328.016 499.953 327.664 499.499 327.239C499.112 326.878 498.5 326.971 498.028 327.314C497.788 327.489 497.582 327.712 497.381 327.932C495.798 329.677 494.118 331.293 491.897 332.335C490.614 332.937 490.104 334.089 490.057 335.397C490.03 336.163 490.454 336.384 491.202 335.989L491.203 335.988ZM480.995 345.028C480.365 345.401 479.92 345.89 479.573 346.468C479.287 346.944 479.009 347.472 478.439 347.653C476.909 348.14 476.616 349.378 476.309 350.625C476.259 350.829 476.14 351.08 476.413 351.188C476.653 351.285 476.849 351.091 476.994 350.931C478.539 349.222 480.078 347.509 481.608 345.789C481.802 345.572 482.015 345.28 481.788 345.01C481.55 344.728 481.239 344.945 480.996 345.03L480.995 345.028ZM464.674 363.077C463.465 364.209 463.1 365.836 463.724 366.775C463.919 367.07 464.153 367.452 464.58 367.359C465.023 367.262 465.076 366.83 465.042 366.467C464.944 365.401 464.813 364.337 464.674 363.077Z" fill="#BEC8BE"/>
</svg>
